<?xml version='1.0' encoding='UTF-8'?>
<svg xmlns="http://www.w3.org/2000/svg" id="o" data-name="Diplome" viewBox="0 0 453.54 453.54">
  <defs>
    <style>
      .z {
        stroke-width: 12px;
      }

      .z, .aa {
        fill: none;
        stroke: #008280;
        stroke-linecap: round;
        stroke-linejoin: round;
      }

      .ab {
        fill: #008280;
        stroke-width: 0px;
      }

      .aa {
        stroke-width: 12.92px;
      }
    </style>
  </defs>
  <path class="ab" d="M313.14,315.75c4.9-1.92,8.89-6.82,10.8-10.8.69-1.38,1.76-3.6,2.38-4.14.69-.46,4.9-1.46,7.66-1.46l.53,1.45c.81-.6,1.85-.96,3.12-.96.05,0,.1,0,.15,0,.58-.29,1.16-.57,1.75-.83,1.01-.59,2.03-1.15,3.06-1.68.54-1.19,1.5-2.16,2.87-2.62l-.68-1.88c2.38-4.14,1.53-8.89.84-12.8-.31-1.53-.77-4.06-.54-4.83.31-.69,2.07-2.38,3.14-3.45,3.22-3.06,7.28-6.82,7.28-12.49s-4.06-9.5-7.28-12.49c-1.07-1-2.83-2.68-3.14-3.37-.23-.77.23-3.37.54-4.83.77-4.29,1.76-9.65-1.53-14.1-3.29-4.44-8.66-5.13-13.03-5.75-1.53-.23-4.14-.54-4.75-1-.61-.54-1.69-2.76-2.38-4.14-1.92-3.98-4.21-9.19-9.65-10.65-4.98-1.3-10.73,1.3-13.71,2.91-1.46.77-3.83,2.07-4.67,2.07s-3.29-1.3-4.67-2.07c-3.98-2.15-9.12-4.37-13.71-2.91-5.36,1.69-7.74,6.67-9.65,10.65-.69,1.38-1.76,3.6-2.38,4.14-.69.46-3.29.77-4.83,1-4.37.61-9.81,1.3-13.03,5.75-3.29,4.44-2.3,9.81-1.53,14.1.31,1.53.77,4.06.54,4.83-.31.69-2.07,2.38-3.14,3.45-3.22,3.06-7.28,6.82-7.28,12.49s4.06,9.5,7.28,12.49c1.07,1,2.83,2.68,3.14,3.37.23.77-.23,3.37-.54,4.83-.69,3.91-1.53,8.66.77,12.8l-.81,2.23h.46c.97,0,1.88.25,2.72.73.36.28.73.56,1.09.84.59.59,1.01,1.28,1.28,2.06.46-.12,1.01,1.09,1.55,1.09l4.68-.36c2.83-.08,6.97,1,7.66,1.38.61.54,1.69,2.76,2.38,4.14,1.92,3.98,5.29,8.12,10.8,10.8l-.53,1.45c.3-.09.61-.17.92-.24,3.16-.66,5.77-.14,8.58-2.06,1.54-1.05,3.05-1.15,4.33-.65l.87-2.49c1.23-.61,2.45-1.15,2.99-1.15s1.76.54,2.99,1.15l2.73,7.81c2.98-1.78,6.64-2.38,10.31-2.54l1.29-1.29Z"/>
  <polygon class="z" points="47.65 377.23 413.71 377.23 413.71 173.87 331.78 91.71 47.07 91.71 47.65 377.23"/>
  <polyline class="aa" points="331.78 91.71 331.78 173.38 413.71 173.87"/>
  <line class="z" x1="87.74" y1="173.87" x2="291.69" y2="173.87"/>
  <line class="z" x1="88.32" y1="214.54" x2="210.34" y2="214.67"/>
  <line class="z" x1="87.74" y1="255.21" x2="169.38" y2="255.21"/>
  <line class="z" x1="88.18" y1="299.35" x2="169.81" y2="299.35"/>
  <polygon class="z" points="255.59 285.1 237.43 327.06 260.29 327.06 275.79 341.15 288.16 303.58 255.59 285.1"/>
  <polygon class="z" points="302.97 308.27 314.48 339.04 330.45 326.12 350.65 325.89 337.02 290.19 327.52 282.99 302.97 308.27"/>
</svg>
