<?xml version='1.0' encoding='UTF-8'?>
<svg xmlns="http://www.w3.org/2000/svg" id="ah" data-name="Maison verte" viewBox="0 0 453.54 453.54">
  <defs>
    <style>
      .ak {
        fill: #8A5301;
        stroke-width: 0px;
      }

      .al {
        fill: none;
        stroke: #8A5301;
        stroke-linecap: round;
        stroke-linejoin: round;
        stroke-width: 12px;
      }
    </style>
  </defs>
  <line class="al" x1="44.47" y1="410.98" x2="410.49" y2="410.98"/>
  <polygon class="al" points="226.32 42.56 152.23 113.56 152.23 75.34 86.87 75.34 86.87 175.43 87.68 175.43 43.06 218.2 82.35 218.2 82.35 410.98 371.08 410.98 371.08 218.2 409.58 218.2 226.32 42.56"/>
  <path class="ak" d="M140.67,339.9v.05l-.67.45c-1.86,1.23-2.97,3.33-2.97,5.6,0,3.69,2.94,6.69,6.55,6.69.69,0,1.35-.1,1.92-.3,13.85-4.25,27.04-10.7,39.25-19.2l.38-.27,5.29-.02c57.65-.26,108.17-59.13,112.6-131.22l.49-7.83c.19-1.85-.28-3.62-1.32-5.05l-.04-.05c-1.11-1.4-2.67-2.21-4.29-2.22l-6.35.03c-57.62.26-108.12,59.14-112.58,131.24l-.24,3.88-.6.42c-11.37,7.82-23.61,13.71-36.39,17.49l-1.04.32ZM203.2,318.33l3.76-3.78c9.75-9.79,18.54-21.11,26.13-33.66v-.02c1.84-2.91,1.34-7.05-1.09-9.21-1.21-1.12-2.77-1.63-4.31-1.41-1.63.23-3.08,1.24-3.99,2.76-8.52,14.04-18.56,26.36-29.85,36.62l-3.03,2.75.53-4.06c3.78-28.8,15.91-55.74,34.18-75.86,18.39-20.27,41.31-31.73,64.53-32.27l1.64-.04-.11,1.64c-3.8,55.99-38.79,104.47-83.21,115.27l-5.18,1.26Z"/>
</svg>
