<?xml version='1.0' encoding='UTF-8'?>
<svg xmlns="http://www.w3.org/2000/svg" id="w" data-name="Recyclage_2" viewBox="0 0 453.54 453.54">
  <defs>
    <style>
      .ak {
        fill: none;
        stroke: #8A5301;
        stroke-miterlimit: 10;
        stroke-width: 12px;
      }
    </style>
  </defs>
  <path class="ak" d="M320.35,121.48l-5.79,32.26-.56,3.15h0s-5.22,29.12-5.22,29.12l-30.41-12.26-.76-.31-29.64-11.94,18.37-10.16-29.45-57.74-62.53,95.54c-3.83,5.86-10.21,9.02-16.72,9.02-3.75,0-7.55-1.05-10.93-3.26-9.22-6.03-11.81-18.41-5.76-27.63,6.72-10.28,13.44-20.54,20.16-30.81,10.99-16.81,22-33.61,33-50.42,3.65-5.58,6.89-11.77,11.21-16.82,8.89-10.44,22.48-16.61,36.22-15.04,13.19,1.52,25,9.7,31.04,21.54l28.72,56.29,19.06-10.54Z"/>
  <path class="ak" d="M303.67,401.39l-25.53-20.56-2.5-2h-.01s-23.03-18.55-23.03-18.55l25.35-20.8.63-.52,24.7-20.28.1,20.99,64.79,1.87-53.81-100.71c-3.3-6.17-3.02-13.29.11-19,1.8-3.29,4.54-6.12,8.1-8.02,9.72-5.2,21.81-1.52,27.01,8.2,5.79,10.83,11.57,21.65,17.36,32.48,9.47,17.71,18.93,35.43,28.4,53.14,3.14,5.88,7.01,11.7,9.38,17.91,4.89,12.81,3.78,27.69-4.18,38.99-7.66,10.84-20.51,17.27-33.79,16.9l-63.17-1.81.1,21.78Z"/>
  <path class="ak" d="M62.25,256.59l30.21-12.73,2.95-1.25h.01s27.25-11.5,27.25-11.5l6.3,32.18.16.8,6.15,31.36-18.53-9.86-32.35,56.17,114.18.35c7,.02,13.13,3.64,16.68,9.1,2.05,3.15,3.23,6.9,3.22,10.94-.03,11.02-9,19.93-20.02,19.89-12.28-.03-24.55-.08-36.82-.11-20.09-.06-40.17-.13-60.25-.18-6.66-.02-13.62.63-20.21-.23-13.59-1.77-26.18-9.79-32.35-22.17-5.92-11.89-5.49-26.25,1.14-37.76l31.54-54.76-19.23-10.23Z"/>
</svg>
