<?xml version='1.0' encoding='UTF-8'?>
<svg xmlns="http://www.w3.org/2000/svg" id="z" data-name="Robinet" viewBox="0 0 453.54 453.54">
  <defs>
    <style>
      .ak {
        fill: #fff;
      }

      .ak, .al {
        stroke: #8A5301;
        stroke-linecap: round;
        stroke-linejoin: round;
        stroke-width: 12px;
      }

      .al {
        fill: none;
      }
    </style>
  </defs>
  <rect class="ak" x="266.05" y="252.1" width="101" height="25.78" rx="1" ry="1"/>
  <rect class="ak" x="6.33" y="128.57" width="101" height="28.44" rx="1.05" ry="1.05" transform="translate(199.62 85.97) rotate(90)"/>
  <path class="ak" d="M210.16,87.66h-42.4v-41.26c0-.35-.28-.63-.63-.63h-16.26c-.35,0-.63.28-.63.63v41.26h-39.43c-.45,0-.82.37-.82.82v15.88c0,.45.37.82.82.82h99.35c.45,0,.82-.37.82-.82v-15.88c0-.45-.37-.82-.82-.82Z"/>
  <path class="ak" d="M149.94,50.66l-56.22-11.22s-16.89-.5-16.89,18.36,16.52,18.11,16.52,18.11l56.59-10.59v-14.67Z"/>
  <path class="ak" d="M168.6,50.66l56.22-11.22s16.89-.5,16.89,18.36-16.52,18.11-16.52,18.11l-56.59-10.59v-14.67Z"/>
  <path class="al" d="M71.05,104.51h214.22s66.67,9.58,66.67,69.03v78.56h-73.33v-58.81s-.88-13.77-13.77-13.77H71.05v-75.01Z"/>
  <path class="ak" d="M322.28,299.99s-42.9,49.33-42.9,68.67c0,25.81,14.78,45.07,40,45.07,32.56,0,45.67-22.9,45.67-43.07,0-21.89-42.77-70.67-42.77-70.67Z"/>
</svg>
