<?xml version='1.0' encoding='UTF-8'?>
<svg xmlns="http://www.w3.org/2000/svg" id="j" data-name="Protection environnement" viewBox="0 0 453.54 453.54">
  <defs>
    <style>
      .ak {
        stroke: #8A5301;
      }

      .ak, .al {
        stroke-linecap: round;
        stroke-linejoin: round;
      }

      .ak, .al, .am {
        fill: none;
        stroke-width: 12px;
      }

      .al, .am {
        stroke: #8A5301;
      }

      .am {
        stroke-miterlimit: 10;
      }
    </style>
  </defs>
  <path class="ak" d="M49.92,338.68c.47,0,47.78,1.27,49.04,0,1.27-1.27,67.81-27.83,69.83-28.84,1.37-.69,58.36-.44,83.03-.21,11.19.1,20.19,9.2,20.19,20.39h0c0,11.26-9.13,20.39-20.39,20.39h-69.56s110.2,0,110.2,0l88.27-42.71c9.74-4.58,21.35-.84,26.59,8.56h0c5.64,10.11,1.79,22.88-8.5,28.18l-82.29,43.33-143.36,30.07-77.76-1.55h-51.4"/>
  <g>
    <g>
      <path class="al" d="M156.45,119.39c0-5.39,8.09-13.48,13.48-13.48,6,0,5.73,8.42,7.41,11.79,3.37-4.38,2.7-21.88,3.37-24.91-.67-1.68-4.72-6.4-8.76-10.78-18.53,16.51-30.99,39.75-34.03,65.69,8.42-4.72,22.91-3.39,25.27-5.41-.87-5.23-6.74-18.72-6.74-22.91Z"/>
      <path class="al" d="M161.5,209.69c-2.78-2.78-5.93-16.05-6.74-16.84-1.68-1.35-8.76-4.72-14.82-7.41,5.39,20.89,16.84,39.08,32.34,52.89,2.02-6.74,5.05-16.84,5.05-20.89,0-1.85-13.83-5.74-15.83-7.75Z"/>
      <path class="al" d="M294.57,70.22c-12.46,8.42-20.83,6.74-23.52,6.74h-19.87c-2.36.67-8.2,6.3-11.24,10.34,2.95-.59,8.51,2.12,11.51,2.12,1.01,0,3.71.34,5.05,3.71,1.68,4.04,1.01,11.79-2.7,15.5-1.35,1.35-4.38,4.38-28.97,4.38-2.02,1.68-4.46,4.79-4.46,7.15,0,1.35,2.02,3.37,3.37,3.37,4.17-1.39,16.13-7.15,20.96-7.15,2.73,0,12.54,6.74,13.48,6.74.67,0,2.7-1.68,4.04-2.36,4.71-3.03,10.78-7.07,14.82-3.03,5.11,3.83-1.68,9.77-5.05,12.8-1.01,1.01-2.7,2.02-3.37,3.03h3.03c3.37,0,6.06,3.03,6.06,6.74,0,1.35-.67,3.03-1.35,4.04-1.01,1.68-2.7,2.7-4.72,2.7h-23.58c-3.64,0-10.45-4.22-10.45-4.22-3.37.34-25.59,11.5-29.97,15.2l-2.33,10.8c-.74,3.41.48,6.94,3.16,9.18,3.44,2.87,7.92,5.88,9.61,6.09,9-2.99,10.8-3.71,13.14-3.71,6.06,0,16.84,19.54,16.84,23.58,0,2.77-3.37,8.98-3.37,10.11,0,8.15,11.56,17.42,14.48,14.48,16.17-16.16,17.61-18.31,17.95-19.32v-9.77c0-2.7,3.03-7.07,6.74-11.12-2.01-.67-4.04-1.68-5.73-3.37-3.71-3.71-2.71-19.1-2.71-31.9,0-3.69,4.7-4.75,6.4-1.35l8.34,17.2c4.04-2.02,7.41-4.38,8.42-5.73-.67-2.02-3.7-9.1-6.4-14.82-1.57-3.96,2.82-6.61,5.39-4.04l6.74,6.74c1.19,1.18,5.87-1.01,7.75-1.01,1.68,0,4.72,0,13.48,18.2,1.01-2.7,2.7-5.39,4.38-7.08,3.03-3.37,10.78-4.04,15.83-4.38-1.35-36.72-21.56-68.73-51.21-86.58Z"/>
    </g>
    <circle class="am" cx="240.5" cy="159.43" r="105.5"/>
  </g>
</svg>
