<?xml version='1.0' encoding='UTF-8'?>
<svg xmlns="http://www.w3.org/2000/svg" id="b" data-name="Protection environnement" viewBox="0 0 453.54 453.54">
  <defs>
    <style>
      .ak {
        fill: #fff;
      }

      .ak, .al {
        stroke-linecap: round;
        stroke-linejoin: round;
      }

      .ak, .al, .am {
        stroke: #8A5301;
        stroke-width: 12px;
      }

      .al, .am {
        fill: none;
      }

      .am {
        stroke-miterlimit: 10;
      }
    </style>
  </defs>
  <g>
    <path class="al" d="M72.13,216.73l2.05-53.78c-1.94-8.94-10.77-14.61-19.71-12.67h0c-8.94,1.94-11.22,8.62-12.67,19.71l-2.83,54.8s11.27,64.19,24.89,77.72c15.09,15,57.95,37.41,57.95,37.41l-.11,22.78,80.61-3.56s2.23-40.07-.93-51.71c-2.79-10.31-15.88-23.39-30.68-31.94-22.45-12.96-39.16-14.89-39.16-14.89l-35.4-43.31c-5.21-6.38-15.65-7.43-22.74-1.64s-8.13,16.23-2.92,22.61l35.4,43.31"/>
    <rect class="ak" x="135.12" y="328.77" width="54.55" height="101.65" rx="9.29" ry="9.29" transform="translate(-217.2 541.98) rotate(-90)"/>
  </g>
  <g>
    <path class="al" d="M374.97,216.73l-2.05-53.78c1.94-8.94,10.77-14.61,19.71-12.67h0c8.94,1.94,11.22,8.62,12.67,19.71l2.83,54.8s-11.27,64.19-24.89,77.72c-15.09,15-57.95,37.41-57.95,37.41l.11,22.78-80.61-3.56s-2.23-40.07.93-51.71c2.79-10.31,15.88-23.39,30.68-31.94,22.45-12.96,39.16-14.89,39.16-14.89l35.4-43.31c5.21-6.38,15.65-7.43,22.74-1.64,7.09,5.79,8.13,16.23,2.92,22.61l-35.4,43.31"/>
    <rect class="ak" x="257.43" y="328.77" width="54.55" height="101.65" rx="9.29" ry="9.29" transform="translate(-94.89 664.29) rotate(-90)"/>
  </g>
  <g>
    <g>
      <path class="al" d="M150.96,96.57c0-4.87,7.3-12.17,12.17-12.17,5.42,0,5.17,7.61,6.69,10.65,3.04-3.96,2.43-19.76,3.04-22.5-.61-1.52-4.26-5.78-7.91-9.74-16.73,14.91-27.99,35.9-30.73,59.33,7.61-4.26,20.69-3.06,22.82-4.89-.79-4.72-6.08-16.91-6.08-20.69Z"/>
      <path class="al" d="M155.52,178.12c-2.51-2.51-5.36-14.49-6.08-15.21-1.52-1.22-7.91-4.26-13.39-6.69,4.87,18.86,15.21,35.29,29.21,47.77,1.83-6.08,4.56-15.21,4.56-18.86,0-1.67-12.49-5.18-14.3-7Z"/>
      <path class="al" d="M275.7,52.17c-11.26,7.61-18.81,6.08-21.24,6.08h-17.95c-2.13.61-7.41,5.69-10.15,9.34,2.67-.54,7.68,1.92,10.4,1.92.91,0,3.35.3,4.56,3.35,1.52,3.65.91,10.65-2.43,14-1.22,1.22-3.96,3.96-26.16,3.96-1.83,1.52-4.02,4.32-4.02,6.45,0,1.22,1.83,3.04,3.04,3.04,3.77-1.26,14.57-6.45,18.93-6.45,2.46,0,11.32,6.08,12.17,6.08.61,0,2.43-1.52,3.65-2.13,4.25-2.74,9.73-6.39,13.38-2.74,4.62,3.46-1.52,8.82-4.56,11.56-.91.91-2.43,1.83-3.04,2.74h2.74c3.04,0,5.48,2.74,5.48,6.08,0,1.22-.61,2.74-1.22,3.65-.91,1.52-2.43,2.43-4.26,2.43h-21.3c-3.29,0-9.43-3.81-9.44-3.81-3.04.3-23.11,10.38-27.07,13.73l-2.1,9.76c-.66,3.08.43,6.27,2.85,8.29,3.1,2.59,7.15,5.31,8.68,5.5,8.13-2.7,9.75-3.35,11.87-3.35,5.48,0,15.21,17.65,15.21,21.3,0,2.5-3.04,8.11-3.04,9.13,0,7.36,10.44,15.74,13.08,13.08,14.61-14.6,15.91-16.54,16.21-17.45v-8.82c0-2.43,2.74-6.39,6.08-10.04-1.82-.61-3.65-1.52-5.17-3.04-3.35-3.35-2.45-17.25-2.45-28.81,0-3.33,4.24-4.29,5.78-1.22l7.53,15.53c3.65-1.83,6.69-3.96,7.6-5.17-.61-1.83-3.34-8.21-5.78-13.39-1.42-3.57,2.55-5.97,4.87-3.65l6.08,6.08c1.07,1.07,5.3-.91,7-.91,1.52,0,4.26,0,12.17,16.43.91-2.44,2.43-4.87,3.96-6.39,2.74-3.04,9.74-3.65,14.3-3.96-1.22-33.16-19.47-62.07-46.24-78.19Z"/>
    </g>
    <circle class="am" cx="226.87" cy="132.73" r="95.28"/>
  </g>
</svg>
