<?xml version='1.0' encoding='UTF-8'?>
<svg xmlns="http://www.w3.org/2000/svg" id="p" data-name="Hiver" viewBox="0 0 453.54 453.54">
  <defs>
    <style>
      .ak {
        fill: #5F1972;
        stroke-width: 0px;
      }
    </style>
  </defs>
  <path class="ak" d="M416.66,77.28h-39.35v-24.25c0-3.31-2.69-6-6-6s-6,2.69-6,6v24.25h-80.22v-24.25c0-3.31-2.69-6-6-6s-6,2.69-6,6v24.25h-80.23v-24.25c0-3.31-2.68-6-6-6s-6,2.69-6,6v24.25h-80.22v-24.25c0-3.31-2.69-6-6-6s-6,2.69-6,6v24.25h-38.63c-6.08,0-11.03,4.95-11.03,11.04v318.93c0,6.09,4.95,11.04,11.03,11.04h366.65c6.08,0,11.04-4.95,11.04-11.04V88.32c0-6.09-4.96-11.04-11.04-11.04ZM415.7,406.29H50.98v-246.45h364.72v246.45ZM415.7,147.84H50.98v-58.56h37.66v22.01c0,3.32,2.69,6,6,6s6-2.68,6-6v-22.01h80.22v22.01c0,3.32,2.69,6,6,6s6-2.68,6-6v-22.01h80.23v22.01c0,3.32,2.68,6,6,6s6-2.68,6-6v-22.01h80.22v22.01c0,3.32,2.69,6,6,6s6-2.68,6-6v-22.01h38.39v58.56Z"/>
  <path class="ak" d="M324.28,294.31l-41.81,11.21-12.65-7.3c1.9-4.76,2.95-9.96,2.95-15.39s-1.05-10.63-2.95-15.39l12.65-7.31,41.81,11.21c.52.14,1.04.21,1.56.21,2.64,0,5.07-1.77,5.79-4.45.86-3.2-1.04-6.49-4.24-7.35l-30.23-8.1,26.7-15.41c2.87-1.66,3.85-5.33,2.2-8.2-1.66-2.87-5.33-3.85-8.2-2.19l-26.69,15.41,8.09-30.22c.86-3.2-1.04-6.49-4.24-7.35-3.2-.86-6.49,1.04-7.35,4.24l-11.21,41.82-12.66,7.3c-6.45-8.15-15.88-13.83-26.63-15.38v-14.62l30.6-30.6c2.35-2.35,2.35-6.15,0-8.49-2.34-2.34-6.14-2.34-8.48,0l-22.12,22.12v-30.82c0-3.32-2.69-6-6-6s-6,2.68-6,6v30.83l-22.13-22.13c-2.34-2.34-6.14-2.34-8.48,0-2.34,2.34-2.34,6.14,0,8.49l30.61,30.61v14.61c-10.75,1.55-20.19,7.24-26.64,15.39l-12.66-7.31-11.21-41.82c-.85-3.2-4.15-5.1-7.34-4.24-3.21.86-5.11,4.15-4.25,7.35l8.1,30.22-26.7-15.41c-2.87-1.66-6.54-.68-8.19,2.19-1.66,2.87-.68,6.54,2.19,8.2l26.7,15.41-30.22,8.1c-3.2.86-5.1,4.15-4.24,7.35.72,2.68,3.14,4.45,5.79,4.45.51,0,1.04-.07,1.56-.21l41.8-11.21h.01l12.65,7.31c-1.9,4.76-2.95,9.96-2.95,15.39s1.04,10.62,2.95,15.38l-12.66,7.31-41.8-11.21c-3.2-.85-6.49,1.05-7.35,4.25-.86,3.2,1.04,6.49,4.24,7.34l30.22,8.1-26.7,15.41c-2.87,1.66-3.85,5.33-2.19,8.2,1.11,1.93,3.13,3,5.2,3,1.02,0,2.05-.26,2.99-.8l26.7-15.42-8.1,30.22c-.86,3.21,1.04,6.5,4.25,7.35.52.14,1.04.21,1.55.21,2.65,0,5.08-1.77,5.79-4.45l11.21-41.81,12.66-7.31c6.45,8.15,15.89,13.84,26.64,15.39v14.6l-30.61,30.62c-2.34,2.34-2.34,6.14,0,8.48,1.17,1.17,2.71,1.76,4.24,1.76s3.07-.59,4.24-1.76l22.13-22.12v30.83c0,3.31,2.68,6,6,6s6-2.69,6-6v-30.82l22.12,22.11c1.17,1.17,2.71,1.76,4.24,1.76s3.07-.59,4.24-1.76c2.35-2.34,2.35-6.14,0-8.48l-30.6-30.61v-14.61c10.75-1.55,20.19-7.24,26.64-15.39l12.65,7.31,11.21,41.81c.72,2.68,3.14,4.45,5.79,4.45.52,0,1.04-.07,1.56-.21,3.2-.85,5.1-4.14,4.24-7.35l-8.09-30.21,26.69,15.41c.95.54,1.98.8,3,.8,2.07,0,4.09-1.07,5.2-3,1.65-2.87.67-6.54-2.2-8.2l-26.7-15.41,30.23-8.1c3.2-.85,5.1-4.14,4.24-7.34-.86-3.2-4.15-5.1-7.35-4.25ZM231.17,312.43c-16.33,0-29.6-13.28-29.6-29.6s13.27-29.6,29.6-29.6,29.6,13.27,29.6,29.6-13.28,29.6-29.6,29.6Z"/>
</svg>
