<?xml version='1.0' encoding='UTF-8'?>
<svg xmlns="http://www.w3.org/2000/svg" id="f" data-name="Atome" viewBox="0 0 453.54 453.54">
  <defs>
    <style>
      .ak {
        fill: #5F1972;
        stroke-width: 0px;
      }
    </style>
  </defs>
  <path class="ak" d="M228.71,270.58c-24.14,0-43.79-19.64-43.79-43.79s19.64-43.79,43.79-43.79,43.79,19.64,43.79,43.79-19.64,43.79-43.79,43.79ZM228.71,195.01c-17.53,0-31.79,14.26-31.79,31.79s14.26,31.79,31.79,31.79,31.79-14.26,31.79-31.79-14.26-31.79-31.79-31.79Z"/>
  <path class="ak" d="M370.28,246.61c-5.48-6.59-11.62-13.21-18.36-19.8,6.69-6.56,12.8-13.14,18.25-19.69,25.48-30.62,33.77-57.43,23.34-75.5-5.04-8.74-14.06-14.71-26.46-17.78-2.08-11.73-12.35-20.66-24.67-20.66s-22.6,8.95-24.66,20.7c-.42.07-.84.14-1.26.21-8.39,1.44-17.13,3.44-26.15,5.95-2.34-9.09-4.99-17.69-7.94-25.7-13.77-37.37-32.85-57.96-53.71-57.96s-39.93,20.59-53.71,57.96c-2.96,8.02-5.61,16.63-7.95,25.73-9.05-2.52-17.83-4.53-26.25-5.98-39.26-6.76-66.62-.53-77.05,17.53-6.05,10.49-5.8,23.92.46,39.33-4.76,4.55-7.72,10.96-7.72,18.05,0,13.82,11.24,25.06,25.05,25.06,3.47,0,6.78-.71,9.79-1.99,4.32,4.91,9.01,9.84,14.02,14.74-6.74,6.59-12.89,13.21-18.37,19.8-25.48,30.62-33.77,57.43-23.34,75.5,7.68,13.3,24.56,20.19,48.61,20.19,8.59,0,18.1-.88,28.44-2.66,8.45-1.46,17.26-3.47,26.35-6.01,2.34,9.11,5,17.73,7.96,25.76,13.78,37.37,32.85,57.96,53.71,57.96s39.94-20.59,53.71-57.96c2.96-8.02,5.61-16.63,7.95-25.73,9.05,2.52,17.84,4.53,26.26,5.98,10.33,1.78,19.84,2.66,28.44,2.66,24.05,0,40.92-6.89,48.6-20.19,10.43-18.07,2.15-44.88-23.34-75.5ZM330.84,112.14c2.19-4.13,6.54-6.96,11.54-6.96s9.08,2.65,11.33,6.58c1.1,1.91,1.73,4.12,1.73,6.47,0,2-.45,3.9-1.26,5.59-2.1,4.41-6.6,7.47-11.8,7.47s-9.43-2.88-11.6-7.09c-.93-1.79-1.45-3.82-1.45-5.97s.54-4.27,1.51-6.09ZM318.5,125.92s.03,0,.04-.01c3.24,10.07,12.7,17.38,23.84,17.38s20.56-7.27,23.82-17.3h0c8.01,2.34,13.79,6.24,16.91,11.63,7.62,13.2-.46,35.73-22.17,61.82-5.29,6.36-11.24,12.76-17.76,19.13-12.55-11.42-26.77-22.68-42.25-33.42-1.58-18.83-4.22-36.82-7.86-53.43,8.78-2.45,17.28-4.4,25.42-5.8ZM301.98,200.6c11.74,8.52,22.62,17.32,32.44,26.22-9.81,8.9-20.7,17.7-32.43,26.23.44-8.6.67-17.35.67-26.18s-.23-17.64-.68-26.27ZM281.57,318.5c-12.65-4.06-25.75-9.1-39.05-15.03,7.68-3.92,15.37-8.1,23.03-12.52,7.72-4.46,15.24-9.07,22.53-13.81-1.51,14.49-3.7,28.36-6.51,41.36ZM288.07,176.5c-7.25-4.7-14.74-9.29-22.41-13.72-7.69-4.44-15.42-8.64-23.14-12.57,13.3-5.92,26.4-10.96,39.04-15.03,2.81,12.98,5,26.85,6.51,41.32ZM186.21,98.49c11.74-31.84,27.21-50.11,42.45-50.11s30.71,18.27,42.45,50.11c2.86,7.77,5.44,16.14,7.69,24.99-16.2,5.16-33.09,11.85-50.19,19.9-17.06-8.03-33.93-14.72-50.1-19.87,2.26-8.86,4.83-17.24,7.7-25.02ZM175.76,135.22c12.61,4.06,25.67,9.08,38.93,14.99-7.72,3.93-15.45,8.13-23.14,12.57-7.63,4.41-15.08,8.96-22.29,13.64,1.52-14.43,3.7-28.25,6.5-41.2ZM197.55,173.18c10.34-5.97,20.73-11.49,31.06-16.5,10.32,5.02,20.71,10.53,31.05,16.5,10.32,5.96,20.28,12.19,29.77,18.61.81,11.43,1.23,23.16,1.23,35.08s-.41,23.59-1.23,34.99c-9.53,6.46-19.52,12.71-29.88,18.69-10.3,5.95-20.65,11.45-30.94,16.45-10.29-5-20.64-10.5-30.94-16.45-10.32-5.96-20.28-12.19-29.77-18.61-.81-11.42-1.23-23.16-1.23-35.07s.42-23.71,1.24-35.16c9.45-6.4,19.36-12.6,29.64-18.53ZM169.25,277.22c7.26,4.71,14.74,9.29,22.42,13.73,7.66,4.42,15.35,8.6,23.03,12.52-13.27,5.91-26.33,10.94-38.95,15-2.8-12.96-4.98-26.8-6.5-41.25ZM155.35,253.13c-11.78-8.55-22.7-17.38-32.55-26.31,9.85-8.94,20.77-17.76,32.55-26.31-.45,8.66-.68,17.47-.68,26.36s.23,17.63.68,26.26ZM92.92,195.31c-2.01,3.63-5.7,6.21-10.02,6.67-.46.05-.93.08-1.41.08-7.19,0-13.05-5.86-13.05-13.06,0-2.21.56-4.3,1.54-6.13,1.96-3.67,5.62-6.29,9.91-6.82.52-.07,1.06-.1,1.6-.1,7.2,0,13.06,5.86,13.06,13.05,0,2.29-.59,4.44-1.63,6.31ZM100.9,204.82c3.53-4.32,5.65-9.82,5.65-15.82,0-13.81-11.24-25.05-25.06-25.05-2.37,0-4.67.33-6.85.96-4.23-11.07-4.51-20.44-.55-27.29,5.4-9.34,18.79-14.21,38.02-14.21,7.93,0,16.84.83,26.6,2.51,8.17,1.41,16.71,3.36,25.52,5.83-3.62,16.57-6.26,34.52-7.83,53.3-15.52,10.78-29.79,22.06-42.37,33.52-4.69-4.57-9.07-9.17-13.13-13.75ZM138.6,327.81c-33.44,5.76-57,1.49-64.62-11.7-7.62-13.2.46-35.73,22.17-61.82,5.32-6.39,11.3-12.82,17.87-19.23,12.57,11.45,26.84,22.75,42.37,33.53,1.57,18.79,4.21,36.76,7.83,53.35-8.85,2.49-17.42,4.46-25.62,5.87ZM271.11,355.24c-11.74,31.84-27.21,50.11-42.45,50.11s-30.71-18.27-42.45-50.11c-2.87-7.79-5.45-16.18-7.71-25.06,16.17-5.15,33.05-11.85,50.11-19.89,17.09,8.06,33.99,14.76,50.2,19.92-2.26,8.87-4.83,17.25-7.7,25.03ZM383.23,316.11c-7.62,13.19-31.17,17.46-64.62,11.7-8.17-1.41-16.71-3.36-25.52-5.84,3.64-16.63,6.28-34.63,7.86-53.46,15.48-10.76,29.7-22.02,42.24-33.46,6.57,6.41,12.55,12.85,17.87,19.24,21.71,26.09,29.79,48.62,22.17,61.82Z"/>
</svg>
