<?xml version='1.0' encoding='UTF-8'?>
<svg xmlns="http://www.w3.org/2000/svg" id="o" data-name="Ete" viewBox="0 0 453.54 453.54">
  <defs>
    <style>
      .ak {
        fill: #5F1972;
        stroke-width: 0px;
      }
    </style>
  </defs>
  <path class="ak" d="M410.37,76.87h-39.42v-24.29c0-3.31-2.69-6-6-6s-6,2.69-6,6v24.29h-80.36v-24.29c0-3.31-2.69-6-6-6s-6,2.69-6,6v24.29h-80.37v-24.29c0-3.31-2.68-6-6-6s-6,2.69-6,6v24.29h-80.36v-24.29c0-3.31-2.68-6-6-6s-6,2.69-6,6v24.29h-38.7c-6.08,0-11.03,4.95-11.03,11.04v319.42c0,6.09,4.95,11.04,11.03,11.04h367.21c6.08,0,11.04-4.95,11.04-11.04V87.91c0-6.09-4.96-11.04-11.04-11.04ZM409.41,406.37H44.13v-246.83h365.28v246.83ZM409.41,147.54H44.13v-58.67h37.73v22.06c0,3.31,2.69,6,6,6s6-2.69,6-6v-22.06h80.36v22.06c0,3.31,2.69,6,6,6s6-2.69,6-6v-22.06h80.37v22.06c0,3.31,2.68,6,6,6s6-2.69,6-6v-22.06h80.36v22.06c0,3.31,2.68,6,6,6s6-2.69,6-6v-22.06h38.46v58.67Z"/>
  <g>
    <path class="ak" d="M224.6,324.38c-22.97,0-41.66-18.69-41.66-41.65s18.69-41.66,41.66-41.66,41.65,18.69,41.65,41.66-18.69,41.65-41.65,41.65ZM224.6,253.07c-16.35,0-29.66,13.3-29.66,29.66s13.3,29.65,29.66,29.65,29.65-13.3,29.65-29.65-13.3-29.66-29.65-29.66Z"/>
    <path class="ak" d="M224.6,223.89c-3.31,0-6-2.69-6-6v-38.9c0-3.31,2.69-6,6-6s6,2.69,6,6v38.9c0,3.31-2.69,6-6,6Z"/>
    <path class="ak" d="M168.45,256.31c-1.02,0-2.05-.26-2.99-.8l-33.69-19.45c-2.87-1.66-3.85-5.33-2.2-8.2,1.66-2.87,5.33-3.85,8.2-2.2l33.69,19.45c2.87,1.66,3.85,5.33,2.2,8.2-1.11,1.92-3.13,3-5.2,3Z"/>
    <path class="ak" d="M134.77,340.58c-2.07,0-4.09-1.08-5.2-3-1.66-2.87-.67-6.54,2.2-8.2l33.69-19.45c2.87-1.65,6.54-.67,8.2,2.2s.67,6.54-2.2,8.2l-33.69,19.45c-.94.54-1.98.8-2.99.8Z"/>
    <path class="ak" d="M224.6,392.44c-3.31,0-6-2.69-6-6v-38.9c0-3.31,2.69-6,6-6s6,2.69,6,6v38.9c0,3.31-2.69,6-6,6Z"/>
    <path class="ak" d="M314.42,340.58c-1.02,0-2.05-.26-2.99-.8l-33.68-19.45c-2.87-1.66-3.85-5.33-2.2-8.2,1.66-2.87,5.33-3.85,8.2-2.2l33.68,19.45c2.87,1.66,3.85,5.33,2.2,8.2-1.11,1.92-3.13,3-5.2,3Z"/>
    <path class="ak" d="M280.74,256.31c-2.07,0-4.09-1.08-5.2-3-1.66-2.87-.67-6.54,2.2-8.2l33.68-19.45c2.87-1.65,6.54-.67,8.2,2.2,1.66,2.87.67,6.54-2.2,8.2l-33.68,19.45c-.94.54-1.98.8-2.99.8Z"/>
  </g>
</svg>
