<?xml version='1.0' encoding='UTF-8'?>
<svg xmlns="http://www.w3.org/2000/svg" id="ab" data-name="Planisphère" viewBox="0 0 453.54 453.54">
  <defs>
    <style>
      .ak {
        stroke-linecap: round;
        stroke-linejoin: round;
      }

      .ak, .al {
        fill: none;
        stroke: #5F1972;
        stroke-width: 12px;
      }

      .al {
        stroke-miterlimit: 10;
      }
    </style>
  </defs>
  <g>
    <path class="ak" d="M82.84,160.69c0-9.3,13.95-23.25,23.25-23.25,10.35,0,9.88,14.53,12.79,20.34,5.81-7.55,4.65-37.74,5.81-42.97-1.16-2.91-8.14-11.04-15.11-18.6-31.96,28.48-53.47,68.58-58.7,113.33,14.53-8.14,39.52-5.85,43.59-9.33-1.51-9.01-11.62-32.3-11.62-39.52Z"/>
    <path class="ak" d="M91.55,316.48c-4.79-4.79-10.23-27.68-11.62-29.06-2.91-2.32-15.11-8.14-25.57-12.79,9.3,36.03,29.06,67.41,55.79,91.24,3.49-11.62,8.72-29.06,8.72-36.03,0-3.2-23.85-9.9-27.31-13.37Z"/>
    <path class="ak" d="M321.11,75.88c-21.5,14.53-35.93,11.62-40.58,11.62h-34.28c-4.07,1.16-14.15,10.86-19.38,17.84,5.1-1.02,14.68,3.66,19.86,3.66,1.74,0,6.39.58,8.72,6.39,2.91,6.97,1.74,20.34-4.65,26.73-2.32,2.32-7.56,7.56-49.98,7.56-3.49,2.91-7.69,8.26-7.69,12.33,0,2.32,3.49,5.81,5.81,5.81,7.2-2.41,27.83-12.33,36.16-12.33,4.71,0,21.63,11.62,23.25,11.62,1.16,0,4.65-2.91,6.97-4.07,8.12-5.23,18.59-12.2,25.56-5.23,8.82,6.61-2.91,16.85-8.72,22.08-1.74,1.74-4.65,3.49-5.81,5.23h5.23c5.81,0,10.46,5.23,10.46,11.62,0,2.32-1.16,5.23-2.32,6.97-1.74,2.91-4.65,4.65-8.14,4.65h-40.68c-6.28,0-18.02-7.27-18.03-7.27-5.81.58-44.15,19.83-51.71,26.22l-4.02,18.64c-1.27,5.88.83,11.98,5.45,15.84,5.93,4.96,13.67,10.14,16.59,10.5,15.52-5.16,18.63-6.39,22.67-6.39,10.46,0,29.06,33.71,29.06,40.68,0,4.77-5.81,15.49-5.81,17.43,0,14.06,19.93,30.06,24.98,24.98,27.9-27.88,30.38-31.59,30.97-33.33v-16.85c0-4.65,5.22-12.2,11.62-19.18-3.48-1.16-6.97-2.91-9.88-5.81-6.39-6.39-4.68-32.94-4.68-55.03,0-6.37,8.11-8.19,11.05-2.32l14.39,29.67c6.97-3.49,12.79-7.56,14.52-9.88-1.16-3.49-6.39-15.69-11.04-25.57-2.71-6.83,4.87-11.41,9.3-6.97l11.62,11.62c2.05,2.04,10.12-1.74,13.37-1.74,2.91,0,8.14,0,23.25,31.39,1.74-4.66,4.65-9.3,7.56-12.21,5.23-5.81,18.6-6.97,27.31-7.56-2.32-63.35-37.19-118.56-88.34-149.36Z"/>
  </g>
  <circle class="al" cx="227.83" cy="229.77" r="182"/>
</svg>
