<?xml version='1.0' encoding='UTF-8'?>
<svg xmlns="http://www.w3.org/2000/svg" id="d" data-name="Azote Phosphore" viewBox="0 0 453.54 453.54">
  <defs>
    <style>
      .ak {
        fill: #fff;
      }

      .ak, .al {
        stroke: #5F1972;
        stroke-linecap: round;
        stroke-linejoin: round;
        stroke-width: 12.02px;
      }

      .al {
        fill: none;
      }

      .am {
        fill: #5F1972;
        stroke-width: 0px;
      }
    </style>
  </defs>
  <polygon class="al" points="371.01 65.01 290.78 65.01 250.66 134.49 290.78 203.98 371.01 203.98 411.13 134.49 371.01 65.01"/>
  <polygon class="al" points="137.18 38.88 75.4 38.88 44.52 92.38 75.4 145.88 137.18 145.88 168.07 92.38 137.18 38.88"/>
  <polygon class="ak" points="241 180.73 109.27 180.73 43.41 294.81 109.27 408.88 241 408.88 306.86 294.81 241 180.73"/>
  <path class="am" d="M219.97,337.2h-21.57l-52.93-81.67h-.59l.37,4.56c.69,8.69,1.03,16.64,1.03,23.84v53.28h-15.97v-102.5h21.35l52.78,81.25h.44c-.1-1.08-.29-4.99-.59-11.74-.29-6.75-.44-12.02-.44-15.81v-53.7h16.12v102.5Z"/>
  <path class="am" d="M358.67,121.64c0,7.28-2.5,12.86-7.51,16.74-5.01,3.88-12.13,5.82-21.38,5.82h-7.61v26.08h-11.97v-69.72h21.08c9.15,0,16,1.78,20.55,5.34s6.83,8.81,6.83,15.74ZM322.17,134.61h6.36c6.14,0,10.65-1.02,13.52-3.05,2.87-2.03,4.31-5.21,4.31-9.54,0-4.01-1.29-6.99-3.86-8.97-2.57-1.97-6.58-2.96-12.02-2.96h-8.31v24.51Z"/>
</svg>
