<?xml version='1.0' encoding='UTF-8'?>
<svg xmlns="http://www.w3.org/2000/svg" id="u" data-name="Recyclage 3" viewBox="0 0 453.54 453.54">
  <defs>
    <style>
      .ak {
        fill: none;
        fill-rule: evenodd;
        stroke: #5F1972;
        stroke-miterlimit: 10;
        stroke-width: 12px;
      }
    </style>
  </defs>
  <path class="ak" d="M159.2,100.62l-30.85,54.73,47.06,24.63,25.25-49.09,11.2-19.07-6.72-8.96c-22.39-35.87-40.35-11.2-45.95-2.24h0Z"/>
  <path class="ak" d="M107,294.43l3.36-4.48,17.91-32.51,15.72,8.96c2.24,1.12,3.36,1.12,4.48,1.12,3.36-1.12,6.72-4.48,5.6-8.96l-13.43-61.62c-1.12-3.4-3.36-4.52-6.76-4.52l-64.98,19.07c-4.48,2.24-6.72,7.84-3.36,11.2l14.56,7.84-32.51,58.3c-7.84,14.56-4.48,21.27-4.48,21.27l35.87,60.54c-7.84-14.6,7.84-39.23,7.84-39.23l20.19-36.99Z"/>
  <path class="ak" d="M377.07,324.7h-48.19l-36.99,1.12v-19.07c0-1.12-1.12-3.36-1.12-3.36-2.24-3.36-7.84-4.48-11.2-1.12l-45.95,42.58c-3.36,2.24-3.36,5.6,0,7.84l48.19,47.06c4.48,3.36,10.08,1.12,11.2-3.36v-15.68l66.14-1.12c16.8-1.12,20.16-6.72,20.16-6.72l34.75-61.66c-7.84,14.59-36.99,13.47-36.99,13.47h0Z"/>
  <path class="ak" d="M251.55,120.72l19.07,31.35-15.72,10.11c-1.12,1.12-2.24,2.24-2.24,3.36-2.24,3.36,0,7.84,4.48,8.96l60.54,17.92c3.36,1.12,5.6,0,6.72-4.48l14.56-64.98c1.12-5.6-3.36-10.07-7.84-8.96l-14.56,8.96-34.75-56.06c-8.96-14.56-15.68-14.56-15.68-14.56l-70.62,2.24c16.8-1.12,30.27,25.79,30.27,25.79l22.39,35.87,3.36,4.48Z"/>
  <path class="ak" d="M393.08,258.13l-31.8-54.18-44.96,28.29,29.74,46.51,10.86,19.27,11.12-1.3c42.26-1.32,29.97-29.24,25.04-38.59h0Z"/>
  <path class="ak" d="M143.47,380.3l62.81,1.47-.41-53.12-55.2.81-22.1-.91-4.74,10.15c-21.11,36.63,9.1,40.87,19.64,41.6h0Z"/>
</svg>
