<?xml version='1.0' encoding='UTF-8'?>
<svg xmlns="http://www.w3.org/2000/svg" id="y" data-name="Electricité verte" viewBox="0 0 453.54 453.54">
  <defs>
    <style>
      .ak {
        fill: #5F1972;
        stroke-width: 0px;
      }

      .al {
        stroke-miterlimit: 10;
      }

      .al, .am {
        fill: none;
        stroke: #5F1972;
        stroke-linecap: round;
        stroke-width: 12px;
      }

      .am {
        stroke-linejoin: round;
      }
    </style>
  </defs>
  <path class="am" d="M380.24,83.12c-124.96,110.64-218.68,55.97-252.97,32.11,26.92-32.54,82.02-118.45,252.97-32.11Z"/>
  <polygon class="ak" points="166.5 354.88 213.82 340.27 193.55 360.49 203.08 370.69 158.82 386.15 178.46 365.67 166.5 354.88"/>
  <path class="am" d="M239.45,103.73c-73.33,15.62-112.18,11.5-112.18,11.5h-5.62c-31.15,0-56.4,25.25-56.4,56.4v1.74c0,31.15,25.25,56.4,56.4,56.4h177.89c36.66,0,66.38,29.72,66.38,66.38,0,18.33-7.43,34.93-19.44,46.94-12.01,12.01-28.61,19.44-46.94,19.44h-47.73"/>
  <path class="al" d="M248.78,368.88c-.97,5.72-5.63,6.43-10.68,5.76-20.96-2.38-4.94,42.48-78.19,37.45q-.96,5.87-6.85,5.83c-4-.02-8-.05-12,0-2.69.04-3.97-1.08-3.91-3.88.1-4.97.03-9.94.03-15.29-11.16-.38-22.24-.04-33.4-.16-6.01,0-9.97-3.54-9.89-8.75.08-5.1,3.96-8.5,9.81-8.52,11.13-.03,22.11,0,33.26,0v-42.46c-11.27-.01-22.57.07-33.85-.02-6.52-.05-10.63-5.46-8.77-11.33,1.15-3.63,4.38-5.89,8.75-5.91,11.45-.05,22.61,0,34.1-.02,0-5.2.11-10.14-.04-15.07-.09-3.07,1.13-4.35,4.19-4.27,4,.11,8,.02,12,.02q5.63,0,6.55,5.83c28.76-1.96,58.24,3.95,68.61,34.47.89,2.37,1.98,3.19,4.39,2.99,6.69.08,13.89-1.99,16.15,6.19l-.26,17.15Z"/>
</svg>
