<?xml version='1.0' encoding='UTF-8'?>
<svg xmlns="http://www.w3.org/2000/svg" id="ai" data-name="Voiture électrique" viewBox="0 0 453.54 453.54">
  <defs>
    <style>
      .ak {
        fill: #5F1972;
        stroke-width: 0px;
      }

      .al {
        stroke-linecap: round;
      }

      .al, .am {
        fill: none;
        stroke: #5F1972;
        stroke-miterlimit: 10;
        stroke-width: 12px;
      }
    </style>
  </defs>
  <polygon class="ak" points="211.35 158.57 250.15 146.59 233.53 163.17 241.35 171.53 205.06 184.21 221.16 167.41 211.35 158.57"/>
  <g>
    <path class="al" d="M351.1,294.99s-22.52-42.78-62.48-45.03c-39.97-2.25-82.19-.56-91.19,2.81,0,0-59.18,29.7-75.99,38.84-11.11,6.04-63.2,21.11-67.55,23.64-6.76,3.94-23.08,22.19-23.77,37.28-.04.79-.05,1.57-.03,2.35.25,14.9,12.5,26.8,27.4,26.8h21.22c-.78-2.73-1.21-5.61-1.21-8.59,0-17.25,13.99-31.24,31.24-31.24s31.24,13.99,31.24,31.24c0,2.98-.43,5.86-1.21,8.59h142.62-142.62c-3.73,13.08-15.76,22.65-30.04,22.65s-26.3-9.58-30.04-22.65"/>
    <path class="al" d="M281.39,381.68c4.04,12.57,15.83,21.67,29.74,21.67s25.7-9.1,29.74-21.67"/>
    <path class="al" d="M340.88,381.68c.97-3.02,1.5-6.23,1.5-9.57,0-15.42-13.99-31.24-31.24-31.24s-31.24,13.99-31.24,31.24c0,3.34.53,6.55,1.5,9.57"/>
  </g>
  <path class="al" d="M289.28,171.96c-.91,5.35-5.26,6.01-9.98,5.38-19.6-2.22-4.62,39.72-73.11,35.02q-.9,5.49-6.41,5.46c-3.74-.02-7.48-.05-11.22,0-2.52.03-3.71-1.01-3.65-3.63.09-4.64.03-9.29.03-14.3-10.44-.35-20.8-.04-31.23-.15-5.62,0-9.32-3.31-9.25-8.18.08-4.77,3.7-7.95,9.17-7.97,10.41-.03,20.67,0,31.1,0v-39.7c-10.54-.01-21.11.06-31.65-.02-6.1-.05-9.94-5.11-8.2-10.59,1.07-3.39,4.1-5.51,8.18-5.53,10.71-.05,21.14,0,31.88-.01,0-4.86.1-9.48-.04-14.09-.08-2.87,1.06-4.07,3.92-3.99,3.74.1,7.48.02,11.22.02q5.26,0,6.13,5.45c26.9-1.83,54.46,3.7,64.16,32.23.83,2.22,1.85,2.99,4.1,2.79,6.26.08,12.99-1.86,15.1,5.79l-.25,16.03Z"/>
  <path class="am" d="M293.08,162.97c60.43,0,109.42,48.09,109.42,107.42,0,42.84-25.54,79.82-62.49,97.06"/>
</svg>
