<?xml version='1.0' encoding='UTF-8'?>
<svg xmlns="http://www.w3.org/2000/svg" id="ai" data-name="Voiture électrique" viewBox="0 0 453.54 453.54">
  <defs>
    <style>
      .ak {
        stroke-linecap: round;
        stroke-linejoin: round;
      }

      .ak, .al {
        fill: none;
        stroke: #5F1972;
        stroke-width: 12px;
      }

      .al {
        stroke-miterlimit: 10;
      }
    </style>
  </defs>
  <g>
    <path class="ak" d="M76.03,368.09c2.79,9.78,11.79,16.94,22.47,16.94s19.67-7.16,22.47-16.94h106.67-106.67c.58-2.04.9-4.19.9-6.42,0-12.91-10.46-23.37-23.37-23.37s-23.37,10.46-23.37,23.37c0,2.23.32,4.38.9,6.42h-15.87c-11.15,0-20.31-8.9-20.5-20.05,0-.58,0-1.16.02-1.75.51-11.29,12.72-24.94,17.78-27.88,3.25-1.9,42.21-13.16,50.53-17.68,12.58-6.84,56.84-29.05,56.84-29.05,6.74-2.53,38.31-3.79,68.21-2.11,29.89,1.68,46.74,33.68,46.74,33.68,19.79,1.26,21.27,7.16,21.27,7.16l.21,39.16s-1.7,24.26,18.5,25.01c20.2.75,27.67-29.92,27.67-29.92"/>
    <path class="ak" d="M227.64,368.09c3.02,9.4,11.84,16.21,22.25,16.21s19.22-6.81,22.25-16.21"/>
    <path class="ak" d="M272.13,368.09c.73-2.26,1.12-4.66,1.12-7.16,0-11.54-10.46-23.37-23.37-23.37s-23.37,10.46-23.37,23.37c0,2.5.4,4.9,1.12,7.16"/>
  </g>
  <path class="al" d="M339.39,340.7c-4.46-2.44-3.7-6.5-1.7-10.48,7.98-16.66-33.72-16.27-8.55-75.42q-4.58-2.48-2.86-7.34c1.16-3.3,2.34-6.61,3.44-9.93.74-2.24,2.03-2.97,4.33-2.12,4.08,1.51,8.21,2.87,12.64,4.41,3.52-9.12,6.41-18.39,9.71-27.58,1.73-4.97,5.79-7.23,10.07-5.67,4.2,1.53,5.9,5.71,4.23,10.56-3.17,9.21-6.34,18.29-9.53,27.51,11.7,4.06,23.19,8.04,35.12,12.18,3.24-9.32,6.42-18.69,9.73-27.99,1.92-5.38,7.57-7.22,11.89-4.01,2.67,1.99,3.62,5.32,2.38,8.93-3.24,9.49-6.48,18.7-9.77,28.21,4.3,1.49,8.36,3,12.48,4.29,2.56.81,3.28,2.19,2.33,4.69-1.24,3.28-2.31,6.61-3.46,9.92q-1.62,4.65-6.7,3.75c-6.63,24.36-19.98,47.04-48.19,46.87-2.22.05-3.21.72-3.73,2.77-1.99,5.51-2.34,12.06-9.76,11.59l-14.11-5.14Z"/>
</svg>
