<?xml version='1.0' encoding='UTF-8'?>
<svg xmlns="http://www.w3.org/2000/svg" id="af" data-name="Déchets" viewBox="0 0 453.54 453.54">
  <defs>
    <style>
      .ak {
        fill: none;
      }

      .ak, .al, .am {
        stroke-width: 12px;
      }

      .ak, .al, .am, .an {
        stroke: #5F1972;
        stroke-linecap: round;
        stroke-linejoin: round;
      }

      .al {
        fill: #5F1972;
      }

      .am, .an {
        fill: #fff;
      }

      .an {
        stroke-width: .9px;
      }
    </style>
  </defs>
  <g>
    <path class="ak" d="M349.26,186.09s-36.19-24.94-71.86-.51c-35.67,24.43-27.82,59.33-27.82,59.33,0,0-22.35-.58-32.51-32.55,0,0-35.34-22.99-19.96-44.06,0,0,33.17,12.2,58.44-7.96,25.27-20.16,31-52.9,24.63-68.6,0,0,20.55-1,38.04,43.45,0,0,29.85,16.28,31.05,50.91Z"/>
    <path class="al" d="M349.26,186.09s3.53-27.2-31.05-50.91c0,0-14.78-41.03-38.04-43.45,0,0,8.53,38.68,15.99,48.69s8.18,6.62,8.2,11.54,44.77,15.92,44.9,34.11Z"/>
    <path class="ak" d="M326.78,124.23s34.01-38.5,13.89-79.43c0,0-43.39,29.32-13.89,79.43Z"/>
    <path class="al" d="M328.4,125.09s68.85-30.52,65.91,2.66l-7.81-3.78-10.44-11.6-47.67,12.72Z"/>
  </g>
  <g>
    <path class="ak" d="M169.48,383.89v-51.35l-3.27-3.58v-99.51l2.39-3.98s1.99-63.29,0-92.9c-1.99-29.61-38.21-50-38.21-50h-49.66s-36.22,20.39-38.21,50c-1.99,29.61,0,92.9,0,92.9l2.39,3.98v99.51l-3.27,3.58v51.35s-.31,28.26,18.8,28.26c7.35,0,15.75-4.48,23.31-4.48,10.54,0,16.76,4.48,18.88,4.48h7.66c2.36,0,8.59-3.58,20.62-3.58,6.7,0,13.43,3.58,19.78,3.58,19.11,0,18.8-28.26,18.8-28.26Z"/>
    <rect class="ak" x="79.68" y="42.75" width="51.75" height="22.25"/>
    <line class="ak" x1="42.51" y1="132.56" x2="168.59" y2="132.56"/>
    <rect class="al" x="44.9" y="229.44" width="121.31" height="94.34"/>
    <polygon class="an" points="142.17 268.92 118.36 245.11 95.82 245.11 71.19 269.74 44.9 269.74 44.9 273.92 44.9 276.61 44.9 289.75 71.19 289.75 95.82 314.38 118.36 314.38 142.17 290.57 166.2 290.57 166.2 276.61 166.2 273.92 166.2 268.92 142.17 268.92"/>
  </g>
  <path class="am" d="M271.72,282.49s15.33-13.33,17.33-32.33c0,0,11.67,2.73,17.67,14.53,0,0-21.81,15.8-17.5,35.8s31.17,69.33,63.5,75.33,70.67-5.67,70.67-5.67c0,0-61,53.29-136,9.31,0,0-19.33,41.35-76.33,31.02,0,0,33.33-13.67,40.67-54.67,0,0-22,35.91-45.67,36.46-23.67.54-68.67,1.54-68.67,1.54,0,0-1-28.49,33.67-27.17s67.67,9.5,73.67-15.17c6-24.67-3.67-41.33-3.67-41.33,0,0-2.67-29.67,30.67-27.67Z"/>
</svg>
