<?xml version='1.0' encoding='UTF-8'?>
<svg xmlns="http://www.w3.org/2000/svg" id="a" data-name="Aleas climatique" viewBox="0 0 453.54 453.54">
  <defs>
    <style>
      .ak {
        fill: none;
      }

      .ak, .al {
        stroke: #5F1972;
        stroke-linecap: round;
        stroke-linejoin: round;
        stroke-width: 12px;
      }

      .am {
        fill: #5F1972;
        stroke-width: 0px;
      }

      .al {
        fill: #fff;
      }
    </style>
  </defs>
  <circle class="ak" cx="227.13" cy="227.99" r="130.7"/>
  <g>
    <circle class="al" cx="116.81" cy="335.17" r="77"/>
    <path class="am" d="M161.24,319.27l-10.82-7.21-11.07,16.61h-4.22c-1.96-5.51-6.3-9.85-11.81-11.81v-4.22l16.62-11.07-7.21-10.82-9.4,6.27v-13.86h-13.01v13.86l-9.4-6.27-7.21,10.82,16.61,11.07v4.22c-5.51,1.96-9.85,6.3-11.81,11.81h-4.22l-11.07-16.62-10.82,7.21,6.27,9.4h-13.86v13.01h13.86l-6.27,9.4,10.82,7.21,11.07-16.61h4.22c1.96,5.51,6.3,9.85,11.81,11.81v4.22l-16.62,11.07,7.21,10.82,9.4-6.27v13.86h13.01v-13.86l9.4,6.27,7.21-10.82-16.61-11.07v-4.22c5.51-1.96,9.85-6.3,11.81-11.81h4.22l11.07,16.62,10.82-7.21-6.27-9.4h13.86v-13.01h-13.86l6.27-9.4ZM116.81,341.67c-3.58,0-6.5-2.92-6.5-6.5s2.92-6.5,6.5-6.5,6.5,2.92,6.5,6.5-2.92,6.5-6.5,6.5Z"/>
  </g>
  <g>
    <circle class="al" cx="337.6" cy="117" r="77"/>
    <path class="am" d="M337.62,142.97c14.49-.02,26.23-11.78,26.21-26.27-.02-14.49-11.78-26.23-26.27-26.21-14.49.02-26.23,11.78-26.21,26.27.01,14.49,11.77,26.23,26.26,26.21,0,0,0,0,.01,0ZM291.42,118.08c.29-.86.29-1.79,0-2.65l-4.95-15.27,13.02-9.45c.73-.56,1.27-1.32,1.56-2.19l4.95-15.27h16.07c.91,0,1.79-.28,2.53-.81l13.02-9.45,12.96,9.45c.74.52,1.63.8,2.53.81h16.07l4.95,15.27c.31.87.87,1.64,1.61,2.19l12.96,9.45-4.95,15.27c-.29.86-.29,1.79,0,2.65l4.95,15.27-12.96,9.45c-.77.53-1.34,1.3-1.61,2.19l-4.95,15.27h-16.07c-.91,0-1.79.28-2.53.81l-12.96,9.45-13.02-9.45c-.74-.52-1.63-.8-2.53-.81h-16.07l-4.95-15.27c-.26-.89-.8-1.66-1.56-2.19l-13.02-9.45,4.95-15.27ZM302.71,116.76c.02,19.27,15.65,34.87,34.91,34.86,19.27-.02,34.87-15.65,34.86-34.91-.02-19.24-15.61-34.84-34.86-34.86-19.28,0-34.91,15.63-34.91,34.91h0Z"/>
  </g>
  <g>
    <g>
      <circle class="al" cx="337.6" cy="335.17" r="77"/>
      <path class="am" d="M378.96,312.95c-2.81,0-5.59.61-8.13,1.8-1.17.58-2.54.6-3.72.06-1.22-.46-2.17-1.44-2.61-2.67-5.73-15.61-23.04-23.62-38.65-17.89-8.54,3.14-15.2,9.96-18.13,18.57-.44,1.31-1.44,2.36-2.73,2.85-1.31.46-2.75.35-3.97-.31-2.85-1.62-6.09-2.46-9.37-2.42-9.35.03-17.43,6.56-19.42,15.7h47.59l4.1-10.61c2.06-5.41,7.24-8.99,13.03-9,1.72,0,3.42.32,5.03.93,7.15,2.83,10.71,10.86,8,18.06l-.25.62h48.71c-2.02-9.15-10.12-15.67-19.48-15.7Z"/>
    </g>
    <path class="am" d="M348.55,350.52h-17.89l10.63-27.69c1.08-2.82-.33-5.98-3.15-7.07-2.82-1.08-5.98.33-7.07,3.15l-13.48,35.12c-1.08,2.82.33,5.98,3.15,7.07.63.24,1.29.36,1.96.36h17.86l-10.6,27.4c-1.09,2.82.31,5.98,3.13,7.07,2.82,1.09,5.98-.31,7.07-3.13l13.49-34.84c1.09-2.82-.31-5.98-3.13-7.08-.63-.24-1.3-.37-1.97-.37Z"/>
  </g>
  <g>
    <circle class="al" cx="116.81" cy="117" r="77"/>
    <path class="am" d="M125.96,87.66l-5.35,6.69-19.03-25.38-19.51,26.01c-3.15,4.19-4.88,9.39-4.88,14.63,0,11.4,7.89,20.92,18.48,23.58-.09.87-.2,1.74-.2,2.62,0,15.81,12.86,28.67,28.67,28.67h3.64c15.8,0,28.66-12.86,28.66-28.67,0-6.48-2.23-12.84-6.28-17.91l-24.2-30.25ZM89.38,109.62c0-2.62.87-5.22,2.44-7.32l9.75-13,9.75,13.01c1.57,2.09,2.44,4.69,2.44,7.31,0,6.72-5.47,12.19-12.19,12.19s-12.19-5.47-12.19-12.19ZM127.77,152.29h-3.64c-9.08,0-16.47-7.39-16.47-16.47,0-.93.1-1.85.26-2.77,10.36-2.81,18.03-12.2,18.03-23.43,0-.74-.11-1.48-.18-2.21l.18-.23,14.68,18.35c2.33,2.91,3.61,6.57,3.61,10.28,0,9.08-7.39,16.47-16.47,16.47Z"/>
  </g>
</svg>
