<?xml version='1.0' encoding='UTF-8'?>
<svg xmlns="http://www.w3.org/2000/svg" id="c" data-name="Amoniac" viewBox="0 0 453.54 453.54">
  <defs>
    <style>
      .ak {
        fill: #fff;
        stroke: #5F1972;
        stroke-linecap: round;
        stroke-linejoin: round;
        stroke-width: 12px;
      }

      .al {
        fill: #5F1972;
        stroke: #5F1972;
        stroke-miterlimit: 10;
      }
    </style>
  </defs>
  <path class="ak" d="M343.15,192.25c-10.4-53.35-56.74-93.41-112.41-93.41-44.2,0-82.59,25.36-101.7,62.48-46.03,4.95-81.82,44.38-81.82,92.17,0,51.19,41.14,92.79,91.76,92.79h198.82c42.21,0,76.47-34.64,76.47-77.33s-31.35-73.92-71.12-76.71Z"/>
  <g>
    <path class="al" d="M197.49,282.3h-16.15l-39.63-61.16h-.44l.28,3.41c.51,6.51.77,12.46.77,17.85v39.9h-11.96v-76.75h15.99l39.52,60.85h.33c-.07-.8-.22-3.74-.44-8.79-.22-5.06-.33-9-.33-11.84v-40.21h12.07v76.75Z"/>
    <path class="al" d="M282.33,282.3h-13.23v-34.6h-37.15v34.6h-13.17v-76.75h13.17v31.39h37.15v-31.39h13.23v76.75Z"/>
    <path class="al" d="M325.88,283.64c0,2.84-.87,5.2-2.6,7.09s-4.18,3.16-7.33,3.81v.25c3.77.45,6.6,1.57,8.48,3.35,1.88,1.79,2.83,4.16,2.83,7.12,0,4.31-1.6,7.63-4.79,9.96-3.19,2.34-7.73,3.5-13.63,3.5-5.21,0-9.6-.81-13.18-2.42v-6.4c1.99.94,4.1,1.66,6.33,2.17s4.37.76,6.43.76c3.64,0,6.36-.64,8.16-1.93,1.8-1.29,2.7-3.28,2.7-5.97,0-2.39-1-4.14-2.99-5.26-1.99-1.12-5.12-1.68-9.38-1.68h-4.08v-5.85h4.15c7.5,0,11.25-2.47,11.25-7.41,0-1.92-.65-3.4-1.96-4.44-1.31-1.04-3.24-1.56-5.79-1.56-1.78,0-3.49.24-5.14.72-1.65.48-3.6,1.41-5.85,2.8l-3.7-5.02c4.31-3.02,9.31-4.53,15.01-4.53,4.74,0,8.43.97,11.09,2.91,2.66,1.94,3.98,4.61,3.98,8.02Z"/>
  </g>
</svg>
