<?xml version='1.0' encoding='UTF-8'?>
<svg xmlns="http://www.w3.org/2000/svg" id="j" data-name="Service" viewBox="0 0 453.54 453.54">
  <defs>
    <style>
      .n {
        fill: #144179;
        stroke-width: 0px;
      }

      .o {
        fill: #fff;
        stroke: #144179;
        stroke-linecap: round;
        stroke-linejoin: round;
        stroke-width: 11.66px;
      }
    </style>
  </defs>
  <g>
    <path class="o" d="M221.36,353.89h75.14c11.07,0,21.03-9.96,21.03-22.26s-9.96-22.26-21.03-22.26h-75.14s-17.34-23.69-43.59-31.25c-17.18-4.94-93.51-5.04-93.51-5.04l6.11,80.93s100.86,56.85,144.95,61.38c25.66,2.64,101.99-40.19,101.99-40.19l65.57-36.1c10.95-5.58,15.31-18.98,9.73-29.93h0c-5.58-10.95-18.98-15.31-29.93-9.73l-65.17,34.42"/>
    <rect class="o" x="46.53" y="252.07" width="73.27" height="136.54" rx="12.48" ry="12.48"/>
  </g>
  <path class="n" d="M250.37,244.49h-43.54c-2.58,0-4.87-1.65-5.69-4.09l-5.04-14.99c-1.42-.56-2.81-1.14-4.17-1.74l-14.15,7.04c-2.31,1.15-5.09.69-6.92-1.13l-30.83-30.83c-1.83-1.83-2.28-4.62-1.12-6.94l7.08-14.1c-.62-1.38-1.21-2.79-1.76-4.21l-14.93-4.96c-2.45-.81-4.11-3.11-4.11-5.69v-43.54c0-2.59,1.66-4.88,4.11-5.69l14.98-4.97c.55-1.41,1.13-2.79,1.73-4.15l-7.1-14.15c-1.16-2.31-.71-5.11,1.12-6.94l30.83-30.83c1.83-1.83,4.62-2.28,6.94-1.12l14.1,7.08c1.39-.63,2.8-1.22,4.23-1.76l5.02-14.94c.82-2.44,3.11-4.09,5.69-4.09h43.54c2.58,0,4.87,1.65,5.69,4.09l5.04,14.99c1.41.56,2.8,1.14,4.17,1.74l14.07-7.04c2.31-1.16,5.1-.7,6.93,1.12l30.83,30.83c1.82,1.82,2.28,4.61,1.13,6.92l-7.02,14.1c.63,1.39,1.22,2.8,1.76,4.22l14.93,4.95c2.45.81,4.11,3.11,4.11,5.69v43.54c0,2.59-1.66,4.89-4.12,5.7l-14.89,4.9c-.56,1.41-1.13,2.79-1.73,4.15l7.04,14.15c1.15,2.31.7,5.09-1.13,6.92l-30.83,30.83c-1.82,1.82-4.61,2.28-6.92,1.13l-14.1-7.02c-1.39.63-2.81,1.22-4.24,1.77l-5.02,14.94c-.82,2.44-3.11,4.09-5.69,4.09ZM211.15,232.49h34.91l4.57-13.59c.6-1.77,1.98-3.16,3.75-3.77,2.85-.97,5.65-2.14,8.32-3.48,1.69-.84,3.67-.84,5.36,0l12.85,6.4,24.73-24.73-6.4-12.85c-.82-1.65-.84-3.58-.05-5.25,1.29-2.71,2.49-5.58,3.57-8.55.63-1.72,2.02-3.06,3.76-3.64l13.48-4.44v-34.87l-13.57-4.51c-1.78-.59-3.18-1.98-3.79-3.76-.98-2.86-2.15-5.66-3.48-8.32-.84-1.69-.84-3.67,0-5.36l6.4-12.85-24.72-24.72-12.77,6.39c-1.65.83-3.59.85-5.26.05-2.71-1.29-5.59-2.49-8.55-3.57-1.71-.63-3.04-2-3.63-3.72l-4.57-13.6h-34.91l-4.57,13.6c-.6,1.77-1.98,3.16-3.75,3.77-2.85.97-5.65,2.14-8.32,3.48-1.69.85-3.69.84-5.38,0l-12.85-6.45-24.71,24.71,6.45,12.85c.83,1.65.85,3.6.06,5.27-1.29,2.7-2.49,5.58-3.57,8.55-.63,1.72-2.01,3.06-3.74,3.63l-13.57,4.51v34.88l13.57,4.51c1.78.59,3.18,1.98,3.79,3.76.98,2.86,2.15,5.66,3.48,8.32.85,1.69.84,3.69,0,5.38l-6.45,12.85,24.72,24.72,12.85-6.4c1.65-.82,3.59-.84,5.25-.05,2.71,1.29,5.58,2.49,8.55,3.57,1.71.63,3.04,2,3.63,3.72l4.57,13.59ZM326.01,162.93h0,0ZM228.61,189.8c-26.82,0-48.65-21.82-48.65-48.65s21.82-48.65,48.65-48.65,48.65,21.82,48.65,48.65-21.82,48.65-48.65,48.65ZM228.61,104.51c-20.21,0-36.65,16.44-36.65,36.65s16.44,36.65,36.65,36.65,36.65-16.44,36.65-36.65-16.44-36.65-36.65-36.65Z"/>
</svg>
