<?xml version='1.0' encoding='UTF-8'?>
<svg xmlns="http://www.w3.org/2000/svg" id="f" data-name="Stop" viewBox="0 0 453.54 453.54">
  <defs>
    <style>
      .n {
        fill: #fff;
        stroke: #144179;
        stroke-linecap: round;
        stroke-linejoin: round;
        stroke-width: 11.94px;
      }
    </style>
  </defs>
  <g>
    <path class="n" d="M374.76,194.84c-1.42-2.73-3.82-4.74-6.75-5.66-8.54-2.68-17.62-1.88-25.56,2.26-7.94,4.14-13.79,11.13-16.48,19.67l-21.84,69.47-.97-.46.92-189.78c.06-12.17-9.76-22.08-21.92-22.14h0c-19.7-1.14-22.12,21.23-22.12,21.23l.66,143.96-.66-143.96.41-24.15c.06-12.17-9.76-22.08-21.92-22.14h0c-12.17-.06-22.08,9.76-22.14,21.92l-.19,24.57,1.21,145.43-1.21-145.43c.06-12.17-9.76-22.08-21.92-22.14h0c-12.17-.06-22.08,9.76-22.14,21.92l-.16,45.41c-.4-11.73-10.01-21.15-21.88-21.21h0c-12.17-.06-22.08,9.73-22.14,21.86,0,0-8.72,142.59-.92,189.25,2.21,13.23,5.44,22.09,11.55,34.03,9.62,18.84,37.33,56,88.94,56.19,61.75.22,100.81-47.93,114.77-88.04,11.75-33.79,14.67-64.18,27.41-104.72l5.84-18.57c.92-2.93.65-6.05-.78-8.78Z"/>
    <line class="n" x1="260.03" y1="89.44" x2="260.69" y2="233.4"/>
    <line class="n" x1="216.2" y1="89.64" x2="217.4" y2="235.07"/>
  </g>
  <line class="n" x1="171.97" y1="134.83" x2="170.99" y2="237.84"/>
</svg>
