<?xml version='1.0' encoding='UTF-8'?>
<svg xmlns="http://www.w3.org/2000/svg" id="h" data-name="Serrer la main" viewBox="0 0 453.54 453.54">
  <defs>
    <style>
      .n {
        fill: #fff;
        stroke: #144179;
        stroke-linecap: round;
        stroke-linejoin: round;
        stroke-width: 12.25px;
      }
    </style>
  </defs>
  <g>
    <path class="n" d="M171.39,154.99l53.06,11.34s22.49,19.89,24.49,20.98c7.94,4.31,70.14,49.11,70.14,49.11,14.45,8.83,19.09,21.41,14.56,28.44-3.95,6.12-12.93,10.43-19.39,6.8,0,0,8.43,12.36,2.61,20.86-7.14,10.43-18.71,9.3-27.78,2.72-.65-.47,6.63,10.38-.11,18.51-6.46,7.8-17.24,7-24.61,2.35,0,0,2.05,9.25-2.95,15.53-5.33,6.69-22.45,2.72-34.02-6.58-12.52-10.06-74.38-46.71-75.97-49.44s-16.45-10.75-21.77-15.42c-29.71-26.08-35.38-51.79-18.14-81.18,19.96-34.02,59.87-24.04,59.87-24.04Z"/>
    <g>
      <line class="n" x1="260.51" y1="233.91" x2="314.26" y2="271.67"/>
      <line class="n" x1="242.48" y1="262.48" x2="289.09" y2="295.25"/>
      <line class="n" x1="228.2" y1="290.04" x2="264.37" y2="316.11"/>
    </g>
  </g>
  <rect class="n" x="126.69" y="235.57" width="29.01" height="69.83" rx="14.5" ry="14.5" transform="translate(202.83 -28.35) rotate(39.22)"/>
  <rect class="n" x="194.03" y="298.37" width="29.01" height="54.13" rx="14.5" ry="14.5" transform="translate(252.74 -58.54) rotate(39.22)"/>
  <rect class="n" x="149.24" y="248.25" width="29.01" height="81.26" rx="14.5" ry="14.5" transform="translate(219.54 -38.46) rotate(39.22)"/>
  <rect class="n" x="171.56" y="266.47" width="29.01" height="81.26" rx="14.5" ry="14.5" transform="translate(236.09 -48.47) rotate(39.22)"/>
  <g>
    <path class="n" d="M271.93,152.55c-17.91.6-35.48,3.39-53.17,5.35l-10.83,1.37c-1.85,1.37-7.7,8.01-7.7,8.01l-8.52,15.17c-3.52,6.07-7.8,12.49-16.22,21.55-4.73,11.61,8.28,15.44,18.69,15.58,19.3-1.03,23.92-20.16,38.2-30.35,8.39-.89,16.48-1.69,22.84-.42,0,0,67.95,61.65,79.09,56.06,65.54-42.02,9.92-96.66-62.37-92.32Z"/>
    <rect class="n" x="322.96" y="112.03" width="67.9" height="126.54" rx="11.57" ry="11.57" transform="translate(-39.83 201.94) rotate(-30)"/>
    <rect class="n" x="65.87" y="113.54" width="67.9" height="126.54" rx="11.57" ry="11.57" transform="translate(97.86 379.84) rotate(-150)"/>
  </g>
</svg>
