<?xml version='1.0' encoding='UTF-8'?>
<svg xmlns="http://www.w3.org/2000/svg" id="o" data-name="Peintre bâtiments" viewBox="0 0 453.54 453.54">
  <defs>
    <style>
      .ak {
        fill: #144179;
        stroke-width: 0px;
      }
    </style>
  </defs>
  <path class="ak" d="M377.98,76.79h-49.95v-31.8c0-3.31-2.69-6-6-6H95.38c-3.31,0-6,2.69-6,6v31.64h-8.99c-3.31,0-6,2.68-6,6s2.69,6,6,6h8.99v31.78c0,.16.01.32.02.48,0,.07,0,.15.03.23.01.13.03.26.05.38.07.37.17.73.31,1.09.05.12.1.24.16.36.06.14.13.27.2.4.08.13.15.26.24.39.01.01.01.02.02.03.12.18.25.35.39.51.08.1.17.2.26.29.04.04.08.09.13.13.1.09.2.19.3.28.11.1.23.19.35.27.06.05.12.09.18.13.19.13.38.24.57.34.11.06.22.11.33.16s.22.09.34.14c.23.09.46.16.69.21.12.03.24.06.36.08.17.03.34.06.51.07.18.02.36.03.55.03h12.11v88.85c0,13.73,11.16,24.89,24.89,24.89s24.89-11.16,24.89-24.89v-38.24c0-3.46,1.35-6.7,3.8-9.14,2.45-2.44,5.69-3.79,9.16-3.75,7.07.03,12.83,5.82,12.83,12.89,0,13.77,11.2,24.96,24.96,24.96h.23c13.89,0,25.18-11.29,25.18-25.18v-50.39h88.61c3.31,0,6-2.68,6-6v-31.62h43.95v64.92l-127.07,36.51c-2.57.74-4.35,3.09-4.35,5.76v29.23h-13.55c-9.07,0-16.45,7.38-16.45,16.45,0,7.11,4.54,13.18,10.87,15.46v141.75c0,13.54,11.02,24.57,24.57,24.57s24.56-11.03,24.56-24.57v-141.38c6.92-1.94,12-8.3,12-15.83,0-9.07-7.37-16.45-16.44-16.45h-13.56v-24.71l127.07-36.51c2.58-.74,4.35-3.09,4.35-5.77v-75.43c0-3.31-2.69-6-6-6ZM101.38,109.22v-58.23h87.49l-87.49,58.23ZM221.43,176.8c0,7.27-5.92,13.18-13.19,13.18h-.23c-7.15,0-12.96-5.81-12.96-12.96,0-13.65-11.11-24.82-24.77-24.89h-.13c-6.62,0-12.85,2.57-17.55,7.24-4.73,4.71-7.34,10.98-7.34,17.65v38.24c0,7.11-5.78,12.89-12.89,12.89s-12.89-5.78-12.89-12.89v-88.85h101.95v50.39ZM206.1,114.41h-90.86l-.29.19c-.47-.13-.96-.19-1.47-.19h1.76l95.29-63.42h90.86l-95.29,63.42ZM316.03,114.41h-88.27l88.27-58.75v58.75ZM258.56,398.87c0,6.93-5.63,12.57-12.56,12.57s-12.57-5.64-12.57-12.57v-140.77h25.13v140.77ZM266.12,237.21c2.45,0,4.44,2,4.44,4.45,0,1.16-.44,2.2-1.16,2.99-.82.89-1.98,1.45-3.28,1.45h-39.11c-1.79,0-3.33-1.06-4.03-2.58-.27-.56-.42-1.19-.42-1.86,0-2.26,1.7-4.13,3.88-4.41.19-.03.38-.04.57-.04h39.11Z"/>
</svg>
