<?xml version='1.0' encoding='UTF-8'?>
<svg xmlns="http://www.w3.org/2000/svg" id="ae" data-name="Ménage" viewBox="0 0 453.54 453.54">
  <defs>
    <style>
      .ak {
        fill: none;
        stroke: #144179;
        stroke-linecap: round;
        stroke-linejoin: round;
        stroke-width: 12px;
      }
    </style>
  </defs>
  <path class="ak" d="M136.75,326.59l-45.49-20.17c-.6-.26-1.28.01-1.55.61l-6.13,13.82,103.05,45.68,6.13-13.82c.26-.6,0-1.3-.59-1.55l-43.01-19.07L273.27,52.12c1.52-3.43-.02-7.44-3.46-8.96-3.42-1.52-7.43.03-8.95,3.46l-124.11,279.98Z"/>
  <path class="ak" d="M68.92,360.36h104.66c2.23,0,4.03,1.81,4.03,4.03v25.17h-112.72v-25.17c0-2.23,1.81-4.03,4.03-4.03Z" transform="translate(80.15 766.89) rotate(-156.09)"/>
  <path class="ak" d="M351.7,409.49h-68.94c-3.64,0-6.7-2.76-7.07-6.38l-11.16-109.33c-.43-4.19,2.86-7.83,7.07-7.83h95.72c4.32,0,7.64,3.83,7.03,8.11l-15.62,109.33c-.5,3.5-3.5,6.1-7.03,6.1Z"/>
  <path class="ak" d="M251.02,275.03c0-37.8,30.64-68.44,68.44-68.44s68.44,30.64,68.44,68.44"/>
</svg>
