<?xml version='1.0' encoding='UTF-8'?>
<svg xmlns="http://www.w3.org/2000/svg" id="l" data-name="Services aux particuliers_2" viewBox="0 0 453.54 453.54">
  <defs>
    <style>
      .ak {
        fill: none;
        stroke: #144179;
        stroke-linecap: round;
        stroke-linejoin: round;
        stroke-width: 12px;
      }

      .al {
        fill: #144179;
      }

      .al, .am {
        stroke-width: 0px;
      }

      .am {
        fill: #fff;
      }
    </style>
  </defs>
  <path class="ak" d="M104.12,277.99l84.42-2.42c.51-.02,1,.16,1.38.5l41.2,37.09c.55.5,1.27.77,2.01.77l65.47-.18c10.29-.03,18.75,8.13,19.09,18.41h0c.35,10.38-7.68,19.12-18.05,19.66l-75.33,3.91"/>
  <path class="ak" d="M316.76,338.73s53.97-17.97,79.44-26.08c6.59-2.1,13.72.91,16.81,7.1h0c3.51,7.01.6,15.55-6.46,18.95l-105.61,57.54c-22.63,12.33-49.37,14.7-73.82,6.54l-122.99-40.68"/>
  <rect class="al" x="37.01" y="247.74" width="76.27" height="151.24"/>
  <circle class="am" cx="77.35" cy="356.94" r="14.5"/>
  <path class="ak" d="M180.87,133.38c0-17.74,14.38-32.12,32.12-32.12s32.12,14.38,32.12,32.12-14.38,32.13-32.12,32.13-32.12-14.39-32.12-32.13"/>
  <path class="ak" d="M269.2,233.96c-.36-26.67-22.08-48.19-48.84-48.19h-14.72c-26.76,0-48.48,21.52-48.84,48.19h112.4Z"/>
  <path class="ak" d="M320.04,133.38c0-17.74,14.38-32.12,32.12-32.12s32.12,14.38,32.12,32.12-14.38,32.13-32.12,32.13-32.12-14.39-32.12-32.13"/>
  <path class="ak" d="M408.36,233.96c-.36-26.67-22.08-48.19-48.84-48.19h-14.72c-26.76,0-48.48,21.52-48.84,48.19h112.4Z"/>
</svg>
