<?xml version='1.0' encoding='UTF-8'?>
<svg xmlns="http://www.w3.org/2000/svg" id="v" data-name="Services administratifs" viewBox="0 0 453.54 453.54">
  <defs>
    <style>
      .ak {
        fill: #144179;
      }

      .ak, .al {
        stroke-width: 0px;
      }

      .am {
        fill: none;
        stroke: #144179;
        stroke-linecap: round;
        stroke-linejoin: round;
        stroke-width: 12px;
      }

      .al {
        fill: #fff;
      }
    </style>
  </defs>
  <rect class="am" x="76.64" y="66.43" width="211.38" height="304.73"/>
  <rect class="al" x="117.54" y="63.55" width="218.62" height="314.02" transform="translate(65.88 -51.83) rotate(15.22)"/>
  <g>
    <path class="ak" d="M321.37,171.85l-144.32-39c-2.66-.72-5.51.92-6.23,3.58-.73,2.7.87,5.5,3.58,6.23l144.32,39c2.67.72,5.43-.89,6.16-3.6.73-2.7-.85-5.49-3.51-6.21Z"/>
    <path class="ak" d="M313.06,202.63l-144.32-39c-2.7-.73-5.5.87-6.23,3.58s.89,5.43,3.6,6.16l144.32,39c2.67.72,5.42-.86,6.15-3.53.73-2.7-.85-5.49-3.51-6.21Z"/>
    <path class="ak" d="M308.26,239.61c.73-2.7-.85-5.49-3.51-6.21l-144.32-39c-2.7-.73-5.5.87-6.23,3.58-.72,2.66.92,5.51,3.58,6.23l144.32,39c2.67.72,5.43-.89,6.16-3.6Z"/>
    <path class="ak" d="M287.86,267.12c.72-2.67-.89-5.43-3.6-6.16l-132.17-35.71c-2.7-.73-5.49.84-6.21,3.51s.87,5.5,3.58,6.23l132.17,35.71c2.75.74,5.49-.83,6.23-3.58Z"/>
    <path class="ak" d="M143.83,255.82c-2.7-.73-5.5.88-6.23,3.58-.72,2.67.89,5.43,3.6,6.16l82.39,22.26c2.7.73,5.49-.85,6.21-3.51.74-2.75-.83-5.49-3.58-6.23l-82.39-22.26Z"/>
    <path class="ak" d="M417.82,221.24c.17-1.34-.2-2.66-1.04-3.71l-13.78-17.65c-.82-1.09-2.03-1.78-3.39-1.94-1.35-.17-2.72.22-3.75,1.05l-146.48,114.79-.2.16-.64.92-16.66,26.23-51.06-13.8c-2.67-.72-5.43.89-6.16,3.6-.72,2.67.86,5.42,3.53,6.15l52.2,14.1c1.37.37,2.87.15,4.06-.6.64.08,1.34.01,2.14-.19l33.31-11.43,146.05-114.32c1.04-.84,1.71-2.03,1.87-3.35ZM260.32,317.93l120.11-94.01,7.61,9.7-120.15,94.04-2.76-3.28.14-.12-4.94-6.33ZM258.67,332.2l-6.49,2.18c-.22-.58-.53-1.02-.82-1.44l-.07-.1c-.36-.49-.84-.97-1.32-1.3l3.7-5.7,5,6.37ZM405.73,219.75l-9.75,7.59-7.55-9.68,9.7-7.61,7.6,9.69Z"/>
    <path class="ak" d="M321.12,313.68c-2.66-.72-5.51.92-6.23,3.58l-21.14,77.99-205.86-55.62L168.31,41.96l143.81,39.06-15.27,56.51c-.72,2.67.89,5.43,3.6,6.16l57.16,15.45-15.35,56.56c-.35,1.29-.21,2.6.4,3.81l.09.15c.73,1.14,1.78,1.91,3.02,2.25,2.7.73,5.49-.85,6.21-3.51l15.38-56.42,1.36-5.03c.06-.21.09-.41.11-.6,0-.04,0-.09.02-.13l.09-.32-.2-1.57-.08-.33c-.13-.37-.31-.65-.43-.82l-45.53-78.18c-.16-.28-.37-.65-.76-.96l-.46-.47-.28-.24c-.29-.19-.5-.3-.68-.38l-.28-.17L166.12,30.85c-1.23-.33-2.65-.14-3.8.51-1.18.61-2.07,1.73-2.43,3.07l-83.08,307.47c-.73,2.7.88,5.5,3.58,6.23l216.36,58.32.23.06h.8c.31-.03.59-.1.84-.16l.19-.04.66-.3c.61-.28,1-.56,1.39-.98l.35-.36.21-.26c.19-.29.3-.51.39-.68l.17-.28,22.71-83.53c.36-1.34.16-2.75-.55-3.88-.67-1.14-1.8-2.02-3.03-2.35ZM307.92,135.27l12.09-44.76,33.24,57-45.34-12.25Z"/>
  </g>
</svg>
