<?xml version='1.0' encoding='UTF-8'?>
<svg xmlns="http://www.w3.org/2000/svg" id="z" data-name="Perso voleur" viewBox="0 0 453.54 453.54">
  <defs>
    <style>
      .bu {
        fill: none;
        stroke: #008280;
        stroke-linecap: round;
        stroke-linejoin: round;
        stroke-width: 12px;
      }

      .bv {
        fill: #008280;
        stroke-width: 0px;
      }
    </style>
  </defs>
  <path class="bv" d="M140.21,283.68l-53.59-2.16c-11.49-.46-21.18,8.47-21.65,19.96h0c-.49,11.83,8.97,21.69,20.82,21.69h71.37c20.51,0,38.2-14.42,42.34-34.51l1.64-7.98,21.66,28.69c6.9,9.14,12.35,19.3,16.13,30.11l20.96,59.84c3.62,10.33,14.95,15.74,25.26,12.06h0c10.05-3.59,15.43-14.52,12.13-24.67l-17.73-54.67c-5.19-16.02-13.14-31-23.48-44.29l-23.45-30.15,25.66-68.23,11.65,16.79c7.19,10.37,20.56,14.44,32.31,9.85l32.53-12.72c9.39-3.67,13.67-14.57,9.29-23.65h0c-3.96-8.22-13.62-11.95-22.08-8.54l-20.58,8.3c-6.31,2.54-13.52-.01-16.82-5.96l-9.18-16.58c-5.71-10.32-15.5-17.76-26.97-20.51l-11.66-2.79c-11.51-2.75-23.54-2.37-34.85,1.11l-36.85,11.34c-9.04,2.78-16.6,9.03-21.02,17.39l-19.39,36.6c-4.38,8.27-.84,18.52,7.72,22.33h0c7.82,3.47,16.99.25,20.91-7.35l19.26-37.31,9.42-3.76c3.92-1.57,7.93,2.08,6.73,6.13l-25.71,87.3c-2.95,10.03-12.35,16.76-22.79,16.34Z"/>
  <circle class="bv" cx="248.09" cy="79.51" r="38.06"/>
  <path class="bu" d="M310.08,225.85c-1.74.13-3.19,1.38-3.64,3.07-3.06,11.45-11.23,52.15,27.11,52.15,44.62,0,52.49-34.12,49.87-41.99-2.38-7.14-15.54-27.22-25.81-34.82-1.63-1.21-3.87-1.12-5.38.24-6.19,5.55-23.89,19.98-42.15,21.35Z"/>
  <path class="bu" d="M301.66,164.39l-4.88-6.1c-1.75-2.18-.89-5.44,1.71-6.48l15.31-6.12c2.74-1.1,5.72.92,5.72,3.87v7.01c0,1.58-.89,3.02-2.31,3.73l-10.43,5.21c-1.76.88-3.89.41-5.12-1.12Z"/>
</svg>
