<?xml version='1.0' encoding='UTF-8'?>
<svg xmlns="http://www.w3.org/2000/svg" id="e" data-name="Aire ubaine grande" viewBox="0 0 453.54 453.54">
  <defs>
    <style>
      .am {
        fill: none;
        stroke: #5F1972;
        stroke-linecap: round;
        stroke-linejoin: round;
        stroke-width: 12px;
      }
    </style>
  </defs>
  <rect class="am" x="295.8" y="171.61" width="120.3" height="240.56"/>
  <g>
    <rect class="am" x="37.37" y="215.35" width="120.3" height="196.82"/>
    <line class="am" x1="72.16" y1="249.67" x2="72.16" y2="277.97"/>
    <line class="am" x1="97.51" y1="249.67" x2="97.51" y2="277.97"/>
    <line class="am" x1="122.87" y1="249.67" x2="122.87" y2="277.97"/>
    <line class="am" x1="72.16" y1="309.85" x2="72.16" y2="338.14"/>
    <line class="am" x1="97.51" y1="309.85" x2="97.51" y2="338.14"/>
    <line class="am" x1="122.87" y1="309.85" x2="122.87" y2="338.14"/>
  </g>
  <line class="am" x1="330.59" y1="205.43" x2="330.59" y2="233.73"/>
  <line class="am" x1="355.95" y1="205.43" x2="355.95" y2="233.73"/>
  <line class="am" x1="330.59" y1="265.61" x2="330.59" y2="293.91"/>
  <line class="am" x1="355.95" y1="265.61" x2="355.95" y2="293.91"/>
  <line class="am" x1="384.28" y1="205.43" x2="384.28" y2="233.73"/>
  <line class="am" x1="384.28" y1="265.61" x2="384.28" y2="293.91"/>
  <g>
    <rect class="am" x="157.64" y="109.98" width="138.17" height="302.19"/>
    <line class="am" x1="201.37" y1="136.85" x2="201.37" y2="165.14"/>
    <line class="am" x1="226.73" y1="136.85" x2="226.73" y2="165.14"/>
    <line class="am" x1="252.09" y1="136.85" x2="252.09" y2="165.14"/>
    <line class="am" x1="201.37" y1="197.02" x2="201.37" y2="225.32"/>
    <line class="am" x1="226.73" y1="197.02" x2="226.73" y2="225.32"/>
    <line class="am" x1="252.09" y1="197.02" x2="252.09" y2="225.32"/>
    <line class="am" x1="201.37" y1="255.75" x2="201.37" y2="284.05"/>
    <line class="am" x1="226.73" y1="255.75" x2="226.73" y2="284.05"/>
    <line class="am" x1="252.09" y1="255.75" x2="252.09" y2="284.05"/>
    <line class="am" x1="201.37" y1="315.92" x2="201.37" y2="344.22"/>
    <line class="am" x1="226.73" y1="315.92" x2="226.73" y2="344.22"/>
    <line class="am" x1="252.09" y1="315.92" x2="252.09" y2="344.22"/>
  </g>
</svg>
