<?xml version='1.0' encoding='UTF-8'?>
<svg xmlns="http://www.w3.org/2000/svg" id="m" data-name="Masque chirugicale" viewBox="0 0 453.54 453.54">
  <defs>
    <style>
      .ap {
        stroke-linecap: round;
        stroke-linejoin: round;
      }

      .ap, .aq {
        fill: none;
        stroke: #144179;
        stroke-width: 12px;
      }

      .aq {
        stroke-miterlimit: 10;
      }
    </style>
  </defs>
  <path class="aq" d="M113.41,294.44c-39.7,0-71.88-29.07-71.88-64.94s32.18-64.94,71.88-64.94"/>
  <path class="aq" d="M352.14,164.56c37.35,0,67.64,29.07,67.64,64.94s-30.28,64.94-67.64,64.94"/>
  <path class="ap" d="M231.4,342.1c54.19,1,124.48-21.33,124.48-21.33-6-84.67,0-176.67,0-176.67-67.78-21.94-120.48-21.33-120.48-21.33h-4.26s-52.7-.61-120.48,21.33c0,0,6,92,0,176.67,0,0,66.28,22.33,120.48,21.33h.26Z"/>
  <path class="ap" d="M353.53,206.43s-60.97-12.44-121.13-12.33h-.26c-52.14-.56-119.13,12.33-119.13,12.33"/>
  <path class="ap" d="M351.88,254.1s-65.21,13.33-120.48,12.33h-.26c-43.25.78-116.48-12.33-116.48-12.33"/>
</svg>
