<?xml version='1.0' encoding='UTF-8'?>
<svg xmlns="http://www.w3.org/2000/svg" id="ad" data-name="Pilules médicaments" viewBox="0 0 453.54 453.54">
  <defs>
    <style>
      .ap {
        fill: none;
      }

      .ap, .aq {
        stroke: #144179;
        stroke-linecap: round;
        stroke-linejoin: round;
        stroke-width: 12px;
      }

      .aq, .ar {
        fill: #fff;
      }

      .ar {
        stroke-width: 0px;
      }
    </style>
  </defs>
  <g>
    <path class="ar" d="M175.15,324.33s29.36,39.54,114.67,40.85c85.32,1.31,121.41-41.83,121.41-41.83v10.92s.33,70.62-121.74,62.45c0,0-118.92,3.1-114.35-72.39Z"/>
    <path class="ap" d="M417.45,332.72c0,37.63-55.62,68.14-124.22,68.14s-124.22-30.51-124.22-68.14"/>
    <ellipse class="aq" cx="293.23" cy="292.75" rx="124.22" ry="68.14"/>
    <line class="aq" x1="249.05" y1="356.44" x2="328.57" y2="228.28"/>
    <line class="aq" x1="417.45" y1="292.75" x2="417.45" y2="331.88"/>
    <line class="aq" x1="169.01" y1="292.75" x2="169.01" y2="334.28"/>
  </g>
  <g>
    <path class="aq" d="M50.98,246.24s-20.2-22.6-13.57-52.66c1.78-8.05,6.25-15.26,12.32-20.83l117.33-107.66c6.68-6.13,15.16-9.96,24.19-10.79,16.55-1.52,42.63-.8,55.3,16l8.85,10.18c14.88,14.88,11.96,40.81,8.15,56.99-2.08,8.83-7.05,16.69-14.05,22.45l-122.94,101.2c-6.36,5.24-14.12,8.67-22.34,9.3-30.7,2.38-53.25-24.2-53.25-24.2Z"/>
    <path class="aq" d="M114.51,115.81s7.91,54.23,76.47,92.3"/>
    <line class="aq" x1="146.16" y1="114.87" x2="169.01" y2="93.9"/>
    <path class="aq" d="M188.89,83.9s10.52-6.95,30.98-1.68"/>
  </g>
</svg>
