<?xml version='1.0' encoding='UTF-8'?>
<svg xmlns="http://www.w3.org/2000/svg" id="aa" data-name="Fracture" viewBox="0 0 453.54 453.54">
  <defs>
    <style>
      .ap {
        fill: none;
        stroke: #144179;
        stroke-linecap: round;
        stroke-linejoin: round;
        stroke-width: 12px;
      }
    </style>
  </defs>
  <path class="ap" d="M273.6,51.63s44.87,47.79,79.13,68.73c34.26,20.94,31.53,43.07,31.53,43.07,0,0-2.73,16.07-41.23,19.4,0,0-38.5,28.19-78.52,11.82-40.02-16.37-17.58-44.57-17.58-44.57,0,0,23.95-14.25-1.82-48.51-25.77-34.26-36.08-49.96-36.08-49.96h64.57Z"/>
  <path class="ap" d="M76.54,375.33s197.97-121.85,262.85-136.1c0,0,14.25-42.75-107.32-41.53,0,0-13.95.3-16.37,23.95,0,0-63.06,68.78-194.33,153.68h55.18Z"/>
  <path class="ap" d="M231.46,199.77s41.84,37.03,104.59,37.03"/>
  <path class="ap" d="M368.79,204.36c.3,0,55.78-20.92,55.78-20.92"/>
  <path class="ap" d="M363.94,228.31c-.61-.91,11.74,32.44,11.74,32.44"/>
  <line class="ap" x1="384.31" y1="220.74" x2="427" y2="233.17"/>
</svg>
