<?xml version='1.0' encoding='UTF-8'?>
<svg xmlns="http://www.w3.org/2000/svg" id="n" data-name="Medicaments" viewBox="0 0 453.54 453.54">
  <defs>
    <style>
      .ap, .aq {
        stroke-linecap: round;
        stroke-linejoin: round;
      }

      .ap, .aq, .ar {
        stroke: #144179;
        stroke-width: 12px;
      }

      .ap, .ar {
        fill: none;
      }

      .aq {
        fill: #fff;
      }

      .ar {
        stroke-miterlimit: 10;
      }
    </style>
  </defs>
  <path class="ap" d="M270.92,377.43v-175.99s.54-32.67-23.47-32.67c-34,0-26.14-62.67-26.14-62.67h-95.06s7.86,62.67-26.14,62.67c-24.01,0-23.48,32.67-23.48,32.67v175.99s-2.19,34.67,31.47,35.49c26.74.65,54.87.28,65.67.09,10.8.19,38.93.56,65.67-.09,33.67-.82,31.47-35.49,31.47-35.49Z"/>
  <rect class="ar" x="114.35" y="53.44" width="122.76" height="52.67" rx="11.89" ry="11.89"/>
  <line class="ap" x1="142.11" y1="104.44" x2="142.11" y2="82.42"/>
  <line class="ap" x1="174.18" y1="104.44" x2="174.18" y2="82.42"/>
  <line class="ap" x1="208.44" y1="104.44" x2="208.44" y2="82.42"/>
  <ellipse class="ap" cx="330.33" cy="369.7" rx="45.51" ry="45.22"/>
  <ellipse class="aq" cx="279.53" cy="317.96" rx="45.51" ry="45.22"/>
  <line class="ap" x1="246.82" y1="349.38" x2="308.9" y2="287.3"/>
  <line class="ap" x1="301.57" y1="401.54" x2="363.91" y2="339.2"/>
  <line class="aq" x1="178.37" y1="245.66" x2="178.37" y2="283"/>
  <line class="aq" x1="197.03" y1="264.33" x2="159.7" y2="264.33"/>
  <line class="ap" x1="77.78" y1="211.11" x2="268.44" y2="211.11"/>
  <line class="ap" x1="231.78" y1="317.96" x2="77.78" y2="317.96"/>
</svg>
