<?xml version='1.0' encoding='UTF-8'?>
<svg xmlns="http://www.w3.org/2000/svg" id="e" data-name="Perso douleur coude" viewBox="0 0 453.54 453.54">
  <defs>
    <style>
      .ap {
        fill: #144179;
        stroke-width: 0px;
      }

      .aq {
        fill: none;
        stroke: #144179;
        stroke-linecap: round;
        stroke-linejoin: round;
        stroke-width: 13.32px;
      }
    </style>
  </defs>
  <circle class="ap" cx="232.83" cy="75.88" r="37.95"/>
  <path class="ap" d="M196.82,125.17h70.31s13.57,3.7,10.61,16.53c-2.96,12.83-18.01,52.3-56.25,51.56-38.24-.74-65.13-29.49-65.13-29.49,0,0-3.95-9.98,2.47-15.41,6.41-5.43,13.32-2.71,13.32-2.71,0,0,55.21,44.93,72.97,11.88,0,0-24,17.08-69.75-16.92,0,0-12.72-7.07-22.58,6,0,0-21.1-20.79,4.81-79.33,0,0,4.19-8.22,13.32-6.74,9.13,1.48,12.09,9.13,12.09,9.13,0,0-18.01,57.23-8.14,62.41l8.14-.25,13.82-6.66Z"/>
  <path class="ap" d="M188.18,194.44v205.31s3.7,15.71,19.98,15.71,20.48-16.2,20.48-16.2l1.23-135.19h6.66v134.94s3.7,16.45,20.97,16.45,20.65-16.7,20.65-16.7v-237.4s-21.39,60.71-89.97,33.08Z"/>
  <polyline class="aq" points="81.05 201.24 110.56 189.53 99.85 178.42 132.6 171.37"/>
  <polyline class="aq" points="152.18 240.4 158.48 209.27 143.32 212.18 155.29 180.9"/>
</svg>
