<?xml version='1.0' encoding='UTF-8'?>
<svg xmlns="http://www.w3.org/2000/svg" id="y" data-name="Homme canne" viewBox="0 0 453.54 453.54">
  <defs>
    <style>
      .ap {
        fill: none;
        stroke: #144179;
        stroke-linecap: round;
        stroke-linejoin: round;
        stroke-width: 12px;
      }
    </style>
  </defs>
  <path class="ap" d="M287.82,410.95v-130.2c0-7.19,5.85-13.02,13.07-13.02s13.07,5.83,13.07,13.02h0c0-7.19-5.85-13.02-13.07-13.02s-13.07,5.83-13.07,13.02v130.2h0Z"/>
  <ellipse class="ap" cx="174.84" cy="78.99" rx="35.5" ry="36.28"/>
  <g>
    <path class="ap" d="M262.39,195.58c-3.96-5.61-8.3-10.62-12.8-14.95-1.22-1.14-2.44-2.2-3.66-3.26"/>
    <path class="ap" d="M261.71,196.11v198.55c0,9.03-7.31,16.31-16.38,16.31-4.49,0-8.61-1.82-11.5-4.78-2.97-2.96-4.8-7.06-4.8-11.53v-94.38c0-3.57-1.45-6.9-3.81-9.26-2.36-2.35-5.71-3.79-9.29-3.79-7.24,0-13.1,5.84-13.1,13.05v94.38c0,9.03-7.31,16.31-16.3,16.31-4.49,0-8.61-1.82-11.58-4.78-2.97-2.96-4.8-7.06-4.8-11.53"/>
    <path class="ap" d="M262.39,195.58c12.34,17.07,21.86,39.3,24.6,60.32.46,3.34,2.13,6.37,4.49,8.42l8.91,3.41c7.54,0,13.56-6.07,13.56-13.5v-5.99c0-39.53-13.48-69.65-37.02-92.56-16-15.7-36.72-27.92-61.01-37.63l-46.47,22.31"/>
    <line class="ap" x1="170.15" y1="394.66" x2="169.46" y2="140.34"/>
  </g>
</svg>
