<?xml version='1.0' encoding='UTF-8'?>
<svg xmlns="http://www.w3.org/2000/svg" id="z" data-name="Soins de santé" viewBox="0 0 453.54 453.54">
  <defs>
    <style>
      .ap {
        fill: #fff;
        stroke: #144179;
      }

      .ap, .aq {
        stroke-linecap: round;
        stroke-linejoin: round;
        stroke-width: 12px;
      }

      .aq {
        fill: none;
        stroke: #144179;
      }
    </style>
  </defs>
  <g>
    <path class="ap" d="M218.39,346.9h75.14c11.07,0,21.03-9.96,21.03-22.26s-9.96-22.26-21.03-22.26h-75.14s-17.34-23.69-43.59-31.25c-17.18-4.94-93.51-5.04-93.51-5.04l6.11,80.93s100.86,56.85,144.95,61.38c25.66,2.64,101.99-40.19,101.99-40.19l65.57-36.1c10.95-5.58,15.31-18.98,9.73-29.93h0c-5.58-10.95-18.98-15.31-29.93-9.73l-65.17,34.42"/>
    <rect class="ap" x="43.56" y="245.09" width="73.27" height="136.54" rx="12.48" ry="12.48"/>
  </g>
  <path class="aq" d="M369.41,84.5c-8.41-18.21-24.2-30.89-42.25-33.93-3.6-.6-7.25-.91-10.84-.91-29.6,0-52.17,20.28-60.59,29.12-10.43-10.94-32.07-29.12-60.59-29.12-3.6,0-7.24.31-10.82.91-18.07,3.04-33.87,15.73-42.27,33.94-11.55,25.06-3.97,62.29,5.11,80.73,13.14,26.67,51.52,61.02,105.3,94.23l3.26,2.02,3.26-2.02c53.83-33.24,92.21-67.58,105.32-94.23,9.09-18.41,16.68-55.62,5.11-80.74Z"/>
</svg>
