<?xml version='1.0' encoding='UTF-8'?>
<svg xmlns="http://www.w3.org/2000/svg" id="u" data-name="Cout sante" viewBox="0 0 453.54 453.54">
  <defs>
    <style>
      .ap {
        fill: #144179;
        stroke-width: 0px;
      }

      .aq {
        fill: #fff;
      }

      .aq, .ar {
        stroke-linejoin: round;
      }

      .aq, .ar, .as {
        stroke-linecap: round;
        stroke-width: 12px;
      }

      .aq, .as {
        stroke: #144179;
      }

      .ar {
        stroke: #144179;
      }

      .ar, .as {
        fill: none;
      }

      .as {
        stroke-miterlimit: 10;
      }
    </style>
  </defs>
  <rect class="ar" x="91.68" y="92.61" width="272" height="318.83" rx="31.18" ry="31.18"/>
  <g>
    <path class="as" d="M320.55,340.5c-6.66,6.95-16.05,11.29-26.44,11.29-20.22,0-36.62-16.39-36.62-36.62s16.39-36.62,36.62-36.62c9.64,0,18.41,3.73,24.95,9.82"/>
    <line class="as" x1="246.84" y1="305.64" x2="308.22" y2="305.64"/>
    <line class="as" x1="246.84" y1="324.55" x2="308.22" y2="324.55"/>
  </g>
  <line class="as" x1="219.46" y1="178.99" x2="320.43" y2="178.99"/>
  <line class="as" x1="132.5" y1="223.97" x2="320.43" y2="223.97"/>
  <line class="as" x1="132.5" y1="268.59" x2="224.47" y2="268.59"/>
  <line class="as" x1="132.5" y1="313.21" x2="224.47" y2="313.21"/>
  <line class="as" x1="132.5" y1="357.82" x2="224.47" y2="357.82"/>
  <path class="aq" d="M282.1,76.32h-13.04c-2.43-21.31-20.51-37.87-42.47-37.87s-40.05,16.56-42.47,37.87h-9.97c-6.74,0-12.25,5.51-12.25,12.25v8.62c0,6.74,5.51,12.25,12.25,12.25h107.96c6.74,0,12.25-5.51,12.25-12.25v-8.62c0-6.74-5.51-12.25-12.25-12.25Z"/>
  <polygon class="aq" points="194.12 157.73 173.92 157.73 173.92 137.53 152.69 137.53 152.69 157.73 132.5 157.73 132.5 178.95 152.69 178.95 152.69 199.15 173.92 199.15 173.92 178.95 194.12 178.95 194.12 157.73"/>
  <circle class="ap" cx="226.47" cy="75.22" r="21.38"/>
</svg>
