<?xml version='1.0' encoding='UTF-8'?>
<svg xmlns="http://www.w3.org/2000/svg" id="x" data-name="Malade domicilie" viewBox="0 0 453.54 453.54">
  <defs>
    <style>
      .ap {
        fill: none;
        stroke: #144179;
        stroke-linecap: round;
        stroke-linejoin: round;
        stroke-width: 12px;
      }
    </style>
  </defs>
  <line class="ap" x1="48.7" y1="409.52" x2="414.36" y2="409.52"/>
  <polygon class="ap" points="223.48 41.45 156.36 105.78 156.36 74.2 91.06 74.2 91.06 168.36 40.39 216.92 79.65 216.92 79.65 409.52 368.1 409.52 368.1 216.92 406.56 216.92 223.48 41.45"/>
  <g>
    <path class="ap" d="M103.78,388.74h22.8v-12.3h193.88v12.3h22.8v-68.41s-9.92-15.43-23.13,0v22.8H126.58l-.33-23.75s-11.07-15.29-22.48.95v68.41Z"/>
    <path class="ap" d="M195.12,343.13v-45.61s34.42-2.2,91.54,22.8l-.33,22.8h-91.22Z"/>
    <circle class="ap" cx="161.83" cy="308.94" r="14.01"/>
  </g>
  <polygon class="ap" points="234.28 174.97 200.08 174.97 200.08 140.77 164.14 140.77 164.14 174.97 129.94 174.97 129.94 210.91 164.14 210.91 164.14 245.12 200.08 245.12 200.08 210.91 234.28 210.91 234.28 174.97"/>
</svg>
