<?xml version='1.0' encoding='UTF-8'?>
<svg xmlns="http://www.w3.org/2000/svg" id="b" data-name="Perso dépressif" viewBox="0 0 453.54 453.54">
  <defs>
    <style>
      .ap {
        stroke-width: 0px;
      }

      .ap, .aq {
        fill: #144179;
      }

      .aq {
        stroke: #144179;
        stroke-miterlimit: 10;
        stroke-width: 5px;
      }
    </style>
  </defs>
  <circle class="ap" cx="297.8" cy="204.03" r="29.99"/>
  <path class="ap" d="M261.22,219.11c0,1.52-.15,3.04-.45,4.55v82.41c0,6.44-5.22,11.65-11.66,11.65s-11.65-5.21-11.65-11.65v-47.44l-22.23,29.55,28.59,49.51c.2.34.38.69.54,1.04,0,0,.01.02.02.03,1.42,2.22,2.25,4.85,2.25,7.65,0,.22-.01.44-.02.66l-2.65,58.08c-.36,7.81-6.99,13.86-14.8,13.5-7.8-.37-13.84-6.98-13.48-14.79l2.46-53.95-22.46-38.89-3.49,45.06c-.03.43-.08.85-.16,1.27-.01.03-.01.07-.01.1-.12,2.78-1.07,5.55-2.87,7.93l-34.89,46.16c-4.72,6.25-13.63,7.47-19.85,2.71-6.22-4.76-7.43-13.66-2.71-19.91l32.46-42.96,5.1-65.92c.07-.85.21-1.68.42-2.48.42-4.22,1.99-8.4,4.74-12.03l48.89-64.38c7.54-9.93,21.1-11.87,30.22-4.33,5.06,4.2,7.69,10.45,7.69,16.87Z"/>
  <path class="ap" d="M183.56,158.06c-16.25,0,0-23.9,0-23.9,0,0,16.25,23.9,0,23.9Z"/>
  <path class="ap" d="M212.33,158.06c-16.25,0,0-23.9,0-23.9,0,0,16.25,23.9,0,23.9Z"/>
  <path class="ap" d="M241.1,158.06c-16.25,0,0-23.9,0-23.9,0,0,16.25,23.9,0,23.9Z"/>
  <path class="ap" d="M269.87,158.06c-16.25,0,0-23.9,0-23.9,0,0,16.25,23.9,0,23.9Z"/>
  <path class="ap" d="M196.99,192.58c-16.25,0,0-23.9,0-23.9,0,0,16.25,23.9,0,23.9Z"/>
  <path class="ap" d="M225.76,192.58c-16.25,0,0-23.9,0-23.9,0,0,16.25,23.9,0,23.9Z"/>
  <path class="aq" d="M283.37,70.07c-4.92-20.14-22.63-34.19-43.17-34.19-16.05,0-30.88,8.78-38.76,22.93-17.83,2.68-30.74,17.86-30.74,36.17,0,20.18,16.23,36.6,36.18,36.6h72.18c16.89,0,30.63-13.9,30.63-30.98,0-15.31-11.3-28.38-26.32-30.53ZM279.06,125.83h-72.18c-16.78,0-30.43-13.84-30.43-30.85,0-15.81,11.66-28.99,27.13-30.65.97-.11,1.81-.68,2.25-1.55,6.71-13.04,19.88-21.15,34.37-21.15,18.44,0,34.41,13.3,37.98,31.63.25,1.28,1.33,2.23,2.62,2.32,12.98.91,23.14,11.9,23.14,25.02,0,13.91-11.16,25.23-24.88,25.23Z"/>
</svg>
