<?xml version='1.0' encoding='UTF-8'?>
<svg xmlns="http://www.w3.org/2000/svg" id="x" data-name="Haie" viewBox="0 0 453.54 453.54">
  <defs>
    <style>
      .ab {
        fill: #fff;
      }

      .ab, .ac {
        stroke: #5F1972;
        stroke-linecap: round;
        stroke-linejoin: round;
        stroke-width: 12px;
      }

      .ac {
        fill: none;
      }
    </style>
  </defs>
  <g>
    <path class="ac" d="M391.13,269.75c-1.91-37.93-22.94-67.81-48.62-67.81s-46.75,29.94-48.63,67.92c-11.8,11.76-18.95,27.83-18.95,45.55,0,36.05,29.62,57.03,67.69,57.03s67.48-20.98,67.48-57.03c0-17.77-7.15-33.88-18.96-45.66Z"/>
    <g>
      <path class="ac" d="M380.24,290.85c0,19.9-16.13,36.03-36.03,36.03"/>
      <line class="ac" x1="342.51" y1="261.52" x2="342.51" y2="371.43"/>
    </g>
  </g>
  <g>
    <path class="ac" d="M59.77,269.75c1.91-37.93,22.94-67.81,48.62-67.81,25.7,0,46.75,29.94,48.63,67.92,11.8,11.76,18.95,27.83,18.95,45.55,0,36.05-29.62,57.03-67.69,57.03s-67.48-20.98-67.48-57.03c0-17.77,7.15-33.88,18.96-45.66Z"/>
    <g>
      <path class="ac" d="M70.67,290.85c0,19.9,16.13,36.03,36.03,36.03"/>
      <line class="ac" x1="108.4" y1="261.52" x2="108.4" y2="371.43"/>
    </g>
  </g>
  <path class="ab" d="M324.01,246.4c0-15.84-10.21-30.21-27.06-40.7-2.73-33.81-32.75-60.45-69.41-60.45s-66.73,26.69-69.41,60.55c-16.84,10.49-27.05,24.81-27.05,40.61,0,14.57,8.69,27.89,23.24,38.09-7.08,9.23-11.3,20.74-11.3,33.19h0c0,30.11,24.64,54.75,54.75,54.75h59.55c30.11,0,54.75-24.64,54.75-54.75h0c0-12.43-4.21-23.92-11.26-33.14,14.54-10.22,23.2-23.56,23.2-38.15Z"/>
  <g>
    <path class="ac" d="M265.34,233.66c0,19.9-16.13,36.03-36.03,36.03s-36.03-16.13-36.03-36.03"/>
    <path class="ac" d="M265.34,288.16c0,19.9-16.13,36.03-36.03,36.03s-36.03-16.13-36.03-36.03"/>
    <line class="ac" x1="229.31" y1="217.16" x2="229.31" y2="372.44"/>
  </g>
</svg>
