<?xml version='1.0' encoding='UTF-8'?>
<svg xmlns="http://www.w3.org/2000/svg" id="y" data-name="Nature" viewBox="0 0 453.54 453.54">
  <defs>
    <style>
      .ab {
        fill: #fff;
      }

      .ab, .ac {
        stroke: #5F1972;
        stroke-linecap: round;
        stroke-linejoin: round;
        stroke-width: 12px;
      }

      .ac {
        fill: none;
      }
    </style>
  </defs>
  <g>
    <g>
      <path class="ac" d="M36.21,234.13l61.82,61.82h.03s-3.38-55.52-3.38-55.52c-31.14-4.78-58.48-6.31-58.48-6.31,0,0,1.52,27.32,6.3,58.46l55.52,3.37-61.82-61.82Z"/>
      <path class="ac" d="M98.03,295.95l-55.52-3.37c2.54,16.55,6,34.17,10.65,49.35l96.72,5.87-51.85-51.85Z"/>
      <path class="ac" d="M98.06,295.95h-.03s51.85,51.85,51.85,51.85h.03s-5.89-96.71-5.89-96.71c-15.18-4.65-32.79-8.11-49.34-10.65l3.38,55.52Z"/>
      <g>
        <path class="ac" d="M149.88,347.8l24.13,24.13c29.75-29.75,31.49-76.26,3.88-103.87-6.92-6.92-19.25-12.49-33.86-16.97l5.89,96.72h-.03Z"/>
        <path class="ac" d="M53.16,341.94c4.48,14.62,10.06,26.96,16.98,33.88,27.61,27.61,74.12,25.88,103.87-3.88l-24.13-24.13-96.72-5.87Z"/>
      </g>
    </g>
    <line class="ac" x1="174.01" y1="371.94" x2="211.48" y2="409.4"/>
  </g>
  <g>
    <g>
      <path class="ac" d="M420.21,234.13l-61.82,61.82h-.03s3.38-55.52,3.38-55.52c31.14-4.78,58.48-6.31,58.48-6.31,0,0-1.52,27.32-6.3,58.46l-55.52,3.37,61.82-61.82Z"/>
      <path class="ac" d="M358.38,295.95l55.52-3.37c-2.54,16.55-6,34.17-10.65,49.35l-96.72,5.87,51.85-51.85Z"/>
      <path class="ac" d="M358.35,295.95h.03s-51.85,51.85-51.85,51.85h-.03s5.89-96.71,5.89-96.71c15.18-4.65,32.79-8.11,49.34-10.65l-3.38,55.52Z"/>
      <g>
        <path class="ac" d="M306.53,347.8l-24.13,24.13c-29.75-29.75-31.49-76.26-3.88-103.87,6.92-6.92,19.25-12.49,33.86-16.97l-5.89,96.72h.03Z"/>
        <path class="ac" d="M403.25,341.94c-4.48,14.62-10.06,26.96-16.98,33.88-27.61,27.61-74.12,25.88-103.87-3.88l24.13-24.13,96.72-5.87Z"/>
      </g>
    </g>
    <line class="ac" x1="282.4" y1="371.94" x2="244.93" y2="409.4"/>
  </g>
  <g>
    <g>
      <path class="ab" d="M229.11,47.97v127.49l.03.04,53.76-60.73c-27.17-37.04-53.79-66.8-53.79-66.8,0,0-26.6,29.74-53.77,66.77l53.77,60.71V47.97Z"/>
      <path class="ab" d="M229.11,175.46l-53.77-60.71c-14.45,19.69-29.05,41.42-39.9,61.87l93.67,105.77v-106.92Z"/>
      <path class="ab" d="M229.14,175.5l-.03-.04v106.92l.03.04,93.64-105.79c-10.85-20.44-25.45-42.17-39.89-61.86l-53.76,60.73Z"/>
      <g>
        <path class="ab" d="M229.11,282.38v49.77c61.35,0,111.09-46.16,111.09-103.1,0-14.26-6.97-32.73-17.41-52.42l-93.64,105.79-.03-.04Z"/>
        <path class="ab" d="M135.44,176.61c-10.45,19.69-17.42,38.17-17.42,52.43,0,56.94,49.74,103.1,111.09,103.1v-49.77l-93.67-105.77Z"/>
      </g>
    </g>
    <line class="ab" x1="229.11" y1="332.14" x2="229.11" y2="409.4"/>
  </g>
</svg>
