<?xml version='1.0' encoding='UTF-8'?>
<svg xmlns="http://www.w3.org/2000/svg" id="j" data-name="Cagette légumes" viewBox="0 0 453.54 453.54">
  <defs>
    <style>
      .ab {
        stroke: #5F1972;
        stroke-miterlimit: 10;
      }

      .ab, .ac, .ad {
        stroke-width: 12px;
      }

      .ab, .ae, .ad {
        fill: none;
      }

      .ac {
        fill: #fff;
      }

      .ac, .ae, .ad {
        stroke: #5F1972;
        stroke-linecap: round;
        stroke-linejoin: round;
      }

      .ae {
        stroke-width: 11.68px;
      }

      .af {
        fill: #5F1972;
        stroke-width: 0px;
      }
    </style>
  </defs>
  <g>
    <path class="ab" d="M206.94,202.2l-1.24-.54-11.21,21.51c-.42.77-1.24,1.28-2.09,1.28-.04,0-.16,0-.19,0h-.04s-.12-.03-.12-.03c-1.05-.17-1.82-.92-2.02-1.95l-4.79-30.38-1.59.54c-3.05,1.03-6.2,1.56-9.35,1.56h-1.49l-3.08,37.39c-.07.98-.72,1.77-1.67,2.07-.21.06-.44.09-.68.09-.71,0-1.4-.31-1.83-.84l-26.26-32.41-1.01.45c-1.2.54-2.25.95-3.22,1.26l-1.8.57,3.54,5.65c5.27,8.35,22.58,36.92,23.95,54.17,1.08,13.38.77,21.39.32,25.75l-.09.87.72.49c1.67,1.13,5.53,3.02,12.64,3.02h0c1.47,0,3.02-.08,4.62-.24,9.42-.99,13.65-2.68,15.33-3.6l.78-.43-.03-.89c-.2-6.31-.48-28.29,4.28-46.23,3.81-14.27,8.6-25.9,11.11-31.55l2.73-5.63-1.67-.43c-1.91-.49-3.29-.95-4.59-1.51Z"/>
    <path class="ab" d="M232.18,162.09c-1.73-1.55-3.6-2.81-5.58-3.78-1.02-.51-1.52-1.75-1.15-2.88,2.97-8.97.43-18.88-6.47-25.22-4.43-4.09-10.18-6.59-16.19-6.35-10.29.42-12.88,5.07-15.27,10.65-.37.87.65-4.02,7.36-10.2l1.41-.32s-1.41-2.53-5.85-6.86c-4.29-4.19-10.13-6.36-16.19-6.36-6.73,0-13.17,2.83-17.65,7.76l-.14.16c-.35.4-.74.84-1.1,1.3-.44.56-1.14.9-1.87.9-.17,0-.34-.02-.51-.06-1.89-.41-3.65-.62-5.38-.62-6.68,0-13.09,2.81-17.59,7.7-5.41,5.91-7.53,14.06-5.68,21.8l1.27,5.65,1.12.03c3.02.09,11.12,1.29,16.03,1.58.64.04-15.26-1.41-17.96-1.41-.72,0-1.52.09-1.52.09-4.77,1.07-9.04,3.53-12.36,7.14-4.32,4.7-6.56,10.82-6.3,17.21.26,6.4,3,12.3,7.7,16.62,4.43,4.09,10.18,6.35,16.19,6.35,6.71,0,13.14-2.81,17.64-7.7,2.46-2.69,4.26-5.86,5.34-9.43.27-.87.97-1.52,1.83-1.68h.06c.15-.05.31-.07.48-.07.69,0,1.36.32,1.8.85.77,1.02,1.54,1.88,2.43,2.7,4.46,4.07,10.23,6.3,16.24,6.3,5.51,0,10.92-1.93,15.22-5.45l.07-.06.06-.07c5.49-5.77,9.99-18.37,10.59-18.39.08,0-6.08,13.24-9.77,17.52l-.67.77s8.01,7.36,9.89,9.09c4.39,4.06,10.14,6.29,16.18,6.29,6.71,0,13.14-2.81,17.64-7.7,4.32-4.71,6.57-10.83,6.35-17.24-.28-6.39-3.02-12.3-7.7-16.64Z"/>
  </g>
  <g>
    <polygon class="ac" points="410.27 337.27 410.27 416.02 43.27 416.02 43.27 337.27 43.27 258.58 149.75 258.58 157.53 258.58 189.54 258.58 197.27 258.58 252.2 258.58 301.31 258.58 410.27 258.58 410.27 337.27"/>
    <path class="ad" d="M252.2,258.58l28.84-105.26c2.65-9.58,13.07-14.76,22.28-11.01l6.56,2.65,26.57,10.69c9.21,3.76,13.12,14.71,8.36,23.44l-33.45,61.07-10.05,18.42"/>
    <line class="ae" x1="272.1" y1="186.13" x2="296.18" y2="198.15"/>
    <line class="ae" x1="290.62" y1="228.63" x2="311.36" y2="240.17"/>
    <line class="ae" x1="310.04" y1="88.92" x2="309.88" y2="144.96"/>
    <line class="ae" x1="351.64" y1="87.28" x2="323.32" y2="147.71"/>
    <line class="ae" x1="381.59" y1="114.43" x2="337.45" y2="153.22"/>
    <rect class="ae" x="43.27" y="219.53" width="54.3" height="39"/>
    <rect class="ae" x="356.03" y="219.53" width="54.24" height="39"/>
    <polyline class="ae" points="51.31 337.27 256.86 337.27 407.04 337.27"/>
  </g>
  <path class="af" d="M381.89,291.09c4.29,0,7.83,3.49,7.83,7.83s-3.55,7.83-7.83,7.83-7.83-3.49-7.83-7.83,3.49-7.83,7.83-7.83Z"/>
  <path class="af" d="M381.89,369.46c4.29,0,7.83,3.49,7.83,7.83s-3.55,7.83-7.83,7.83-7.83-3.55-7.83-7.83,3.49-7.83,7.83-7.83Z"/>
  <path class="af" d="M69.66,291.09c4.34,0,7.83,3.49,7.83,7.83s-3.49,7.83-7.83,7.83-7.83-3.49-7.83-7.83,3.55-7.83,7.83-7.83Z"/>
  <path class="af" d="M69.66,369.46c4.34,0,7.83,3.49,7.83,7.83s-3.49,7.83-7.83,7.83-7.83-3.55-7.83-7.83,3.55-7.83,7.83-7.83Z"/>
</svg>
