<?xml version='1.0' encoding='UTF-8'?>
<svg xmlns="http://www.w3.org/2000/svg" id="aa" data-name="Qualité culture3" viewBox="0 0 453.54 453.54">
  <defs>
    <style>
      .ab {
        fill: none;
        stroke: #5F1972;
        stroke-linecap: round;
        stroke-linejoin: round;
        stroke-width: 12px;
      }
    </style>
  </defs>
  <g>
    <g>
      <path class="ab" d="M72.94,342.91c51.32,11.63,109.78,32.24,166.26,67.92"/>
      <path class="ab" d="M314.44,410.83c-80.61-65.11-170.82-93.78-241.49-105.93"/>
      <path class="ab" d="M72.94,304.9c70.67,12.15,160.88,40.82,241.49,105.93"/>
      <path class="ab" d="M375.38,405.67c-99.32-95.61-220.46-127.39-302.43-137.16"/>
      <path class="ab" d="M72.94,268.51c81.98,9.77,203.11,41.55,302.43,137.16"/>
      <path class="ab" d="M375.38,346.89c-106.45-85.94-229.65-108.38-302.43-113.18"/>
    </g>
    <g>
      <path class="ab" d="M379.16,224.8c-35.11,5.86-71.54,15.76-107.97,31.35,36.44-15.58,72.86-25.48,107.97-31.35"/>
      <path class="ab" d="M323.9,283.3c18.58-6.37,37.05-11.38,55.25-15.25"/>
    </g>
  </g>
  <g>
    <circle class="ab" cx="225.22" cy="110.13" r="44.77"/>
    <path class="ab" d="M293.18,140.01c3.14-6.88,3.19-14.42.72-21.16,4.26-5.77,6.34-13.02,5.27-20.51s-5.12-13.86-10.83-18.19c.46-7.16-1.7-14.38-6.66-20.1-4.96-5.72-11.8-8.89-18.95-9.45-3.48-6.27-9.2-11.18-16.47-13.31-7.26-2.13-14.73-1.1-21.05,2.29-6.32-3.4-13.79-4.43-21.05-2.3-7.26,2.13-12.99,7.04-16.47,13.31-7.15.56-13.99,3.73-18.95,9.45-4.96,5.72-7.12,12.94-6.66,20.1-5.71,4.34-9.75,10.7-10.83,18.19-1.08,7.49,1.01,14.74,5.27,20.51-2.46,6.74-2.42,14.28.72,21.16,2.88,6.31,7.89,11.01,13.87,13.71l-19.27,51.5,25.55,1.16,21.29,15.87,16.23-40.59c3.19,1.29,6.65,2.01,10.28,2.01s7.09-.72,10.28-2.01l16.23,40.59,21.29-15.87,25.55-1.16-19.27-51.5c5.98-2.7,10.99-7.4,13.87-13.71Z"/>
  </g>
</svg>
