<?xml version='1.0' encoding='UTF-8'?>
<svg xmlns="http://www.w3.org/2000/svg" id="d" data-name="Baisse agriculture" viewBox="0 0 453.54 453.54">
  <defs>
    <style>
      .ab {
        fill: #fff;
        stroke-linejoin: round;
      }

      .ab, .ac {
        stroke: #5F1972;
        stroke-width: 12px;
      }

      .ac {
        fill: none;
        stroke-linecap: round;
        stroke-miterlimit: 10;
      }
    </style>
  </defs>
  <g>
    <path class="ac" d="M125.31,340.14c47.41,10.74,101.42,29.78,153.6,62.75"/>
    <path class="ac" d="M348.4,402.88c-74.47-60.15-157.81-86.64-223.09-97.86"/>
    <path class="ac" d="M125.31,305.02c65.29,11.22,148.63,37.71,223.09,97.86"/>
    <path class="ac" d="M404.7,398.11c-91.75-88.32-203.66-117.69-279.39-126.71"/>
    <path class="ac" d="M125.31,271.41c75.73,9.02,187.64,38.39,279.39,126.71"/>
    <path class="ac" d="M404.7,343.82c-98.34-79.39-212.16-100.12-279.39-104.55"/>
  </g>
  <g>
    <path class="ac" d="M408.19,231.03c-32.44,5.42-66.09,14.56-99.75,28.96,33.66-14.4,67.31-23.54,99.75-28.96"/>
    <path class="ac" d="M357.15,285.07c17.16-5.89,34.23-10.52,51.04-14.09"/>
  </g>
  <line class="ac" x1="269.71" y1="200.16" x2="269.71" y2="250.87"/>
  <path class="ac" d="M294.39,200.16c0,16.26-11.05,29.45-24.68,29.45s-24.68-13.18-24.68-29.45,24.68-48.34,24.68-48.34c0,0,24.68,32.08,24.68,48.34Z"/>
  <polygon class="ab" points="172.14 312.46 172.14 49.11 98.54 49.11 98.54 312.46 51.19 312.46 133.94 395.21 219.48 312.46 172.14 312.46"/>
</svg>
