<?xml version='1.0' encoding='UTF-8'?>
<svg xmlns="http://www.w3.org/2000/svg" id="h" data-name="Europe_3" viewBox="0 0 453.54 453.54">
  <defs>
    <style>
      .k {
        fill: #008280;
        stroke-width: 0px;
      }
    </style>
  </defs>
  <g>
    <g>
      <path class="k" d="M228.58,43.67l-8.23,25.46,12.7,4.09-4.47-29.55Z"/>
      <path class="k" d="M228.58,43.67l8.23,25.46-12.7,4.09,4.47-29.55Z"/>
    </g>
    <g>
      <path class="k" d="M253.99,62.15h-26.71v13.47l26.71-13.47Z"/>
      <path class="k" d="M253.99,62.15l-21.81,15.7-7.85-10.9,29.66-4.8Z"/>
      <path class="k" d="M244.28,91.97l-8.23-25.41-12.92,4.2,21.15,21.21Z"/>
      <path class="k" d="M244.28,91.97l-21.81-15.7,7.85-10.9,13.96,26.61Z"/>
    </g>
    <path class="k" d="M203.18,62.15h26.71v13.47l-26.71-13.47Z"/>
    <path class="k" d="M203.18,62.15l21.81,15.7,7.85-10.9-29.66-4.8Z"/>
    <path class="k" d="M212.88,91.97l8.23-25.41,12.7,4.14-20.94,21.26Z"/>
    <path class="k" d="M212.88,91.97l21.81-15.7-7.85-10.9-13.96,26.61Z"/>
  </g>
  <path class="k" d="M228.58,364.56l-8.23,25.41,12.7,4.14-4.47-29.55Z"/>
  <path class="k" d="M228.58,364.56l8.23,25.41-12.7,4.14,4.47-29.55Z"/>
  <path class="k" d="M253.99,382.83h-26.71v13.36l26.71-13.36Z"/>
  <path class="k" d="M253.99,382.83l-21.81,15.7-7.85-10.9,29.66-4.8Z"/>
  <path class="k" d="M244.28,412.7l-8.23-25.41-12.92,4.09,21.15,21.32Z"/>
  <path class="k" d="M244.28,412.7l-21.81-15.7,7.85-10.9,13.96,26.61Z"/>
  <path class="k" d="M203.18,382.83h26.71v13.36l-26.71-13.36Z"/>
  <path class="k" d="M203.18,382.83l21.81,15.7,7.85-10.9-29.66-4.8Z"/>
  <path class="k" d="M212.88,412.7l8.23-25.41,12.7,4.09-20.94,21.32Z"/>
  <path class="k" d="M212.88,412.7l21.81-15.7-7.85-10.9-13.96,26.61Z"/>
  <g>
    <path class="k" d="M68.24,204.01l-8.23,25.41,12.7,4.14-4.47-29.55Z"/>
    <path class="k" d="M68.24,204.01l8.29,25.41-12.7,4.31,4.42-29.71Z"/>
    <path class="k" d="M93.65,222.49h-26.71v13.36l26.71-13.36Z"/>
    <path class="k" d="M93.65,222.49l-21.81,15.7-7.85-10.9,29.66-4.8Z"/>
    <path class="k" d="M83.95,252.36l-8.01-25.41-12.7,4.14,20.72,21.26Z"/>
    <path class="k" d="M83.95,252.36l-21.81-15.7,7.85-10.9,13.96,26.61Z"/>
    <path class="k" d="M42.84,222.49h26.71v13.36l-26.71-13.36Z"/>
    <path class="k" d="M42.84,222.49l21.81,15.7,7.85-10.9-29.66-4.8Z"/>
    <path class="k" d="M52.54,252.36l8.29-25.41,12.7,4.14-20.99,21.26Z"/>
    <path class="k" d="M52.54,252.36l21.81-15.7-7.85-10.9-13.96,26.61Z"/>
    <path class="k" d="M132.69,113.78l21.81-15.7-7.85-10.9-13.96,26.61Z"/>
    <path class="k" d="M132.69,113.78l8.29-25.41,12.7,4.14-20.99,21.26Z"/>
    <path class="k" d="M122.98,83.63l21.81,15.7,7.85-10.9-29.66-4.8Z"/>
    <path class="k" d="M122.98,83.63h26.77v13.36l-26.77-13.36Z"/>
    <path class="k" d="M148.44,65.15l-8.29,25.46,12.7,4.09-4.42-29.55Z"/>
    <path class="k" d="M148.44,65.15l8.23,25.46-12.7,4.09,4.47-29.55Z"/>
    <path class="k" d="M164.14,113.78l-21.81-15.7,7.85-10.9,13.96,26.61Z"/>
    <path class="k" d="M164.14,113.78l-8.29-25.41-12.7,4.14,20.99,21.26Z"/>
    <path class="k" d="M174.06,83.63l-21.81,15.7-7.85-10.9,29.66-4.8Z"/>
    <path class="k" d="M174.06,83.63h-26.71v13.36l26.71-13.36Z"/>
    <path class="k" d="M105.43,172.22l-8.23-25.46-12.7,4.14,20.94,21.32Z"/>
    <path class="k" d="M105.43,172.22l-21.81-15.76,7.85-10.9,13.96,26.66Z"/>
    <path class="k" d="M74.02,172.22l21.81-15.76-7.85-10.9-13.96,26.66Z"/>
    <path class="k" d="M74.02,172.22l8.29-25.46,12.7,4.14-20.99,21.32Z"/>
    <path class="k" d="M64.32,142.35l21.81,15.7,7.85-10.9-29.66-4.8Z"/>
    <path class="k" d="M64.32,142.35h26.71v13.36l-26.71-13.36Z"/>
    <path class="k" d="M115.13,142.35l-21.81,15.7-7.85-10.9,29.66-4.8Z"/>
    <path class="k" d="M115.13,142.35h-26.71v13.36l26.71-13.36Z"/>
    <path class="k" d="M89.72,123.86l8.29,25.41-12.7,4.14,4.42-29.55Z"/>
    <path class="k" d="M89.72,123.86l-8.34,25.41,12.7,4.14-4.36-29.55Z"/>
    <path class="k" d="M115.13,302.63h-26.71v13.36l26.71-13.36Z"/>
    <path class="k" d="M115.13,302.63l-21.81,15.7-7.85-10.9,29.66-4.8Z"/>
    <path class="k" d="M105.43,332.51l-8.23-25.41-12.7,4.14,20.94,21.26Z"/>
    <path class="k" d="M105.43,332.51l-21.81-15.7,7.85-10.9,13.96,26.61Z"/>
    <path class="k" d="M74.02,332.51l21.81-15.7-7.85-10.9-13.96,26.61Z"/>
    <path class="k" d="M74.02,332.51l8.29-25.41,12.7,4.14-20.99,21.26Z"/>
    <path class="k" d="M89.72,284.2l8.29,25.41-12.7,4.14,4.42-29.55Z"/>
    <path class="k" d="M89.72,284.2l-8.34,25.41,12.7,4.14-4.36-29.55Z"/>
    <path class="k" d="M64.32,302.63h26.71v13.36l-26.71-13.36Z"/>
    <path class="k" d="M64.32,302.63l21.81,15.7,7.85-10.9-29.66-4.8Z"/>
    <path class="k" d="M174.06,361.35h-26.71v13.36l26.71-13.36Z"/>
    <path class="k" d="M174.06,361.35l-21.81,15.7-7.85-10.9,29.66-4.8Z"/>
    <path class="k" d="M164.14,391.22l-8.29-25.41-12.7,4.2,20.99,21.21Z"/>
    <path class="k" d="M164.14,391.22l-21.81-15.7,7.85-10.9,13.96,26.61Z"/>
    <path class="k" d="M132.69,391.22l21.81-15.7-7.85-10.9-13.96,26.61Z"/>
    <path class="k" d="M132.69,391.22l8.29-25.41,12.7,4.09-20.99,21.32Z"/>
    <path class="k" d="M148.44,342.76l8.23,25.41-12.7,4.14,4.47-29.55Z"/>
    <path class="k" d="M148.44,342.76l-8.29,25.41,12.7,4.14-4.42-29.55Z"/>
    <path class="k" d="M122.98,361.35h26.77v13.36l-26.77-13.36Z"/>
    <path class="k" d="M122.98,361.35l21.81,15.7,7.85-10.9-29.66-4.8Z"/>
  </g>
  <path class="k" d="M388.92,204.01l8.23,25.41-12.7,4.31,4.47-29.71Z"/>
  <path class="k" d="M388.92,204.01l-8.29,25.41,12.7,4.14-4.42-29.55Z"/>
  <path class="k" d="M363.52,222.49h26.71v13.36l-26.71-13.36Z"/>
  <path class="k" d="M363.52,222.49l21.81,15.7,7.85-10.9-29.66-4.8Z"/>
  <path class="k" d="M373.22,252.36l8.01-25.41,12.7,4.14-20.72,21.26Z"/>
  <path class="k" d="M373.22,252.36l21.81-15.7-7.85-10.9-13.96,26.61Z"/>
  <path class="k" d="M414.33,222.49h-26.71v13.36l26.71-13.36Z"/>
  <path class="k" d="M414.33,222.49l-21.81,15.7-7.85-10.9,29.66-4.8Z"/>
  <path class="k" d="M404.62,252.36l-8.29-25.41-12.7,4.14,20.99,21.26Z"/>
  <path class="k" d="M404.62,252.36l-21.81-15.7,7.85-10.9,13.96,26.61Z"/>
  <path class="k" d="M324.48,113.78l-21.81-15.7,7.85-10.9,13.96,26.61Z"/>
  <path class="k" d="M324.48,113.78l-8.29-25.41-12.7,4.14,20.99,21.26Z"/>
  <path class="k" d="M334.19,83.63l-21.81,15.7-7.85-10.9,29.66-4.8Z"/>
  <path class="k" d="M334.19,83.63h-26.77v13.36l26.77-13.36Z"/>
  <path class="k" d="M308.73,65.15l8.29,25.46-12.7,4.09,4.42-29.55Z"/>
  <path class="k" d="M308.73,65.15l-8.23,25.46,12.7,4.09-4.47-29.55Z"/>
  <path class="k" d="M293.02,113.78l21.81-15.7-7.85-10.9-13.96,26.61Z"/>
  <path class="k" d="M293.02,113.78l8.29-25.41,12.7,4.14-20.99,21.26Z"/>
  <path class="k" d="M283.1,83.63l21.81,15.7,7.85-10.9-29.66-4.8Z"/>
  <path class="k" d="M283.1,83.63h26.71v13.36l-26.71-13.36Z"/>
  <path class="k" d="M351.74,172.22l8.23-25.46,12.7,4.14-20.94,21.32Z"/>
  <path class="k" d="M351.74,172.22l21.81-15.76-7.85-10.9-13.96,26.66Z"/>
  <path class="k" d="M383.14,172.22l-21.81-15.76,7.85-10.9,13.96,26.66Z"/>
  <path class="k" d="M383.14,172.22l-8.29-25.46-12.7,4.14,20.99,21.32Z"/>
  <path class="k" d="M392.85,142.35l-21.81,15.7-7.85-10.9,29.66-4.8Z"/>
  <path class="k" d="M392.85,142.35h-26.71v13.36l26.71-13.36Z"/>
  <path class="k" d="M342.04,142.35l21.81,15.7,7.85-10.9-29.66-4.8Z"/>
  <path class="k" d="M342.04,142.35h26.71v13.36l-26.71-13.36Z"/>
  <path class="k" d="M367.44,123.86l-8.01,25.41,12.7,4.14-4.69-29.55Z"/>
  <path class="k" d="M367.44,123.86l8.34,25.41-12.7,4.14,4.36-29.55Z"/>
  <path class="k" d="M342.04,302.63h26.71v13.36l-26.71-13.36Z"/>
  <path class="k" d="M342.04,302.63l21.81,15.7,7.85-10.9-29.66-4.8Z"/>
  <path class="k" d="M351.74,332.51l8.23-25.41,12.7,4.14-20.94,21.26Z"/>
  <path class="k" d="M351.74,332.51l21.81-15.7-7.85-10.9-13.96,26.61Z"/>
  <path class="k" d="M383.14,332.51l-21.81-15.7,7.85-10.9,13.96,26.61Z"/>
  <path class="k" d="M383.14,332.51l-8.29-25.41-12.7,4.14,20.99,21.26Z"/>
  <path class="k" d="M367.44,284.2l-8.01,25.41,12.7,4.14-4.69-29.55Z"/>
  <path class="k" d="M367.44,284.2l8.34,25.41-12.7,4.14,4.36-29.55Z"/>
  <path class="k" d="M392.85,302.63h-26.71v13.36l26.71-13.36Z"/>
  <path class="k" d="M392.85,302.63l-21.81,15.7-7.85-10.9,29.66-4.8Z"/>
  <path class="k" d="M283.1,361.35h26.71v13.36l-26.71-13.36Z"/>
  <path class="k" d="M283.1,361.35l21.81,15.7,7.85-10.9-29.66-4.8Z"/>
  <path class="k" d="M293.02,391.22l8.29-25.41,12.7,4.09-20.99,21.32Z"/>
  <path class="k" d="M293.02,391.22l21.81-15.7-7.85-10.9-13.96,26.61Z"/>
  <path class="k" d="M324.48,391.22l-21.81-15.7,7.85-10.9,13.96,26.61Z"/>
  <path class="k" d="M324.48,391.22l-8.29-25.41-12.7,4.2,20.99,21.21Z"/>
  <path class="k" d="M308.73,342.76l-8.23,25.41,12.7,4.14-4.47-29.55Z"/>
  <path class="k" d="M308.73,342.76l8.29,25.41-12.7,4.14,4.42-29.55Z"/>
  <path class="k" d="M334.19,361.35h-26.77v13.36l26.77-13.36Z"/>
  <path class="k" d="M334.19,361.35l-21.81,15.7-7.85-10.9,29.66-4.8Z"/>
</svg>
