<?xml version='1.0' encoding='UTF-8'?>
<svg xmlns="http://www.w3.org/2000/svg" id="r" data-name="Femme élue" viewBox="0 0 453.54 453.54">
  <defs>
    <style>
      .cb {
        fill: none;
        stroke: #008280;
        stroke-linecap: round;
        stroke-linejoin: round;
        stroke-width: 12px;
      }

      .cc {
        fill: #008280;
      }

      .cc, .cd {
        stroke-width: 0px;
      }

      .cd {
        fill: #fff;
      }
    </style>
  </defs>
  <path class="cc" d="M318.61,244.27c-1.38,2.34-47.56,11.27-47.56,11.27,0,0,3.28-14.74,6.27-33.58h0c1.22-7.57,2.35-15.72,3.2-23.96h0c.83-7.3,1.38-14.69,1.53-21.34.74-32.95-4.3-45.31-8.42-60.51h0c-14.97,23.31-65.67,35.18-87.71,26.89-1.98-.71-3.67-1.6-5.16-2.68h0l-19.22,18.37,3,27.14,3.31,30.09,4.1,37.33-37.72.38s-16.74-91.57,3.18-140.8c15.99-39.25,47.39-66.66,85.08-65.81,37.69.85,88.12,18.24,97.28,58.62,6.68,32.26,11.6,117.2-1.14,138.57Z"/>
  <path id="s" data-name="SVGID" class="cc" d="M279.98,416.45l-98.45-.2-98.1-101.3c-5.86-6.05-5.47-15.48.86-21.07l29.79-26.32c6.35-5.61,16.27-5.25,22.15.81l143.75,148.09Z"/>
  <path class="cb" d="M61.41,412.04h329.83s7.97-132.12-129.19-132.12l-35.95,68.43-35.26-68.43s-129.79-.81-129.42,132.12Z"/>
  <path class="cb" d="M297.01,162.82c0,39.86-32.31,84.29-72.17,84.29s-72.17-44.43-72.17-84.29,32.31-72.17,72.17-72.17,72.17,32.31,72.17,72.17Z"/>
  <polygon class="cd" points="92.41 287.03 106.01 275.01 240.82 409.83 214.39 409.83 92.41 287.03"/>
</svg>
