<?xml version='1.0' encoding='UTF-8'?>
<svg xmlns="http://www.w3.org/2000/svg" id="f" data-name="Institution" viewBox="0 0 453.54 453.54">
  <defs>
    <style>
      .k {
        fill: none;
        stroke: #008280;
        stroke-linecap: round;
        stroke-linejoin: round;
        stroke-width: 12px;
      }

      .l {
        fill: #008280;
        stroke-width: 0px;
      }
    </style>
  </defs>
  <ellipse class="l" cx="70.44" cy="285.32" rx="5.88" ry="5.96"/>
  <ellipse class="l" cx="93.88" cy="285.32" rx="5.88" ry="5.96"/>
  <ellipse class="l" cx="93.88" cy="332.97" rx="5.88" ry="5.96"/>
  <ellipse class="l" cx="93.88" cy="380.55" rx="5.88" ry="5.96"/>
  <ellipse class="l" cx="70.44" cy="380.55" rx="5.88" ry="5.96"/>
  <ellipse class="l" cx="70.44" cy="332.93" rx="5.88" ry="5.96"/>
  <ellipse class="l" cx="352.38" cy="285.32" rx="5.88" ry="5.96"/>
  <ellipse class="l" cx="375.82" cy="285.32" rx="5.88" ry="5.96"/>
  <ellipse class="l" cx="375.82" cy="332.97" rx="5.88" ry="5.96"/>
  <ellipse class="l" cx="375.82" cy="380.55" rx="5.88" ry="5.96"/>
  <ellipse class="l" cx="352.38" cy="380.55" rx="5.88" ry="5.96"/>
  <ellipse class="l" cx="352.38" cy="332.93" rx="5.88" ry="5.96"/>
  <rect class="k" x="324.71" y="246.03" width="80.04" height="163.95"/>
  <rect class="k" x="41.64" y="246.03" width="80.04" height="163.95"/>
  <polyline class="k" points="323.64 206.3 323.64 409.98 121.68 409.98 121.68 206.3"/>
  <polyline class="k" points="101.67 220.8 223.29 131.05 343.21 220.8"/>
  <ellipse class="k" cx="223.6" cy="225.26" rx="28.18" ry="28.56"/>
  <rect class="k" x="194.16" y="328.45" width="57.63" height="81.54"/>
</svg>
