<?xml version='1.0' encoding='UTF-8'?>
<svg xmlns="http://www.w3.org/2000/svg" id="w" data-name="Logement" viewBox="0 0 453.54 453.54">
  <defs>
    <style>
      .z {
        fill: #144179;
        stroke-width: 0px;
      }

      .aa, .ab {
        stroke: #144179;
      }

      .aa, .ab, .ac {
        stroke-linecap: round;
        stroke-linejoin: round;
        stroke-width: 12px;
      }

      .aa, .ac {
        fill: none;
      }

      .ab {
        fill: #fff;
      }

      .ac {
        stroke: #144179;
      }
    </style>
  </defs>
  <polygon class="ab" points="408.82 216.86 225.55 41.23 42.29 216.86 81.59 216.86 81.59 409.65 370.32 409.65 370.32 216.86 408.82 216.86"/>
  <line class="aa" x1="43.71" y1="409.65" x2="409.72" y2="409.65"/>
  <g>
    <path class="ac" d="M130.19,352.49l28.86-65.8-2.28-3.22c-3.8-5.38-5.9-11.96-5.9-18.55,0-17.7,14.4-32.1,32.1-32.1s32.1,14.4,32.1,32.1c0,15.03-10.65,28.23-25.32,31.37l-3.44.74-12.08,26.75-16.15,6.45,7.5,15-14.59,5.3,7.01,14.03-21.24,5.21-6.59-17.3Z"/>
    <circle class="z" cx="182.6" cy="263.37" r="12.36"/>
    <path class="ac" d="M256.06,223.16c-21.02,2.43-36.92,23.37-27.14,43.74l35.59,74.92,56.96-27.04-35.59-74.95c-5.35-11.31-17.34-18-29.81-16.67Z"/>
    <circle class="z" cx="257.76" cy="254.22" r="12.36"/>
    <path class="ac" d="M182.6,263.37s15.25,16.5,43.05,13.08c20.6-2.54,32.12-22.22,32.12-22.22"/>
  </g>
</svg>
