<?xml version='1.0' encoding='UTF-8'?>
<svg xmlns="http://www.w3.org/2000/svg" id="t" data-name="Infini" viewBox="0 0 453.54 453.54">
  <defs>
    <style>
      .aq {
        fill: #5F1972;
        stroke-width: 0px;
      }
    </style>
  </defs>
  <path class="aq" d="M422.15,227.67c0,54.45-42.81,98.74-95.43,98.74-37.76,0-72.01-23.04-87.25-58.69-.07-.13-.15-.32-.22-.52l-26.65-69.92c-.04-.08-.07-.17-.11-.27h-.01s-.08-.23-.08-.23c-11.91-32.78-42.72-54.82-76.66-54.82-44.9,0-81.43,38.01-81.43,84.74s36.53,84.73,81.43,84.73c15.32,0,30.14-4.4,42.96-12.73l-13.35-11.73,48.61-16.46-10.04,50.34-14.34-12.6c-15.85,11.24-34.45,17.18-53.84,17.18-52.62,0-95.43-44.29-95.43-98.73s42.81-98.74,95.43-98.74c39.74,0,75.82,25.69,89.77,63.92l.05.13,24.36,63.9c.7,2.1,1.52,4.22,2.42,6.31l.08.21c13.11,30.37,42.25,49.98,74.3,49.98,44.9,0,81.43-38.01,81.43-84.74s-36.53-84.73-81.43-84.73c-31.57,0-60.58,19.26-73.9,49.07-.76,1.7-2.14,3.01-3.88,3.68-1.75.67-3.65.62-5.36-.15-1.71-.76-3.02-2.14-3.69-3.9-.66-1.74-.61-3.64.16-5.34,15.56-34.84,49.58-57.36,86.67-57.36,52.62,0,95.43,44.29,95.43,98.73Z"/>
</svg>
