<?xml version='1.0' encoding='UTF-8'?>
<svg xmlns="http://www.w3.org/2000/svg" id="u" data-name="Calculatrice_2" viewBox="0 0 453.54 453.54">
  <defs>
    <style>
      .aq {
        fill: #5F1972;
        stroke-width: 0px;
      }
    </style>
  </defs>
  <path class="aq" d="M377.1,36.72H74.26c-3.31,0-6,2.68-6,6v378.39c0,3.31,2.69,6,6,6h302.84c3.31,0,6-2.69,6-6V42.72c0-3.32-2.69-6-6-6ZM371.1,415.11H80.26V48.72h290.84v366.39Z"/>
  <path class="aq" d="M339.31,159.24H112.66c-3.31,0-6-2.69-6-6v-72.59c0-3.31,2.69-6,6-6h226.65c3.31,0,6,2.69,6,6v72.59c0,3.31-2.69,6-6,6ZM118.66,147.24h214.65v-60.59H118.66v60.59Z"/>
  <path class="aq" d="M188.14,345.56c0,3.31-2.69,6-6,6h-25.76v25.68c0,3.32-2.68,6-6,6s-6-2.68-6-6v-25.68h-25.8c-3.31,0-6-2.69-6-6s2.69-6,6-6h25.8v-25.57c0-3.32,2.69-6,6-6s6,2.68,6,6v25.57h25.76c3.31,0,6,2.69,6,6Z"/>
  <path class="aq" d="M332.67,351.15h-63.11c-3.31,0-6-2.69-6-6s2.69-6,6-6h63.11c3.31,0,6,2.69,6,6s-2.69,6-6,6Z"/>
  <path class="aq" d="M182.1,219.28h-63.11c-3.31,0-6-2.69-6-6s2.69-6,6-6h63.11c3.31,0,6,2.69,6,6s-2.69,6-6,6Z"/>
  <path class="aq" d="M182.1,257.08h-63.11c-3.31,0-6-2.69-6-6s2.69-6,6-6h63.11c3.31,0,6,2.69,6,6s-2.69,6-6,6Z"/>
  <path class="aq" d="M332.67,238.18h-63.11c-3.31,0-6-2.69-6-6s2.69-6,6-6h63.11c3.31,0,6,2.69,6,6s-2.69,6-6,6Z"/>
  <circle class="aq" cx="301.52" cy="258.05" r="8.89"/>
  <circle class="aq" cx="301.52" cy="209.16" r="8.89"/>
</svg>
