<?xml version='1.0' encoding='UTF-8'?>
<svg xmlns="http://www.w3.org/2000/svg" id="ab" data-name="Diagramme3" viewBox="0 0 453.54 453.54">
  <defs>
    <style>
      .aq {
        fill: none;
        stroke: #5F1972;
        stroke-linecap: round;
        stroke-linejoin: round;
        stroke-width: 12px;
      }
    </style>
  </defs>
  <path class="aq" d="M264.63,105.95c34.96,10.33,64.28,35.91,78.78,70.37l63.7-11.49c-21.72-65.07-77.22-112.04-142.71-124.39l.24,65.51Z"/>
  <g>
    <path class="aq" d="M167.97,330.94l-36.41,52.44c37.87,23.39,84.17,33.44,131.42,24.91,99-17.86,165.63-110.6,152.08-209.33l-62.77,11.32c7.37,64.08-36.25,123.71-100.62,135.32-29.94,5.4-59.3-.51-83.7-14.66Z"/>
    <path class="aq" d="M140.43,309.24c-16.07-16.86-27.55-38.46-32-63.09-12.09-67.02,32.44-131.15,99.46-143.24,7.29-1.32,14.55-1.96,21.72-1.98l-.23-63.71c-10.82.04-21.78,1.01-32.8,3C94.95,58.55,27.42,155.81,45.75,257.45c7.57,41.98,28.61,78.13,57.86,104.82l36.83-53.04Z"/>
  </g>
</svg>
