<?xml version='1.0' encoding='UTF-8'?>
<svg xmlns="http://www.w3.org/2000/svg" id="ah" data-name="Courbe" viewBox="0 0 453.54 453.54">
  <defs>
    <style>
      .aq {
        fill: none;
        stroke: #5F1972;
        stroke-linecap: round;
        stroke-miterlimit: 10;
        stroke-width: 12px;
      }
    </style>
  </defs>
  <path class="aq" d="M72.47,271.79c21.38-33.86,40.05-70.39,64.91-100.82,23.44-28.68,54.31-25.65,77.71,4.37,15.53,19.92,26.54,44.19,38.9,66.95,21.74,40.02,50.27,44.52,75.52,7.33,18.03-26.56,30.04-58.05,46.72-86.17"/>
  <path class="aq" d="M77.68,370.64c21.38-17.91,40.05-37.23,64.91-53.32,23.44-15.17,54.31-13.57,77.71,2.31,15.53,10.54,26.54,23.37,38.9,35.41,21.74,21.16,50.27,23.55,75.52,3.88,18.03-14.05,30.04-30.7,46.72-45.57"/>
  <polyline class="aq" points="34.04 110.54 34.04 417.59 411.84 417.59"/>
</svg>
