<?xml version='1.0' encoding='UTF-8'?>
<svg xmlns="http://www.w3.org/2000/svg" id="a" data-name="Courbe descendante" viewBox="0 0 453.54 453.54">
  <defs>
    <style>
      .aq {
        fill: #5F1972;
        stroke-width: 0px;
      }
    </style>
  </defs>
  <path class="aq" d="M417.44,417.39H37.61c-3.31,0-6-2.69-6-6V125.29c0-3.31,2.69-6,6-6s6,2.69,6,6v280.1h373.83c3.31,0,6,2.69,6,6s-2.69,6-6,6Z"/>
  <path class="aq" d="M324.58,330.66l44.27,2.89-97.44-103.18-61.16,48.4c-1.25.99-2.84,1.44-4.42,1.26-1.58-.19-3.03-1-4.01-2.25l-100.76-127.99c-2.05-2.61-1.6-6.38,1.01-8.43,2.6-2.05,6.37-1.6,8.42,1l97.03,123.27,60.75-48.08c2.44-1.93,5.95-1.67,8.09.59l101.2,107.15-.35-44.33c-.03-3.32,2.64-6.03,5.96-6.05h0c3.32-.02,6.02,2.64,6.05,5.96l.46,58.59c.03,4.04-3.38,7.26-7.41,7l-58.46-3.8c-3.31-.22-5.81-3.07-5.6-6.37h0c.21-3.31,3.07-5.82,6.38-5.6Z"/>
</svg>
