<?xml version='1.0' encoding='UTF-8'?>
<svg xmlns="http://www.w3.org/2000/svg" id="z" data-name="Bio" viewBox="0 0 453.54 453.54">
  <defs>
    <style>
      .ab {
        fill: none;
        stroke: #144179;
        stroke-linecap: round;
        stroke-linejoin: round;
        stroke-width: 12px;
      }
    </style>
  </defs>
  <g>
    <path class="ab" d="M72.11,45.44s25.5,163.09,138.92,109.41C242.58,16.58,94.26,41.42,72.11,45.44Z"/>
    <path class="ab" d="M257.31,161.75c-9.02-97.85,112.46-91.14,126.55-81.75,12.75,8.72-36.24,130.2-126.55,81.75Z"/>
    <path class="ab" d="M224.13,227.99c-37.92-52.35-81.03-14.75-81.03-14.75,0,0,33.05,68.44,81.03,14.75Z"/>
    <path class="ab" d="M120.77,73.97c51.01,22.67,77.01,54.54,90.26,80.89,13.42,26.68,13.76,47.7,13.76,47.7v146.97"/>
    <path class="ab" d="M331.23,112.22s-93.68,49.78-106.43,90.33"/>
  </g>
  <path class="ab" d="M323.98,408.96h-190c0-32.39,42.53-58.65,95-58.65s95,26.26,95,58.65Z"/>
</svg>
