<?xml version='1.0' encoding='UTF-8'?>
<svg xmlns="http://www.w3.org/2000/svg" id="k" data-name="Production" viewBox="0 0 453.54 453.54">
  <defs>
    <style>
      .ab {
        stroke-width: 7.54px;
      }

      .ab, .ac {
        fill: none;
        stroke: #144179;
        stroke-linecap: round;
        stroke-linejoin: round;
      }

      .ac {
        stroke-width: 12px;
      }
    </style>
  </defs>
  <polygon class="ac" points="410.01 178.05 376.06 192.02 363.79 185.03 363.79 371.43 227.02 371.43 90.25 371.43 90.25 185.03 77.99 192.02 44.04 178.05 227.02 80.1 410.01 178.05"/>
  <path class="ab" d="M315.47,162.46s-25.18.81-26.48,24.04c0,0,20.14,2.76,26.48-24.04Z"/>
  <path class="ab" d="M282.41,204.12s6.34-8.85,14.54-11.61c8.2-2.68,12.18,5.93,12.18,5.93,0,0-3.49,7.23-12.99,10.15-9.42,3.01-13.73-4.47-13.73-4.47Z"/>
  <path class="ab" d="M275.18,166.76s8.37,9.34,9.83,19.82c1.38,10.48-8.77,13.56-8.77,13.56,0,0-7.15-5.6-8.53-17.62-1.38-12.02,7.47-15.76,7.47-15.76Z"/>
  <path class="ab" d="M256.75,192.75s-6.17,11.13-5.36,21.69c.81,10.48,11.37,11.13,11.37,11.13,0,0,5.77-7.15,4.63-19.17-1.14-12.02-10.64-13.64-10.64-13.64Z"/>
  <path class="ab" d="M241.8,222.96s-3.41,12.43-.08,22.42c3.25,9.99,13.64,7.8,13.64,7.8,0,0,3.9-8.45-.08-19.82-3.98-11.29-13.48-10.4-13.48-10.4Z"/>
  <path class="ab" d="M233.03,255.37s.24,12.91,6.17,21.44,15.27,3.25,15.27,3.25c0,0,1.38-9.34-5.6-18.92-6.98-9.58-15.84-5.77-15.84-5.77Z"/>
  <path class="ab" d="M236.77,303.37c.97,1.87,2.19,3.74,3.65,5.28,6.98,7.55,15.51,1.06,15.51,1.06,0,0,.24-9.42-7.88-17.95-8.12-8.61-16.41-3.49-16.41-3.49,0,0,1.06,6.98,4.3,13.64"/>
  <path class="ab" d="M268.93,226.78s5.77-9.34,13.73-12.67c8.04-3.41,12.51,4.95,12.51,4.95,0,0-3.01,7.47-12.18,11.13-9.26,3.65-14.05-3.41-14.05-3.41Z"/>
  <path class="ab" d="M261.3,252.2s4.14-10.23,11.45-15.03c7.31-4.71,13.16,2.68,13.16,2.68,0,0-1.71,7.88-10.23,13.16-8.45,5.36-14.38-.81-14.38-.81Z"/>
  <path class="ab" d="M256.26,278.76s2.6-10.8,9.18-16.73c6.58-5.85,13.4.49,13.4.49,0,0-.57,8.12-8.2,14.7-7.63,6.58-14.38,1.54-14.38,1.54Z"/>
  <path class="ab" d="M257.97,307.67s.57-11.13,5.93-18.27c5.36-7.07,13.24-2.27,13.24-2.27,0,0,.89,8.12-5.44,16.16-6.25,8.04-13.73,4.39-13.73,4.39Z"/>
  <path class="ab" d="M193.97,177.32s-20.06,16.24-8.28,35.9c0,0,17.87-10.15,8.28-35.9Z"/>
  <path class="ab" d="M184.38,233.93s3.9-24.53-19.65-27.7c0,0-.89,20.71,7.31,25.02,8.28,4.3,12.35,2.68,12.35,2.68Z"/>
  <path class="ab" d="M188.69,262.92s-.32-24.85-23.96-23.47c0,0,2.6,20.55,11.45,23.23,8.85,2.6,12.51.24,12.51.24Z"/>
  <path class="ab" d="M199.16,287.61s-6.74-23.88-29.16-15.68c0,0,7.8,19.09,17.06,19.01,9.18,0,12.1-3.33,12.1-3.33Z"/>
  <path class="ab" d="M213.78,312.71s-10.23-22.34-31.11-10.56c0,0,10.56,17.54,19.65,16,9.02-1.62,11.45-5.44,11.45-5.44Z"/>
  <path class="ab" d="M232.63,332.12s-14.62-19.49-32.57-3.17c0,0,13.89,14.62,22.42,11.05,8.53-3.57,10.15-7.88,10.15-7.88Z"/>
  <path class="ab" d="M235.47,332.2s25.58,23.8,38.58,23.23c0,0-12.26-18.92-16.08-43.13"/>
  <path class="ab" d="M188.69,233.44l11.37-3.09s9.66-12.43,8.53-20.06c0,0-11.05-3.33-18.44,9.91-4.3,7.8-1.46,13.24-1.46,13.24Z"/>
  <path class="ab" d="M193.4,259.84l10.64-5.04s7.47-13.97,5.12-21.36c0,0-11.37-1.3-16.49,13.16-3.01,8.37.73,13.24.73,13.24Z"/>
  <path class="ab" d="M204.04,285.18l9.02-7.8s3.9-15.59-.16-22.01c0,0-11.29,1.87-12.75,17.14-.89,8.93,3.9,12.67,3.9,12.67Z"/>
  <path class="ab" d="M217.68,308.49l7.63-9.42s1.14-16-3.98-21.6c0,0-10.8,3.98-9.58,19.33.65,9.02,5.93,11.7,5.93,11.7Z"/>
  <path class="ab" d="M235.96,301.91c-.81-1.3-1.79-2.52-2.84-3.25,0,0-9.1,5.93-5.12,19.82,2.36,8.04,7.72,9.42,7.72,9.42l5.2-10.23s-1.14-8.45-4.14-14.29c-.24-.49-.49-.97-.81-1.46Z"/>
</svg>
