<?xml version='1.0' encoding='UTF-8'?>
<svg xmlns="http://www.w3.org/2000/svg" id="n" data-name="Balance" viewBox="0 0 453.54 453.54">
  <defs>
    <style>
      .ab, .ac {
        stroke-miterlimit: 10;
      }

      .ab, .ac, .ad {
        fill: none;
        stroke: #144179;
      }

      .ab, .ad {
        stroke-width: 12px;
      }

      .ac {
        stroke-width: 10.5px;
      }

      .ae {
        fill: #144179;
        stroke-width: 0px;
      }

      .ad {
        stroke-linecap: round;
        stroke-linejoin: round;
      }
    </style>
  </defs>
  <g>
    <path class="ae" d="M177.17,244.88h-7.32l-7.96-11.13-2.72,1.7v9.43h-6.44v-26.41h6.44v12.09l2.54-3.11,8.23-8.98h7.15l-10.6,11.69,10.68,14.72Z"/>
    <path class="ae" d="M200.72,224.68v2.8l-3.64.81c.67.9,1,1.92,1,3.04,0,2.17-.87,3.86-2.61,5.07-1.74,1.21-4.15,1.82-7.25,1.82l-1.14-.05-.94-.09c-.65.43-.98.92-.98,1.45,0,.79,1.16,1.19,3.49,1.19h3.95c2.55,0,4.49.48,5.83,1.43,1.34.95,2.01,2.35,2.01,4.19,0,2.36-1.13,4.19-3.4,5.49-2.27,1.3-5.52,1.95-9.76,1.95-3.24,0-5.72-.49-7.43-1.47-1.71-.98-2.57-2.36-2.57-4.13,0-1.22.44-2.23,1.31-3.05.87-.82,2.15-1.4,3.85-1.75-.65-.24-1.22-.63-1.71-1.18-.49-.55-.73-1.13-.73-1.74,0-.77.26-1.41.77-1.92s1.25-1.01,2.22-1.51c-1.22-.46-2.19-1.19-2.9-2.2s-1.07-2.2-1.07-3.58c0-2.2.82-3.91,2.47-5.11,1.65-1.2,4-1.81,7.07-1.81.65,0,1.42.05,2.32.15.89.1,1.46.18,1.71.23h8.11ZM182.78,247.74c0,.76.42,1.35,1.26,1.79s2.01.65,3.52.65c2.27,0,4.05-.27,5.34-.81,1.29-.54,1.93-1.28,1.93-2.22,0-.76-.38-1.28-1.14-1.57-.76-.29-1.94-.43-3.53-.43h-3.28c-1.16,0-2.14.24-2.92.71-.78.48-1.17,1.1-1.17,1.89ZM185.09,231.3c0,1.1.29,1.96.86,2.6s1.45.96,2.63.96,2.06-.32,2.62-.96.83-1.51.83-2.6c0-2.43-1.15-3.65-3.45-3.65s-3.49,1.22-3.49,3.65Z"/>
  </g>
  <path class="ab" d="M378.8,293.91H69.54c-8.4,0-14.53-6.84-12.38-13.82l29.36-95.32c1.49-4.83,6.57-8.19,12.38-8.19h250.53c5.81,0,10.89,3.36,12.38,8.19l29.36,95.32c2.15,6.98-3.98,13.82-12.38,13.82Z"/>
  <rect class="ac" x="118.71" y="204.58" width="111.7" height="61.33" rx="8.5" ry="8.5"/>
  <line class="ad" x1="41.41" y1="176.58" x2="412.14" y2="176.58"/>
  <circle class="ae" cx="271.95" cy="235.33" r="13.56"/>
  <circle class="ae" cx="330.16" cy="235.33" r="13.56"/>
</svg>
