<?xml version='1.0' encoding='UTF-8'?>
<svg xmlns="http://www.w3.org/2000/svg" id="s" data-name="Agriculture_bio" viewBox="0 0 453.54 453.54">
  <defs>
    <style>
      .ab {
        fill: none;
        stroke-linecap: round;
        stroke-linejoin: round;
        stroke-width: 12px;
      }

      .ab, .ac {
        stroke: #144179;
      }

      .ac {
        fill: #144179;
        stroke-miterlimit: 10;
        stroke-width: 3px;
      }
    </style>
  </defs>
  <path class="ac" d="M415.45,109.06c-.73-.78-1.67-1.21-2.64-1.14l-5.26.31c-46.94,2.82-85.41,50.5-85.71,106.3v.4c-14.59,10.92-31.39,17.96-48.7,20.41-1.81.24-3.12,2.12-3.07,4.22,0,.15,0,.3-.03.45.22,2.29,1.98,3.96,3.92,3.66,17.36-2.43,34.2-9.25,49.06-19.75.71.71,1.6,1.1,2.51,1.03l5.22-.31c46.98-2.82,85.45-50.5,85.75-106.3l.03-6.2c.06-1.2-.39-2.29-1.08-3.08ZM409.45,118.24c-.27,50.38-34.32,93.6-76.41,97.82,10.87-9.4,20.39-20.84,28.3-34.18,1.14-1.87.74-4.52-.84-5.83-1.59-1.37-3.81-.92-4.91.96-7.42,12.5-16.34,23.25-26.53,32.1,2.67-49.04,37.16-90.04,78.92-92.53l1.47-.08v1.75Z"/>
  <g>
    <circle class="ab" cx="111.86" cy="318.97" r="30.97"/>
    <circle class="ab" cx="268.81" cy="345.03" r="26.16"/>
    <circle class="ab" cx="268.81" cy="345.13" r="8.89"/>
    <circle class="ab" cx="111.8" cy="318.97" r="56.95"/>
    <path class="ab" d="M37.93,318.97c0-40.8,33.07-73.87,73.87-73.87s73.87,33.07,73.87,73.87c0,9.2-1.68,18.01-4.76,26.13h45.07"/>
    <line class="ab" x1="85.7" y1="188.07" x2="59.58" y2="266.72"/>
    <path class="ab" d="M63.76,188.07h99.97l26.61,78.65h78.48s16.71,2.98,16.71,26.16c0,27.13,0,5.74,0,5.74"/>
    <line class="ab" x1="190.33" y1="266.72" x2="163.73" y2="266.72"/>
    <path class="ab" d="M261.73,214.23s-16.71,2.98-16.71,26.16c0,27.13,0,26.16,0,26.16"/>
    <polyline class="ab" points="285.53 292.88 268.81 292.88 268.81 266.72"/>
  </g>
</svg>
