<?xml version='1.0' encoding='UTF-8'?>
<svg xmlns="http://www.w3.org/2000/svg" id="ap" data-name="Perso bureau" viewBox="0 0 453.54 453.54">
  <defs>
    <style>
      .ca {
        fill: #8A5301;
        stroke-width: 0px;
      }
    </style>
  </defs>
  <path class="ca" d="M403.64,102.24l-14.95,77.1c-.53,2.75-2.94,4.74-5.74,4.74h-78.29c-3.23,0-5.85-2.62-5.85-5.85s2.62-5.85,5.85-5.85h73.47l14.02-72.36c.62-3.17,3.69-5.25,6.86-4.63,1.53.29,2.86,1.17,3.73,2.47.88,1.29,1.19,2.85.9,4.38Z"/>
  <circle class="ca" cx="125.45" cy="74.25" r="39.82"/>
  <path class="ca" d="M260.41,268.94v123.89c0,11-8.92,19.91-19.91,19.91s-19.91-8.91-19.91-19.91v-103.98h-94.08c-1.47,0-2.92-.09-4.34-.27-.01,0-.02,0-.02,0-16.85-2.15-29.88-16.54-29.88-33.97v-99.66c0-18.91,15.33-34.24,34.24-34.24h6.74c8.18,0,15.68,2.86,21.56,7.64l38.61,24.99,43.25,2.41c9,.5,15.9,8.21,15.4,17.21-.5,9.01-8.21,15.91-17.22,15.41l-50.36-2.81c-.99-.05-1.95-.19-2.87-.42-2.41-.29-4.79-1.12-6.96-2.53l-7.17-4.64v71.06h73.01l2.03.1,1.8.27c.18.03.36.07.54.12l.64.15c.31.08.61.16.91.26.62.19,1.23.41,1.83.66.29.13.59.26.88.4s.57.29.86.44c.28.16.56.32.83.48,1.37.83,2.63,1.82,3.76,2.95,1.1,1.1,2.07,2.32,2.89,3.65.02.04.04.08.07.11.16.27.32.55.47.83.15.28.3.57.44.86s.27.58.4.88c.25.59.47,1.2.66,1.83.09.27.17.54.23.81.07.23.13.46.18.7.04.19.08.39.12.58.1.52.19,1.05.24,1.59.02.17.04.34.05.51.03.23.04.47.05.71.02.33.03.68.03,1.02Z"/>
  <path class="ca" d="M122.17,288.58c1.42.18,2.87.27,4.34.27h-1.1c-1.1,0-2.19-.09-3.24-.27Z"/>
  <path class="ca" d="M246.42,249.93c.62.18,1.24.41,1.83.66-.6-.25-1.21-.47-1.83-.66Z"/>
  <path class="ca" d="M257.47,258.51c-.82-1.33-1.79-2.55-2.89-3.65-1.13-1.13-2.39-2.12-3.76-2.95,2.71,1.63,5,3.9,6.65,6.6Z"/>
  <path class="ca" d="M258.85,261.19c.25.59.48,1.21.66,1.83-.19-.63-.41-1.24-.66-1.83Z"/>
  <path class="ca" d="M240.5,249.03c.69,0,1.36.03,2.03.1l-2.03-.1Z"/>
  <path class="ca" d="M419.7,207.78h-230.09c-3.23,0-5.85,2.62-5.85,5.85s2.62,5.85,5.85,5.85h113.9v193.26c0,3.07,2.5,5.57,5.57,5.57h110.62c3.07,0,5.57-2.5,5.57-5.57v-197.27l.09-.37c.13-.49.19-.99.19-1.47,0-3.23-2.62-5.85-5.85-5.85ZM414.13,407.18h-99.48v-187.98h99.48v187.98Z"/>
  <path class="ca" d="M191.04,315.4c0,3.23-2.62,5.85-5.85,5.85h-51.67v85.64h38.39c3.23,0,5.85,2.62,5.85,5.85s-2.62,5.85-5.85,5.85h-88.49c-3.23,0-5.85-2.62-5.85-5.85s2.62-5.85,5.85-5.85h38.4v-85.64h-56.1c-2.93,0-5.43-2.2-5.8-5.11-13.82-107.84-22.11-174.29-22.17-177.73,0-3.23,2.62-5.85,5.85-5.85s5.75,2.49,5.84,5.65c0,.15.01.28.02.4.7,8.39,13.56,109.66,21.07,168.32l.34,2.62h114.32c3.23,0,5.85,2.62,5.85,5.85Z"/>
</svg>
