<?xml version='1.0' encoding='UTF-8'?>
<svg xmlns="http://www.w3.org/2000/svg" id="ak" data-name="Pétanques" viewBox="0 0 453.54 453.54">
  <defs>
    <style>
      .bu {
        fill: #8A5301;
        stroke-width: 0px;
      }

      .bv {
        fill: #8A5301;
        stroke: #8A5301;
        stroke-linecap: round;
        stroke-linejoin: round;
        stroke-width: 12px;
      }
    </style>
  </defs>
  <g>
    <g>
      <path class="bu" d="M149.46,145.68c17.96,3.57,35.41-8.11,38.98-26.07,3.57-17.96-8.1-35.41-26.07-38.98-17.96-3.57-35.41,8.1-38.98,26.07-3.57,17.96,8.1,35.42,26.07,38.98Z"/>
      <path class="bu" d="M265.68,163.22l-4.18-6c-3.62-5.19-11.32-6.14-17.13-2.09l-35.22,24.52-41.26-13.03c-1-.32-2-.51-2.99-.6-.34-.09-.68-.17-1.03-.24l-34.32-6.82c-1.28-.25-2.56-.35-3.82-.32h0s-1.36-.1-1.36-.1h0c-1.39-.2-2.85-.21-4.33.02l-50.21,8c-1.14.19-2.22.5-3.23.92-2.96,1.05-5.66,3.26-7.36,6.37l-24.31,44.65c-3.38,6.21-1.61,13.77,3.95,16.8l6.42,3.5c5.56,3.03,12.87.42,16.25-5.79l20.53-37.69,21.42-3.42-13.93,70.15s-2.46,12.3-1.93,16.31c1.55,11.89,20.4,23.17,20.4,23.17l18.63,3.7,37.63,9.93-39.2,35.37c-7.19,6.49-7.76,17.59-1.27,24.78l6.53,7.23c6.49,7.19,17.59,7.76,24.78,1.27l69.54-62.75c7.19-6.49,7.76-17.59,1.27-24.78l-6.52-7.23c-2.96-3.28-6.89-5.11-10.96-5.6-.94-.42-1.86-.89-2.89-1.16l-43.09-11.38,13.87-69.85,30.89,9.75c1.1.35,2.2.55,3.29.62,3.12.4,6.52-.37,9.44-2.41l41.72-29.05c5.8-4.04,7.59-11.6,3.98-16.79Z"/>
    </g>
    <circle class="bu" cx="311.69" cy="172.29" r="18.22"/>
  </g>
  <line class="bv" x1="85.46" y1="409.9" x2="409.91" y2="409.9"/>
</svg>
