<?xml version='1.0' encoding='UTF-8'?>
<svg xmlns="http://www.w3.org/2000/svg" id="am" data-name="Judo" viewBox="0 0 453.54 453.54">
  <defs>
    <style>
      .bu {
        fill: #8A5301;
        stroke-width: 0px;
      }
    </style>
  </defs>
  <circle class="bu" cx="227.14" cy="168.61" r="28.83"/>
  <circle class="bu" cx="229.15" cy="284.53" r="28.83"/>
  <path class="bu" d="M375.74,46.42h0c-5.71-5.71-14.85-5.52-20.32.42l-50.85,55.23c-.78.84-1.22,1.94-1.24,3.09l-.63,34.56c-.04,2.19-2.81,3.13-4.17,1.42l-31.71-39.75c-.24-.3-.41-.66-.47-1.05l-13.2-49.91c-1.44-8.06-4.64-12.32-12.83-12.32h0c-8.19,0-13.71,6.6-12.27,14.66l10.64,59.47c.21,1.16.7,2.25,1.44,3.17l40.66,50.54c1.25,1.56,1.38,3.73.32,5.43l-31.63,50.45c-.69,1.1-2.13,1.43-3.23.74l-58.34-36.57c-4.64-2.21-11.08-2.7-16.32,4.27l-47.88,72.83c-.48.74-.75,1.59-.77,2.47l-1.52,70.8c-.02,1.14-.46,2.23-1.24,3.07l-41.64,45.22c-5.24,5.69-5.05,14.81.42,20.28l.02.02c5.94,5.94,15.45,5.74,21.14-.44l50.41-54.74c.8-.87,1.25-2.02,1.24-3.2l-.23-40.15,35.39,44.38c.49.61.81,1.33.95,2.1l10.75,49.32c1.44,8.06,6.98,12.32,15.17,12.32h0c8.19,0,13.71-6.6,12.27-14.66l-10.64-59.47c-.21-1.16-.7-2.25-1.44-3.17l-41.05-51.04c-1.28-1.59-1.38-3.83-.25-5.54l33.65-50.48c.7-1.06,2.12-1.36,3.19-.69l58.97,36.97c5.48,3.44,12.71,1.78,16.15-3.7l7.26-11.58,37.24-59.91c1.1-1.77,1.71-3.8,1.76-5.88l1.77-68.85c.03-1.13.47-2.22,1.24-3.05l42.26-45.9c5.47-5.94,5.27-15.46-.44-21.17Z"/>
</svg>
