<?xml version='1.0' encoding='UTF-8'?>
<svg xmlns="http://www.w3.org/2000/svg" id="ai" data-name="Ski" viewBox="0 0 453.54 453.54">
  <defs>
    <style>
      .bu {
        fill: #8A5301;
        stroke-width: 0px;
      }
    </style>
  </defs>
  <path class="bu" d="M389.8,139.54c17.16-8.42,24.26-29.15,15.84-46.31-8.4-17.17-29.14-24.26-46.3-15.84-17.16,8.41-24.25,29.14-15.84,46.3,8.41,17.16,29.14,24.26,46.3,15.86Z"/>
  <path class="bu" d="M368.69,400.34l27.17-16.49c7.51-4.56.92-16.16-6.7-11.79-.07.04-.13.08-.2.12l-19.82,11.86c-.1.06-.23.07-.34.04l-131.34-45.2c-.3-.1-.37-.49-.13-.69l61.79-52.05c11.85-9.97,11.24-28.5-1.32-37.66l-34.34-25.03c-.24-.18-.21-.55.06-.69l11.9-5.83.04-.02,12.84-8.35c.29-.19.67.06.61.41-2.37,13.29-.61,24.94,12.77,28.63,0,0,64.57,17.74,64.6,17.74h.04c10.49,2.88,21.22-3.29,24.08-13.7,2.86-10.42-3.25-21.19-13.67-24.06-.01,0-.02,0-.03-.02l-32.87-9.03s-.08-.03-.12-.05l-12.73-8.5c-.14-.09-.21-.27-.17-.44,3.87-18.82,2.5-12.17,5.99-29.13,1.85-8.98-5.03-20.46-9.06-28.69-7.59-15.47-26.27-21.86-41.73-14.28l-21.63,10.6.15.1-60.44,29.45h-.01c-12.15,5.97-19.88,17.26-21.91,29.68-2.51,15.32,3.89,28.65,18.37,39.57l43.96,32.03c.21.15.22.46.02.63l-59.85,50.98c-.11.09-.26.12-.39.07l-130.25-44.83c-3.76-1.3-9.26-2.29-10.99.63-2.53,4.28-3.99,8.73.7,10.37l324.6,113.65c.11.04.24.03.34-.04Z"/>
  <polygon class="bu" points="311.03 187.05 122.76 64.31 129.11 54.56 124.05 51.26 117.7 61.01 107.28 54.22 101.09 63.7 111.52 70.5 104.26 81.63 109.32 84.93 116.58 73.79 304.85 196.53 311.03 187.05"/>
</svg>
