<?xml version='1.0' encoding='UTF-8'?>
<svg xmlns="http://www.w3.org/2000/svg" id="at" data-name="Bombe cheval" viewBox="0 0 453.54 453.54">
  <defs>
    <style>
      .bu {
        fill: none;
        stroke-linecap: round;
        stroke-linejoin: round;
        stroke-width: 12px;
      }

      .bu, .bv {
        stroke: #8A5301;
      }

      .bv {
        fill: #8A5301;
        stroke-miterlimit: 10;
        stroke-width: 2px;
      }
    </style>
  </defs>
  <path class="bv" d="M423.96,233.65c-18.51-19.43-49.94-28.86-60.72-31.62-1.89-33.62-15.67-65.47-38.86-89.87-25.16-25.36-60.53-39.4-105.22-41.92-2.57-13.37-13.89-23.29-27.48-24.07-16.39-.95-30.45,11.57-31.4,27.96-41.73,8.55-72.28,30.31-91.67,65.29-36.29,65.73-17.49,154.19-8.6,168.28,3.16,5.41,8.69,9.02,14.91,9.72h2.33c13.31,0,29.63-11.85,50.33-31.62l13.97-13.94,7.65-5.88c19.92-12.29,59.17-18.56,111.73-17.78,0,0,26.25,1.47,34.93,2.67,27,3.76,106.87,21.67,106.87,21.67,9.89,1.92,19.88-2.8,24.68-11.66,5.03-8.83,3.62-19.91-3.45-27.2ZM190.01,54.69c9.17-.01,17.18,6.21,19.43,15.11h-4.86c-11.5-.03-22.98.82-34.34,2.53,1.2-10.02,9.68-17.58,19.77-17.63ZM283.82,238.36h-30.65c-43.33,0-96.87,4.86-118.34,26.67-14.14,14.38-43.77,44.35-58.83,42.7-3.31-.44-6.19-2.47-7.72-5.44-8.02-12.73-25.12-97.16,8.89-158.46,23.56-42.65,66.45-64.32,127.52-64.32,49.02,0,87.05,13.31,113.04,39.49,30.07,30.31,35.27,69.52,36.19,82.24-14.82,1.65-59.65,8.94-70.1,37.11ZM419.25,256.14c-2.79,5.27-8.73,8.06-14.57,6.85l-106-21.33c-3.61-.91-4.42-.98-4.23-3.01,12.39-22.93,58.1-27.3,64.12-27.79,5.1,1.17,40.13,10.15,58.78,29.58v-.1c4.1,4.24,4.87,10.7,1.89,15.79Z"/>
  <path class="bu" d="M157.18,262.08c.62,10.08,6.73,40.35,8.26,53.3-3.91-.69-8.07-1.86-12.35-3.37-1.29,7.11-2.8,14.24-4.08,21.44,6.56,2.04,13.17,3.47,19.58,3.93,4.34,25.63,11.18,50.22,22.12,61.77,13.3,14.05,26.22,21.17,38.43,21.17s28.88-7.17,35.21-41.33c6.11-32.85,8.75-108.04,9.28-134.21M249.62,244.77c-.49,24.85-1.82,99.01-7.66,130.46-2.68,14.51-7.62,23.51-12.83,23.51-1.93,0-9.21-1.01-21.51-14.01-14.25-15.05-26.97-86.64-28.83-130.74"/>
</svg>
