<?xml version='1.0' encoding='UTF-8'?>
<svg xmlns="http://www.w3.org/2000/svg" id="q" data-name="Maillot" viewBox="0 0 453.54 453.54">
  <defs>
    <style>
      .bu {
        fill: #8A5301;
        stroke-width: 0px;
      }
    </style>
  </defs>
  <path class="bu" d="M418.45,160.96l-73.75-91.59c-1.13-1.41-2.85-2.23-4.67-2.23h-60.98c-3.31,0-6,2.72-6,6.03,0,24.93-20.28,45.21-45.21,45.21s-45.21-20.28-45.21-45.24c0-3.32-2.68-6-6-6h-63.39c-1.82,0-3.54.82-4.68,2.24l-73.47,91.59c-2.07,2.58-1.67,6.35.91,8.42l51.23,41.36c2.58,2.08,6.36,1.68,8.44-.9l11.57-14.34v184.89c0,3.31,2.69,6,6,6h226.79c3.32,0,6-2.69,6-6v-185.23l11.85,14.68c2.08,2.58,5.86,2.98,8.44.9l51.23-41.36c2.57-2.08,2.98-5.85.9-8.43ZM90.1,197.64l-41.91-33.83,12.33-15.36,41.95,33.86-12.37,15.33ZM334.03,374.4H119.24v-20.92h214.79v20.92ZM344.08,173.77c-1.61-1.49-3.94-1.99-6.05-1.24-2.39.85-4,3.11-4,5.66v163.29H119.24v-162.96c0-2.54-1.6-4.81-4-5.65-1.64-.58-3.41-.41-4.87.39l-42.34-34.18,48.09-59.94h54.82c2.99,28.75,27.37,51.24,56.9,51.24s53.9-22.47,56.9-51.24h52.42l48.9,60.73-41.98,33.9ZM363.45,197.64l-11.78-14.59,41.92-33.83,11.76,14.6-41.9,33.82Z"/>
  <path class="bu" d="M332.71,106.41h-35.46c-3.31,0-6-2.69-6-6s2.69-6,6-6h35.46c3.31,0,6,2.69,6,6s-2.69,6-6,6Z"/>
  <path class="bu" d="M155.51,106.41h-35.46c-3.31,0-6-2.69-6-6s2.69-6,6-6h35.46c3.31,0,6,2.69,6,6s-2.69,6-6,6Z"/>
  <path class="bu" d="M226.64,316.9c-39.61,0-71.84-32.23-71.84-71.84s32.23-71.84,71.84-71.84,71.84,32.23,71.84,71.84-32.23,71.84-71.84,71.84ZM226.64,185.22c-33,0-59.84,26.84-59.84,59.84s26.84,59.84,59.84,59.84,59.84-26.84,59.84-59.84-26.84-59.84-59.84-59.84Z"/>
  <path class="bu" d="M228.57,237.13c6.68,0,12,1.88,15.95,5.62,3.95,3.75,5.93,8.88,5.93,15.41,0,7.72-2.38,13.66-7.14,17.82-4.76,4.16-11.56,6.24-20.42,6.24-7.69,0-13.9-1.24-18.62-3.73v-12.62c2.49,1.32,5.39,2.4,8.7,3.24,3.31.83,6.44,1.25,9.41,1.25,8.92,0,13.38-3.65,13.38-10.96s-4.62-10.44-13.85-10.44c-1.67,0-3.51.17-5.53.5-2.02.33-3.66.69-4.92,1.06l-5.81-3.12,2.6-35.21h37.48v12.38h-24.67l-1.28,13.56,1.65-.33c1.92-.44,4.3-.66,7.14-.66Z"/>
</svg>
