<?xml version='1.0' encoding='UTF-8'?>
<svg xmlns="http://www.w3.org/2000/svg" id="ae" data-name="Footballer" viewBox="0 0 453.54 453.54">
  <defs>
    <style>
      .bu {
        fill: #8A5301;
        stroke-width: 0px;
      }
    </style>
  </defs>
  <path class="bu" d="M379.84,199.79l-.1,1.17c-.55,6.75-6.48,11.79-13.23,11.25l-46.97-3.81-.4.02c-4.59.24-8.99-2-11.46-5.83l-16.33-25.37-24.75,76.01,26.71,33.25c3.17,3.94,4.58,8.9,3.96,13.96l-.05.36v70.32c0,5.14-2.03,9.93-5.72,13.49-3.52,3.39-8.14,5.25-13.01,5.25-.23,0-.47,0-.7-.01-9.95-.35-18.05-8.96-18.05-19.18v-66.14l-30.32-37.74-13.62-4.43-33.97,41.75-.26.48c-1.84,3.35-4.68,6.04-8.23,7.78l-.16.09c-.26.13-.5.22-.69.3l-.72.3c-.06.03-.14.07-.23.11l-.13.06c-.12.05-.3.12-.51.2l-.11.03c-4.96,1.85-10.47,1.52-15.11-.89l-.55-.29-64.99-18.19c-4.81-1.34-8.81-4.49-11.27-8.86-2.46-4.37-3.07-9.42-1.72-14.23,1.35-4.82,4.49-8.83,8.85-11.29,4.36-2.45,9.42-3.06,14.24-1.71l57.66,16.13,22.55-27.71,33.54-103.04-34.21,1.65-23.53,34.06c-1.95,2.82-4.88,4.72-8.27,5.34-2.99.54-5.96.05-8.6-1.43l-1-.56-1.14-.16c-2.61-.35-4.91-1.96-6.15-4.33-1.42-2.7-1.23-5.94.52-8.46l28.59-41.39.24-.57c1.71-4.04,5.49-6.98,9.87-7.66l.27-.05c.13-.02.25-.04.37-.07.28-.06.52-.08.73-.09l54.97-2.67c.43-.02.9-.02,1.38.02l2.58.2c.8.06,1.55.2,2.23.43l60.96,19.84c2.53.82,4.52,2.52,5.75,4.91l26.17,40.69,42.87,3.47c1.62.13,3.18.57,4.62,1.31,1.42.73,2.69,1.74,3.75,2.98,2.12,2.5,3.14,5.68,2.88,8.95Z"/>
  <path class="bu" d="M316.75,75.64c0,19.17-15.6,34.77-34.77,34.77s-34.77-15.6-34.77-34.77,15.6-34.78,34.77-34.78,34.77,15.6,34.77,34.78Z"/>
  <g>
    <path class="bu" d="M198.18,381.92c0,17.51-14.25,31.76-31.76,31.76s-31.76-14.25-31.76-31.76,14.25-31.76,31.76-31.76,31.76,14.25,31.76,31.76Z"/>
    <path class="bu" d="M166.42,413.68c-17.51,0-31.76-14.25-31.76-31.76s14.25-31.76,31.76-31.76,31.76,14.25,31.76,31.76-14.25,31.76-31.76,31.76Z"/>
  </g>
</svg>
