<?xml version='1.0' encoding='UTF-8'?>
<svg xmlns="http://www.w3.org/2000/svg" id="an" data-name="Gymnastique" viewBox="0 0 453.54 453.54">
  <defs>
    <style>
      .bu {
        fill: #8A5301;
        stroke-width: 0px;
      }
    </style>
  </defs>
  <path class="bu" d="M380.89,280.93H74.62c-4.69,0-8.48,3.8-8.48,8.48v23.66c0,4.69,3.8,8.48,8.48,8.48h12.43l-25.96,92.39c-.3,1.08.51,2.16,1.63,2.16h23.33c.76,0,1.43-.51,1.64-1.25l25.6-93.3h216.41l27.64,93.33c.21.72.88,1.21,1.63,1.21h23.06c1.13,0,1.94-1.08,1.63-2.17l-26.61-92.38h23.84c4.69,0,8.48-3.8,8.48-8.48v-23.66c0-4.69-3.8-8.48-8.48-8.48Z"/>
  <path class="bu" d="M322.72,61.91h0c-5.16-4.25-12.62-4.19-17.69.17-31.1,26.7-78.88,37.87-78.88,37.87-48.05-20.34-76.85-43.56-90.73-56.81-5.9-5.63-15.28-5.32-20.86.64h0c-5.65,6.05-5.25,15.6.97,21.06,29.58,25.95,82.1,49.81,82.1,49.81,6.22,39.59,0,52.88,0,64.76,0,10.8,8.93,16.21,10.55,17.1,1.39,26.37-.8,56.94-2.19,72.49-.5,5.64,3.68,10.61,9.33,11.06l1.23.1c5.49.44,10.33-3.56,10.94-9.03,3.25-29.33,1.82-63.05.37-83.63,10.15-19.79,8.8-60.97,8.8-60.97,35.68-9.25,67.95-30.09,85.47-42.93,7.22-5.29,7.5-15.99.59-21.69Z"/>
  <circle class="bu" cx="185.52" cy="213.1" r="25.21"/>
</svg>
