<?xml version='1.0' encoding='UTF-8'?>
<svg xmlns="http://www.w3.org/2000/svg" id="ac" data-name="Winner" viewBox="0 0 453.54 453.54">
  <defs>
    <style>
      .bu {
        fill: #8A5301;
        stroke-width: 0px;
      }
    </style>
  </defs>
  <circle class="bu" cx="234.14" cy="131.69" r="28.93"/>
  <path class="bu" d="M313.8,106.71l-.38-.04c-5.76-.69-11,3.42-11.69,9.19l-4.15,34.7-36.74,21.74c-.2.12-.4.24-.59.37h-49.72c-.19-.13-.39-.25-.59-.37l-36.74-21.74-4.15-34.7c-.35-2.91-1.85-5.4-4-7.07l18.45-1.61c.1.09.21.16.33.22l6.65,3.36c2.11,1.07,4.35,1.57,6.57,1.57,5.29,0,10.41-2.88,12.98-7.87l11.54-22.47c.24-.48.29-1.03.12-1.54-.16-.5-.52-.92-1-1.16l-13.47-6.82,2.74-5.38c1.11-2.18.25-4.85-1.93-5.96l-41.81-21.31c-2.18-1.11-4.84-.25-5.96,1.93l-2.83,5.54-13.05-6.6c-.98-.5-2.18-.11-2.68.87l-11.54,22.46c-1.76,3.43-2.08,7.34-.89,11,1.2,3.69,3.77,6.68,7.25,8.44l6.4,3.24c.18.09.36.14.55.18l12.07,20.11c-3.41.89-6.07,3.43-7.21,6.63l-7.69-3.92c-1.39-.71-3.09-.16-3.8,1.23-.21.41-.31.85-.31,1.28,0,1.03.56,2.02,1.54,2.52l9.88,5.03,4.6,38.46c.42,3.53,2.55,6.44,5.46,8.01,0,0,0,.01.01.01.5.44,1.05.85,1.65,1.2l38.54,22.8v209.99c0,8.61,6.98,15.59,15.59,15.59s15.59-6.98,15.59-15.59v-108.7h7.54v108.7c0,8.61,6.98,15.59,15.59,15.59s15.59-6.98,15.59-15.59v-208.17c1.25-.21,2.47-.65,3.63-1.33l39.37-23.29c.6-.35,1.15-.76,1.65-1.2.01,0,.01-.01.01-.01,2.91-1.57,5.04-4.48,5.46-8.01l4.76-39.82c.69-5.77-3.42-11-9.19-11.69ZM217.09,81.95l-10.61,20.68c-2.65,5.13-9.01,7.18-14.19,4.56l-2.25-1.13c1.03-.73,1.88-1.7,2.48-2.86l13.73-26.74,10.84,5.49ZM138.32,79.89c-2.51-1.27-4.38-3.44-5.24-6.1-.86-2.65-.63-5.47.64-7.95l10.63-20.69,10.58,5.36-13.71,26.71c-.6,1.16-.9,2.43-.88,3.69l-2.02-1.02Z"/>
</svg>
