<?xml version='1.0' encoding='UTF-8'?>
<svg xmlns="http://www.w3.org/2000/svg" id="r" data-name="Ballon foot_2" viewBox="0 0 453.54 453.54">
  <defs>
    <style>
      .bu {
        fill: #8A5301;
        stroke-width: 0px;
      }
    </style>
  </defs>
  <path class="bu" d="M422.25,220.5c-.08-2.42-.2-4.83-.37-7.23-2.37-34.47-13.78-66.51-31.86-93.78-.05-.07-.09-.14-.14-.21-2.69-4.04-5.52-7.97-8.49-11.79-.06-.07-.11-.14-.17-.21-13.31-17.08-29.41-31.89-47.6-43.77-.72-.47-1.44-.93-2.16-1.39-4.59-2.91-9.32-5.64-14.17-8.17-2.57-1.35-5.18-2.64-7.82-3.88-19.14-8.94-39.96-14.88-61.85-17.2-4.77-.51-9.58-.84-14.44-1-2.13-.07-4.27-.1-6.41-.1-34.55,0-67.03,8.98-95.23,24.71l-.96.54c-3.17,1.8-6.28,3.67-9.33,5.63-.31.2-.62.4-.93.6-30.03,19.5-54.38,46.99-70,79.43-2.15,4.47-4.14,9.03-5.95,13.69h0c-5.78,14.83-9.78,30.53-11.76,46.84-.94,7.72-1.42,15.59-1.42,23.56s.45,15.25,1.32,22.7c1.9,16.3,5.83,31.99,11.52,46.82,1.8,4.68,3.77,9.27,5.91,13.76,15.51,32.63,39.85,60.31,69.92,79.95h.72l-.2.34c.15.1.3.19.45.29,3.21,2.07,6.48,4.05,9.82,5.93l.31-.53.16.29.43.75h.01c28.19,15.74,60.67,24.71,95.21,24.71,2.18,0,4.34-.04,6.5-.11l.9-.03h.01c4.55-.17,9.06-.49,13.53-.97.31-.03.62-.07.94-.1,22.19-2.48,43.28-8.67,62.61-17.94.43-.21.87-.42,1.3-.63,1.57-.77,3.13-1.55,4.67-2.37,3.2-1.66,6.34-3.41,9.43-5.25,1.16-.69,2.31-1.39,3.45-2.11h.01c1.22-.76,2.42-1.53,3.63-2.32h.01c18.08-11.83,34.09-26.56,47.35-43.53.16-.21.33-.42.49-.64,2.86-3.68,5.59-7.47,8.18-11.36.14-.21.28-.42.42-.64,18.02-27.27,29.37-59.29,31.7-93.74.17-2.41.28-4.84.36-7.27.06-2,.09-3.99.09-6s-.03-4.19-.1-6.27ZM365.7,107.28h-6.81l-9.65-16.72c5.84,5.22,11.34,10.8,16.46,16.72ZM274.6,50.07h-17.05l-2.37-4.11c6.6,1.02,13.07,2.4,19.42,4.11ZM259.01,62.07h47.75c5.42,2.63,10.7,5.51,15.8,8.64l24.29,42.07-29.28,50.72h-58.56l-29.28-50.72,29.28-50.71ZM226.77,43.77c4.56,0,9.08.17,13.56.49h.01l7.1,12.31-29.28,50.71h-57.29l-23.33-40.4c26.43-14.72,56.86-23.11,89.23-23.11ZM126.32,73.66h.01l22.94,39.73-28.94,50.11h-57.99l-4.64-8.03c14.29-33.56,38.36-62.02,68.62-81.81ZM51.78,282.86l.15-.25c.12.38.24.75.36,1.13l-.51-.88ZM120.21,276.57h-58.2l-17.85-30.91c-.64-6.21-.97-12.51-.97-18.89s.36-13.25,1.06-19.73l18.09-31.33h57.29l29.41,50.93-28.83,49.93ZM240.43,409.28c-4.51.33-9.07.5-13.66.5-32.63,0-63.3-8.53-89.88-23.47l23.03-39.89h58.24l29.28,50.71-7.01,12.15ZM218.16,333.78h-57.29l-29.4-50.92,28.82-49.93h58.2l28.95,50.14-29.28,50.71ZM256.25,407.42l2.76-4.79h18.61c-6.96,2.01-14.09,3.62-21.37,4.79ZM317.9,276.57h-59.22l-28.95-50.14,29.28-50.72h58.56l29.28,50.72-28.95,50.14ZM349.42,362.82l9.47-16.4h6.68c-5.04,5.8-10.42,11.28-16.15,16.4ZM375.61,333.78h-16.72l-29.28-50.71,28.95-50.14h51.69c-1.26,37.57-13.92,72.29-34.64,100.85Z"/>
</svg>
