<?xml version='1.0' encoding='UTF-8'?>
<svg xmlns="http://www.w3.org/2000/svg" id="d" data-name="Immeuble_2" viewBox="0 0 453.54 453.54">
  <defs>
    <style>
      .z {
        stroke-width: 12px;
      }

      .z, .aa {
        fill: none;
        stroke: #008280;
        stroke-linecap: round;
        stroke-linejoin: round;
      }

      .ab {
        fill: #008280;
      }

      .ab, .ac {
        stroke-width: 0px;
      }

      .aa {
        stroke-width: 11.95px;
      }

      .ac {
        fill: #fff;
      }
    </style>
  </defs>
  <rect class="z" x="159.96" y="76.45" width="137.57" height="334.82"/>
  <rect class="z" x="40.2" y="221.47" width="119.77" height="189.8"/>
  <rect class="z" x="297.51" y="148.45" width="119.77" height="262.82"/>
  <line class="z" x1="74.84" y1="249.49" x2="74.84" y2="277.67"/>
  <line class="z" x1="100.09" y1="249.49" x2="100.09" y2="277.67"/>
  <line class="z" x1="125.33" y1="249.49" x2="125.33" y2="277.67"/>
  <line class="aa" x1="74.84" y1="309.4" x2="74.84" y2="337.58"/>
  <line class="aa" x1="100.09" y1="309.4" x2="100.09" y2="337.58"/>
  <line class="aa" x1="125.33" y1="309.4" x2="125.33" y2="337.58"/>
  <line class="z" x1="332.15" y1="232.26" x2="332.15" y2="260.43"/>
  <line class="z" x1="357.39" y1="232.26" x2="357.39" y2="260.43"/>
  <line class="z" x1="382.64" y1="232.26" x2="382.64" y2="260.43"/>
  <line class="z" x1="332.15" y1="175.71" x2="332.15" y2="203.88"/>
  <line class="z" x1="357.39" y1="175.71" x2="357.39" y2="203.88"/>
  <line class="z" x1="382.64" y1="175.71" x2="382.64" y2="203.88"/>
  <line class="z" x1="332.15" y1="292.17" x2="332.15" y2="320.34"/>
  <line class="z" x1="357.39" y1="292.17" x2="357.39" y2="320.34"/>
  <line class="z" x1="382.64" y1="292.17" x2="382.64" y2="320.34"/>
  <line class="z" x1="203.49" y1="112.65" x2="203.49" y2="140.83"/>
  <line class="z" x1="228.74" y1="112.65" x2="228.74" y2="140.83"/>
  <line class="z" x1="253.98" y1="112.65" x2="253.98" y2="140.83"/>
  <line class="z" x1="203.49" y1="172.56" x2="203.49" y2="200.74"/>
  <line class="z" x1="228.74" y1="172.56" x2="228.74" y2="200.74"/>
  <line class="z" x1="253.98" y1="172.56" x2="253.98" y2="200.74"/>
  <line class="z" x1="203.49" y1="231.03" x2="203.49" y2="259.21"/>
  <line class="z" x1="228.74" y1="231.03" x2="228.74" y2="259.21"/>
  <line class="z" x1="253.98" y1="231.03" x2="253.98" y2="259.21"/>
  <line class="z" x1="203.49" y1="290.94" x2="203.49" y2="319.12"/>
  <line class="z" x1="228.74" y1="290.94" x2="228.74" y2="319.12"/>
  <line class="z" x1="253.98" y1="290.94" x2="253.98" y2="319.12"/>
  <g>
    <circle class="ab" cx="297.52" cy="386.97" r="62.44"/>
    <path class="ac" d="M317.51,410.72c-5.1,4.05-11.25,6.19-17.76,6.19-10.78,0-20.19-6-25.07-14.83h44.77v-10.84h-48.17c-.1-.97-.15-1.96-.15-2.96,0-1.13.08-2.23.21-3.33h48.12v-10.84h-44.55c4.94-8.63,14.21-14.46,24.84-14.46,6.52,0,12.66,2.14,17.76,6.19l2.79,2.21,6.74-8.49-2.79-2.21c-7.04-5.58-15.51-8.53-24.5-8.53-16.77,0-31.09,10.53-36.8,25.3h-10.47v10.84h7.97c-.09,1.1-.17,2.2-.17,3.33,0,1,.08,1.98.15,2.96h-7.95v10.84h10.34c5.61,14.97,20.03,25.67,36.93,25.67,8.99,0,17.46-2.95,24.5-8.53l2.79-2.21-6.74-8.49-2.79,2.21Z"/>
  </g>
</svg>
