<?xml version='1.0' encoding='UTF-8'?>
<svg xmlns="http://www.w3.org/2000/svg" id="c" data-name="Résidence" viewBox="0 0 453.54 453.54">
  <defs>
    <style>
      .z {
        fill: #008280;
        opacity: .5;
        stroke-width: 0px;
      }

      .aa {
        fill: none;
        stroke: #008280;
        stroke-linecap: round;
        stroke-linejoin: round;
        stroke-width: 12px;
      }
    </style>
  </defs>
  <path class="z" d="M113.41,258.12c-3.31,0-6-2.69-6-6v-26.35c0-3.31,2.69-6,6-6s6,2.69,6,6v26.35c0,3.31-2.69,6-6,6Z"/>
  <path class="z" d="M113.41,333.46c-3.31,0-6-2.69-6-6v-26.35c0-3.31,2.69-6,6-6s6,2.69,6,6v26.35c0,3.31-2.69,6-6,6Z"/>
  <path class="z" d="M340.13,295.42c-3.31,0-6-2.69-6-6v-26.35c0-3.31,2.69-6,6-6s6,2.69,6,6v26.35c0,3.31-2.69,6-6,6Z"/>
  <path class="z" d="M340.13,370.53c-3.31,0-6-2.69-6-6v-26.35c0-3.31,2.69-6,6-6s6,2.69,6,6v26.35c0,3.31-2.69,6-6,6Z"/>
  <path class="z" d="M264.56,295.42c-3.31,0-6-2.69-6-6v-26.35c0-3.31,2.69-6,6-6s6,2.69,6,6v26.35c0,3.31-2.69,6-6,6Z"/>
  <path class="z" d="M264.56,370.53c-3.31,0-6-2.69-6-6v-26.35c0-3.31,2.69-6,6-6s6,2.69,6,6v26.35c0,3.31-2.69,6-6,6Z"/>
  <path class="z" d="M188.99,295.42c-3.31,0-6-2.69-6-6v-26.35c0-3.31,2.69-6,6-6s6,2.69,6,6v26.35c0,3.31-2.69,6-6,6Z"/>
  <path class="z" d="M188.99,370.53c-3.31,0-6-2.69-6-6v-26.35c0-3.31,2.69-6,6-6s6,2.69,6,6v26.35c0,3.31-2.69,6-6,6Z"/>
  <path class="z" d="M227.19,295.42c-3.31,0-6-2.69-6-6v-26.35c0-3.31,2.69-6,6-6s6,2.69,6,6v26.35c0,3.31-2.69,6-6,6Z"/>
  <path class="z" d="M227.19,370.53c-3.31,0-6-2.69-6-6v-26.35c0-3.31,2.69-6,6-6s6,2.69,6,6v26.35c0,3.31-2.69,6-6,6Z"/>
  <path class="z" d="M264.56,220.31c-3.31,0-6-2.69-6-6v-26.35c0-3.31,2.69-6,6-6s6,2.69,6,6v26.35c0,3.31-2.69,6-6,6Z"/>
  <path class="z" d="M188.99,220.31c-3.31,0-6-2.69-6-6v-26.35c0-3.31,2.69-6,6-6s6,2.69,6,6v26.35c0,3.31-2.69,6-6,6Z"/>
  <path class="z" d="M227.19,220.31c-3.31,0-6-2.69-6-6v-26.35c0-3.31,2.69-6,6-6s6,2.69,6,6v26.35c0,3.31-2.69,6-6,6Z"/>
  <rect class="aa" x="152.06" y="140.83" width="150.22" height="268.61"/>
  <rect class="aa" x="302.28" y="217.44" width="73.33" height="192"/>
  <rect class="aa" x="74.73" y="182.85" width="77.33" height="226.59"/>
  <line class="aa" x1="38.28" y1="409.44" x2="416.06" y2="409.44"/>
  <path class="aa" d="M190.23,140.83c0-20.18,16.36-36.54,36.54-36.54s36.54,16.36,36.54,36.54"/>
  <line class="aa" x1="188.99" y1="188" x2="188.99" y2="213.99"/>
  <line class="aa" x1="226.77" y1="188" x2="226.77" y2="213.99"/>
  <line class="aa" x1="264.56" y1="187.74" x2="264.56" y2="213.73"/>
  <line class="aa" x1="188.99" y1="263.8" x2="188.99" y2="289.8"/>
  <line class="aa" x1="226.77" y1="263.8" x2="226.77" y2="289.8"/>
  <line class="aa" x1="264.56" y1="263.54" x2="264.56" y2="289.54"/>
  <line class="aa" x1="188.99" y1="338.49" x2="188.99" y2="364.49"/>
  <line class="aa" x1="226.77" y1="338.49" x2="226.77" y2="364.49"/>
  <line class="aa" x1="264.56" y1="338.23" x2="264.56" y2="364.23"/>
  <line class="aa" x1="340.13" y1="263.66" x2="340.13" y2="289.66"/>
  <line class="aa" x1="340.13" y1="338.35" x2="340.13" y2="364.35"/>
  <line class="aa" x1="113.41" y1="226.2" x2="113.41" y2="252.19"/>
  <line class="aa" x1="113.41" y1="300.89" x2="113.41" y2="326.88"/>
</svg>
