<?xml version='1.0' encoding='UTF-8'?>
<svg xmlns="http://www.w3.org/2000/svg" id="ak" data-name="Idf_petite couronne" viewBox="0 0 453.54 453.54">
  <defs>
    <style>
      .am {
        stroke-linecap: round;
        stroke-linejoin: round;
      }

      .am, .an {
        fill: none;
        stroke: #8A5301;
        stroke-width: 12px;
      }

      .an {
        stroke-miterlimit: 10;
      }
    </style>
  </defs>
  <path class="an" d="M246.9,216.18c2.19-6.35,3.98-15.03,3.98-19.3v-8.36c0-.33-5.37-5.7-11.94-11.94-6.56-6.24-17.49-14.02-24.27-17.31-6.78-3.28-18.42-5.97-25.86-5.97s-13.53,2.33-13.53,5.17-7.52,10.45-16.71,16.91c-9.19,6.46-21.36,11.74-27.05,11.74s-13.39,3.94-17.11,8.75c-3.72,4.81-6.67,10.99-6.56,13.73s2.44,6.76,5.17,8.95,9.72,3.98,15.52,3.98,10.54,1.7,10.54,3.78,5.37,5.93,11.94,8.55,16.41,9.25,21.88,14.72c5.47,5.47,14.6,9.95,20.29,9.95h18.9c4.7,0,8.55-.81,8.55-1.79s5.46-1.79,12.13-1.79,12.67-1.61,13.33-3.58,6.21-3.58,12.33-3.58,13.65,3.58,16.71,7.96c3.06,4.38,6.82,7.24,8.35,6.37s2.78-6.51,2.78-12.53-4.03-11.21-8.95-11.54c-4.92-.33-14.68-3.01-21.68-5.97-7-2.95-10.94-10.56-8.75-16.91Z"/>
  <path class="an" d="M179.06,104.19c-4.49.33-9.77,2.57-11.74,4.97-1.97,2.41-12.44,9.24-23.26,15.18l-33.85,18.58c-10.82,5.94-22.1,13.4-25.05,16.57-2.95,3.17-5.37,10.6-5.37,16.51s-9.94,12.52-22.1,14.69l-.36.06c-12.15,2.17-22.1,7.44-22.1,11.7s2.24,9.73,4.97,12.13,4.26,9.12,3.38,14.92.29,14.66,2.59,19.69,12.61,14.72,22.91,21.53l7.1,4.69c10.3,6.81,18.73,13.72,18.73,15.36s8.52,8.41,18.94,15.04l19.02,12.1c10.42,6.63,16.52,15.01,13.57,18.62-2.95,3.61-5.37,8.71-5.37,11.34s5.01,4.77,11.14,4.77,13.29,3.49,15.91,7.76,6.3,7.58,8.16,7.36c1.86-.22,3.38-3.98,3.38-8.36s2.42-10.46,5.37-13.53c2.95-3.06,5.37-15.67,5.37-28.02v-23.54c0-12.35,2.95-25.22,6.57-28.61,3.61-3.39,1.91-6.17-3.78-6.17s-14.82-4.48-20.29-9.95c-5.47-5.47-15.32-12.09-21.88-14.72s-11.94-6.47-11.94-8.55-4.74-3.78-10.54-3.78-12.78-1.79-15.52-3.98-5.06-6.22-5.17-8.95,2.84-8.91,6.56-13.73c3.72-4.81,11.42-8.75,17.11-8.75s17.86-5.28,27.05-11.74c9.19-6.46,16.71-14.06,16.71-16.91v-11.34c0-3.39,5.01-11,11.14-16.91,6.13-5.91,11.14-11.73,11.14-12.93s-2.33-4.78-5.17-7.96c-2.84-3.17-8.84-5.5-13.33-5.17s4.49-.33,0,0Z"/>
  <path class="an" d="M381.37,69.97c1.75-1.64,3.09-6.12,2.98-9.95s-2.88-6.96-6.17-6.96-9.37-1.61-13.53-3.58c-4.16-1.97-10.42.27-13.92,4.97-3.5,4.7-8.69,9-11.54,9.55s-7.95,3.23-11.34,5.97c-3.39,2.74-10.37,10.88-15.52,18.1s-14.72,13.13-21.28,13.13-14.62,1.25-17.9,2.78-9.1,2.25-12.93,1.59c-3.83-.66-10.99-6.48-15.91-12.93-4.92-6.46-11.19-11.74-13.92-11.74s-6.94,3.13-9.35,6.96c-2.41,3.83-7.51,6.51-11.34,5.97s-6.96-4.58-6.96-8.95-1.16-7.6-2.59-7.16-12.07,1.51-23.67,2.39c-11.6.88-21.62,4.55-22.28,8.16-.66,3.61,2.74,8.8,7.56,11.54,4.81,2.74,8.84,4.97,8.95,4.97s3.87-.27,8.36-.6,10.48,2,13.33,5.17c2.84,3.17,5.17,6.75,5.17,7.96s-5.01,7.02-11.14,12.93c-6.13,5.91-11.14,13.52-11.14,16.91s6.09,6.17,13.53,6.17,19.08,2.69,25.86,5.97c6.78,3.28,17.7,11.07,24.27,17.31,6.56,6.24,11.94,11.61,11.94,11.94s2.24,2.75,4.97,5.37c2.74,2.63,13.84,9.34,24.67,14.92,10.83,5.58,22.83,6.12,26.66,1.19s9.11-6.89,11.74-4.38,11.58,9.95,19.89,16.51c8.32,6.56,21.92,19.1,30.24,27.85s14.67,5.89,14.12-6.37.35-23.89,1.99-25.86c1.64-1.97,2.98-6.45,2.98-9.95s-2.15-7.89-4.77-9.75-5.13-9.38-5.57-16.71c-.44-7.33,1.89-17.36,5.17-22.28,3.28-4.92,5.97-11.01,5.97-13.53s3.4-5.65,7.56-6.96,4.16-7.58,0-13.92-7.2-13.69-6.76-16.31-1.98-7.01-5.37-9.75c-3.39-2.74-6.17-9.63-6.17-15.32s1.43-11.69,3.18-13.33Z"/>
  <path class="an" d="M318.91,205.64c-2.63-2.52-7.91-.55-11.74,4.38s-15.82,4.39-26.66-1.19c-10.83-5.58-21.93-12.29-24.67-14.92-2.74-2.63-4.97-1.28-4.97,2.98s-1.79,12.95-3.98,19.3c-2.19,6.35,1.75,13.95,8.75,16.91,7,2.95,16.76,5.64,21.68,5.97,4.92.33,8.95,5.52,8.95,11.54s-1.25,11.66-2.78,12.53-5.29-1.99-8.35-6.37c-3.06-4.38-10.58-7.96-16.71-7.96s-11.68,1.61-12.33,3.58-6.65,3.58-13.33,3.58-12.13.81-12.13,1.79-3.85,1.79-8.55,1.79-11.51,2.78-15.12,6.17c-3.61,3.39-6.57,16.27-6.57,28.61v23.54c0,12.35.27,22.18.6,21.85s4.45-.51,9.15-.4,10.52,4.59,12.93,9.95c2.41,5.36,13.87,12.7,25.46,16.31,11.6,3.61,25.2,6.57,30.24,6.57s12.37-3.49,16.31-7.76c3.94-4.27,9.13-8.12,11.54-8.55,2.41-.44,5.9.1,7.76,1.19,1.86,1.09,7.41,1.72,12.33,1.39s9.4,1.37,9.95,3.78,4.49,8.94,8.75,14.52c4.27,5.58,11.61,13.64,16.31,17.9s11.24,7.76,14.52,7.76,8.3-3.49,11.14-7.76,8.66-10.26,12.93-13.33c4.27-3.06,7.76-7.63,7.76-10.15s-2.51-6.1-5.57-7.96-5.12-6.69-4.57-10.74c.55-4.05,2.7-9.78,4.77-12.73s6.02-5.91,8.75-6.56,6.32-3.61,7.96-6.57c1.64-2.95-.15-9.58-3.98-14.72s-6.96-12.48-6.96-16.31-3.22-12.06-7.16-18.3c-3.94-6.24-13.96-18.5-22.28-27.25s-21.92-21.28-30.24-27.85c-8.32-6.56-17.27-13.99-19.89-16.51Z"/>
  <path class="am" d="M190.4,340.31v-45.98c0-12.35,2.95-25.22,6.57-28.61l6.57-6.17"/>
  <path class="am" d="M175.28,153.32v-6.17c0-3.39,5.01-11,11.14-16.91,6.13-5.91,11.14-11.73,11.14-12.93s-2.33-4.78-5.17-7.96c-2.84-3.17-8.84-5.5-13.33-5.17s-8.25.6-8.36.6h-.2"/>
  <path class="am" d="M384.16,265.91s-6.8-7.16-15.12-15.91-21.92-21.28-30.24-27.85c-8.32-6.56-17.27-13.99-19.89-16.51s-7.91-.55-11.74,4.38-15.82,4.39-26.66-1.19c-10.83-5.58-21.93-12.29-24.67-14.92-2.74-2.63-4.97-4.77-4.97-4.77"/>
  <path class="am" d="M250.88,189.13v7.76c0,4.27-1.79,12.95-3.98,19.3-2.19,6.35,1.75,13.95,8.75,16.91,7,2.95,16.76,5.64,21.68,5.97,4.92.33,8.95,5.52,8.95,11.54s-1.25,11.66-2.78,12.53-5.29-1.99-8.35-6.37c-3.06-4.38-10.58-7.96-16.71-7.96s-11.68,1.61-12.33,3.58-6.65,3.58-13.33,3.58-12.13.81-12.13,1.79-3.85,1.79-8.55,1.79h-8.55"/>
  <path class="am" d="M250.88,189.13v-.6c0-.33-5.37-5.7-11.94-11.94-6.56-6.24-17.49-14.02-24.27-17.31-6.78-3.28-18.42-5.97-25.86-5.97h-13.53"/>
  <path class="am" d="M203.53,259.55h-10.34c-5.69,0-14.82-4.48-20.29-9.95-5.47-5.47-15.32-12.09-21.88-14.72s-11.94-6.47-11.94-8.55-4.74-3.78-10.54-3.78-12.78-1.79-15.52-3.98-5.06-6.22-5.17-8.95,2.84-8.91,6.56-13.73c3.72-4.81,11.42-8.75,17.11-8.75s17.86-5.28,27.05-11.74c9.19-6.46,16.71-14.06,16.71-16.91v-5.17"/>
  <path class="am" d="M155.39,81.71l-1.19,6.56c-.66,3.61,2.74,8.8,7.56,11.54,4.81,2.74,8.84,4.97,8.95,4.97s-1.41,1.97-3.38,4.38c-1.97,2.41-12.44,9.24-23.26,15.18l-33.85,18.58c-10.82,5.94-22.1,13.4-25.05,16.57-2.95,3.17-5.37,10.6-5.37,16.51s-9.94,12.52-22.1,14.69l-.36.06c-12.15,2.17-22.1,7.44-22.1,11.7s2.24,9.73,4.97,12.13,4.26,9.12,3.38,14.92.29,14.66,2.59,19.69,12.61,14.72,22.91,21.53l7.1,4.69c10.3,6.81,18.73,13.72,18.73,15.36s8.52,8.41,18.94,15.04l19.02,12.1c10.42,6.63,16.52,15.01,13.57,18.62-2.95,3.61-5.37,8.71-5.37,11.34s5.01,4.77,11.14,4.77,13.29,3.49,15.91,7.76,6.3,7.58,8.16,7.36c1.86-.22,3.38-3.98,3.38-8.36s2.42-10.46,5.37-13.53c2.95-3.06,5.64-5.84,5.97-6.17s4.45-.51,9.15-.4,10.52,4.59,12.93,9.95c2.41,5.36,13.87,12.7,25.46,16.31,11.6,3.61,25.2,6.57,30.24,6.57s12.37-3.49,16.31-7.76c3.94-4.27,9.13-8.12,11.54-8.55,2.41-.44,5.9.1,7.76,1.19,1.86,1.09,7.41,1.72,12.33,1.39s9.4,1.37,9.95,3.78,4.49,8.94,8.75,14.52c4.27,5.58,11.61,13.64,16.31,17.9s11.24,7.76,14.52,7.76,8.3-3.49,11.14-7.76,8.66-10.26,12.93-13.33c4.27-3.06,7.76-7.63,7.76-10.15s-2.51-6.1-5.57-7.96-5.12-6.69-4.57-10.74c.55-4.05,2.7-9.78,4.77-12.73s6.02-5.91,8.75-6.56,6.32-3.61,7.96-6.57c1.64-2.95-.15-9.58-3.98-14.72s-6.96-12.48-6.96-16.31v-6.96"/>
  <line class="am" x1="398.48" y1="288.59" x2="384.16" y2="265.91"/>
  <path class="am" d="M202.74,76.94l-2.59.8c-1.42.44-12.07,1.51-23.67,2.39-11.6.88-21.09,1.59-21.09,1.59"/>
  <path class="am" d="M384.16,265.91s-.45-10.03-.99-22.28.35-23.89,1.99-25.86c1.64-1.97,2.98-6.45,2.98-9.95s-2.15-7.89-4.77-9.75-5.13-9.38-5.57-16.71c-.44-7.33,1.89-17.36,5.17-22.28,3.28-4.92,5.97-11.01,5.97-13.53s3.4-5.65,7.56-6.96,4.16-7.58,0-13.92-7.2-13.69-6.76-16.31-1.98-7.01-5.37-9.75c-3.39-2.74-6.17-9.63-6.17-15.32s1.43-11.69,3.18-13.33c1.75-1.64,3.09-6.12,2.98-9.95s-2.88-6.96-6.17-6.96-9.37-1.61-13.53-3.58c-4.16-1.97-10.42.27-13.92,4.97-3.5,4.7-8.69,9-11.54,9.55s-7.95,3.23-11.34,5.97c-3.39,2.74-10.37,10.88-15.52,18.1s-14.72,13.13-21.28,13.13h-11.94"/>
</svg>
