<?xml version='1.0' encoding='UTF-8'?>
<svg xmlns="http://www.w3.org/2000/svg" id="r" data-name="Guadeloupe" viewBox="0 0 453.54 453.54">
  <defs>
    <style>
      .am {
        fill: #fff;
        stroke: #8A5301;
        stroke-linecap: round;
        stroke-linejoin: round;
        stroke-width: 12px;
      }
    </style>
  </defs>
  <path class="am" d="M345.02,154.69c0-5.27-15.28-17.1-43.61-28.75-2.48.19-5.01.29-7.54.29l-1.1-.11-30.68-6.23-.85-.53c-.72-.45-17.6-11.19-17.6-24.64s0-28.7-2-36.72c-1.78-7.13-17.3-16.91-24.73-16.91-.06,0-.12,0-.18,0,.78,8.47-6.98,15.23-25.91,22.59-10.35,4.03-10.85,9.04-11.02,10.68-1.03,10.26,14.35,24.84,29.09,35.07l4.96,3.45-3.9,4.62c-2.94,3.49-8.93,11.22-15.93,23.81-10.48,18.85-19.27,32.19-37.13,32.19-15.3,0-30.08-15.95-34.15-20.71-4.98-.1-25.71-1.01-33.63-8.92-2.29-2.29-3.96-5.11-5.57-7.83l-.12-.2c-4.32-7.34-8.39-14.25-23.49-14.25-1.34,0-2.77.06-4.24.17-4.78.36-8.29,2.21-10.76,5.66-5.74,7.97-5.69,23.63.12,46.54l.23.89c.67,2.72,2.72,6.97,4.89,11.48l.19.39c4.21,8.7,9.46,19.55,9.46,27.98v.54c-.2,8.98.26,40.32,14.23,66.69,11.42,21.6,10.21,29.54,6.86,40.07-1.57,4.95-3.2,10.07-2.47,18.73,1.1,13.32,5.71,13.32,7.22,13.32,5.17,0,12.85-5.49,20.27-10.8,4.75-3.39,8.68-5.02,12.04-5.02,3.13,0,5.75,1.54,7.15,4.08l.62.51c5.11-.06,19.2-.37,30.84-2.03,6.3-.9,8.2-4.03,11.28-9.93,2.42-4.65,5.44-10.43,12.74-14.62,3.82-2.19,7.81-4.89,8.47-8.32.9-4.73-3.96-11.91-13.23-23.51-11.26-14.09-12.71-15.9-11.59-24.99.32-2.58.76-6.11.76-11.58,0-9.91-3.91-13.32-8.45-17.28-4.26-3.73-9.08-7.96-10.16-17.65-.81-7.3.44-12.69,3.81-16.48,4.98-5.57,13.37-6.69,25.3-6.69,9.26,0,11.66,5.45,13.59,9.83,2.08,4.74,3.86,8.79,13.3,8.79s17.83-3.54,26.92-7.29c4.66-1.92,16.54-5.06,30.29-8.68,18.27-4.82,41.01-10.82,47.5-14.3l.22-.12c8.97-4.79,16.72-8.92,23.36-8.92,12.91,0,14.32-2.9,14.32-14.33Z"/>
  <path class="am" d="M348.72,326.5l-2.76-.15-1.53-2.31c-4.01-6.05-10.55-13.11-15.81-13.11-1.05,0-2.02.28-2.99.85-5.04,3.04-10.65,11.79-15.16,18.82-6.77,10.59-9.14,13.43-12.1,14.46-1.11.37-2.05.64-2.91.83-3.11.81-3.89,1.01-3.89,11.55,0,5.96,4.34,7.91,14.25,10.94,6.87,2.13,14.51,4.49,20.28,10.28,4.25,4.24,10.5,6.68,17.16,6.68,4.5,0,8.63-1.13,11.65-3.17,2.09-1.43,4.61-4.02,4.61-8.16,0-31.14-3.63-47.12-10.79-47.5Z"/>
  <path class="am" d="M119.69,384.5c-1.05.58-2.09,1.26-2.98,2.02.73-.27,1.39-.61,1.95-1.05.37-.28.71-.61,1.03-.98Z"/>
</svg>
