<?xml version='1.0' encoding='UTF-8'?>
<svg xmlns="http://www.w3.org/2000/svg" id="v" data-name="Mayotte" viewBox="0 0 453.54 453.54">
  <defs>
    <style>
      .am {
        fill: #fff;
        stroke: #8A5301;
        stroke-linecap: round;
        stroke-linejoin: round;
        stroke-width: 12px;
      }
    </style>
  </defs>
  <path class="am" d="M92.13,43.93c-.47-1.07-1-1.78-1.4-1.82-.63-.07-1.41.22-2.32.74,1.65.63,2.94,2.01,3.41,3.79.18.68.36,1.39.53,2.14.37-.28.71-.55,1-.81-.76-.98-1.22-2.18-1.22-3.41v-.64Z"/>
  <path class="am" d="M286.36,149.38l-1.13-.64c-2.99-1.69-5.31-4-7.36-6.05-1.85-1.85-3.6-3.59-5.44-4.46-5.05-2.38-35.83-6.94-40.64-6-1.15.37-2.2,1.75-3.79,3.95-2.15,2.97-5.09,7.03-10.63,8.4-1.67.41-3.44.03-4.79-1.04-1.31-1.04-2.08-2.61-2.1-4.27-.05-.16-.12-.31-.18-.46-8.47-2.6-14.77-5.01-20.29-14.04-.68-1.11-1.84-2.35-2.98-3.55-2.61-2.77-5.56-5.9-4.73-10.22.25-1.31.94-2.99,2.69-4.47-2.42-6.3-15.52-23.04-32.07-33.83-1.01,1.34-1.94,3.23-3.03,5.56-1.82,3.92-4.19,8.99-8.99,11.18-4.55,12.44-20.65,26.8-29.69,33.32,3.86-.06,8.15.26,11.01,3.72,3.35,4.04,2.12,9.54,1.71,11.35-.38,1.73-1.57,3.17-3.19,3.88-1.69.74-3.24,2.44-5.03,4.41-1.33,1.45-2.74,3.01-4.43,4.41,1.18,1.69,2.63,3.64,3.98,5.38,4.5-3.06,11.08-5.63,17.38-.07,1.9,1.67,2.57,4.2,3.28,6.87.19.71.46,1.74.64,2.22,1.22,1.55,3.44,2.82,5.78,4.16.29.16.57.33.85.49,6.78-2.42,17.45-3.19,24.16.79,4.03,2.39,6.22,6.2,6.18,10.73-.03,2.63-1.89,4.88-4.47,5.4-1.58.44-4.67,5.52-5.55,8.22.25.02.51.05.73.07,11.81,1.02,11.82,8.16,11.82,10.5,0,1.87-.93,3.57-2.42,4.6-1.37,3.03-2.3,14.52-1.76,30.25,6,.21,12.94,1.33,16.84,8.05.97,1.67,1,3.72.08,5.42-3.76,6.99-10.63,6.69-14.73,6.51-1.74-.08-3.39-.15-4.62.17-1.94.5-3.79,1.92-5.91,3.56,1.7,1.81,3.87,3.97,5.54,5.64,4.07,4.06,8.28,8.26,10.85,11.66,4.43,5.9,18.15,16.29,25.47,17.03.45.05.9.15,1.33.3,21.6,7.8,17.41,31.68,15.4,43.16-.4,2.27-.77,4.41-.85,5.71-.09,1.46-.75,2.83-1.84,3.81-13.45,12.08-33.04-.07-44.52-8.52.29.6.51,1.25.65,1.95,2.06,9.63-11.84,28.31-11.99,28.48-1.37,1.52-3.08,2.64-4.73,3.71-.62.41-1.51.98-2.18,1.49,1.17,1.1,3,2.4,4.2,3.01.21-.17.44-.37.63-.53,1.9-1.64,6.36-5.48,12.97-2.37,3.47,1.62,5.74,3.89,6.74,6.76,1.54,4.41-.45,8.42-1.9,11.34-.45.9-.91,1.83-1.11,2.48-.05.18-.11.34-.15.5.92-.53,1.91-.97,2.94-1.32,5.22-1.78,10.57-.64,14.32,3.03.62.61,1.09,1.36,1.38,2.18.43,1.26.65,2.48.79,3.61.57-.18,1.16-.3,1.78-.35.25-.02.49-.03.72-.03,3.69,0,6.22,2.45,7.92,4.11.81.78,1.57,1.52,2.3,1.96,2.01-.64,6.46-5.54,8.9-8.22,5.47-6.02,10.72-11.7,16.93-11.66,3.23.02,9.22.89,13.09,6.54,4.43-4.07,10.13-3.51,13.93-3.12.38-.63.76-1.32,1.09-1.93-.41-.09-.84-.18-1.26-.28-4.97-1.1-10.5-2.32-14.77-5.72-3.06-.07-5.08-1.26-6.33-2.41-2.86-2.62-3.34-6.46-3.28-9.38-3.1-2.84-7.99-7.71-8.61-10.78-.73-3.71-.15-6.72,1.72-8.97,2.39-2.88,5.8-3.39,9.11-3.46-.53-1.31-.98-2.95-.87-4.92.43-7.36,12.57-19.5,21.3-21.31.82-.17,1.62-.26,2.4-.26-.78-2.72-.56-5.43-.38-7.72.05-.68.11-1.39.15-2.13.45-9.34,2.73-12.19,9.84-16.55,7.48-4.61,11.63-8.92,12.55-13.1-3.99-1.53-8.41-4.72-13.23-9.55-7.38-7.39-18.2-21.85-17.73-31.41.49-10.07,5.22-14.79,9.39-18.95,1.8-1.8,3.5-3.49,5.01-5.7,2-2.91,3.82-6.01,5.74-9.28,5.96-10.14,12.55-21.35,24.81-25.76-.09-.13-.17-.27-.25-.42,0,0,0,0,0,0,0,0,0,0,0,0-3.98-7.39.48-11.85,2.63-14,1.09-1.09,2.02-2.02,2.63-3.36,1.17-2.58,1.29-6.67.58-8.21-1.24-.94-5.41-3.63-18.93-11.26Z"/>
  <path class="am" d="M169.15,338.23c-4.55-4.1-5.75-9.05-6.73-13.08-.81-3.35-1.35-5.31-2.94-6.79-1.98-1.85-8.19-2.69-18.5-2.55,1.38,3.34,4.23,6.94,6.85,10.24,1.31,1.65,2.54,3.21,3.64,4.77.7,1.01,1.39,2.39,2.27,4.13.67,1.33,1.92,3.85,2.8,5.15.51-.16,1.34-.47,1.95-.7,2.57-.98,6.28-2.39,10.68-1.17Z"/>
  <path class="am" d="M355.8,169.99c-.3-.22-.54-.37-.72-.48-.74.57-1.92,1.72-2.68,2.46-.41.4-.89.85-1.41,1.33-.59.55-1.61,1.51-2.61,2.52.03.03.06.05.09.08.34.28.72.6,1.21.93,2.44,1.67,3.14,4.97,1.59,7.5l-.66,1.07c-4.31,6.97-5.2,8.42-1.86,14.19.53.92,1.12,2.03,1.77,3.25.13.25.29.54.46.87.69-.79,1.6-1.4,2.68-1.71,4.25-1.22,9.96-4.22,9.36-7.07-.26-1.23-.09-2.5.46-3.63l.36-.71c.3-6.92-3.77-17.54-8.03-20.61Z"/>
</svg>
