<?xml version='1.0' encoding='UTF-8'?>
<svg xmlns="http://www.w3.org/2000/svg" id="t" data-name="Réunion" viewBox="0 0 453.54 453.54">
  <defs>
    <style>
      .am {
        fill: #fff;
        stroke: #8A5301;
        stroke-linecap: round;
        stroke-linejoin: round;
        stroke-width: 12px;
      }
    </style>
  </defs>
  <path class="am" d="M409.27,246.06c-2.51-1.05-4.34-1.14-5.86-1.14l-3.5.07c-5.38,0-40.24-19.49-43.99-23.66-5.22-5.8-26.7-34.52-35.7-46.6l-5.05-6.79,8.22-2.02c4.36-1.07,6.39-3.81,6.39-8.61,0-17.8-2.58-24.28-3.57-25.28-.7-.72-1.47-1.38-2.31-2.12l-.47-.41c-2.43-2.11-5.8-5.03-9.47-9.75-1.1-1.41-2.21-2.94-3.33-4.49-3.77-5.2-7.67-10.58-12.08-12.53-.29-.13-.95-.46-1.88-.93-3.89-1.98-15.71-7.99-22.28-8.82-3.29-.4-12.25-.6-26.63-.6-20.41,0-46.04.42-56.11.6l-2.26.04-1.66-1.53c-4.61-4.27-11.39-8.83-16.6-8.83-.75,0-1.49.11-2.19.32-1.08.34-3.24.71-9.63,1.76-9.64,1.58-32.22,5.29-36.62,7.94-1.21.73-4.35,3.03-7.67,5.48-10.6,7.79-18.43,13.41-22.71,14.62-12.26,3.6-21.65,8.88-22.41,11.37.02,2.9.42,21.04.61,29.76l.14,6.58-1.8,1.71c-4.58,4.36-13.7,11.69-23.3,11.69-1.27,0-2.35.46-3.29,1.42-5.09,5.11-5,21.09-4.97,26.34v1.09c0,5.28,2.99,11.21,17.56,22.98,4.83,3.91,8.2,4.34,10.92,4.68,8.69,1.05,9.46,7.69,10.53,23.96,2.05,31.4,8.63,40.44,14.44,48.42,2.55,3.24,23.95,19.14,32.01,25.12,6.78,5.04,6.83,5.08,7.36,5.67l.18.19c1.1.62,6.4,2.81,29.37,5.59l.62.11c.15.04,15.3,3.74,20.8,15.48,3.02,6.49,17.3,11.9,28.77,16.24,1.74.66,5.07,2.39,11.32,5.67,10.68,5.6,30.55,16.02,37.6,17.2,11.49,1.92,26.99,5.55,30.17,6.31,1.32-.21,4.49-.79,7.82-1.39,10.46-1.9,27.97-5.08,38.67-6.33,23.3-2.74,32.68-7.96,39.53-11.77,1.5-.83,3.02-1.5,4.49-2.15,6.2-2.76,9.92-4.84,9.92-10.7,0-9.34-.64-50.23-.7-54.26-.59-2.02-2.72-12.13,8.39-24.64,5.54-6.24,6.09-10.55,6.61-14.71.49-3.87.99-7.85,5.71-11.78,3.77-3.14,5.63-6.95,5.1-10.46-.41-2.7-2.26-4.86-5.2-6.09Z"/>
</svg>
