<?xml version='1.0' encoding='UTF-8'?>
<svg xmlns="http://www.w3.org/2000/svg" id="ae" data-name="France régions" viewBox="0 0 453.54 453.54">
  <defs>
    <style>
      .am {
        stroke-width: 12px;
      }

      .am, .an {
        fill: none;
        stroke: #8A5301;
        stroke-linecap: round;
        stroke-linejoin: round;
      }

      .an {
        stroke-width: 8px;
      }
    </style>
  </defs>
  <g>
    <path class="an" d="M355.56,190.75c4.21-24.76-35.49-25.8-47.75-7.5"/>
    <path class="an" d="M256.12,134.8c7.04-17.47,15.5-18.25,22.12-39.19"/>
    <path class="an" d="M256.12,134.8c-12.34-10.35-29.82-14.46-46.83-15.05"/>
    <path class="an" d="M241.91,162.5c-2.84-.73-9.98,1.8-13.23,1.3.92-11.03-4.71-5.22-12-6.16"/>
    <path class="an" d="M254.56,153.29c-7.25-.29-11.15,2.66-12.65,9.21"/>
    <path class="an" d="M307.81,183.25c-13.36-19.16-38.06-6.23-53.25-29.96"/>
    <path class="an" d="M241.91,162.5c-.62,15.8-2.74,34.19,3.05,54.61"/>
    <path class="an" d="M326.62,237.55c-17.02,1.07-21.03-5.64-33.01,3.29-21.73,2.84-24.89-16.09-48.64-23.74"/>
    <path class="an" d="M224.34,232.15c-35.27,10.99-38.83-19.98-60.64-30.61"/>
    <path class="an" d="M244.96,217.11c-9.57,4.22-14.49,7.83-20.62,15.05"/>
    <path class="an" d="M224.34,232.15c12.49,23.14,5.54,39.93-6.29,57.66"/>
    <path class="an" d="M273.37,309.98c-8.83-20.28-18.67-24.83-29.12-7-2.57-.48-2.3-10.34-7.13-11.61-5.25,9.26-6.38,9.72-14.92,12.84-1.03-3.3-1.3-11.8-4.15-14.4"/>
    <path class="an" d="M353.45,282.23c-7.65,4.04-22.31-3.04-13.99,9.79-19.75,5.31-24.94,13.45-17.71,27.11-9.22-1.5-21.95-.33-29.57-2.08"/>
    <path class="an" d="M209.29,119.76c4.34-11.53,4.58-21.08-5.38-30.52"/>
    <path class="an" d="M135.42,146.8c-5.75,2.49-8.77,5.57-11.39-1.92"/>
    <path class="an" d="M135.42,146.8c3.87,27.77-27.34,38.54-48.65,45.8"/>
    <path class="an" d="M184.78,160.87c-14.79-12.31-29.38-14.17-49.36-14.07"/>
    <path class="an" d="M184.78,160.87c-.7-14.96,4.92-23.57,19.13-29.57"/>
    <path class="an" d="M203.91,131.3c-.39-4.57,1.29-7.68,5.38-11.54"/>
    <path class="an" d="M216.68,157.63c-5.15-7.81-9.06-15.83-12.78-26.33"/>
    <path class="an" d="M163.7,201.54c10.23-16.44,15.95-22.97,21.08-40.67"/>
    <line class="an" x1="216.36" y1="158.6" x2="216.68" y2="157.63"/>
    <path class="an" d="M163.7,201.54c-6.7-.06-17.95,4.93-26.07,6.62,4.44,7.61,5.07,17.25,8.76,24.06-8.61,1.94-25.36,3.85-31.71,5.34"/>
    <path class="an" d="M218.05,289.81c-12.34-1.38-48.15,28.87-54.54,38.36-10.31,15.31-5.19,26-19.08,48.87"/>
    <path class="an" d="M292.18,317.05c-8.49-.52-11.85-1.35-18.81-7.07"/>
    <path class="an" d="M287.35,336.91s7.72-13.96,4.82-19.86"/>
  </g>
  <path class="an" d="M257.21,137.24s2.63,12.99-1.09,13.83"/>
  <g>
    <path class="am" d="M364.9,314.39c-6.47-3.77-8.47-12.77-10.58-22.29l-.53-2.36c-.28-.9-.41-1.71-.52-2.38-.07-.42-.13-.81-.2-1.02l-1.38-4.14,3.72-2.27c8.07-4.93,9.72-8.61,10.26-10.95,1.36-5.46-2.89-11.32-7.39-17.54l-.76-1.05c-.72-1.08-1.34-1.98-1.97-2.89-3.6-5.24-7.31-10.64-8-16.49-2.48.43-4.79,1.76-7.2,3.15-.55.32-1.1.63-1.63.93l-8.14,4.53v-9.32c0-5.92,4.99-12.26,11.31-20.28,5.4-6.86,12.13-15.4,12.13-20.41v-5.48h11.93v-.69c0-13.05,0-36.96,14.54-60.2-1.09.03-2.19.05-3.29.05-67.65,0-136.17-60.91-145.76-79.27-7.28-.6-14.71,2.08-22.7,8.18,4.02,20.21-3.2,34.65-19.38,38.7-11.19,2.71-18.31,6.65-20.09,11.11-.26.66-.75,2.49.41,5.39l1.65,4.13-3.7,2.47c-2.95,1.96-5.89,3.73-9.41,3.8-7.78.43-15.07-5.69-22.45-12.58l-.89-.78c-5.44-4.82-11.05-9.75-15.3-9.3-1.93.22-3.7,1.25-5.42,3.17,9.85,11.67,9.85,21.48,9.85,37.44v6.72h-38.38l-1.15-3.95c-1.98-6.78-13.5-12.5-25.17-12.5-8,0-15.29,2.69-20.52,7.57-5.99,6-9.18,15-9.35,26.64,42.71,9.61,69.65,32.13,79.95,66.89,7.52,25.94,3.78,51.48-.68,68.34-4.87,18.43-13.25,35.74-21.56,44.68,37.64,27.74,88.79,65.22,125.54,65.22,2.85,0,5.4-.36,7.73-.75,9.89-1.7,18.33-7.09,24.46-15.6-10.4-16.45-2.29-35.21,11.4-45.47,15.61-11.82,38.98-14.9,55.97,4.93,17.49,20.03,42.45,16.95,58.06,3.52,13.32-11.61,16.58-26.66,8.34-37.83-5.86,2.23-10.33,2.28-13.76.22Z"/>
    <path class="am" d="M421.22,343.68c-1.36,1.14-3.96,6.53-5.73,6.4l-9.1,2.37c-4.51.3-8.54,1.86-10.31,12.34-.02,1.71-.15,8.77-.26,15.51-.12,6.53-.23,12.76-.23,13.4-.01,6.57,10.05,13.12,14.98,15.58,3.92-5.19,12.23-19.65,11.99-35.32,0-.03,0-.07,0-.1,0-6.41-.31-22.7-1.33-30.17Z"/>
  </g>
</svg>
