<?xml version='1.0' encoding='UTF-8'?>
<svg xmlns="http://www.w3.org/2000/svg" id="w" data-name="Buste ouvrier" viewBox="0 0 453.54 453.54">
  <defs>
    <style>
      .ca {
        fill: none;
        stroke: #8A5301;
        stroke-linecap: round;
        stroke-linejoin: round;
        stroke-width: 12px;
      }

      .cb {
        fill: #8A5301;
        stroke-width: 0px;
      }
    </style>
  </defs>
  <path class="ca" d="M261.82,72.43c31.92,13.98,54.22,45.85,54.22,82.93,0,49.98-40.52,90.5-90.5,90.5s-90.5-40.52-90.5-90.5c0-37,22.21-68.82,54.02-82.84"/>
  <path class="ca" d="M409.41,417.13s6.08-151.14-138.53-151.14l-45.63,37.79-45.63-37.79s-131.27-11.15-138.53,151.14h368.31Z"/>
  <line class="ca" x1="111.95" y1="138.85" x2="338.94" y2="138.85"/>
  <polyline class="ca" points="153.01 272.12 152.47 340.18 304.15 340.18 303.61 271.94"/>
  <polygon class="ca" points="122.48 340.48 122.48 416.13 332.71 416.13 333.46 340.48 122.48 340.48"/>
  <circle class="cb" cx="152.21" cy="379.31" r="8.53"/>
  <circle class="cb" cx="304.15" cy="379.35" r="8.53"/>
  <path class="ca" d="M251.79,119.2s12.68-43,8.34-61c0,0-24.64.71-34.6.92l-.77-.02c-10.19.39-34.51-.9-34.51-.9-4.34,18,8.34,61,8.34,61"/>
</svg>
