<?xml version='1.0' encoding='UTF-8'?>
<svg xmlns="http://www.w3.org/2000/svg" id="bf" data-name="Perso femme de menage" viewBox="0 0 453.54 453.54">
  <defs>
    <style>
      .ca {
        fill: #8A5301;
        stroke-width: 0px;
      }
    </style>
  </defs>
  <circle class="ca" cx="199.71" cy="84.97" r="33.59"/>
  <path class="ca" d="M290.49,249.38c-5.96,3.44-13.59,1.4-17.03-4.56l-24.58-42.58,12.97,95.03c.82,5.95-3.81,11.26-9.83,11.26h-9.15v85.75c0,10.03-8.12,18.15-18.15,18.15s-18.15-8.12-18.15-18.15v-85.75h-10.95v85.75c0,10.03-8.12,18.15-18.15,18.15s-18.15-8.12-18.15-18.15v-85.75h-13.01c-6.06,0-10.7-5.38-9.82-11.37l13.77-93.37-2.93,5.07c-.78,1.35-1.77,2.49-2.91,3.41-1.37,1.69-3.22,3.04-5.43,3.82l-47.03,16.68v175c0,3.4-2.75,6.15-6.14,6.15s-6.15-2.75-6.15-6.15v-171.13c-5.37.37-10.54-2.85-12.43-8.17l-.1-.28c-2.27-6.41,1.08-13.45,7.49-15.72l5.04-1.79v-80.22h-42.6c-.58,0-1.06-.48-1.06-1.07v-13.69h102.07v13.69c0,.59-.47,1.07-1.06,1.07h-45.06v75.86l35.28-12.52,31.6-54.73c1.08-1.86,2.56-3.34,4.27-4.39,1.62-1.25,3.65-1.99,5.86-1.99h62.09c2.2,0,4.24.74,5.86,1.99,1.71,1.05,3.19,2.53,4.27,4.39l53.86,93.28c3.44,5.96,1.4,13.59-4.56,17.03Z"/>
  <path class="ca" d="M39.48,84.95h95.13c1.91,0,3.47,1.55,3.47,3.47v22.97H36.01v-22.97c0-1.91,1.55-3.47,3.47-3.47Z"/>
  <path class="ca" d="M386.91,415.76h-50.44c-2.67,0-4.9-2.02-5.17-4.67l-8.16-79.99c-.31-3.06,2.09-5.73,5.17-5.73h70.03c3.16,0,5.59,2.8,5.15,5.93l-11.43,79.99c-.37,2.56-2.56,4.46-5.15,4.46Z"/>
  <path class="ca" d="M414.79,333.04c-1.86,0-3.36-1.5-3.36-3.36,0-26.12-21.25-47.37-47.37-47.37s-47.37,21.25-47.37,47.37c0,1.86-1.5,3.36-3.36,3.36s-3.36-1.5-3.36-3.36c0-29.82,24.26-54.09,54.09-54.09s54.09,24.26,54.09,54.09c0,1.86-1.5,3.36-3.36,3.36Z"/>
</svg>
