<?xml version='1.0' encoding='UTF-8'?>
<svg xmlns="http://www.w3.org/2000/svg" id="s" data-name="Recherche-microscope" viewBox="0 0 453.54 453.54">
  <defs>
    <style>
      .ak {
        fill: none;
        stroke: #8A5301;
        stroke-linecap: round;
        stroke-linejoin: round;
        stroke-width: 12px;
      }
    </style>
  </defs>
  <circle class="ak" cx="317.91" cy="230.64" r="18.89"/>
  <rect class="ak" x="134.47" y="343.77" width="25.71" height="43.48"/>
  <path class="ak" d="M90.73,314.88h113.18c0,15.94-12.94,28.89-28.89,28.89h-55.4c-15.94,0-28.89-12.94-28.89-28.89h0Z"/>
  <polygon class="ak" points="270.75 387.25 238.43 387.25 292.27 261.34 316.03 271.15 270.75 387.25"/>
  <circle class="ak" cx="317.91" cy="230.64" r="37.79"/>
  <path class="ak" d="M92.92,387.25h224.99c0,14.26-11.58,25.83-25.83,25.83H118.76c-14.26,0-25.83-11.58-25.83-25.83h0Z"/>
  <rect class="ak" x="249.67" y="180.71" width="25.71" height="45.68" transform="translate(-39.15 342.64) rotate(-62.54)"/>
  <rect class="ak" x="195.04" y="123.57" width="49.29" height="113.74" transform="translate(107.96 -80.97) rotate(27.46)"/>
  <rect class="ak" x="166.2" y="228.91" width="38.18" height="35.46" transform="translate(134.6 -57.65) rotate(27.46)"/>
  <rect class="ak" x="236.04" y="92.26" width="38.18" height="39.98" transform="translate(80.5 -105) rotate(27.46)"/>
  <rect class="ak" x="249.75" y="76.12" width="38.18" height="19.49" transform="translate(69.88 -114.29) rotate(27.46)"/>
</svg>
