<?xml version='1.0' encoding='UTF-8'?>
<svg xmlns="http://www.w3.org/2000/svg" id="bj" data-name="Perso ouvrier" viewBox="0 0 453.54 453.54">
  <defs>
    <style>
      .ca {
        fill: #8A5301;
        stroke-width: 0px;
      }
    </style>
  </defs>
  <g>
    <path class="ca" d="M173.64,80.29h2.56s0,.03,0,.05h98.86s0-.03,0-.05h.07c1.72,0,3.12-1.4,3.12-3.12s-1.4-3.12-3.12-3.12h-.8c-2.84-15.75-13.13-28.91-27.09-35.69-.11,10.39-1.67,17.32-1.77,17.72-.34,1.48-1.66,2.49-3.12,2.49-.24,0-.48-.03-.72-.08-1.73-.4-2.8-2.12-2.41-3.85.02-.1,1.73-7.75,1.59-18.87-4.78-1.54-9.88-2.37-15.17-2.37s-9.97.77-14.58,2.19c.26,11.2,2.28,18.81,2.3,18.9.46,1.71-.55,3.47-2.26,3.94-.28.08-.56.11-.84.11-1.41,0-2.71-.94-3.1-2.37-.11-.4-1.98-7.48-2.45-18.14-14.3,6.69-24.88,20.01-27.77,36.02h-3.29c-1.72,0-3.12,1.4-3.12,3.12s1.4,3.12,3.12,3.12Z"/>
    <path class="ca" d="M180.37,86.58c.66,24.43,20.66,44.04,45.25,44.04s44.59-19.61,45.25-44.04h-90.49Z"/>
  </g>
  <g>
    <path class="ca" d="M197.93,176.16h55.38v-26.82c-3.01-.52-6.11-.8-9.27-.8h-36.85c-3.16,0-6.25.28-9.27.8v26.82Z"/>
    <path class="ca" d="M235.4,194.8h-19.98c-.03.76-.06,1.55-.09,2.36-.3,7.11-.67,15.97,3.26,20.1,1.58,1.66,3.82,2.49,6.86,2.53,2.99-.04,5.2-.84,6.75-2.46,3.75-3.91,3.5-12.4,3.29-19.23-.03-1.14-.07-2.25-.08-3.31Z"/>
    <path class="ca" d="M259.73,150.84v79.64c0,1.77-1.44,3.21-3.21,3.21s-3.21-1.44-3.21-3.21v-48.99h-55.38v48.99c0,1.77-1.44,3.21-3.21,3.21s-3.21-1.44-3.21-3.21v-79.64c-22.52,6.74-38.93,27.61-38.93,52.32v76.56c0,3.64,2.4,6.84,5.89,7.86l18.2,5.32,13.41,119.78c.44,3.9,5.27,6.92,11.08,6.92h49.49c5.82,0,10.66-3.03,11.08-6.94l12.93-119.92,18.06-5.18c3.51-1.01,5.93-4.22,5.93-7.88v-76.52c0-24.71-16.41-45.58-38.93-52.32ZM236.03,221.03c-2.56,2.66-6.11,4.04-10.56,4.09h-.06c-4.5-.05-8.1-1.46-10.69-4.19-5.47-5.77-5.05-15.87-4.71-23.99.07-1.74.14-3.38.14-4.8s1.19-2.66,2.66-2.66h25.27c.72,0,1.41.29,1.91.81.5.52.77,1.22.75,1.94-.05,1.68,0,3.65.07,5.73.23,7.82.52,17.55-4.77,23.07Z"/>
  </g>
</svg>
