<?xml version='1.0' encoding='UTF-8'?>
<svg xmlns="http://www.w3.org/2000/svg" id="f" data-name="Metallurgie" viewBox="0 0 453.54 453.54">
  <defs>
    <style>
      .ak {
        stroke-linecap: round;
        stroke-linejoin: round;
      }

      .ak, .al, .am {
        stroke: #8A5301;
        stroke-width: 12px;
      }

      .ak, .am {
        fill: none;
      }

      .al {
        fill: #fff;
      }

      .al, .am {
        stroke-miterlimit: 10;
      }
    </style>
  </defs>
  <polygon class="ak" points="42.53 230.02 175.57 164.36 243.73 164.36 243.73 229.05 114.94 310.16 42.53 310.16 42.53 230.02"/>
  <polyline class="ak" points="42.53 231.75 114.94 231.75 114.94 308.09"/>
  <line class="ak" x1="114.94" y1="231.75" x2="243.73" y2="164.36"/>
  <path class="ak" d="M295.14,392l115.54-97.72-.03-21.64c-7.67,0-14.65-6.22-14.65-13.89s6.87-13.89,14.54-13.89l.06-24.53h-76.84l-126.32,85.44v22.71c10.97,0,19.87,8.89,19.87,19.87s-8.89,19.87-19.87,19.87v24.12l87.7-.35Z"/>
  <line class="ak" x1="207.44" y1="305.78" x2="294" y2="305.78"/>
  <line class="ak" x1="294" y1="368.23" x2="294" y2="392"/>
  <path class="am" d="M381.46,158.4l-86,53.02-51.76-89.59,89.99-47.74c7.01-3.95,13.88-5.56,22.5-5.56,26.74,0,48.41,21.67,48.41,48.41,0,17.5-9.22,32.96-23.14,41.46Z"/>
  <circle class="al" cx="265.51" cy="168.92" r="51.99"/>
  <line class="ak" x1="296.27" y1="329.36" x2="401.26" y2="248.18"/>
  <path class="ak" d="M411.02,220.34l-117.02,85.44v22.71c-10.97,0-19.87,8.89-19.87,19.87s8.89,19.87,19.87,19.87l115.34-94.24"/>
</svg>
