<?xml version='1.0' encoding='UTF-8'?>
<svg xmlns="http://www.w3.org/2000/svg" id="ae" data-name="Alarme" viewBox="0 0 453.54 453.54">
  <defs>
    <style>
      .am {
        stroke-linecap: round;
        stroke-linejoin: round;
      }

      .am, .an {
        fill: none;
        fill-rule: evenodd;
        stroke: #5F1972;
        stroke-width: 12px;
      }

      .an {
        stroke-miterlimit: 10;
      }
    </style>
  </defs>
  <g>
    <path class="an" d="M353.62,198.64c0-56.16-50.19-113.3-99.88-125.74v-2.36c0-14.63-11.73-23.64-25.63-23.64-15.07,0-26.48,6.97-26.48,22.74v3.26c-49.64,11.26-98.57,63.91-99.6,125.74v76.58c0,9.53-3.6,18.69-10,25.44l-21.15,22.24c-2.31,2.44-3.59,5.72-3.59,9.15h0c0,7.15,5.48,12.94,12.27,12.94h296.52c6.78,0,12.29-5.79,12.29-12.94h0c0-3.43-1.29-6.71-3.61-9.15l-21.13-22.24c-6.41-6.76-10.02-15.91-10.02-25.44v-76.58Z"/>
    <path class="an" d="M228,408.55c2.25,0,4.33-.17,6.4-.68,10.42-2.35,18.92-9.78,23.07-19.88,1.6-4.05,2.39-8.44,2.39-13.17h-64.05c.17,18.56,14.41,33.74,32.19,33.74Z"/>
  </g>
  <path class="am" d="M342.42,58.7s45.79,29,70.21,87"/>
  <path class="am" d="M111.51,58.7s-45.79,29-70.21,87"/>
  <path class="am" d="M332.96,90.94s27.43,17.37,42.05,52.11"/>
  <path class="am" d="M118.35,92.37s-27.43,17.37-42.05,52.11"/>
</svg>
