<?xml version='1.0' encoding='UTF-8'?>
<svg xmlns="http://www.w3.org/2000/svg" id="h" data-name="Ordinateur mac" viewBox="0 0 453.54 453.54">
  <defs>
    <style>
      .bu {
        fill: #5F1972;
        stroke-width: 0px;
      }
    </style>
  </defs>
  <ellipse class="bu" cx="226.67" cy="99.73" rx="8.1" ry="8.07"/>
  <path class="bu" d="M420.1,120.18l.35,2.54c-.05-.87-.17-1.71-.35-2.54ZM65.43,122.58l.34-2.4c-.17.78-.29,1.58-.34,2.4ZM65.48,323.81c.06.61.16,1.22.29,1.81l-.29-1.81Z"/>
  <path class="bu" d="M420.48,123.68v10.57h.09l-.09-10.57Z"/>
  <path class="bu" d="M414.62,99.09c-1.96-12.77-12.59-22.71-25.67-23.61-.64-.06-1.29-.08-1.95-.08H68.32c-.65,0-1.3.02-1.95.08-13.08.9-23.7,10.85-25.66,23.61-.22,1.38-.33,2.81-.33,4.25v196.07c0,1.44.11,2.87.33,4.25,1.84,11.99,11.31,21.5,23.3,23.36,1.4.23,2.85.34,4.31.34h116.19l-6.49,39.29h-27.29c-3.29,0-5.96,2.66-5.96,5.93s2.67,5.93,5.96,5.93h153.87c3.28,0,5.95-2.65,5.95-5.93s-2.67-5.93-5.95-5.93h-27.16l-4.99-39.29h114.55c1.46,0,2.9-.11,4.31-.34,11.98-1.86,21.47-11.36,23.31-23.36.22-1.38.33-2.81.33-4.25V103.34c0-1.44-.11-2.87-.33-4.25ZM52.25,103.34c0-.37,0-.73.04-1.09.05-.81.17-1.6.34-2.37,1.47-6.7,7.12-11.84,14.06-12.55.54-.05,1.09-.08,1.64-.08h318.68c.55,0,1.11.03,1.64.08,6.95.71,12.6,5.85,14.07,12.55.18.82.3,1.65.35,2.51,0,.02,0,.04,0,.07,0,.29.02.58.02.88l.09,10.44H52.25v-10.44ZM190.31,365.38l6.27-38.03h63.87l4.83,38.03h-74.97ZM403.09,299.41c0,1.19-.13,2.34-.38,3.46-1.35,6.17-6.24,11.01-12.43,12.29-1.06.22-2.15.34-3.28.34H68.32c-1.12,0-2.21-.12-3.27-.34-6.19-1.28-11.08-6.13-12.43-12.29-.13-.58-.23-1.19-.29-1.79-.06-.55-.09-1.11-.09-1.67v-11.82h350.84v11.82ZM403.09,275.74H52.25V125.64h350.84v150.09Z"/>
</svg>
