<?xml version='1.0' encoding='UTF-8'?>
<svg xmlns="http://www.w3.org/2000/svg" id="e" data-name="Checklist" viewBox="0 0 453.54 453.54">
  <defs>
    <style>
      .am {
        fill: #5F1972;
        stroke-width: 0px;
      }
    </style>
  </defs>
  <path class="am" d="M347.58,67.61h-83.97v-15.1c0-9.82-7.96-17.79-17.79-17.79h-35.46c-9.82,0-17.79,7.96-17.79,17.79v15.1h-83.97c-3.31,0-6,2.69-6,6v339.15c0,3.31,2.69,6,6,6h238.98c3.31,0,6-2.69,6-6V73.61c0-3.31-2.69-6-6-6ZM226.54,48.72c5.05,0,9.15,4.1,9.15,9.15s-4.1,9.15-9.15,9.15-9.15-4.1-9.15-9.15,4.1-9.15,9.15-9.15ZM341.58,406.76H114.61V79.61h46.7v30.75h133.57v-30.75h46.7v327.15Z"/>
  <path class="am" d="M308.31,157.79l-32.54,33.75-14.75-14.75c-2.34-2.34-6.14-2.34-8.49,0-2.34,2.34-2.34,6.14,0,8.49l19.07,19.07c1.12,1.12,2.65,1.76,4.24,1.76h.05c1.61-.01,3.15-.68,4.26-1.83l36.78-38.15c2.3-2.39,2.23-6.18-.15-8.48-2.38-2.3-6.18-2.23-8.48.15Z"/>
  <path class="am" d="M262.71,287.19c1.17,1.17,2.71,1.76,4.24,1.76s3.07-.59,4.24-1.76l13.47-13.47,13.47,13.47c1.17,1.17,2.71,1.76,4.24,1.76s3.07-.59,4.24-1.76c2.34-2.34,2.34-6.14,0-8.48l-13.47-13.47,13.47-13.47c2.34-2.34,2.34-6.14,0-8.48-2.34-2.34-6.14-2.34-8.48,0l-13.47,13.47-13.47-13.47c-2.34-2.34-6.14-2.34-8.48,0-2.34,2.34-2.34,6.14,0,8.48l13.47,13.47-13.47,13.47c-2.34,2.34-2.34,6.14,0,8.48Z"/>
  <path class="am" d="M306.62,323.75c-2.34-2.34-6.14-2.34-8.49,0l-13.47,13.47-13.47-13.47c-2.34-2.34-6.14-2.34-8.49,0s-2.34,6.14,0,8.49l13.47,13.47-13.47,13.47c-2.34,2.34-2.34,6.14,0,8.49,1.17,1.17,2.71,1.76,4.24,1.76s3.07-.59,4.24-1.76l13.47-13.47,13.47,13.47c1.17,1.17,2.71,1.76,4.24,1.76s3.07-.59,4.24-1.76c2.34-2.34,2.34-6.14,0-8.49l-13.47-13.47,13.47-13.47c2.34-2.34,2.34-6.14,0-8.49Z"/>
  <path class="am" d="M208.77,185.34h-63.39c-3.31,0-6,2.69-6,6s2.69,6,6,6h63.39c3.31,0,6-2.69,6-6s-2.69-6-6-6Z"/>
  <path class="am" d="M208.77,261.54h-63.39c-3.31,0-6,2.69-6,6s2.69,6,6,6h63.39c3.31,0,6-2.69,6-6s-2.69-6-6-6Z"/>
  <path class="am" d="M208.77,338.5h-63.39c-3.31,0-6,2.69-6,6s2.69,6,6,6h63.39c3.31,0,6-2.69,6-6s-2.69-6-6-6Z"/>
</svg>
