<?xml version='1.0' encoding='UTF-8'?>
<svg xmlns="http://www.w3.org/2000/svg" id="i" data-name="Entreprise" viewBox="0 0 453.54 453.54">
  <defs>
    <style>
      .ak {
        stroke-linejoin: round;
      }

      .ak, .al {
        fill: none;
        stroke: #144179;
        stroke-linecap: round;
        stroke-width: 12px;
      }

      .al {
        stroke-miterlimit: 10;
      }
    </style>
  </defs>
  <polygon class="ak" points="37.28 303.96 74.8 268.5 74.8 303.96 113.12 266.29 113.12 230.03 155.84 230.03 156.27 412.96 37.28 412.96 37.28 303.96"/>
  <polygon class="ak" points="156.13 412.45 156.13 114.43 299.34 114.43 298.93 233.64 416.1 233.64 416.47 412.43 156.13 412.45"/>
  <line class="ak" x1="298.38" y1="233.64" x2="298.8" y2="409.35"/>
  <line class="ak" x1="332.18" y1="266.13" x2="346.29" y2="266.13"/>
  <line class="ak" x1="377.25" y1="266.29" x2="391.35" y2="266.29"/>
  <line class="ak" x1="332.18" y1="304.3" x2="346.29" y2="304.3"/>
  <line class="ak" x1="332.18" y1="342.47" x2="346.29" y2="342.47"/>
  <line class="ak" x1="332.18" y1="380.65" x2="346.29" y2="380.65"/>
  <line class="ak" x1="377.25" y1="304.41" x2="391.35" y2="304.41"/>
  <line class="ak" x1="377.25" y1="342.53" x2="391.35" y2="342.53"/>
  <line class="ak" x1="377.25" y1="380.65" x2="391.35" y2="380.65"/>
  <path class="al" d="M193.79,412.36v-38.17s1.26-26.67,32.52-27.43c33.3-.82,34.08,29.19,34.08,29.19v34.66"/>
  <line class="ak" x1="245.94" y1="289.44" x2="245.94" y2="318.47"/>
  <line class="ak" x1="205.27" y1="289.44" x2="205.27" y2="318.47"/>
  <line class="ak" x1="245.94" y1="213.87" x2="245.94" y2="242.9"/>
  <line class="ak" x1="205.27" y1="213.87" x2="205.27" y2="242.9"/>
  <line class="ak" x1="247.43" y1="138.3" x2="247.43" y2="167.33"/>
  <line class="ak" x1="206.76" y1="138.3" x2="206.76" y2="167.33"/>
</svg>
