<?xml version='1.0' encoding='UTF-8'?>
<svg xmlns="http://www.w3.org/2000/svg" id="h" data-name="Entreprise environnement" viewBox="0 0 453.54 453.54">
  <defs>
    <style>
      .ak {
        fill: #144179;
        stroke-width: 0px;
      }
    </style>
  </defs>
  <path class="ak" d="M129.74,198.41c-3.28,0-5.95-2.66-5.95-5.95v-13.85c0-3.28,2.66-5.95,5.95-5.95s5.95,2.66,5.95,5.95v13.85c0,3.28-2.66,5.95-5.95,5.95Z"/>
  <path class="ak" d="M153.74,198.41c-3.28,0-5.95-2.66-5.95-5.95v-13.85c0-3.28,2.66-5.95,5.95-5.95s5.95,2.66,5.95,5.95v13.85c0,3.28-2.66,5.95-5.95,5.95Z"/>
  <path class="ak" d="M177.74,198.41c-3.28,0-5.95-2.66-5.95-5.95v-13.85c0-3.28,2.66-5.95,5.95-5.95s5.95,2.66,5.95,5.95v13.85c0,3.28-2.66,5.95-5.95,5.95Z"/>
  <path class="ak" d="M201.74,198.41c-3.28,0-5.95-2.66-5.95-5.95v-13.85c0-3.28,2.66-5.95,5.95-5.95s5.95,2.66,5.95,5.95v13.85c0,3.28-2.66,5.95-5.95,5.95Z"/>
  <path class="ak" d="M129.74,236.41c-3.28,0-5.95-2.66-5.95-5.95v-13.85c0-3.28,2.66-5.95,5.95-5.95s5.95,2.66,5.95,5.95v13.85c0,3.28-2.66,5.95-5.95,5.95Z"/>
  <path class="ak" d="M153.74,236.41c-3.28,0-5.95-2.66-5.95-5.95v-13.85c0-3.28,2.66-5.95,5.95-5.95s5.95,2.66,5.95,5.95v13.85c0,3.28-2.66,5.95-5.95,5.95Z"/>
  <path class="ak" d="M177.74,236.41c-3.28,0-5.95-2.66-5.95-5.95v-13.85c0-3.28,2.66-5.95,5.95-5.95s5.95,2.66,5.95,5.95v13.85c0,3.28-2.66,5.95-5.95,5.95Z"/>
  <path class="ak" d="M201.74,236.41c-3.28,0-5.95-2.66-5.95-5.95v-13.85c0-3.28,2.66-5.95,5.95-5.95s5.95,2.66,5.95,5.95v13.85c0,3.28-2.66,5.95-5.95,5.95Z"/>
  <path class="ak" d="M115.74,299.41c-3.28,0-5.95-2.66-5.95-5.95v-13.85c0-3.28,2.66-5.95,5.95-5.95s5.95,2.66,5.95,5.95v13.85c0,3.28-2.66,5.95-5.95,5.95Z"/>
  <path class="ak" d="M139.74,299.41c-3.28,0-5.95-2.66-5.95-5.95v-13.85c0-3.28,2.66-5.95,5.95-5.95s5.95,2.66,5.95,5.95v13.85c0,3.28-2.66,5.95-5.95,5.95Z"/>
  <path class="ak" d="M163.74,299.41c-3.28,0-5.95-2.66-5.95-5.95v-13.85c0-3.28,2.66-5.95,5.95-5.95s5.95,2.66,5.95,5.95v13.85c0,3.28-2.66,5.95-5.95,5.95Z"/>
  <path class="ak" d="M115.74,337.41c-3.28,0-5.95-2.66-5.95-5.95v-13.85c0-3.28,2.66-5.95,5.95-5.95s5.95,2.66,5.95,5.95v13.85c0,3.28-2.66,5.95-5.95,5.95Z"/>
  <path class="ak" d="M139.74,337.41c-3.28,0-5.95-2.66-5.95-5.95v-13.85c0-3.28,2.66-5.95,5.95-5.95s5.95,2.66,5.95,5.95v13.85c0,3.28-2.66,5.95-5.95,5.95Z"/>
  <path class="ak" d="M163.74,337.41c-3.28,0-5.95-2.66-5.95-5.95v-13.85c0-3.28,2.66-5.95,5.95-5.95s5.95,2.66,5.95,5.95v13.85c0,3.28-2.66,5.95-5.95,5.95Z"/>
  <path class="ak" d="M411.7,370.46h-97.05c.26-.59.41-1.25.41-1.94v-102.39c3.31,9.45,18.78,15.86,32.8,13.38,10.85-1.91,19.75-9.9,26.74-23.45l.1-.19c.93-1.79.54-3.99-.94-5.36l-.17-.15c-11.19-10.34-22.29-14.8-33.14-12.89-12.32,2.17-22.74,11.18-25.39,20.32v-40.25c.06-1.7.27-3.17.62-4.44l.24-.08c10.4,7.16,29.78,7.24,44.46-1.24,8.49-4.9,14.65-12.9,18.53-23.84,2.08-5.85,3.51-12.53,4.3-20.03l.06-.53c.2-1.89-.84-3.68-2.57-4.45l-.48-.21c-.44-.19-.87-.38-1.3-.56-19.23-8.28-35.37-8.96-48.11-1.61-16.71,9.65-25.93,29.83-21.75,43.28l-2.46,3.33c-.52-1.91.1.55-.24-.99-.62-2.28-1.71-4.56-3.19-6.74-4.78-7.1-13.6-13.14-23.59-14.91-11.41-2.01-23.08,2.68-34.85,13.56l-.29.27c-1.49,1.37-1.88,3.57-.95,5.37l.18.35c7.35,14.24,16.7,22.64,28.12,24.66,12.04,2.12,25.11-1.99,31.38-8.99.98-1.09,1.79-2.25,2.41-3.46-.03.36-.05.72-.06,1.08v151.16c0,.69.15,1.35.42,1.94h-74.02v-215.5c0-2.97-2.16-5.44-5-5.91-.32-.06-.66-.09-1-.09h-120.5c-3.31,0-6,2.69-6,6v94.5h-7c-3.31,0-6,2.69-6,6v115h-44.29c-3.05,0-5.77,2.19-6.16,5.21-.47,3.66,2.38,6.79,5.95,6.79h370c3.57,0,6.42-3.13,5.95-6.79-.39-3.03-3.11-5.21-6.16-5.21ZM342.11,246.88c5.78-1.02,12.01.72,18.75,5.42,2.04,1.42,2.54,4.26,1.11,6.29-4.73,6.73-10,10.48-15.77,11.5-5.5.97-11.33.15-16.02-2.03-3.85-1.8-6.1-4.16-6.22-5.57-.43-5.27,7.82-13.8,18.15-15.62ZM335.89,169.37c8.4-4.85,19.35-5.02,33.07-.19,2.16.76,3.45,3,3.03,5.25-2.68,14.29-8.3,23.69-16.7,28.55-13.83,7.98-32.86,5.91-36.09-1.04-3.78-8.16,3.21-24.78,16.69-32.56ZM290.37,216.69c-4.93,2.29-11.06,3.16-16.85,2.14-6.12-1.08-11.69-5.08-16.69-12.25-1.43-2.05-.93-4.91,1.12-6.35,7.16-5.04,13.76-6.89,19.88-5.81,10.85,1.91,19.52,10.88,19.07,16.42-.12,1.48-2.48,3.96-6.53,5.85ZM183.91,369.62h-85.5v-108.16h85.5v108.16ZM219.91,369.62h-24v-114.16c0-3.31-2.69-6-6-6h-78.5v-88.5h108.5v208.66Z"/>
  <path class="ak" d="M411.91,419.46H41.91c-3.31,0-6-2.69-6-6s2.69-6,6-6h370c3.31,0,6,2.69,6,6s-2.69,6-6,6Z"/>
  <path class="ak" d="M393.55,327.22l3.54,2.54c1.81,1.3,1.54,4.08-.5,5l-23.57,10.64c-2.03.92-4.3-.71-4.08-2.93l2.57-25.73c.22-2.22,2.76-3.37,4.58-2.07l2.93,2.11c1.39,1,3.36.59,4.2-.9,21.35-37.62,28.22-81.29,19.32-123.92-3.72-17.82-10.07-34.83-18.87-50.57-1.62-2.89-.58-6.55,2.31-8.16,2.89-1.62,6.55-.59,8.17,2.3,9.39,16.8,16.17,34.97,20.14,53.98,9.62,46.12,1.96,93.37-21.55,133.9-.75,1.29-.41,2.94.8,3.82Z"/>
  <path class="ak" d="M318.88,76.89l2.21-3.08c.98-1.36.57-3.28-.88-4.11-37.64-21.38-81.33-28.26-123.98-19.35-17.82,3.72-34.84,10.07-50.57,18.87-2.9,1.61-6.55.58-8.17-2.31-1.62-2.89-.58-6.55,2.31-8.17,16.8-9.39,34.96-16.17,53.98-20.14,46.14-9.62,93.41-1.96,133.95,21.58,1.27.73,2.88.4,3.73-.79l2.64-3.67c1.27-1.77,3.99-1.5,4.89.49l10.72,23.77c.9,1.99-.69,4.2-2.87,3.99l-25.94-2.59c-2.17-.22-3.29-2.7-2.02-4.47Z"/>
  <path class="ak" d="M87.28,106.23l-2.59,25.95c-.22,2.17-2.7,3.29-4.48,2.02l-3.08-2.21c-1.36-.98-3.29-.58-4.11.88-21.37,37.65-28.26,81.34-19.36,123.99,3.72,17.82,10.07,34.84,18.87,50.57,1.62,2.89.58,6.55-2.31,8.16-.93.52-1.93.77-2.92.77-2.11,0-4.15-1.11-5.24-3.07-9.4-16.8-16.18-34.96-20.15-53.98-9.62-46.14-1.96-93.41,21.58-133.95.73-1.27.4-2.88-.79-3.73l-3.67-2.64c-1.77-1.27-1.5-3.99.49-4.89l23.77-10.73c1.99-.9,4.2.69,3.99,2.86Z"/>
</svg>
