<?xml version='1.0' encoding='UTF-8'?>
<svg xmlns="http://www.w3.org/2000/svg" id="b" data-name="Petrol" viewBox="0 0 453.54 453.54">
  <defs>
    <style>
      .ak {
        fill: #fff;
      }

      .ak, .al {
        stroke: #144179;
        stroke-linecap: round;
        stroke-linejoin: round;
        stroke-width: 12px;
      }

      .al {
        fill: none;
      }
    </style>
  </defs>
  <path class="al" d="M152.29,73.4l-36.66,105.58c-2.22,6.64-9.41,10.21-16.04,7.99h0c-18.26-6.12-29.13-24.87-25.35-43.76l17.14-88.15c1.85-9.24,11.39-14.77,20.32-11.78l30.72,10.3c8.2,2.75,12.61,11.62,9.87,19.82Z"/>
  <line class="al" x1="40.13" y1="408.81" x2="412.58" y2="408.81"/>
  <polygon class="al" points="400.81 408.81 52.75 408.81 64.09 371.13 388.65 371.13 400.81 408.81"/>
  <path class="al" d="M176.24,341.9h104.2c6.58,0,11.93,5.35,11.93,11.93v17.3h-128.06v-17.3c0-6.58,5.35-11.93,11.93-11.93Z"/>
  <path class="al" d="M334.18,341.9h31.93c6.58,0,11.92,5.34,11.92,11.92v17.3h-55.78v-17.3c0-6.58,5.34-11.92,11.92-11.92Z"/>
  <path class="al" d="M86.52,341.9h31.93c6.58,0,11.92,5.34,11.92,11.92v17.3h-55.78v-17.3c0-6.58,5.34-11.92,11.92-11.92Z"/>
  <polygon class="al" points="270.5 341.9 184.14 341.9 207.24 208.49 248.57 208.49 270.5 341.9"/>
  <line class="al" x1="204.11" y1="226.55" x2="257.73" y2="281.41"/>
  <line class="al" x1="250.24" y1="226.55" x2="196.63" y2="281.41"/>
  <line class="al" x1="196.5" y1="287.49" x2="267.81" y2="341.45"/>
  <line class="al" x1="257.86" y1="287.49" x2="186.55" y2="341.45"/>
  <path class="al" d="M368.66,219.81l-238.6-83.25,10.12-29.53,238.6,83.25c7.2,2.47,10.77,11.08,7.97,19.23h0c-2.8,8.15-10.9,12.77-18.1,10.3Z"/>
  <line class="al" x1="102.48" y1="187.89" x2="102.48" y2="341.9"/>
  <line class="al" x1="350.14" y1="216.25" x2="350.14" y2="341.9"/>
  <path class="ak" d="M227.91,155.74h0c5.95,0,10.79,4.83,10.79,10.79v41.97h-21.58v-41.97c0-5.95,4.83-10.79,10.79-10.79Z"/>
  <path class="ak" d="M227.91,155.74h0c5.95,0,10.79,4.83,10.79,10.79v41.97h-21.58v-41.97c0-5.95,4.83-10.79,10.79-10.79Z"/>
</svg>
