<?xml version='1.0' encoding='UTF-8'?>
<svg xmlns="http://www.w3.org/2000/svg" id="b" data-name="Musée visite" viewBox="0 0 453.54 453.54">
  <defs>
    <style>
      .bu {
        fill: none;
        stroke: #5F1972;
        stroke-linecap: round;
        stroke-linejoin: round;
        stroke-width: 12px;
      }

      .bv {
        fill: #5F1972;
        stroke-width: 0px;
      }
    </style>
  </defs>
  <path class="bv" d="M332.21,402.27h-20.8v-124.69c0-3.07-2.21-5.71-5.24-6.23-3.02-.5-6,1.2-7.04,4.09-4.09,11.32-13.95,30.75-23.05,34.7-1.85.81-3.41.85-5.07.13-11.31-4.84-21.04-39.51-24.35-62.58-.47-3.29-3.43-5.66-6.71-5.41-3.31.23-5.88,2.99-5.88,6.31v112.02h-19.65c-3.5,0-6.33,2.83-6.33,6.33s2.83,6.32,6.33,6.32h51.97c3.5,0,6.32-2.83,6.32-6.32s-2.83-6.33-6.32-6.33h-19.66v-62.99c4.79,11.17,11.11,20.77,19.31,24.28,4.86,2.08,10.08,2.02,15.12-.17,6.86-2.99,12.84-9.81,17.61-17.12v97.64h-20.79c-3.5,0-6.32,2.83-6.32,6.33s2.83,6.32,6.32,6.32h54.25c3.49,0,6.32-2.83,6.32-6.32,0-3.5-2.84-6.33-6.33-6.33h0Z"/>
  <polygon class="bu" points="360.15 280.04 267.82 214.09 267.82 99.78 360.15 71.93 360.15 280.04"/>
  <polyline class="bu" points="300.63 86.71 320.58 41.15 340.37 77.79"/>
  <polyline class="bu" points="270.02 180.38 297.13 126.89 323.51 195.04 360.15 137.88"/>
  <g>
    <circle class="bv" cx="191.23" cy="131.54" r="28.26"/>
    <path class="bv" d="M129.93,148.6h2.4c14.07,0,25.49,11.42,25.49,25.49v93.83h-27.89c-14.07,0-25.49-11.42-25.49-25.49v-68.34c0-14.07,11.42-25.49,25.49-25.49Z" transform="translate(160.69 -36.06) rotate(39.1)"/>
    <rect class="bv" x="83.16" y="216.81" width="35.75" height="187.03" rx="17.2" ry="17.2"/>
    <rect class="bv" x="167.46" y="160.64" width="26.36" height="92.49" rx="13.18" ry="13.18" transform="translate(-75.86 108.7) rotate(-27.93)"/>
    <rect class="bv" x="192.03" y="173.48" width="24.77" height="76.57" rx="12.38" ry="12.38" transform="translate(337.48 474.31) rotate(-162.89)"/>
  </g>
</svg>
