<?xml version='1.0' encoding='UTF-8'?>
<svg xmlns="http://www.w3.org/2000/svg" id="a" data-name="Jardinage" viewBox="0 0 453.54 453.54">
  <defs>
    <style>
      .bu {
        fill: none;
      }

      .bu, .bv {
        stroke: #5F1972;
        stroke-linecap: round;
        stroke-linejoin: round;
        stroke-width: 12px;
      }

      .bv, .bw {
        fill: #5F1972;
      }

      .bw {
        stroke-width: 0px;
      }
    </style>
  </defs>
  <g>
    <circle class="bw" cx="153.55" cy="108.32" r="35.11"/>
    <path class="bw" d="M102.3,138.03h2.98c17.48,0,31.67,14.19,31.67,31.67v116.56h-34.64c-17.48,0-31.67-14.19-31.67-31.67v-84.89c0-17.48,14.19-31.67,31.67-31.67Z" transform="translate(109.89 -23.95) rotate(27.55)"/>
    <rect class="bw" x="83.91" y="303.3" width="41.13" height="109.43" rx="19.64" ry="19.64"/>
    <rect class="bw" x="68.01" y="228.28" width="41.13" height="119.29" rx="19.64" ry="19.64" transform="translate(-109.13 60.64) rotate(-23.92)"/>
    <rect class="bw" x="132.6" y="151.21" width="32.75" height="83.52" rx="15.64" ry="15.64" transform="translate(-62.06 70.93) rotate(-22.29)"/>
    <rect class="bw" x="164.45" y="187.18" width="30.77" height="78.27" rx="14.69" ry="14.69" transform="translate(-98.42 304.65) rotate(-67.25)"/>
  </g>
  <g>
    <path class="bu" d="M371.15,187.33c0,18.09-18.35,32.76-18.35,32.76,0,0-18.35-14.67-18.35-32.76s18.35-32.76,18.35-32.76c0,0,18.35,14.67,18.35,32.76Z"/>
    <path class="bu" d="M343.27,242.43c12.42,13.15,9.14,36.42,9.14,36.42,0,0-23.41,1.94-35.83-11.22-12.42-13.15-9.14-36.42-9.14-36.42,0,0,23.41-1.94,35.83,11.22Z"/>
    <path class="bu" d="M343.27,306.99c12.42,13.15,9.14,36.42,9.14,36.42,0,0-23.41,1.94-35.83-11.22-12.42-13.15-9.14-36.42-9.14-36.42,0,0,23.41-1.94,35.83,11.22Z"/>
    <path class="bu" d="M362.34,242.43c-12.42,13.15-9.14,36.42-9.14,36.42,0,0,23.41,1.94,35.83-11.22,12.42-13.15,9.14-36.42,9.14-36.42,0,0-23.41-1.94-35.83,11.22Z"/>
    <path class="bu" d="M362.34,306.99c-12.42,13.15-9.14,36.42-9.14,36.42,0,0,23.41,1.94,35.83-11.22,12.42-13.15,9.14-36.42,9.14-36.42,0,0-23.41-1.94-35.83,11.22Z"/>
    <path class="bv" d="M313.14,402.86c5.6-9.21,17.76-15.31,39.66-15.31s32.95,6.09,39.66,15.31h-79.33Z"/>
    <line class="bu" x1="352.8" y1="220.31" x2="352.8" y2="381.35"/>
  </g>
  <g>
    <line class="bu" x1="203.41" y1="186.78" x2="203.41" y2="375.79"/>
    <polyline class="bu" points="159.96 404.51 159.96 381.22 246.86 381.22 246.86 404.51"/>
    <line class="bu" x1="182.43" y1="384.75" x2="182.43" y2="404.51"/>
    <line class="bu" x1="204.33" y1="384.75" x2="204.33" y2="404.51"/>
    <line class="bu" x1="226.22" y1="384.75" x2="226.22" y2="404.51"/>
  </g>
</svg>
