<?xml version='1.0' encoding='UTF-8'?>
<svg xmlns="http://www.w3.org/2000/svg" id="o" data-name="Livre crayon" viewBox="0 0 453.54 453.54">
  <defs>
    <style>
      .bu {
        fill: #5F1972;
        stroke-width: 0px;
      }

      .bv {
        fill: none;
        stroke: #5F1972;
        stroke-linecap: round;
        stroke-linejoin: round;
        stroke-width: 12px;
      }
    </style>
  </defs>
  <path class="bu" d="M418.15,334.9V114.29c0-.34-.03-.67-.09-1,.06-.33.09-.66.09-1v-5.03c0-11.2-9.11-20.31-20.31-20.31s-20.31,9.11-20.31,20.31v5.03c0,.34.03.67.09,1-.06.33-.09.66-.09,1v220.54c-.3,1.12-.28,2.31.09,3.44l10.8,32.74c1.3,3.92,4.96,6.56,9.12,6.6,4.16.03,7.86-2.57,9.22-6.45l11.32-32.56c.42-1.21.43-2.5.07-3.7ZM389.53,107.26c0-4.58,3.73-8.31,8.31-8.31s8.31,3.73,8.31,8.31v1.03h-16.62v-1.03ZM400.43,352.79l-5.4-.04-3.39-10.29,12.35.1-3.56,10.23ZM389.53,330.45V120.29h16.62v210.28l-16.62-.12Z"/>
  <g>
    <path class="bv" d="M71.54,132.19c-15.86-17.43-36.93-10.28-36.93-10.28v215.82c89.65-17.25,150.86,20.57,150.86,20.57h17.24s61.21-37.82,150.86-20.57V121.91s-21.07-7.15-36.93,10.28"/>
    <path class="bv" d="M194.09,319.21s-84.26-30.72-122.22-26.19V104.31s85.59,5.66,122.22,37.16v177.73Z"/>
    <path class="bv" d="M92.31,200.33s43.04-8.25,72.79,20.88"/>
    <path class="bv" d="M94.14,155.17s43.04-8.25,72.79,20.88"/>
    <path class="bv" d="M92.31,245.49s43.04-8.25,72.79,20.88"/>
    <path class="bv" d="M194.09,319.21s84.26-30.72,122.22-26.19V104.31s-85.59,5.66-122.22,37.16v177.73Z"/>
    <path class="bv" d="M295.87,200.33s-43.04-8.25-72.79,20.88"/>
    <path class="bv" d="M294.04,155.17s-43.04-8.25-72.79,20.88"/>
    <path class="bv" d="M295.87,245.49s-43.04-8.25-72.79,20.88"/>
  </g>
</svg>
