<?xml version='1.0' encoding='UTF-8'?>
<svg xmlns="http://www.w3.org/2000/svg" id="d" data-name="Avion" viewBox="0 0 453.54 453.54">
  <defs>
    <style>
      .z {
        fill: none;
        stroke: #144179;
        stroke-linecap: round;
        stroke-linejoin: round;
        stroke-width: 12px;
      }
    </style>
  </defs>
  <path class="z" d="M405.34,257.57c.05-2.2-.75-3.22-2.6-4.21-47.84-25.37-142.55-77.31-142.55-78.1,0-23.52-4.63-94.06-4.63-94.06,0-17.68-10.71-37.83-26.56-37.73-17.68.1-27.65,20.06-27.65,37.73,0,0-5.18,70.55-5.18,94.06,0,.78-94.72,52.92-142.56,78.39-1.86.99-2.65,2.01-2.6,4.21.17,7.33.07,14.67.08,22.01,0,1.43,1.3,2.52,2.71,2.26,50.12-8.94,99.99-17.83,149.94-26.74.81-.14,1.58.43,1.64,1.24,0,0,0,.02,0,.03.65,9.13,1.02,18.28,1.87,27.4,2.28,24.54,4.75,49.06,7.26,73.58.22,2.11-.12,3.3-2.1,4.41-12.72,7.13-25.35,14.39-37.99,21.66-.79.45-1.88,1.32-1.9,2.01-.13,5.06-.09,10.13-.08,15.37,0,1.25,1.21,2.15,2.41,1.81,15.12-4.31,29.93-8.53,44.86-12.79.41,1.69.62,3.03,1.06,4.29,1.59,4.51,2.99,9.11,5,13.44.65,1.41,1.58,2.06,2.53,2,.95.06,1.88-.6,2.53-2,2-4.32,3.39-8.93,4.97-13.44.44-1.26.65-2.6,1.06-4.29,14.94,4.23,29.75,8.43,44.88,12.71,1.2.34,2.4-.56,2.41-1.81,0-5.24.03-10.3-.1-15.37-.02-.7-1.11-1.56-1.9-2.01-12.65-7.25-25.3-14.49-38.02-21.6-1.98-1.11-2.32-2.3-2.11-4.41,2.46-24.52,4.89-49.05,7.13-73.59.83-9.12,1.18-18.27,1.82-27.4,0,0,0-.02,0-.03.06-.82.83-1.39,1.64-1.25,49.96,8.82,99.84,17.63,149.98,26.49,1.41.25,2.71-.84,2.7-2.27,0-7.34-.11-14.67.04-22.01Z"/>
</svg>
