<?xml version='1.0' encoding='UTF-8'?>
<svg xmlns="http://www.w3.org/2000/svg" id="q" data-name="Bateau profil" viewBox="0 0 453.54 453.54">
  <defs>
    <style>
      .z {
        fill: #144179;
        stroke-width: 0px;
      }

      .aa {
        stroke-linecap: round;
        stroke-linejoin: round;
      }

      .aa, .ab {
        fill: none;
        stroke: #144179;
        stroke-width: 12px;
      }

      .ab {
        stroke-miterlimit: 10;
      }
    </style>
  </defs>
  <g>
    <polygon class="aa" points="40.66 223.07 412 223.07 388.13 265.23 74.19 265.23 40.66 223.07"/>
    <polygon class="aa" points="389.13 222.98 389.13 201.25 358.96 171.49 333.83 171.49 183.39 171.49 163.96 158.96 119.39 158.96 63.54 222.98 389.13 222.98"/>
    <polygon class="aa" points="328.07 171.43 315.37 142.98 172.62 142.98 163.96 158.96 163.96 158.96 183.39 171.49 328.07 171.43"/>
    <rect class="z" x="130.25" y="192.72" width="11.51" height="11.28"/>
    <rect class="z" x="178.66" y="192.72" width="11.51" height="11.28"/>
    <rect class="z" x="227.06" y="192.72" width="11.51" height="11.28"/>
    <rect class="z" x="275.46" y="192.72" width="11.51" height="11.28"/>
    <rect class="z" x="323.86" y="192.72" width="11.51" height="11.28"/>
    <rect class="aa" x="269.19" y="117.89" width="33.02" height="24.89"/>
    <line class="aa" x1="259.19" y1="117.86" x2="312.2" y2="117.86"/>
    <path class="aa" d="M200.04,121.8h0c6.55,0,11.87,5.32,11.87,11.87v9.39h-24.13v-9.01c0-6.76,5.49-12.26,12.26-12.26Z"/>
  </g>
  <g>
    <path class="ab" d="M38.06,335.86c10.1.17,19.72,2.54,28.9,6.6,28.61,12.67,57.05,12.38,85.8.07,22.66-9.7,45.8-9.7,68.49.03,28.74,12.33,57.22,12.52,85.8-.15,16.04-7.11,32.88-8.45,49.84-5.33,8.71,1.6,17.14,5.07,25.49,8.23,11.41,4.31,23.05,6.61,35.52,6.29"/>
    <path class="ab" d="M38.06,296.09c10.1.17,19.72,2.54,28.9,6.6,28.61,12.67,57.05,12.38,85.8.07,22.66-9.7,45.8-9.7,68.49.03,28.74,12.33,57.22,12.52,85.8-.15,16.04-7.11,32.88-8.45,49.84-5.33,8.71,1.6,17.14,5.07,25.49,8.23,11.41,4.31,23.05,6.61,35.52,6.29"/>
  </g>
</svg>
