<?xml version='1.0' encoding='UTF-8'?>
<svg xmlns="http://www.w3.org/2000/svg" id="a" data-name="Perso alcoolique" viewBox="0 0 453.54 453.54">
  <defs>
    <style>
      .ap {
        fill: #008280;
        stroke-width: 0px;
      }

      .aq {
        fill: none;
      }

      .aq, .ar {
        stroke: #008280;
        stroke-linecap: round;
        stroke-linejoin: round;
        stroke-width: 4px;
      }

      .ar {
        fill: #fff;
      }
    </style>
  </defs>
  <g>
    <path class="ar" d="M120.7,412.53c3.67-.12,3.55-2.28,3.55-2.28,0,0,0-43.03,0-45.91,0-2.88-1.92-5.53-4.21-7.21-2.28-1.68-2.88-5.41-2.88-5.41v-6.61s-9.62,0-9.62,0v6.61s-.6,3.73-2.88,5.41c-2.28,1.68-4.21,4.33-4.21,7.21v45.91s-.12,2.16,3.55,2.28c3.67.12,13.04.12,16.71,0Z"/>
    <path class="ar" d="M117.31,341.98v-5.89s.65-.84-1.69-.72c-2.34.12-4.16.12-6.5,0s-1.69.72-1.69.72v5.89h9.88Z"/>
    <path class="aq" d="M100.45,373.95s9.62,2.88,23.8,0"/>
    <path class="aq" d="M100.45,399.73s9.62,2.88,23.8,0"/>
  </g>
  <g>
    <path class="ar" d="M152.8,412.53c3.67-.12,3.55-2.28,3.55-2.28,0,0,0-43.03,0-45.91,0-2.88-1.92-5.53-4.21-7.21-2.28-1.68-2.88-5.41-2.88-5.41v-6.61s-9.62,0-9.62,0v6.61s-.6,3.73-2.88,5.41c-2.28,1.68-4.21,4.33-4.21,7.21v45.91s-.12,2.16,3.55,2.28c3.67.12,13.04.12,16.71,0Z"/>
    <path class="ar" d="M149.41,341.98v-5.89s.65-.84-1.69-.72c-2.34.12-4.16.12-6.5,0s-1.69.72-1.69.72v5.89h9.88Z"/>
    <path class="aq" d="M132.55,373.95s9.62,2.88,23.8,0"/>
    <path class="aq" d="M132.55,399.73s9.62,2.88,23.8,0"/>
  </g>
  <g>
    <path class="ar" d="M279.19,409.07c.12,3.67,2.28,3.55,2.28,3.55,0,0,43.03,0,45.91,0,2.88,0,5.53-1.92,7.21-4.21,1.68-2.28,5.41-2.88,5.41-2.88h6.61s0-9.62,0-9.62h-6.61s-3.73-.6-5.41-2.88c-1.68-2.28-4.33-4.21-7.21-4.21h-45.91s-2.16-.12-2.28,3.55c-.12,3.67-.12,13.04,0,16.71Z"/>
    <path class="ar" d="M349.75,405.68h5.89s.84.65.72-1.69c-.12-2.34-.12-4.16,0-6.5.12-2.34-.72-1.69-.72-1.69h-5.89v9.88Z"/>
    <path class="aq" d="M317.78,388.82s-2.88,9.62,0,23.8"/>
    <path class="aq" d="M291.99,388.82s-2.88,9.62,0,23.8"/>
  </g>
  <g>
    <path class="ap" d="M197.84,145.53h55.88c4.8,0,8.69,3.89,8.69,8.69v115.89h-73.26v-115.89c0-4.8,3.89-8.69,8.69-8.69Z" transform="translate(32.5 -30.53) rotate(8.33)"/>
    <path class="ap" d="M191.23,410.94h0c-8.36,1.01-15.84-3.92-16.69-11.02l4.57-106.65,1.27-29.62c-.86-7.1,5.23-13.67,13.59-14.68h0c8.36-1.01,15.84,3.92,16.69,11.02l-1.46,34.14-4.38,102.13c.86,7.1-5.23,13.67-13.59,14.68Z"/>
    <path class="ap" d="M250.88,412.61h0c-9.02.26-17.17-6.78-17.43-15.8l-14.84-68.44,4.81-94.78c-.26-9.02,6.84-16.54,15.86-16.81h0c9.02-.26,16.54,6.84,16.81,15.86l-6.16,94.78,14.84,68.44c.26,9.02-4.86,16.49-13.88,16.75Z"/>
    <rect class="ap" x="167.11" y="102.97" width="22.44" height="70.38" rx="11.22" ry="11.22" transform="translate(-30.49 223.52) rotate(-60)"/>
    <rect class="ap" x="149.4" y="74.19" width="22.44" height="64.07" rx="10.71" ry="10.71" transform="translate(307.33 230.95) rotate(-173.11)"/>
    <rect class="ap" x="263.5" y="145.21" width="22.44" height="70.38" rx="11.22" ry="11.22" transform="translate(-52.61 209.9) rotate(-38.44)"/>
    <rect class="ap" x="283.51" y="192.11" width="22.44" height="64.07" rx="10.71" ry="10.71" transform="translate(-24.77 36.98) rotate(-6.89)"/>
    <circle class="ap" cx="244.38" cy="110.5" r="29.7"/>
  </g>
  <g>
    <path class="ar" d="M140.87,53.2c-1.43,3.38.59,4.18.59,4.18,0,0,39.08,18.01,41.7,19.22,2.62,1.21,5.83.57,8.31-.8,2.48-1.37,6.12-.36,6.12-.36l6,2.77,4.03-8.73-6-2.77s-3.13-2.11-3.7-4.88c-.57-2.78-2.17-5.63-4.79-6.84-2.62-1.21-41.7-19.22-41.7-19.22,0,0-1.91-1.01-3.56,2.26-1.64,3.28-5.57,11.79-6.99,15.17Z"/>
    <path class="ar" d="M206.36,79.66l5.35,2.47s.49.94,1.36-1.23c.87-2.18,1.63-3.83,2.72-5.91s.05-1.84.05-1.84l-5.35-2.47-4.14,8.98Z"/>
    <path class="aq" d="M184.39,50.96s-6.65,7.52-9.96,21.61"/>
    <path class="aq" d="M160.97,40.17s-6.65,7.52-9.96,21.61"/>
  </g>
  <circle class="ap" cx="294.73" cy="90.12" r="7.83"/>
  <circle class="ap" cx="272.42" cy="65.6" r="6.68"/>
  <circle class="ap" cx="302.56" cy="57.05" r="10.6"/>
</svg>
