<?xml version='1.0' encoding='UTF-8'?>
<svg xmlns="http://www.w3.org/2000/svg" id="l" data-name="Masque covid" viewBox="0 0 453.54 453.54">
  <defs>
    <style>
      .ap {
        fill: #008280;
        opacity: .5;
        stroke-width: 0px;
      }

      .aq {
        stroke-linecap: round;
        stroke-linejoin: round;
      }

      .aq, .ar {
        fill: none;
        stroke: #008280;
        stroke-width: 12px;
      }

      .ar {
        stroke-miterlimit: 10;
      }
    </style>
  </defs>
  <path class="ap" d="M152.66,268.05c-2.78,0-5.28-1.95-5.87-4.78-.67-3.24,1.41-6.42,4.65-7.1l55.55-11.55c14.11-2.94,28.43-2.94,42.54,0l55.56,11.55c3.24.67,5.33,3.85,4.65,7.1-.67,3.24-3.85,5.33-7.1,4.65l-55.56-11.55c-12.49-2.6-25.16-2.6-37.66,0l-55.55,11.55c-.41.09-.82.13-1.23.13Z"/>
  <path class="ap" d="M152.66,319.21c-2.78,0-5.28-1.95-5.87-4.78-.67-3.24,1.41-6.42,4.65-7.1l55.55-11.55c14.12-2.94,28.43-2.94,42.54,0l55.56,11.55c3.24.67,5.33,3.85,4.65,7.1-.67,3.24-3.85,5.33-7.1,4.65l-55.56-11.55c-12.49-2.6-25.16-2.6-37.66,0l-55.55,11.55c-.41.09-.82.13-1.23.13Z"/>
  <path class="ar" d="M65.03,278.11s-25.79-1-25.79-26v-91.67c0-6.6,1-11.95,12-12s25.79,11.33,25.79,29v88.67c0,6.6-5.4,12-12,12Z"/>
  <path class="ar" d="M390.88,278.11s25.79-1,25.79-26v-91.67c0-6.6-1-11.95-12-12-10.99-.05-25.79,11.33-25.79,29v88.67c0,6.6,5.4,12,12,12Z"/>
  <polyline class="aq" points="228.52 248.11 219.56 248.11 153.23 262.06"/>
  <polyline class="aq" points="228.52 299.41 219.56 299.41 153.23 313.37"/>
  <path class="aq" d="M226.7,195.77c5.64,0,12.64-.21,20.5,1.16,48.89,8.5,131.44,40.17,131.44,40.17l-1,33.21c-27.31,105.1-120.64,105.1-120.64,105.1h-29.54s.98,0,.98,0h-29.54s-93.33,0-120.64-105.1l-1-33.21s82.55-31.67,131.44-40.17c7.87-1.37,14.86-1.16,20.5-1.16h-2.5Z"/>
  <polyline class="aq" points="227.39 248.11 236.34 248.11 302.68 262.06"/>
  <polyline class="aq" points="227.39 299.41 236.34 299.41 302.68 313.37"/>
</svg>
