<?xml version='1.0' encoding='UTF-8'?>
<svg xmlns="http://www.w3.org/2000/svg" id="ac" data-name="Balance poids" viewBox="0 0 453.54 453.54">
  <defs>
    <style>
      .ap {
        fill: #fff;
        stroke-width: 12.55px;
      }

      .ap, .aq {
        stroke: #008280;
        stroke-linecap: round;
        stroke-linejoin: round;
      }

      .aq {
        fill: #008280;
        stroke-width: 6.28px;
      }
    </style>
  </defs>
  <path class="ap" d="M58.96,408.44h326.38l30.47-324.77s-194.86-60.95-379.3,4.01l22.45,320.76Z"/>
  <path class="ap" d="M97.56,70.54l73.16,90.91h103.96l73.12-93.07s-113.8-26.99-250.23,2.17Z"/>
  <polygon class="aq" points="215.16 149.42 251.42 101.3 251.42 149.42 215.16 149.42"/>
  <g>
    <path class="aq" d="M162.75,377.9c-8.03,12.97-27.67,10.62-33.04-3.65-8.15-21.66-26.37-68.82-38.03-89.53-15.4-27.34,32.57-57.35,53.16-51.2,18.3,5.47,22.12,31.94-5.33,47.6-7.85,4.48-10.98,14.19-7.78,22.64,4.24,11.19,12.95,27.54,30.81,48.29,3.98,4.62,5.6,10.91,4.01,16.8-.8,2.95-1.99,6.15-3.79,9.05Z"/>
    <ellipse class="aq" cx="148.69" cy="209.62" rx="11.84" ry="15.55" transform="translate(-25.65 20.79) rotate(-7.37)"/>
    <path class="aq" d="M122.38,200.9s-13.5-3.71-16.53,12.54c0,0-14.71-1.08-14.01,14.62,0,0-10.3,1.11-10.51,14.01,0,0-8.71,10.12.24,16.99,0,0,14.18-28.8,48.1-37.75,0,0,2.41-19.23-7.28-20.4Z"/>
  </g>
  <g>
    <path class="aq" d="M270.59,375.81c6.27,13.91,26.05,14.14,33.24.69,10.91-20.41,35.12-64.79,49.39-83.8,18.84-25.09-24.8-61.11-46.02-57.7-18.86,3.03-26.1,28.78-.93,47.88,7.2,5.46,9.04,15.5,4.76,23.46-5.66,10.54-16.43,25.62-36.84,43.85-4.55,4.06-6.97,10.09-6.17,16.14.4,3.03,1.17,6.35,2.58,9.47Z"/>
    <ellipse class="aq" cx="306.5" cy="210.8" rx="15.55" ry="11.84" transform="translate(24.12 452.97) rotate(-75.13)"/>
    <path class="aq" d="M333.72,205.58s13.87-1.92,14.76,14.59c0,0,14.73.85,11.98,16.32,0,0,10.06,2.45,8.6,15.26,0,0,7.32,11.18-2.45,16.81,0,0-10.3-30.41-42.76-43.71,0,0,.12-19.38,9.88-19.27Z"/>
  </g>
</svg>
