<?xml version='1.0' encoding='UTF-8'?>
<svg xmlns="http://www.w3.org/2000/svg" id="ab" data-name="Signe pharmacie" viewBox="0 0 453.54 453.54">
  <defs>
    <style>
      .ap {
        stroke-linecap: round;
        stroke-linejoin: round;
      }

      .ap, .aq {
        fill: none;
        stroke: #008280;
        stroke-width: 12px;
      }

      .aq {
        stroke-miterlimit: 10;
      }
    </style>
  </defs>
  <circle class="aq" cx="230.96" cy="114.1" r="25.65"/>
  <line class="ap" x1="230.96" y1="139.75" x2="230.96" y2="404.44"/>
  <path class="ap" d="M169.75,314.1c-16.34,0-29.58-12.31-29.58-27.5s13.24-27.5,29.58-27.5"/>
  <path class="ap" d="M260.83,314.1c13.9,0,25.17,10.52,25.17,23.5s-11.27,23.5-25.17,23.5"/>
  <path class="ap" d="M222.33,406.95c-13.9,0-25.17-10.11-25.17-22.57s10.95-23.27,26.28-23.27"/>
  <path class="ap" d="M230.41,223.1h-66.74s-39-.33-39-38c0,0-38.67-4.33-38.67-39.33,0,0-39.15-7.17-39.15-37.75h91.28s42.87,8.34,42.87,46.13,49.41,31.29,49.41,31.29v37.67Z"/>
  <path class="ap" d="M230.92,223.1h65.74s39-.33,39-38c0,0,38.67-4.33,38.67-39.33,0,0,39.15-7.17,39.15-37.75h-91.28s-42.87,8.34-42.87,46.13c0,37.79-48.41,31.29-48.41,31.29v37.67Z"/>
  <line class="ap" x1="169.75" y1="259.1" x2="203.77" y2="259.1"/>
  <line class="ap" x1="169.75" y1="314.1" x2="260.83" y2="314.1"/>
  <line class="ap" x1="260.83" y1="361.1" x2="223.45" y2="361.1"/>
  <line class="ap" x1="222.33" y1="406.95" x2="245.11" y2="406.95"/>
</svg>
