<?xml version='1.0' encoding='UTF-8'?>
<svg xmlns="http://www.w3.org/2000/svg" id="i" data-name="Pharmacie" viewBox="0 0 453.54 453.54">
  <defs>
    <style>
      .ap {
        stroke-linecap: round;
        stroke-linejoin: round;
      }

      .ap, .aq {
        fill: none;
        stroke: #008280;
        stroke-width: 12px;
      }

      .ar {
        fill: #008280;
        stroke-width: 0px;
      }

      .aq {
        stroke-miterlimit: 10;
      }
    </style>
  </defs>
  <line class="ap" x1="44.8" y1="42.19" x2="44.8" y2="411.28"/>
  <line class="aq" x1="44.8" y1="114.73" x2="102.04" y2="114.73"/>
  <line class="aq" x1="44.8" y1="315.57" x2="102.04" y2="315.57"/>
  <rect class="ap" x="101.6" y="62.41" width="307.7" height="307.7"/>
  <path class="ar" d="M357.86,163.99h-46.39c-3.33,0-6.02-2.7-6.02-6.02v-46.39c0-3.33-2.7-6.02-6.02-6.02h-89.23c-3.33,0-6.02,2.7-6.02,6.02v46.39c0,3.33-2.7,6.02-6.02,6.02h-46.39c-3.33,0-6.02,2.7-6.02,6.02v89.23c0,3.33,2.7,6.02,6.02,6.02h46.39c3.33,0,6.02,2.7,6.02,6.02v46.39c0,3.33,2.7,6.02,6.02,6.02h89.23c3.33,0,6.02-2.7,6.02-6.02v-46.39c0-3.33,2.7-6.02,6.02-6.02h46.39c3.33,0,6.02-2.7,6.02-6.02v-89.23c0-3.33-2.7-6.02-6.02-6.02Z"/>
</svg>
