<?xml version='1.0' encoding='UTF-8'?>
<svg xmlns="http://www.w3.org/2000/svg" id="i" data-name="Auvergne" viewBox="0 0 453.54 453.54">
  <defs>
    <style>
      .am {
        fill: none;
        stroke: #008280;
        stroke-linecap: round;
        stroke-linejoin: round;
        stroke-width: 12px;
      }

      .an {
        fill: #008280;
        stroke-width: 0px;
      }
    </style>
  </defs>
  <path class="an" d="M267.21,306.96s1.21-9-19.94-2.05c-21.15,6.95-31.93-1.33-25.33-13.05,6.6-11.71,16.06-11.85,15.28-14.47-2.73-9.19,7.04-11.35.37-20.27-6.67-8.92-14.38-16.03-7.19-18.94,7.19-2.91-2.06-7.37,8.38-9.36,10.44-1.99,16.55-7.74,21.03-2.03,4.48,5.7,9.72.37,12.38,9.8,2.65,9.44-6.08,14.88,4.13,12.91,10.21-1.97,14.22-1.78,23.51-12.84,9.72-11.58,25.72,1.68,32.13,1.79,5.19.09,12.14-5.6,12.14-5.6l9.52,2.19,8.49,16.99,8.27,14.18v10.72l-10.97,13.71s-3.84-10.52-11.44-1.64c-10.19,11.91-3.32,14.87-18.31,22.78-3.75,1.98-2.77.6-6.35,5.67-6.91,9.81,3.95,9.25-3.3,10.65-5.54,1.07,2.95-3.29-19.19-5.58-18.9-1.95-21-3.96-21-3.96l-12.62-11.58Z"/>
  <g>
    <path class="am" d="M370.6,315.67c-6.47-3.77-8.47-12.77-10.58-22.29l-.53-2.36c-.28-.9-.41-1.71-.52-2.38-.07-.42-.13-.81-.2-1.02l-1.38-4.14,3.72-2.27c8.07-4.93,9.72-8.61,10.26-10.95,1.36-5.46-2.89-11.32-7.39-17.54l-.76-1.05c-.72-1.08-1.34-1.98-1.97-2.89-3.6-5.24-7.31-10.64-8-16.49-2.48.43-4.79,1.76-7.2,3.15-.55.32-1.1.63-1.63.93l-8.14,4.53v-9.32c0-5.92,4.99-12.26,11.31-20.28,5.4-6.86,12.13-15.4,12.13-20.41v-5.48h11.93v-.69c0-13.05,0-36.96,14.54-60.2-1.09.03-2.19.05-3.29.05-67.65,0-136.17-60.91-145.76-79.27-7.28-.6-14.71,2.08-22.7,8.18,4.02,20.21-3.2,34.65-19.38,38.7-11.19,2.71-18.31,6.65-20.09,11.11-.26.66-.75,2.49.41,5.39l1.65,4.13-3.7,2.47c-2.95,1.96-5.89,3.73-9.41,3.8-7.78.43-15.07-5.69-22.45-12.58l-.89-.78c-5.44-4.82-11.05-9.75-15.3-9.3-1.93.22-3.7,1.25-5.42,3.17,9.85,11.67,9.85,21.48,9.85,37.44v6.72h-38.38l-1.15-3.95c-1.98-6.78-13.5-12.5-25.17-12.5-8,0-15.29,2.69-20.52,7.57-5.99,6-9.18,15-9.35,26.64,42.71,9.61,69.65,32.13,79.95,66.89,7.52,25.94,3.78,51.48-.68,68.34-4.87,18.43-13.25,35.74-21.56,44.68,37.64,27.74,88.79,65.22,125.54,65.22,2.85,0,5.4-.36,7.73-.75,9.89-1.7,18.33-7.09,24.46-15.6-10.4-16.45-2.29-35.21,11.4-45.47,15.61-11.82,38.98-14.9,55.97,4.93,17.49,20.03,42.45,16.95,58.06,3.52,13.32-11.61,16.58-26.66,8.34-37.83-5.86,2.23-10.33,2.28-13.76.22Z"/>
    <path class="am" d="M426.92,344.97c-1.36,1.14-3.96,6.53-5.73,6.4l-9.1,2.37c-4.51.3-8.54,1.86-10.31,12.34-.02,1.71-.15,8.77-.26,15.51-.12,6.53-.23,12.76-.23,13.4-.01,6.57,10.05,13.12,14.98,15.58,3.92-5.19,12.23-19.65,11.99-35.32,0-.03,0-.07,0-.1,0-6.41-.31-22.7-1.33-30.17Z"/>
  </g>
</svg>
