<?xml version='1.0' encoding='UTF-8'?>
<svg xmlns="http://www.w3.org/2000/svg" id="h" data-name="CV" viewBox="0 0 453.54 453.54">
  <defs>
    <style>
      .j {
        fill: #8A5301;
        stroke-width: 0px;
      }
    </style>
  </defs>
  <path class="j" d="M364.26,32.92c0-3.31-2.68-6-6-6H93.07c-3.31,0-6,2.69-6,6v378.32c0,3.31,2.69,6,6,6h188.83c.21,0,.41-.01.61-.03.39-.04.77-.12,1.13-.23.15-.04.3-.1.45-.16.21-.08.42-.17.62-.28.12-.06.24-.13.35-.2.39-.24.76-.53,1.09-.86l76.36-75.71c.74-.74,1.29-1.67,1.56-2.72.04-.12.07-.24.09-.36.08-.38.12-.78.12-1.18v-36.69l-.02-265.9ZM281.9,329.51c-3.31,0-6,2.69-6,6v69.73H99.07V38.92h253.19l.02,290.59h-70.38ZM287.9,396.84v-55.33h55.81l-55.81,55.33Z"/>
  <path class="j" d="M225.69,138.95c10.56,0,19.15-9.12,19.15-20.34s-8.59-20.34-19.15-20.34-19.15,9.12-19.15,20.34,8.59,20.34,19.15,20.34Z"/>
  <path class="j" d="M229.43,143.94h-7.48c-15.04,0-27.43,13-27.64,28.97-.01.8.28,1.58.81,2.15.53.57,1.26.89,2.01.89h57.1c.76,0,1.48-.32,2.01-.89.53-.57.82-1.35.81-2.15-.2-15.97-12.6-28.97-27.64-28.97Z"/>
  <path class="j" d="M319.72,263.18h-188.93c-3.31,0-6-2.69-6-6s2.69-6,6-6h188.93c3.31,0,6,2.69,6,6s-2.69,6-6,6Z"/>
  <path class="j" d="M319.72,225.72h-188.93c-3.31,0-6-2.69-6-6s2.69-6,6-6h188.93c3.31,0,6,2.69,6,6s-2.69,6-6,6Z"/>
  <path class="j" d="M244.11,300.97h-113.32c-3.31,0-6-2.69-6-6s2.69-6,6-6h113.32c3.31,0,6,2.69,6,6s-2.69,6-6,6Z"/>
  <path class="j" d="M244.25,338.76h-113.46c-3.31,0-6-2.69-6-6s2.69-6,6-6h113.46c3.31,0,6,2.69,6,6s-2.69,6-6,6Z"/>
  <circle class="j" cx="130.79" cy="370.54" r="6.11"/>
  <circle class="j" cx="168.41" cy="370.54" r="6.11"/>
  <circle class="j" cx="206.36" cy="370.54" r="6.11"/>
  <path class="j" d="M225.77,201.3c-35.65,0-64.65-29-64.65-64.65s29-64.65,64.65-64.65,64.65,29,64.65,64.65-29,64.65-64.65,64.65ZM225.77,84c-29.03,0-52.65,23.62-52.65,52.65s23.62,52.65,52.65,52.65,52.65-23.62,52.65-52.65-23.62-52.65-52.65-52.65Z"/>
</svg>
