<?xml version='1.0' encoding='UTF-8'?>
<svg xmlns="http://www.w3.org/2000/svg" id="ae" data-name="Prière tapis" viewBox="0 0 453.54 453.54">
  <defs>
    <style>
      .ap {
        fill: none;
      }

      .ap, .aq {
        stroke: #8A5301;
        stroke-linecap: round;
        stroke-linejoin: round;
        stroke-width: 12px;
      }

      .aq {
        fill: #fff;
      }
    </style>
  </defs>
  <path class="aq" d="M308.28,173.19l-121.17-69.96c-21.91-12.65-50.18-5.07-62.83,16.84l-3.28,5.67c-12.57,21.77-5.16,49.82,16.43,62.58.21.61.45,1.21.75,1.79l26.85,52.35-61.4-19.9c-2.25-2.53-5.52-4.13-9.15-4.13h-13.66c-6.76,0-12.28,5.53-12.28,12.28v62.95c0,6.76,5.53,12.28,12.28,12.28h13.66c6.76,0,12.28-5.53,12.28-12.28v-29.79l101.55,32.92c6.33,2.05,13.19-1.45,15.24-7.78l4.36-13.45c1.36-4.21,3.33-9.49.58-12.6-.02-.05-8.08-14.69-17.78-32.32l48.3,27.88c21.91,12.65,50.18,5.07,62.83-16.84l3.28-5.67c12.65-21.91,5.07-50.18-16.84-62.83Z"/>
  <circle class="aq" cx="366.79" cy="273.29" r="30.39"/>
  <path class="ap" d="M54.2,372.44h-5.21c-3.65,0-6.34-3.39-5.52-6.94l12.4-53.68"/>
  <path class="ap" d="M394.86,311.81l12.4,53.68c.82,3.55-1.88,6.94-5.52,6.94H78.53"/>
  <path class="aq" d="M302.09,283.63l-14.54-51.35,9.05-28.46c1.74-5.47-1.31-11.36-6.78-13.1l-12.5-3.97c-5.47-1.74-11.36,1.31-13.1,6.78l-11.26,35.42c-1,3.14,1.45,11,1.74,12.01l14.7,51.93c1.8,6.35,8.46,10.07,14.81,8.28l9.59-2.72c6.35-1.8,10.07-8.46,8.28-14.81Z"/>
</svg>
