<?xml version='1.0' encoding='UTF-8'?>
<svg xmlns="http://www.w3.org/2000/svg" id="bp" data-name="Lit double" viewBox="0 0 453.54 453.54">
  <defs>
    <style>
      .ca {
        fill: #144179;
        stroke-width: 0px;
      }
    </style>
  </defs>
  <path class="ca" d="M227.98,225.84c-.21.03-.43.04-.65.04h1.29c-.22,0-.43-.01-.64-.04ZM227.98,225.84c-.21.03-.43.04-.65.04h1.29c-.22,0-.43-.01-.64-.04Z"/>
  <path class="ca" d="M385.12,218.48v-74.31c0-24.07-19.59-43.65-43.66-43.65H114.49c-24.08,0-43.66,19.58-43.66,43.65v74.13c-22.39,9.04-38.22,31.01-38.22,56.6v20.55c0,.79.15,1.54.43,2.23l-.15,35.65-.25,23.97c-.05,5.25,1.94,10.21,5.62,13.95,3.68,3.75,8.59,5.84,13.84,5.88l10.98.08h.16c5.21,0,10.1-2.01,13.8-5.67,3.74-3.71,5.81-8.65,5.82-13.91l.02-15.05c.01-1.77,1.45-3.21,3.22-3.21l283.99-.13h.01c1.08,0,1.8.55,2.13.88s.89,1.05.89,2.14v15.14c0,10.82,8.8,19.62,19.62,19.62h10.54c10.82,0,19.62-8.8,19.62-19.62v-82.5c0-25.42-15.62-47.26-37.78-56.42ZM82.83,144.17c0-17.45,14.2-31.65,31.66-31.65h226.97c17.46,0,31.66,14.2,31.66,31.65v69.71h-26.2c-2.93-21.32-21.26-37.79-43.37-37.79h-37.14c-16.55,0-30.99,9.23-38.43,22.82-7.45-13.59-21.89-22.82-38.44-22.82h-37.14c-22.11,0-40.44,16.47-43.37,37.79h-26.2v-69.71ZM334.76,213.88h-99.57c2.81-14.67,15.74-25.79,31.22-25.79h37.14c15.47,0,28.4,11.12,31.21,25.79ZM220.76,213.88h-99.57c2.81-14.67,15.74-25.79,31.21-25.79h37.14c15.48,0,28.41,11.12,31.22,25.79ZM410.9,357.4c0,4.2-3.42,7.62-7.62,7.62h-10.54c-4.2,0-7.62-3.42-7.62-7.62v-15.14c0-4.01-1.57-7.79-4.4-10.63-2.84-2.83-6.61-4.39-10.62-4.39h-.01l-284,.13c-8.37,0-15.19,6.82-15.21,15.19l-.02,15.05c0,2.04-.81,3.96-2.26,5.4-1.45,1.44-3.37,2.24-5.42,2.2l-10.98-.08c-2.04-.02-3.95-.83-5.38-2.28-1.43-1.46-2.2-3.38-2.18-5.42l.25-23.99v-.04l.13-31.95h365.88v55.95ZM44.61,289.45v-14.55c0-27.03,21.99-49.02,49.02-49.02h133.7c.22,0,.44-.01.65-.04.21.03.42.04.64.04h133.26c27.03,0,49.02,21.99,49.02,49.02v14.55H44.61Z"/>
  <path class="ca" d="M227.98,225.84c-.21.03-.43.04-.65.04h1.29c-.22,0-.43-.01-.64-.04Z"/>
</svg>
