<?xml version='1.0' encoding='UTF-8'?>
<svg xmlns="http://www.w3.org/2000/svg" id="z" data-name="Buste couple" viewBox="0 0 453.54 453.54">
  <defs>
    <style>
      .ca {
        fill: #144179;
      }

      .ca, .cb {
        stroke: #144179;
        stroke-linecap: round;
        stroke-linejoin: round;
        stroke-width: 12px;
      }

      .cb {
        fill: #fff;
      }
    </style>
  </defs>
  <g>
    <path class="ca" d="M240.33,189.27c0-35.02,28.39-63.4,63.4-63.4s63.4,28.39,63.4,63.4-28.38,63.41-63.4,63.41-63.4-28.4-63.4-63.41"/>
    <path class="ca" d="M414.65,371.59c-.71-52.64-43.58-95.11-96.4-95.11h-29.06c-52.81,0-95.69,42.47-96.39,95.11h221.84Z"/>
  </g>
  <g>
    <path class="cb" d="M93.92,189.27c0-35.02,28.39-63.4,63.4-63.4s63.4,28.39,63.4,63.4-28.38,63.41-63.4,63.41-63.4-28.4-63.4-63.41"/>
    <path class="cb" d="M268.24,371.59c-.71-52.64-43.58-95.11-96.4-95.11h-29.06c-52.81,0-95.69,42.47-96.39,95.11h221.84Z"/>
  </g>
</svg>
