<?xml version='1.0' encoding='UTF-8'?>
<svg xmlns="http://www.w3.org/2000/svg" viewBox="0 0 453.54 453.54">
  <defs>
    <style>
      .ca {
        fill: #144179;
        stroke-width: 0px;
      }
    </style>
  </defs>
  <g id="bh" data-name="Perso joie">
    <circle class="ca" cx="235.78" cy="85.85" r="38.04"/>
  </g>
  <g id="bi" data-name="Perso marche">
    <path class="ca" d="M323.38,222.05c-4.95,7.05-14.68,8.76-21.74,3.81l-33.56-23.54v56.07l32.44,135.39c2.45,10.22-3.85,20.48-14.06,22.93-10.22,2.45-20.48-3.85-22.93-14.06l-28.78-120.1h-4.64l-10.46,48.36c-.65,3.01-1.98,5.69-3.79,7.93l-37.67,65.25c-5.25,9.1-16.88,12.21-25.98,6.96-9.1-5.25-12.21-16.88-6.96-25.98l38-65.81,12.98-60.01v-73.01l-39.08,46.55c-5.59,6.66-15.53,7.52-22.19,1.93l-.48-.41c-6.66-5.59-7.53-15.52-1.94-22.18l66.28-78.94h0c3.64-6.7,10.72-11.24,18.87-11.24h28.93c7.09,0,13.38,3.44,17.28,8.74,1.42,1.33,2.61,2.94,3.49,4.81l19.86,42.15,32.31,22.67c7.06,4.94,8.77,14.68,3.82,21.73Z"/>
  </g>
</svg>
