<?xml version='1.0' encoding='UTF-8'?>
<svg xmlns="http://www.w3.org/2000/svg" id="aa" data-name="Buste femme jeune" viewBox="0 0 453.54 453.54">
  <defs>
    <style>
      .ca {
        fill: none;
        stroke: #144179;
        stroke-linecap: round;
        stroke-linejoin: round;
        stroke-width: 12px;
      }
    </style>
  </defs>
  <path class="ca" d="M170.42,249.76l-39.65,1.3s-20.62-91.27,0-142.42c0,0,24-70.21,90.19-68.52,0,0,85.84.7,101.7,57.01,0,0,20.57,99.69,2.22,140.1,0,0-5.36,3.44-49.81,12.53,0,0,58.5-107.26,13.93-154.3,0,0-47.06,43.05-116.3,24.15l-18.81,24.06s13.07,65.85,16.53,106.1Z"/>
  <path class="ca" d="M291.89,203.59c-15.61,18.7-39.09,30.6-65.36,30.6-23.62,0-45-9.63-60.42-25.17"/>
  <path class="ca" d="M54.69,411.75h342.25s5.73-137.1-136.61-137.1l-34.76,71.01-33.78-71.01s-137.47-.84-137.1,137.1Z"/>
</svg>
