<?xml version='1.0' encoding='UTF-8'?>
<svg xmlns="http://www.w3.org/2000/svg" id="ba" data-name="Population HH" viewBox="0 0 453.54 453.54">
  <defs>
    <style>
      .ca {
        fill: #144179;
        stroke-width: 0px;
      }
    </style>
  </defs>
  <g>
    <circle class="ca" cx="228.74" cy="179.98" r="28.86"/>
    <circle class="ca" cx="161.41" cy="122.3" r="28.86"/>
    <circle class="ca" cx="296.96" cy="122.3" r="28.86"/>
    <path class="ca" d="M244.56,416.98h-31.54c-3.7,0-6.78-2.22-7.06-5.08l-9.03-93,8.88-68.35c.36-2.81,3.41-4.94,7.05-4.94h31.86c3.65,0,6.7,2.15,7.05,4.97l8.53,68.66-8.67,92.66c-.27,2.87-3.35,5.1-7.06,5.1Z"/>
    <path class="ca" d="M269.43,320.84l-41.18,14.12-39.77-14.1c-2.47-.88-4.18-3.16-4.32-5.78l-3.59-67.27c-.85-15.94,11.84-29.33,27.8-29.33h40.98c15.92,0,28.6,13.32,27.81,29.22l-3.34,67.3c-.13,2.65-1.87,4.96-4.38,5.82Z"/>
  </g>
  <g>
    <circle class="ca" cx="96.19" cy="179.98" r="28.86"/>
    <path class="ca" d="M112,416.98h-31.54c-3.7,0-6.78-2.22-7.06-5.08l-9.03-93,8.88-68.35c.36-2.81,3.41-4.94,7.05-4.94h31.86c3.65,0,6.7,2.15,7.05,4.97l8.53,68.66-8.67,92.66c-.27,2.87-3.35,5.1-7.06,5.1Z"/>
    <path class="ca" d="M136.87,320.84l-41.18,14.12-39.77-14.1c-2.47-.88-4.18-3.16-4.32-5.78l-3.59-67.27c-.85-15.94,11.84-29.33,27.8-29.33h40.98c15.92,0,28.6,13.32,27.81,29.22l-3.34,67.3c-.13,2.65-1.87,4.96-4.38,5.82Z"/>
  </g>
  <g>
    <circle class="ca" cx="362.37" cy="179.98" r="28.86"/>
    <path class="ca" d="M378.19,416.98h-31.54c-3.7,0-6.78-2.22-7.06-5.08l-9.03-93,8.88-68.35c.36-2.81,3.41-4.94,7.05-4.94h31.86c3.65,0,6.7,2.15,7.05,4.97l8.53,68.66-8.67,92.66c-.27,2.87-3.35,5.1-7.06,5.1Z"/>
    <path class="ca" d="M403.05,320.84l-41.18,14.12-39.77-14.1c-2.47-.88-4.18-3.16-4.32-5.78l-3.59-67.27c-.85-15.94,11.84-29.33,27.8-29.33h40.98c15.92,0,28.6,13.32,27.81,29.22l-3.34,67.3c-.13,2.65-1.87,4.96-4.38,5.82Z"/>
  </g>
</svg>
