<?xml version="1.0" encoding="UTF-8"?>
<svg id="Calque_2" data-name="Calque 2" xmlns="http://www.w3.org/2000/svg" viewBox="0 0 159.22 35.13">
  <g id="Calque_1-2" data-name="Calque 1">
    <path d="M5.49,34.51H.31V10.15h5.18v24.37ZM0,3.68c0-.93.26-1.63.77-2.14.51-.49,1.24-.75,2.17-.75s1.62.26,2.13.75.75,1.21.75,2.14-.26,1.58-.75,2.1c-.51.51-1.21.74-2.13.74s-1.67-.25-2.17-.74c-.51-.52-.77-1.2-.77-2.1"/>
    <path d="M34.33,34.51h-5.2v-14.98c0-1.88-.37-3.29-1.14-4.21-.74-.93-1.95-1.38-3.61-1.38-2.19,0-3.79.64-4.81,1.94s-1.52,3.46-1.52,6.5v12.13h-5.18V10.15h4.05l.73,3.2h.26c.73-1.17,1.78-2.06,3.13-2.71,1.35-.63,2.85-.95,4.5-.95,5.86,0,8.77,2.98,8.77,8.92v15.89h.01Z"/>
    <path d="M57.89,27.57c0,2.38-.87,4.2-2.58,5.47-1.73,1.27-4.23,1.9-7.46,1.9s-5.86-.49-7.82-1.47v-4.47c2.87,1.32,5.54,1.98,8.01,1.98,3.19,0,4.78-.96,4.78-2.89,0-.61-.17-1.14-.54-1.54-.35-.41-.93-.84-1.74-1.27-.8-.44-1.93-.94-3.37-1.5-2.81-1.09-4.71-2.17-5.7-3.26s-1.48-2.5-1.48-4.23c0-2.09.84-3.71,2.52-4.86s3.97-1.73,6.86-1.73,5.57.58,8.13,1.75l-1.67,3.89c-2.63-1.09-4.86-1.63-6.65-1.63-2.73,0-4.1.78-4.1,2.34,0,.77.36,1.41,1.08,1.94s2.26,1.26,4.66,2.17c2.01.78,3.47,1.5,4.39,2.14s1.58,1.4,2.03,2.24.65,1.85.65,3.03h.02Z"/>
    <path d="M73.2,13.62c-1.66,0-2.97.52-3.97,1.57-.99,1.05-1.58,2.56-1.78,4.57h11.06c-.02-2.01-.51-3.55-1.46-4.57-.94-1.05-2.24-1.57-3.88-1.57h.02ZM74.14,34.96c-3.79,0-6.75-1.1-8.88-3.31s-3.2-5.25-3.2-9.14.99-7.11,2.98-9.37c1.98-2.29,4.71-3.41,8.17-3.41,3.21,0,5.76.98,7.62,2.93s2.79,4.65,2.79,8.07v2.79h-16.22c.06,2.36.72,4.18,1.9,5.45,1.2,1.29,2.9,1.92,5.09,1.92,1.45,0,2.78-.14,4.02-.42,1.24-.27,2.57-.72,4-1.35v4.21c-1.26.61-2.53,1.03-3.82,1.27s-2.78.37-4.44.37h-.01Z"/>
    <path d="M99.19,13.62c-1.64,0-2.97.52-3.95,1.57-.99,1.04-1.58,2.56-1.78,4.57h11.06c-.02-2.01-.52-3.55-1.46-4.57-.94-1.05-2.24-1.57-3.88-1.57h.01ZM100.14,34.96c-3.81,0-6.75-1.1-8.88-3.31-2.15-2.21-3.2-5.25-3.2-9.14s.98-7.11,2.98-9.37c1.98-2.29,4.71-3.41,8.17-3.41,3.21,0,5.76.98,7.62,2.93s2.79,4.65,2.79,8.07v2.79h-16.24c.07,2.36.72,4.18,1.92,5.45,1.2,1.29,2.9,1.92,5.09,1.92,1.43,0,2.78-.14,4.02-.42,1.24-.27,2.57-.72,4-1.35v4.21c-1.26.61-2.55,1.03-3.83,1.27s-2.77.37-4.42.37h-.01Z"/>
    <path d="M114.72,31.76c0-1.08.28-1.89.84-2.47.56-.57,1.37-.87,2.42-.87s1.89.3,2.46.89c.56.59.83,1.41.83,2.43s-.27,1.87-.85,2.47c-.57.61-1.37.91-2.43.91s-1.87-.3-2.42-.9-.84-1.43-.84-2.48"/>
    <path d="M140.13,14.07h-5.94v20.44h-5.2V14.07h-4.02v-2.42l4.02-1.58v-1.58c0-2.88.68-5.02,2.03-6.41,1.35-1.38,3.41-2.08,6.19-2.08,1.82,0,3.61.3,5.38.9l-1.37,3.92c-1.27-.41-2.5-.61-3.66-.61s-2.03.36-2.57,1.09c-.53.73-.8,1.82-.8,3.27v1.58h5.96v3.92h.01-.01Z"/>
    <path d="M156.64,9.71c1.04,0,1.9.07,2.58.22l-.51,4.83c-.73-.17-1.5-.26-2.29-.26-2.08,0-3.74.68-5.03,2.03s-1.94,3.1-1.94,5.26v12.73h-5.18V10.16h4.05l.68,4.3h.26c.8-1.47,1.87-2.61,3.18-3.46,1.3-.85,2.69-1.27,4.19-1.27h-.01.01Z"/>
  </g>
</svg>