<svg xmlns="http://www.w3.org/2000/svg" version="1.0" xml:space="preserve" width="147.109" height="31.133"><g aria-label="insee.fr" style="font-style:normal;font-variant:normal;font-weight:700;font-stretch:normal;font-size:40px;line-height:1.25;font-family:'Open Sans';-inkscape-font-specification:'Open Sans, Bold';font-variant-ligatures:normal;font-variant-caps:normal;font-variant-numeric:normal;font-feature-settings:normal;text-align:start;letter-spacing:0;word-spacing:0;writing-mode:lr-tb;text-anchor:start;fill:#5b8dc9;fill-opacity:1;stroke:none"><path d="M0 3.125Q0 .215 3.242.215t3.242 2.91q0 1.387-.82 2.168-.8.762-2.422.762Q0 6.055 0 3.125Zm6.21 27.48H.255V8.77H6.21ZM32.598 30.605H26.64V17.852q0-2.364-.84-3.536-.84-1.191-2.676-1.191-2.5 0-3.613 1.68-1.114 1.66-1.114 5.527v10.273h-5.957V8.77h4.551l.801 2.793h.332q.996-1.583 2.734-2.383 1.758-.82 3.985-.82 3.808 0 5.781 2.07 1.973 2.05 1.973 5.937zM54.004 24.121q0 3.36-2.344 5.117-2.324 1.758-6.972 1.758-2.383 0-4.063-.332-1.68-.312-3.145-.937v-4.922q1.66.78 3.73 1.308 2.09.528 3.673.528 3.242 0 3.242-1.875 0-.704-.43-1.133-.43-.45-1.484-.996-1.055-.567-2.813-1.309-2.52-1.055-3.71-1.953-1.172-.898-1.72-2.05-.527-1.173-.527-2.872 0-2.91 2.246-4.492 2.266-1.602 6.407-1.602 3.945 0 7.676 1.72l-1.797 4.296q-1.641-.703-3.067-1.152-1.426-.45-2.91-.45-2.637 0-2.637 1.426 0 .801.84 1.387.86.586 3.73 1.738 2.56 1.035 3.75 1.934 1.192.898 1.758 2.07.567 1.172.567 2.793zM67.734 12.598q-1.894 0-2.968 1.21-1.075 1.192-1.23 3.399h8.359q-.04-2.207-1.153-3.398-1.113-1.211-3.008-1.211Zm.84 18.398q-5.273 0-8.242-2.91-2.969-2.91-2.969-8.242 0-5.489 2.735-8.477 2.754-3.008 7.597-3.008 4.63 0 7.207 2.637 2.578 2.637 2.578 7.285v2.89H63.398q.098 2.54 1.504 3.966 1.407 1.425 3.946 1.425 1.972 0 3.73-.41t3.672-1.308v4.61q-1.563.78-3.34 1.151-1.777.391-4.336.391zM91.406 12.598q-1.894 0-2.969 1.21-1.074 1.192-1.23 3.399h8.36q-.04-2.207-1.153-3.398-1.113-1.211-3.008-1.211Zm.84 18.398q-5.273 0-8.242-2.91-2.969-2.91-2.969-8.242 0-5.489 2.735-8.477 2.753-3.008 7.597-3.008 4.63 0 7.207 2.637 2.578 2.637 2.578 7.285v2.89H87.07q.098 2.54 1.504 3.966 1.406 1.425 3.946 1.425 1.972 0 3.73-.41t3.672-1.308v4.61q-1.563.78-3.34 1.151-1.777.391-4.336.391zM105.195 27.813q0-1.641.88-2.481.878-.84 2.558-.84 1.62 0 2.5.86.898.859.898 2.46 0 1.543-.898 2.442-.899.879-2.5.879-1.64 0-2.54-.86-.898-.878-.898-2.46zM129.512 13.242h-5.157v17.363h-5.957V13.242h-3.28v-2.87l3.28-1.602V7.168q0-3.73 1.836-5.45Q122.07 0 126.114 0q3.085 0 5.488.918l-1.524 4.375q-1.797-.566-3.32-.566-1.27 0-1.836.761-.567.742-.567 1.914V8.77h5.157zM145.098 8.36q1.21 0 2.011.175l-.449 5.586q-.723-.195-1.758-.195-2.851 0-4.453 1.465-1.582 1.464-1.582 4.101v11.113h-5.957V8.77h4.512l.879 3.671h.293q1.015-1.836 2.734-2.949 1.738-1.133 3.77-1.133z"/></g></svg>