<?xml version='1.0' encoding='UTF-8'?>
<svg xmlns="http://www.w3.org/2000/svg" id="ao" data-name="Perso chômage partiel" viewBox="0 0 453.54 453.54">
  <defs>
    <style>
      .ca {
        fill: none;
        stroke: #144179;
        stroke-linecap: round;
        stroke-linejoin: round;
        stroke-width: 12px;
      }

      .cb {
        fill: #144179;
        stroke-width: 0px;
      }
    </style>
  </defs>
  <g>
    <g>
      <circle class="cb" cx="315.47" cy="73.57" r="38.2"/>
      <rect class="cb" x="283.64" y="118.14" width="72.16" height="161.29" rx="34.34" ry="34.34"/>
      <rect class="cb" x="279.1" y="214.07" width="38.2" height="130.03" rx="19.1" ry="19.1" transform="translate(65.75 -56.74) rotate(12.21)"/>
      <rect class="cb" x="247.64" y="302.31" width="38.2" height="115.95" rx="19.1" ry="19.1" transform="translate(215.88 -85.1) rotate(30)"/>
      <rect class="cb" x="326.87" y="211.96" width="38.2" height="130.03" rx="19.1" ry="19.1" transform="translate(-85.2 174.52) rotate(-25.31)"/>
      <rect class="cb" x="351.38" y="302.56" width="38.2" height="115.95" rx="19.1" ry="19.1" transform="translate(-43.99 51.58) rotate(-7.52)"/>
      <rect class="cb" x="331.14" y="123.48" width="33.36" height="87.42" rx="16.68" ry="16.68" transform="translate(-38.09 164.21) rotate(-25.23)"/>
      <rect class="cb" x="366.46" y="163.33" width="31.34" height="90.14" rx="15.67" ry="15.67" transform="translate(-7.92 401.57) rotate(-54.95)"/>
      <rect class="cb" x="261.91" y="103.53" width="33.36" height="87.42" rx="16.68" ry="16.68" transform="translate(338.46 -162.13) rotate(73.09)"/>
      <rect class="cb" x="219.95" y="137.14" width="31.34" height="90.14" rx="15.67" ry="15.67" transform="translate(118.18 -91.51) rotate(29.06)"/>
    </g>
    <g>
      <rect class="cb" x="132.72" y="229.9" width="97.52" height="70.92" rx="8.5" ry="8.5" transform="translate(185.29 -56.1) rotate(35.05)"/>
      <path class="cb" d="M209.65,258.44c-.69,0-1.39-.2-2-.63l-26.84-18.83c-.76-.53-1.27-1.34-1.43-2.26-.16-.91.05-1.85.58-2.61l14.39-20.5c1.11-1.58,3.28-1.96,4.86-.85l26.84,18.83c.76.53,1.27,1.34,1.43,2.26.16.91-.05,1.85-.58,2.61l-14.39,20.5c-.68.97-1.76,1.48-2.86,1.48ZM187.67,235.27l21.13,14.82,10.38-14.79-21.13-14.82-10.38,14.79Z"/>
    </g>
  </g>
  <g>
    <g>
      <path class="ca" d="M183.72,157.1c0,4.02-20.09,160.73-20.09,160.73H55.14"/>
      <line class="ca" x1="107.38" y1="325.86" x2="107.38" y2="361.4"/>
      <line class="ca" x1="156.56" y1="366.13" x2="58.19" y2="366.13"/>
    </g>
    <circle class="cb" cx="156.24" cy="398.02" r="12.99"/>
    <circle class="cb" cx="57.01" cy="398.02" r="12.99"/>
    <circle class="cb" cx="104.26" cy="398.02" r="12.99"/>
    <line class="ca" x1="105.44" y1="366.13" x2="105.44" y2="394.48"/>
    <line class="ca" x1="157.42" y1="366.13" x2="157.42" y2="394.48"/>
    <line class="ca" x1="58.19" y1="366.13" x2="58.19" y2="394.48"/>
  </g>
  <path class="ca" d="M101.93,35.44c31.81,0,57.6,25.79,57.6,57.6,0,15.67-6.26,29.87-16.4,40.26"/>
  <polyline class="ca" points="101.93 71.33 101.93 93.04 121.9 110.51"/>
  <path class="cb" d="M72.81,50.06c-2.56,0-4.9-1.61-5.81-4.01-.59-1.55-.54-3.24.14-4.76.68-1.52,1.91-2.67,3.46-3.27.71-.27,1.45-.41,2.21-.41,2.56,0,4.9,1.61,5.81,4.01.59,1.55.54,3.24-.14,4.76s-1.91,2.67-3.46,3.26c-.71.27-1.45.41-2.21.41Z"/>
  <path class="cb" d="M56.04,68.71c-2.56,0-4.9-1.61-5.81-4.01-.59-1.55-.54-3.24.14-4.75.68-1.52,1.91-2.67,3.46-3.27.71-.27,1.45-.41,2.21-.41,2.56,0,4.9,1.61,5.81,4.01.59,1.55.54,3.24-.14,4.76-.68,1.52-1.91,2.67-3.46,3.27-.71.27-1.45.41-2.21.41Z"/>
  <path class="cb" d="M47.17,92.62c-2.56,0-4.9-1.61-5.81-4.01-.59-1.55-.54-3.24.14-4.75.68-1.52,1.91-2.67,3.46-3.26.71-.27,1.46-.41,2.21-.41,2.56,0,4.9,1.61,5.81,4.01.59,1.55.54,3.24-.14,4.75-.68,1.52-1.91,2.67-3.46,3.27-.71.27-1.45.41-2.21.41Z"/>
  <path class="cb" d="M51.22,116.76c-2.56,0-4.9-1.61-5.81-4.01-1.22-3.2.4-6.8,3.6-8.02.71-.27,1.46-.41,2.21-.41,2.56,0,4.9,1.61,5.81,4.01,1.22,3.2-.4,6.8-3.6,8.02-.71.27-1.46.41-2.21.41Z"/>
  <path class="cb" d="M64.24,137.47c-2.56,0-4.9-1.61-5.81-4.01-1.22-3.21.4-6.8,3.6-8.02.71-.27,1.45-.41,2.21-.41,2.56,0,4.9,1.61,5.81,4.01.59,1.55.54,3.24-.14,4.76-.68,1.52-1.91,2.67-3.46,3.27-.71.27-1.45.41-2.21.41Z"/>
  <path class="cb" d="M84.52,150.3c-2.56,0-4.9-1.61-5.81-4.01-.59-1.55-.54-3.24.14-4.76.68-1.52,1.91-2.67,3.46-3.27.71-.27,1.45-.41,2.21-.41,2.56,0,4.9,1.61,5.81,4.01.59,1.55.54,3.24-.14,4.75-.68,1.52-1.91,2.67-3.46,3.27-.71.27-1.45.41-2.21.41Z"/>
  <path class="cb" d="M110.36,150.73c-2.56,0-4.9-1.61-5.81-4.01-.59-1.55-.54-3.24.14-4.76.68-1.52,1.91-2.67,3.46-3.27.71-.27,1.45-.41,2.21-.41,2.56,0,4.9,1.61,5.81,4.01,1.22,3.2-.4,6.8-3.6,8.02-.71.27-1.46.41-2.21.41Z"/>
</svg>
