<?xml version='1.0' encoding='UTF-8'?>
<svg xmlns="http://www.w3.org/2000/svg" id="ar" data-name="Perso bureau_3" viewBox="0 0 453.54 453.54">
  <defs>
    <style>
      .ca {
        fill: none;
        stroke: #008280;
        stroke-linecap: round;
        stroke-linejoin: round;
        stroke-width: 12px;
      }

      .cb {
        fill: #008280;
        stroke-width: 0px;
      }
    </style>
  </defs>
  <path class="cb" d="M215.16,198.44c-32.54,0-59.01-26.47-59.01-59.01s26.47-59.01,59.01-59.01,59.01,26.47,59.01,59.01-26.47,59.01-59.01,59.01Z"/>
  <path class="cb" d="M126.3,347.76H39.01l-.4-4.46c-2.54-28.57,20.5-76.92,68.49-143.7,14.09-19.61,41.52-24.11,61.14-10.03,11.12,7.99,17.89,20.88,18.21,34.62l1.4,4.39c10.31,32.68,15.19,40.04,17.24,41.44,7.26,1.83,45.86,3.03,83.72,2.59,10.88,0,19.64,8.67,19.75,19.32.07,5.21-1.91,10.14-5.55,13.87-3.65,3.74-8.54,5.83-13.76,5.89-4.13.05-10.45.11-17.92.11-28.73,0-65.56-.77-77.83-4.45-15.42-4.63-24.7-19.19-31.04-33.58-17.87,27.16-32.72,53.74-36.01,64.62.1,1.42.11,2.93.03,4.68l-.19,4.69Z"/>
  <g>
    <rect class="cb" x="372.86" y="121.98" width="17.54" height="175.56" transform="translate(115.18 -134.68) rotate(23.48)"/>
    <path class="cb" d="M344.71,294.76h0c-6.92-3.01-10.09-11.05-7.09-17.97l62.96-144.93c3.01-6.92,11.05-10.09,17.97-7.09h0c6.92,3.01,10.09,11.05,7.09,17.97l-62.96,144.93c-3.01,6.92-11.05,10.09-17.97,7.09Z"/>
  </g>
  <polyline class="ca" points="372.16 252.02 407.83 335.66 345.5 335.66"/>
  <line class="ca" x1="323.72" y1="335.66" x2="278.06" y2="335.66"/>
</svg>
