<?xml version='1.0' encoding='UTF-8'?>
<svg xmlns="http://www.w3.org/2000/svg" id="i" data-name="Europe_2" viewBox="0 0 453.54 453.54">
  <defs>
    <style>
      .k {
        fill: #5F1972;
        stroke-width: 0px;
      }

      .l {
        fill: none;
        stroke: #5F1972;
        stroke-miterlimit: 10;
        stroke-width: 12px;
      }
    </style>
  </defs>
  <circle class="l" cx="224.81" cy="223.54" r="188.93"/>
  <g>
    <g>
      <path class="k" d="M224.12,72.01l-6.73,20.81,10.38,3.34-3.65-24.15Z"/>
      <path class="k" d="M224.12,72.01l6.73,20.81-10.38,3.34,3.65-24.15Z"/>
    </g>
    <g>
      <path class="k" d="M244.88,87.12h-21.84v11.01l21.84-11.01Z"/>
      <path class="k" d="M244.88,87.12l-17.83,12.84-6.42-8.91,24.24-3.92Z"/>
      <path class="k" d="M236.95,111.5l-6.73-20.77-10.56,3.43,17.29,17.34Z"/>
      <path class="k" d="M236.95,111.5l-17.83-12.84,6.42-8.91,11.41,21.75Z"/>
    </g>
    <path class="k" d="M203.35,87.12h21.84v11.01l-21.84-11.01Z"/>
    <path class="k" d="M203.35,87.12l17.83,12.84,6.42-8.91-24.24-3.92Z"/>
    <path class="k" d="M211.28,111.5l6.73-20.77,10.38,3.39-17.11,17.38Z"/>
    <path class="k" d="M211.28,111.5l17.83-12.84-6.42-8.91-11.41,21.75Z"/>
  </g>
  <path class="k" d="M224.12,334.33l-6.73,20.77,10.38,3.39-3.65-24.15Z"/>
  <path class="k" d="M224.12,334.33l6.73,20.77-10.38,3.39,3.65-24.15Z"/>
  <path class="k" d="M244.88,349.26h-21.84v10.92l21.84-10.92Z"/>
  <path class="k" d="M244.88,349.26l-17.83,12.84-6.42-8.91,24.24-3.92Z"/>
  <path class="k" d="M236.95,373.68l-6.73-20.77-10.56,3.34,17.29,17.43Z"/>
  <path class="k" d="M236.95,373.68l-17.83-12.84,6.42-8.91,11.41,21.75Z"/>
  <path class="k" d="M203.35,349.26h21.84v10.92l-21.84-10.92Z"/>
  <path class="k" d="M203.35,349.26l17.83,12.84,6.42-8.91-24.24-3.92Z"/>
  <path class="k" d="M211.28,373.68l6.73-20.77,10.38,3.34-17.11,17.43Z"/>
  <path class="k" d="M211.28,373.68l17.83-12.84-6.42-8.91-11.41,21.75Z"/>
  <g>
    <path class="k" d="M93.05,203.08l-6.73,20.77,10.38,3.39-3.65-24.15Z"/>
    <path class="k" d="M93.05,203.08l6.77,20.77-10.38,3.52,3.61-24.29Z"/>
    <path class="k" d="M113.81,218.19h-21.84v10.92l21.84-10.92Z"/>
    <path class="k" d="M113.81,218.19l-17.83,12.84-6.42-8.91,24.24-3.92Z"/>
    <path class="k" d="M105.88,242.61l-6.55-20.77-10.38,3.39,16.94,17.38Z"/>
    <path class="k" d="M105.88,242.61l-17.83-12.84,6.42-8.91,11.41,21.75Z"/>
    <path class="k" d="M72.28,218.19h21.84v10.92l-21.84-10.92Z"/>
    <path class="k" d="M72.28,218.19l17.83,12.84,6.42-8.91-24.24-3.92Z"/>
    <path class="k" d="M80.21,242.61l6.77-20.77,10.38,3.39-17.16,17.38Z"/>
    <path class="k" d="M80.21,242.61l17.83-12.84-6.42-8.91-11.41,21.75Z"/>
    <path class="k" d="M145.72,129.32l17.83-12.84-6.42-8.91-11.41,21.75Z"/>
    <path class="k" d="M145.72,129.32l6.77-20.77,10.38,3.39-17.16,17.38Z"/>
    <path class="k" d="M137.79,104.68l17.83,12.84,6.42-8.91-24.24-3.92Z"/>
    <path class="k" d="M137.79,104.68h21.88v10.92l-21.88-10.92Z"/>
    <path class="k" d="M158.6,89.57l-6.77,20.81,10.38,3.34-3.61-24.15Z"/>
    <path class="k" d="M158.6,89.57l6.73,20.81-10.38,3.34,3.65-24.15Z"/>
    <path class="k" d="M171.44,129.32l-17.83-12.84,6.42-8.91,11.41,21.75Z"/>
    <path class="k" d="M171.44,129.32l-6.77-20.77-10.38,3.39,17.16,17.38Z"/>
    <path class="k" d="M179.55,104.68l-17.83,12.84-6.42-8.91,24.24-3.92Z"/>
    <path class="k" d="M179.55,104.68h-21.84v10.92l21.84-10.92Z"/>
    <path class="k" d="M123.44,177.1l-6.73-20.81-10.38,3.39,17.11,17.43Z"/>
    <path class="k" d="M123.44,177.1l-17.83-12.88,6.42-8.91,11.41,21.79Z"/>
    <path class="k" d="M97.77,177.1l17.83-12.88-6.42-8.91-11.41,21.79Z"/>
    <path class="k" d="M97.77,177.1l6.77-20.81,10.38,3.39-17.16,17.43Z"/>
    <path class="k" d="M89.84,152.68l17.83,12.84,6.42-8.91-24.24-3.92Z"/>
    <path class="k" d="M89.84,152.68h21.84v10.92l-21.84-10.92Z"/>
    <path class="k" d="M131.37,152.68l-17.83,12.84-6.42-8.91,24.24-3.92Z"/>
    <path class="k" d="M131.37,152.68h-21.84v10.92l21.84-10.92Z"/>
    <path class="k" d="M110.61,137.57l6.77,20.77-10.38,3.39,3.61-24.15Z"/>
    <path class="k" d="M110.61,137.57l-6.82,20.77,10.38,3.39-3.57-24.15Z"/>
    <path class="k" d="M131.37,283.7h-21.84v10.92l21.84-10.92Z"/>
    <path class="k" d="M131.37,283.7l-17.83,12.84-6.42-8.91,24.24-3.92Z"/>
    <path class="k" d="M123.44,308.12l-6.73-20.77-10.38,3.39,17.11,17.38Z"/>
    <path class="k" d="M123.44,308.12l-17.83-12.84,6.42-8.91,11.41,21.75Z"/>
    <path class="k" d="M97.77,308.12l17.83-12.84-6.42-8.91-11.41,21.75Z"/>
    <path class="k" d="M97.77,308.12l6.77-20.77,10.38,3.39-17.16,17.38Z"/>
    <path class="k" d="M110.61,268.64l6.77,20.77-10.38,3.39,3.61-24.15Z"/>
    <path class="k" d="M110.61,268.64l-6.82,20.77,10.38,3.39-3.57-24.15Z"/>
    <path class="k" d="M89.84,283.7h21.84v10.92l-21.84-10.92Z"/>
    <path class="k" d="M89.84,283.7l17.83,12.84,6.42-8.91-24.24-3.92Z"/>
    <path class="k" d="M179.55,331.7h-21.84v10.92l21.84-10.92Z"/>
    <path class="k" d="M179.55,331.7l-17.83,12.84-6.42-8.91,24.24-3.92Z"/>
    <path class="k" d="M171.44,356.12l-6.77-20.77-10.38,3.43,17.16,17.34Z"/>
    <path class="k" d="M171.44,356.12l-17.83-12.84,6.42-8.91,11.41,21.75Z"/>
    <path class="k" d="M145.72,356.12l17.83-12.84-6.42-8.91-11.41,21.75Z"/>
    <path class="k" d="M145.72,356.12l6.77-20.77,10.38,3.34-17.16,17.43Z"/>
    <path class="k" d="M158.6,316.5l6.73,20.77-10.38,3.39,3.65-24.15Z"/>
    <path class="k" d="M158.6,316.5l-6.77,20.77,10.38,3.39-3.61-24.15Z"/>
    <path class="k" d="M137.79,331.7h21.88v10.92l-21.88-10.92Z"/>
    <path class="k" d="M137.79,331.7l17.83,12.84,6.42-8.91-24.24-3.92Z"/>
  </g>
  <path class="k" d="M355.19,203.08l6.73,20.77-10.38,3.52,3.65-24.29Z"/>
  <path class="k" d="M355.19,203.08l-6.77,20.77,10.38,3.39-3.61-24.15Z"/>
  <path class="k" d="M334.42,218.19h21.84v10.92l-21.84-10.92Z"/>
  <path class="k" d="M334.42,218.19l17.83,12.84,6.42-8.91-24.24-3.92Z"/>
  <path class="k" d="M342.35,242.61l6.55-20.77,10.38,3.39-16.94,17.38Z"/>
  <path class="k" d="M342.35,242.61l17.83-12.84-6.42-8.91-11.41,21.75Z"/>
  <path class="k" d="M375.95,218.19h-21.84v10.92l21.84-10.92Z"/>
  <path class="k" d="M375.95,218.19l-17.83,12.84-6.42-8.91,24.24-3.92Z"/>
  <path class="k" d="M368.02,242.61l-6.77-20.77-10.38,3.39,17.16,17.38Z"/>
  <path class="k" d="M368.02,242.61l-17.83-12.84,6.42-8.91,11.41,21.75Z"/>
  <path class="k" d="M302.51,129.32l-17.83-12.84,6.42-8.91,11.41,21.75Z"/>
  <path class="k" d="M302.51,129.32l-6.77-20.77-10.38,3.39,17.16,17.38Z"/>
  <path class="k" d="M310.44,104.68l-17.83,12.84-6.42-8.91,24.24-3.92Z"/>
  <path class="k" d="M310.44,104.68h-21.88v10.92l21.88-10.92Z"/>
  <path class="k" d="M289.63,89.57l6.77,20.81-10.38,3.34,3.61-24.15Z"/>
  <path class="k" d="M289.63,89.57l-6.73,20.81,10.38,3.34-3.65-24.15Z"/>
  <path class="k" d="M276.79,129.32l17.83-12.84-6.42-8.91-11.41,21.75Z"/>
  <path class="k" d="M276.79,129.32l6.77-20.77,10.38,3.39-17.16,17.38Z"/>
  <path class="k" d="M268.68,104.68l17.83,12.84,6.42-8.91-24.24-3.92Z"/>
  <path class="k" d="M268.68,104.68h21.84v10.92l-21.84-10.92Z"/>
  <path class="k" d="M324.79,177.1l6.73-20.81,10.38,3.39-17.11,17.43Z"/>
  <path class="k" d="M324.79,177.1l17.83-12.88-6.42-8.91-11.41,21.79Z"/>
  <path class="k" d="M350.46,177.1l-17.83-12.88,6.42-8.91,11.41,21.79Z"/>
  <path class="k" d="M350.46,177.1l-6.77-20.81-10.38,3.39,17.16,17.43Z"/>
  <path class="k" d="M358.39,152.68l-17.83,12.84-6.42-8.91,24.24-3.92Z"/>
  <path class="k" d="M358.39,152.68h-21.84v10.92l21.84-10.92Z"/>
  <path class="k" d="M316.86,152.68l17.83,12.84,6.42-8.91-24.24-3.92Z"/>
  <path class="k" d="M316.86,152.68h21.84v10.92l-21.84-10.92Z"/>
  <path class="k" d="M337.63,137.57l-6.55,20.77,10.38,3.39-3.83-24.15Z"/>
  <path class="k" d="M337.63,137.57l6.82,20.77-10.38,3.39,3.57-24.15Z"/>
  <path class="k" d="M316.86,283.7h21.84v10.92l-21.84-10.92Z"/>
  <path class="k" d="M316.86,283.7l17.83,12.84,6.42-8.91-24.24-3.92Z"/>
  <path class="k" d="M324.79,308.12l6.73-20.77,10.38,3.39-17.11,17.38Z"/>
  <path class="k" d="M324.79,308.12l17.83-12.84-6.42-8.91-11.41,21.75Z"/>
  <path class="k" d="M350.46,308.12l-17.83-12.84,6.42-8.91,11.41,21.75Z"/>
  <path class="k" d="M350.46,308.12l-6.77-20.77-10.38,3.39,17.16,17.38Z"/>
  <path class="k" d="M337.63,268.64l-6.55,20.77,10.38,3.39-3.83-24.15Z"/>
  <path class="k" d="M337.63,268.64l6.82,20.77-10.38,3.39,3.57-24.15Z"/>
  <path class="k" d="M358.39,283.7h-21.84v10.92l21.84-10.92Z"/>
  <path class="k" d="M358.39,283.7l-17.83,12.84-6.42-8.91,24.24-3.92Z"/>
  <path class="k" d="M268.68,331.7h21.84v10.92l-21.84-10.92Z"/>
  <path class="k" d="M268.68,331.7l17.83,12.84,6.42-8.91-24.24-3.92Z"/>
  <path class="k" d="M276.79,356.12l6.77-20.77,10.38,3.34-17.16,17.43Z"/>
  <path class="k" d="M276.79,356.12l17.83-12.84-6.42-8.91-11.41,21.75Z"/>
  <path class="k" d="M302.51,356.12l-17.83-12.84,6.42-8.91,11.41,21.75Z"/>
  <path class="k" d="M302.51,356.12l-6.77-20.77-10.38,3.43,17.16,17.34Z"/>
  <path class="k" d="M289.63,316.5l-6.73,20.77,10.38,3.39-3.65-24.15Z"/>
  <path class="k" d="M289.63,316.5l6.77,20.77-10.38,3.39,3.61-24.15Z"/>
  <path class="k" d="M310.44,331.7h-21.88v10.92l21.88-10.92Z"/>
  <path class="k" d="M310.44,331.7l-17.83,12.84-6.42-8.91,24.24-3.92Z"/>
</svg>
