<?xml version='1.0' encoding='UTF-8'?>
<svg xmlns="http://www.w3.org/2000/svg" viewBox="0 0 453.54 453.54">
  <defs>
    <style>
      .cc {
        fill: none;
        stroke: #5F1972;
        stroke-linecap: round;
        stroke-linejoin: round;
        stroke-width: 12px;
      }

      .cd {
        fill: #5F1972;
      }

      .cd, .ce {
        stroke-width: 0px;
      }

      .ce {
        fill: #fff;
      }
    </style>
  </defs>
  <g id="t" data-name="Homme élu">
    <path class="cc" d="M66.95,411.63h324.26s7.84-129.89-127.02-129.89l-.15.28c-14.82,28.21-55.27,28.05-69.86-.28h0s-127.6-.8-127.24,129.89Z"/>
    <path class="cc" d="M300.7,142.82c-.22-3.27-.52-6.53-.9-9.77,1.76-16.68,9.33-37.04,5.11-52.71-5.11-18.97-18.15-22.8-29.32-25.27-5.42-1.2-11.08,6.82-16.77,6.67-8.92-3.98-19.8-11.9-33.11-11.9-11.4,0-21.02,1.78-29.18,4.94-.83.05-1.65.08-2.48.14-25.47,1.84-48.66,27.37-47.14,53.09.47,7.98,4.68,26.75,5.46,34.74,0,0,.21-.32.58-.89-.03.33-.06.66-.08.99-6.03.45-10.84,8.82-10.84,19.11s5.08,19.15,11.34,19.15c0,0,0,0,.01,0,15.99,44.24,46.45,73.95,73.34,73.95s63.11-35.31,73.34-73.98c.12,0,.24.03.37.03,6.26,0,11.34-8.58,11.34-19.15s-4.94-18.89-11.08-19.13Z"/>
    <path id="u" data-name="SVGID" class="cd" d="M286.69,416.61l-101.03-.21-100.67-103.96c-6.01-6.21-5.62-15.88.88-21.63l30.57-27.01c6.52-5.76,16.69-5.38,22.73.83l147.52,151.98Z"/>
    <polygon class="ce" points="92.71 284.51 106.67 272.18 245.02 410.53 217.9 410.53 92.71 284.51"/>
  </g>
  <g id="ac" data-name="Buste homme jeune">
    <path class="cc" d="M151.57,131.36s29.33-33.33,42.67-37.33,16,13.33,26.67,20,45.33-10.67,45.33-10.67c0,0,33.33,17.33,33.56,29.69"/>
  </g>
</svg>
