<?xml version='1.0' encoding='UTF-8'?>
<svg xmlns="http://www.w3.org/2000/svg" id="t" data-name="Argent_euros" viewBox="0 0 453.54 453.54">
  <defs>
    <style>
      .ag {
        stroke: #008280;
      }

      .ag, .ah {
        fill: none;
        stroke-linecap: round;
        stroke-linejoin: round;
        stroke-width: 12px;
      }

      .ah {
        stroke: #fff;
      }

      .ai {
        fill: #008280;
        stroke-width: 0px;
      }
    </style>
  </defs>
  <g>
    <path class="ag" d="M122.69,279.04s-.56,25.48,58.55,26.45c0,0,49.5.62,58.55-26.45"/>
    <ellipse class="ag" cx="181.23" cy="166.13" rx="58.94" ry="26.45"/>
    <line class="ag" x1="122.46" y1="169.78" x2="122.46" y2="330.52"/>
    <line class="ag" x1="239.95" y1="162.77" x2="239.95" y2="275.57"/>
    <path class="ag" d="M122.71,242.12s-.56,25.48,58.55,26.45c0,0,49.5.62,58.55-26.45"/>
    <path class="ag" d="M122.72,204.13s-.56,25.48,58.57,26.45c0,0,49.52.62,58.57-26.45"/>
    <line class="ag" x1="122.55" y1="274.37" x2="122.55" y2="356.32"/>
    <line class="ag" x1="240.03" y1="276.73" x2="240.03" y2="352.95"/>
    <path class="ag" d="M122.73,355.09s-.56,25.48,58.55,26.45c0,0,49.5.62,58.55-26.45"/>
    <path class="ag" d="M122.74,317.09s-.56,25.48,58.57,26.45c0,0,49.52.62,58.57-26.45"/>
  </g>
  <g>
    <circle class="ai" cx="258.6" cy="313.43" r="77.38"/>
    <g>
      <path class="ah" d="M290.37,289.09c-7.39-10.05-19.29-16.57-32.72-16.57-22.42,0-40.59,18.17-40.59,40.59s18.17,40.59,40.59,40.59c15.19,0,28.43-8.35,35.39-20.72"/>
      <line class="ah" x1="200.57" y1="304.66" x2="273.72" y2="304.66"/>
      <line class="ah" x1="200.57" y1="323.47" x2="273.72" y2="323.47"/>
    </g>
  </g>
</svg>
