<?xml version='1.0' encoding='UTF-8'?>
<svg xmlns="http://www.w3.org/2000/svg" id="k" data-name="Impots" viewBox="0 0 453.54 453.54">
  <defs>
    <style>
      .ag {
        stroke-width: 9.2px;
      }

      .ag, .ah, .ai {
        fill: none;
        stroke: #008280;
        stroke-linecap: round;
        stroke-linejoin: round;
      }

      .ah {
        stroke-width: 11.62px;
      }

      .aj {
        fill: #008280;
        stroke-width: 0px;
      }

      .ai {
        stroke-width: 12px;
      }
    </style>
  </defs>
  <circle class="aj" cx="350.8" cy="158.18" r="9.09"/>
  <circle class="aj" cx="313.96" cy="114.74" r="9.09"/>
  <line class="ai" x1="352.43" y1="112.83" x2="311.43" y2="159.83"/>
  <g>
    <line class="ai" x1="95.97" y1="151.27" x2="179.08" y2="151.27"/>
    <line class="ai" x1="95.97" y1="227.72" x2="179.08" y2="227.72"/>
    <line class="ai" x1="95.97" y1="304.16" x2="179.08" y2="304.16"/>
    <line class="ai" x1="95.97" y1="380.6" x2="179.08" y2="380.6"/>
  </g>
  <g>
    <path class="ag" d="M282.97,322.27c-5.67-7.71-14.79-12.71-25.09-12.71-17.19,0-31.13,13.94-31.13,31.13s13.94,31.13,31.13,31.13c11.65,0,21.8-6.41,27.14-15.89"/>
    <line class="ag" x1="214.1" y1="334.21" x2="270.2" y2="334.21"/>
    <line class="ag" x1="214.1" y1="348.64" x2="270.2" y2="348.64"/>
  </g>
  <polygon class="ai" points="135.7 115.18 60.7 115.18 135.7 40.18 135.7 115.18"/>
  <g>
    <path class="ai" d="M273.02,137.49c0-32.59,26.19-59.04,58.66-59.51v-37.81h-195.71L60.44,114.34v302.83h271.24v-220.18c-32.48-.47-58.66-26.92-58.66-59.51Z"/>
    <path class="ah" d="M331.68,197c.29,0,.58.02.87.02,32.88,0,59.53-26.65,59.53-59.53s-26.65-59.53-59.53-59.53c-.29,0-.58.02-.87.02"/>
    <path class="ai" d="M331.68,77.99c-32.48.47-58.66,26.92-58.66,59.51s26.19,59.04,58.66,59.51"/>
  </g>
</svg>
