<?xml version='1.0' encoding='UTF-8'?>
<svg xmlns="http://www.w3.org/2000/svg" id="x" data-name="Pièces chute" viewBox="0 0 453.54 453.54">
  <defs>
    <style>
      .ag {
        stroke: #008280;
        stroke-miterlimit: 10;
        stroke-width: 12px;
      }

      .ag, .ah {
        fill: #fff;
      }

      .ah {
        stroke-width: 0px;
      }
    </style>
  </defs>
  <g>
    <ellipse class="ag" cx="135.73" cy="113.73" rx="30.95" ry="72.16" transform="translate(-41.03 103.14) rotate(-36.53)"/>
    <ellipse class="ag" cx="155.25" cy="99.28" rx="30.95" ry="72.16" transform="translate(-28.59 111.92) rotate(-36.53)"/>
    <line class="ag" x1="112.3" y1="41.3" x2="92.78" y2="55.75"/>
    <line class="ag" x1="198.2" y1="157.26" x2="178.68" y2="171.71"/>
    <path class="ah" d="M104.54,83.44s-5.14-13.11-4.16-25.9c0,0-6.99,3.12-8.3,10.49,0,0-1.46,4.8,2.71,20.26l9.75-4.85Z"/>
    <path class="ah" d="M156.9,153.31s11.05,8.74,23.56,11.53c0,0-5.02,5.78-12.45,4.88,0,0-5.01,0-18.59-8.49l7.48-7.91Z"/>
  </g>
  <g>
    <ellipse class="ag" cx="287.84" cy="342.04" rx="72.16" ry="30.95" transform="translate(-135.44 198.24) rotate(-31.15)"/>
    <ellipse class="ag" cx="300.4" cy="362.83" rx="72.16" ry="30.95" transform="translate(-144.38 207.74) rotate(-31.15)"/>
    <line class="ag" x1="362.15" y1="325.5" x2="349.59" y2="304.71"/>
    <line class="ag" x1="238.66" y1="400.16" x2="226.09" y2="379.37"/>
    <path class="ah" d="M320.92,313.83s13.54-3.89,26.17-1.72c0,0-2.45-7.25-9.66-9.24,0,0-4.64-1.9-20.42.8l3.91,10.16Z"/>
    <path class="ah" d="M246.45,359.41s-9.73,10.18-13.68,22.38c0,0-5.28-5.54-3.69-12.85,0,0,.47-4.99,10.2-17.71l7.18,8.19Z"/>
  </g>
  <g>
    <ellipse class="ag" cx="299.94" cy="190.64" rx="72.16" ry="30.95" transform="translate(-43.89 280.59) rotate(-47.1)"/>
    <ellipse class="ag" cx="282.14" cy="174.11" rx="72.16" ry="30.95" transform="translate(-37.46 262.28) rotate(-47.1)"/>
    <line class="ag" x1="233.02" y1="226.97" x2="250.82" y2="243.5"/>
    <line class="ag" x1="331.26" y1="121.25" x2="349.05" y2="137.78"/>
    <path class="ah" d="M275.88,226.86s-11.95,7.46-24.69,8.84c0,0,4.35,6.3,11.83,6.23,0,0,4.98.55,19.42-6.38l-6.55-8.69Z"/>
    <path class="ah" d="M334.96,162.57s6.56-12.46,7.01-25.27c0,0,6.6,3.88,7.08,11.34,0,0,.92,4.93-4.94,19.83l-9.15-5.9Z"/>
  </g>
  <g>
    <ellipse class="ag" cx="134.72" cy="265.37" rx="72.16" ry="30.95" transform="translate(-162.66 276.96) rotate(-65.32)"/>
    <ellipse class="ag" cx="156.79" cy="275.51" rx="72.16" ry="30.95" transform="translate(-159.03 302.92) rotate(-65.32)"/>
    <line class="ag" x1="186.92" y1="209.95" x2="164.85" y2="199.81"/>
    <line class="ag" x1="126.66" y1="341.07" x2="104.59" y2="330.93"/>
    <path class="ah" d="M146.24,223.45s9.02-10.82,20.69-16.12c0,0-6.1-4.62-13.19-2.22,0,0-4.91,1.03-16.45,12.13l8.94,6.21Z"/>
    <path class="ah" d="M110.23,302.98s-2.34,13.89,1.24,26.2c0,0-7.48-1.62-10.27-8.56,0,0-2.41-4.4-1.51-20.38l10.54,2.74Z"/>
  </g>
</svg>
