<?xml version='1.0' encoding='UTF-8'?>
<svg xmlns="http://www.w3.org/2000/svg" id="ac" data-name="Ticket de caisse" viewBox="0 0 453.54 453.54">
  <defs>
    <style>
      .ag {
        fill: #008280;
      }

      .ag, .ah {
        stroke-width: 0px;
      }

      .ai, .aj {
        stroke-linecap: round;
      }

      .ai, .aj, .ak {
        fill: none;
        stroke: #008280;
        stroke-width: 12px;
      }

      .ai, .ak {
        stroke-miterlimit: 10;
      }

      .aj {
        stroke-linejoin: round;
      }

      .ah {
        fill: #fff;
      }
    </style>
  </defs>
  <g>
    <g>
      <path class="ah" d="M365.83,84.06v326.74l-33.46-33.29-43.7,33.29-39.41-33.29-37.75,33.29-45.27-33.29-31.89,33.29v-237.35h5.7V46.63h188.36c20.65,0,37.42,16.77,37.42,37.42ZM317.26,273.16c0-37.26-30.24-67.5-67.5-67.5s-67.58,30.24-67.58,67.5,30.24,67.58,67.58,67.58,67.5-30.24,67.5-67.58Z"/>
      <path class="ah" d="M249.76,205.67c37.26,0,67.5,30.24,67.5,67.5s-30.24,67.58-67.5,67.58-67.58-30.24-67.58-67.58,30.24-67.5,67.58-67.5Z"/>
      <polygon class="ag" points="140.05 46.63 140.05 173.45 134.35 173.45 134.35 160.48 113.86 160.48 113.86 46.63 140.05 46.63"/>
      <path class="ag" d="M140.05,40.6v6.03h-26.19v113.84h20.49v12.97h-49.98V56.55c0-8.76,7.19-15.94,15.94-15.94h39.74Z"/>
    </g>
    <g>
      <path class="aj" d="M134.35,173.45v237.35l31.89-33.29,45.27,33.29,37.75-33.29,39.41,33.29,43.7-33.29,33.46,33.29V84.06c0-20.65-16.77-37.42-37.42-37.42h-188.36"/>
      <line class="ai" x1="175.24" y1="92.32" x2="324.28" y2="92.32"/>
      <line class="ai" x1="175.24" y1="127.43" x2="324.28" y2="127.43"/>
      <line class="ai" x1="175.24" y1="162.54" x2="324.28" y2="162.54"/>
      <path class="ak" d="M317.26,273.16c0,37.34-30.24,67.58-67.5,67.58s-67.58-30.24-67.58-67.58,30.24-67.5,67.58-67.5,67.5,30.24,67.5,67.5Z"/>
    </g>
  </g>
  <g>
    <path class="ai" d="M280.06,299.64c-6.66,6.95-16.05,11.29-26.44,11.29-20.22,0-36.62-16.39-36.62-36.62s16.39-36.62,36.62-36.62c9.64,0,18.41,3.73,24.95,9.82"/>
    <line class="ai" x1="206.36" y1="264.79" x2="267.74" y2="264.79"/>
    <line class="ai" x1="206.36" y1="283.7" x2="267.74" y2="283.7"/>
  </g>
</svg>
