<?xml version='1.0' encoding='UTF-8'?>
<svg xmlns="http://www.w3.org/2000/svg" id="o" data-name="Cout main d&amp;apos;oeuvre_2" viewBox="0 0 453.54 453.54">
  <defs>
    <style>
      .ag {
        stroke: #fff;
      }

      .ag, .ah {
        fill: none;
        stroke-linecap: round;
        stroke-linejoin: round;
        stroke-width: 12px;
      }

      .ai {
        fill: #008280;
        stroke-width: 0px;
      }

      .ah {
        stroke: #008280;
      }
    </style>
  </defs>
  <path class="ah" d="M103.17,129.77c0-49.11,39.82-88.93,88.93-88.93s88.93,39.82,88.93,88.93-39.8,88.94-88.93,88.94-88.93-39.83-88.93-88.94"/>
  <path class="ah" d="M347.68,380.14c-.99-73.83-61.13-133.4-135.21-133.4h-40.75c-74.08,0-134.21,59.57-135.19,133.4h311.16Z"/>
  <g>
    <circle class="ai" cx="324.51" cy="327.61" r="88.76"/>
    <g>
      <path class="ag" d="M360.18,359.83c-8.48,8.85-20.43,14.37-33.66,14.37-25.74,0-46.61-20.87-46.61-46.61s20.87-46.61,46.61-46.61c12.27,0,23.44,4.74,31.77,12.5"/>
      <line class="ag" x1="266.35" y1="315.45" x2="344.49" y2="315.45"/>
      <line class="ag" x1="266.35" y1="339.53" x2="344.49" y2="339.53"/>
    </g>
  </g>
  <g>
    <path class="ag" d="M360.18,359.83c-8.48,8.85-20.43,14.37-33.66,14.37-25.74,0-46.61-20.87-46.61-46.61s20.87-46.61,46.61-46.61c12.27,0,23.44,4.74,31.77,12.5"/>
    <line class="ag" x1="266.35" y1="315.45" x2="344.49" y2="315.45"/>
    <line class="ag" x1="266.35" y1="339.53" x2="344.49" y2="339.53"/>
  </g>
</svg>
