<?xml version='1.0' encoding='UTF-8'?>
<svg xmlns="http://www.w3.org/2000/svg" id="p" data-name="Poignée de main" viewBox="0 0 453.54 453.54">
  <defs>
    <style>
      .ag {
        fill: none;
        stroke: #008280;
        stroke-linecap: round;
        stroke-linejoin: round;
        stroke-width: 12px;
      }

      .ah {
        fill: #008280;
      }

      .ah, .ai {
        stroke-width: 0px;
      }

      .ai {
        fill: #fff;
      }
    </style>
  </defs>
  <polygon class="ag" points="318.5 199.53 362.39 182.34 405 289.88 361.75 308.36 318.5 199.53"/>
  <circle class="ah" cx="373.62" cy="275.04" r="7.43"/>
  <polygon class="ag" points="92.79 182.34 135.39 204.15 84.57 308.36 40.43 285.77 92.79 182.34"/>
  <circle class="ah" cx="75.58" cy="275.04" r="7.43"/>
  <path class="ag" d="M316.61,304.97l-32.85-32.28-55.95-23.93s-10.27,2.05-10.01,10.27c0,0-6.16,17.71-25.41,12.32-19.25-5.39-8.47-27.72-8.47-27.72l8.47-17.97,15.66-9.5s-5.39-10.52-20.79-1.28c-15.4,9.24-28.23,17.97-28.23,17.97l-11.29-5.39-37.99,76.23,15.66,7.7s20.79-3.85,24.64,13.86c0,0,19.76-13.09,26.95,8.73,0,0,6.42-11.29,21.3-4.62,0,0,9.5,3.34,6.16,17.71,0,0,27.72.04,14.63,24.53,0,0,8.98,9.86,16.43,2.42,3.66-3.66,6.14-7.02,7.72-9.5,1.47-2.31,1.18-5.31-.73-7.27l-13.41-13.77,15.14,15.8c2.77,2.9,6.88,4.16,10.78,3.2,4.26-1.06,9.78-3.28,14.28-7.96,2.7-2.81,2.79-7.52.21-10.44l-21.15-23.95,24.71,27.77c2.29,2.57,5.91,3.54,9.15,2.38,5.14-1.83,12.63-5.52,17.35-12.37,2.09-3.03,1.62-7.15-.98-9.75l-29.18-29.07,32.14,32.02c2.06,2.06,5.1,2.85,7.88,1.98,5.28-1.67,9.61-6.34,13.88-12.69,0,0,4.62-6.93-6.67-15.4Z"/>
  <path class="ag" d="M304.55,220.79l31.83,79.82-19.76,4.36-32.85-32.28-55.95-23.93s-10.27,2.57-10.01,10.27c0,0-5.9,17.45-25.41,12.32-19.51-5.13-8.47-27.72-8.47-27.72l8.47-17.97,35.93-20.02,54.93,20.02,21.3-4.88Z"/>
  <path class="ag" d="M150.04,325.25l-6.06,12.09c-2.4,4.79-1.7,10.59,1.85,14.6,3.26,3.68,8.4,6.85,16.15,5.5l15.01-23.46s-5.39-21.05-26.95-8.73Z"/>
  <path class="ag" d="M176.99,333.98l-16.55,25.87c-2.84,4.44-2.28,10.29,1.45,14.01,2.58,2.58,5.45,4.67,10.31,5.69s9.63-.97,12.45-4.91l19.8-27.57s2.57-14.12-6.16-17.71c-8.73-3.59-15.53-2.72-21.3,4.62Z"/>
  <path class="ag" d="M150.04,325.25l-7.17,14.32s-24.33-2.97-25.36-14.52c0,0,.45-11.1,7.89-13.66s20.79.26,24.64,13.86Z"/>
  <path class="ag" d="M188.7,369s1.66,5.05,5.67,9.1c4.91,4.96,12.97,4.86,17.99,0l6.73-6.51s14.89-21.96-14.63-24.53l-15.75,21.94Z"/>
  <circle class="ah" cx="226.66" cy="137.2" r="42.72"/>
  <path class="ai" d="M240.33,153.45c-3.49,2.77-7.69,4.23-12.15,4.23-7.38,0-13.81-4.1-17.15-10.15h30.63v-7.42h-32.96c-.07-.67-.11-1.34-.11-2.03,0-.77.06-1.53.14-2.28h32.92v-7.42h-30.48c3.38-5.9,9.72-9.89,17-9.89,4.46,0,8.66,1.46,12.15,4.23l1.91,1.51,4.61-5.81-1.91-1.51c-4.82-3.82-10.61-5.84-16.76-5.84-11.47,0-21.27,7.2-25.18,17.31h-7.16v7.42h5.45c-.06.75-.12,1.51-.12,2.28,0,.68.05,1.35.1,2.03h-5.44v7.42h7.07c3.84,10.24,13.7,17.56,25.27,17.56,6.15,0,11.95-2.02,16.76-5.84l1.91-1.51-4.61-5.81-1.91,1.51Z"/>
</svg>
