<?xml version='1.0' encoding='UTF-8'?>
<svg xmlns="http://www.w3.org/2000/svg" id="h" data-name="Billets" viewBox="0 0 453.54 453.54">
  <defs>
    <style>
      .ag, .ah, .ai, .aj {
        stroke: #008280;
        stroke-linejoin: round;
        stroke-width: 12px;
      }

      .ag, .aj {
        fill: none;
      }

      .ah, .ai {
        fill: #fff;
      }

      .ah, .aj {
        stroke-linecap: round;
      }
    </style>
  </defs>
  <rect class="ah" x="81.97" y="117.22" width="330.26" height="180.04"/>
  <rect class="ah" x="63.29" y="138.14" width="330.26" height="180.04"/>
  <g>
    <rect class="ai" x="43.72" y="158.11" width="330.26" height="180.04"/>
    <path class="ag" d="M96.15,309.05h226.1c.31-11.38,9.38-20.57,20.72-21.07v-78.5c-11.54-.5-20.74-10.01-20.74-21.67,0-.2,0-.4.02-.6H96.15c0,.2.02.4.02.6,0,11.9-9.58,21.55-21.44,21.69v78.47c11.66.14,21.11,9.47,21.42,21.09Z"/>
    <g>
      <path class="aj" d="M243.18,271.72c-6.21,6.48-14.95,10.51-24.63,10.51-18.84,0-34.11-15.27-34.11-34.11s15.27-34.11,34.11-34.11c8.98,0,17.15,3.47,23.24,9.14"/>
      <line class="aj" x1="174.53" y1="239.25" x2="231.7" y2="239.25"/>
      <line class="aj" x1="174.53" y1="256.87" x2="231.7" y2="256.87"/>
    </g>
  </g>
</svg>
