<?xml version='1.0' encoding='UTF-8'?>
<svg xmlns="http://www.w3.org/2000/svg" id="i" data-name="Crédit maison" viewBox="0 0 453.54 453.54">
  <defs>
    <style>
      .ag, .ah {
        stroke-width: 13.68px;
      }

      .ag, .ah, .ai, .aj {
        stroke: #008280;
      }

      .ag, .ah, .ak {
        stroke-miterlimit: 10;
      }

      .ag, .ai, .ak, .al {
        fill: none;
      }

      .ah, .am, .aj, .an {
        fill: #fff;
      }

      .am, .ai, .aj, .ak, .al {
        stroke-linecap: round;
      }

      .am, .ai, .aj, .al {
        stroke-linejoin: round;
      }

      .am, .ak, .al {
        stroke: #008280;
        stroke-width: 12px;
      }

      .ai, .aj {
        stroke-width: 12.16px;
      }

      .an {
        stroke-width: 0px;
      }
    </style>
  </defs>
  <g>
    <polygon class="am" points="412.26 201.6 248.65 44.8 85.04 201.6 120.12 201.6 120.12 373.72 377.89 373.72 377.89 201.6 412.26 201.6"/>
    <line class="al" x1="86.3" y1="373.72" x2="413.07" y2="373.72"/>
  </g>
  <g>
    <path class="ak" d="M309.7,293.85c-12.69,13.25-30.56,21.49-50.36,21.49-38.51,0-69.74-31.22-69.74-69.74s31.22-69.74,69.74-69.74c18.36,0,35.07,7.1,47.52,18.7"/>
    <line class="ak" x1="169.33" y1="227.47" x2="286.23" y2="227.47"/>
    <line class="ak" x1="169.33" y1="263.48" x2="286.23" y2="263.48"/>
  </g>
  <g>
    <path class="an" d="M47.79,274.67s54.47,26.75,89.73-2.96v120.29s-46.73,47.79-89.73-2.6v-114.73Z"/>
    <path class="ai" d="M43.98,356.71s-.47,21.28,48.89,22.08c0,0,41.33.52,48.89-22.08"/>
    <ellipse class="aj" cx="92.86" cy="262.43" rx="49.22" ry="22.08"/>
    <line class="ai" x1="43.79" y1="265.03" x2="43.79" y2="387.2"/>
    <line class="ai" x1="141.89" y1="259.62" x2="141.89" y2="353.82"/>
    <path class="ai" d="M44,325.89s-.47,21.28,48.89,22.08c0,0,41.33.52,48.89-22.08"/>
    <path class="ai" d="M44.01,294.16s-.47,21.28,48.91,22.08c0,0,41.35.52,48.91-22.08"/>
    <line class="ai" x1="141.96" y1="352.5" x2="141.96" y2="387.18"/>
    <path class="ai" d="M44.02,388.48s-.47,21.28,48.91,22.08c0,0,41.35.52,48.91-22.08"/>
  </g>
  <g>
    <path class="an" d="M205.06,364.28v41.01s-21.67,42.98-102.48,7.43v-45.78l102.48-2.67Z"/>
    <path class="ag" d="M205.06,408.68c0,9.8-22.94,17.74-51.24,17.74s-51.24-7.94-51.24-17.74"/>
    <path class="ag" d="M205.06,380.53c0,9.8-22.94,17.74-51.24,17.74s-51.24-7.94-51.24-17.74"/>
    <ellipse class="ah" cx="153.82" cy="352.37" rx="51.24" ry="17.74"/>
    <line class="ag" x1="102.58" y1="354.34" x2="102.58" y2="409.92"/>
    <line class="ag" x1="205.06" y1="354.34" x2="205.06" y2="410.57"/>
  </g>
</svg>
