<?xml version='1.0' encoding='UTF-8'?>
<svg xmlns="http://www.w3.org/2000/svg" id="a" data-name="Carte bancaire" viewBox="0 0 453.54 453.54">
  <defs>
    <style>
      .ag {
        fill: #008280;
        stroke-width: 0px;
      }
    </style>
  </defs>
  <rect class="ag" x="200.71" y="365.04" width="48.76" height="12.21" rx="6.11" ry="6.11"/>
  <g>
    <rect class="ag" x="66.54" y="255.96" width="48.76" height="12.21" rx="6.11" ry="6.11"/>
    <rect class="ag" x="66.54" y="310.83" width="73.19" height="12.21" rx="6.11" ry="6.11"/>
    <rect class="ag" x="158.05" y="310.83" width="24.43" height="12.21" rx="6.11" ry="6.11"/>
    <path class="ag" d="M264.69,255.96l-14.25-14.25c-3.91-3.91-10.25-3.91-14.17,0l-24.83,24.83c-3.91,3.91-3.91,10.25,0,14.17l24.83,24.83c3.91,3.91,10.25,3.91,14.17,0l14.25-14.25,14.25,14.25c3.91,3.91,10.25,3.91,14.17,0l24.83-24.83c3.91-3.91,3.91-10.25,0-14.17l-24.83-24.83c-3.91-3.91-10.25-3.91-14.17,0l-14.25,14.25Z"/>
    <path class="ag" d="M412.87,246.19l-45.1-138.96c-4.23-12.78-14.66-26.21-38.43-19.54l-243.82,77.99c-28,10.34-18.89,40.87-18.89,40.87-17.1,0-30.44,13.44-30.44,30.44v146.29c0,17.1,13.44,30.44,30.44,30.44h256.04c17.1,0,30.44-13.44,30.44-30.44v-85.97l40.21-12.78c15.88-5.45,24.43-22.46,19.54-38.34ZM89.74,177.31l243.26-78.64c15.22-3.66,20.76,4.23,23.21,11.56l3.66,11.56L97.73,206.54h-18.32c.56.66-8.55-20.67,10.34-29.22ZM340.9,383.37c0,10.34-7.89,18.32-18.32,18.32H66.54c-10.34,0-18.32-7.89-18.32-18.32v-146.29c0-10.34,7.89-18.32,18.32-18.32h256.04c10.34,0,18.32,7.89,18.32,18.32v146.29ZM389.1,272.96l-35.99,11.65v-47.54c0-17.1-13.44-30.44-30.44-30.44h-66.43l118.2-38.52,26.21,81.09c3.66,10.43-1.88,20.76-11.56,23.77Z"/>
  </g>
</svg>
