<?xml version='1.0' encoding='UTF-8'?>
<svg xmlns="http://www.w3.org/2000/svg" id="n" data-name="Cadenas" viewBox="0 0 453.54 453.54">
  <defs>
    <style>
      .aq {
        fill: #5F1972;
      }

      .aq, .ar {
        stroke: #5F1972;
        stroke-linecap: round;
        stroke-linejoin: round;
        stroke-width: 12px;
      }

      .as {
        fill: #fff;
        stroke-width: 0px;
      }

      .ar {
        fill: none;
      }
    </style>
  </defs>
  <path class="ar" d="M130.8,176.29h-23.05c-12.72,0-23.07,10.35-23.07,23.07v70.58c0,79.93,65.02,144.95,144.95,144.95h2.79c79.93,0,144.95-65.02,144.95-144.95v-70.58c0-12.72-10.35-23.07-23.07-23.07h-223.51Z"/>
  <path class="ar" d="M254.59,293.23c7.33-6.1,14.07-16.97,14.07-29.8,0-21.33-17.33-38.68-38.64-38.68s-38.68,17.35-38.68,38.68c0,12.85,6.74,23.72,14.06,29.81l-4.95,28.63c-.37,2.17.36,4.38,1.96,5.9.43.41,10.79,10.04,27.57,10.04h.04c16.73,0,27.12-9.62,27.56-10.03,1.61-1.51,2.34-3.73,1.97-5.91l-4.95-28.64Z"/>
  <path class="aq" d="M332.76,175.41v-40.63c0-53.91-44.1-98.01-98.01-98.01h-5.94c-53.91,0-98.01,44.1-98.01,98.01v40.63h201.96Z"/>
  <path class="as" d="M298.25,164.3v-27.97c0-37.11-29.29-67.47-65.1-67.47h-3.95c-35.8,0-65.1,30.36-65.1,67.47v27.97h134.14Z"/>
</svg>
