<?xml version='1.0' encoding='UTF-8'?>
<svg xmlns="http://www.w3.org/2000/svg" id="ap" data-name="évolution 3" viewBox="0 0 453.54 453.54">
  <defs>
    <style>
      .aq {
        fill: #008280;
        stroke-width: 0px;
      }

      .ar {
        fill: none;
        stroke: #008280;
        stroke-linecap: round;
        stroke-linejoin: round;
        stroke-width: 12px;
      }
    </style>
  </defs>
  <path class="aq" d="M186.29,45.07c34.38,0,66.7,13.39,91.01,37.7,24.31,24.31,37.7,56.63,37.7,91.01s-13.39,66.7-37.7,91.01c-24.31,24.31-56.63,37.7-91.01,37.7s-66.7-13.39-91.01-37.7-37.7-56.63-37.7-91.01,13.39-66.7,37.7-91.01c24.31-24.31,56.63-37.7,91.01-37.7M186.29,33.07c-77.71,0-140.71,63-140.71,140.71s63,140.71,140.71,140.71,140.71-63,140.71-140.71S264,33.07,186.29,33.07h0Z"/>
  <line class="ar" x1="283.27" y1="268.98" x2="379.17" y2="365.25"/>
  <g>
    <path class="ar" d="M241.72,224.6c-13.14,13.71-31.64,22.25-52.14,22.25-39.88,0-72.2-32.33-72.2-72.2s32.33-72.2,72.2-72.2c19.01,0,36.31,7.35,49.2,19.36"/>
    <line class="ar" x1="96.39" y1="155.86" x2="217.42" y2="155.86"/>
    <line class="ar" x1="96.39" y1="193.15" x2="217.42" y2="193.15"/>
  </g>
</svg>
