<?xml version='1.0' encoding='UTF-8'?>
<svg xmlns="http://www.w3.org/2000/svg" id="r" data-name="Loupe" viewBox="0 0 453.54 453.54">
  <defs>
    <style>
      .aq {
        fill: #008280;
        stroke-width: 0px;
      }

      .ar {
        fill: none;
        stroke: #008280;
        stroke-linecap: round;
        stroke-linejoin: round;
        stroke-width: 12px;
      }
    </style>
  </defs>
  <path class="aq" d="M176.09,46.29c34.38,0,66.7,13.39,91.01,37.7,24.31,24.31,37.7,56.63,37.7,91.01s-13.39,66.7-37.7,91.01-56.63,37.7-91.01,37.7-66.7-13.39-91.01-37.7-37.7-56.63-37.7-91.01,13.39-66.7,37.7-91.01c24.31-24.31,56.63-37.7,91.01-37.7M176.09,34.29c-77.71,0-140.71,63-140.71,140.71s63,140.71,140.71,140.71,140.71-63,140.71-140.71S253.8,34.29,176.09,34.29h0Z"/>
  <path class="ar" d="M101.01,110.42c18.16-21.1,45.06-34.45,75.08-34.45,54.7,0,99.03,44.34,99.03,99.03"/>
  <line class="ar" x1="273.07" y1="270.2" x2="293.59" y2="291.09"/>
  <path class="aq" d="M314.22,289.38c5.61,0,10.88,2.18,14.85,6.15l68.84,68.84c8.19,8.19,8.19,21.51,0,29.7-3.97,3.97-9.24,6.15-14.85,6.15s-10.88-2.18-14.85-6.15l-68.84-68.84c-8.19-8.19-8.19-21.51,0-29.7,3.97-3.97,9.24-6.15,14.85-6.15M314.22,277.38c-8.45,0-16.89,3.22-23.34,9.67-12.89,12.89-12.89,33.79,0,46.67l68.84,68.84c6.44,6.44,14.89,9.67,23.34,9.67s16.89-3.22,23.34-9.67c12.89-12.89,12.89-33.79,0-46.67l-68.84-68.84c-6.44-6.44-14.89-9.67-23.34-9.67h0Z"/>
</svg>
