<?xml version='1.0' encoding='UTF-8'?>
<svg xmlns="http://www.w3.org/2000/svg" id="q" data-name="Loupe euro" viewBox="0 0 453.54 453.54">
  <defs>
    <style>
      .aq {
        fill: #008280;
        stroke-width: 0px;
      }

      .ar {
        fill: none;
        stroke: #008280;
        stroke-linecap: round;
        stroke-linejoin: round;
        stroke-width: 12px;
      }
    </style>
  </defs>
  <path class="aq" d="M186.29,45.07c34.38,0,66.7,13.39,91.01,37.7s37.7,56.63,37.7,91.01-13.39,66.7-37.7,91.01-56.63,37.7-91.01,37.7-66.7-13.39-91.01-37.7-37.7-56.63-37.7-91.01,13.39-66.7,37.7-91.01,56.63-37.7,91.01-37.7M186.29,33.07c-77.71,0-140.71,63-140.71,140.71s63,140.71,140.71,140.71,140.71-63,140.71-140.71S264,33.07,186.29,33.07h0Z"/>
  <line class="ar" x1="283.27" y1="268.98" x2="303.79" y2="289.87"/>
  <path class="aq" d="M324.42,288.16c5.61,0,10.88,2.18,14.85,6.15l68.84,68.84c8.19,8.19,8.19,21.51,0,29.7-3.97,3.97-9.24,6.15-14.85,6.15s-10.88-2.18-14.85-6.15l-68.84-68.84c-8.19-8.19-8.19-21.51,0-29.7,3.97-3.97,9.24-6.15,14.85-6.15M324.42,276.16c-8.45,0-16.89,3.22-23.34,9.67-12.89,12.89-12.89,33.79,0,46.67l68.84,68.84c6.44,6.44,14.89,9.67,23.34,9.67s16.89-3.22,23.34-9.67c12.89-12.89,12.89-33.79,0-46.67l-68.84-68.84c-6.44-6.44-14.89-9.67-23.34-9.67h0Z"/>
  <g>
    <path class="ar" d="M241.72,224.6c-13.14,13.71-31.64,22.25-52.14,22.25-39.88,0-72.2-32.33-72.2-72.2s32.33-72.2,72.2-72.2c19.01,0,36.31,7.35,49.2,19.36"/>
    <line class="ar" x1="96.39" y1="155.86" x2="217.42" y2="155.86"/>
    <line class="ar" x1="96.39" y1="193.15" x2="217.42" y2="193.15"/>
  </g>
</svg>
