<?xml version='1.0' encoding='UTF-8'?>
<svg xmlns="http://www.w3.org/2000/svg" id="ap" data-name="évolution 3" viewBox="0 0 453.54 453.54">
  <defs>
    <style>
      .aq {
        fill: #008280;
        stroke-width: 0px;
      }

      .ar {
        fill: none;
        stroke: #008280;
        stroke-linecap: round;
        stroke-linejoin: round;
        stroke-width: 12px;
      }
    </style>
  </defs>
  <line class="ar" x1="276.35" y1="274.98" x2="372.26" y2="371.25"/>
  <g>
    <path class="aq" d="M176.09,46.29c34.38,0,66.7,13.39,91.01,37.7,24.31,24.31,37.7,56.63,37.7,91.01s-13.39,66.7-37.7,91.01-56.63,37.7-91.01,37.7-66.7-13.39-91.01-37.7-37.7-56.63-37.7-91.01,13.39-66.7,37.7-91.01c24.31-24.31,56.63-37.7,91.01-37.7M176.09,34.29c-77.71,0-140.71,63-140.71,140.71s63,140.71,140.71,140.71,140.71-63,140.71-140.71S253.8,34.29,176.09,34.29h0Z"/>
    <path class="ar" d="M101.01,110.42c18.16-21.1,45.06-34.45,75.08-34.45,54.7,0,99.03,44.34,99.03,99.03"/>
  </g>
</svg>
