<?xml version='1.0' encoding='UTF-8'?>
<svg xmlns="http://www.w3.org/2000/svg" id="f" data-name="Fiche de paie" viewBox="0 0 453.54 453.54">
  <defs>
    <style>
      .j {
        fill: #144179;
        stroke-width: 0px;
      }
    </style>
  </defs>
  <path class="j" d="M339.8,70.09v-33.09c0-3.32-2.69-6-6-6h-190.31c-2.28,0-4.26,1.27-5.28,3.14v.02s-70.26,70.24-70.26,70.24c-1.32,1.32-2.8,2.44-4.28,3.57-1.42,1.09-2.33,2.82-2.33,4.75v302.29c0,3.31,2.68,6,6,6h266.46c3.31,0,6-2.69,6-6v-221.22c30.64-3.92,54.4-30.16,54.4-61.85s-23.76-57.93-54.4-61.85ZM137.48,51.84l-.02,54.88h-54.85l54.87-54.88ZM327.8,409.01H73.34V118.72h70.12c3.31,0,6-2.68,6-5.99l.03-69.73h178.31v26.72c-32.5,2.1-58.31,29.2-58.31,62.22s25.81,60.12,58.31,62.22v214.85ZM327.23,182.08c-24.04-2.15-43.39-21.51-45.54-45.55-2.8-31.36,23.38-57.54,54.75-54.74,24.05,2.15,43.41,21.52,45.55,45.57,2.78,31.37-23.4,57.53-54.76,54.72Z"/>
  <path class="j" d="M281.74,232.47H105.99c-3.29,0-6.15-2.53-6.25-5.81s2.62-6.19,6-6.19h175.75c3.29,0,6.15,2.53,6.25,5.81s-2.62,6.19-6,6.19Z"/>
  <path class="j" d="M205.23,156.51h-99.24c-3.29,0-6.15-2.53-6.25-5.81s2.62-6.19,6-6.19h99.24c3.29,0,6.15,2.53,6.25,5.81.1,3.4-2.62,6.19-6,6.19Z"/>
  <path class="j" d="M288,307.9H105.99c-3.29,0-6.15-2.53-6.25-5.81s2.62-6.19,6-6.19h182c3.29,0,6.15,2.53,6.25,5.81s-2.62,6.19-6,6.19Z"/>
  <path class="j" d="M210.42,381.44h-104.43c-3.29,0-6.15-2.53-6.25-5.81s2.62-6.19,6-6.19h104.43c3.29,0,6.15,2.53,6.25,5.81s-2.62,6.19-6,6.19Z"/>
  <path class="j" d="M350.49,148.43c-3.7,2.96-8.15,4.52-12.88,4.52-7.82,0-14.63-4.39-18.17-10.84h29.9c1.41,0,2.56-1.16,2.56-2.6v-2.73c0-1.43-1.15-2.6-2.56-2.6h-32.37c-.07-.71-.11-1.43-.11-2.16,0-.82.06-1.63.15-2.43h32.33c1.41,0,2.56-1.16,2.56-2.6v-2.73c0-1.43-1.15-2.6-2.56-2.6h-29.74c3.58-6.31,10.3-10.57,18.01-10.57,4.72,0,9.18,1.56,12.88,4.52l.03.02c1.1.88,2.7.69,3.57-.41l1.7-2.17c.89-1.13.7-2.76-.42-3.66h0c-5.1-4.08-11.25-6.24-17.76-6.24-12.15,0-22.54,7.69-26.68,18.5h-5.03c-1.41,0-2.56,1.16-2.56,2.6v2.73c0,1.43,1.15,2.6,2.56,2.6h3.22c-.07.8-.12,1.61-.12,2.43,0,.73.06,1.45.11,2.16h-3.2c-1.41,0-2.56,1.16-2.56,2.6v2.73c0,1.43,1.15,2.6,2.56,2.6h4.93c4.07,10.94,14.52,18.76,26.77,18.76,6.52,0,12.66-2.16,17.76-6.24h0c1.12-.9,1.31-2.53.42-3.66l-1.7-2.16c-.87-1.11-2.48-1.29-3.58-.41l-.03.02Z"/>
</svg>
