<?xml version='1.0' encoding='UTF-8'?>
<svg xmlns="http://www.w3.org/2000/svg" id="i" data-name="Retraite" viewBox="0 0 453.54 453.54">
  <defs>
    <style>
      .j {
        fill: #144179;
        stroke-width: 0px;
      }

      .k {
        fill: none;
        stroke: #144179;
        stroke-miterlimit: 10;
        stroke-width: 12px;
      }
    </style>
  </defs>
  <path class="j" d="M201.02,401.35h-119.6c-3.4,0-6.2-2.8-6.2-6.2v-170.7h-32.8c-2.5,0-4.8-1.5-5.7-3.9-.9-2.3-.4-5,1.5-6.8l45.6-43.7v-74.8c0-3.4,2.8-6.2,6.2-6.2h61.1c3.4,0,6.2,2.8,6.2,6.2v4.4l62.6-60c2.4-2.3,6.1-2.3,8.5,0l181.6,174.1c1.8,1.7,2.4,4.4,1.5,6.8-.9,2.3-3.2,3.9-5.7,3.9h-32.7l.1,17.5c0,3.4-2.7,6.2-6.1,6.2h0c-3.4,0-6.1-2.7-6.2-6.1l-.2-23.7c0-1.6.6-3.2,1.8-4.4,1.2-1.2,2.7-1.8,4.4-1.8h23.6L224.12,52.75l-68.8,65.8c-1.8,1.7-4.4,2.2-6.7,1.2s-3.7-3.2-3.7-5.7v-12.7h-48.8v71.4c0,1.7-.7,3.3-1.9,4.4l-36.5,34.9h23.6c3.4,0,6.2,2.8,6.2,6.2v170.8h113.4c3.4,0,6.2,2.8,6.2,6.2s-2.7,6.1-6.1,6.1Z"/>
  <g>
    <path class="k" d="M388.07,310.7c0-6.9-5.64-12.66-12.66-12.66h-89.3c-11.51,0-21.29-8.17-23.25-19.56l-8.63-49.14c-4.14-23.59-24.4-40.62-48.33-40.62-7.02,0-12.77,5.75-12.77,12.77s5.75,12.77,12.77,12.77c11.51,0,21.29,8.17,23.25,19.56l8.63,49.14c4.03,23.48,24.4,40.62,48.33,40.39h89.3c6.9,0,12.66-5.75,12.66-12.66Z"/>
    <path class="k" d="M411.09,339.81c-5.87-3.8-13.81-2.19-17.61,3.68-3.68,5.52-7.6,10.36-12.08,14.84-4.72,4.72-15.54,12.43-15.54,12.43-14.85,9.55-32.11,14.73-50.06,14.73s-35.21-5.18-49.94-14.73c0,0-10.7-7.6-15.42-12.31-4.72-4.72-8.75-9.55-11.97-14.73-1.84-2.88-4.6-4.83-7.94-5.64-.92-.23-1.84-.35-2.76-.35-2.3,0-4.72.69-6.79,1.96-2.88,1.84-4.83,4.6-5.64,7.94-.69,3.22-.12,6.67,1.73,9.55,4.14,6.67,9.32,13,15.42,19.1,22.21,22.32,51.78,34.52,83.32,34.52s61.11-12.31,83.32-34.52c5.87-5.87,10.82-11.97,15.42-18.99,3.8-5.87,2.19-13.81-3.45-17.49Z"/>
    <path class="k" d="M354.01,376.63l-30.73-52.94h-14.85l-30.84,52.94c11.62,6.33,24.63,9.78,38.21,9.78s26.7-3.45,38.21-9.78Z"/>
  </g>
</svg>
