<?xml version='1.0' encoding='UTF-8'?>
<svg xmlns="http://www.w3.org/2000/svg" id="b" data-name="Salaire-compte" viewBox="0 0 453.54 453.54">
  <defs>
    <style>
      .j {
        stroke-width: 10.86px;
      }

      .j, .k, .l {
        fill: none;
        stroke: #144179;
        stroke-linecap: round;
        stroke-linejoin: round;
      }

      .m {
        fill: #144179;
        stroke-width: 0px;
      }

      .k, .l {
        stroke-width: 12px;
      }

      .l {
        stroke-dasharray: 0 0 15.42 15.42;
      }
    </style>
  </defs>
  <line class="k" x1="112.81" y1="88.05" x2="224.41" y2="88.05"/>
  <line class="k" x1="112.81" y1="123.35" x2="224.41" y2="123.35"/>
  <line class="k" x1="112.81" y1="158.75" x2="196.81" y2="158.75"/>
  <path class="m" d="M252.41,215.15c-5,5.2-11.8,8.1-19,8.1-11.1,0-20.6-6.9-24.4-16.6h-4.4c-2.2,0-4-1.8-4-3.9s1.8-4,4-4h2.6c0-.6-.1-1.2-.1-1.8s0-1.2.1-1.9h-2.6c-2.2,0-4-1.8-4-4s1.8-3.9,4-3.9h4.4c3.9-9.7,13.4-16.5,24.4-16.5,6.7,0,13,2.5,17.9,7,1.6,1.5,1.7,4,.2,5.6-.8.8-1.8,1.2-2.8,1.3-1,0-2-.3-2.8-1.1-3.4-3.2-7.9-4.9-12.5-4.9-6.6,0-12.3,3.4-15.6,8.6h24.2c2.2,0,4,1.8,4,3.9s-1.8,4-4,4h-26.9c-.1.6-.1,1.2-.1,1.9,0,.6,0,1.2.1,1.8h26.9c2.2,0,4,1.8,4,4s-1.8,3.9-4,3.9h-24.2c3.2,5.2,9,8.7,15.6,8.7,5.1,0,9.8-2,13.3-5.7.8-.8,1.7-1.2,2.7-1.2s2.1.3,2.9,1.1c1.6,1.5,1.6,4,.1,5.6Z"/>
  <g>
    <path class="m" d="M281.78,341.99c-12.5,0-22.8,10.2-22.8,22.8s10.2,22.8,22.8,22.8,22.8-10.2,22.8-22.8-10.2-22.8-22.8-22.8ZM281.78,384.19c-10.8,0-19.5-8.8-19.5-19.5s8.8-19.5,19.5-19.5,19.5,8.8,19.5,19.5-8.7,19.5-19.5,19.5Z"/>
    <path class="m" d="M292.08,370.99c-.3.5-.8.8-1.4.8-.3,0-.6-.1-.9-.2l-8.9-5.5h-.1c-.1,0-.2-.1-.2-.2-.1-.1-.1-.2-.2-.3,0-.1-.1-.1-.1-.2s-.1-.2-.1-.3v-15.2c0-.9.7-1.6,1.6-1.6s1.6.7,1.6,1.6v13.9l8.1,5c.8.5,1.1,1.5.6,2.2Z"/>
  </g>
  <line class="k" x1="112.81" y1="194.15" x2="176.81" y2="194.15"/>
  <rect class="k" x="80.67" y="48.65" width="201.18" height="196.12"/>
  <g>
    <line class="k" x1="43.67" y1="284.6" x2="51.67" y2="284.6"/>
    <line class="l" x1="67.09" y1="284.6" x2="398.55" y2="284.6"/>
    <line class="k" x1="406.26" y1="284.6" x2="414.26" y2="284.6"/>
  </g>
  <rect class="j" x="83.94" y="331.68" width="130.74" height="74.32"/>
  <line class="k" x1="112.81" y1="367.84" x2="176.81" y2="367.84"/>
  <rect class="k" x="247.56" y="326.01" width="65.18" height="77.18" transform="translate(-76.35 74.22) rotate(-13.3)"/>
</svg>
