<?xml version='1.0' encoding='UTF-8'?>
<svg xmlns="http://www.w3.org/2000/svg" id="v" data-name="Calculatrice_1" viewBox="0 0 453.54 453.54">
  <defs>
    <style>
      .aq {
        fill: #008280;
        stroke-width: 0px;
      }
    </style>
  </defs>
  <path class="aq" d="M363.64,37.18H92.39c-3.05,0-5.52,2.47-5.52,5.52v370.54c0,3.05,2.47,5.52,5.52,5.52h271.25c3.05,0,5.52-2.47,5.52-5.52V42.7c0-3.05-2.47-5.52-5.52-5.52ZM358.12,407.72H97.9V48.21h260.22v359.51Z"/>
  <path class="aq" d="M124.83,146.12h207.01c3,0,5.44-2.44,5.44-5.44v-67.49c0-3-2.44-5.44-5.44-5.44H124.83c-3,0-5.44,2.44-5.44,5.44v67.49c0,3,2.44,5.44,5.44,5.44ZM130.27,78.64h196.13v56.61h-196.13v-56.61Z"/>
  <path class="aq" d="M124.83,229.33h49.32c3,0,5.44-2.44,5.44-5.44v-49.32c0-3-2.44-5.44-5.44-5.44h-49.32c-3,0-5.44,2.44-5.44,5.44v49.32c0,3,2.44,5.44,5.44,5.44ZM130.27,180.01h38.44v38.44h-38.44v-38.44Z"/>
  <path class="aq" d="M253,169.13h-49.32c-3,0-5.44,2.44-5.44,5.44v49.32c0,3,2.44,5.44,5.44,5.44h49.32c3,0,5.44-2.44,5.44-5.44v-49.32c0-3-2.44-5.44-5.44-5.44ZM247.56,218.45h-38.44v-38.44h38.44v38.44Z"/>
  <path class="aq" d="M331.84,169.13h-49.32c-3,0-5.44,2.44-5.44,5.44v49.32c0,3,2.44,5.44,5.44,5.44h49.32c3,0,5.44-2.44,5.44-5.44v-49.32c0-3-2.44-5.44-5.44-5.44ZM326.4,218.45h-38.44v-38.44h38.44v38.44Z"/>
  <path class="aq" d="M124.83,306.6h49.32c3,0,5.44-2.44,5.44-5.44v-49.32c0-3-2.44-5.44-5.44-5.44h-49.32c-3,0-5.44,2.44-5.44,5.44v49.32c0,3,2.44,5.44,5.44,5.44ZM130.27,257.28h38.44v38.44h-38.44v-38.44Z"/>
  <path class="aq" d="M253,246.4h-49.32c-3,0-5.44,2.44-5.44,5.44v49.32c0,3,2.44,5.44,5.44,5.44h49.32c3,0,5.44-2.44,5.44-5.44v-49.32c0-3-2.44-5.44-5.44-5.44ZM247.56,295.72h-38.44v-38.44h38.44v38.44Z"/>
  <path class="aq" d="M124.83,385.71h49.32c3,0,5.44-2.44,5.44-5.44v-49.32c0-3-2.44-5.44-5.44-5.44h-49.32c-3,0-5.44,2.44-5.44,5.44v49.32c0,3,2.44,5.44,5.44,5.44ZM130.27,336.39h38.44v38.44h-38.44v-38.44Z"/>
  <path class="aq" d="M253,325.51h-49.32c-3,0-5.44,2.44-5.44,5.44v49.32c0,3,2.44,5.44,5.44,5.44h49.32c3,0,5.44-2.44,5.44-5.44v-49.32c0-3-2.44-5.44-5.44-5.44ZM247.56,374.83h-38.44v-38.44h38.44v38.44Z"/>
  <path class="aq" d="M331.84,246.4h-49.32c-3,0-5.44,2.44-5.44,5.44v128.43c0,3,2.44,5.44,5.44,5.44h49.32c3,0,5.44-2.44,5.44-5.44v-128.43c0-3-2.44-5.44-5.44-5.44ZM326.4,374.83h-38.44v-117.55h38.44v117.55Z"/>
</svg>
