<?xml version='1.0' encoding='UTF-8'?>
<svg xmlns="http://www.w3.org/2000/svg" id="ad" data-name="Tableau" viewBox="0 0 453.54 453.54">
  <defs>
    <style>
      .aq {
        fill: #fff;
      }

      .aq, .ar, .as {
        stroke: #008280;
        stroke-linecap: round;
        stroke-width: 12px;
      }

      .aq, .as {
        stroke-linejoin: round;
      }

      .ar {
        stroke-miterlimit: 10;
      }

      .ar, .as {
        fill: none;
      }
    </style>
  </defs>
  <g>
    <path class="ar" d="M67.23,322.92c0-14.25,11.55-25.81,25.81-25.81s25.81,11.55,25.81,25.81-11.55,25.81-25.81,25.81-25.81-11.56-25.81-25.81"/>
    <path class="ar" d="M138.18,411.22c-.29-21.43-17.74-38.71-39.24-38.71h-11.83c-21.5,0-38.95,17.29-39.23,38.71h90.3Z"/>
  </g>
  <g>
    <path class="ar" d="M201.94,322.92c0-14.25,11.55-25.81,25.81-25.81s25.81,11.55,25.81,25.81-11.55,25.81-25.81,25.81-25.81-11.56-25.81-25.81"/>
    <path class="ar" d="M272.89,411.22c-.29-21.43-17.74-38.71-39.24-38.71h-11.83c-21.5,0-38.95,17.29-39.23,38.71h90.3Z"/>
  </g>
  <g>
    <path class="ar" d="M336.65,322.92c0-14.25,11.55-25.81,25.81-25.81s25.81,11.55,25.81,25.81-11.55,25.81-25.81,25.81-25.81-11.56-25.81-25.81"/>
    <path class="ar" d="M407.6,411.22c-.29-21.43-17.74-38.71-39.24-38.71h-11.83c-21.5,0-38.95,17.29-39.23,38.71h90.3Z"/>
  </g>
  <circle class="ar" cx="327.67" cy="102.11" r="28.9" transform="translate(-15.53 99.33) rotate(-16.85)"/>
  <path class="as" d="M265.35,54.55c0-6.61-5.38-11.98-11.98-11.98H60.94c-6.64,0-11.98,5.38-11.98,11.98v133.81c0,6.61,5.35,11.98,11.98,11.98h192.42c6.61,0,11.98-5.38,11.98-11.98V54.55Z"/>
  <path class="aq" d="M416.05,212.98l-52.02-58.34c-2.07-3.6-10.92-4.02-11.51-4.02h-116.35c-6.25,0-11.2,6.37-11.2,12.62,0,8,4.99,13.16,11.2,13.16h52.83l.27,24.33v58.18h73.59v-62.83l30.83,32.01c4.86,5.59,12.89,4.62,18.26.28,4.81-3.89,7.24-9.99,4.09-15.38Z"/>
  <g>
    <path class="as" d="M146.52,130.05h47.86c0,26.43-21.43,47.86-47.86,47.86s-47.86-21.43-47.86-47.86,21.43-47.86,47.86-47.86h0v47.86Z"/>
    <path class="as" d="M166.44,110.47v-47.86c26.43,0,47.86,21.43,47.86,47.86h-47.86Z"/>
  </g>
</svg>
