<?xml version='1.0' encoding='UTF-8'?>
<svg xmlns="http://www.w3.org/2000/svg" id="b" data-name="Courbe montante" viewBox="0 0 453.54 453.54">
  <defs>
    <style>
      .aq {
        fill: #008280;
        stroke-width: 0px;
      }

      .ar {
        fill: none;
        stroke: #008280;
        stroke-linecap: round;
        stroke-linejoin: round;
        stroke-width: 12px;
      }
    </style>
  </defs>
  <path class="aq" d="M416.99,417.96H37.17c-3.31,0-6-2.69-6-6V125.86c0-3.31,2.69-6,6-6s6,2.69,6,6v280.1h373.83c3.31,0,6,2.69,6,6s-2.69,6-6,6Z"/>
  <polyline class="ar" points="101.82 351.39 200.19 235.55 256.16 270.92 375.11 133.28"/>
  <g>
    <path class="ar" d="M195.88,180.12c-9.3,9.71-22.4,15.75-36.91,15.75-28.23,0-51.11-22.88-51.11-51.11s22.88-51.11,51.11-51.11c13.46,0,25.7,5.2,34.83,13.71"/>
    <line class="ar" x1="93" y1="131.46" x2="178.68" y2="131.46"/>
    <line class="ar" x1="93" y1="157.86" x2="178.68" y2="157.86"/>
  </g>
</svg>
