<?xml version='1.0' encoding='UTF-8'?>
<svg xmlns="http://www.w3.org/2000/svg" id="f" data-name="Signature" viewBox="0 0 453.54 453.54">
  <defs>
    <style>
      .am {
        fill: #8A5301;
        stroke-width: 0px;
      }
    </style>
  </defs>
  <path class="am" d="M417.4,215.34h-80.03l47.04-64.61,7.06-9.7,8.94-12.28h.01c3.9-5.37,2.71-12.87-2.65-16.77l-10.51-7.66h-.02c-5.35-3.9-12.84-2.72-16.74,2.63l-8.95,12.3-7.06,9.7-62.89,86.39H38.63c-3.31,0-6,2.68-6,6v188.7c0,3.31,2.69,6,6,6h378.77c3.32,0,6-2.69,6-6v-188.7c0-3.32-2.68-6-6-6ZM380.2,114.03l10.51,7.65-8.95,12.29-10.51-7.65,8.95-12.29ZM306.44,215.34l57.75-79.33,10.51,7.66-52.18,71.67-8.73,12-53.19,73.06-10.51-7.65,47.62-65.41,8.73-12ZM251.2,309.36l-3.64,2.61c-.15-.19-.3-.36-.47-.53-.15-.17-.31-.33-.48-.49-.16-.15-.34-.3-.52-.46-.01-.02-.03-.03-.05-.04-.07-.06-.16-.14-.25-.19-.17-.14-.35-.27-.53-.39-.09-.07-.18-.13-.27-.18-.01-.02-.02-.03-.05-.04-.2-.12-.4-.24-.6-.35-.2-.11-.4-.22-.61-.31-.21-.1-.43-.2-.65-.28l1.37-4.27,6.75,4.92ZM411.4,404.04H44.63v-176.7h238.23l-46.01,63.2c-.06.08-.12.16-.16.26-.02.01-.03.02-.03.04-.51.59-.88,1.28-1.12,2.03l-6.61,20.76-4.32,13.53h-34.68c-3.31,0-6,2.69-6,6s2.69,6,6,6h37.72c1.17,0,2.27-.34,3.19-.93.66-.17,1.29-.47,1.86-.88l14.53-10.4,17.72-12.66c.64-.46,1.18-1.04,1.59-1.69.02-.01.03-.03.03-.05.08-.07.14-.15.2-.23l61.87-84.98h82.76v176.7Z"/>
  <path class="am" d="M114.36,264.9h-37.72c-3.31,0-6-2.69-6-6s2.69-6,6-6h37.72c3.31,0,6,2.69,6,6s-2.69,6-6,6Z"/>
  <path class="am" d="M114.36,302.93h-37.72c-3.31,0-6-2.69-6-6s2.69-6,6-6h37.72c3.31,0,6,2.69,6,6s-2.69,6-6,6Z"/>
  <path class="am" d="M341.15,379.39h-37.72c-3.31,0-6-2.69-6-6s2.69-6,6-6h37.72c3.31,0,6,2.69,6,6s-2.69,6-6,6Z"/>
  <path class="am" d="M152.15,340.47h-75.5c-3.31,0-6-2.69-6-6s2.69-6,6-6h75.5c3.31,0,6,2.69,6,6s-2.69,6-6,6Z"/>
  <path class="am" d="M266,378.01H76.64c-3.31,0-6-2.69-6-6s2.69-6,6-6h189.36c3.31,0,6,2.69,6,6s-2.69,6-6,6Z"/>
  <path class="am" d="M245.79,310.26c-.17-.14-.35-.27-.53-.39.1.05.19.11.27.18.09.06.18.13.26.21Z"/>
</svg>
