<?xml version='1.0' encoding='UTF-8'?>
<svg xmlns="http://www.w3.org/2000/svg" id="al" data-name="Dialogue" viewBox="0 0 453.54 453.54">
  <defs>
    <style>
      .am {
        fill: none;
      }

      .am, .an {
        stroke: #8A5301;
        stroke-linecap: round;
        stroke-linejoin: round;
        stroke-width: 12px;
      }

      .an {
        fill: #fff;
      }
    </style>
  </defs>
  <path class="am" d="M275.74,157.24H83.79c-19.58,0-35.45,15.87-35.45,35.45v120.26c0,19.58,15.87,35.45,35.45,35.45h2.78v16.61c0,8.57,10.36,12.86,16.41,6.8l23.41-23.41h149.34c19.58,0,35.45-15.87,35.45-35.45v-120.26c0-19.58-15.87-35.45-35.45-35.45Z"/>
  <path class="an" d="M190.14,105.57h191.95c19.58,0,35.45,15.87,35.45,35.45v120.26c0,19.58-15.87,35.45-35.45,35.45h-2.78s0,16.61,0,16.61c0,8.57-10.36,12.86-16.41,6.8l-23.41-23.41h-149.34c-19.58,0-35.45-15.87-35.45-35.45v-120.26c0-19.58,15.87-35.45,35.45-35.45Z"/>
  <line class="am" x1="369.31" y1="156.66" x2="204.15" y2="156.66"/>
  <line class="am" x1="369.31" y1="198.97" x2="204.15" y2="198.97"/>
  <line class="am" x1="369.31" y1="241.27" x2="259.79" y2="241.27"/>
</svg>
