<?xml version='1.0' encoding='UTF-8'?>
<svg xmlns="http://www.w3.org/2000/svg" id="af" data-name="Ampoule idee" viewBox="0 0 453.54 453.54">
  <defs>
    <style>
      .ar {
        fill: none;
        stroke: #8A5301;
        stroke-linecap: round;
        stroke-linejoin: round;
        stroke-width: 12px;
      }

      .as {
        fill: #8A5301;
        stroke-width: 0px;
      }
    </style>
  </defs>
  <g>
    <g>
      <path class="ar" d="M194.39,384.9h71.18v4.86c0,10.31-8.37,18.68-18.68,18.68h-28.97c-12.99,0-23.54-10.55-23.54-23.54h0Z"/>
      <rect class="ar" x="176.16" y="361.08" width="107.64" height="23.87" rx="9.9" ry="9.9"/>
      <rect class="ar" x="164.01" y="337.22" width="131.95" height="23.87" rx="4.3" ry="4.3"/>
      <path class="ar" d="M176.81,335.25l-.91-16.1c-3.39-30.97-21.91-58.24-29.82-69.88l-.95-1.42c-1.69-2.51-2.36-3.54-2.77-4.36-5.98-12.04-9.23-25.16-9.66-39.02-.79-26.03,8.82-50.85,27.06-69.88,18.39-19.04,42.73-29.59,68.56-29.73h3.31c25.83.14,50.17,10.7,68.56,29.73,18.24,19.03,27.85,43.84,27.06,69.88-.43,13.85-3.68,26.97-9.66,39.02-.41.82-1.09,1.85-2.77,4.36l-.95,1.42c-7.91,11.65-26.43,38.92-29.82,69.88l-.91,16.1h-106.33Z"/>
    </g>
    <polyline class="ar" points="199.44 227.89 223.29 256.28 272.02 188.07"/>
  </g>
  <g id="ag" data-name="&amp;lt;Répétition radiale&amp;gt;">
    <path class="as" d="M238.56,45.07v.03s-.11,37.42-.11,37.42c-.02,3.31-2.72,5.99-6.03,5.97-3.3-.02-5.97-2.7-5.97-6v-.03s.11-37.42.11-37.42c.02-3.31,2.72-5.99,6.03-5.97,3.3.02,5.97,2.7,5.97,6Z"/>
  </g>
  <g id="ah" data-name="&amp;lt;Répétition radiale&amp;gt;">
    <path class="as" d="M341.73,87.28l-.02.02-26.43,26.49c-2.35,2.34-6.15,2.33-8.49-.01-2.33-2.34-2.34-6.12-.01-8.46l.02-.02,26.43-26.49c2.35-2.34,6.15-2.33,8.49.01,2.33,2.34,2.34,6.12.01,8.46Z"/>
  </g>
  <g id="ai" data-name="&amp;lt;Répétition radiale&amp;gt;">
    <path class="as" d="M123.29,87.28l.02.02,26.43,26.49c2.35,2.34,6.15,2.33,8.49-.01,2.33-2.34,2.34-6.12.01-8.46l-.02-.02-26.43-26.49c-2.35-2.34-6.15-2.33-8.49.01-2.33,2.34-2.34,6.12-.01,8.46Z"/>
  </g>
  <g id="aj" data-name="&amp;lt;Répétition radiale&amp;gt;">
    <path class="as" d="M383.22,180.93h-.03s-37.42-.11-37.42-.11c-3.31-.02-5.99-2.72-5.97-6.03.02-3.3,2.7-5.97,6-5.97h.03s37.42.11,37.42.11c3.31.02,5.99,2.72,5.97,6.03-.02,3.3-2.7,5.97-6,5.97Z"/>
  </g>
  <g id="ak" data-name="&amp;lt;Répétition radiale&amp;gt;">
    <path class="as" d="M107.99,180.93h-.03s-37.42-.11-37.42-.11c-3.31-.02-5.99-2.72-5.97-6.03.02-3.3,2.7-5.97,6-5.97h.03s37.42.11,37.42.11c3.31.02,5.99,2.72,5.97,6.03-.02,3.3-2.7,5.97-6,5.97Z"/>
  </g>
</svg>
