<?xml version='1.0' encoding='UTF-8'?>
<svg xmlns="http://www.w3.org/2000/svg" id="an" data-name="hausse agri" viewBox="0 0 453.54 453.54">
  <defs>
    <style>
      .aq {
        fill: none;
        stroke: #008280;
        stroke-linecap: round;
        stroke-miterlimit: 10;
        stroke-width: 11.8px;
      }

      .ar {
        fill: #008280;
        stroke-width: 0px;
      }
    </style>
  </defs>
  <g>
    <g>
      <path class="aq" d="M48.91,349.71c48.51,10.99,103.77,30.47,157.16,64.2"/>
      <path class="aq" d="M277.18,413.91c-76.19-61.54-161.47-88.65-228.27-100.13"/>
      <path class="aq" d="M48.91,313.78c66.8,11.48,152.07,38.59,228.27,100.13"/>
      <path class="aq" d="M334.78,409.03c-93.88-90.37-208.38-120.42-285.87-129.65"/>
      <path class="aq" d="M48.91,279.39c77.49,9.23,191.99,39.28,285.87,129.65"/>
      <path class="aq" d="M334.78,353.48c-100.62-81.23-217.08-102.44-285.87-106.98"/>
    </g>
    <g>
      <path class="aq" d="M338.36,238.07c-33.19,5.54-67.62,14.9-102.06,29.63,34.44-14.73,68.87-24.09,102.06-29.63"/>
      <path class="aq" d="M286.13,293.37c17.56-6.02,35.02-10.76,52.23-14.41"/>
    </g>
    <line class="aq" x1="196.66" y1="206.49" x2="196.66" y2="258.38"/>
    <path class="aq" d="M221.92,206.48c0,16.64-11.31,30.13-25.25,30.13s-25.25-13.49-25.25-30.13,25.25-49.46,25.25-49.46c0,0,25.25,32.82,25.25,49.46Z"/>
  </g>
  <g>
    <polyline class="aq" points="41.65 186.81 200.72 71.79 271.46 148.23 374.08 57.43"/>
    <polygon class="ar" points="384.26 79.07 398.82 35.54 353.84 44.69 384.26 79.07"/>
  </g>
</svg>
