<?xml version='1.0' encoding='UTF-8'?>
<svg xmlns="http://www.w3.org/2000/svg" id="u" data-name="Landes" viewBox="0 0 453.54 453.54">
  <defs>
    <style>
      .ab {
        fill: none;
      }

      .ab, .ac {
        stroke-width: 10px;
      }

      .ab, .ac, .ad {
        stroke: #008280;
        stroke-linecap: round;
        stroke-linejoin: round;
      }

      .ac, .ad {
        fill: #fff;
      }

      .ad {
        stroke-width: 9px;
      }
    </style>
  </defs>
  <path class="ab" d="M230.47,354.06v-89.32c-1.63-1.02-3.16-2.23-4.55-3.62-.52-.52-1.02-1.07-1.49-1.63-.47.56-.97,1.11-1.49,1.63-1.39,1.39-2.92,2.6-4.55,3.63v63.61c-37.44-31.99-68.35-70.5-91.36-113.62-2.59-.28-5.12-.95-7.55-2.01-.68-.3-1.34-.63-1.99-.97-.24.69-.5,1.38-.79,2.06-.55,1.26-1.2,2.46-1.92,3.6,4.82,9.23,10,18.25,15.51,27.06h-14.68c-13.36,0-24.18,10.83-24.18,24.18h24.18c9.49,0,17.7-5.47,21.66-13.42,7.3,10.89,15.12,21.42,23.46,31.56h-8.84c-20.03,0-36.28,16.24-36.28,36.28h17.64c16.68,0,31.05-11.34,35.13-27.24,15.18,17.41,31.9,33.56,50.01,48.26v37.25c-9.8-20.17-30.48-34.08-54.41-34.08h-36.28c0,33.39,27.07,60.46,60.46,60.46h42.32v-30.23h18.14c26.71,0,48.37-21.65,48.37-48.37h-24.18c-18.22,0-34.07,10.07-42.32,24.95Z"/>
  <path class="ac" d="M195.09,201.46c2.58,2.58,6,4,9.65,4s7.07-1.42,9.65-4c5.32-5.32,5.32-13.97,0-19.29-2.07-2.07-5.88-4.68-10.15-6.97-5.62-.11-11.22-2.04-15.81-5.8-3.55-.53-5.25.02-5.67.44-.81.81-1.43,5.21,1.78,13.67,2.94,7.75,7.63,15.03,10.55,17.95Z"/>
  <path class="ac" d="M195.09,149.5c5.32,5.32,13.97,5.32,19.29,0,5.32-5.32,5.32-13.97,0-19.29-2.07-2.07-5.88-4.68-10.15-6.97-5.63-.11-11.22-2.04-15.81-5.8-3.55-.53-5.25.02-5.67.44-.81.81-1.43,5.21,1.78,13.67,2.94,7.75,7.63,15.04,10.55,17.96Z"/>
  <path class="ac" d="M195.09,252.56c2.58,2.58,6,4,9.65,4s7.07-1.42,9.65-4c5.32-5.32,5.32-13.97,0-19.29-2.06-2.06-5.87-4.67-10.12-6.95-5.84-.11-11.37-2.14-15.83-5.82-3.55-.53-5.24.02-5.66.44-.81.81-1.43,5.21,1.78,13.67,2.94,7.75,7.63,15.04,10.55,17.96Z"/>
  <path class="ac" d="M224.42,63.37c10,0,18.14-7.46,18.14-16.63,0-10.76-9.79-31.74-18.14-31.74s-18.14,20.98-18.14,31.74c0,9.17,8.14,16.63,18.14,16.63Z"/>
  <path class="ac" d="M195.09,98.1c5.32,5.32,13.97,5.32,19.29,0,3.96-3.96,5.03-9.93,2.92-14.95-8.44-1.94-15.51-7.26-19.52-14.35-9.15-3.74-14.12-3.21-15.02-2.31-.81.81-1.43,5.21,1.78,13.66,2.94,7.75,7.63,15.04,10.55,17.96Z"/>
  <path class="ac" d="M234.46,98.1c5.32,5.32,13.97,5.32,19.29,0,2.92-2.92,7.61-10.21,10.55-17.96,3.21-8.46,2.58-12.86,1.78-13.66-.9-.9-5.86-1.43-15.02,2.31-4.02,7.1-11.08,12.41-19.52,14.35-2.11,5.02-1.04,11,2.92,14.95Z"/>
  <path class="ac" d="M266.08,117.88c-.42-.42-2.12-.97-5.67-.44-4.59,3.76-10.18,5.7-15.81,5.8-4.27,2.29-8.08,4.9-10.15,6.97-5.32,5.32-5.32,13.97,0,19.29,5.32,5.32,13.97,5.32,19.29,0,2.92-2.92,7.61-10.21,10.55-17.96,3.21-8.46,2.58-12.86,1.78-13.66Z"/>
  <path class="ac" d="M260.42,220.5c-4.47,3.68-9.99,5.71-15.83,5.82-4.26,2.29-8.06,4.89-10.12,6.95-5.32,5.32-5.32,13.97,0,19.29,5.32,5.32,13.97,5.32,19.29,0,2.92-2.92,7.61-10.21,10.55-17.96,3.21-8.46,2.58-12.86,1.78-13.67-.42-.42-2.12-.97-5.66-.44Z"/>
  <path class="ac" d="M266.08,169.84c-.42-.42-2.12-.97-5.67-.44-4.59,3.76-10.18,5.7-15.81,5.8-4.27,2.29-8.08,4.9-10.15,6.97-5.32,5.32-5.32,13.97,0,19.29,5.32,5.32,13.97,5.32,19.29,0,2.92-2.92,7.61-10.21,10.55-17.96,3.21-8.46,2.58-12.86,1.78-13.67Z"/>
  <path class="ac" d="M393.22,207.5c-2.69,1.05-5.57,1.69-8.58,1.9-.68.05-1.36.07-2.03.07-4.73,0-9.38-1.11-13.63-3.23-4.81,2.55-7.76,7.85-7.2,13.42.36,3.63,2.11,6.89,4.93,9.2,2.82,2.31,6.37,3.38,10,3.02,4.11-.41,12.35-3.08,19.54-7.21,7.84-4.51,10.14-8.31,10.03-9.45-.13-1.26-3.62-4.81-13.05-7.71Z"/>
  <path class="ac" d="M369.97,246.87s-.02,0-.03,0c-5.92,0-11.47-2.05-15.88-5.52-4.75-.93-9.35-1.33-12.26-1.04-3.63.36-6.89,2.11-9.2,4.93-2.31,2.82-3.38,6.37-3.02,10,.75,7.48,7.43,12.96,14.93,12.22,4.11-.41,12.35-3.08,19.54-7.21,7.84-4.51,10.14-8.31,10.03-9.45-.06-.59-1.02-2.09-4.1-3.93Z"/>
  <path class="ac" d="M375.72,186.19c3.81,3.12,8.49,4.66,13.2,4.34,4.56-.31,8.6-2.34,11.36-5.72,6.82-8.33,12.53-30.76,6.07-36.05-1.25-1.02-3.04-1.47-5.15-1.47-8.85,0-23.49,7.83-28.99,14.54-5.81,7.09-4.24,18.02,3.5,24.35Z"/>
  <path class="ac" d="M322.82,215.77c-4.29-3.65-7.39-8.69-8.56-14.51-2.41-2.66-4.07-3.31-4.66-3.25-1.14.11-4.41,3.12-7.28,11.7-2.63,7.86-3.62,16.47-3.21,20.58.75,7.48,7.44,12.96,14.93,12.22,7.48-.75,12.97-7.44,12.22-14.93-.29-2.91-1.59-7.34-3.44-11.81Z"/>
  <path class="ac" d="M336.24,203.91c2.82,2.31,6.37,3.38,9.99,3.02,5.57-.56,10.19-4.5,11.73-9.72-5.3-6.85-7.4-15.44-6.01-23.47-4.71-8.69-8.88-11.42-10.16-11.3-1.14.11-4.41,3.12-7.28,11.7-2.63,7.86-3.62,16.47-3.21,20.58.36,3.63,2.11,6.89,4.93,9.2Z"/>
  <path class="ab" d="M316.29,257.06c-.72.13-1.45.25-2.19.32-.85.08-1.71.13-2.56.13h0c-1.46,0-2.88-.13-4.28-.36l-52.48,62.61c5.69-1.78,11.74-2.74,18-2.74h.07l44.47-53.04c-.44-1.51-.75-3.08-.91-4.71-.07-.74-.11-1.48-.12-2.21Z"/>
  <path class="ad" d="M51.73,145.26c2.38,1.64,5.03,2.93,7.92,3.82.65.2,1.3.38,1.96.53,4.6,1.09,9.38,1.08,14,0,4.09,3.59,5.74,9.43,3.92,14.72-1.19,3.45-3.65,6.22-6.92,7.82-3.28,1.6-6.98,1.82-10.42.63-3.9-1.35-11.31-5.84-17.35-11.52-6.59-6.2-7.95-10.43-7.58-11.51.41-1.2,4.64-3.85,14.48-4.5Z"/>
  <path class="ac" d="M65.28,188.92s.02,0,.03,0c5.77,1.37,11.63.65,16.73-1.72,4.84.19,9.4.86,12.17,1.82,3.44,1.19,6.22,3.65,7.82,6.92,1.6,3.27,1.82,6.98.63,10.42-2.45,7.11-10.22,10.9-17.34,8.45-3.9-1.35-11.31-5.84-17.35-11.52-6.59-6.2-7.95-10.43-7.58-11.51.19-.56,1.48-1.8,4.9-2.88Z"/>
  <path class="ad" d="M73.67,128.55c-4.42,2.15-9.34,2.58-13.85,1.18-4.37-1.35-7.83-4.26-9.74-8.18-4.71-9.67-5.1-32.82,2.4-36.48,1.45-.71,3.29-.73,5.36-.24,8.61,2.04,21.05,13.03,24.85,20.83,4.02,8.24-.03,18.51-9.02,22.89Z"/>
  <path class="ac" d="M118.33,169.53c5.01-2.56,9.19-6.75,11.67-12.14,2.96-2.03,4.72-2.28,5.29-2.09,1.08.37,3.57,4.05,4.39,13.06.75,8.25-.28,16.86-1.62,20.76-2.45,7.11-10.23,10.9-17.34,8.45-7.11-2.45-10.9-10.23-8.45-17.34.95-2.76,3.24-6.78,6.07-10.7Z"/>
  <path class="ac" d="M108.01,154.9c-3.27,1.6-6.98,1.82-10.42.63-5.29-1.82-8.88-6.72-9.18-12.16,6.74-5.44,10.76-13.32,11.26-21.45,6.59-7.37,11.28-9.06,12.49-8.66,1.08.37,3.57,4.05,4.39,13.06.75,8.25-.28,16.86-1.62,20.76-1.19,3.45-3.64,6.22-6.92,7.82Z"/>
</svg>
