<?xml version='1.0' encoding='UTF-8'?>
<svg xmlns="http://www.w3.org/2000/svg" id="i" data-name="Poule" viewBox="0 0 453.54 453.54">
  <defs>
    <style>
      .ab {
        fill: #fff;
        stroke: #008280;
        stroke-miterlimit: 10;
        stroke-width: 12px;
      }
    </style>
  </defs>
  <path class="ab" d="M156.3,93.7s35.48,103.32,115.13,72.71c0,0,38.15-9.57,45.52-58.04,0,0,6.69-26.15,15.4-7.65,0,0,14.73-1.91,14.06,12.76,0,0,17.74-14.67,20.92,43.37,3.18,58.04-4.18,109.7-59.74,150.52,0,0-52.88,10.84-54.89,77.17,0,0,0,7.65,17.4,5.74,0,0,9.37,3.29-27.44,6.43l-30.12,13.34s-8.7-11.48,24.77-28.06c0,0,8.03,1.91,5.35-44.65,0,0-14.06-12.12-19.41,0-5.35,12.12-17.22,38.75,6.69,36.35,0,0,2.01,4.46-22.76,6.38,0,0-20.08,8.29-26.77,13.39,0,0-4.69-12.76,23.43-26.15,0,0,17.4-42.73-18.74-54.85-36.15-12.12-103.75-31.89-62.92-163.27,0,0,7.03-46.56-43.01-48.47l12.22-14.67,9.37-13.39s-2.68-20.41,13.39-26.15l2.01,10.84s6.02-10.84,17.4-10.84c0,0-8.03,21.68,6.69,22.32,0,0,17.4,16.58,16.06,24.87Z"/>
</svg>
