<?xml version='1.0' encoding='UTF-8'?>
<svg xmlns="http://www.w3.org/2000/svg" id="l" data-name="Blé" viewBox="0 0 453.54 453.54">
  <defs>
    <style>
      .ab {
        fill: none;
        stroke: #008280;
        stroke-linecap: round;
        stroke-linejoin: round;
        stroke-width: 12px;
      }
    </style>
  </defs>
  <path class="ab" d="M370.45,44.13s-47.73,1.54-50.19,45.42c0,0,38.18,5.39,50.19-45.42Z"/>
  <path class="ab" d="M307.78,123.11s12.01-16.94,27.56-22.02c15.55-5.23,23.1,11.24,23.1,11.24,0,0-6.62,13.7-24.63,19.25-17.86,5.54-26.02-8.47-26.02-8.47Z"/>
  <path class="ab" d="M294.08,52.13s15.86,17.86,18.63,37.57c2.62,19.86-16.63,25.87-16.63,25.87,0,0-13.55-10.62-16.17-33.41-2.62-22.79,14.16-30.02,14.16-30.02Z"/>
  <path class="ab" d="M259.13,101.4s-11.7,21.09-10.16,41.11c1.54,19.86,21.56,21.25,21.56,21.25,0,0,10.93-13.55,8.78-36.49-2.16-22.79-20.17-25.87-20.17-25.87Z"/>
  <path class="ab" d="M230.8,158.83s-6.47,23.56-.15,42.34c6.16,18.94,25.87,14.93,25.87,14.93,0,0,7.39-16.01-.15-37.57-7.54-21.56-25.56-19.71-25.56-19.71Z"/>
  <path class="ab" d="M214.17,220.27s.46,24.48,11.7,40.65c11.24,16.01,28.95,6,28.95,6,0,0,2.62-17.55-10.62-35.87-13.24-18.17-30.02-10.78-30.02-10.78Z"/>
  <path class="ab" d="M221.87,312.34c1.85,3.08,3.85,6.16,6.31,8.78,13.24,14.32,29.41,2,29.41,2,0,0,.46-17.86-14.93-34.03-15.4-16.17-31.1-6.62-31.1-6.62,0,0,1.85,12.63,7.7,25.1"/>
  <path class="ab" d="M282.22,165.92s10.93-17.71,26.02-24.02c15.24-6.31,23.71,9.39,23.71,9.39,0,0-5.7,14.16-23.1,21.25-17.55,6.93-26.64-6.62-26.64-6.62Z"/>
  <path class="ab" d="M267.75,214.26s7.85-19.4,21.71-28.48c13.86-9.08,24.94,4.93,24.94,4.93,0,0-3.23,14.93-19.4,25.1-16.01,10.01-27.25-1.54-27.25-1.54Z"/>
  <path class="ab" d="M258.2,264.46s4.93-20.48,17.4-31.56c12.47-11.24,25.4.77,25.4.77,0,0-1.08,15.4-15.55,27.87-14.47,12.63-27.25,2.93-27.25,2.93Z"/>
  <path class="ab" d="M261.44,319.27s1.08-21.09,11.24-34.49c10.16-13.55,25.1-4.31,25.1-4.31,0,0,1.69,15.24-10.32,30.49-11.86,15.24-26.02,8.31-26.02,8.31Z"/>
  <path class="ab" d="M140.11,72.3s-38.03,30.64-15.7,67.9c0,0,33.87-19.09,15.7-67.9Z"/>
  <path class="ab" d="M121.94,179.47s7.39-46.5-37.26-52.35c0,0-1.69,39.26,13.86,47.42,15.7,8.01,23.4,4.93,23.4,4.93Z"/>
  <path class="ab" d="M130.1,234.43s-.62-47.11-45.42-44.5c0,0,4.93,39.11,21.71,44.03,16.78,5.08,23.71.46,23.71.46Z"/>
  <path class="ab" d="M149.96,281.24s-12.78-45.11-55.27-29.56c0,0,14.93,36.03,32.33,36.03s22.94-6.47,22.94-6.47Z"/>
  <path class="ab" d="M177.68,328.97s-19.4-42.49-58.97-20.02c0,0,20.02,33.1,37.26,30.18,17.09-2.93,21.71-10.16,21.71-10.16Z"/>
  <path class="ab" d="M213.4,365.77s-27.71-37.11-61.74-6.16c0,0,26.33,27.87,42.49,21.09,16.17-6.93,19.25-14.93,19.25-14.93Z"/>
  <path class="ab" d="M218.79,365.77s48.5,45.11,73.13,44.19c0,0-23.25-35.87-30.49-81.91"/>
  <path class="ab" d="M130.1,178.54l21.56-5.85s18.32-23.4,16.17-38.03c0,0-20.94-6.31-34.95,18.94-8.16,14.63-2.77,24.94-2.77,24.94Z"/>
  <path class="ab" d="M139.03,228.58l20.17-9.55s14.16-26.48,9.7-40.49c0,0-21.56-2.31-31.26,24.94-5.7,16.01,1.39,25.1,1.39,25.1Z"/>
  <path class="ab" d="M159.2,276.62l17.09-14.78s7.39-29.41-.31-41.73c0,0-21.4,3.54-24.17,32.64-1.69,16.94,7.39,23.86,7.39,23.86Z"/>
  <path class="ab" d="M185.07,320.81l14.47-17.71s2.16-30.33-7.54-40.96c0,0-20.48,7.54-18.17,36.64,1.23,16.94,11.24,22.02,11.24,22.02Z"/>
  <path class="ab" d="M219.25,307.57c-1.39-2.16-3.08-4.16-4.93-5.39,0,0-17.24,11.39-9.7,37.57,4.47,15.4,14.63,17.86,14.63,17.86l9.85-19.4s-2-14.63-7.24-25.87c-.77-1.69-1.54-3.23-2.62-4.77Z"/>
</svg>
