<?xml version='1.0' encoding='UTF-8'?>
<svg xmlns="http://www.w3.org/2000/svg" id="q" data-name="Champ bétail" viewBox="0 0 453.54 453.54">
  <defs>
    <style>
      .ab {
        fill: #008280;
        stroke-width: 0px;
      }
    </style>
  </defs>
  <path class="ab" d="M254.66,250.63c4.72-3.73,4.46-11.45-.64-19.19-.35-.54-1.31-1.71-2.3-2.86.47-.5.66-.77.83-1.01,6.61-9.93,3.66-28.35.95-34.02-.95-2-3.94-4.73-7.33-4.24-1.95.28-4.21,1.72-4.73,4.94-1.36,8.44-6.49,13.52-16.12,15.94h-34.42c-9.63-2.42-14.76-7.5-16.13-15.97-.54-3.21-2.81-4.64-4.75-4.91-3.37-.46-6.36,2.25-7.31,4.23-2.75,5.74-5.31,22.66.23,32.77H55.54c-.07,0-7.76,0-7.76,0-11.9,0-21.59,9.68-21.59,21.59v77.04l-6.33,15.63c-.93,2.29.18,4.89,2.46,5.82.55.22,1.12.33,1.67.33,1.27,0,2.48-.56,3.33-1.52.82.92,2,1.52,3.33,1.52,1.11,0,2.12-.42,2.9-1.09.8.69,1.83,1.09,2.91,1.09.49,0,1-.08,1.49-.26,2.33-.82,3.55-3.37,2.72-5.7l-5.55-15.72v-77.14c0-6.98,5.68-12.65,12.66-12.65h3.23v133.85c0,5.38,4.37,9.75,9.75,9.75h8.1c5.38,0,9.75-4.37,9.75-9.75v-12.75c1.15.55,2.37,1.03,3.75,1.48.32,6.86,4.15,11.93,9.15,11.93,3.37,0,6.27-2.3,7.87-6.1,1.57,3.77,4.46,6.1,7.88,6.1,5.23,0,9.17-5.53,9.17-12.87,0-.3,0-.6-.02-.9,6.72-5.02,11.02-13.05,12.22-22.8h26.92v35.91c0,5.38,4.37,9.75,9.75,9.75h10.99c5.38,0,9.75-4.37,9.75-9.75v-35.91h6.34v35.91c0,5.38,4.37,9.75,9.75,9.75h10.99c5.38,0,9.75-4.37,9.75-9.75v-58.38h3.19c7.39,0,13.4-6.01,13.4-13.4v-14c0-2.67-.79-5.15-2.14-7.24l4.68-25.75c4.73,2.74,9.35,2.92,12.65.32ZM126.96,243.97c0,11.14-9.07,20.2-20.21,20.2-.72,0-1.36-.03-1.93-.1-.08,0-.15,0-.23,0-.16-.01-.33-.01-.49,0-.14,0-.27.02-.4.04-.15.02-.31.05-.46.09-.14.03-.27.07-.4.12-.14.05-.27.1-.4.16-.13.06-.26.13-.39.2-.12.07-.23.14-.34.22-.12.09-.24.18-.35.28-.1.09-.2.18-.29.28-.1.11-.2.22-.29.34-.08.11-.16.22-.23.34-.08.13-.15.26-.22.4-.06.12-.12.25-.17.38-.06.14-.1.29-.14.45-.02.08-.06.15-.07.23-2.27,10.89-12.01,18.8-23.16,18.8-6.37,0-12.42-2.59-16.85-7.11v-44.04h65.02c1.31,2.71,2,5.69,2,8.73ZM110.17,349.44c-2.02,1.33-3.11,3.7-2.77,6.03.07.47.1.94.1,1.41,0,.84-.1,1.56-.23,2.16-.06-.25-.11-.53-.14-.83-.42-3.31-3.32-5.65-6.66-5.43-.77.06-1.44.1-2.45.06-3.23-.14-6.01,2.16-6.46,5.36-.03.22-.06.44-.09.65-.11-.56-.19-1.22-.19-1.96v-.32c.21-4.51-1.95-6.05-3.8-6.55-4.28-1.15-6.31-2.15-8.86-4.2v-12.64h40.99c-1.14,7.23-4.43,12.98-9.43,16.27ZM213.95,369.08c0,.45-.37.82-.82.82h-10.99c-.45,0-.82-.37-.82-.82v-36.85c0-4.41-3.58-7.99-7.99-7.99h-8.23c-4.41,0-7.99,3.58-7.99,7.99v36.85c0,.45-.37.82-.82.82h-10.99c-.45,0-.82-.37-.82-.82v-36.85c0-4.41-3.58-7.99-7.99-7.99h-78.83c-4.41,0-7.99,3.58-7.99,7.99v36.85c0,.45-.37.82-.82.82h-8.1c-.45,0-.82-.37-.82-.82v-78.46c5.03,3.04,10.84,4.71,16.85,4.71,14.08,0,26.51-9.18,30.9-22.28,15.64-.5,28.22-13.33,28.22-29.08,0-2.98-.47-5.92-1.36-8.73h25.53c-2.82,6.26-2.42,12.29,1.48,15.39,3.28,2.58,7.87,2.42,12.56-.28l4.6,26.6c-1.02,1.89-1.6,4.05-1.6,6.35v14c0,7.39,6.01,13.4,13.4,13.4h23.44v58.38ZM230.54,297.31c0,2.46-2,4.47-4.47,4.47h-35.57c-2.46,0-4.47-2-4.47-4.47v-14c0-2.46,2-4.47,4.47-4.47h35.57c2.46,0,4.47,2,4.47,4.47v14ZM238.04,239.76c-2.1.75-3.65,2.57-4.05,4.76l-4.69,25.8c-1.04-.26-2.11-.41-3.23-.41h-35.57c-1.34,0-2.63.2-3.85.57l-4.47-25.88c-.38-2.2-1.92-4.04-4.03-4.8-2.1-.76-4.46-.32-6.15,1.13-2.25,1.94-4.07,2.55-4.85,2.6-.22-1.18.42-4.71,3.54-8.66.56-.7,1.14-1.35,1.72-1.92,1.2-1.18,1.87-2.83,1.84-4.52-.03-1.69-.76-3.3-2.02-4.45-.13-.12-.27-.25-.38-.36-3.43-3.57-3.76-12.13-2.92-18.76,3.78,7.08,10.59,11.82,20.37,14.15l.51.12h36.55l.51-.12c9.76-2.33,16.57-7.06,20.35-14.13.76,5.94.59,13.47-2.03,17.58-.15.16-.55.58-1.52,1.51-2.45,2.34-2.56,6.26-.25,8.75,1.31,1.4,2.91,3.35,3.12,3.64,2.33,3.54,2.63,6.23,2.48,7.17-.79-.05-2.61-.67-4.88-2.62-1.68-1.45-4.03-1.89-6.12-1.14Z"/>
  <path class="ab" d="M197.78,282.74c-4.66,0-6.79,2.77-6.79,5.35s2.12,5.35,6.79,5.35,6.79-2.77,6.79-5.35-2.12-5.35-6.79-5.35Z"/>
  <path class="ab" d="M218.42,282.74c-4.66,0-6.79,2.77-6.79,5.35s2.12,5.35,6.79,5.35,6.79-2.77,6.79-5.35-2.12-5.35-6.79-5.35Z"/>
  <path class="ab" d="M193.81,230.63c-3.45,0-6.25,2.81-6.25,6.25s2.81,6.25,6.25,6.25,6.25-2.81,6.25-6.25-2.81-6.25-6.25-6.25Z"/>
  <path class="ab" d="M222.05,230.63c-3.45,0-6.25,2.81-6.25,6.25s2.81,6.25,6.25,6.25,6.25-2.81,6.25-6.25-2.81-6.25-6.25-6.25Z"/>
  <path class="ab" d="M435.47,172.85l-4.69-11.57v-57.77c0-9.57-7.78-17.35-17.35-17.35h-5.79c-.05,0-79.12,0-79.12,0,3.36-8.04,1.48-19.71-.59-24.02-1.04-2.19-3.82-4.2-6.65-3.81-2.33.33-4.1,2.14-4.52,4.64-.95,5.9-4.41,9.33-11.18,11.07h-25.63c-6.77-1.73-10.23-5.16-11.18-11.06-.4-2.48-2.16-4.3-4.49-4.64-3.13-.46-5.79,1.96-6.66,3.8-2.41,5.04-4.32,19.03.78,26.69.03.05.07.1.1.15-.54.64-1,1.23-1.21,1.55-4.17,6.33-4.27,12.73-.24,15.92,2.48,1.95,5.89,2.08,9.37.53l3.41,18.75c-1.13,1.96-1.78,4.23-1.78,6.64v6.12c0,7.08,5.52,12.88,12.49,13.35v42.88c0,4.66,3.79,8.44,8.44,8.44h8.27c4.66,0,8.44-3.79,8.44-8.44v-25.92h2.56v25.92c0,4.66,3.79,8.44,8.44,8.44h8.27c4.66,0,8.44-3.79,8.44-8.44v-25.92h18.21c1.07,6.99,4.21,12.8,9.02,16.59,0,.05,0,.1,0,.15,0,6.15,3.44,10.79,8.01,10.79,2.4,0,4.49-1.25,5.93-3.37,1.46,2.14,3.55,3.37,5.92,3.37,4.18,0,7.42-3.89,7.93-9.27.23-.08.45-.17.67-.25v7.92c0,4.66,3.79,8.44,8.44,8.44h6.1c4.66,0,8.44-3.79,8.44-8.44v-99.63h1.33c4.64,0,8.42,3.78,8.42,8.42v57.87l-4.12,11.65c-.82,2.33.4,4.88,2.72,5.7.49.17.99.26,1.49.26.78,0,1.53-.22,2.19-.59.65.36,1.38.59,2.18.59.93,0,1.79-.29,2.51-.77.73.5,1.61.78,2.5.78.56,0,1.13-.11,1.67-.33,2.29-.93,3.39-3.53,2.46-5.82ZM403.17,126.71c-3.1,2.99-7.23,4.69-11.58,4.69-7.87,0-14.75-5.58-16.35-13.27-.02-.08-.05-.14-.07-.22-.04-.16-.09-.31-.14-.46-.05-.13-.1-.25-.16-.37-.07-.15-.15-.29-.23-.42-.07-.11-.14-.21-.21-.31-.1-.13-.21-.26-.32-.38-.08-.08-.16-.16-.24-.23-.13-.12-.27-.23-.42-.34-.08-.06-.16-.11-.25-.16-.16-.1-.32-.18-.5-.26-.09-.04-.18-.08-.27-.11-.17-.06-.35-.12-.53-.16-.11-.03-.22-.05-.34-.06-.16-.02-.33-.04-.5-.05-.15,0-.29,0-.44,0-.08,0-.16,0-.24,0-.44.05-.88.07-1.34.07-7.78,0-14.11-6.32-14.11-14.1,0-1.89.4-3.74,1.13-5.46h47.11v31.6ZM264.91,97.42c-.64.55-1.2.93-1.67,1.18.23-.81.67-1.89,1.45-3.07.22-.31,1.38-1.7,2.3-2.69,2.15-2.3,2.05-5.95-.23-8.13-.36-.35-.77-.74-1.03-1.01-1.35-2.2-1.72-5.84-1.58-9.32,2.79,3.62,7.23,6.8,14.23,8.47l.51.12h27.77l.51-.12c7.02-1.67,11.47-4.87,14.26-8.5.18,4-.32,8.19-2.15,10.1-.09.09-.18.18-.27.26-1.16,1.06-1.84,2.56-1.87,4.13-.03,1.57.59,3.11,1.72,4.22.4.4.81.85,1.19,1.32,1.32,1.67,1.98,3.17,2.27,4.23-.46-.25-1.02-.63-1.65-1.16-1.57-1.36-3.77-1.77-5.72-1.06-1.96.7-3.4,2.41-3.75,4.46l-3.25,18.79c-1.3-.42-2.69-.66-4.14-.66h-22.35c-1.28,0-2.51.19-3.67.52l-3.41-18.73c-.37-2.04-1.81-3.73-3.77-4.42-1.95-.69-4.13-.28-5.7,1.07ZM276.98,138.5v-6.12c0-2.46,2-4.47,4.47-4.47h22.35c2.46,0,4.47,2,4.47,4.47v6.12c0,2.46-2,4.47-4.47,4.47h-22.35c-2.46,0-4.47-2-4.47-4.47ZM383.26,179.31c-1.14.31-2.87,1.18-3.47,3.62-1.1-1.02-2.59-1.63-4.21-1.54-.73.03-1.19,0-1.71-.04-1.62-.15-3.13.42-4.27,1.41-.3-1.5-1.19-2.86-2.52-3.74-3.19-2.1-5.41-5.68-6.38-10.21h28.43v7.87c-1.63,1.23-3.03,1.87-5.86,2.63ZM398.05,194.24v-27.25c0-3.93-3.19-7.12-7.12-7.12h-59.33c-3.92,0-7.12,3.19-7.12,7.12v27.25h-7.3v-27.25c0-3.93-3.19-7.12-7.12-7.12h-6.19c-3.92,0-7.12,3.19-7.12,7.12v27.25h-7.3v-42.34h14.33c7.39,0,13.4-6.01,13.4-13.4v-6.12c0-2.11-.51-4.11-1.38-5.89l3.37-19.48c3.46,1.52,6.84,1.38,9.31-.57,3.06-2.42,3.72-6.71,2.08-11.34h16.1c-.44,1.78-.67,3.61-.67,5.46,0,12.19,9.54,22.18,21.54,22.95,3.65,9.92,13.23,16.81,24.05,16.81,4.08,0,8.03-1,11.58-2.8v56.71h-5.12Z"/>
  <path class="ab" d="M300.54,140.02c3.24,0,4.98-2.3,4.98-4.47s-1.75-4.47-4.98-4.47-4.98,2.3-4.98,4.47,1.75,4.47,4.98,4.47Z"/>
  <path class="ab" d="M289.98,135.56c0-2.16-1.75-4.47-4.98-4.47s-4.98,2.3-4.98,4.47,1.75,4.47,4.98,4.47,4.98-2.3,4.98-4.47Z"/>
  <path class="ab" d="M303.52,99.7c2.46,0,4.47-2,4.47-4.47s-2-4.47-4.47-4.47-4.47,2-4.47,4.47,2,4.47,4.47,4.47Z"/>
  <path class="ab" d="M282.27,99.7c2.46,0,4.47-2,4.47-4.47s-2-4.47-4.47-4.47-4.47,2-4.47,4.47,2,4.47,4.47,4.47Z"/>
  <path class="ab" d="M121.24,86.57h56.36c2.47,0,4.47-2,4.47-4.47s-2-4.47-4.47-4.47h-56.36c-2.47,0-4.47,2-4.47,4.47s2,4.47,4.47,4.47Z"/>
  <path class="ab" d="M73.59,116.13h67.75c2.47,0,4.47-2,4.47-4.47s-2-4.47-4.47-4.47h-67.75c-2.47,0-4.47,2-4.47,4.47s2,4.47,4.47,4.47Z"/>
  <path class="ab" d="M348.34,250.01h43.6c2.47,0,4.47-2,4.47-4.47s-2-4.47-4.47-4.47h-43.6c-2.47,0-4.47,2-4.47,4.47s2,4.47,4.47,4.47Z"/>
  <path class="ab" d="M425.89,268.74h-58.09c-2.47,0-4.47,2-4.47,4.47s2,4.47,4.47,4.47h58.09c2.47,0,4.47-2,4.47-4.47s-2-4.47-4.47-4.47Z"/>
  <path class="ab" d="M319.76,354.52c2.47,0,4.47-2,4.47-4.47s-2-4.47-4.47-4.47h-45.36c-2.47,0-4.47,2-4.47,4.47s2,4.47,4.47,4.47h45.36Z"/>
  <path class="ab" d="M322.47,369.91h-73.02c-2.47,0-4.47,2-4.47,4.47s2,4.47,4.47,4.47h73.02c2.47,0,4.47-2,4.47-4.47s-2-4.47-4.47-4.47Z"/>
  <path class="ab" d="M92.01,177.83v20.66c0,2.47,2,4.47,4.47,4.47s4.47-2,4.47-4.47v-12.32c7.64-.44,13.45-2.66,17.65-6.77,4.81-4.7,7.21-11.78,7.14-21.05-.02-2.44-2-4.42-4.44-4.44-9.79-.08-16.94,2.14-21.89,6.68-1.16-3.71-2.98-6.85-5.44-9.41-5.36-5.55-13.44-8.25-24.71-8.25h-.16c-2.44,0-4.43,1.97-4.46,4.42-.11,10.14,2.47,17.88,7.68,23.02,4.63,4.57,11.12,7.01,19.7,7.46ZM104.91,167.63c2.46-2.53,6.37-4.06,11.65-4.58-.52,4.43-1.92,7.71-4.22,9.97-2.49,2.44-6.2,3.83-11.27,4.2.4-4.2,1.67-7.36,3.84-9.59ZM87.53,157.39c2.57,2.66,4.02,6.45,4.39,11.51-6.03-.39-10.42-2-13.34-4.89-2.73-2.69-4.33-6.62-4.84-11.95,6.28.56,10.91,2.34,13.8,5.33Z"/>
  <path class="ab" d="M326.48,252.09c-.13,0-.27,0-.4,0-9.58,0-16.61,2.21-21.49,6.68-1.16-3.71-2.98-6.85-5.44-9.41-5.39-5.57-13.45-8.29-24.88-8.25-2.44,0-4.43,1.97-4.46,4.42-.11,10.14,2.47,17.88,7.68,23.02,4.63,4.57,11.12,7.01,19.71,7.46v20.66c0,2.47,2,4.47,4.47,4.47s4.47-2,4.47-4.47v-12.32c7.64-.44,13.45-2.66,17.65-6.77,4.81-4.7,7.21-11.78,7.14-21.05-.02-2.44-2-4.42-4.44-4.44ZM283.76,262.18c-2.73-2.69-4.33-6.62-4.84-11.95,6.28.55,10.91,2.34,13.8,5.33,2.57,2.66,4.02,6.45,4.39,11.51-6.03-.39-10.42-2-13.34-4.89ZM317.53,271.19c-2.49,2.44-6.2,3.83-11.27,4.2.4-4.2,1.67-7.36,3.84-9.59,2.46-2.53,6.37-4.06,11.65-4.58-.52,4.43-1.92,7.71-4.22,9.97Z"/>
  <path class="ab" d="M180.25,114.38c-.1,8.91,2.19,15.74,6.8,20.29,4,3.95,9.52,6.12,16.8,6.59v17.21c0,2.47,2,4.47,4.47,4.47s4.47-2,4.47-4.47v-10.04c6.46-.47,11.41-2.43,15.03-5.97,4.27-4.17,6.4-10.43,6.34-18.59-.02-2.44-2-4.42-4.44-4.44-8.22-.06-14.27,1.69-18.61,5.3-1.03-2.9-2.52-5.41-4.51-7.47-4.74-4.91-11.86-7.3-21.75-7.3h-.14c-2.44,0-4.43,1.97-4.46,4.42ZM216.04,132.3c1.9-1.95,4.88-3.18,8.89-3.68-.5,3.28-1.61,5.74-3.36,7.45-1.89,1.85-4.77,2.98-8.59,3.38.4-3.11,1.41-5.47,3.05-7.15ZM200.17,123.47c1.99,2.06,3.16,4.97,3.55,8.83-4.67-.4-8.09-1.72-10.39-3.98-2.12-2.09-3.41-5.12-3.91-9.18,4.88.53,8.48,1.99,10.76,4.34Z"/>
  <path class="ab" d="M412.73,314.98c-12.59-.12-21.55,2.85-27.5,8.96-.08.08-.14.17-.21.25-1.34-5.16-3.63-9.46-6.98-12.93-6.44-6.66-16.22-9.91-29.9-9.91h-.2c-2.44,0-4.43,1.97-4.46,4.42-.14,12.45,2.87,21.55,9.21,27.8,5.73,5.65,13.89,8.59,24.78,8.99v26.69c0,2.47,2,4.47,4.47,4.47s4.47-2,4.47-4.47v-16.34c9.71-.39,17.04-3.05,22.23-8.13,5.75-5.62,8.62-14.15,8.54-25.36-.02-2.44-2-4.42-4.44-4.44ZM358.95,327.21c-3.79-3.74-5.91-9.25-6.43-16.78,8.71.58,15.12,2.94,19.08,7.04,3.58,3.7,5.49,9.02,5.82,16.18-8.38-.35-14.45-2.48-18.47-6.44ZM402.37,338.39c-3.49,3.41-8.71,5.26-15.91,5.6.37-6.1,2.08-10.64,5.16-13.81,3.44-3.53,8.95-5.58,16.44-6.12-.54,6.42-2.42,11.13-5.69,14.33Z"/>
</svg>
