<?xml version='1.0' encoding='UTF-8'?>
<svg xmlns="http://www.w3.org/2000/svg" id="bo" data-name="Divorce" viewBox="0 0 453.54 453.54">
  <defs>
    <style>
      .ca {
        stroke-linecap: round;
      }

      .ca, .cb {
        fill: none;
        stroke: #8A5301;
        stroke-linejoin: round;
        stroke-width: 12px;
      }

      .cc {
        fill: #8A5301;
        stroke-width: 0px;
      }
    </style>
  </defs>
  <polygon class="cb" points="347.89 38.8 332.61 107.09 394.11 110.24 347.89 38.8"/>
  <polygon class="cb" points="182.24 45.72 65.52 53.99 82.58 414.33 210.23 408.18 239.53 354.85 200.97 291.97 231.68 228.99 191.12 159.72 225.43 94.64 190.21 45.72 182.24 45.72"/>
  <polygon class="ca" points="251.69 38.8 347.66 38.8 394.65 111.05 379.9 414.33 230.89 406.59 262.64 357.11 230.89 289.92 270.22 226.94 235.99 160.4 276.76 95.81 251.69 38.8"/>
  <line class="ca" x1="263.13" y1="239.75" x2="329.59" y2="241.19"/>
  <line class="ca" x1="246.69" y1="273.01" x2="326.88" y2="278.96"/>
  <line class="ca" x1="244.61" y1="312.6" x2="326.88" y2="317.48"/>
  <line class="ca" x1="124.55" y1="242.26" x2="224.91" y2="237.24"/>
  <line class="ca" x1="127.6" y1="276.1" x2="208.3" y2="271.81"/>
  <line class="ca" x1="130.81" y1="312.6" x2="209.36" y2="308.68"/>
  <line class="ca" x1="122.24" y1="373.9" x2="196.02" y2="367.68"/>
  <line class="ca" x1="286.79" y1="370.79" x2="353.71" y2="373.9"/>
  <path class="cc" d="M183.88,114.04c.31-13.3-10.21-24.33-23.51-24.64-10.14-.24-18.96,5.83-22.72,14.62-3.67-8.6-12.21-14.63-22.16-14.63-13.3,0-24.08,10.78-24.08,24.08,0,7.73,3.65,14.61,9.32,19.02l36.96,36.96,37.27-37.27h0c5.29-4.3,8.75-10.79,8.92-18.14Z"/>
</svg>
