<?xml version='1.0' encoding='UTF-8'?>
<svg xmlns="http://www.w3.org/2000/svg" id="bt" data-name="Alliance mariage" viewBox="0 0 453.54 453.54">
  <defs>
    <style>
      .ca, .cb {
        stroke-miterlimit: 10;
      }

      .ca, .cb, .cc, .cd {
        fill: none;
        stroke: #8A5301;
      }

      .ca, .cd {
        stroke-width: 12px;
      }

      .cb, .cc {
        stroke-width: 11.19px;
      }

      .cc, .cd {
        stroke-linecap: round;
        stroke-linejoin: round;
      }
    </style>
  </defs>
  <path class="cb" d="M289.55,189.79c57.32,5.59,102.13,53.92,102.13,112.71,0,62.55-50.7,113.25-113.25,113.25s-113.25-50.7-113.25-113.25c0-57.66,43.1-105.26,98.84-112.34"/>
  <path class="cc" d="M165.62,312.57c-57.54-5.38-102.57-53.81-102.57-112.75,0-62.55,50.7-113.25,113.25-113.25s113.25,50.7,113.25,113.25c0,57.66-43.1,105.26-98.84,112.34"/>
  <path class="ca" d="M288.56,214.84c43.96,5.03,78.1,42.36,78.1,87.66,0,48.73-39.51,88.24-88.24,88.24s-88.24-39.51-88.24-88.24c0-43.52,31.5-79.67,72.94-86.92"/>
  <path class="cd" d="M165.17,286.47c-43.96-5.03-77.1-41.36-77.1-86.66,0-48.73,39.51-88.24,88.24-88.24s88.24,39.51,88.24,88.24c0,43.52-31.5,79.67-72.94,86.92"/>
  <polygon class="cc" points="172.14 85.12 149.48 60.45 163.92 46.45 189.56 46.45 203.26 60.45 178.81 85.12 172.14 85.12"/>
</svg>
