<?xml version='1.0' encoding='UTF-8'?>
<svg xmlns="http://www.w3.org/2000/svg" id="bs" data-name="Marier act" viewBox="0 0 453.54 453.54">
  <defs>
    <style>
      .ca {
        fill: none;
      }

      .ca, .cb {
        stroke: #144179;
        stroke-linecap: round;
        stroke-linejoin: round;
        stroke-width: 12px;
      }

      .cc {
        fill: #144179;
        stroke-width: 0px;
      }

      .cb {
        fill: #fff;
      }
    </style>
  </defs>
  <path class="cc" d="M187,96.74c.31-13.3-10.21-24.33-23.51-24.64-10.14-.24-18.96,5.83-22.72,14.62-3.67-8.6-12.21-14.63-22.16-14.63-13.3,0-24.08,10.78-24.08,24.08,0,7.73,3.65,14.61,9.32,19.02l36.96,36.96,37.27-37.27h0c5.29-4.3,8.75-10.79,8.92-18.14Z"/>
  <polyline class="ca" points="313.73 350.44 313.73 412.79 46.76 412.79 46.76 45.9 210.19 45.9"/>
  <polygon class="ca" points="210.19 45.9 210.19 153.09 313.73 153.09 210.19 45.9"/>
  <line class="ca" x1="97.6" y1="205.41" x2="261.96" y2="205.41"/>
  <line class="ca" x1="97.7" y1="235.66" x2="262.06" y2="235.66"/>
  <line class="ca" x1="99.09" y1="265.9" x2="263.45" y2="265.9"/>
  <line class="ca" x1="99.09" y1="296.15" x2="223.45" y2="296.15"/>
  <line class="ca" x1="188.27" y1="371.49" x2="243.98" y2="371.49"/>
  <polygon class="ca" points="253.55 316.27 293.27 342.86 245.19 370.96 253.55 316.27"/>
  <polyline class="cb" points="407.49 180.12 366.77 155.53 253.55 316.27 293.27 342.86 407.49 180.12"/>
  <path class="ca" d="M366.76,155.53c2.82-4.86,6.19-11.11,12.18-12.02,10.49-1.6,32.73,12.67,34.33,23.17.91,5.99-2.34,9.19-5.78,13.44"/>
  <polyline class="ca" points="361.16 161.75 341.49 147.9 303.82 201.57"/>
</svg>
