<?xml version='1.0' encoding='UTF-8'?>
<svg xmlns="http://www.w3.org/2000/svg" id="be" data-name="Cinéma" viewBox="0 0 453.54 453.54">
  <defs>
    <style>
      .bu {
        fill: none;
        stroke: #8A5301;
        stroke-linecap: round;
        stroke-linejoin: round;
        stroke-width: 12px;
      }

      .bv {
        fill: #8A5301;
        stroke-width: 0px;
      }
    </style>
  </defs>
  <path class="bv" d="M92.68,342.05l112.82.23s.54-38.12-36.33-37.79c-29.97.27-38.97-.23-38.97-.23,0,0-37.25-4.01-37.52,37.79Z"/>
  <path class="bv" d="M244.36,342.05l112.82.23s.54-38.12-36.33-37.79c-29.97.27-38.97-.23-38.97-.23,0,0-37.25-4.01-37.52,37.79Z"/>
  <path class="bv" d="M19.21,417.62l112.82.23s.54-38.12-36.33-37.79c-29.97.27-38.97-.23-38.97-.23,0,0-37.25-4.01-37.52,37.79Z"/>
  <path class="bv" d="M170.35,417.62l112.82.23s.54-38.12-36.33-37.79c-29.97.27-38.97-.23-38.97-.23,0,0-37.25-4.01-37.52,37.79Z"/>
  <path class="bv" d="M320.96,417.62l112.82.23s.54-38.12-36.33-37.79c-29.97.27-38.97-.23-38.97-.23,0,0-37.25-4.01-37.52,37.79Z"/>
  <path class="bu" d="M221.68,233.91c-15.72-.58-97.67-1.69-185.68,32.46V39.66s109.59,36.16,188.39,36.04c78.89-.12,189.47-34.12,189.47-34.12v224.79s-85.54-36.95-186.09-32.51c-2.03.09-4.06.12-6.08.04Z"/>
</svg>
