<?xml version='1.0' encoding='UTF-8'?>
<svg xmlns="http://www.w3.org/2000/svg" id="n" data-name="Livre fermé" viewBox="0 0 453.54 453.54">
  <defs>
    <style>
      .bu {
        fill: #8A5301;
        stroke-width: 0px;
      }
    </style>
  </defs>
  <path class="bu" d="M359.85,343.24c3.31,0,6-2.61,6-5.83V78.24c0-22.32-18.69-40.47-41.65-40.47h-191.8c-23.89,0-43.31,18.89-43.31,42.1v293.81c0,23.22,19.31,42.11,43.04,42.11h227.72c3.31,0,6-2.61,6-5.83s-2.69-5.83-6-5.83c-17.12,0-31.05-13.66-31.05-30.44s13.93-30.43,31.05-30.43ZM138.4,49.43h103.23v104.34c0,2.71,1.91,5.05,4.62,5.68.46.11.92.16,1.38.16,2.23,0,4.33-1.21,5.36-3.23l13.54-26.34,13.51,26.29c1.25,2.42,4.04,3.68,6.75,3.06,2.71-.61,4.62-2.96,4.62-5.68V49.43h32.79c16.35,0,29.65,12.93,29.65,28.81v253.34h-215.45V49.43ZM279.41,50.18v78.82l-7.51-14.61c-1.02-1.98-3.09-3.23-5.37-3.23s-4.35,1.24-5.36,3.23l-7.54,14.67V49.57l25.78.61ZM101.09,79.86c0-14.79,10.9-27.15,25.31-29.88v281.97c-9.88,1.28-18.72,5.87-25.31,12.59V79.86ZM316.8,373.67c0,11.96,5.12,22.76,13.33,30.44h-198c-17.12,0-31.04-13.66-31.04-30.44s13.92-30.43,31.04-30.43h198c-8.21,7.67-13.33,18.48-13.33,30.43Z"/>
</svg>
