<?xml version='1.0' encoding='UTF-8'?>
<svg xmlns="http://www.w3.org/2000/svg" id="g" data-name="Entreprise charbon" viewBox="0 0 453.54 453.54">
  <defs>
    <style>
      .ak {
        fill: none;
      }

      .ak, .al {
        stroke: #5F1972;
        stroke-linecap: round;
        stroke-linejoin: round;
        stroke-width: 12px;
      }

      .al {
        fill: #fff;
      }
    </style>
  </defs>
  <rect class="ak" x="254.76" y="282.02" width="130.81" height="130.81"/>
  <polyline class="al" points="194.87 282.02 180.31 129.31 125.34 129.31 111.79 282.02"/>
  <rect class="ak" x="293.54" y="368.62" width="44.2" height="44.2"/>
  <rect class="ak" x="273.08" y="303.09" width="32.76" height="32.76"/>
  <rect class="ak" x="330.52" y="303.09" width="32.76" height="32.76"/>
  <polyline class="ak" points="196.88 282.02 369.02 282.02 369.02 279.04 369.02 211.38 312.32 279.04 312.39 211.38 255.63 279.04 255.63 211.38 196.88 282.02"/>
  <line class="ak" x1="39.78" y1="412.82" x2="415.83" y2="412.82"/>
  <g>
    <g>
      <path class="ak" d="M156.32,280.32c.31-.87.51-1.54.54-1.93.27-3.24-16.83-23.02-16.83-23.02l-19.14,10.07-4.85,35.04,29.09,3.83s.24-.48.65-1.29l-5.42-4.76,15.97-17.93Z"/>
      <path class="ak" d="M191.28,270.95l-24.32-2.58-10.63,11.94-15.97,17.93,5.42,4.76,19.51,17.13s25.05-14.11,27.34-16.98c2.29-2.87-1.34-32.22-1.34-32.22Z"/>
    </g>
    <path class="al" d="M101.44,266.06l-14.6,15.96,7.3,34.61,28.67-6.25s3.11-25.23,2.27-28.36c-.84-3.14-23.63-15.96-23.63-15.96Z"/>
  </g>
  <path class="al" d="M86.84,282.02l6.8-7.44c-2.24-2.35-24.24-8.52-24.24-8.52l-5.15,21.01,23.02,26.85,5.32-4.62-5.76-27.28Z"/>
  <polygon class="al" points="185.48 397.82 76.51 397.82 63.69 303.09 198.3 303.09 185.48 397.82"/>
  <line class="ak" x1="66.58" y1="324.46" x2="193.87" y2="324.46"/>
  <circle class="al" cx="101.44" cy="397.82" r="14.6"/>
  <circle class="al" cx="159.84" cy="397.82" r="14.6"/>
  <path class="al" d="M285.92,45.5c-12.25,0-22.99,6.43-29.04,16.1-3.59-1.69-7.59-2.64-11.82-2.64-12.03,0-22.27,7.66-26.11,18.37-.54-.04-1.08-.08-1.63-.08-12.41,0-22.46,10.06-22.46,22.46s10.06,22.46,22.46,22.46c7.53,0,14.19-3.72,18.26-9.41,2.96,1.07,6.15,1.66,9.47,1.66,7.58,0,14.45-3.04,19.45-7.97,5.86,4.7,13.3,7.52,21.4,7.52,18.91,0,34.24-15.33,34.24-34.24s-15.33-34.24-34.24-34.24Z"/>
</svg>
