<?xml version='1.0' encoding='UTF-8'?>
<svg xmlns="http://www.w3.org/2000/svg" id="e" data-name="Entreprise innovation" viewBox="0 0 453.54 453.54">
  <defs>
    <style>
      .ak {
        fill: #8A5301;
        stroke-width: 0px;
      }
    </style>
  </defs>
  <path class="ak" d="M270.28,292.4c-2.95.04-5.4,2.06-5.36,4.59v9.19c.27,11.23,7.38,22.22,18.75,27.85,11.59,5.74,25.9,5.74,37.5,0,11.33-5.61,18.43-16.68,18.75-27.85v-9.19c.05-2.59-2.34-4.63-5.36-4.59-2.96.04-5.4,2.06-5.36,4.59v9.19c0,8.21-5.1,15.79-13.39,19.89-8.29,4.11-18.49,4.11-26.79,0-8.29-4.11-13.39-11.69-13.39-19.9v-9.18c.05-2.59-2.34-4.63-5.36-4.59Z"/>
  <path class="ak" d="M249.92,408.05c0,3.31-2.69,6-6,6H32.92c-3.31,0-6-2.69-6-6s2.69-6,6-6h4.69v-129.38c0-2.04,1.04-3.94,2.75-5.05l54.78-35.22c1.85-1.18,4.19-1.27,6.12-.22,1.93,1.05,3.13,3.07,3.13,5.27v19.81l38.68-24.86c1.84-1.18,4.19-1.27,6.12-.22,1.92,1.05,3.12,3.07,3.12,5.27v19.8l29.07-18.69v-35.92c0-3.31,2.69-6,6-6h18.54c3.31,0,6,2.69,6,6s-2.69,6-6,6h-12.54v33.2c0,2.04-1.04,3.94-2.75,5.04l-41.08,26.41c-1.84,1.19-4.19,1.27-6.11.22-1.93-1.05-3.13-3.07-3.13-5.27v-19.8l-38.68,24.85c-1.85,1.19-4.19,1.27-6.12.22-1.93-1.05-3.12-3.07-3.12-5.27v-19.8l-42.78,27.51v126.1h179.7v-110.04c0-3.31,2.68-6,6-6s6,2.69,6,6v110.04h2.61c3.31,0,6,2.68,6,6Z"/>
  <path class="ak" d="M298.45,99.71c-3.31,0-6-2.69-6-6v-50.66c0-3.31,2.69-6,6-6s6,2.69,6,6v50.66c0,3.31-2.69,6-6,6Z"/>
  <path class="ak" d="M342.52,112.88c-1.02,0-2.05-.26-2.99-.8-2.87-1.66-3.85-5.33-2.2-8.2l25.33-43.87c1.66-2.87,5.32-3.85,8.2-2.2,2.87,1.66,3.85,5.33,2.2,8.2l-25.33,43.87c-1.11,1.92-3.13,3-5.2,3Z"/>
  <path class="ak" d="M376.76,141.45c-2.07,0-4.09-1.08-5.2-3-1.66-2.87-.67-6.54,2.2-8.2l43.87-25.33c2.87-1.66,6.54-.67,8.2,2.2,1.66,2.87.67,6.54-2.2,8.2l-43.87,25.33c-.94.55-1.98.8-2.99.8Z"/>
  <path class="ak" d="M254.52,112.88c-2.07,0-4.09-1.08-5.2-3l-25.33-43.87c-1.66-2.87-.67-6.54,2.2-8.2,2.87-1.66,6.54-.67,8.2,2.2l25.33,43.87c1.66,2.87.67,6.54-2.2,8.2-.95.55-1.98.8-2.99.8Z"/>
  <path class="ak" d="M220.28,141.45c-1.02,0-2.05-.26-2.99-.8l-43.87-25.33c-2.87-1.66-3.85-5.33-2.2-8.2,1.66-2.87,5.33-3.85,8.2-2.2l43.87,25.33c2.87,1.66,3.85,5.33,2.2,8.2-1.11,1.92-3.13,3-5.2,3Z"/>
  <path class="ak" d="M328,289.22h-55.13c-5.21,0-10.31-2.11-13.99-5.8-3.68-3.68-5.79-8.78-5.79-13.99,0-14-4.71-27.78-13.26-38.79-.04-.06-.09-.11-.13-.17-22.19-30.8-17.84-73.35,10.12-98.96,13.84-12.68,31.82-19.67,50.62-19.67s36.78,6.98,50.62,19.67c27.98,25.64,32.36,68.2,10.17,99-.04.06-.08.12-.13.17-8.58,11.06-13.31,24.82-13.31,38.76,0,5.21-2.11,10.3-5.79,13.99-3.68,3.68-8.78,5.8-13.99,5.8ZM249.38,223.37c10.13,13.09,15.71,29.44,15.71,46.06,0,2.05.83,4.05,2.28,5.5,1.45,1.45,3.46,2.28,5.5,2.28h55.13c2.05,0,4.05-.83,5.5-2.28,1.45-1.45,2.28-3.45,2.28-5.5,0-16.55,5.6-32.89,15.77-46.03,18.56-25.86,14.87-61.54-8.61-83.05-11.62-10.65-26.72-16.51-42.51-16.51s-30.89,5.86-42.51,16.51c-23.45,21.49-27.11,57.16-8.55,83.02ZM356.36,227h0,0Z"/>
</svg>
