<?xml version='1.0' encoding='UTF-8'?>
<svg xmlns="http://www.w3.org/2000/svg" id="ae" data-name="Loupe" viewBox="0 0 453.54 453.54">
  <defs>
    <style>
      .aq {
        fill: #8A5301;
        stroke-width: 0px;
      }

      .ar {
        stroke-miterlimit: 10;
      }

      .ar, .as {
        fill: none;
        stroke: #8A5301;
        stroke-linecap: round;
        stroke-width: 12px;
      }

      .as {
        stroke-linejoin: round;
      }
    </style>
  </defs>
  <path class="ar" d="M161.77,187.01c0,5.68-2.49,10.8-6.43,14.27-3.38,3.01-7.84,4.84-12.68,4.84-5.63,0-10.66-2.44-14.13-6.29-3.15-3.38-4.98-7.84-4.98-12.82,0-10.56,8.55-19.11,19.11-19.11s19.11,8.55,19.11,19.11Z"/>
  <line class="ar" x1="221.78" y1="168.89" x2="196.05" y2="222.04"/>
  <line class="ar" x1="240.61" y1="169.26" x2="267.56" y2="221.34"/>
  <line class="ar" x1="128.53" y1="199.83" x2="95.66" y2="229.6"/>
  <line class="ar" x1="155.34" y1="201.29" x2="174.64" y2="222.98"/>
  <path class="ar" d="M205.11,238.24c0,10.56-8.55,19.11-19.11,19.11s-19.11-8.55-19.11-19.11c0-6.29,3.05-11.83,7.75-15.26,3.19-2.39,7.09-3.8,11.36-3.8,3.71,0,7.14,1.03,10.05,2.86,5.45,3.33,9.06,9.34,9.06,16.2Z"/>
  <path class="ar" d="M250.65,152.5c0,7.23-4.04,13.57-10.05,16.76-2.68,1.46-5.78,2.3-9.06,2.3-3.57,0-6.9-.99-9.77-2.68-5.59-3.33-9.34-9.44-9.34-16.39,0-10.56,8.55-19.11,19.11-19.11s19.11,8.55,19.11,19.11Z"/>
  <path class="ar" d="M295.45,238.24c0,10.56-8.55,19.11-19.11,19.11s-19.06-8.55-19.06-19.11c0-7.32,4.18-13.71,10.28-16.9,2.63-1.36,5.59-2.16,8.78-2.16,10.56,0,19.11,8.55,19.11,19.06Z"/>
  <path class="aq" d="M195.17,62.97c34.38,0,66.7,13.39,91.01,37.7s37.7,56.63,37.7,91.01-13.39,66.7-37.7,91.01-56.63,37.7-91.01,37.7-66.7-13.39-91.01-37.7-37.7-56.63-37.7-91.01,13.39-66.7,37.7-91.01,56.63-37.7,91.01-37.7M195.17,50.97c-77.71,0-140.71,63-140.71,140.71s63,140.71,140.71,140.71,140.71-63,140.71-140.71S272.89,50.97,195.17,50.97h0Z"/>
  <line class="as" x1="292.15" y1="286.88" x2="312.68" y2="307.77"/>
  <path class="aq" d="M333.3,306.06c5.61,0,10.88,2.18,14.85,6.15l68.84,68.84c3.97,3.97,6.15,9.24,6.15,14.85s-2.18,10.89-6.15,14.85c-3.97,3.97-9.24,6.15-14.85,6.15s-10.89-2.18-14.85-6.15l-68.84-68.84c-8.19-8.19-8.19-21.51,0-29.7,3.97-3.97,9.24-6.15,14.85-6.15M333.3,294.06c-8.45,0-16.89,3.22-23.34,9.67-12.89,12.89-12.89,33.79,0,46.67l68.84,68.84c6.44,6.44,14.89,9.67,23.34,9.67s16.89-3.22,23.34-9.67c12.89-12.89,12.89-33.79,0-46.67l-68.84-68.84c-6.44-6.44-14.89-9.67-23.34-9.67h0Z"/>
</svg>
