<?xml version='1.0' encoding='UTF-8'?>
<svg xmlns="http://www.w3.org/2000/svg" id="t" data-name="Raisin" viewBox="0 0 453.54 453.54">
  <defs>
    <style>
      .aa, .ab {
        fill: none;
        stroke: #5F1972;
        stroke-linecap: round;
        stroke-width: 12px;
      }

      .ab {
        stroke-linejoin: round;
      }
    </style>
  </defs>
  <path class="ab" d="M227.74,98.27s-16.92,12.75-25.86,35.28c0,0-25.81-35.33-71.94-31.04l8.29,30.75s-33.97-4.37-39.69,9.22l8.23,9.66s-26.11,9.92-35.05,22.66c0,0,13.23,9.88,22.89,9.88,0,0-3.58,9.27-1.79,12.86,0,0,1.43,3.56,41.13,0,0,0-27.54,15.75-28.61,33.27,0,0,12.87,6.44,20.38,5.72,0,0-15.38,22.89-7.15,45.77,0,0,11.09,6.21,36.12-27.11,0,0,10.01,12.81,17.17,13.17,7.15.36,20.38-27.89,20.38-27.89,0,0-26.82,0-20.74-28.25,6.08-28.25,27.54-20.74,27.54-20.74,0,0-27.24-40.84,26.79-33.47,0,0-2.99-25.17,20.13-24.9,0,0-17.07-24.71-12.77-33.29l-5.42-1.55Z"/>
  <path class="ab" d="M178.21,266.38s-.54,34.66,46.46,34.66c0,0-13.08,39.58,33.17,38.62,0,0,1.91,54.36,57.22,38.62,0,0-4.29,38.62,33.38,22.89,0,0,12.87-15.26,0-23.36,0,0,20.5-14.3,3.34-32.9,0,0,18.12-41.48-4.29-64.85,0,0,30.99-14.3,22.41-31.47,0,0,33.49-30.1,7.27-47.75,0,0-6.19-8.9-23.95-2.46,0,0-3.34-23.71-30.52-18.46,0,0,17.17-23.84-14.78-35.28,0,0-16.31-29.56-44.39-18.12,0,0-23.33-32.11-30.48-78.84,0,0-23.23-7.35-37.16,0-28.66,15.12-14.45,33.03-14.45,33.03,0,0,13.01,9.57,12.53-9.5-.48-19.07,35.76-21.54,39.58,20.98,3.81,42.52,18.36,41.13,18.36,41.13,0,0-22.71-2.7-27.21,25.53,0,0-50.03-14.11-28.46,30.66,0,0-52.81,16.88-5.13,51.8l-12.87,25.06Z"/>
  <path class="aa" d="M220.05,261.92s-11.44-5.94-10.73-20.24c.72-14.3,11.09-25.75,27.54-27.18,16.45-1.43,31.11,16.81,25.39,32.9"/>
  <path class="aa" d="M281.21,288.17s-29.32-1.07-29.32,29.68,31.83,24.32,31.83,24.32c0,0,10.73-.72,19.67-15.73"/>
</svg>
