<?xml version='1.0' encoding='UTF-8'?>
<svg xmlns="http://www.w3.org/2000/svg" id="o" data-name="Alimentaire chariot" viewBox="0 0 453.54 453.54">
  <defs>
    <style>
      .aa {
        fill: none;
      }

      .aa, .ab {
        stroke: #5F1972;
        stroke-linecap: round;
        stroke-linejoin: round;
        stroke-width: 12px;
      }

      .ac {
        fill: #5F1972;
        stroke-width: 0px;
      }

      .ab {
        fill: #fff;
      }
    </style>
  </defs>
  <g>
    <path class="ac" d="M311.45,145.24c-.39,0-.78-.01-1.17-.04l-1.76-.11-.11-1.76c-.33-5.41,1.65-10.67,5.41-14.44,3.51-3.51,8.22-5.44,13.27-5.44.39,0,.78.01,1.17.04l1.76.1.11,1.76c.33,5.41-1.64,10.67-5.41,14.44-3.51,3.51-8.22,5.44-13.27,5.44h0Z"/>
    <path class="ac" d="M309.94,215.04c-2.44,0-4.89-.45-7.3-1.33-2.41.88-4.86,1.33-7.29,1.33-3.93,0-7.78-1.15-11.45-3.42-11.6-7.19-18.45-24.05-18.37-36.21.07-9.66,2.67-16.92,7.96-22.22,4.45-4.28,10.28-6.62,16.45-6.62.16,0,.32,0,.47,0-.25-.3-.49-.58-.74-.84l-5.1-5.22,15.93-9.77,3.16,4.39c2.62,3.64,4.53,7.73,5.69,12.2,1.95-.49,3.95-.74,5.97-.74,6.2,0,12.02,2.32,16.39,6.52l.08.08c5.29,5.3,7.89,12.56,7.96,22.22.09,12.15-6.76,29.02-18.36,36.2-3.66,2.27-7.52,3.42-11.45,3.42ZM289.92,158.22c-3.13,0-6.07,1.17-8.28,3.29-3,3-4.42,7.45-4.47,13.99-.06,8.6,5.2,21.49,12.85,26.23,1.81,1.12,3.55,1.67,5.32,1.67h0c1.52,0,3.04-.4,4.66-1.22l2.63-1.33,2.63,1.33c1.62.82,3.14,1.22,4.66,1.22,1.77,0,3.51-.55,5.32-1.67,7.65-4.74,12.91-17.62,12.85-26.23-.04-6.52-1.48-10.98-4.53-14.04-2.16-2.07-5.1-3.22-8.25-3.22-2.59,0-5.1.78-7.25,2.25l-5.63,3.85-4.9-3.59c-2.25-1.65-4.89-2.53-7.62-2.53Z"/>
  </g>
  <g>
    <path class="aa" d="M335.8,190.99l15.32-55.9c1.77-6.45,8.77-9.92,14.98-7.41l12.49,5.05c6.2,2.51,8.83,9.87,5.62,15.74l-27.81,50.85c-6.37,11.64-24.11,4.47-20.6-8.32Z"/>
    <line class="aa" x1="347.08" y1="149.82" x2="359.82" y2="156.17"/>
    <line class="aa" x1="367.14" y1="98.47" x2="367.07" y2="128.07"/>
    <line class="aa" x1="389.11" y1="97.59" x2="374.17" y2="129.51"/>
    <line class="aa" x1="404.96" y1="111.94" x2="381.64" y2="132.44"/>
  </g>
  <path class="aa" d="M97.19,52.14c-2.66.55-4.5,3.35-3.94,6.01l3.65,17.52c.57,2.74,3.27,4.51,6.01,3.94l1.76-.37,4.2,20.18c1.85,8.9.9,18.01-2.76,26.34l-4.38,9.97c-3.81,8.67-4.8,18.14-2.87,27.41l21.48,103.24c.48,2.33,1.84,4.33,3.83,5.63,1.99,1.3,4.37,1.75,6.69,1.27l64.87-13.5c2.33-.48,4.33-1.85,5.63-3.83,1.3-1.99,1.75-4.37,1.27-6.69l-21.48-103.24c-1.93-9.27-6.62-17.56-13.57-23.99l-7.99-7.39c-6.68-6.18-11.18-14.15-13.04-23.05l-4.2-20.18,1.76-.37c1.37-.29,2.5-1.1,3.22-2.19.71-1.09,1.01-2.45.73-3.82l-3.65-17.52c-.57-2.75-3.27-4.51-6.01-3.94l-41.22,8.58Z"/>
  <g>
    <path class="ac" d="M234.34,219.26c-17.27,0-42.96-4.07-42.96-15.29v-92.83c0-7.28,9.69-9.95,16.98-11.32,7.12-1.34,16.83-2.15,25.97-2.15s18.85.8,25.98,2.15c7.29,1.38,16.98,4.05,16.98,11.32v92.83c0,11.22-25.69,15.29-42.96,15.29ZM202.15,192.82c3.05,2.07,14.93,6.11,32.19,6.11s29.14-4.03,32.19-6.11v-71.85c-11.67,3.52-29.75,3.65-32.19,3.65s-20.52-.12-32.19-3.65v71.85ZM207.01,111.15c5.6,1.37,14.99,2.7,27.32,2.7s21.72-1.33,27.32-2.7c-5.6-1.37-14.99-2.7-27.32-2.7s-21.72,1.33-27.32,2.7Z"/>
    <path class="ac" d="M234.34,186.45c-19.96,0-36.19-12.38-36.19-27.6s16.24-27.6,36.19-27.6,36.19,12.38,36.19,27.6-16.24,27.6-36.19,27.6ZM234.34,142.03c-13.78,0-25.42,7.71-25.42,16.83s11.64,16.83,25.42,16.83,25.42-7.71,25.42-16.83-11.64-16.83-25.42-16.83Z"/>
  </g>
  <line class="aa" x1="105.81" y1="78.37" x2="126.89" y2="74.16"/>
  <polyline class="ab" points="85.55 193.34 365.3 193.34 334 320.5 110.14 320.5"/>
  <line class="aa" x1="143.34" y1="224.64" x2="143.34" y2="287.8"/>
  <line class="aa" x1="175.2" y1="224.64" x2="175.2" y2="287.8"/>
  <line class="aa" x1="207.06" y1="224.64" x2="207.06" y2="287.8"/>
  <line class="aa" x1="238.92" y1="224.64" x2="238.92" y2="287.8"/>
  <line class="aa" x1="270.78" y1="224.64" x2="270.78" y2="287.8"/>
  <line class="aa" x1="302.64" y1="224.64" x2="302.64" y2="287.8"/>
  <circle class="aa" cx="143.54" cy="391.9" r="19.98"/>
  <circle class="aa" cx="302" cy="391.9" r="19.98"/>
  <polyline class="aa" points="48.66 161.2 79.96 161.2 112.1 352.08 334.83 352.08"/>
</svg>
