<?xml version='1.0' encoding='UTF-8'?>
<svg xmlns="http://www.w3.org/2000/svg" id="u" data-name="Panier" viewBox="0 0 453.54 453.54">
  <defs>
    <style>
      .aa, .ab {
        stroke-linecap: round;
      }

      .aa, .ab, .ac {
        fill: none;
        stroke: #5F1972;
        stroke-width: 12px;
      }

      .aa, .ac {
        stroke-miterlimit: 10;
      }

      .ab {
        stroke-linejoin: round;
      }
    </style>
  </defs>
  <g>
    <path class="aa" d="M354.44,112.72c6.33-12.47,11.62-25.92,27.52-29.43,5.96-1.32,5.03-5.97,5.15-10.24.15-5.41-5.07-7.86-7.63-7.3-10.85,2.38-16.24-5.41-22.51-11.26-8.36,4.61-10.12,10.48-7.1,18.59,4.43,11.88,2.56,27.59-5.59,32.3-22.88,13.23-32.93,38.31-54.29,52.45-12.62,8.36-24.61,18.72-27.08,35.53"/>
    <path class="aa" d="M346.12,108.88c14.32,8.67,14.2,8.64,10.27,28.17-3.75,18.62-2.48,37.51-2.59,56.31"/>
  </g>
  <line class="aa" x1="171.02" y1="266.99" x2="171.02" y2="383.03"/>
  <line class="aa" x1="222.36" y1="266.99" x2="222.36" y2="383.03"/>
  <line class="aa" x1="273.69" y1="266.99" x2="273.69" y2="383.03"/>
  <g>
    <g>
      <rect class="ab" x="163.6" y="116.2" width="168.5" height="41" rx="20.5" ry="20.5" transform="translate(26.43 313.04) rotate(-67.41)"/>
      <path class="ab" d="M369.72,196.13h-124.18l-3.03,7.28c-4.35,10.45-16.35,15.4-26.8,11.05h0c-7.68-3.2-12.37-10.53-12.6-18.33h-125.39c-11.32,0-20.5,9.18-20.5,20.5h0c0,11.32,9.18,20.5,20.5,20.5h292c11.32,0,20.5-9.18,20.5-20.5h0c0-11.32-9.18-20.5-20.5-20.5Z"/>
    </g>
    <path class="ac" d="M347.23,236.96l-12.04,153.15c-1.04,13.27-12.12,23.51-25.43,23.51h-174.24c-13.22,0-24.25-10.1-25.41-23.27l-13.54-153.4"/>
  </g>
  <g>
    <path class="ab" d="M160.81,131.71c-1.93-4.96-4.77-9.5-8.35-13.35l-42.07-45.25-33.26,12.95-1.41,61.89c-.12,5.48.85,10.98,2.86,16.15l12.66,32.52h94.84l-25.27-64.9Z"/>
    <polygon class="ab" points="110.3 73.02 110.38 73.11 120.44 69.2 113.55 51.52 59.05 72.73 65.93 90.41 77.13 86.06 77.13 85.94 110.3 73.02"/>
    <polygon class="ab" points="110.3 73.02 77.13 85.94 77.13 86.06 110.38 73.11 110.3 73.02"/>
  </g>
</svg>
