<?xml version='1.0' encoding='UTF-8'?>
<svg xmlns="http://www.w3.org/2000/svg" id="d" data-name="Banane" viewBox="0 0 453.54 453.54">
  <defs>
    <style>
      .aa {
        stroke-miterlimit: 10;
      }

      .aa, .ab {
        fill: none;
        stroke: #5F1972;
        stroke-linecap: round;
        stroke-width: 12px;
      }

      .ab {
        stroke-linejoin: round;
      }
    </style>
  </defs>
  <path class="aa" d="M365.25,76.79c-5.98.56-20.89.84-22.55,1.03-1.98.29-6.54-1.08-6.01,3.81-1.26,6.04,3.47,4.15,5.49,4.17,5.46-.11,10.93-.86,15.55-1.27-1.62,8-4.34,15.68-4.4,23.38-.1,5.81,3.02,11.72,4.73,17.54,1.73,5.76,4.3,11.39,5.19,17.27,5.01,32.23-1.88,62.65-15.88,91.56-23.18,47.96-57.31,85.57-108.69,103.1-52.7,17.99-106.83,20.08-160.4,2.8-10.72-3.47-20.1-11.22-29.72-17.54-7.67-5.11-7.4-12.59-5.14-20.79,2.31-8.33,8.61-8.56,15.16-9.5,86.25-11.76,160.57-47.08,219.68-111.99,10.36-11.39,18.54-24.73,28.65-36.43,7.69-8.82,16.94-16.36,25.17-24.7,2.16-2.17,4.9-5.51,4.56-7.95-.98-8.01-2.34-16.16-5.36-23.55-3.44-8.4-1.77-14.37,7.19-16.16,6.67-1.25,13.43-1.97,20.18-2.25,4.86-.25,5.26.62,6.6,7.46Z"/>
  <path class="ab" d="M343.58,149.56s-35.01,211.26-280.66,165.02"/>
</svg>
