<?xml version='1.0' encoding='UTF-8'?>
<svg xmlns="http://www.w3.org/2000/svg" id="p" data-name="Aliments" viewBox="0 0 453.54 453.54">
  <defs>
    <style>
      .aa, .ab, .ac, .ad {
        stroke-linecap: round;
        stroke-linejoin: round;
        stroke-width: 12px;
      }

      .aa, .ac {
        stroke: #5F1972;
      }

      .aa, .ad {
        fill: none;
      }

      .ab, .ac {
        fill: #fff;
      }

      .ab, .ad {
        stroke: #5F1972;
      }
    </style>
  </defs>
  <rect class="aa" x="182.08" y="152.99" width="73.78" height="189.58"/>
  <polygon class="ac" points="220.53 263.24 410.2 226.95 334.33 188.24 220.53 263.24"/>
  <path class="ac" d="M220.53,263.24v14.7s.04,0,.06,0c7.82,0,14.15,6.34,14.15,14.15s-6.34,14.15-14.15,14.15c-.02,0-.04,0-.06,0v72l85.05-17.49c-.52-2.22-.81-4.53-.81-6.9,0-16.58,13.44-30.03,30.03-30.03,14.81,0,27.11,10.73,29.57,24.84l45.83-9.42v-112.28l-189.67,36.28Z"/>
  <polygon class="aa" points="182.08 152.99 218.91 78.02 255.87 152.99 182.08 152.99"/>
  <polygon class="aa" points="182.08 152.99 67.2 152.99 106.53 78.02 218.91 78.02 182.08 152.99"/>
  <rect class="aa" x="67.2" y="152.99" width="115" height="189.58"/>
  <path class="aa" d="M116.27,40.24h91.57c6.11,0,11.07,4.96,11.07,11.07v26.71h-113.71v-26.71c0-6.11,4.96-11.07,11.07-11.07Z"/>
  <g>
    <path class="ad" d="M107.31,297.7s-.37-34.96-18.2-48.56"/>
    <path class="ad" d="M101.94,268.28s10.4-45.61,59.43-28.27c0,0-12.35,46.01-59.43,28.27Z"/>
    <path class="ab" d="M106.82,291.11s-12.73-7.96-35.16-5.85c-22.43,2.11-36.98,25.38-35.33,62.66,1.64,37.28,27.04,64.89,57.54,63.2,0,0,8.86-4.63,10.26-10.49h4.28-1.51s4.28,0,4.28,0c1.41,5.87,10.26,10.49,10.26,10.49,30.5,1.69,55.89-25.92,57.54-63.2,1.64-37.28-12.9-60.55-35.33-62.66-22.43-2.11-35.69,5.85-35.69,5.85h-1.13Z"/>
    <path class="ad" d="M139.09,302.6s16.22,8.95,19.33,31.91"/>
  </g>
  <circle class="aa" cx="355.44" cy="282.33" r="15.1"/>
  <circle class="aa" cx="277.51" cy="321.82" r="8.59"/>
</svg>
