<?xml version='1.0' encoding='UTF-8'?>
<svg xmlns="http://www.w3.org/2000/svg" id="h" data-name="Produits laitiiers" viewBox="0 0 453.54 453.54">
  <defs>
    <style>
      .aa {
        fill: none;
        stroke: #5F1972;
        stroke-linecap: round;
        stroke-linejoin: round;
        stroke-width: 12px;
      }
    </style>
  </defs>
  <g>
    <path class="aa" d="M396.19,412.77h-77.32c-8.79,0-15.92-6.84-15.92-15.27v-166.33c0-6.85,1.34-13.62,3.94-19.87l29.41-70.74h43.97l28.21,71.07c2.4,6.04,3.63,12.54,3.63,19.11v166.76c0,8.43-7.13,15.27-15.92,15.27Z"/>
    <rect class="aa" x="321.41" y="117.26" width="72.24" height="23.43"/>
  </g>
  <path class="aa" d="M62.16,314h195.64v97H62.16c-12.03,0-21.8-9.77-21.8-21.8v-53.4c0-12.03,9.77-21.8,21.8-21.8Z"/>
  <path class="aa" d="M257.81,314l-90.2-51.57s-127.08,20.9-127.16,71.57"/>
  <path class="aa" d="M137.72,314.7c.75,2.08,1.16,4.33,1.16,6.67,0,10.88-8.82,19.7-19.7,19.7s-19.7-8.82-19.7-19.7c0-2.61.51-5.09,1.42-7.37"/>
  <path class="aa" d="M40.44,338.66c2.67-1.35,5.69-2.11,8.89-2.11,10.88,0,19.7,8.82,19.7,19.7s-8.82,19.7-19.7,19.7c-3.2,0-6.22-.76-8.89-2.11"/>
  <path class="aa" d="M257.1,341.07c-3.56,3.51-8.44,5.67-13.83,5.67-10.88,0-19.7-8.82-19.7-19.7,0-4.36,1.42-8.39,3.82-11.66"/>
  <path class="aa" d="M110.45,408.41c0-13.31,10.79-24.09,24.09-24.09s24.09,10.79,24.09,24.09"/>
  <path class="aa" d="M235.52,411c-.11-.85-.17-1.71-.17-2.59,0-10.88,8.82-19.7,19.7-19.7.93,0,1.85.06,2.75.19"/>
  <circle class="aa" cx="187.69" cy="359.01" r="17.56"/>
</svg>
