<?xml version='1.0' encoding='UTF-8'?>
<svg xmlns="http://www.w3.org/2000/svg" id="c" data-name="Deplacement carte_2" viewBox="0 0 453.54 453.54">
  <defs>
    <style>
      .z, .aa, .ab, .ac {
        stroke: #008280;
        stroke-linecap: round;
        stroke-linejoin: round;
      }

      .z, .aa, .ac {
        stroke-width: 12px;
      }

      .z, .ab, .ac {
        fill: none;
      }

      .aa {
        fill: #fff;
      }

      .ab {
        stroke-width: 10.95px;
      }

      .ac {
        stroke-dasharray: 0 0 26.28 26.28;
      }
    </style>
  </defs>
  <rect class="ab" x="128.99" y="67.76" width="191.67" height="325.13" transform="translate(-93.29 181.31) rotate(-36.93)"/>
  <path class="aa" d="M253.92,95.5c0-13.85,11.33-25.18,25.18-25.18s25.18,11.33,25.18,25.18-11.33,25.18-25.18,25.18-25.18-11.33-25.18-25.18ZM265.5,166.76c6.29,10.07,13.6,21.4,13.6,21.4,0,0,7.55-11.33,13.6-21.4l3.02-4.78c12.59-21.15,28.71-51.37,28.71-66.48,0-24.93-20.4-45.32-45.32-45.32s-45.32,20.4-45.32,45.32c0,15.11,16.12,45.32,28.71,66.48l3.02,4.78Z"/>
  <path class="z" d="M243.4,129.72s-24.01,23.51-9.47,129.82c6.04,44.12-6.68,79.8-28.51,101.15"/>
  <g>
    <path class="z" d="M133,262.67s3.29-3.64,10.16-7.2"/>
    <path class="ac" d="M168.39,248.84c17.77-1.07,42.54,3.76,75.01,23.71,57.24,35.17,89.81,26.83,107.73,7.97"/>
    <path class="z" d="M359.09,270.1c2.23-3.63,4.09-7.39,5.64-11.14"/>
  </g>
</svg>
