<?xml version='1.0' encoding='UTF-8'?>
<svg xmlns="http://www.w3.org/2000/svg" id="d" data-name="4" viewBox="0 0 453.54 453.54">
  <defs>
    <style>
      .n {
        stroke-linecap: round;
        stroke-linejoin: round;
      }

      .n, .o, .p {
        fill: #fff;
        stroke: #5F1972;
      }

      .n, .p {
        stroke-width: 12px;
      }

      .o {
        stroke-width: 10.64px;
      }

      .o, .p {
        stroke-miterlimit: 10;
      }
    </style>
  </defs>
  <g>
    <circle class="o" cx="136.71" cy="108.1" r="59.51"/>
    <circle class="p" cx="136.71" cy="108.1" r="34.72"/>
  </g>
  <path class="n" d="M391.81,346.88c-6.99,16.73-20.31,32.82-43.42,45.94-24.02,13.64-45.01,18.89-66.08,16.52-11.92-1.34-24.18-5-39.76-11.87-32.72-14.42-68.51-26.95-109.43-38.33l-18.75-5.21c-2.96-.82-5.42-2.75-6.93-5.43-1.51-2.68-1.89-5.78-1.07-8.74,2.4-8.62,8.01-15.8,15.8-20.2,7.79-4.4,16.83-5.5,25.46-3.11l70.12,19.49c.17.05.32-.02.42-.09l.49-.34.58-.15c.35-.15.46-.45.34-.7l-93.95-198.16c-2.57-5.43-2.87-11.53-.85-17.2,2.05-5.66,6.13-10.2,11.55-12.78,5.43-2.57,11.54-2.88,17.2-.86,5.66,2.02,10.2,6.12,12.77,11.55l59.65,125.8c0-.05.19.02.5-.13.3-.14.38-.35.39-.4l-24-50.57c-2.37-5-2.44-10.71-.2-16.07v-.03c2.21-5.25,6.38-9.53,11.74-12.08,5.36-2.54,11.32-3.05,16.77-1.43,5.59,1.65,9.98,5.33,12.35,10.34l24.02,50.67c-.07-.06.2.01.5-.13.3-.14.38-.34.39-.4l-18.14-38.21c-2.37-5-2.44-10.71-.2-16.07v-.03c2.21-5.25,6.38-9.53,11.74-12.08,5.36-2.54,11.32-3.05,16.77-1.43,5.59,1.65,9.98,5.33,12.35,10.34l18.16,38.3c-.05-.06.2.02.5-.13.3-.14.38-.35.39-.4l-4.05-8.49c-5.31-11.21-.51-24.66,10.7-29.98,11.21-5.32,24.66-.52,29.98,10.69l37.35,78.65c9.06,19.11,22.68,57.47,7.85,92.94Z"/>
</svg>
