<?xml version='1.0' encoding='UTF-8'?>
<svg xmlns="http://www.w3.org/2000/svg" id="ai" data-name="Signe bouddiste" viewBox="0 0 453.54 453.54">
  <defs>
    <style>
      .ap {
        stroke-linecap: round;
        stroke-linejoin: round;
      }

      .ap, .aq {
        fill: none;
        stroke: #008280;
        stroke-width: 12px;
      }

      .aq {
        stroke-miterlimit: 10;
      }
    </style>
  </defs>
  <circle class="aq" cx="228.96" cy="229.4" r="186.08"/>
  <path class="ap" d="M185.03,278.52c-2.47-1.85-4.59-3.32-6.59-4.95-2.47-2.03-4.99-4.04-7.22-6.32-3.38-3.45-4.86-7.71-4.21-12.56,2.29-17.07,6.59-33.63,12.88-49.67,1.62-4.13,4.36-7.14,8.38-8.92,5.51-2.43,11.09-4.68,16.59-7.12,2.63-1.17,5.3-2.39,7.67-4,3.1-2.12,3.6-4.37,2.5-7.94-.6-1.96-1.12-3.94-1.83-6.43-.8,1.15-1.29,2.03-1.95,2.76-.4.45-1.15,1.01-1.58.9-.47-.12-1-.92-1.09-1.48-.19-1.19-.09-2.43-.13-3.65-.1-2.56-.69-4.87-2.43-6.95-1.07-1.27-2.65-3-.32-4.77.19-.15.04-.84-.06-1.25-3.35-14.25,1.81-25.38,13.05-33.84,3.98-2.99,7.33-5.84,8.01-11.05.17-1.33,1.17-2.56,1.78-3.83.25-.04.5-.07.75-.11.65,1.2,1.73,2.34,1.89,3.6.69,5.47,4.19,8.5,8.39,11.59,9.09,6.71,14.28,15.73,13.74,27.42-.07,1.52-.4,3.02-.58,4.53-.15,1.24-1.2,2.46.42,3.74.42.33-.1,2.68-.84,3.48-2.72,2.93-2.8,6.44-2.84,10.05,0,.66-.03,1.45-.37,1.96-.79,1.17-1.64.8-2.33-.22-.57-.85-1.13-1.7-1.95-2.93-.94,3.27-2.15,6-2.36,8.8-.12,1.61.99,3.81,2.27,4.9,2.1,1.79,4.69,3.1,7.24,4.24,5.15,2.3,10.39,4.38,15.62,6.49,5.73,2.31,9.37,6.39,11.47,12.24,5.48,15.26,9.64,30.83,11.88,46.9.81,5.78-1.12,10.59-5.35,14.37-3.4,3.04-7.13,5.73-10.7,8.58-.52.41-1.02.83-1.81,1.47,6.98,1.64,13.68,3.01,20.26,4.83,3.48.96,7.04,2.23,10.06,4.15,7.28,4.62,8.36,12.53,3.02,19.33-2.95,3.76-6.89,6.18-11.21,8.06-6.17,2.7-12.79,3.37-19.36,4.29-11.1,1.55-22.19,3.16-33.29,4.72-10.82,1.51-21.6.9-32.37-.69-12.75-1.89-25.52-3.59-38.24-5.62-6.32-1.01-12.25-3.32-17.14-7.62-1.8-1.58-3.46-3.49-4.68-5.55-3.11-5.25-2.14-11,2.28-15.2,3.43-3.26,7.69-4.86,12.2-5.91,6.68-1.57,13.35-3.12,20.5-4.79ZM195.06,226.22c-.13-.02-.75,14.13-2.86,22.22-1.04,3.99-1.36,9.24,1.58,12.21,1.71,1.73,6.16-7.6,4.51-14.63-.88-3.78-1.63-7.59-2.27-11.41-.47-2.77-.66-5.59-.97-8.39ZM261.24,234.61c-.64,3.82-1.39,7.64-2.27,11.41-1.64,7.03,2.8,16.36,4.51,14.63,2.95-2.98,2.62-8.23,1.58-12.21-2.11-8.09-2.73-22.23-2.86-22.22-.31,2.8-.5,5.62-.97,8.39Z"/>
</svg>
