<?xml version='1.0' encoding='UTF-8'?>
<svg xmlns="http://www.w3.org/2000/svg" id="m" data-name="Vidéo" viewBox="0 0 453.54 453.54">
  <defs>
    <style>
      .am {
        fill: #144179;
        stroke-width: 0px;
      }
    </style>
  </defs>
  <path class="am" d="M354.11,377.87H97.73c-33.84,0-61.37-27.53-61.37-61.37v-140.88c0-33.84,27.53-61.37,61.37-61.37h256.38c33.84,0,61.37,27.53,61.37,61.37v140.88c0,33.84-27.53,61.37-61.37,61.37ZM97.73,126.25c-27.22,0-49.37,22.15-49.37,49.37v140.88c0,27.22,22.15,49.37,49.37,49.37h256.38c27.22,0,49.37-22.15,49.37-49.37v-140.88c0-27.22-22.15-49.37-49.37-49.37H97.73Z"/>
  <path class="am" d="M225.92,339.95c-51.77,0-93.89-42.12-93.89-93.89s42.12-93.89,93.89-93.89,93.89,42.12,93.89,93.89-42.12,93.89-93.89,93.89ZM225.92,164.16c-45.16,0-81.89,36.74-81.89,81.89s36.74,81.89,81.89,81.89,81.89-36.74,81.89-81.89-36.74-81.89-81.89-81.89Z"/>
  <path class="am" d="M205.43,301.07c-2.82,0-5.63-.74-8.2-2.22-5.14-2.96-8.2-8.28-8.2-14.21v-70.83c0-5.93,3.07-11.24,8.2-14.2,5.13-2.96,11.27-2.96,16.4,0l61.34,35.41c5.13,2.96,8.2,8.27,8.2,14.2s-3.07,11.24-8.2,14.21l-61.34,35.41c-2.57,1.48-5.38,2.22-8.2,2.22ZM205.46,209.39c-1.02,0-1.82.37-2.22.61-.66.38-2.2,1.52-2.2,3.81v70.83c0,2.29,1.54,3.43,2.2,3.81.66.38,2.42,1.15,4.4,0l61.34-35.41c1.99-1.15,2.2-3.05,2.2-3.81s-.21-2.67-2.2-3.81h0l-61.34-35.41c-.78-.45-1.52-.61-2.18-.61Z"/>
</svg>
