<?xml version='1.0' encoding='UTF-8'?>
<svg xmlns="http://www.w3.org/2000/svg" id="j" data-name="Ecouteur" viewBox="0 0 453.54 453.54">
  <defs>
    <style>
      .bu {
        stroke-miterlimit: 10;
      }

      .bu, .bv {
        fill: none;
        stroke: #144179;
        stroke-width: 12px;
      }

      .bv {
        stroke-linecap: round;
        stroke-linejoin: round;
      }
    </style>
  </defs>
  <g>
    <g>
      <path class="bv" d="M195.17,343.49c4.14,0,7.49-3.35,7.49-7.49v-164.67c0-.27-.01-.54-.04-.81-.09-.85-10.18-82.22-112.39-88.33l-12.34-.4c-34.3,0-34.3,38.93-34.3,73.28v39.32c0,5.96,1.31,11.34,3.89,15.99,4.25,7.65,13.42,16.77,32.96,16.77,21.54,0,39.93-10.71,49.95-20.74,8.61-8.61,17.31-14.11,19.69-13.4.01.01,1.4,1.62,1.4,8.11v134.87c0,4.14,3.35,7.49,7.49,7.49h36.19Z"/>
      <path class="bu" d="M87.66,82.11s-13.47,120.39-6.9,144.04"/>
    </g>
    <line class="bv" x1="176.67" y1="343.49" x2="176.67" y2="409.1"/>
  </g>
  <g>
    <g>
      <path class="bv" d="M273.21,343.49h17.68c4.14,0,7.49-3.35,7.49-7.49v-134.87c0-6.49,1.39-8.09,1.4-8.11,2.38-.71,11.08,4.8,19.69,13.4,10.02,10.03,28.41,20.74,49.95,20.74,19.54,0,28.71-9.12,32.96-16.77,2.58-4.65,3.89-10.03,3.89-15.99v-39.32c0-34.35,0-73.28-34.3-73.28l-12.34.4c-102.21,6.11-112.3,87.48-112.39,88.33-.03.27-.04.54-.04.81v164.67c0,4.14,3.35,7.49,7.49,7.49h18.5Z"/>
      <path class="bu" d="M362.22,82.11s13.47,120.39,6.9,144.04"/>
    </g>
    <line class="bv" x1="273.21" y1="343.49" x2="273.21" y2="409.1"/>
  </g>
</svg>
