<?xml version='1.0' encoding='UTF-8'?>
<svg xmlns="http://www.w3.org/2000/svg" id="bo" data-name="Poterie" viewBox="0 0 453.54 453.54">
  <defs>
    <style>
      .bu {
        fill: none;
        fill-rule: evenodd;
        stroke: #144179;
        stroke-miterlimit: 10;
        stroke-width: 12px;
      }
    </style>
  </defs>
  <path class="bu" d="M141.27,45.22s-32.45,14.98-17.47,37.44c17.89,26.82,49.57,32.42,37.44,74.88-9.98,34.94-72.38,29.96-89.85,77.37-25.64,69.62,37.33,123.01,67.71,148.4-17.28,10.23-21.65,26.31-14.04,26.31h202.17c7.62,0,3.24-16.07-14.04-26.31,30.38-25.39,93.35-78.78,67.71-148.4-17.47-47.42-79.87-42.43-89.85-77.37-12.13-42.45,19.55-48.05,37.44-74.88,14.98-22.46-17.47-37.44-17.47-37.44h-169.73Z"/>
  <polygon class="bu" points="360.47 334.92 91.9 334.92 76.42 306.94 375.71 306.94 360.47 334.92"/>
  <polygon class="bu" points="383.71 254.48 68.42 254.48 78.42 226.5 374.71 226.5 383.71 254.48"/>
</svg>
