<?xml version='1.0' encoding='UTF-8'?>
<svg xmlns="http://www.w3.org/2000/svg" id="i" data-name="Dossier informatique valide" viewBox="0 0 453.54 453.54">
  <defs>
    <style>
      .am {
        fill: none;
        stroke: #144179;
        stroke-linecap: round;
        stroke-linejoin: round;
        stroke-width: 12px;
      }
    </style>
  </defs>
  <circle class="am" cx="227.02" cy="290.98" r="63.62"/>
  <polyline class="am" points="184.45 303.16 212.61 325.83 269.59 270.91"/>
  <path class="am" d="M397.48,161.17h-28.8v-28.07c0-10.96-8.92-19.95-19.95-19.95h-143.83c-3.44,0-6.43-2.19-7.53-5.41l-5.63-16.88c-2.7-8.19-10.31-13.59-18.93-13.59h-75.79c-8.62,0-16.15,5.48-18.93,13.59l-5.63,16.88c-1.1,3.22-4.09,5.41-7.53,5.41-10.96,0-19.95,8.92-19.95,19.95v223.94c0,10.96,8.92,19.95,19.95,19.95h286.21c9.36,0,17.98-6.65,20.46-15.93l44.07-175.85c1.53-5.99,1.53-24.05-18.2-24.05Z"/>
  <path class="am" d="M384.07,212.8l-39.67,158.27c-.99,3.55-4.34,6.25-7.96,6.25H70.36c-6.45,0-6.45-5.99-5.92-8.16l39.67-158.27c.92-3.55,4.34-6.25,7.96-6.25h266.09c6.05,0,6.51,5.92,5.92,8.16Z"/>
</svg>
