<?xml version='1.0' encoding='UTF-8'?>
<svg xmlns="http://www.w3.org/2000/svg" id="y" data-name="Cible_2" viewBox="0 0 453.54 453.54">
  <defs>
    <style>
      .am {
        fill: #144179;
        stroke-width: 0px;
      }
    </style>
  </defs>
  <path class="am" d="M303.81,87.76c-26.77-15.15-57.96-23.35-91.11-22.17-91.64,3.28-165.2,78.54-166.49,170.23-1.36,97.17,77.93,176.51,175.08,175.25,91.99-1.2,167.45-75.15,170.42-167.1,1.09-33.72-7.55-65.41-23.3-92.44-1.87-3.21.09-7.29,3.77-7.85h0c1.61-.24,4.65-1.07,7.31,3.04,17.21,26.59,24.32,57.66,24.32,91.56,0,102.07-83.17,185.07-185.31,184.8-101.32-.27-184.07-83.04-184.3-184.37-.24-102.11,82.77-185.24,184.81-185.24,32.94,0,63.89,8.67,90.7,23.84,2.18,1.23,3.38,3.68,3,6.15h0c-.64,4.16-5.24,6.36-8.9,4.29Z"/>
  <path class="am" d="M260.43,238.29c0,23.83-20.23,43.03-44.42,41.31-20.4-1.44-36.92-17.98-38.33-38.39-1.67-24.17,17.52-44.35,41.33-44.35.2,0,.41,0,.61,0,5.29.08,7.86,6.51,4.12,10.25h0c-1.15,1.15-2.72,1.77-4.34,1.75-.13,0-.26,0-.39,0-16.23,0-29.43,13.2-29.43,29.43,0,17.84,15.97,32.03,34.37,29.01,14.19-2.32,24.62-14.93,24.48-29.31,0-.56-.03-1.12-.07-1.67-.12-1.76.47-3.5,1.72-4.75l.1-.1c3.62-3.62,9.78-1.27,10.14,3.84.07.98.11,1.98.11,2.98Z"/>
  <path class="am" d="M330.46,240.48c-1.15,59.93-50.25,108.61-110.19,109.27-63.21.7-114.63-51.49-112.68-114.96,1.8-58.64,49.48-106.22,108.12-107.93,22.55-.65,43.69,5.43,61.51,16.39,3.28,2.02,3.77,6.6,1.04,9.32h0c-1.98,1.98-5.04,2.3-7.43.84-15.42-9.45-33.58-14.82-53-14.6-54.52.63-98.74,45.77-98.29,100.29.45,54.46,44.89,98.64,99.47,98.64s99.47-44.63,99.47-99.47c0-19.49-5.63-37.68-15.36-53.04-1.52-2.39-1.22-5.51.79-7.51h0c2.7-2.7,7.23-2.25,9.28.98,11.31,17.81,17.71,39.04,17.27,61.76Z"/>
  <path class="am" d="M423.68,73.16c-1.04-2.28-3.39-3.68-5.87-3.5l-32.19,2.2,2.21-33.01c.17-2.49-1.23-4.83-3.51-5.86-2.28-1.04-4.95-.55-6.72,1.22l-50.91,50.91c-.6.6-1.06,1.31-1.36,2.09-.15.38-.25.78-.32,1.19l-1.95,12-.85,5.25-3.36,21.95c-.09.57-.25,1.11-.47,1.62l-.1.62-.7.7c-.32.42-.7.8-1.12,1.12l-73.12,73.12-8.63,8.64-19.94,19.94c-2.35,2.34-2.35,6.14,0,8.48,1.17,1.17,2.7,1.76,4.24,1.76.93,0,1.87-.22,2.73-.66l102.5-102.5s.04-.04.06-.05c.94-1.61,2.58-2.8,4.57-3.1l27.24-4.08,13.43-2.02,1.79-.27c.22-.16.43-.34.63-.54l50.5-50.49c1.77-1.77,2.25-4.45,1.22-6.73ZM364.87,120.5l-3.17.48-14.01,2.1-13.63,2.04c-1.45.22-2.69-1.04-2.45-2.48l2.18-13.42,2.25-13.86.51-3.13,38.24-38.24-1.6,23.92c-.12,1.73.52,3.42,1.75,4.65s2.91,1.86,4.64,1.74l23.07-1.58-37.78,37.78Z"/>
</svg>
