<?xml version='1.0' encoding='UTF-8'?>
<svg xmlns="http://www.w3.org/2000/svg" viewBox="0 0 453.54 453.54">
  <defs>
    <style>
      .am {
        fill: #144179;
        stroke-width: 0px;
      }

      .an {
        fill: none;
        stroke: #144179;
        stroke-linecap: round;
        stroke-linejoin: round;
        stroke-width: 12px;
      }
    </style>
  </defs>
  <g id="j" data-name="Mail">
    <path class="am" d="M220.17,248.19c9.84,0,19.13-2.11,27.52-6.34,4.28-2.17,2.41-6.7,1.21-7.72-2.17-1.75-2.66-1.75-8.45.42-2.47.91-8.63,3.92-20.28,3.92-9.96,0-18.1-3.38-24.26-10.14-2.78-2.96-8.39-10.26-8.39-23.11,0-4.71,2.11-17.62,12.13-27.64,3.74-3.74,14.48-12.25,28.91-12.25,9.53,0,24.2,2.84,32.83,18.16,2.17,3.86,6.09,18.35-.48,29.57-2.17,3.68-5.31,5.43-9.47,5.43-1.81,0-3.92-1.09-3.92-5.49,0-1.81.24-4.28.78-7.36,0,0,3.44-18.16,3.98-24.32.12-1.21-.6-2.41-1.75-3.56-2.23-2.23-5.91-2.23-8.27-.36-.84.72-1.51,1.57-1.81,2.59-3.98-2.9-8.51-4.35-13.58-4.35-7.84,0-14.6,2.6-20.1,7.78-2.72,2.53-4.95,5.73-6.58,9.41-1.69,3.74-2.53,8.39-2.53,13.88s1.81,10.62,5.49,14.66c3.98,4.22,9.35,6.34,15.99,6.34,7.36,0,13.46-2.35,18.35-7,.06.18,2.53,6.88,13.64,6.88,7.78,0,14.18-3.2,18.22-10.02,8.87-15.03,3.98-32.35,1.39-37.42-7.48-14.66-18.95-19.73-24.56-21.6-30.11-9.96-48.7,7.6-53.35,12.19-12.67,12.67-15.03,28.54-15.03,34.7,0,16.96,7.78,26.25,11.47,30.11,3.68,3.8,13.82,12.61,30.9,12.61ZM234.41,208.9c-1.27,1.63-3.74,7.24-12.67,7.24-3.44,0-6.16-.91-8.09-2.66-2.23-2.05-3.32-5.01-3.32-8.99,0-5.19,1.69-9.29,5.19-12.49,3.2-2.96,7.12-4.34,11.89-4.34s8.21,1.33,11.04,4.1c-.06,0-1.99,14.42-4.04,17.14Z"/>
  </g>
  <g id="k" data-name="Courrier">
    <rect class="an" x="46.27" y="134.63" width="360.44" height="224.25" rx="12.1" ry="12.1"/>
    <line class="an" x1="51.86" y1="353.19" x2="159.61" y2="244.3"/>
    <line class="an" x1="402.08" y1="351.71" x2="295.61" y2="245.3"/>
    <polyline class="an" points="48.8 139.3 226.13 298.37 404.19 139.3"/>
  </g>
</svg>
