<?xml version='1.0' encoding='UTF-8'?>
<svg xmlns="http://www.w3.org/2000/svg" id="p" data-name="Internet" viewBox="0 0 453.54 453.54">
  <defs>
    <style>
      .am {
        fill: #144179;
        stroke-width: 0px;
      }
    </style>
  </defs>
  <path class="am" d="M391.39,359.14l7.82-2.11c4.55-1.29,7.82-5.02,8.53-9.77.61-4.7-1.65-9.22-5.74-11.51l-14.22-8.28c19.24-30.43,29.41-65.49,29.41-101.49,0-105.24-85.62-190.86-190.86-190.86S35.47,120.74,35.47,225.98s85.61,190.86,190.86,190.86c38.23,0,75.11-11.34,106.85-32.86l.41,1.75c.99,4.58,4.66,8.13,9.34,9.05,4.65.89,9.45-1.22,11.93-5.24l4.24-6.7,20.17,27.56c3.84,5.03,9.89,8.03,16.17,8.03,4.06,0,8.13-1.3,11.77-3.76l.1-.07c8.91-6.65,10.77-18.96,4.24-28.03l-20.16-27.43ZM377.54,321.49l-43.39-25.09c-4.07-2.45-9.1-2.16-12.75.68-3.84,2.83-5.6,7.39-4.61,11.89l5.13,23.59h-19.09c6.08-19.12,10.41-40.29,12.89-63.05h84.05c-4.55,18.27-12.02,35.74-22.23,51.98ZM226.33,47.17c22.61,0,44.24,21.93,59.51,60.27h-119.03c15.28-38.34,36.9-60.27,59.52-60.27ZM298.64,107.44c-9.08-24.47-21.02-43.76-34.79-56.25,37.03,7.94,70.88,27.71,96.19,56.25h-61.4ZM162.46,119.49h127.73c6.24,18.62,10.74,39.79,13.38,62.96h-154.49c2.64-23.17,7.14-44.33,13.38-62.96ZM304.68,194.58c.85,9.5,1.29,20.06,1.29,31.4s-.43,21.78-1.3,31.56h-156.69c-.87-9.76-1.29-20.1-1.29-31.56s.43-21.89,1.28-31.4h156.71ZM303.58,269.51c-2.65,23.17-7.15,44.36-13.39,63.05h-127.73c-6.23-18.66-10.73-39.83-13.39-63.05h154.51ZM405.14,225.98c0,10.52-.96,21.12-2.84,31.56h-85.51c.77-9.47,1.15-19.82,1.15-31.56s-.39-22.1-1.14-31.4h85.52c1.87,10.41,2.82,20.97,2.82,31.4ZM315.72,182.45c-2.48-22.71-6.82-43.9-12.89-62.96h67.1c14.13,19.1,24.16,40.25,29.82,62.96h-84.03ZM188.8,51.2c-13.77,12.48-25.72,31.77-34.79,56.24h-61.4c25.28-28.52,59.14-48.3,96.19-56.24ZM82.76,119.49h67.06c-6.07,19.1-10.4,40.25-12.88,62.96H52.9c5.67-22.7,15.97-44.44,29.86-62.96ZM47.52,225.98c0-10.44.94-21.01,2.81-31.4h85.52c-.75,9.3-1.13,19.86-1.13,31.4s.37,22.08,1.14,31.56H50.35c-1.88-10.43-2.83-21.04-2.83-31.56ZM82.76,332.56c-14.08-18.87-24.13-40.06-29.88-63.05h84.05c2.48,22.75,6.82,43.96,12.89,63.05h-67.06ZM92.55,344.53h61.43c9.06,24.53,21.01,43.82,34.8,56.25-36.98-7.89-70.86-27.67-96.23-56.25ZM226.33,404.79c-22.65,0-44.27-21.92-59.52-60.26h119.03c-15.24,38.34-36.87,60.26-59.51,60.26ZM263.85,400.8c13.79-12.42,25.74-31.71,34.82-56.27h25.84l5.88,26.77c-20.11,14.54-42.46,24.45-66.54,29.5ZM403.34,399.57c-.3,2.13-1.45,4.02-3.14,5.19l-.17.12c-1.23,1.01-2.68,1.5-4.43,1.5-.44,0-.88,0-1.22-.09l-.24-.04c-2.03-.3-3.87-1.43-5.09-3.13l-20.51-27.8c-2.21-3.02-5.72-4.82-9.38-4.82h-.46c-3.73.1-7.3,2.19-9.3,5.39l-4.23,6.34-1.47-6.94-2.22-9.71-12.64-58.32,66.53,38.44-7.68,2c-3.8,1.11-6.74,3.9-7.85,7.48-1.27,3.57-.69,7.45,1.62,10.66l20.4,27.94c1.24,1.59,1.78,3.7,1.48,5.79Z"/>
</svg>
