<?xml version='1.0' encoding='UTF-8'?>
<svg xmlns="http://www.w3.org/2000/svg" id="ab" data-name="Calendrier_1" viewBox="0 0 453.54 453.54">
  <defs>
    <style>
      .am {
        fill: #144179;
        stroke-width: 0px;
      }
    </style>
  </defs>
  <path class="am" d="M208.83,238.65h-38.17c-3.31,0-6-2.69-6-6v-38.17c0-3.31,2.69-6,6-6h38.17c3.31,0,6,2.69,6,6v38.17c0,3.31-2.69,6-6,6ZM176.66,226.65h26.17v-26.17h-26.17v26.17Z"/>
  <path class="am" d="M285.4,238.65h-38.17c-3.31,0-6-2.69-6-6v-38.17c0-3.31,2.69-6,6-6h38.17c3.31,0,6,2.69,6,6v38.17c0,3.31-2.69,6-6,6ZM253.23,226.65h26.17v-26.17h-26.17v26.17Z"/>
  <path class="am" d="M360.19,237.77h-38.17c-3.31,0-6-2.69-6-6v-38.17c0-3.31,2.69-6,6-6h38.17c3.31,0,6,2.69,6,6v38.17c0,3.31-2.69,6-6,6ZM328.02,225.77h26.17v-26.17h-26.17v26.17Z"/>
  <path class="am" d="M132.95,238.65h-38.17c-3.31,0-6-2.69-6-6v-38.17c0-3.31,2.69-6,6-6h38.17c3.31,0,6,2.69,6,6v38.17c0,3.31-2.69,6-6,6ZM100.78,226.65h26.17v-26.17h-26.17v26.17Z"/>
  <path class="am" d="M208.83,315.11h-38.17c-3.31,0-6-2.69-6-6v-38.17c0-3.31,2.69-6,6-6h38.17c3.31,0,6,2.69,6,6v38.17c0,3.31-2.69,6-6,6ZM176.66,303.11h26.17v-26.17h-26.17v26.17Z"/>
  <path class="am" d="M360.19,314.22h-38.17c-3.31,0-6-2.69-6-6v-38.17c0-3.31,2.69-6,6-6h38.17c3.31,0,6,2.69,6,6v38.17c0,3.31-2.69,6-6,6ZM328.02,302.22h26.17v-26.17h-26.17v26.17Z"/>
  <path class="am" d="M132.95,315.11h-38.17c-3.31,0-6-2.69-6-6v-38.17c0-3.31,2.69-6,6-6h38.17c3.31,0,6,2.69,6,6v38.17c0,3.31-2.69,6-6,6ZM100.78,303.11h26.17v-26.17h-26.17v26.17Z"/>
  <path class="am" d="M208.83,389.41h-38.17c-3.31,0-6-2.69-6-6v-38.17c0-3.31,2.69-6,6-6h38.17c3.31,0,6,2.69,6,6v38.17c0,3.31-2.69,6-6,6ZM176.66,377.41h26.17v-26.17h-26.17v26.17Z"/>
  <path class="am" d="M285.4,389.41h-38.17c-3.31,0-6-2.69-6-6v-38.17c0-3.31,2.69-6,6-6h38.17c3.31,0,6,2.69,6,6v38.17c0,3.31-2.69,6-6,6ZM253.23,377.41h26.17v-26.17h-26.17v26.17Z"/>
  <path class="am" d="M360.19,388.53h-38.17c-3.31,0-6-2.69-6-6v-38.17c0-3.31,2.69-6,6-6h38.17c3.31,0,6,2.69,6,6v38.17c0,3.31-2.69,6-6,6ZM328.02,376.53h26.17v-26.17h-26.17v26.17Z"/>
  <path class="am" d="M132.95,389.41h-38.17c-3.31,0-6-2.69-6-6v-38.17c0-3.31,2.69-6,6-6h38.17c3.31,0,6,2.69,6,6v38.17c0,3.31-2.69,6-6,6ZM100.78,377.41h26.17v-26.17h-26.17v26.17Z"/>
  <path class="am" d="M201.77,118.91c0,6.3-5.13,11.43-11.43,11.43s-11.43-5.13-11.43-11.43,5.13-11.43,11.43-11.43,11.43,5.13,11.43,11.43Z"/>
  <path class="am" d="M239.34,118.91c0,6.3-5.13,11.43-11.43,11.43s-11.43-5.13-11.43-11.43,5.13-11.43,11.43-11.43,11.43,5.13,11.43,11.43Z"/>
  <path class="am" d="M277.34,118.91c0,6.3-5.13,11.43-11.43,11.43s-11.43-5.13-11.43-11.43,5.13-11.43,11.43-11.43,11.43,5.13,11.43,11.43Z"/>
  <path class="am" d="M417.81,75.13h-32.61v-24.86c0-7.21-5.87-13.08-13.09-13.08h-23.54c-7.22,0-13.09,5.87-13.09,13.08v23.7H120.77v-23.7c0-7.21-5.87-13.08-13.09-13.08h-23.54c-7.22,0-13.09,5.87-13.09,13.08v24.86h-32.01c-3.31,0-6,2.68-6,6v302.42c0,24.25,19.73,43.98,43.98,43.98h302.25c23.39,0,42.57-18.36,43.9-41.42.41-.82.64-1.74.64-2.7V81.13c0-3.32-2.68-6-6-6ZM347.48,50.27c0-.6.49-1.08,1.09-1.08h23.54c.6,0,1.09.48,1.09,1.08v61.56c0,.6-.49,1.08-1.09,1.08h-23.54c-.6,0-1.09-.48-1.09-1.08v-61.56ZM83.05,50.27c0-.6.49-1.08,1.09-1.08h23.54c.6,0,1.09.48,1.09,1.08v61.56c0,.6-.49,1.08-1.09,1.08h-23.54c-.6,0-1.09-.48-1.09-1.08v-61.56ZM411.81,381.01c-.36.78-.56,1.64-.56,2.54,0,17.64-14.35,31.98-31.98,31.98H77.02c-17.63,0-31.98-14.34-31.98-31.98v-220.85h366.77v218.31ZM411.81,150.7H45.04v-63.57h26.01v24.7c0,7.21,5.87,13.08,13.09,13.08h23.54c7.22,0,13.09-5.87,13.09-13.08v-25.86h214.71v25.86c0,7.21,5.87,13.08,13.09,13.08h23.54c7.22,0,13.09-5.87,13.09-13.08v-24.7h26.61v63.57Z"/>
  <rect class="am" x="241.23" y="264.94" width="50.17" height="50.17" rx="6" ry="6"/>
</svg>
