<?xml version='1.0' encoding='UTF-8'?>
<svg xmlns="http://www.w3.org/2000/svg" id="q" data-name="Réseaux sociaux" viewBox="0 0 453.54 453.54">
  <defs>
    <style>
      .am {
        fill: #144179;
        stroke-width: 0px;
      }

      .an {
        fill: #fff;
        stroke: #144179;
        stroke-linecap: round;
        stroke-linejoin: round;
        stroke-width: 12px;
      }
    </style>
  </defs>
  <path class="am" d="M275.89,262.33c0-4.6-1.79-8.93-5.04-12.18-.56-.56-1.17-1.08-1.86-1.58l1.86-1.87c3.25-3.25,5.04-7.57,5.04-12.18s-1.79-8.93-5.04-12.18c-2.99-2.99-6.88-4.73-11.08-4.99v-95.42c0-11.14-9.06-20.21-20.21-20.21h-104.26c-11.14,0-20.21,9.06-20.21,20.21v92.33c-3.24-.51-6.19-.13-8.6,1.11-3.51,1.8-5.64,5.25-5.85,9.46-.1,2.05-.18,4.49-.27,7.24v.2c-.51,15.33-1.35,40.99-8.18,55.74-10.35,22.36-8.97,47.84,3.76,70.06-5.45,6.25-8.95,8.7-9.61,9.14-1.33.88-2.24,2.23-2.56,3.8s0,3.17.88,4.5c1.11,1.68,2.98,2.68,5,2.68,1.18,0,2.33-.35,3.31-1,1.97-1.31,7.38-5.36,15-14.79,1.62-2.01,1.78-4.83.38-7-12.61-19.63-14.53-42.36-5.27-62.35,7.85-16.94,8.74-44.12,9.27-60.38v-.4c.09-2.33.16-4.43.24-6.24.57.04,1.44.19,2.51.59v113.32c0,11.14,9.06,20.21,20.21,20.21h87.52c-.45.52-.91,1.06-1.39,1.62-15.02,17.66-32.05,37.66-61.3,32.67-1.51-.24-3.03.08-4.27.9-10.29,6.76-15.6,12.61-16.23,17.87-.39,3.32,1.95,6.34,5.23,6.73.25.03.49.04.73.04,2.95,0,5.45-2.15,5.88-5.02.23-.48,1.82-3.3,9.09-8.34,2.94.4,5.77.58,8.52.58,29.44,0,47.78-21.56,61.51-37.7,2.98-3.51,5.68-6.64,8.24-9.35h.74c11.14,0,20.21-9.06,20.21-20.21v-.72c2.2-.88,4.12-2.13,5.71-3.72l5.36-5.36c3.25-3.25,5.04-7.57,5.04-12.18s-1.79-8.93-5.04-12.18c-.55-.55-1.17-1.08-1.86-1.58l1.86-1.86c3.25-3.25,5.04-7.57,5.04-12.18s-1.79-8.93-5.04-12.18c-.56-.56-1.17-1.08-1.86-1.58l1.86-1.87c3.25-3.25,5.04-7.57,5.04-12.18ZM247.79,139.64h-120.71v-17.71c0-4.54,3.69-8.23,8.23-8.23h104.26c4.54,0,8.23,3.69,8.23,8.23v17.71ZM258.8,229.29c1.36.03,2.63.57,3.58,1.53h0c2.04,2.05,2.04,5.37,0,7.42l-5.36,5.36c-1.93,1.93-5.07,2-7.15.17-.12-.11-.24-.18-.34-.24-.94-.98-1.46-2.27-1.46-3.64s.54-2.72,1.53-3.71l5.36-5.36c.93-.94,2.21-1.47,3.58-1.5.1,0,.18-.01.25-.03ZM236.09,239.89c0,4.6,1.79,8.93,5.04,12.18.55.55,1.17,1.08,1.87,1.58l-1.86,1.86c-3.25,3.25-5.04,7.57-5.04,12.18s1.79,8.93,5.04,12.18c.56.56,1.17,1.08,1.86,1.58l-1.86,1.87c-6.71,6.71-6.71,17.64,0,24.36.56.56,1.17,1.08,1.86,1.58l-.98.99h-114.93v-158.63h120.71v69.63c-.43.33-.88.67-1.3,1.1l-5.36,5.36c-3.25,3.25-5.04,7.57-5.04,12.18ZM248.43,321.42c.27-.71.67-1.33,1.17-1.83l5.36-5.36c.37-.37.86-.69,1.53-1,.69-.32,1.38-.49,2.06-.5.1,0,.18-.01.25-.03,1.36.03,2.63.57,3.58,1.53,2.04,2.05,2.04,5.37,0,7.42l-5.36,5.37c-1.93,1.93-5.07,2-7.15.16-.12-.11-.24-.18-.34-.24-1.39-1.45-1.82-3.61-1.09-5.52ZM262.38,293.85l-5.36,5.36c-1.93,1.93-5.07,2-7.15.17-.12-.11-.24-.18-.34-.24-.94-.98-1.46-2.27-1.46-3.64s.54-2.72,1.53-3.71l5.36-5.36c.93-.94,2.21-1.47,3.61-1.5.09,0,.16-.01.23-.03,1.36.03,2.63.57,3.58,1.53,2.04,2.04,2.04,5.37,0,7.42ZM262.38,266.04l-5.36,5.36c-1.93,1.93-5.07,2-7.15.17-.12-.11-.24-.18-.34-.24-.94-.98-1.46-2.27-1.46-3.64s.54-2.72,1.53-3.71l5.36-5.36c.93-.94,2.21-1.47,3.58-1.5.1,0,.18-.01.25-.03,1.36.03,2.63.57,3.58,1.53,2.04,2.05,2.04,5.37,0,7.42ZM127.08,322.23h109.1c-.33,4.97,1.43,9.74,4.95,13.26,1.84,1.84,4.08,3.21,6.66,4.06v.38c0,4.54-3.69,8.23-8.23,8.23h-104.26c-4.54,0-8.23-3.69-8.23-8.23v-17.71Z"/>
  <path class="an" d="M344.76,39.57h-145.78c-14.87,0-26.92,12.05-26.92,26.92v91.34c0,14.87,12.05,26.92,26.92,26.92h2.11v12.62c0,6.51,7.87,9.76,12.47,5.16l17.78-17.78h113.42c14.87,0,26.92-12.05,26.92-26.92v-91.34c0-14.87-12.05-26.92-26.92-26.92Z"/>
</svg>
