<?xml version='1.0' encoding='UTF-8'?>
<svg xmlns="http://www.w3.org/2000/svg" id="b" data-name="Sablier" viewBox="0 0 453.54 453.54">
  <defs>
    <style>
      .am {
        fill: #144179;
        stroke-width: 0px;
      }
    </style>
  </defs>
  <path class="am" d="M348.49,73.43v-32c0-3.31-2.69-6-6-6H115.78c-3.32,0-6,2.69-6,6v32c0,3.32,2.68,6,6,6h20.06c-1.2,5.61-4.05,22.88-.06,46.93,4.26,25.61,17.41,64.1,55.71,103.89-38.31,40.99-51.47,80.62-55.71,106.97-1.25,7.81-1.83,14.92-2,21.18-.01.38-.02.76-.02,1.13-.01.47-.02.93-.02,1.39-.01.95-.01,1.87,0,2.77,0,.35.01.69.02,1.04,0,.38,0,.75.02,1.11.01.59.03,1.16.05,1.72.02.49.04.96.06,1.43.01.13.01.26.02.39.03.49.05.96.08,1.43.09,1.55.21,3.01.34,4.37.17,1.74.36,3.31.56,4.7h-19.11c-3.32,0-6,2.68-6,6v27.95c0,3.32,2.68,6,6,6h226.71c3.31,0,6-2.68,6-6v-27.95c0-3.32-2.69-6-6-6h-16.11c.04-.29.08-.58.12-.88.04-.3.08-.61.12-.92.06-.51.12-1.05.18-1.6.09-.83.18-1.7.25-2.61.3-3.46.5-7.53.49-12.12-.03-7.03-.57-15.29-2.05-24.53-4.25-26.35-17.4-65.98-55.71-106.96,38.3-39.79,51.45-78.29,55.7-103.9,3.99-24.04,1.16-41.3-.05-46.93h17.06c3.31,0,6-2.68,6-6ZM336.49,391.88v15.95H121.78v-15.95h214.71ZM315.26,370.36c-.02.35-.04.69-.07,1.03-.07.99-.15,1.93-.24,2.82-.02.28-.05.55-.08.82-.2,1.89-.42,3.51-.63,4.85h-167.21c-.05-.31-.1-.64-.15-.99-.08-.54-.16-1.12-.24-1.74-.04-.33-.08-.68-.12-1.05-.07-.54-.13-1.11-.18-1.71-.02-.14-.03-.27-.04-.41-.03-.33-.06-.67-.09-1.02-.04-.46-.08-.92-.11-1.4-.03-.33-.05-.67-.07-1.02-.04-.68-.08-1.39-.12-2.12h0c-.02-.59-.05-1.18-.06-1.78-.02-.67-.04-1.36-.05-2.06,0-.45-.01-.9-.01-1.36l82.9-86.57,86.76,89.86c-.04,1.35-.11,2.64-.19,3.85ZM313.4,80.66c.19.69,18.33,70.76-55.72,144.81-1.3,1.3-1.88,3.04-1.73,4.74-.15,1.66.41,3.38,1.67,4.67,38.63,39.8,51.73,78.3,55.91,103.59.59,3.54,1.02,6.93,1.33,10.15l-81.87-84.79c-1.13-1.17-2.69-1.83-4.32-1.83h-.01c-1.63,0-3.19.67-4.32,1.85l-77.44,80.85c3.52-28.26,16.6-68.45,56.75-109.82,1.24-1.27,1.8-2.95,1.67-4.59v-.08c.15-1.7-.43-3.44-1.73-4.74-38.58-38.59-51.67-75.9-55.85-100.4-1.49-8.72-1.99-16.48-1.99-22.98,0-13.3,2.1-21.33,2.13-21.45.11-.4.17-.81.2-1.21h165.11c.03.41.09.82.21,1.23ZM336.49,67.43H121.78v-20h214.71v20Z"/>
  <path class="am" d="M228.52,230.7h-.05c-1.6-.01-3.12-.66-4.24-1.8l-37.21-38.02c-1.69-1.73-2.18-4.3-1.24-6.52.94-2.23,3.12-3.67,5.53-3.67h75.57c2.43.01,4.62,1.48,5.55,3.73.92,2.25.4,4.83-1.33,6.54l-38.36,38.01c-1.12,1.11-2.64,1.74-4.22,1.74ZM205.58,192.68l23.01,23.51,23.72-23.5h-46.73Z"/>
</svg>
