<?xml version='1.0' encoding='UTF-8'?>
<svg xmlns="http://www.w3.org/2000/svg" id="x" data-name="Horloge" viewBox="0 0 453.54 453.54">
  <defs>
    <style>
      .am {
        fill: #144179;
        stroke-width: 0px;
      }
    </style>
  </defs>
  <path class="am" d="M355.63,372.87c-1.51,0-3.03-.57-4.19-1.71-2.37-2.32-2.41-6.12-.1-8.49,33.49-34.26,51.93-79.52,51.93-127.44,0-100.54-81.79-182.33-182.33-182.33-3.31,0-6-2.69-6-6s2.69-6,6-6c107.16,0,194.33,87.18,194.33,194.33,0,51.07-19.66,99.31-55.35,135.83-1.18,1.2-2.73,1.81-4.29,1.81Z"/>
  <path class="am" d="M327.38,339.5c-1.46,0-2.91-.53-4.07-1.59l-106.45-98.26c-1.23-1.14-1.93-2.73-1.93-4.41V104.22c0-3.31,2.69-6,6-6s6,2.69,6,6v128.39l104.52,96.48c2.44,2.25,2.59,6.04.34,8.48-1.18,1.28-2.79,1.93-4.41,1.93Z"/>
  <path class="am" d="M150.3,60.34c-.54,0-1.1.06-1.65.18-4.25.91-6.96,5.1-6.05,9.35.44,2.06,1.66,3.82,3.42,4.96s3.87,1.53,5.93,1.09c2.06-.44,3.82-1.66,4.96-3.42,1.14-1.77,1.53-3.87,1.09-5.93-.79-3.69-4.07-6.23-7.7-6.23Z"/>
  <path class="am" d="M87.82,105.82c-.54,0-1.1.06-1.65.18-2.06.44-3.82,1.66-4.96,3.42-1.14,1.77-1.53,3.87-1.09,5.93.44,2.06,1.66,3.82,3.42,4.96,1.77,1.14,3.87,1.53,5.93,1.09,4.25-.91,6.96-5.11,6.05-9.35-.79-3.69-4.07-6.23-7.7-6.23Z"/>
  <path class="am" d="M39.56,188.23c.91,4.25,5.1,6.96,9.35,6.05,2.06-.44,3.82-1.66,4.96-3.42,1.14-1.77,1.53-3.87,1.09-5.93-.44-2.06-1.66-3.82-3.42-4.96-1.77-1.14-3.87-1.53-5.93-1.09-2.06.44-3.82,1.66-4.96,3.42-1.14,1.77-1.53,3.87-1.09,5.93h0Z"/>
  <path class="am" d="M48.35,258.71c-.54,0-1.1.06-1.65.18-4.25.91-6.96,5.1-6.05,9.35h0c.91,4.25,5.11,6.97,9.35,6.05,4.25-.91,6.96-5.1,6.05-9.35-.79-3.69-4.07-6.23-7.7-6.23Z"/>
  <path class="am" d="M80.14,332.15c-.55,0-1.11.06-1.67.18-2.06.44-3.82,1.66-4.96,3.42-1.14,1.77-1.53,3.87-1.09,5.93s1.66,3.82,3.42,4.96c1.77,1.14,3.87,1.53,5.93,1.09,4.25-.91,6.96-5.11,6.05-9.35-.44-2.06-1.66-3.82-3.42-4.96-1.29-.83-2.76-1.27-4.26-1.27Z"/>
  <path class="am" d="M139.33,383.67c-.55,0-1.11.06-1.67.18-4.25.91-6.96,5.11-6.05,9.35.44,2.06,1.66,3.82,3.42,4.96,1.77,1.14,3.87,1.53,5.93,1.09,2.06-.44,3.82-1.66,4.96-3.42,1.14-1.77,1.53-3.87,1.09-5.93-.44-2.06-1.66-3.82-3.42-4.96-1.29-.83-2.76-1.27-4.26-1.27Z"/>
  <path class="am" d="M222.62,397.92c-.55,0-1.11.06-1.67.18-4.25.91-6.96,5.11-6.05,9.35s5.11,6.96,9.35,6.05c2.06-.44,3.82-1.66,4.96-3.42,1.14-1.77,1.53-3.87,1.09-5.93-.44-2.06-1.66-3.82-3.42-4.96-1.29-.83-2.76-1.27-4.26-1.27Z"/>
  <path class="am" d="M292.41,398.87c.49,2.29,1.84,4.24,3.8,5.51,1.96,1.27,4.3,1.7,6.59,1.21,2.29-.49,4.24-1.84,5.51-3.8,1.27-1.96,1.7-4.3,1.21-6.59-1.01-4.72-5.67-7.74-10.39-6.73-4.72,1.01-7.73,5.67-6.72,10.39h0Z"/>
</svg>
