<?xml version='1.0' encoding='UTF-8'?>
<svg xmlns="http://www.w3.org/2000/svg" id="ak" data-name="Megaphone" viewBox="0 0 453.54 453.54">
  <defs>
    <style>
      .am {
        fill: #144179;
        stroke-width: 0px;
      }
    </style>
  </defs>
  <path class="am" d="M291.11,151.47l-20.85-84.54c-2.21-8.96-11.28-14.45-20.24-12.24-.54.13-1.07.29-1.59.48-2.07.73-3.91,1.83-5.46,3.23l-2.07,2.19-110.46,117.1-66.28,16.34c-3.83.94-6.17,4.82-5.23,8.65l1.84,7.46-27.7,6.83c-3.83.94-6.17,4.82-5.23,8.65l16.9,68.54c.95,3.84,4.82,6.17,8.65,5.23l27.7-6.83,1.65,6.68c.95,3.84,4.82,6.17,8.65,5.23l10.16-2.51,23.56,95.53c3.26,13.24,16.68,21.36,29.92,18.09,13.24-3.26,21.35-16.69,18.09-29.93l-23.56-95.53,8.09-1.99,151.74,52.7,4.22,1.46c1.93.4,3.95.45,5.98.11.44-.07.88-.16,1.32-.26,8.96-2.21,14.44-11.29,12.23-20.25l-20.85-84.54c10.3-10.83,14.72-29.22,10.07-48.05-4.64-18.83-17.1-33.07-31.26-37.85ZM77.61,278.71l-20.7,5.1-13.48-54.66,20.7-5.1,13.48,54.66ZM159.23,389.1c1.38,5.58-2.04,11.24-7.63,12.62-5.58,1.38-11.23-2.05-12.61-7.63l-23.56-95.53,20.24-4.99,23.56,95.53ZM149.34,275.47l-54.43,13.42-20.39-82.68,54.43-13.42,20.39,82.68ZM298.7,321.99l-134.7-46.77-21.95-89,97.63-103.52,59.01,239.29ZM319.25,325.33c.32,1.31-.47,2.62-1.77,2.94-.16.04-.33.07-.49.07h-.02c-.61.02-1.18-.19-1.63-.56-.39-.32-.68-.75-.81-1.29l-62.88-254.97c-.16-.64-.04-1.27.26-1.79.19-.34.46-.63.79-.83.21-.14.47-.25.73-.32,1.3-.32,2.61.47,2.93,1.78l62.88,254.97ZM307.57,218.22l-11.74-47.6c5.69,5.14,10.39,12.96,12.65,22.13,2.26,9.16,1.73,18.28-.91,25.47Z"/>
  <path class="am" d="M248.43,55.17c-2.07.73-3.91,1.83-5.46,3.23l.96-1.02c1.24-1.31,2.84-2.05,4.5-2.2Z"/>
  <path class="am" d="M252.71,68.89l-.79.83c.19-.34.46-.63.79-.83Z"/>
  <path class="am" d="M319.59,342.42c-.34.15-.72.28-1.09.37-1.3.32-2.7.29-4.06-.19l-.83-.29c1.93.4,3.95.45,5.98.11Z"/>
  <path class="am" d="M316.98,328.35c-.61.02-1.18-.2-1.63-.57l1.63.57Z"/>
  <path class="am" d="M240.89,60.59l2.07-2.19c-.76.67-1.45,1.4-2.07,2.19ZM309.39,340.85c1.33.68,2.74,1.16,4.22,1.46l-4.22-1.46Z"/>
  <path class="am" d="M381.25,182.48l-21.48,5.3c-3.83.95-7.71-1.4-8.65-5.23s1.4-7.71,5.23-8.65l21.48-5.3c3.83-.95,7.71,1.4,8.65,5.23s-1.4,7.71-5.23,8.65Z"/>
  <path class="am" d="M330.41,130.15c-1.78.44-3.72.2-5.41-.82-3.38-2.04-4.46-6.44-2.42-9.82l11.44-18.93c2.04-3.38,6.44-4.46,9.82-2.42,3.38,2.04,4.46,6.44,2.42,9.82l-11.44,18.93c-1.02,1.69-2.63,2.81-4.41,3.24Z"/>
  <path class="am" d="M378.48,263.62c-1.78.44-3.72.2-5.41-.82l-18.93-11.44c-3.38-2.04-4.46-6.44-2.42-9.82,2.04-3.38,6.44-4.46,9.82-2.42l18.93,11.44c3.38,2.04,4.46,6.44,2.42,9.82-1.02,1.69-2.63,2.81-4.41,3.24Z"/>
</svg>
