<?xml version='1.0' encoding='UTF-8'?>
<svg xmlns="http://www.w3.org/2000/svg" id="aa" data-name="Perso violence" viewBox="0 0 453.54 453.54">
  <defs>
    <style>
      .bu {
        fill: #8A5301;
        stroke-width: 0px;
      }
    </style>
  </defs>
  <g>
    <path class="bu" d="M413.59,239.21c-.02-.3-.1-.59-.14-.88-.02-.16-.04-.31-.07-.46-.25-1.31-.75-2.52-1.45-3.6-.01-.02-.02-.03-.03-.05-.32-.49-.69-.94-1.09-1.37-.11-.12-.22-.25-.34-.37-.26-.25-.54-.47-.82-.69-.23-.19-.43-.4-.69-.58l-37.46-25.53c-.35-.24-.73-.4-1.1-.6-.46-.53-1.01-.95-1.66-1.21l-33.39-13.11c-.4-.16-.82-.23-1.25-.26l-17.34-30.55,15.68-41.15c2.04-5.21-.52-11.08-5.73-13.12l-.9-.35c-5.21-2.04-11.08.52-13.12,5.73l-17.7,46.45c-1.43,3.65-.56,7.61,1.86,10.36l21.45,37.81-73.48,80.07s9.95,5.38,23.88,12.92l-24.14,17.4c-2.77,1.27-5.07,3.39-6.54,6.04-1.91,3.08-2.56,6.79-1.85,10.33l-.97,56.02c-.14,7.87,6.13,14.36,14,14.49,7.87.14,14.36-6.13,14.49-14l.9-52.2,31.95-23.03c1.48.8,2.96,1.6,4.44,2.4l-8.26,30.38c-1.39,3.11-1.65,6.63-.66,9.92.67,2.47,1.99,4.73,3.84,6.51l35.32,45.17c4.85,6.2,13.8,7.29,20,2.45,6.2-4.85,7.29-13.8,2.45-20l-32.2-41.18,5.26-19.34c16.57,8.96,29.04,15.69,29.04,15.67,3.04-40.57,9.55-90.66,13.04-116.15l23.91,16.3,2.86,44.13c.31,5.58,5.08,9.86,10.67,9.55l.97-.05c5.58-.31,9.86-5.08,9.55-10.67l-3.21-49.6Z"/>
    <path class="bu" d="M272.66,186.69l-.38-.89c-2.22-5.13-8.17-7.5-13.31-5.28l-42.86,18.01-29.67-6.55s-.03-.02-.05-.03l-44.87-19.02c-1.99-.84-4.13-.76-5.96.04l-44.09,7.63c-.3.05-.57.16-.86.24-.35.08-.69.17-1.03.29-.16.06-.31.13-.46.19-.54.22-1.06.48-1.55.79-.02.01-.03.02-.05.03-1.08.69-2.03,1.58-2.81,2.67-.09.13-.17.26-.26.39-.16.25-.35.48-.49.75l-23.46,43.82c-2.59,4.96-.68,11.07,4.28,13.66l.86.45c4.96,2.59,11.07.68,13.66-4.28l20.87-38.98,23.07-3.99-29.81,70.32c-1.1,1.76-1.84,3.78-2.08,5.98l-5.53,50.67-41.46,37.76c-5.82,5.3-6.24,14.31-.94,20.13h0c5.3,5.82,14.31,6.24,20.13.94l44.14-40.2c.26-.23.44-.51.68-.76,2.83-2.28,4.79-5.64,5.21-9.54l4.04-37.02c.04.06.06.12.09.18l27.6,42.85-8.44,55.44c-1.18,7.78,4.16,15.05,11.94,16.23,7.78,1.18,15.05-4.16,16.23-11.94l8.98-59.02c.09-.62.13-1.23.15-1.83.51-3.32-.09-6.82-2.05-9.87l-20.95-32.53,34.3-80.93,28.4,6.27c.86.19,1.72.24,2.57.21,1.69.19,3.43,0,5.1-.73l45.83-19.26c5.13-2.22,7.5-8.17,5.28-13.31Z"/>
    <path class="bu" d="M167.42,171.95c13.44,5.7,28.96-.58,34.66-14.02,5.7-13.44-.58-28.96-14.02-34.66-13.44-5.7-28.96.58-34.66,14.02-5.7,13.44.58,28.96,14.02,34.66Z"/>
    <path class="bu" d="M354.32,191.46c13.52,5.31,28.77-1.35,34.08-14.86,5.31-13.52-1.35-28.77-14.86-34.08-13.52-5.31-28.77,1.35-34.08,14.86-5.31,13.52,1.35,28.77,14.86,34.08Z"/>
  </g>
  <path class="bu" d="M263.29,155.47c-.95,0-1.92-.23-2.82-.71l-25.75-13.73c-2.41-1.28-3.64-4.03-3.01-6.68.63-2.65,2.97-4.55,5.7-4.61,11.04-.25,24.16-1.44,29.98-2.98-3.66-8.61-15.04-30.93-25.69-50.86-1.16-2.17-.88-4.82.71-6.7,1.58-1.88,4.15-2.6,6.48-1.82l41.02,13.67-.04-31.68c0-2.39,1.41-4.55,3.6-5.51,2.19-.96,4.74-.52,6.49,1.1l20.86,19.4,29.51-21.56c1.61-1.18,3.69-1.47,5.57-.8,1.87.67,3.29,2.23,3.79,4.16l7.05,27.51,34-9.87c2.22-.65,4.62.05,6.16,1.77s1.95,4.19,1.05,6.32l-15.04,35.66c-1.29,3.05-4.81,4.49-7.86,3.2-3.05-1.29-4.49-4.81-3.2-7.86l10.14-24.05-27.86,8.09c-1.56.45-3.24.25-4.65-.55-1.41-.81-2.43-2.15-2.84-3.72l-6.39-24.93-26.36,19.26c-2.32,1.7-5.52,1.51-7.63-.45l-14.38-13.37.03,26.22c0,1.93-.92,3.74-2.49,4.87-1.57,1.13-3.58,1.43-5.41.83l-34.72-11.57c8.95,17.08,20.4,39.62,21.1,44.52.31,2.14-.33,4.27-1.78,5.98-2.28,2.69-6.64,4.82-19.74,6.31l7.24,3.86c2.92,1.56,4.03,5.19,2.47,8.12-1.08,2.02-3.15,3.18-5.3,3.18Z"/>
</svg>
