<?xml version='1.0' encoding='UTF-8'?>
<svg xmlns="http://www.w3.org/2000/svg" id="bn" data-name="Conflit mondial" viewBox="0 0 453.54 453.54">
  <defs>
    <style>
      .bu {
        stroke: #8A5301;
        stroke-linecap: round;
        stroke-linejoin: round;
      }

      .bu, .bv {
        fill: none;
        stroke-width: 12px;
      }

      .bv {
        stroke: #8A5301;
        stroke-miterlimit: 10;
      }
    </style>
  </defs>
  <g>
    <path class="bu" d="M318.61,246.53c0,29.14-9.5,56.07-25.58,77.84h0c-3.11,2.35-6.61,4.18-10.33,5.37-2.39.76-4.94,1.26-7.41.83-2.47-.43-4.87-1.93-5.83-4.25-.9-2.18-.45-4.64-.15-6.98,1.01-8.1-.2-16.35,1.18-24.42,1.27-7.47,3.9-14.29,3.5-22.05-.16-3.2-.8-6.6-3.05-8.88-6.41-6.49-18.55-2.12-26.45-3-6-.67-12.02-2.74-16.42-6.89-7.6-7.16-6.75-17.02-1.23-25.09,2.71-3.97,5.67-8.18,5.7-12.99.02-2.6-1.2-5.11.02-7.47.94-1.84,3.14-3.14,5.06-3.69,0,0,0,0,0,0,3.37-.96,6.96-.32,10.41.26,9.32,1.58,18.85,2.71,28.22,1.47,3-.4,6.17-1.15,8.23-3.37,2.78-3.01,2.54-8.03.13-11.34-2.41-3.31-6.52-5.06-10.59-5.53-8.17-.94-16.84,1.45-24.92,2.53-1.1.15-2.23.29-3.31.05-2.76-.6-4.4-3.45-5.2-6.15-1.53-5.17-1.14-11.06,1.84-15.56,4.2-6.32,12.74-9.66,19.45-12.54,4.52-1.93,9.13-3.68,13.8-5.21,26.38,23.99,42.93,58.59,42.93,97.06Z"/>
    <path class="bu" d="M293.02,324.37c-23.89,32.35-62.29,53.33-105.59,53.33-72.44,0-131.17-58.73-131.17-131.17,0-18.26,3.73-35.65,10.47-51.44,4.26,13.56,11.69,28.2,23.27,36.66,11.09,8.09,26.24,11.61,30.92,26.15,1.83,5.68,2.25,11.69,3.18,17.58.95,6.01,2.54,12.36,6.5,17.15,4.07,4.93,10.32,7.41,14.55,12.19,2.8,3.16,4.25,7.31,5.11,11.45,1.96,9.42,2.83,19.03,4.43,28.51.77,4.56,2.3,9.2,5.61,12.43,2.39,2.34,5.96,3.81,9.13,2.73,3.22-1.09,5.11-4.4,6.28-7.59,3.77-10.31,3.03-21.86,7.78-31.85,4.74-9.98,15.27-15.21,20.6-24.74,4.44-7.93,5.37-18.31-.44-25.82-2.6-3.36-6.06-5.95-9.66-8.2-8.27-5.16-17.55-8.67-27.15-10.35-4.58-.8-9.37-1.34-14.02-1.06-5.09.3-10.34,1.62-15.24-.48-3.09-1.32-5.47-3.88-7.5-6.55-2.54-3.35-4.67-7.01-6.34-10.88-1.08-2.5-1.98-5.23-1.48-7.9,1.24-6.6,10.4-5.97,15.44-6.39,4.8-.41,9.99-1.43,13.15-5.07,2.03-2.33,2.93-5.41,4.2-8.23,7.57-16.76,23.87-16.46,39.04-21.67,2.08-.71,4.18-1.62,5.62-3.28,1.79-2.05,2.28-4.89,2.71-7.58.61-3.87,1.21-7.87.16-11.64-2.25-8.11-8.95-6.53-15.39-8.19-5.87-1.5-10.01-6.82-15.62-9.11-4.89-2-10.44-1.52-15.61-.43-5.17,1.08-10.27,2.74-15.55,3.01-9.5.48-18.71-3.55-27.34-7.45,21.14-14.58,46.77-23.12,74.39-23.12,33.98,0,64.94,12.92,88.24,34.11-4.67,1.53-9.28,3.28-13.8,5.21-6.72,2.87-15.26,6.22-19.45,12.54-2.98,4.49-3.38,10.39-1.84,15.56.8,2.7,2.45,5.55,5.2,6.15,1.08.24,2.21.09,3.31-.05,8.08-1.07,16.75-3.47,24.92-2.53,4.07.47,8.17,2.22,10.59,5.53,2.41,3.31,2.66,8.33-.13,11.34-2.06,2.22-5.23,2.97-8.23,3.37-9.37,1.25-18.9.11-28.22-1.47-3.45-.58-7.04-1.22-10.41-.26,0,0,0,0,0,0-1.92.55-4.11,1.85-5.06,3.69-1.21,2.36,0,4.87-.02,7.47-.03,4.8-2.99,9.02-5.7,12.99-5.51,8.07-6.36,17.93,1.23,25.09,4.39,4.14,10.41,6.22,16.42,6.89,7.9.87,20.04-3.5,26.45,3,2.25,2.28,2.89,5.68,3.05,8.88.4,7.77-2.23,14.58-3.5,22.05-1.38,8.07-.17,16.32-1.18,24.42-.29,2.34-.75,4.8.15,6.98.96,2.32,3.36,3.82,5.83,4.25,2.47.43,5.02-.07,7.41-.83,3.72-1.18,7.22-3.02,10.33-5.36Z"/>
    <path class="bu" d="M204.08,295.76c-5.33,9.53-15.86,14.76-20.6,24.74-4.75,9.99-4.01,21.55-7.78,31.85-1.17,3.19-3.06,6.5-6.28,7.59-3.17,1.08-6.74-.39-9.13-2.73-3.31-3.23-4.84-7.87-5.61-12.43-1.6-9.48-2.46-19.09-4.43-28.51-.86-4.14-2.31-8.28-5.11-11.45-4.23-4.78-10.49-7.26-14.55-12.19-3.95-4.8-5.55-11.15-6.5-17.15-.93-5.89-1.36-11.9-3.18-17.58-4.68-14.54-19.83-18.06-30.92-26.15-11.58-8.45-19.01-23.1-23.27-36.66h0c9.81-22.98,25.98-42.59,46.31-56.61,8.63,3.9,17.83,7.92,27.34,7.45,5.28-.27,10.37-1.92,15.55-3.01,5.17-1.09,10.72-1.57,15.61.43,5.61,2.29,9.75,7.61,15.62,9.11,6.45,1.65,13.14.07,15.39,8.19,1.05,3.77.45,7.78-.16,11.64-.42,2.69-.92,5.53-2.71,7.58-1.44,1.65-3.55,2.57-5.62,3.28-15.17,5.21-31.47,4.91-39.04,21.67-1.27,2.82-2.17,5.9-4.2,8.23-3.17,3.64-8.35,4.66-13.15,5.07-5.04.43-14.2-.2-15.44,6.39-.5,2.67.4,5.4,1.48,7.9,1.67,3.86,3.8,7.52,6.34,10.88,2.03,2.68,4.41,5.23,7.5,6.55,4.9,2.1,10.16.79,15.24.48,4.65-.28,9.43.26,14.02,1.06,9.6,1.68,18.88,5.2,27.15,10.35,3.6,2.25,7.06,4.84,9.66,8.2,5.81,7.5,4.88,17.88.44,25.82Z"/>
  </g>
  <polyline class="bv" points="240.64 104.42 275.06 76.12 290.16 125.45 322.6 73.41 323.25 131.19 396.42 115.67 332.27 167.99 390.84 182.24 339.76 196.69 366.26 235.02 345.43 234.45"/>
</svg>
