<?xml version='1.0' encoding='UTF-8'?>
<svg xmlns="http://www.w3.org/2000/svg" id="c" data-name="Aire urbaine_3" viewBox="0 0 453.54 453.54">
  <defs>
    <style>
      .am {
        fill: none;
        stroke: #8A5301;
        stroke-linecap: round;
        stroke-linejoin: round;
        stroke-width: 12px;
      }
    </style>
  </defs>
  <polygon class="am" points="145.31 417.34 35.6 417.34 35.6 339.17 91.65 287.06 145.31 339.17 145.31 417.34"/>
  <g>
    <line class="am" x1="329.5" y1="387.18" x2="329.5" y2="414.73"/>
    <path class="am" d="M330.05,383.87c-16.74,0-30.3-25.65-30.3-57.3s30.3-57.3,30.3-57.3c0,0,30.3,25.65,30.3,57.3"/>
    <path class="am" d="M360.35,326.57c0,31.65-13.57,57.3-30.3,57.3"/>
  </g>
  <polyline class="am" points="151.8 350.45 163.86 339.37 163.86 339.43 163.86 307.97 184.84 307.97 184.84 320.11 203.19 303.25 253.49 350.45 253.49 417.34"/>
  <polyline class="am" points="188.82 417.05 188.82 376.14 212.14 376.14 212.14 417.05"/>
  <line class="am" x1="231.5" y1="362.49" x2="231.5" y2="397.22"/>
  <line class="am" x1="253.49" y1="417.34" x2="413.46" y2="417.34"/>
</svg>
