<?xml version='1.0' encoding='UTF-8'?>
<svg xmlns="http://www.w3.org/2000/svg" id="ap" data-name="évolution 3" viewBox="0 0 453.54 453.54">
  <defs>
    <style>
      .aq {
        fill: #5F1972;
        stroke-width: 0px;
      }

      .ar {
        fill: none;
        stroke: #5F1972;
        stroke-linecap: round;
        stroke-linejoin: round;
        stroke-width: 12px;
      }
    </style>
  </defs>
  <path class="aq" d="M175.81,44.63c34.38,0,66.7,13.39,91.01,37.7,24.31,24.31,37.7,56.63,37.7,91.01s-13.39,66.7-37.7,91.01c-24.31,24.31-56.63,37.7-91.01,37.7s-66.7-13.39-91.01-37.7-37.7-56.63-37.7-91.01,13.39-66.7,37.7-91.01c24.31-24.31,56.63-37.7,91.01-37.7M175.81,32.63c-77.71,0-140.71,63-140.71,140.71s63,140.71,140.71,140.71,140.71-63,140.71-140.71S253.52,32.63,175.81,32.63h0Z"/>
  <line class="ar" x1="272.79" y1="268.54" x2="369.38" y2="365.5"/>
  <g>
    <path class="ar" d="M163.34,188.9h67.32c0,37.18-30.14,67.32-67.32,67.32s-67.32-30.14-67.32-67.32,30.14-67.32,67.32-67.32h0v67.32Z"/>
    <path class="ar" d="M191.36,161.36v-67.32c37.18,0,67.32,30.14,67.32,67.32h-67.32Z"/>
  </g>
</svg>
