<?xml version='1.0' encoding='UTF-8'?>
<svg xmlns="http://www.w3.org/2000/svg" id="g" data-name="Village" viewBox="0 0 453.54 453.54">
  <defs>
    <style>
      .am {
        fill: none;
      }

      .am, .an {
        stroke: #008280;
        stroke-linecap: round;
        stroke-linejoin: round;
        stroke-width: 12px;
      }

      .an {
        fill: #fff;
      }
    </style>
  </defs>
  <polyline class="am" points="107.6 358.9 107.6 299.6 143.4 260.45 223.95 260.45 257.51 310.79 287.72 263.81 319.04 263.81 341.42 197.8 363.79 266.04 409.42 266.78 409.42 380.83 253.74 380.83 253.74 364.6 108.94 362.47"/>
  <polygon class="an" points="132.99 391.17 34.06 391.17 34.06 320.68 84.6 273.69 132.99 320.68 132.99 391.17"/>
  <g>
    <line class="an" x1="181.15" y1="394.24" x2="181.15" y2="418.12"/>
    <path class="an" d="M181.62,391.38c-14.51,0-26.27-22.24-26.27-49.67s26.27-49.67,26.27-49.67c0,0,26.27,22.24,26.27,49.67"/>
    <path class="an" d="M207.89,341.71c0,27.43-11.76,49.67-26.27,49.67"/>
  </g>
</svg>
