<?xml version='1.0' encoding='UTF-8'?>
<svg xmlns="http://www.w3.org/2000/svg" id="g" data-name="Village" viewBox="0 0 453.54 453.54">
  <defs>
    <style>
      .am {
        fill: none;
      }

      .am, .an {
        stroke: #008280;
        stroke-linecap: round;
        stroke-linejoin: round;
        stroke-width: 12px;
      }

      .an {
        fill: #fff;
      }
    </style>
  </defs>
  <g>
    <rect class="am" x="174.78" y="97.66" width="129.5" height="125.04"/>
    <line class="am" x1="206.33" y1="119.01" x2="206.33" y2="141.5"/>
    <line class="am" x1="238.84" y1="119.01" x2="238.84" y2="141.5"/>
    <line class="am" x1="271.36" y1="119.01" x2="271.36" y2="141.5"/>
    <line class="am" x1="238.84" y1="166.84" x2="238.84" y2="189.33"/>
    <line class="am" x1="271.36" y1="166.84" x2="271.36" y2="189.33"/>
  </g>
  <g>
    <g>
      <rect class="an" x="27.02" y="254.8" width="95.69" height="156.43"/>
      <line class="an" x1="46.7" y1="282.08" x2="46.7" y2="304.57"/>
      <line class="an" x1="66.86" y1="282.08" x2="66.86" y2="304.57"/>
      <line class="an" x1="87.03" y1="282.08" x2="87.03" y2="304.57"/>
      <line class="an" x1="46.7" y1="329.9" x2="46.7" y2="352.39"/>
      <line class="an" x1="66.86" y1="329.9" x2="66.86" y2="352.39"/>
      <line class="an" x1="87.03" y1="329.9" x2="87.03" y2="352.39"/>
    </g>
    <g>
      <rect class="an" x="106.94" y="171.05" width="110.56" height="240.17"/>
      <line class="an" x1="140.71" y1="192.41" x2="140.71" y2="214.9"/>
      <line class="an" x1="163.77" y1="192.41" x2="163.77" y2="214.9"/>
      <line class="an" x1="186.83" y1="192.41" x2="186.83" y2="214.9"/>
      <line class="an" x1="140.71" y1="240.23" x2="140.71" y2="262.72"/>
      <line class="an" x1="163.77" y1="240.23" x2="163.77" y2="262.72"/>
      <line class="an" x1="186.83" y1="240.23" x2="186.83" y2="262.72"/>
      <line class="an" x1="140.71" y1="286.91" x2="140.71" y2="309.4"/>
      <line class="an" x1="163.77" y1="286.91" x2="163.77" y2="309.4"/>
      <line class="an" x1="186.83" y1="286.91" x2="186.83" y2="309.4"/>
      <line class="an" x1="140.71" y1="334.73" x2="140.71" y2="357.22"/>
      <line class="an" x1="163.77" y1="334.73" x2="163.77" y2="357.22"/>
      <line class="an" x1="186.83" y1="334.73" x2="186.83" y2="357.22"/>
    </g>
  </g>
  <g>
    <g>
      <polyline class="am" points="333.48 411.22 217.73 411.22 217.73 221.84 333.48 221.84 333.48 305.35"/>
      <line class="am" x1="251.21" y1="251.1" x2="251.21" y2="278.33"/>
      <line class="am" x1="275.61" y1="251.1" x2="275.61" y2="278.33"/>
      <line class="am" x1="300" y1="251.1" x2="300" y2="278.33"/>
      <line class="am" x1="251.21" y1="309.01" x2="251.21" y2="336.23"/>
      <line class="am" x1="275.61" y1="309.01" x2="275.61" y2="336.23"/>
      <line class="am" x1="300" y1="309.01" x2="300" y2="336.23"/>
      <line class="am" x1="251.21" y1="363.72" x2="251.21" y2="390.95"/>
      <line class="am" x1="275.61" y1="363.72" x2="275.61" y2="390.95"/>
      <line class="am" x1="300" y1="363.72" x2="300" y2="390.95"/>
    </g>
    <polyline class="am" points="335.39 358.04 344.85 349.35 344.85 349.4 344.85 324.73 361.3 324.73 361.3 334.24 375.69 321.03 415.13 358.04 415.13 410.49"/>
    <polyline class="am" points="364.42 410.26 364.42 378.18 382.71 378.18 382.71 410.26"/>
    <line class="am" x1="397.89" y1="367.48" x2="397.89" y2="394.71"/>
  </g>
</svg>
