<?xml version='1.0' encoding='UTF-8'?>
<svg xmlns="http://www.w3.org/2000/svg" id="h" data-name="AIre urbaine métropole" viewBox="0 0 453.54 453.54">
  <defs>
    <style>
      .am {
        fill: none;
      }

      .am, .an {
        stroke: #008280;
        stroke-linecap: round;
        stroke-linejoin: round;
        stroke-width: 12px;
      }

      .an {
        fill: #fff;
      }
    </style>
  </defs>
  <line class="am" x1="38.59" y1="411.15" x2="417.37" y2="411.15"/>
  <rect class="am" x="78.59" y="146.52" width="112.47" height="264.62"/>
  <rect class="am" x="191.05" y="71.15" width="115.09" height="340"/>
  <line class="an" x1="212.38" y1="108.64" x2="231.05" y2="108.64"/>
  <line class="an" x1="212.38" y1="146.26" x2="231.05" y2="146.26"/>
  <line class="an" x1="212.38" y1="183.88" x2="231.05" y2="183.88"/>
  <line class="an" x1="212.38" y1="221.5" x2="231.05" y2="221.5"/>
  <line class="an" x1="257.75" y1="109.13" x2="276.41" y2="109.13"/>
  <line class="an" x1="257.75" y1="146.75" x2="276.41" y2="146.75"/>
  <line class="an" x1="257.75" y1="184.37" x2="276.41" y2="184.37"/>
  <line class="an" x1="257.75" y1="221.98" x2="276.41" y2="221.98"/>
  <polygon class="an" points="379.92 35.37 379.92 411.15 267.48 411.15 267.48 108.64 379.92 35.37"/>
  <line class="an" x1="324.06" y1="114.64" x2="324.06" y2="140.72"/>
  <line class="an" x1="352.37" y1="114.64" x2="352.37" y2="140.72"/>
  <line class="an" x1="295.76" y1="114.64" x2="295.76" y2="140.72"/>
  <line class="an" x1="323.7" y1="190.55" x2="323.7" y2="216.63"/>
  <line class="an" x1="352" y1="190.55" x2="352" y2="216.63"/>
  <line class="an" x1="295.39" y1="190.55" x2="295.39" y2="216.63"/>
  <line class="an" x1="324.06" y1="265.79" x2="324.06" y2="291.87"/>
  <line class="an" x1="352.37" y1="265.79" x2="352.37" y2="291.87"/>
  <line class="an" x1="295.76" y1="265.79" x2="295.76" y2="291.87"/>
  <line class="an" x1="323.7" y1="341" x2="323.7" y2="367.07"/>
  <line class="an" x1="352" y1="341" x2="352" y2="367.07"/>
  <line class="an" x1="295.39" y1="341" x2="295.39" y2="367.07"/>
  <line class="an" x1="106.1" y1="172.07" x2="106.1" y2="187.99"/>
  <line class="an" x1="134.33" y1="172.07" x2="134.33" y2="187.99"/>
  <line class="an" x1="162.71" y1="172.07" x2="162.71" y2="187.99"/>
  <line class="an" x1="106.03" y1="213.54" x2="106.03" y2="229.46"/>
  <line class="an" x1="134.26" y1="213.54" x2="134.26" y2="229.46"/>
  <line class="an" x1="162.64" y1="213.54" x2="162.64" y2="229.46"/>
  <line class="an" x1="105.96" y1="253.74" x2="105.96" y2="269.66"/>
  <line class="an" x1="134.19" y1="253.74" x2="134.19" y2="269.66"/>
  <line class="an" x1="162.56" y1="253.74" x2="162.56" y2="269.66"/>
  <rect class="an" x="116.36" y="259.67" width="151.11" height="151.47"/>
  <line class="am" x1="117.25" y1="297.63" x2="267.48" y2="297.63"/>
  <line class="am" x1="117.25" y1="335.41" x2="267.48" y2="335.41"/>
  <line class="am" x1="116.86" y1="373.28" x2="267.08" y2="373.28"/>
  <rect class="an" x="167.7" y="323.59" width="47.78" height="87.56"/>
  <rect class="an" x="87.92" y="123.03" width="92.33" height="23.71" rx="11.86" ry="11.86"/>
  <rect class="an" x="115.25" y="89.7" width="38" height="33.33"/>
  <line class="an" x1="134.09" y1="61.03" x2="134.09" y2="85.7"/>
</svg>
