<?xml version='1.0' encoding='UTF-8'?>
<svg xmlns="http://www.w3.org/2000/svg" id="f" data-name="Aire urbaine petite" viewBox="0 0 453.54 453.54">
  <defs>
    <style>
      .am {
        fill: none;
        stroke: #008280;
        stroke-linecap: round;
        stroke-linejoin: round;
        stroke-width: 12px;
      }
    </style>
  </defs>
  <g>
    <polyline class="am" points="247.79 412.66 109.25 412.66 109.25 185.98 247.79 185.98 247.79 285.93"/>
    <line class="am" x1="149.32" y1="221.01" x2="149.32" y2="253.6"/>
    <line class="am" x1="178.52" y1="221.01" x2="178.52" y2="253.6"/>
    <line class="am" x1="207.72" y1="221.01" x2="207.72" y2="253.6"/>
    <line class="am" x1="149.32" y1="290.32" x2="149.32" y2="322.91"/>
    <line class="am" x1="178.52" y1="290.32" x2="178.52" y2="322.91"/>
    <line class="am" x1="207.72" y1="290.32" x2="207.72" y2="322.91"/>
    <line class="am" x1="149.32" y1="355.81" x2="149.32" y2="388.4"/>
    <line class="am" x1="178.52" y1="355.81" x2="178.52" y2="388.4"/>
    <line class="am" x1="207.72" y1="355.81" x2="207.72" y2="388.4"/>
  </g>
  <polyline class="am" points="250.08 349 261.4 338.61 261.4 338.67 261.4 309.13 281.09 309.13 281.09 320.52 298.31 304.7 345.52 349 345.52 411.78"/>
  <polyline class="am" points="284.82 411.51 284.82 373.12 306.71 373.12 306.71 411.51"/>
  <line class="am" x1="324.88" y1="360.31" x2="324.88" y2="392.9"/>
</svg>
