<?xml version='1.0' encoding='UTF-8'?>
<svg xmlns="http://www.w3.org/2000/svg" id="l" data-name="Perso avocat" viewBox="0 0 453.54 453.54">
  <defs>
    <style>
      .ca {
        fill: none;
        stroke: #8A5301;
        stroke-linecap: round;
        stroke-linejoin: round;
        stroke-width: 12px;
      }
    </style>
  </defs>
  <circle class="ca" cx="227.84" cy="155.27" r="90.09"/>
  <path class="ca" d="M248.49,278.48h-41.29c-75.04,0-135.96,60.34-136.97,135.14h315.24c-1.01-74.8-61.93-135.14-136.97-135.14ZM267.63,364.85h-1.03c-4.71,0-8.53,3.26-8.53,7.27v10.63c0,4.01-3.82,7.27-8.53,7.27h-42.85c-4.71,0-8.53-3.25-8.53-7.27v-10c0-4.01-3.82-7.27-8.53-7.27h-2.94c-5.28,0-9.29-4.05-8.41-8.49l15.41-77.23h64.92l17.4,76.44c1.02,4.49-3.01,8.65-8.37,8.65Z"/>
</svg>
