<svg xmlns="http://www.w3.org/2000/svg" xmlns:xlink="http://www.w3.org/1999/xlink" width="1920" zoomAndPan="magnify" viewBox="0 0 1440 809.999993" height="1080" preserveAspectRatio="xMidYMid meet" version="1.0"><defs><clipPath id="6aeef47668"><path d="M 885 160 L 1440 160 L 1440 809.8125 L 885 809.8125 Z M 885 160 " clip-rule="nonzero"/></clipPath></defs><rect x="-144" width="1728" fill="#ffffff" y="-80.999999" height="971.999992" fill-opacity="1"/><rect x="-144" width="1728" fill="#ffffff" y="-80.999999" height="971.999992" fill-opacity="1"/><path fill="#c869ff" d="M 1348.078125 366.753906 L 911.164062 263.578125 C 934.042969 190.222656 972.789062 120.683594 1027.597656 60.050781 C 1051.355469 33.769531 1077.039062 10.3125 1104.3125 -10.222656 Z M 1348.078125 366.753906 " fill-opacity="1" fill-rule="evenodd"/><g clip-path="url(#6aeef47668)"><path fill="#001e63" d="M 1440.238281 465.992188 L 1912.835938 160.402344 C 2021.976562 359.238281 1999.632812 613.660156 1839.0625 791.261719 C 1636.46875 1015.386719 1289.988281 1032.839844 1065.847656 830.226562 C 923.050781 701.148438 864.128906 513.742188 892.515625 336.695312 L 1440.21875 465.992188 Z M 1440.238281 465.992188 " fill-opacity="1" fill-rule="evenodd"/></g><path fill="#248bff" d="M 1870.335938 94.761719 C 1849.777344 67.484375 1826.378906 41.78125 1800.078125 18.003906 C 1622.476562 -142.542969 1368.035156 -164.90625 1169.21875 -55.769531 L 1444.59375 370.074219 L 1870.335938 94.742188 Z M 1870.335938 94.761719 " fill-opacity="1" fill-rule="evenodd"/><path fill="#000000" d="M 364.300781 220.753906 C 366.070312 220.753906 367.203125 222.03125 367.265625 223.589844 L 360.886719 223.589844 C 361.3125 221.734375 362.550781 220.753906 364.300781 220.753906 M 369.339844 228.601562 L 367.996094 227.558594 C 367.289062 228.519531 366.140625 229.160156 364.773438 229.160156 C 362.363281 229.160156 360.742188 227.429688 360.742188 225.058594 L 360.742188 225.015625 L 368.976562 225.015625 C 369.039062 224.71875 369.105469 224.292969 369.105469 223.867188 C 369.105469 221.179688 367.207031 219.195312 364.28125 219.195312 C 360.953125 219.195312 358.863281 221.734375 358.863281 225 C 358.863281 228.265625 361.101562 230.804688 364.726562 230.804688 C 366.734375 230.804688 368.332031 229.949219 369.339844 228.605469 M 351.839844 230.375 L 353.65625 230.375 L 353.65625 223.078125 C 354.320312 221.992188 355.238281 221.265625 356.644531 221.265625 C 357.070312 221.265625 357.394531 221.328125 357.710938 221.414062 L 357.710938 219.535156 C 357.453125 219.449219 357.136719 219.40625 356.792969 219.40625 C 355.429688 219.40625 354.449219 220.023438 353.65625 220.960938 L 353.65625 219.621094 L 351.839844 219.621094 Z M 338.777344 225 C 338.777344 222.71875 340.316406 220.90625 342.597656 220.90625 C 344.070312 220.90625 345.347656 221.609375 346.203125 222.910156 L 346.203125 227.09375 C 345.371094 228.375 344.089844 229.101562 342.597656 229.101562 C 340.316406 229.101562 338.777344 227.289062 338.777344 225.003906 M 336.859375 225 C 336.859375 228.136719 339.015625 230.804688 342.386719 230.804688 C 343.945312 230.804688 345.222656 230.226562 346.207031 229.183594 L 346.207031 230.375 L 348.019531 230.375 L 348.019531 214.378906 L 346.207031 214.378906 L 346.207031 220.820312 C 345.222656 219.773438 343.945312 219.199219 342.386719 219.199219 C 339.015625 219.199219 336.859375 221.867188 336.859375 225.003906 M 324.527344 230.375 L 326.34375 230.375 L 326.34375 222.929688 C 327.027344 221.796875 328.007812 220.902344 329.566406 220.902344 C 331.230469 220.902344 332.296875 222.011719 332.296875 223.929688 L 332.296875 230.375 L 334.132812 230.375 L 334.132812 223.867188 C 334.132812 220.816406 332.339844 219.195312 329.925781 219.195312 C 328.328125 219.195312 327.214844 219.878906 326.34375 220.835938 L 326.34375 219.621094 L 324.527344 219.621094 Z M 316.65625 220.753906 C 318.425781 220.753906 319.554688 222.03125 319.621094 223.589844 L 313.238281 223.589844 C 313.667969 221.734375 314.90625 220.753906 316.65625 220.753906 M 321.6875 228.601562 L 320.34375 227.558594 C 319.640625 228.519531 318.488281 229.160156 317.121094 229.160156 C 314.710938 229.160156 313.089844 227.429688 313.089844 225.058594 L 313.089844 225.015625 L 321.328125 225.015625 C 321.390625 224.71875 321.457031 224.292969 321.457031 223.867188 C 321.457031 221.179688 319.554688 219.195312 316.632812 219.195312 C 313.304688 219.195312 311.210938 221.734375 311.210938 225 C 311.210938 228.265625 313.453125 230.804688 317.082031 230.804688 C 319.085938 230.804688 320.6875 229.949219 321.691406 228.605469 M 304.191406 230.375 L 306.007812 230.375 L 306.007812 223.078125 C 306.667969 221.992188 307.582031 221.265625 308.996094 221.265625 C 309.421875 221.265625 309.742188 221.328125 310.0625 221.414062 L 310.0625 219.535156 C 309.804688 219.449219 309.484375 219.40625 309.144531 219.40625 C 307.777344 219.40625 306.792969 220.023438 306.007812 220.960938 L 306.007812 219.621094 L 304.191406 219.621094 Z M 291.921875 227.046875 L 291.921875 222.953125 C 292.753906 221.628906 294.035156 220.90625 295.527344 220.90625 C 297.8125 220.90625 299.367188 222.71875 299.367188 225 C 299.367188 227.28125 297.8125 229.097656 295.527344 229.097656 C 294.035156 229.097656 292.75 228.371094 291.921875 227.050781 M 290.109375 235.621094 L 291.925781 235.621094 L 291.925781 229.179688 C 292.90625 230.222656 294.1875 230.800781 295.742188 230.800781 C 299.113281 230.800781 301.269531 228.132812 301.269531 224.996094 C 301.269531 221.859375 299.113281 219.191406 295.742188 219.191406 C 294.1875 219.191406 292.90625 219.769531 291.925781 220.8125 L 291.925781 219.621094 L 290.109375 219.621094 Z M 269.941406 230.375 L 271.757812 230.375 L 271.757812 222.929688 C 272.375 221.820312 273.292969 220.902344 274.765625 220.902344 C 276.324219 220.902344 277.285156 221.925781 277.285156 223.71875 L 277.285156 230.375 L 279.121094 230.375 L 279.121094 223.652344 C 279.121094 223.417969 279.097656 223.183594 279.074219 222.949219 C 279.800781 221.691406 280.742188 220.902344 282.105469 220.902344 C 283.640625 220.902344 284.644531 221.925781 284.644531 223.71875 L 284.644531 230.375 L 286.457031 230.375 L 286.457031 223.652344 C 286.457031 220.730469 284.773438 219.195312 282.46875 219.195312 C 280.695312 219.195312 279.523438 220.132812 278.667969 221.351562 C 278.007812 219.921875 276.707031 219.195312 275.128906 219.195312 C 273.636719 219.195312 272.566406 219.855469 271.757812 220.796875 L 271.757812 219.621094 L 269.941406 219.621094 Z M 261.214844 229.09375 C 258.910156 229.09375 257.269531 227.238281 257.269531 224.996094 C 257.269531 222.757812 258.910156 220.902344 261.214844 220.902344 C 263.523438 220.902344 265.097656 222.757812 265.097656 224.996094 C 265.097656 227.234375 263.453125 229.09375 261.214844 229.09375 M 261.195312 219.195312 C 257.714844 219.195312 255.371094 221.863281 255.371094 225 C 255.371094 228.136719 257.714844 230.804688 261.195312 230.804688 C 264.675781 230.804688 267.023438 228.136719 267.023438 225 C 267.023438 221.863281 264.652344 219.195312 261.195312 219.195312 M 249.714844 229.09375 C 247.390625 229.09375 245.746094 227.300781 245.746094 224.996094 C 245.746094 222.691406 247.390625 220.902344 249.695312 220.902344 C 251.019531 220.902344 252.105469 221.542969 252.769531 222.503906 L 254.21875 221.390625 C 253.21875 220.070312 251.636719 219.195312 249.699219 219.195312 C 246.132812 219.195312 243.851562 221.863281 243.851562 225 C 243.851562 228.136719 246.132812 230.804688 249.699219 230.804688 C 251.660156 230.804688 253.21875 229.949219 254.21875 228.605469 L 252.769531 227.496094 C 252.109375 228.457031 251.039062 229.097656 249.71875 229.097656 M 230.53125 230.375 L 232.347656 230.375 L 232.347656 223.078125 C 233.007812 221.992188 233.921875 221.265625 235.335938 221.265625 C 235.761719 221.265625 236.082031 221.328125 236.402344 221.414062 L 236.402344 219.535156 C 236.144531 219.449219 235.824219 219.40625 235.484375 219.40625 C 234.117188 219.40625 233.136719 220.023438 232.347656 220.960938 L 232.347656 219.621094 L 230.53125 219.621094 Z M 225.113281 225.769531 C 225.113281 227.878906 223.980469 229.09375 222.1875 229.09375 C 220.394531 229.09375 219.222656 227.878906 219.222656 225.769531 L 219.222656 219.621094 L 217.410156 219.621094 L 217.410156 225.703125 C 217.410156 228.925781 219.265625 230.804688 222.167969 230.804688 C 225.070312 230.804688 226.949219 228.925781 226.949219 225.703125 L 226.949219 219.621094 L 225.113281 219.621094 Z M 208.917969 229.09375 C 206.613281 229.09375 204.972656 227.238281 204.972656 224.996094 C 204.972656 222.757812 206.613281 220.902344 208.917969 220.902344 C 211.222656 220.902344 212.800781 222.757812 212.800781 224.996094 C 212.800781 227.234375 211.15625 229.09375 208.917969 229.09375 M 208.894531 219.195312 C 205.414062 219.195312 203.070312 221.863281 203.070312 225 C 203.070312 228.136719 205.414062 230.804688 208.894531 230.804688 C 212.375 230.804688 214.722656 228.136719 214.722656 225 C 214.722656 221.863281 212.351562 219.195312 208.894531 219.195312 M 191.613281 227.046875 L 191.613281 222.953125 C 192.445312 221.628906 193.722656 220.90625 195.21875 220.90625 C 197.5 220.90625 199.058594 222.71875 199.058594 225 C 199.058594 227.28125 197.5 229.097656 195.21875 229.097656 C 193.722656 229.097656 192.445312 228.371094 191.613281 227.050781 M 189.796875 235.621094 L 191.613281 235.621094 L 191.613281 229.179688 C 192.59375 230.222656 193.875 230.800781 195.433594 230.800781 C 198.804688 230.800781 200.960938 228.132812 200.960938 224.996094 C 200.960938 221.859375 198.804688 219.191406 195.433594 219.191406 C 193.875 219.191406 192.597656 219.769531 191.613281 220.8125 L 191.613281 219.621094 L 189.796875 219.621094 Z M 175.566406 230.375 L 177.382812 230.375 L 177.382812 223.078125 C 178.042969 221.992188 178.960938 221.265625 180.371094 221.265625 C 180.796875 221.265625 181.117188 221.328125 181.4375 221.414062 L 181.4375 219.535156 C 181.179688 219.449219 180.863281 219.40625 180.519531 219.40625 C 179.15625 219.40625 178.171875 220.023438 177.382812 220.960938 L 177.382812 219.621094 L 175.566406 219.621094 Z M 167.695312 220.753906 C 169.464844 220.753906 170.59375 222.03125 170.660156 223.589844 L 164.277344 223.589844 C 164.707031 221.734375 165.945312 220.753906 167.695312 220.753906 M 172.726562 228.601562 L 171.382812 227.558594 C 170.679688 228.519531 169.523438 229.160156 168.160156 229.160156 C 165.75 229.160156 164.128906 227.429688 164.128906 225.058594 L 164.128906 225.015625 L 172.363281 225.015625 C 172.429688 224.71875 172.492188 224.292969 172.492188 223.867188 C 172.492188 221.179688 170.59375 219.195312 167.671875 219.195312 C 164.34375 219.195312 162.25 221.734375 162.25 225 C 162.25 228.265625 164.492188 230.804688 168.121094 230.804688 C 170.125 230.804688 171.726562 229.949219 172.730469 228.605469 M 155.230469 230.375 L 157.046875 230.375 L 157.046875 223.078125 C 157.703125 221.992188 158.621094 221.265625 160.035156 221.265625 C 160.460938 221.265625 160.78125 221.328125 161.101562 221.414062 L 161.101562 219.535156 C 160.84375 219.449219 160.523438 219.40625 160.183594 219.40625 C 158.816406 219.40625 157.832031 220.023438 157.046875 220.960938 L 157.046875 219.621094 L 155.230469 219.621094 Z M 149.8125 225.769531 C 149.8125 227.878906 148.679688 229.09375 146.886719 229.09375 C 145.09375 229.09375 143.921875 227.878906 143.921875 225.769531 L 143.921875 219.621094 L 142.105469 219.621094 L 142.105469 225.703125 C 142.105469 228.925781 143.960938 230.804688 146.867188 230.804688 C 149.769531 230.804688 151.644531 228.925781 151.644531 225.703125 L 151.644531 219.621094 L 149.8125 219.621094 Z M 131.738281 228.90625 C 132.722656 230.121094 134.066406 230.804688 135.769531 230.804688 C 137.777344 230.804688 139.375 229.542969 139.398438 227.539062 C 139.398438 223.785156 134.128906 224.636719 134.128906 222.183594 C 134.128906 221.308594 134.726562 220.710938 135.835938 220.710938 C 136.816406 220.710938 137.605469 221.203125 138.203125 222.054688 L 139.464844 220.964844 C 138.714844 219.921875 137.394531 219.195312 135.816406 219.195312 C 133.785156 219.195312 132.359375 220.496094 132.359375 222.226562 C 132.359375 226.085938 137.628906 225.1875 137.628906 227.621094 C 137.628906 228.558594 136.945312 229.285156 135.75 229.285156 C 134.664062 229.285156 133.765625 228.730469 133.019531 227.792969 Z M 125.101562 220.753906 C 126.871094 220.753906 128.003906 222.03125 128.066406 223.589844 L 121.6875 223.589844 C 122.113281 221.734375 123.351562 220.753906 125.101562 220.753906 M 130.136719 228.601562 L 128.792969 227.558594 C 128.089844 228.519531 126.9375 229.160156 125.570312 229.160156 C 123.160156 229.160156 121.539062 227.429688 121.539062 225.058594 L 121.539062 225.015625 L 129.777344 225.015625 C 129.839844 224.71875 129.90625 224.292969 129.90625 223.867188 C 129.90625 221.179688 128.003906 219.195312 125.082031 219.195312 C 121.753906 219.195312 119.660156 221.734375 119.660156 225 C 119.660156 228.265625 121.902344 230.804688 125.527344 230.804688 C 127.535156 230.804688 129.132812 229.949219 130.136719 228.605469 M 102.140625 230.375 L 104.148438 230.375 L 104.148438 218.195312 L 108.5 225.257812 L 110.039062 225.257812 L 114.390625 218.195312 L 114.390625 230.375 L 116.398438 230.375 L 116.398438 215.441406 L 113.816406 215.441406 L 109.269531 222.882812 L 104.722656 215.441406 L 102.140625 215.441406 Z M 102.140625 230.375 " fill-opacity="1" fill-rule="nonzero"/><path fill="#000000" d="M 334.074219 173.457031 C 335.167969 166.730469 339.539062 162.949219 346.519531 162.949219 C 352.996094 162.949219 356.609375 167.066406 357.117188 173.457031 Z M 348.707031 203.722656 C 356.527344 203.722656 363.171875 201.449219 367.628906 198.171875 L 367.628906 186.488281 C 363.339844 190.101562 357.539062 193.464844 350.21875 193.464844 C 340.296875 193.464844 335.335938 189.347656 334.074219 181.695312 L 369.140625 181.695312 C 369.476562 180.265625 369.730469 178.417969 369.730469 176.0625 C 369.730469 162.273438 360.898438 153.277344 346.691406 153.277344 C 331.132812 153.277344 321.378906 163.703125 321.378906 178.496094 C 321.378906 195.144531 332.5625 203.71875 348.707031 203.71875 Z M 278.992188 173.457031 C 280.085938 166.730469 284.457031 162.949219 291.4375 162.949219 C 297.914062 162.949219 301.527344 167.066406 302.03125 173.457031 Z M 293.625 203.722656 C 301.441406 203.722656 308.089844 201.449219 312.546875 198.171875 L 312.546875 186.488281 C 308.257812 190.101562 302.457031 193.464844 295.136719 193.464844 C 285.210938 193.464844 280.253906 189.347656 278.992188 181.695312 L 314.058594 181.695312 C 314.394531 180.265625 314.648438 178.417969 314.648438 176.0625 C 314.648438 162.273438 305.816406 153.277344 291.605469 153.277344 C 276.050781 153.277344 266.292969 163.703125 266.292969 178.496094 C 266.292969 195.144531 277.476562 203.71875 293.625 203.71875 Z M 236.523438 203.722656 C 249.726562 203.722656 258.976562 198.425781 258.976562 187.246094 C 258.976562 176.066406 248.96875 174.296875 237.78125 172.617188 C 229.289062 171.355469 225.167969 170.933594 225.167969 167.738281 C 225.167969 164.546875 229.035156 163.285156 235.425781 163.285156 C 242.492188 163.285156 250.394531 165.71875 256.953125 169.671875 L 256.953125 158.40625 C 251.070312 155.214844 243.585938 153.28125 235.597656 153.28125 C 222.898438 153.28125 213.394531 158.15625 213.394531 168.246094 C 213.394531 179.761719 224.242188 182.285156 234.503906 183.710938 C 242.15625 184.804688 246.78125 185.054688 246.78125 188.921875 C 246.78125 192.371094 243.082031 193.464844 236.351562 193.464844 C 227.4375 193.464844 219.28125 190.441406 213.140625 184.636719 L 213.140625 197.328125 C 218.1875 200.941406 227.269531 203.71875 236.515625 203.71875 Z M 158.488281 202.878906 L 170.933594 202.878906 L 170.933594 175.472656 C 171.101562 167.820312 174.800781 163.113281 181.277344 163.113281 C 188.34375 163.113281 190.613281 167.65625 190.613281 174.292969 L 190.613281 202.878906 L 203.058594 202.878906 L 203.058594 172.445312 C 203.058594 159.585938 195.574219 153.28125 185.230469 153.28125 C 179.34375 153.28125 174.214844 155.464844 170.9375 160.171875 L 170.9375 154.121094 L 158.492188 154.121094 L 158.492188 202.878906 Z M 102.140625 202.878906 L 148.8125 202.878906 L 148.8125 193.210938 L 132.078125 193.210938 L 132.078125 145.292969 L 148.8125 145.292969 L 148.8125 135.625 L 102.140625 135.625 L 102.140625 145.292969 L 118.875 145.292969 L 118.875 193.210938 L 102.140625 193.210938 Z M 102.140625 202.878906 " fill-opacity="1" fill-rule="nonzero"/><path fill="#c869ff" d="M 413.878906 127.046875 L 426.324219 127.046875 L 426.324219 169.335938 L 413.878906 169.335938 Z M 413.878906 127.046875 " fill-opacity="1" fill-rule="nonzero"/><path fill="#7a57ff" d="M 396.976562 143.273438 L 409.421875 143.273438 L 409.421875 169.335938 L 396.976562 169.335938 Z M 396.976562 143.273438 " fill-opacity="1" fill-rule="nonzero"/><path fill="#248bff" d="M 380.070312 182.03125 L 381 182.03125 L 392.519531 169.335938 L 392.519531 135.625 L 380.070312 135.625 Z M 380.070312 182.03125 " fill-opacity="1" fill-rule="nonzero"/></svg>