<svg xmlns="http://www.w3.org/2000/svg" xmlns:xlink="http://www.w3.org/1999/xlink" width="1920" zoomAndPan="magnify" viewBox="0 0 1440 809.999993" height="1080" preserveAspectRatio="xMidYMid meet" version="1.0"><defs><clipPath id="1f967f699c"><path d="M 627 0.199219 L 889 0.199219 L 889 144 L 627 144 Z M 627 0.199219 " clip-rule="nonzero"/></clipPath></defs><rect x="-144" width="1728" fill="#ffffff" y="-80.999999" height="971.999992" fill-opacity="1"/><rect x="-144" width="1728" fill="#ffffff" y="-80.999999" height="971.999992" fill-opacity="1"/><path fill="#d096da" d="M 589.222656 70.679688 C 569.324219 91.921875 546.722656 111.246094 521.507812 128.148438 C 471.332031 161.761719 416.160156 182.128906 360.117188 190.101562 L 371.449219 384.40625 C 461 374.222656 549.507812 343.097656 629.535156 289.496094 C 671.824219 261.179688 709.222656 228.265625 741.496094 191.890625 L 589.203125 70.722656 Z M 589.222656 70.679688 " fill-opacity="1" fill-rule="nonzero"/><path fill="#9827b5" d="M 293.378906 387.957031 L 298.3125 193.84375 C 220.984375 192.421875 144.871094 168.011719 80.726562 122.707031 L -44.691406 271.617188 C 58.191406 348.75 166.984375 388.828125 293.378906 387.957031 " fill-opacity="1" fill-rule="nonzero"/><path fill="#5f1972" d="M 33.167969 83.074219 C 14.414062 64.683594 -2.765625 44.125 -17.964844 21.441406 L -179.292969 129.488281 C -153.714844 167.671875 -124.398438 201.859375 -92.1875 231.902344 Z M 33.167969 83.074219 " fill-opacity="1" fill-rule="nonzero"/><g clip-path="url(#1f967f699c)"><path fill="#5f1972" d="M 692.808594 -225.589844 C 699.609375 -138.546875 676.925781 -50.847656 627.769531 22.25 L 780.0625 143.414062 C 862.9375 27.054688 899.78125 -115.863281 884.941406 -256.566406 L 692.785156 -225.570312 Z M 692.808594 -225.589844 " fill-opacity="1" fill-rule="nonzero"/></g><path fill="#d096da" d="M 930.226562 722.15625 C 950.128906 700.917969 972.726562 681.589844 997.945312 664.6875 C 1048.121094 631.074219 1103.292969 610.707031 1159.335938 602.734375 L 1148.003906 408.429688 C 1058.453125 418.613281 969.941406 449.742188 889.917969 503.339844 C 847.628906 531.660156 810.230469 564.570312 777.957031 600.949219 L 930.25 722.113281 Z M 930.226562 722.15625 " fill-opacity="1" fill-rule="nonzero"/><path fill="#9827b5" d="M 1209.785156 404.773438 L 1221.121094 598.992188 C 1298.445312 600.417969 1374.558594 624.824219 1438.703125 670.132812 L 1564.121094 521.242188 C 1461.238281 444.105469 1336.183594 403.902344 1209.785156 404.773438 " fill-opacity="1" fill-rule="nonzero"/><path fill="#5f1972" d="M 826.644531 1018.449219 C 819.839844 931.40625 842.527344 843.703125 891.679688 770.632812 L 739.390625 649.445312 C 656.515625 765.804688 619.667969 908.722656 634.511719 1049.425781 L 826.664062 1018.425781 Z M 826.644531 1018.449219 " fill-opacity="1" fill-rule="nonzero"/><path fill="#000000" d="M 134.007812 761.730469 C 134.324219 759.789062 135.585938 758.695312 137.601562 758.695312 C 139.472656 758.695312 140.519531 759.882812 140.664062 761.730469 Z M 138.234375 770.472656 C 140.492188 770.472656 142.414062 769.816406 143.703125 768.871094 L 143.703125 765.496094 C 142.464844 766.539062 140.785156 767.511719 138.671875 767.511719 C 135.804688 767.511719 134.371094 766.320312 134.007812 764.109375 L 144.140625 764.109375 C 144.234375 763.699219 144.308594 763.164062 144.308594 762.484375 C 144.308594 758.5 141.757812 755.902344 137.652344 755.902344 C 133.15625 755.902344 130.335938 758.914062 130.335938 763.1875 C 130.335938 767.996094 133.570312 770.472656 138.234375 770.472656 Z M 118.089844 761.730469 C 118.40625 759.789062 119.667969 758.695312 121.6875 758.695312 C 123.558594 758.695312 124.601562 759.882812 124.746094 761.730469 Z M 122.320312 770.472656 C 124.578125 770.472656 126.496094 769.816406 127.785156 768.871094 L 127.785156 765.496094 C 126.546875 766.539062 124.871094 767.511719 122.753906 767.511719 C 119.886719 767.511719 118.453125 766.320312 118.089844 764.109375 L 128.222656 764.109375 C 128.320312 763.699219 128.394531 763.164062 128.394531 762.484375 C 128.394531 758.5 125.839844 755.902344 121.734375 755.902344 C 117.242188 755.902344 114.421875 758.914062 114.421875 763.1875 C 114.421875 767.996094 117.652344 770.472656 122.320312 770.472656 Z M 105.820312 770.472656 C 109.632812 770.472656 112.308594 768.941406 112.308594 765.714844 C 112.308594 762.484375 109.414062 761.972656 106.183594 761.488281 C 103.730469 761.121094 102.539062 761 102.539062 760.078125 C 102.539062 759.15625 103.65625 758.792969 105.503906 758.792969 C 107.542969 758.792969 109.828125 759.496094 111.722656 760.636719 L 111.722656 757.382812 C 110.023438 756.460938 107.859375 755.902344 105.550781 755.902344 C 101.882812 755.902344 99.136719 757.3125 99.136719 760.222656 C 99.136719 763.550781 102.269531 764.28125 105.234375 764.691406 C 107.445312 765.007812 108.78125 765.082031 108.78125 766.199219 C 108.78125 767.195312 107.714844 767.511719 105.769531 767.511719 C 103.195312 767.511719 100.835938 766.636719 99.0625 764.960938 L 99.0625 768.625 C 100.519531 769.671875 103.144531 770.472656 105.816406 770.472656 Z M 83.269531 770.230469 L 86.867188 770.230469 L 86.867188 762.3125 C 86.914062 760.101562 87.984375 758.742188 89.855469 758.742188 C 91.898438 758.742188 92.554688 760.054688 92.554688 761.972656 L 92.554688 770.230469 L 96.148438 770.230469 L 96.148438 761.4375 C 96.148438 757.722656 93.988281 755.902344 91 755.902344 C 89.296875 755.902344 87.816406 756.535156 86.867188 757.894531 L 86.867188 756.144531 L 83.273438 756.144531 L 83.273438 770.230469 Z M 66.988281 770.230469 L 80.476562 770.230469 L 80.476562 767.4375 L 75.640625 767.4375 L 75.640625 753.59375 L 80.476562 753.59375 L 80.476562 750.800781 L 66.988281 750.800781 L 66.988281 753.59375 L 71.824219 753.59375 L 71.824219 767.4375 L 66.988281 767.4375 Z M 66.988281 770.230469 " fill-opacity="1" fill-rule="nonzero"/><path fill="#c869ff" d="M 157.066406 748.324219 L 160.664062 748.324219 L 160.664062 760.539062 L 157.066406 760.539062 Z M 157.066406 748.324219 " fill-opacity="1" fill-rule="nonzero"/><path fill="#7a57ff" d="M 152.183594 753.011719 L 155.777344 753.011719 L 155.777344 760.539062 L 152.183594 760.539062 Z M 152.183594 753.011719 " fill-opacity="1" fill-rule="nonzero"/><path fill="#248bff" d="M 147.296875 764.207031 L 147.566406 764.207031 L 150.894531 760.539062 L 150.894531 750.800781 L 147.296875 750.800781 Z M 147.296875 764.207031 " fill-opacity="1" fill-rule="nonzero"/></svg>