<svg xmlns="http://www.w3.org/2000/svg" xmlns:xlink="http://www.w3.org/1999/xlink" width="1920" zoomAndPan="magnify" viewBox="0 0 1440 809.999993" height="1080" preserveAspectRatio="xMidYMid meet" version="1.0"><defs><clipPath id="2e8fc05253"><path d="M 1158 185 L 1338 185 L 1338 311.242188 L 1158 311.242188 Z M 1158 185 " clip-rule="nonzero"/></clipPath><clipPath id="af07af1100"><path d="M 1063.507812 0 L 1168 0 L 1168 33 L 1063.507812 33 Z M 1063.507812 0 " clip-rule="nonzero"/></clipPath><clipPath id="a00d2e2488"><path d="M 1063.507812 60 L 1198 60 L 1198 232 L 1063.507812 232 Z M 1063.507812 60 " clip-rule="nonzero"/></clipPath></defs><rect x="-144" width="1728" fill="#ffffff" y="-80.999999" height="971.999992" fill-opacity="1"/><rect x="-144" width="1728" fill="#ffffff" y="-80.999999" height="971.999992" fill-opacity="1"/><g clip-path="url(#2e8fc05253)"><path fill="#d096da" d="M 1218.25 185.945312 C 1228.597656 194.054688 1240.027344 201.136719 1252.464844 206.941406 C 1277.191406 218.492188 1303.238281 223.785156 1328.824219 223.472656 L 1337.167969 311.03125 C 1296.472656 312.671875 1254.796875 304.867188 1215.347656 286.441406 C 1194.503906 276.710938 1175.539062 264.589844 1158.601562 250.574219 L 1218.265625 185.945312 Z M 1218.25 185.945312 " fill-opacity="1" fill-rule="nonzero"/></g><path fill="#7d2095" d="M 1372.273438 307.242188 L 1356.675781 220.882812 C 1391.117188 214.914062 1423.421875 198.761719 1448.945312 174.09375 L 1515.238281 231.9375 C 1474.617188 273.492188 1428.792969 298.894531 1372.273438 307.226562 " fill-opacity="1" fill-rule="nonzero"/><g clip-path="url(#af07af1100)"><path fill="#7d2095" d="M 1063.71875 32.210938 C 1065.613281 -0.109375 1073.539062 -32.625 1088.066406 -63.757812 L 1167.582031 -26.640625 C 1158.574219 -7.34375 1153.371094 12.75 1151.667969 32.78125 L 1063.734375 32.195312 Z M 1063.71875 32.210938 " fill-opacity="1" fill-rule="nonzero"/></g><g clip-path="url(#a00d2e2488)"><path fill="#5f1972" d="M 1151.550781 60.773438 C 1154.511719 100.117188 1170.695312 137.714844 1197.691406 166.96875 L 1138.027344 231.59375 C 1092.984375 185.332031 1066.664062 124.058594 1063.582031 60.183594 L 1151.535156 60.773438 Z M 1151.550781 60.773438 " fill-opacity="1" fill-rule="nonzero"/></g><path fill="#000000" d="M 134.007812 761.730469 C 134.324219 759.789062 135.585938 758.695312 137.601562 758.695312 C 139.472656 758.695312 140.519531 759.882812 140.664062 761.730469 Z M 138.234375 770.472656 C 140.492188 770.472656 142.414062 769.816406 143.703125 768.871094 L 143.703125 765.492188 C 142.464844 766.539062 140.785156 767.507812 138.671875 767.507812 C 135.804688 767.507812 134.371094 766.320312 134.007812 764.109375 L 144.140625 764.109375 C 144.234375 763.699219 144.308594 763.164062 144.308594 762.480469 C 144.308594 758.5 141.757812 755.902344 137.652344 755.902344 C 133.15625 755.902344 130.335938 758.914062 130.335938 763.1875 C 130.335938 767.996094 133.570312 770.472656 138.234375 770.472656 Z M 118.089844 761.730469 C 118.40625 759.789062 119.667969 758.695312 121.6875 758.695312 C 123.558594 758.695312 124.601562 759.882812 124.746094 761.730469 Z M 122.320312 770.472656 C 124.578125 770.472656 126.496094 769.816406 127.785156 768.871094 L 127.785156 765.492188 C 126.546875 766.539062 124.871094 767.507812 122.753906 767.507812 C 119.886719 767.507812 118.453125 766.320312 118.089844 764.109375 L 128.222656 764.109375 C 128.320312 763.699219 128.394531 763.164062 128.394531 762.480469 C 128.394531 758.5 125.839844 755.902344 121.734375 755.902344 C 117.242188 755.902344 114.421875 758.914062 114.421875 763.1875 C 114.421875 767.996094 117.652344 770.472656 122.320312 770.472656 Z M 105.820312 770.472656 C 109.632812 770.472656 112.308594 768.941406 112.308594 765.714844 C 112.308594 762.484375 109.414062 761.972656 106.183594 761.488281 C 103.730469 761.121094 102.539062 761 102.539062 760.078125 C 102.539062 759.15625 103.65625 758.792969 105.503906 758.792969 C 107.542969 758.792969 109.828125 759.496094 111.722656 760.636719 L 111.722656 757.382812 C 110.023438 756.460938 107.859375 755.902344 105.550781 755.902344 C 101.882812 755.902344 99.136719 757.308594 99.136719 760.222656 C 99.136719 763.550781 102.269531 764.28125 105.234375 764.691406 C 107.445312 765.007812 108.78125 765.082031 108.78125 766.199219 C 108.78125 767.195312 107.714844 767.507812 105.769531 767.507812 C 103.195312 767.507812 100.835938 766.636719 99.0625 764.960938 L 99.0625 768.625 C 100.519531 769.671875 103.144531 770.472656 105.816406 770.472656 Z M 83.269531 770.230469 L 86.867188 770.230469 L 86.867188 762.3125 C 86.914062 760.101562 87.984375 758.742188 89.855469 758.742188 C 91.898438 758.742188 92.554688 760.054688 92.554688 761.972656 L 92.554688 770.230469 L 96.148438 770.230469 L 96.148438 761.4375 C 96.148438 757.722656 93.988281 755.902344 91 755.902344 C 89.296875 755.902344 87.816406 756.535156 86.867188 757.894531 L 86.867188 756.144531 L 83.273438 756.144531 L 83.273438 770.230469 Z M 66.988281 770.230469 L 80.476562 770.230469 L 80.476562 767.4375 L 75.640625 767.4375 L 75.640625 753.59375 L 80.476562 753.59375 L 80.476562 750.800781 L 66.988281 750.800781 L 66.988281 753.59375 L 71.824219 753.59375 L 71.824219 767.4375 L 66.988281 767.4375 Z M 66.988281 770.230469 " fill-opacity="1" fill-rule="nonzero"/><path fill="#c869ff" d="M 157.066406 748.324219 L 160.664062 748.324219 L 160.664062 760.539062 L 157.066406 760.539062 Z M 157.066406 748.324219 " fill-opacity="1" fill-rule="nonzero"/><path fill="#7a57ff" d="M 152.183594 753.011719 L 155.777344 753.011719 L 155.777344 760.539062 L 152.183594 760.539062 Z M 152.183594 753.011719 " fill-opacity="1" fill-rule="nonzero"/><path fill="#248bff" d="M 147.296875 764.207031 L 147.566406 764.207031 L 150.894531 760.539062 L 150.894531 750.800781 L 147.296875 750.800781 Z M 147.296875 764.207031 " fill-opacity="1" fill-rule="nonzero"/></svg>