<svg xmlns="http://www.w3.org/2000/svg" xmlns:xlink="http://www.w3.org/1999/xlink" width="1920" zoomAndPan="magnify" viewBox="0 0 1440 809.999993" height="1080" preserveAspectRatio="xMidYMid meet" version="1.0"><defs><clipPath id="4817297a50"><path d="M 1355 430 L 1439.25 430 L 1439.25 559 L 1355 559 Z M 1355 430 " clip-rule="nonzero"/></clipPath><clipPath id="f00e6948c0"><path d="M 1095 0.121094 L 1320 0.121094 L 1320 99 L 1095 99 Z M 1095 0.121094 " clip-rule="nonzero"/></clipPath></defs><rect x="-144" width="1728" fill="#ffffff" y="-80.999999" height="971.999992" fill-opacity="1"/><rect x="-144" width="1728" fill="#ffffff" y="-80.999999" height="971.999992" fill-opacity="1"/><path fill="#b5e1ff" d="M 1200.839844 135.320312 C 1196.699219 153.195312 1194.503906 171.808594 1194.503906 190.9375 C 1194.503906 229.007812 1203.175781 265.023438 1218.652344 297.167969 L 1112.933594 359.367188 C 1086.859375 308.914062 1072.117188 251.636719 1072.117188 190.9375 C 1072.117188 158.855469 1076.238281 127.734375 1083.96875 98.070312 L 1200.820312 135.320312 Z M 1200.839844 135.320312 " fill-opacity="1" fill-rule="nonzero"/><path fill="#c869ff" d="M 1138.4375 401.496094 L 1238.355469 330.832031 C 1266.214844 370.828125 1305.695312 402.109375 1351.90625 419.820312 L 1317.914062 537.71875 C 1241.449219 510.902344 1182.304688 467.976562 1138.4375 401.496094 " fill-opacity="1" fill-rule="nonzero"/><g clip-path="url(#4817297a50)"><path fill="#248bff" d="M 1389.335938 430.832031 C 1405.554688 434.210938 1422.34375 435.996094 1439.542969 435.996094 L 1439.542969 558.363281 C 1410.574219 558.363281 1382.410156 555 1355.367188 548.664062 Z M 1389.335938 430.832031 " fill-opacity="1" fill-rule="nonzero"/></g><g clip-path="url(#f00e6948c0)"><path fill="#042f80" d="M 1319.636719 -22.816406 C 1271.667969 4.140625 1233.699219 46.78125 1212.667969 98.152344 L 1095.796875 60.90625 C 1127.671875 -23.289062 1189.585938 -92.722656 1268.46875 -134.296875 L 1319.617188 -22.816406 Z M 1319.636719 -22.816406 " fill-opacity="1" fill-rule="nonzero"/></g><path fill="#000000" d="M 134.007812 761.730469 C 134.324219 759.789062 135.585938 758.695312 137.601562 758.695312 C 139.472656 758.695312 140.519531 759.882812 140.664062 761.730469 Z M 138.234375 770.472656 C 140.492188 770.472656 142.414062 769.816406 143.703125 768.871094 L 143.703125 765.492188 C 142.464844 766.539062 140.785156 767.507812 138.671875 767.507812 C 135.804688 767.507812 134.371094 766.320312 134.007812 764.109375 L 144.140625 764.109375 C 144.234375 763.699219 144.308594 763.164062 144.308594 762.480469 C 144.308594 758.5 141.757812 755.902344 137.652344 755.902344 C 133.15625 755.902344 130.335938 758.914062 130.335938 763.1875 C 130.335938 767.996094 133.570312 770.472656 138.234375 770.472656 Z M 118.089844 761.730469 C 118.40625 759.789062 119.667969 758.695312 121.6875 758.695312 C 123.558594 758.695312 124.601562 759.882812 124.746094 761.730469 Z M 122.320312 770.472656 C 124.578125 770.472656 126.496094 769.816406 127.785156 768.871094 L 127.785156 765.492188 C 126.546875 766.539062 124.871094 767.507812 122.753906 767.507812 C 119.886719 767.507812 118.453125 766.320312 118.089844 764.109375 L 128.222656 764.109375 C 128.320312 763.699219 128.394531 763.164062 128.394531 762.480469 C 128.394531 758.5 125.839844 755.902344 121.734375 755.902344 C 117.242188 755.902344 114.421875 758.914062 114.421875 763.1875 C 114.421875 767.996094 117.652344 770.472656 122.320312 770.472656 Z M 105.820312 770.472656 C 109.632812 770.472656 112.308594 768.941406 112.308594 765.714844 C 112.308594 762.484375 109.414062 761.972656 106.183594 761.488281 C 103.730469 761.121094 102.539062 761 102.539062 760.078125 C 102.539062 759.15625 103.65625 758.792969 105.503906 758.792969 C 107.542969 758.792969 109.828125 759.496094 111.722656 760.636719 L 111.722656 757.382812 C 110.023438 756.460938 107.859375 755.902344 105.550781 755.902344 C 101.882812 755.902344 99.136719 757.308594 99.136719 760.222656 C 99.136719 763.550781 102.269531 764.28125 105.234375 764.691406 C 107.445312 765.007812 108.78125 765.082031 108.78125 766.199219 C 108.78125 767.195312 107.714844 767.507812 105.769531 767.507812 C 103.195312 767.507812 100.835938 766.636719 99.0625 764.960938 L 99.0625 768.625 C 100.519531 769.671875 103.144531 770.472656 105.816406 770.472656 Z M 83.269531 770.230469 L 86.867188 770.230469 L 86.867188 762.3125 C 86.914062 760.101562 87.984375 758.742188 89.855469 758.742188 C 91.898438 758.742188 92.554688 760.054688 92.554688 761.972656 L 92.554688 770.230469 L 96.148438 770.230469 L 96.148438 761.4375 C 96.148438 757.722656 93.988281 755.902344 91 755.902344 C 89.296875 755.902344 87.816406 756.535156 86.867188 757.894531 L 86.867188 756.144531 L 83.273438 756.144531 L 83.273438 770.230469 Z M 66.988281 770.230469 L 80.476562 770.230469 L 80.476562 767.4375 L 75.640625 767.4375 L 75.640625 753.59375 L 80.476562 753.59375 L 80.476562 750.800781 L 66.988281 750.800781 L 66.988281 753.59375 L 71.824219 753.59375 L 71.824219 767.4375 L 66.988281 767.4375 Z M 66.988281 770.230469 " fill-opacity="1" fill-rule="nonzero"/><path fill="#c869ff" d="M 157.066406 748.324219 L 160.664062 748.324219 L 160.664062 760.539062 L 157.066406 760.539062 Z M 157.066406 748.324219 " fill-opacity="1" fill-rule="nonzero"/><path fill="#7a57ff" d="M 152.183594 753.011719 L 155.777344 753.011719 L 155.777344 760.539062 L 152.183594 760.539062 Z M 152.183594 753.011719 " fill-opacity="1" fill-rule="nonzero"/><path fill="#248bff" d="M 147.296875 764.207031 L 147.566406 764.207031 L 150.894531 760.539062 L 150.894531 750.800781 L 147.296875 750.800781 Z M 147.296875 764.207031 " fill-opacity="1" fill-rule="nonzero"/></svg>