<?xml version="1.0" encoding="UTF-8"?>
<svg id="Calque_2" data-name="Calque 2" xmlns="http://www.w3.org/2000/svg" xmlns:xlink="http://www.w3.org/1999/xlink" viewBox="0 0 960.01 540">
  <defs>
    <style>
      .cls-1 {
        fill: #243872;
      }

      .cls-2, .cls-3 {
        fill: #fff;
      }

      .cls-3, .cls-4 {
        fill-rule: evenodd;
      }

      .cls-5 {
        fill: none;
      }

      .cls-6 {
        clip-path: url(#clippath-1);
      }

      .cls-7 {
        fill: #c06cce;
      }

      .cls-4 {
        fill: #042f80;
      }

      .cls-8 {
        clip-path: url(#clippath-2);
      }

      .cls-9 {
        fill: #55a8fd;
      }

      .cls-10 {
        clip-path: url(#clippath);
      }
    </style>
    <clipPath id="clippath">
      <rect class="cls-5" width="960.01" height="540"/>
    </clipPath>
    <clipPath id="clippath-1">
      <rect class="cls-5" y="0" width="959.98" height="539.97"/>
    </clipPath>
    <clipPath id="clippath-2">
      <rect class="cls-5" x="75.4" y="136.09" width="818.14" height="403.91"/>
    </clipPath>
  </defs>
  <g id="Calque_1-2" data-name="Calque 1">
    <g class="cls-10">
      <g class="cls-6">
        <rect class="cls-2" width="959.98" height="539.97"/>
      </g>
      <g class="cls-8">
        <rect class="cls-7" x="673.4" y="136.09" width="220.14" height="403.94"/>
        <rect class="cls-9" x="374.4" y="330.58" width="220.17" height="209.48"/>
        <polygon class="cls-4" points="75.4 540.03 91.76 540.03 295.54 540.03 295.54 312.63 75.4 312.63 75.4 540.03"/>
        <path class="cls-3" d="M96.32,515.23h16.33v-3.35h-5.84v-16.58h5.84v-3.37h-16.33v3.37h5.87v16.58h-5.87v3.35ZM116.05,515.23h4.34v-9.5c.06-2.64,1.36-4.28,3.63-4.28,2.47,0,3.26,1.59,3.26,3.88v9.89h4.37v-10.55c0-4.45-2.64-6.63-6.24-6.63-2.07,0-3.85.77-5.02,2.38v-2.07h-4.34v16.87ZM143.32,515.51c4.62,0,7.85-1.82,7.85-5.7s-3.49-4.48-7.4-5.07c-2.98-.42-4.42-.57-4.42-1.67s1.36-1.56,3.6-1.56c2.47,0,5.24.85,7.51,2.24v-3.91c-2.04-1.1-4.68-1.79-7.46-1.79-4.45,0-7.77,1.7-7.77,5.19,0,4,3.8,4.88,7.37,5.36,2.69.37,4.31.45,4.31,1.81,0,1.19-1.3,1.56-3.66,1.56-3.12,0-5.95-1.05-8.11-3.06v4.39c1.76,1.25,4.93,2.21,8.16,2.21ZM163.3,515.51c2.75,0,5.05-.77,6.63-1.9v-4.05c-1.5,1.25-3.54,2.41-6.09,2.41-3.49,0-5.22-1.42-5.64-4.08h12.25c.11-.48.2-1.13.2-1.95,0-4.76-3.09-7.88-8.05-7.88-5.44,0-8.84,3.6-8.84,8.73,0,5.78,3.91,8.73,9.55,8.73ZM158.17,505.05c.4-2.35,1.93-3.66,4.37-3.66,2.27,0,3.51,1.42,3.71,3.66h-8.08ZM182.58,515.51c2.72,0,5.04-.77,6.6-1.9v-4.05c-1.5,1.25-3.51,2.41-6.09,2.41-3.46,0-5.19-1.42-5.64-4.08h12.27c.11-.48.2-1.13.2-1.95,0-4.76-3.09-7.88-8.05-7.88-5.44,0-8.87,3.6-8.87,8.73,0,5.78,3.91,8.73,9.58,8.73ZM177.45,505.05c.4-2.35,1.93-3.66,4.36-3.66,2.27,0,3.51,1.42,3.68,3.66h-8.05Z"/>
        <rect class="cls-2" x="205.37" y="488.98" width="4.34" height="14.63"/>
        <rect class="cls-2" x="199.45" y="494.59" width="4.37" height="9.01"/>
        <polygon class="cls-3" points="193.55 508 193.86 508 197.89 503.6 197.89 491.92 193.55 491.92 193.55 508"/>
        <path class="cls-3" d="M96.32,524.75h.71v-4.22l1.5,2.47h.54l1.53-2.47v4.22h.71v-5.16h-.91l-1.59,2.58-1.59-2.58h-.91v5.16ZM106.1,524.15l-.45-.37c-.26.31-.65.54-1.13.54-.85,0-1.42-.6-1.42-1.42h2.89c0-.11.03-.25.03-.4,0-.93-.65-1.62-1.67-1.62-1.16,0-1.9.88-1.9,2.01s.79,2.01,2.04,2.01c.71,0,1.28-.31,1.62-.77ZM105.39,522.4h-2.24c.14-.62.6-.99,1.19-.99s1.02.45,1.05.99ZM106.67,524.24c.34.43.82.65,1.42.65.71,0,1.25-.43,1.28-1.13,0-1.27-1.84-.99-1.84-1.84,0-.31.2-.51.6-.51.34,0,.62.17.82.48l.43-.4c-.25-.34-.71-.6-1.28-.6-.71,0-1.19.45-1.19,1.05,0,1.33,1.84,1.02,1.84,1.87,0,.31-.25.57-.65.57s-.71-.2-.96-.51l-.45.37ZM112.99,523.16c0,.74-.4,1.13-1.02,1.13s-1.05-.4-1.05-1.13v-2.13h-.62v2.1c0,1.1.65,1.76,1.67,1.76s1.67-.65,1.67-1.76v-2.1h-.65v2.13ZM114.89,524.75h.62v-2.52c.23-.37.57-.62,1.05-.62.14,0,.26.03.37.06v-.65c-.08-.03-.2-.06-.31-.06-.48,0-.82.23-1.1.54v-.45h-.62v3.71ZM121.01,524.15l-.48-.37c-.23.31-.65.54-1.13.54-.82,0-1.39-.6-1.39-1.42h2.86c.03-.11.06-.25.06-.4,0-.93-.68-1.62-1.7-1.62-1.16,0-1.9.88-1.9,2.01s.79,2.01,2.07,2.01c.71,0,1.25-.31,1.62-.77ZM120.27,522.4h-2.21c.14-.62.57-.99,1.19-.99s1.02.45,1.02.99ZM122,524.75h.62v-2.52c.23-.37.57-.62,1.05-.62.14,0,.25.03.37.06v-.65c-.08-.03-.2-.06-.31-.06-.48,0-.82.23-1.11.54v-.45h-.62v3.71ZM126.99,526.56h.62v-2.21c.34.34.79.54,1.33.54,1.19,0,1.93-.91,1.93-2.01s-.74-2.01-1.93-2.01c-.54,0-.99.2-1.33.57v-.4h-.62v5.53ZM127.62,522.17c.28-.45.74-.71,1.25-.71.82,0,1.36.62,1.36,1.42s-.54,1.42-1.36,1.42c-.51,0-.96-.25-1.25-.71v-1.42ZM131.61,522.88c0,1.1.82,2.01,2.04,2.01s2.04-.91,2.04-2.01-.82-2.01-2.04-2.01-2.04.94-2.04,2.01ZM132.29,522.88c0-.77.57-1.42,1.36-1.42s1.36.65,1.36,1.42-.57,1.42-1.36,1.42-1.36-.62-1.36-1.42ZM139.32,523.16c0,.74-.4,1.13-1.02,1.13s-1.02-.4-1.02-1.13v-2.13h-.65v2.1c0,1.1.65,1.76,1.67,1.76s1.67-.65,1.67-1.76v-2.1h-.65v2.13ZM141.22,524.75h.65v-2.52c.23-.37.54-.62,1.02-.62.17,0,.26.03.4.06v-.65c-.11-.03-.23-.06-.34-.06-.48,0-.82.23-1.08.54v-.45h-.65v3.71ZM146.55,522.88c0-.79.57-1.42,1.39-1.42.45,0,.82.23,1.08.57l.48-.4c-.34-.45-.88-.77-1.56-.77-1.25,0-2.07.94-2.07,2.01s.82,2.01,2.07,2.01c.68,0,1.22-.28,1.56-.74l-.48-.4c-.26.34-.62.54-1.08.54-.82,0-1.39-.62-1.39-1.42ZM149.92,522.88c0,1.1.82,2.01,2.04,2.01s2.01-.91,2.01-2.01-.82-2.01-2.01-2.01-2.04.94-2.04,2.01ZM150.58,522.88c0-.77.57-1.42,1.39-1.42s1.36.65,1.36,1.42-.6,1.42-1.36,1.42c-.82,0-1.39-.62-1.39-1.42ZM155.03,524.75h.62v-2.58c.2-.37.54-.71,1.05-.71.54,0,.88.37.88.99v2.3h.65v-2.33c0-.08,0-.17-.03-.23.26-.45.6-.74,1.08-.74.54,0,.88.37.88.99v2.3h.62v-2.33c0-1.02-.6-1.56-1.39-1.56-.62,0-1.02.34-1.33.77-.23-.51-.68-.77-1.25-.77-.51,0-.88.26-1.16.57v-.4h-.62v3.71ZM162.06,526.56h.65v-2.21c.34.34.79.54,1.33.54,1.16,0,1.93-.91,1.93-2.01s-.77-2.01-1.93-2.01c-.54,0-.99.2-1.33.57v-.4h-.65v5.53ZM162.71,522.17c.28-.45.74-.71,1.25-.71.79,0,1.36.62,1.36,1.42s-.57,1.42-1.36,1.42c-.51,0-.96-.25-1.25-.71v-1.42ZM166.99,524.75h.65v-2.52c.23-.37.54-.62,1.02-.62.17,0,.26.03.4.06v-.65c-.11-.03-.23-.06-.34-.06-.48,0-.82.23-1.08.54v-.45h-.65v3.71ZM173.11,524.15l-.45-.37c-.26.31-.65.54-1.13.54-.85,0-1.42-.6-1.42-1.42h2.86c.03-.11.06-.25.06-.4,0-.93-.65-1.62-1.67-1.62-1.16,0-1.9.88-1.9,2.01s.76,2.01,2.04,2.01c.71,0,1.28-.31,1.62-.77ZM172.4,522.4h-2.24c.14-.62.57-.99,1.19-.99s1.02.45,1.05.99ZM174.73,524.75v-2.58c.26-.4.6-.71,1.13-.71.6,0,.96.4.96,1.05v2.24h.65v-2.24c0-1.08-.65-1.62-1.47-1.62-.57,0-.96.23-1.28.57v-.43h-.62v3.71h.62ZM180.34,524.89c.57,0,.99-.2,1.36-.54v.4h.62v-5.53h-.62v2.24c-.37-.37-.79-.57-1.36-.57-1.16,0-1.93.91-1.93,2.01s.76,1.98,1.93,1.98ZM179.09,522.88c0-.77.54-1.42,1.33-1.42.51,0,.96.26,1.28.71v1.45c-.28.45-.74.71-1.28.71-.79,0-1.33-.65-1.33-1.42v-.03ZM183.66,524.75h.65v-2.52c.23-.37.54-.62,1.02-.62.17,0,.26.03.4.06v-.65c-.11-.03-.23-.06-.34-.06-.48,0-.82.23-1.08.54v-.45h-.65v3.71ZM189.78,524.15l-.48-.37c-.23.31-.62.54-1.11.54-.85,0-1.42-.6-1.42-1.42h2.86c.03-.11.06-.25.06-.4,0-.93-.65-1.62-1.67-1.62-1.19,0-1.9.88-1.9,2.01s.76,2.01,2.04,2.01c.71,0,1.27-.31,1.62-.77ZM189.07,522.4h-2.24c.14-.62.57-.99,1.19-.99s1.02.45,1.05.99Z"/>
      </g>
      <g>
        <path class="cls-1" d="M381.59,234.96h16.83l10.56,19.12,10.63-19.12h16.83v53.54h-13.62v-34.42l-9.18,16.06h-9.25l-9.18-16.06v34.42h-13.62v-53.54Z"/>
        <path class="cls-1" d="M467.42,290.03c-14.15,0-21.65-9.56-21.65-20.81s6.96-20.81,20.04-20.81c10.94,0,18.13,7.27,18.13,17.75,0,2.6-.38,5.05-.76,6.43h-24.94c1.15,5.2,4.51,6.58,9.1,6.58,3.67,0,6.88-1.45,8.64-3.67l8.57,6.81c-3.67,4.82-9.71,7.73-17.13,7.73ZM458.31,264.03h13.85c-.15-2.6-2.14-5.81-6.66-5.81-3.9,0-6.27,1.91-7.19,5.81Z"/>
        <path class="cls-1" d="M492.2,249.95h12.16v3.14c2.37-2.22,5.35-3.9,9.33-3.9,1.38,0,2.6.23,3.52.54v12.01c-1.3-.31-2.75-.54-4.74-.54-4.44,0-7.34,2.6-8.11,3.9v23.41h-12.16v-38.55Z"/>
        <path class="cls-1" d="M549.5,275.12l9.49,7.19c-3.6,4.74-9.33,7.73-16.45,7.73-13.62,0-21.42-9.56-21.42-20.81s7.8-20.81,21.42-20.81c7.11,0,12.85,2.98,16.45,7.73l-9.49,7.19c-1.38-1.99-3.75-3.52-7.11-3.52-4.97,0-8.64,3.75-8.64,9.41s3.67,9.41,8.87,9.41c3.06,0,5.51-1.53,6.88-3.52Z"/>
        <path class="cls-1" d="M563.42,238.02c0-4.13,3.52-7.65,7.73-7.65s7.57,3.52,7.57,7.65-3.52,7.73-7.57,7.73-7.73-3.6-7.73-7.73ZM564.95,249.95h12.16v38.55h-12.16v-38.55Z"/>
      </g>
    </g>
  </g>
</svg>