<?xml version='1.0' encoding='UTF-8'?>
<svg xmlns="http://www.w3.org/2000/svg" id="bm" data-name="Violence coup de poing" viewBox="0 0 453.54 453.54">
  <defs>
    <style>
      .bu {
        stroke-width: 12px;
      }

      .bu, .bv {
        fill: none;
        stroke: #5F1972;
        stroke-linecap: round;
        stroke-linejoin: round;
      }

      .bv {
        stroke-width: 13px;
      }
    </style>
  </defs>
  <polyline class="bu" points="87.12 152 75.57 55.55 158.98 113.78 258.65 41.33 235.67 121.78 404.46 132 335.12 194.79 404.46 260 350.23 294.43 372.01 366.67 294.23 360.3"/>
  <rect class="bu" x="262.48" y="232.34" width="38.29" height="74.19" rx="19.14" ry="19.14" transform="translate(241.72 -118.27) rotate(40.39)"/>
  <rect class="bu" x="240.39" y="190.56" width="38.29" height="74.19" rx="19.14" ry="19.14" transform="translate(209.38 -113.92) rotate(40.39)"/>
  <path class="bu" d="M206.88,197.6c.36-.53.76-1.04,1.18-1.54l23.27-27.35c6.82-8.02,18.97-9,26.99-2.18h0c8.02,6.82,9,18.97,2.18,26.99l-23.27,27.35c-4.76,5.6-12.11,7.76-18.84,6.25"/>
  <path class="bu" d="M175.23,172.06l19.6-23.03c6.82-8.02,18.97-9,26.99-2.18h0c8.02,6.82,9,18.97,2.18,26.99l-19.6,23.03"/>
  <path class="bv" d="M270.23,303.33s-32.78,40-57.22,62c-26.39,23.75-63.67,13.67-63.67,13.67l-27.44,30-72.44-76.33,28.11-29.11s-7.56-65.56,20.67-100.86l44.62-33.75c8.8-5.52,21.77-5.91,29.45.62l37.93,32.27c9.35,7.95,10.49,22.1,2.54,31.45h0c-7.95,9.35-22.1,10.49-31.45,2.54l-18.87-16.06"/>
  <path class="bv" d="M138.23,227.66s13.29-17.72,25.28-6.97c11.38,10.2,11.38,48.87-14.84,74.65"/>
</svg>
