<?xml version='1.0' encoding='UTF-8'?>
<svg xmlns="http://www.w3.org/2000/svg" id="m" data-name="Valise roulettes" viewBox="0 0 453.54 453.54">
  <defs>
    <style>
      .bu {
        fill: #008280;
        stroke-width: 0px;
      }
    </style>
  </defs>
  <path class="bu" d="M246.09,343.3c-3.25,0-5.89-2.64-5.89-5.89v-148.59c0-3.25,2.64-5.89,5.89-5.89s5.89,2.64,5.89,5.89v148.59c0,3.25-2.64,5.89-5.89,5.89Z"/>
  <path class="bu" d="M208.48,343.3c-3.25,0-5.89-2.64-5.89-5.89v-148.59c0-3.25,2.64-5.89,5.89-5.89s5.89,2.64,5.89,5.89v148.59c0,3.25-2.64,5.89-5.89,5.89Z"/>
  <path class="bu" d="M171.79,343.3c-3.25,0-5.89-2.64-5.89-5.89v-148.59c0-3.25,2.64-5.89,5.89-5.89s5.89,2.64,5.89,5.89v148.59c0,3.25-2.64,5.89-5.89,5.89Z"/>
  <path class="bu" d="M282.85,343.3c-3.25,0-5.89-2.64-5.89-5.89v-148.59c0-3.25,2.64-5.89,5.89-5.89s5.89,2.64,5.89,5.89v148.59c0,3.25-2.64,5.89-5.89,5.89Z"/>
  <path class="bu" d="M280.77,145.82h-22.96V45.46c0-3.25-2.63-5.89-5.89-5.89h-50.68c-3.25,0-5.89,2.63-5.89,5.89v91.21l-19.83-21.38,7.97-12.78c1.72-2.75.89-6.37-1.86-8.1l-62.88-39.56c-1.33-.84-2.93-1.11-4.45-.76-1.52.35-2.85,1.3-3.68,2.62l-19.73,31.61c-1.72,2.76-.87,6.39,1.89,8.11l63.03,39.33c.94.59,2.03.89,3.12.89.44,0,.88-.06,1.33-.16,1.52-.35,2.84-1.3,3.67-2.62l5.14-8.25,18.72,20.17h-17.39c-20.52,0-37.21,16.69-37.21,37.21v160.34c0,19.32,14.8,35.24,33.65,37.03-.6.91-.93,2-.93,3.17v26.92c0,3.25,2.64,5.89,5.89,5.89h36.51c3.25,0,5.89-2.63,5.89-5.89v-26.92c0-1.09-.29-2.11-.82-2.99h26.53c-.52.87-.82,1.9-.82,2.99v26.92c0,3.25,2.63,5.89,5.89,5.89h36.51c3.24,0,5.88-2.63,5.88-5.89v-26.92c0-1.27-.4-2.45-1.08-3.4,17.91-2.67,31.69-18.16,31.69-36.8v-160.34c0-20.52-16.69-37.21-37.21-37.21ZM157.05,122.67l-53.04-33.1,13.48-21.6,52.92,33.29-13.36,21.41ZM207.13,61.41h38.91v84.38h-38.91V61.41ZM202.41,404.61h-24.73v-15.15h24.73v15.15ZM275.6,404.61h-24.74v-15.15h24.74v15.15ZM306.2,343.37c0,14.03-11.4,25.44-25.43,25.44h-110.37c-14.03,0-25.44-11.41-25.44-25.44v-160.34c0-14.03,11.41-25.44,25.44-25.44h110.37c14.03,0,25.43,11.41,25.43,25.44v160.34Z"/>
  <circle class="bu" cx="154.4" cy="106" r="6.53"/>
</svg>
