<?xml version='1.0' encoding='UTF-8'?>
<svg xmlns="http://www.w3.org/2000/svg" id="p" data-name="Bateau face" viewBox="0 0 453.54 453.54">
  <defs>
    <style>
      .z {
        stroke-linecap: round;
        stroke-linejoin: round;
      }

      .z, .aa {
        fill: none;
        stroke: #008280;
        stroke-width: 12px;
      }

      .aa {
        stroke-miterlimit: 10;
      }
    </style>
  </defs>
  <polyline class="z" points="119.93 235.54 126.38 125.11 329.66 125.11 336.11 235.54"/>
  <rect class="z" x="163.98" y="100.88" width="128.07" height="23.11"/>
  <rect class="z" x="202.36" y="64.99" width="51.31" height="34.72"/>
  <g>
    <rect class="z" x="150.96" y="148.97" width="34.96" height="23.3"/>
    <rect class="z" x="210.54" y="148.97" width="34.96" height="23.3"/>
    <rect class="z" x="270.12" y="148.97" width="34.96" height="23.3"/>
  </g>
  <g>
    <path class="aa" d="M417.47,408.26c-12.44.4-24.05-2.46-35.43-7.8-8.33-3.91-16.74-8.23-25.43-10.21-16.93-3.87-33.72-2.21-49.72,6.61-28.51,15.72-56.92,15.48-85.59.18-22.63-12.08-45.71-12.08-68.32-.04-28.68,15.28-57.05,15.63-85.59-.09-9.16-5.04-18.75-7.98-28.83-8.2"/>
    <path class="aa" d="M335.38,339.07l19.19-82.52c1.59-7.11-2.24-14.31-9.02-16.96l-118.85-46.5-116.34,46.72c-6.39,2.57-10.16,9.22-9.07,16.02l17.09,102.93"/>
    <path class="aa" d="M417.47,358.9c-12.44.4-24.05-2.46-35.43-7.8-8.33-3.91-16.74-8.23-25.43-10.21-7.12-1.63-14.56-2.26-21.58-1.81h.35c-9.68.62-19.22,3.31-28.49,8.43-28.51,15.72-56.92,15.48-85.59.18-22.63-12.08-45.71-12.08-68.32-.04-11.57,6.17-23.45,9.9-34.95,11.13h.35c-17,1.82-33.97-1.84-50.99-11.21-9.16-5.04-18.75-7.98-28.83-8.2"/>
  </g>
</svg>
