<?xml version='1.0' encoding='UTF-8'?>
<svg xmlns="http://www.w3.org/2000/svg" id="u" data-name="Randonneé" viewBox="0 0 453.54 453.54">
  <defs>
    <style>
      .bu {
        fill: #144179;
        stroke-width: 0px;
      }
    </style>
  </defs>
  <path class="bu" d="M83.05,201.66c2.39,1.2,4.79,1.6,7.18,1.6,5.58,0,10.77-2.79,13.56-7.98l16.35-30.71c1.6-3.19,3.99-5.58,7.18-7.58,1.2-.8,1.99-1.2,3.19-1.99l-9.57,43.07c-3.19,13.96,3.59,27.52,16.35,33.5l-29.51,98.9v.8l18.74,2.39h.8c1.6,0,2.79-.8,3.99-1.6l18.74-19.94,19.94-67.4,23.13,9.17c.8.4,1.2.8,1.2,1.6l6.38,38.68h35.49l-7.18-44.27c-1.99-12.76-10.77-23.53-22.73-28.32l-26.32-10.37,14.36-47.86c1.2,1.6,2.39,3.19,3.59,4.79,5.58,8.38,14.76,13.96,24.73,15.55l27.92,4.39,11.96,91.33,11.96-7.58-11.17-85.35c3.99-2.39,6.78-5.98,7.18-10.77,1.2-7.58-3.59-14.76-10.77-16.75l-1.2-7.98c-.4-3.59-3.59-5.98-7.18-5.58-3.59.4-5.98,3.59-5.58,7.18l.8,4.39-20.34-3.19c-1.6-.4-3.19-1.2-4.39-2.79-25.92-37.89-31.11-39.88-38.68-40.28l-25.13-1.6c-4.79-.4-9.17-.8-46.66,21.54-7.98,4.79-14.36,11.57-18.74,19.54l-16.35,30.71c-3.19,7.58-.4,16.75,6.78,20.74Z"/>
  <circle class="bu" cx="175.56" cy="67.9" r="33.9"/>
  <path class="bu" d="M400.9,383.92l-51.45-49.85c-.8-.8-1.6-1.99-2.39-2.79l-31.51-47.86c-6.38-9.57-19.14-12.36-28.71-6.38l-45.46,27.92-62.61.4c-4.79,0-9.17,1.99-12.36,5.18l-27.92,29.11c-3.59,3.99-9.17,5.98-14.36,5.18l-37.49-5.18c-6.78-.8-13.56,2.39-17.15,8.77l-21.54,39.08c-5.98,11.17,1.99,25.13,14.76,25.13h325.43c6.38,0,12.76-3.19,15.55-8.77,3.99-6.78,2.39-14.76-2.79-19.94Z"/>
</svg>
