<?xml version='1.0' encoding='UTF-8'?>
<svg xmlns="http://www.w3.org/2000/svg" id="w" data-name="Tennis" viewBox="0 0 453.54 453.54">
  <defs>
    <style>
      .bu {
        stroke-width: 0px;
      }

      .bu, .bv {
        fill: #144179;
      }

      .bv {
        stroke: #144179;
        stroke-miterlimit: 10;
        stroke-width: 5px;
      }
    </style>
  </defs>
  <path class="bu" d="M261.33,217.47c-7.62-6.56-14.85-12.79-22.9-19.73,1.3-3.01,13.52-28.11,15.45-32.49,9.54-21.64,19.01-43.31,28.67-64.9,4.16-9.31,13.3-12.38,21.23-7.49,5.46,3.37,8.73,10.17,6.21,16.06-12.64,29.58-36.03,79.69-48.66,108.54Z"/>
  <path class="bu" d="M351.27,56.42c-.89,8.02-4.35,13.79-10.96,15.8-13.9,4.24-25.04-6.58-21.48-20.67,1.76-6.97,7.28-11.12,15.63-11.3,10.46-.22,15.48,6.27,16.81,16.16Z"/>
  <path class="bu" d="M171.68,158.89c-2.46-19.71,13.88-36.23,33.63-34,13.42,1.51,24.47,12.36,26.28,25.75,2.7,19.98-13.95,36.83-33.88,34.32-13.41-1.69-24.35-12.66-26.02-26.07Z"/>
  <path class="bu" d="M290.67,335.49c-8.18-39.87-16.04-79.81-24.9-119.52-5.91-26.52-28.5-35.53-51.99-21.77-2.48,1.45-4.89,3.03-7.34,4.54-9.85,6.09-19.71,12.17-29.97,18.51-1.61-1.6-3.21-3.19-4.8-4.77-4.77-5.18-34.04-33.62-41.28-40.52-4.64-4.42-12.15-3.73-17.22.2-7.36,5.72-7.68,15.35-.41,22.51,6.26,6.16,40.52,40.68,49.01,49.89,6.18,6.71,13.06,7.58,20.85,2.89,6.99-4.21,13.92-8.52,21.08-12.91.56,1.17,1.09,1.91,1.28,2.73,4.5,20.07,8.99,40.14,13.35,60.24.34,1.59-.02,3.52-.6,5.1-7.23,19.71-14.07,39.54-28.01,56-6.84,8.08-12.53,17.15-18.63,25.85-6.56,9.35-5.3,19.85,2.97,25.89,8.23,6,18.87,3.92,25.55-5.11,3.95-5.34,7.76-10.78,11.6-16.2,12.86-18.19,27.51-35.31,33.38-57.61,1.22-4.62,3.52-8.96,6.04-15.17,2.17,11.42,5.75,20.51,2.42,30.88-4.33,13.45-7.41,27.31-10.88,41.03-.8,3.17-1.55,6.56-1.29,9.77.7,8.48,7.34,14.86,15.5,15.58,9.35.83,16.6-4.13,19.19-13.74,5.12-19,10.03-38.07,14.88-57.14.58-2.27.68-4.87.21-7.15Z"/>
  <path class="bv" d="M179.45,59.75c-6.64-3.44-14.56-3.98-22.3-1.53-9.92,3.15-18.63,10.79-23.91,20.97-5.31,10.24-6.28,21.38-3.58,30.74.87,5.78,1.94,15.09,1.3,22.4-.81,9.16-5.67,19.6-7.41,23.06h-.02c-1.05.61-1.94,1.54-2.56,2.72l-11.44,22.07c-1.49,2.88-.75,6.25,1.67,7.5l2.88,1.49c1.04.52,2.26.61,3.45.24,1.5-.48,2.85-1.64,3.64-3.2l11.44-22.07c.53-1.02.79-2.13.77-3.2,0-.02.01-.03.01-.03,1.59-3.01,7.49-13.55,14.75-19.68,5.8-4.9,14.39-9.52,19.58-12.1,9.32-3.41,17.46-10.74,22.48-20.42,4.71-9.09,6.21-19.18,4.21-28.41-2.01-9.3-7.33-16.61-14.96-20.56ZM131.18,160.32c.12.58.09,1.21-.07,1.81-.09.35-.21.71-.4,1.05l-11.44,22.07c-.52,1.04-1.43,1.85-2.39,2.16-.46.15-1.16.25-1.82-.11l-2.88-1.49c-1.35-.7-1.69-2.81-.76-4.62l11.44-22.07c.19-.36.4-.68.66-.97.49-.57,1.09-.99,1.73-1.19.06-.02.15-.05.24-.05.44-.12,1.03-.14,1.59.16l.33.17.58.3,1.28.65.61.33.1.04c.47.26.84.7,1.04,1.25.07.16.13.33.17.52ZM128.33,155.31l-.27-.14c-.55-.28-1.18-.45-1.82-.46,2.18-4.61,6.09-13.84,6.84-22.19.41-4.78.12-10.35-.37-15.29.7,1.22,1.5,2.36,2.36,3.45.32,4.01.46,8.22.12,12.04-.73,8.54-4.55,17.7-6.85,22.59ZM137.36,123.26c1.93,1.93,4.12,3.6,6.62,4.9,2.48,1.28,5.13,2.16,7.89,2.63-2.77,1.73-5.49,3.6-7.84,5.59-4.11,3.46-7.7,7.97-10.52,12.1,1.71-4.65,3.32-10.21,3.8-15.59.27-3.07.24-6.38.06-9.63ZM146.78,139.62c-6.42,5.43-11.77,14.08-14.27,18.52-.36-.64-.91-1.13-1.57-1.48l-.05-.03c2.67-4.68,7.96-13.08,14.51-18.62,2.95-2.49,6.49-4.81,9.97-6.86,1.41.06,2.83.02,4.26-.11-4.36,2.46-9.14,5.45-12.85,8.58ZM192.33,80.76c1.89,8.75.47,18.33-4.02,26.98-5.02,9.68-13.28,16.94-22.67,19.92-7.2,2.28-14.55,1.79-20.68-1.39-14.66-7.6-19.08-28.29-9.84-46.11,5.02-9.68,13.28-16.94,22.67-19.92,7.2-2.28,14.55-1.79,20.68,1.39,7.06,3.66,11.98,10.45,13.86,19.12Z"/>
</svg>
