<?xml version='1.0' encoding='UTF-8'?>
<svg xmlns="http://www.w3.org/2000/svg" id="aq" data-name="Mouvement" viewBox="0 0 453.54 453.54">
  <defs>
    <style>
      .bu {
        fill: #144179;
        stroke-width: 0px;
      }
    </style>
  </defs>
  <path class="bu" d="M314.72,169.66c-.64-2.75-2.21-5.02-4.28-6.55-.82-.93-1.79-1.74-2.9-2.41l-43.07-19.97c-2.27-1.35-17.7-59.05-17.7-59.05l51.52-17.65c5.77-1.98,8.89-8.4,6.97-14.34l-.9-2.78c-1.92-5.95-8.14-9.16-13.91-7.19l-65.05,22.29c-5.77,1.98-8.89,8.4-6.97,14.34l.9,2.78c.36,1.1.86,2.11,1.48,3.02.08.4.19.8.31,1.19l25.02,77.67-54.4,97.16.4.24c-.35.5-.68,1.01-.98,1.56l-72.66,129.79c-4.7,8.4-1.91,19.15,6.24,24h0c8.15,4.85,18.57,1.97,23.27-6.43l66.67-119.08c3.74-1.04,8.24-.56,11.7,1.01l43.07,115.59c3.38,9.06,13.23,13.58,22.01,10.1,8.78-3.48,13.17-13.64,9.79-22.7l-43.69-117.25,4.37-7.8,60.49-15.03c.41-.1.81-.23,1.2-.38,5.33-1.86,8.49-7.64,7.15-13.39l-16.06-68.72ZM297.23,204.15l6.16,26.38-24.32,6.04,18.15-32.42Z"/>
  <path class="bu" d="M305.99,81.2h0c-15.96,0-29.02,13.47-29.02,29.93s13.06,29.93,29.02,29.93h0c15.96,0,29.02-13.47,29.02-29.93s-13.06-29.93-29.02-29.93Z"/>
</svg>
