<?xml version='1.0' encoding='UTF-8'?>
<svg xmlns="http://www.w3.org/2000/svg" id="af" data-name="Danser" viewBox="0 0 453.54 453.54">
  <defs>
    <style>
      .bu {
        fill: #144179;
        stroke-width: 0px;
      }
    </style>
  </defs>
  <circle class="bu" cx="218.04" cy="88.99" r="33.45"/>
  <path class="bu" d="M330.47,58.33l-18.01,60.27c-.64,2.23-1.84,4.14-3.39,5.64-.02.03-.03.04-.05.06-.64.8-1.38,1.55-2.22,2.21l-45.13,35.42c-.66.52-1.35.96-2.07,1.34v111.07l25.38,39.41c2.53,3.93,3.34,8.48,2.61,12.75v.05c-.03.67-.1,1.34-.2,2.01l-11.37,74.69c-1.5,9.85-10.69,16.61-20.54,15.11-9.84-1.49-16.61-10.69-15.11-20.53l10.68-70.17-25.16-39.07-9.76-15.15s-.02-.03-.02-.04l-3.63,15.19-27.78,116.3c-2.32,9.69-12.05,15.66-21.73,13.35-9.69-2.31-15.66-12.04-13.35-21.73l29.13-121.95v-101.53l-24.9,16.03-5.07,55.73c-.57,7.05-6.75,12.31-13.81,11.73l-1.22-.1c-7.05-.57-12.31-6.75-11.74-13.8l5.7-62.65c.29-3.56,2-6.66,4.54-8.78.15-.13.3-.25.46-.37.35-.29.72-.55,1.1-.8l48.24-31.06c1.6-1.03,3.34-1.68,5.1-1.96,1.21-.4,2.5-.62,3.85-.62h56.35c1.01,0,1.99.12,2.93.36l37.54-29.48h.01l16.84-56.37c1.96-6.8,9.06-10.72,15.86-8.76l1.18.34c6.8,1.96,10.72,9.06,8.76,15.86Z"/>
</svg>
