<?xml version='1.0' encoding='UTF-8'?>
<svg xmlns="http://www.w3.org/2000/svg" id="v" data-name="Foot" viewBox="0 0 453.54 453.54">
  <defs>
    <style>
      .bu {
        fill: #144179;
        stroke-width: 0px;
      }
    </style>
  </defs>
  <path class="bu" d="M192.18,262.07c-.4.83-.64,1.3-.86,1.78-7.57,16.54-15.17,33.07-22.7,49.63-4.55,10.01-13.67,14.58-24.42,11.9-27.51-6.84-55-13.71-82.48-20.64-11.28-2.84-17.77-13.54-15.06-24.54,2.69-10.9,13.57-17.28,24.86-14.49,16.26,4.02,32.5,8.12,48.75,12.18,5.79,1.45,11.58,2.89,17.29,4.31,15.72-37.97,31.35-75.72,47.14-113.87-6.79,1.72-13.17,3.3-19.51,5.02-.67.18-1.28,1.18-1.62,1.94-5.74,12.88-11.42,25.78-17.15,38.66-4.85,10.92-16.48,15.6-26.98,10.92-10.35-4.62-14.61-16.39-9.83-27.23,7.16-16.23,14.38-32.43,21.5-48.67,2.85-6.5,7.63-10.6,14.5-12.32,10.37-2.6,20.73-5.2,31.09-7.84,15.2-3.88,30.4-7.75,45.58-11.74,14.94-3.93,30.76,1.37,40.05,13.5,10.89,14.21,21.84,28.36,32.71,42.57.99,1.29,2.02,1.73,3.61,1.72,14.41-.06,28.82-.06,43.23,0,2.03,0,4.12.16,6.08.65,9.96,2.45,16.21,11.78,15,22.19-1.14,9.85-9.71,17.38-20.14,17.43-18.66.08-37.31.05-55.97,0-6.89-.01-12.45-2.83-16.66-8.32-3.46-4.52-6.94-9.01-10.42-13.51-.38-.5-.83-.95-1.37-1.55-.27.59-.45.92-.58,1.27-6.67,18.06-13.31,36.13-20.03,54.17-.52,1.39-.15,2.2.71,3.21,11.95,14.03,23.84,28.11,35.79,42.14,3.28,3.85,5.15,8.23,5.16,13.28.04,30.64.05,61.28,0,91.92-.01,6.09-2.44,11.27-7.17,15.13-6.46,5.28-13.75,6.35-21.31,2.89-7.64-3.51-11.71-9.82-11.74-18.24-.11-26.62-.02-53.24-.1-79.86,0-1.28-.56-2.84-1.4-3.8-14.51-16.63-29.1-33.19-43.67-49.76-.54-.61-1.1-1.19-1.87-2.02ZM216.26,72.81c-.08-19.45,15.5-35.2,34.96-35.34,19.33-.14,35.24,15.65,35.29,35.03.05,19.46-15.58,35.24-34.98,35.32-19.42.08-35.19-15.58-35.27-35.01Z"/>
  <path class="bu" d="M401.78,366.93c-.05-20.84-17.04-37.74-37.83-37.63-20.85.11-37.64,17.04-37.59,37.9.05,20.82,17,37.66,37.86,37.61,20.81-.05,37.61-16.99,37.56-37.88Z"/>
</svg>
