<?xml version='1.0' encoding='UTF-8'?>
<svg xmlns="http://www.w3.org/2000/svg" id="as" data-name="Hockey" viewBox="0 0 453.54 453.54">
  <defs>
    <style>
      .bu {
        fill: none;
        stroke: #144179;
        stroke-linecap: round;
        stroke-linejoin: round;
        stroke-width: 12px;
      }
    </style>
  </defs>
  <polygon class="bu" points="180.49 303.04 305.26 157.96 329.08 178.67 207.11 326.17 180.49 303.04"/>
  <polygon class="bu" points="195.16 339.73 187.44 349.07 160.47 325.63 168.37 316.45 195.16 339.73"/>
  <polygon class="bu" points="316.17 143.94 324.42 134.75 347.89 155.15 339.82 164.49 316.17 143.94"/>
  <polygon class="bu" points="132.56 144.55 108.92 165.11 101.19 155.77 124.66 135.36 132.56 144.55"/>
  <polygon class="bu" points="55.39 52.75 114.3 121.25 91.01 141.5 42.49 82.83 55.39 52.75"/>
  <polygon class="bu" points="121.22 179.02 145.04 158.31 209.6 234.82 187.32 260.72 121.22 179.02"/>
  <path class="bu" d="M142.48,403.49c-3.45,4.18-8.59,6.6-14.01,6.59h-55.95c-7.83,0-14.77-5-17.24-12.43l-10.01-29.98h76.44c1.77,0,3.44-.77,4.24-2.11l23.11-26.87,27.5,23.6-34.07,41.2Z"/>
  <polygon class="bu" points="261.11 340.09 287.9 316.8 295.8 325.98 268.84 349.43 261.11 340.09"/>
  <path class="bu" d="M334.58,367.67h76.42l-10,29.98c-2.47,7.43-9.42,12.44-17.24,12.43h-55.95c-5.42,0-10.56-2.41-14.01-6.59l-34.07-41.2,27.15-23.6,23.11,26.87c1.15,1.34,2.83,2.11,4.6,2.11h0Z"/>
  <polygon class="bu" points="277.19 303.04 250.57 326.17 239.51 312.8 262.1 285.49 277.19 303.04"/>
  <polygon class="bu" points="359.81 141.52 336.52 121.27 395.08 52.77 407.98 82.85 359.81 141.52"/>
  <path class="bu" d="M232.13,357.66c-15.06,0-27.27,12.21-27.27,27.27s12.21,27.27,27.27,27.27,27.27-12.21,27.27-27.27c-.02-15.05-12.21-27.25-27.27-27.27Z"/>
</svg>
