<?xml version='1.0' encoding='UTF-8'?>
<svg xmlns="http://www.w3.org/2000/svg" id="m" data-name="Services aux particuliers_3" viewBox="0 0 453.54 453.54">
  <defs>
    <style>
      .ak {
        fill: none;
        stroke: #008280;
        stroke-linecap: round;
        stroke-linejoin: round;
        stroke-width: 12px;
      }

      .al {
        fill: #008280;
      }

      .al, .am {
        stroke-width: 0px;
      }

      .am {
        fill: #fff;
      }
    </style>
  </defs>
  <g>
    <path class="ak" d="M105.47,280.93l84.42-2.42c.51-.02,1,.16,1.38.5l41.2,37.09c.55.5,1.27.77,2.01.77l65.47-.18c10.29-.03,18.75,8.13,19.09,18.41h0c.35,10.38-7.68,19.12-18.05,19.66l-75.33,3.91"/>
    <path class="ak" d="M318.11,341.66s53.97-17.97,79.44-26.08c6.59-2.1,13.72.91,16.81,7.1h0c3.51,7.01.6,15.55-6.46,18.95l-105.61,57.54c-22.63,12.33-49.37,14.7-73.82,6.54l-122.99-40.68"/>
    <rect class="al" x="38.36" y="250.68" width="76.27" height="151.24"/>
    <circle class="am" cx="78.7" cy="359.87" r="14.5"/>
  </g>
  <g>
    <circle class="al" cx="249.25" cy="84.66" r="22.92"/>
    <path class="al" d="M261.82,272.87h-25.05c-2.94,0-5.39-1.76-5.61-4.04l-7.17-73.86,7.05-54.28c.29-2.23,2.71-3.93,5.6-3.93h25.3c2.9,0,5.32,1.71,5.6,3.95l6.77,54.52-6.88,73.58c-.21,2.28-2.66,4.05-5.61,4.05Z"/>
    <path class="al" d="M283.33,196.34l-34.47,11.4-33.75-11.39c-1.7-.57-2.84-2.17-2.84-3.96v-49.99c0-15,12.16-27.16,27.16-27.16h19.62c15,0,27.16,12.16,27.16,27.16v49.97c0,1.8-1.16,3.4-2.87,3.97Z"/>
  </g>
  <g>
    <circle class="al" cx="342.11" cy="85.2" r="22.92"/>
    <path class="al" d="M354.67,272.65h-25.05c-2.94,0-5.39-1.76-5.61-4.04l-7.17-73.86,7.05-54.28c.29-2.23,2.71-3.93,5.6-3.93h25.3c2.9,0,5.32,1.71,5.6,3.95l6.77,54.52-6.88,73.58c-.21,2.28-2.66,4.05-5.61,4.05Z"/>
    <path class="al" d="M376.05,197l-33.01,10.92c-.86.28-1.79.28-2.65,0l-32.29-10.89c-1.66-.56-2.83-2.24-2.97-4.19-.02-.26,0-.53.04-.79l7.61-50.72c2.19-14.63,14.76-25.45,29.56-25.45h0c14.9,0,27.53,10.98,29.6,25.74l7.07,50.43c.03.25.06.5.04.75-.13,1.97-1.32,3.67-2.99,4.22Z"/>
  </g>
</svg>
