<?xml version='1.0' encoding='UTF-8'?>
<svg xmlns="http://www.w3.org/2000/svg" id="aj" data-name="Toque" viewBox="0 0 453.54 453.54">
  <defs>
    <style>
      .ak {
        fill: none;
        stroke: #008280;
        stroke-linecap: round;
        stroke-linejoin: round;
        stroke-width: 12px;
      }
    </style>
  </defs>
  <path class="ak" d="M346.01,411.33c0-4.49.22-113.4-.19-165.13-.08-10.02,4.23-16.08,13.58-18.39,29.69-7.35,49.5-27.02,56-60.01,6.71-34.11-4.24-61.66-29.77-81.94-30.19-23.98-72.38-24.72-104.02-2.57-3.51,2.46-6.93,5.05-10.29,7.51-.64-.49-1.05-.68-1.32-1.02-.83-1.04-1.63-2.1-2.39-3.2-20.58-29.58-48.3-42.21-81.65-39.21-30.13,2.71-54.15,17.66-69.04,47.32-3.18,6.33-5.07,13.61-6.55,20.71-1.13,5.43-2.63,8.47-8.3,8.43-4.35-.03-8.77,1.1-13.06,2.17-30.92,7.74-51.4,37.02-48.4,69,2.37,25.2,22.01,48.04,47.92,54.88,8.08,2.13,16.51,2.7,25.52,4.09v157.11c77.46-11.05,154.17-13.16,231.95.25Z"/>
  <line class="ak" x1="231.97" y1="252.11" x2="231.97" y2="319.24"/>
  <line class="ak" x1="290.61" y1="273.99" x2="290.61" y2="316.32"/>
  <line class="ak" x1="173.32" y1="273.99" x2="173.32" y2="316.32"/>
  <path class="ak" d="M114.15,366.99c77.46-11.05,154.17-13.16,231.95.25"/>
</svg>
