<?xml version='1.0' encoding='UTF-8'?>
<svg xmlns="http://www.w3.org/2000/svg" id="bg" data-name="Perso homme de menage" viewBox="0 0 453.54 453.54">
  <defs>
    <style>
      .ca {
        fill: #008280;
        stroke-width: 0px;
      }
    </style>
  </defs>
  <circle class="ca" cx="206.03" cy="78.87" r="34"/>
  <path class="ca" d="M297.9,245.27c-6.04,3.48-13.75,1.41-17.24-4.62l-32.08-55.57-.05,24.06c.11.79.16,1.61.16,2.43v183.72c0,10.16-8.23,18.37-18.37,18.37s-18.37-8.22-18.37-18.37v-132.3h-11.46v132.33c0,10.15-8.22,18.37-18.36,18.37h-.01c-10.15,0-18.36-8.23-18.36-18.37v-209.67l-10.74,18.61c-.79,1.37-1.8,2.54-2.96,3.48-1.39,1.69-3.25,3.04-5.47,3.84l-47.74,16.92-8.98,3.19c-1.06.38-2.13.6-3.2.68-5.48.44-10.78-2.82-12.71-8.26l-.1-.28c-2.3-6.48,1.1-13.62,7.58-15.91l5.24-1.86v-78.66c0-.89.19-1.73.54-2.5h-36.85c-4.42,0-8-3.58-8-8,0-1.92.77-3.64,2.03-4.9,1.25-1.26,2.97-2.03,4.89-2.03h89.45c3.82,0,6.93,3.1,6.93,6.93,0,2.21-.89,4.21-2.34,5.66s-3.45,2.34-5.66,2.34h-39.34c.34.76.54,1.6.54,2.5v74.34l35.83-12.71,31.32-54.25c.98-4.35,4.87-7.61,9.53-7.61h65.41c4.4,0,8.13,2.91,9.34,6.92l54.25,93.95c3.48,6.04,1.42,13.75-4.62,17.24Z"/>
  <path class="ca" d="M96.84,228.5v177.08c0,3.36-2.72,6.09-6.09,6.09s-6.09-2.73-6.09-6.09v-173.22c1.07-.08,2.14-.3,3.2-.68l8.98-3.19Z"/>
  <path class="ca" d="M53.45,78.85h77.1c7.23,0,13.11,5.87,13.11,13.11v13.65H40.34v-13.65c0-7.23,5.87-13.11,13.11-13.11Z"/>
  <path class="ca" d="M383.17,413.67h-51.05c-2.7,0-4.96-2.04-5.23-4.73l-8.26-80.96c-.32-3.1,2.12-5.79,5.23-5.79h70.88c3.2,0,5.66,2.84,5.21,6l-11.57,80.96c-.37,2.59-2.59,4.52-5.21,4.52Z"/>
  <path class="ca" d="M411.38,332.63c-3.36,0-6.09-2.73-6.09-6.09,0-24.95-20.3-45.25-45.25-45.25s-45.25,20.3-45.25,45.25c0,3.36-2.73,6.09-6.09,6.09s-6.09-2.73-6.09-6.09c0-31.67,25.76-57.43,57.43-57.43s57.43,25.76,57.43,57.43c0,3.36-2.73,6.09-6.09,6.09Z"/>
</svg>
