<?xml version='1.0' encoding='UTF-8'?>
<svg xmlns="http://www.w3.org/2000/svg" id="j" data-name="Gaz" viewBox="0 0 453.54 453.54">
  <defs>
    <style>
      .ak {
        fill: none;
      }

      .ak, .al {
        stroke: #008280;
        stroke-linecap: round;
        stroke-linejoin: round;
        stroke-width: 12px;
      }

      .al {
        fill: #008280;
      }
    </style>
  </defs>
  <path class="ak" d="M200.2,41.63c-5.37,58.07-24.45,101.4-68.52,161.91-46.74,64.17-28.74,116.13-9.4,149.14,26.34,44.96,90.55,65.43,138.39,53.74,159.52-38.96,76.97-260.49,64.02-263.39-11.22,80.61-16.99,89.03-47.9,119.62,3.49-59.05,6.72-162.96-76.58-221.03Z"/>
  <path class="al" d="M218.46,268.59c-2.06,22.26-9.37,38.87-26.26,62.06-17.91,24.59-11.02,44.51-3.6,57.16,10.1,17.23,34.71,25.08,53.04,20.6,61.14-14.93,29.5-99.84,24.54-100.95-4.3,30.9-6.51,34.12-18.36,45.85,1.34-22.63,2.57-62.46-29.35-84.72Z"/>
</svg>
