<?xml version='1.0' encoding='UTF-8'?>
<svg xmlns="http://www.w3.org/2000/svg" id="q" data-name="Chimie" viewBox="0 0 453.54 453.54">
  <defs>
    <style>
      .ak {
        fill: #008280;
        stroke-width: 0px;
      }
    </style>
  </defs>
  <path class="ak" d="M410.49,59.04c0-10.71-8.71-19.42-19.42-19.42h-80.85c-10.71,0-19.42,8.71-19.42,19.42,0,8.43,5.41,15.6,12.93,18.28v240.01l-63.79-122.06v-118.24c7.12-2.88,12.16-9.86,12.16-18,0-10.71-8.71-19.42-19.42-19.42h-80.85c-10.71,0-19.42,8.71-19.42,19.42,0,8.72,5.78,16.11,13.7,18.56v117.66l-92.19,173.54c-5.31,9.98-4.99,21.73.83,31.42,5.83,9.69,16.05,15.48,27.36,15.48h220.33c8.18,0,15.73-3.03,21.55-8.42,7.82,5.43,17.07,8.42,26.66,8.42,25.87,0,46.91-21.05,46.91-46.91V77.32c7.52-2.68,12.93-9.85,12.93-18.28ZM385.18,275.28h-69.05V78.46h69.05v196.82ZM227.56,190.6h-69.05v-112.14h69.05v112.14ZM230.35,203.65l37.44,71.64H117.64l38.06-71.64h74.65ZM151.84,52.01h80.85c3.88,0,7.03,3.15,7.03,7.03s-3.15,7.03-7.03,7.03h-80.85c-3.88,0-7.03-3.15-7.03-7.03s3.15-7.03,7.03-7.03ZM318.25,395.23h0c-3.7,5.13-9.47,8.07-15.81,8.07H82.12c-6.92,0-13.18-3.54-16.74-9.47-3.56-5.93-3.75-13.11-.51-19.22l46.19-86.94h163.2l30.18,57.76,15.31,29.3c3.44,6.59,2.87,14.45-1.5,20.5ZM350.65,403.3c-6.92,0-13.63-2.09-19.32-5.96.03-.07.06-.15.09-.23.45-.98.86-1.97,1.2-2.98.06-.18.12-.37.18-.55.34-1.05.64-2.1.87-3.17,0,0,0-.01,0-.02.23-1.07.38-2.15.5-3.24.02-.2.05-.4.06-.6.09-1.05.13-2.1.12-3.15,0-.2-.01-.39-.02-.59-.03-1.09-.1-2.18-.25-3.26,0,0,0,0,0-.01-.15-1.09-.37-2.16-.63-3.24-.05-.2-.09-.4-.14-.59-.27-1.03-.59-2.05-.97-3.06-.07-.19-.15-.38-.23-.58-.41-1.04-.87-2.08-1.39-3.09l-14.61-27.95v-53.37h69.05v81.1c0,19.04-15.49,34.53-34.53,34.53ZM391.08,66.07h-80.85c-3.88,0-7.03-3.15-7.03-7.03s3.15-7.03,7.03-7.03h80.85c3.88,0,7.03,3.15,7.03,7.03s-3.15,7.03-7.03,7.03Z"/>
  <circle class="ak" cx="145.86" cy="338.05" r="19.21"/>
  <circle class="ak" cx="226.21" cy="324.08" r="13.97"/>
</svg>
