<?xml version='1.0' encoding='UTF-8'?>
<svg xmlns="http://www.w3.org/2000/svg" id="y" data-name="Immobilier" viewBox="0 0 453.54 453.54">
  <defs>
    <style>
      .ak {
        stroke: #008280;
      }

      .ak, .al {
        fill: none;
        stroke-linecap: round;
        stroke-linejoin: round;
        stroke-width: 12px;
      }

      .al {
        stroke: #008280;
      }
    </style>
  </defs>
  <g>
    <line class="al" x1="258.57" y1="198.05" x2="380.53" y2="198.05"/>
    <polygon class="al" points="319.16 75.29 294.48 98.95 294.48 86.22 272.7 86.22 272.7 119.56 272.97 119.56 258.1 133.82 271.2 133.82 271.2 198.05 367.4 198.05 367.4 133.82 380.22 133.82 319.16 75.29"/>
    <rect class="al" x="302.65" y="147.86" width="33.18" height="50.19"/>
    <ellipse class="al" cx="319.15" cy="118.19" rx="12.76" ry="12.93"/>
  </g>
  <path class="al" d="M407.15,46.66h-171.56c-6.6,0-12,5.4-12,12v148.11c0,6.6,5.4,12,12,12h18.22v31.56l27.15-31.56h126.18c6.6,0,12-5.4,12-12V58.66c0-6.6-5.4-12-12-12Z"/>
  <g>
    <path class="ak" d="M253.01,421.08s3.59-89.21-81.76-89.21l-26.93,22.3-26.93-22.3s-77.48-6.58-81.76,89.21h217.38Z"/>
    <ellipse class="ak" cx="146.38" cy="251.07" rx="53.29" ry="54.75"/>
    <polyline class="ak" points="144.32 354.18 119.76 374.1 142.04 421.08"/>
    <polyline class="ak" points="144.66 354.18 169.21 374.1 146.93 421.08"/>
  </g>
</svg>
