<?xml version='1.0' encoding='UTF-8'?>
<svg xmlns="http://www.w3.org/2000/svg" id="x" data-name="Industrie" viewBox="0 0 453.54 453.54">
  <defs>
    <style>
      .ak {
        fill: #fff;
        stroke: #008280;
        stroke-linecap: round;
        stroke-linejoin: round;
        stroke-width: 12px;
      }
    </style>
  </defs>
  <line class="ak" x1="391.39" y1="416.71" x2="38.63" y2="416.71"/>
  <polygon class="ak" points="369.17 415.2 343.39 246.28 252.28 246.28 222.06 415.2 369.17 415.2"/>
  <polygon class="ak" points="56.72 416.71 89.61 164.09 210.06 164.09 245.17 415.2 56.72 416.71"/>
  <rect class="ak" x="74.5" y="144.82" width="150.22" height="25.7" rx="12.85" ry="12.85"/>
  <rect class="ak" x="242.06" y="219.81" width="111.22" height="25.7" rx="12.85" ry="12.85"/>
  <path class="ak" d="M254.92,46.66c-11.1,0-20.83,5.83-26.31,14.59-3.25-1.53-6.88-2.39-10.71-2.39-10.9,0-20.18,6.94-23.66,16.65-.49-.04-.98-.07-1.47-.07-11.24,0-20.35,9.11-20.35,20.35s9.11,20.35,20.35,20.35c6.83,0,12.85-3.37,16.55-8.53,2.68.97,5.57,1.51,8.58,1.51,6.87,0,13.09-2.76,17.63-7.22,5.31,4.26,12.05,6.82,19.39,6.82,17.13,0,31.02-13.89,31.02-31.02s-13.89-31.02-31.02-31.02Z"/>
  <path class="ak" d="M388.33,133.29c-9.99,0-18.74,5.25-23.68,13.13-2.92-1.38-6.19-2.16-9.64-2.16-9.81,0-18.16,6.25-21.29,14.98-.44-.03-.88-.07-1.33-.07-10.12,0-18.32,8.2-18.32,18.32s8.2,18.32,18.32,18.32c6.14,0,11.57-3.04,14.89-7.68,2.41.88,5.01,1.36,7.73,1.36,6.18,0,11.78-2.48,15.86-6.5,4.78,3.84,10.85,6.14,17.45,6.14,15.42,0,27.92-12.5,27.92-27.92s-12.5-27.92-27.92-27.92Z"/>
</svg>
