<?xml version='1.0' encoding='UTF-8'?>
<svg xmlns="http://www.w3.org/2000/svg" id="n" data-name="Commerce_boutique" viewBox="0 0 453.54 453.54">
  <defs>
    <style>
      .ak {
        fill: #008280;
        stroke-width: 0px;
      }
    </style>
  </defs>
  <path class="ak" d="M124.84,155.57v17.61c0,.76.1,1.5.3,2.19.08-.72.12-1.45.12-2.19v-17.61h-.42ZM116.89,155.24h.01c.16.06.32.11.48.15-.17-.04-.33-.09-.49-.15Z"/>
  <path class="ak" d="M426.31,145.07l-76.34-112.36c-1.12-1.64-2.98-2.63-4.96-2.63h-37.79c-.26,0-.52.02-.78.05h-111.34c-.11,0-.22.01-.33.03h-36.11c-.05,0-.11-.02-.17-.03-.29-.05-.6-.07-.9-.07h-37.78c-2,0-3.87.99-4.99,2.65l-76.12,113.52c-.1.16-.2.32-.29.49-.09.16-.17.33-.24.51,0,.01-.02.02-.02.03-.05.14-.11.28-.15.42-.1.27-.17.54-.21.82-.02.11-.04.23-.05.34-.02.09-.03.18-.03.27-.02.15-.02.3-.02.46v23.61c0,11.12,9.05,20.17,20.17,20.17h18.16v220.72c0,3.31,2.69,6,6,6h301.39c3.32,0,6-2.69,6-6v-220.72h18.76c11.13,0,20.18-9.05,20.18-20.17v-23.61c0-1.79-.79-3.4-2.04-4.5ZM315.61,42.08h26.22l68.95,101.49h-60.52l.57,1.69-.58-1.69-34.77-101.44h.15l-.02-.05ZM302.8,42.18l34.77,101.39h-62.85l-10.82-101.39h38.9ZM340.66,155.57v17.61c0,4.51-3.66,8.17-8.17,8.17h-47.23c-4.5,0-8.17-3.66-8.17-8.17v-17.61h63.57ZM265.05,155.57v17.61c0,4.51-3.66,8.17-8.17,8.17h-47.22c-4.51,0-8.18-3.66-8.18-8.17v-17.61h63.57ZM251.83,42.13l10.83,101.44h-60.42l12.09-101.44h37.5ZM162.01,42.16h40.24l-12.09,101.41h-62.92l34.77-101.41ZM188.41,155.57v17.61c0,4.51-3.67,8.17-8.17,8.17h-47.23c-3.74,0-6.91-2.53-7.87-5.98-.2-.69-.3-1.43-.3-2.19v-17.61h63.57ZM123.01,42.06h26.19l-.02.07h.15l-34.78,101.44h-59.62L123.01,42.06ZM117.38,155.39c-.16-.04-.32-.09-.48-.14h-.01c.16.05.32.1.49.14ZM57.86,181.35c-4.51,0-8.17-3.66-8.17-8.17v-17.61h63.57v17.61c0,.76-.1,1.5-.3,2.19-.96,3.45-4.13,5.98-7.88,5.98h-47.22ZM302.88,406.35h-140.25v-175.13h140.25v175.13ZM377.41,408.07h-62.53v-182.85c0-3.32-2.69-6-6-6h-152.25c-3.32,0-6,2.68-6,6v182.85h-62.61v-214.72h17.06c5.43,0,10.35-2.14,13.97-5.63,3.63,3.49,8.55,5.63,13.96,5.63h47.23c5.8,0,11.03-2.46,14.71-6.39,3.67,3.93,8.91,6.39,14.71,6.39h47.22c5.53,0,10.55-2.24,14.19-5.85,3.64,3.61,8.66,5.85,14.19,5.85h47.23c5.55,0,10.57-2.25,14.23-5.88,3.66,3.63,8.68,5.88,14.23,5.88h16.46v214.72ZM416.35,173.18c0,4.51-3.67,8.17-8.18,8.17h-47.22c-4.51,0-8.17-3.66-8.17-8.17v-17.61h63.57v17.61Z"/>
  <path class="ak" d="M116.89,155.24h.01c.16.06.32.11.48.15-.17-.04-.33-.09-.49-.15ZM112.84,155.57v17.61c0,.74.04,1.47.12,2.19.2-.69.3-1.43.3-2.19v-17.61h-.42Z"/>
  <path class="ak" d="M350.26,143.57h-.01l.58,1.69-.57-1.69Z"/>
  <path class="ak" d="M117.38,155.39c-.16-.04-.32-.09-.48-.14h-.01c.16.05.32.1.49.14Z"/>
  <polygon class="ak" points="149.33 42.13 114.55 143.57 149.18 42.13 149.33 42.13"/>
  <path class="ak" d="M231.06,30.13h-35.96c.13-.02.27-.02.41-.02h35.14c.14,0,.28,0,.41.02Z"/>
  <polygon class="ak" points="350.83 145.26 350.25 143.57 315.48 42.13 315.63 42.13 350.26 143.57 350.83 145.26"/>
  <path class="ak" d="M149.2,42.06l-.02.07h-20.51c-.3,0-.59-.02-.88-.07h21.41Z"/>
  <path class="ak" d="M195.1,30.13c-.11,0-.22.01-.33.03h-36.11c-.05,0-.11-.02-.17-.03h36.61Z"/>
  <path class="ak" d="M324.08,42.08c-.24.03-.49.05-.74.05h-7.71l-.02-.05h8.47Z"/>
</svg>
