<?xml version='1.0' encoding='UTF-8'?>
<svg xmlns="http://www.w3.org/2000/svg" id="v" data-name="Buste agri blé" viewBox="0 0 453.54 453.54">
  <defs>
    <style>
      .ca {
        stroke-linecap: round;
        stroke-linejoin: round;
      }

      .ca, .cb {
        fill: none;
        stroke: #008280;
        stroke-width: 12px;
      }

      .cc {
        fill: #008280;
        stroke-width: 0px;
      }

      .cb {
        stroke-miterlimit: 10;
      }
    </style>
  </defs>
  <g>
    <path class="ca" d="M322.84,410.96s4.82-114.46-109.9-114.46l-36.2,28.62-36.2-28.62s-104.14-8.44-109.9,114.46h292.2Z"/>
    <line class="ca" x1="85.68" y1="172.47" x2="268.13" y2="172.47"/>
    <polyline class="ca" points="121.66 298.62 121.66 343.32 234.03 343.32 234.03 298.5"/>
    <polygon class="ca" points="104.2 343.44 104.2 410.95 248.23 410.95 248.74 343.44 104.2 343.44"/>
    <circle class="cb" cx="176.1" cy="187.28" r="72.87"/>
  </g>
  <line class="ca" x1="365.67" y1="155.92" x2="365.13" y2="410.31"/>
  <path class="cc" d="M357.85,338.7s-53.33-8.18-53.52-50.79c0,0,24.23,1.07,34.89,14.31,10.66,13.24,18.63,36.48,18.63,36.48Z"/>
  <path class="cc" d="M372.42,338.7s53.33-8.18,53.52-50.79c0,0-24.23,1.07-34.89,14.31-10.66,13.24-18.63,36.48-18.63,36.48Z"/>
  <path class="cc" d="M358.13,263.13s-53.33-8.18-53.52-50.79c0,0,24.23,1.07,34.89,14.31,10.66,13.24,18.63,36.48,18.63,36.48Z"/>
  <path class="cc" d="M372.7,263.13s53.33-8.18,53.52-50.79c0,0-24.23,1.07-34.89,14.31-10.66,13.24-18.63,36.48-18.63,36.48Z"/>
  <path class="cc" d="M357.85,187.56s-53.33-8.18-53.52-50.79c0,0,24.23,1.07,34.89,14.31,10.66,13.24,18.63,36.48,18.63,36.48Z"/>
  <path class="cc" d="M372.42,187.56s53.33-8.18,53.52-50.79c0,0-24.23,1.07-34.89,14.31-10.66,13.24-18.63,36.48-18.63,36.48Z"/>
  <path class="cc" d="M365.8,148.87s-31.57-43.75-1.33-73.77c0,0,16.23,18.02,14.27,34.91-1.96,16.88-12.94,38.87-12.94,38.87Z"/>
</svg>
