<?xml version='1.0' encoding='UTF-8'?>
<svg xmlns="http://www.w3.org/2000/svg" id="c" data-name="3" viewBox="0 0 453.54 453.54">
  <defs>
    <style>
      .n {
        fill: none;
        stroke: #008280;
        stroke-linecap: round;
        stroke-linejoin: round;
        stroke-width: 12px;
      }
    </style>
  </defs>
  <path class="n" d="M389.42,309.87c-7.86,7.05-18.88,12.18-34.3,13.3-16.03,1.17-28.38-1.31-38.87-7.82-5.93-3.68-11.46-8.67-17.94-16.17-13.6-15.75-29.28-31.28-47.96-47.49l-8.55-7.42c-1.35-1.17-2.16-2.8-2.29-4.59-.13-1.79.45-3.51,1.62-4.86,3.42-3.93,8.16-6.3,13.35-6.67s10.22,1.31,14.16,4.72l31.99,27.76c.08.07.18.07.24.06l.34-.06.34.06c.22.01.36-.12.35-.28l.11-119.1c0-3.49,1.37-6.78,3.85-9.25,2.49-2.46,5.77-3.83,9.26-3.83,3.5,0,6.79,1.37,9.26,3.85,2.47,2.48,3.83,5.77,3.83,9.26l-.07,72.49s.09.06.29.06c.2,0,.29-.09.31-.11l.02-32.58c0-3.22,1.39-6.24,3.91-8.5h.02c2.47-2.22,5.73-3.44,9.18-3.43,3.45,0,6.71,1.22,9.18,3.44,2.53,2.27,3.91,5.29,3.91,8.52l-.03,32.64c-.02-.05.1.06.29.06.19,0,.29-.09.31-.11v-24.62c.01-3.22,1.4-6.24,3.92-8.5h.02c2.47-2.22,5.73-3.44,9.18-3.43s6.71,1.22,9.18,3.44c2.53,2.27,3.91,5.29,3.91,8.52l-.02,24.67s.1.06.29.06c.19,0,.29-.09.3-.11v-5.48c0-7.22,5.88-13.09,13.1-13.09,7.22,0,13.09,5.89,13.09,13.11v50.68c-.02,12.31-2.44,35.88-19.1,50.82Z"/>
  <path class="n" d="M63.99,311.1c7.86,7.05,18.88,12.18,34.3,13.3,16.03,1.17,28.38-1.31,38.87-7.82,5.93-3.68,11.46-8.67,17.94-16.17,13.6-15.75,29.28-31.28,47.96-47.49l8.55-7.42c1.35-1.17,2.16-2.8,2.29-4.59s-.45-3.51-1.62-4.86c-3.42-3.93-8.16-6.3-13.35-6.67s-10.22,1.31-14.16,4.72l-31.99,27.76c-.08.07-.18.07-.24.06l-.34-.06-.34.06c-.22.01-.36-.12-.35-.28l-.11-119.1c0-3.49-1.37-6.78-3.85-9.25-2.49-2.46-5.77-3.83-9.26-3.83-3.5,0-6.79,1.37-9.26,3.85-2.47,2.48-3.83,5.77-3.83,9.26l.07,72.49s-.09.06-.29.06c-.2,0-.29-.09-.31-.11l-.02-32.58c0-3.22-1.39-6.24-3.91-8.5h-.02c-2.47-2.22-5.73-3.44-9.18-3.43-3.45,0-6.71,1.22-9.18,3.44-2.53,2.27-3.91,5.29-3.91,8.52l.03,32.64c.02-.05-.1.06-.29.06-.19,0-.29-.09-.31-.11v-24.62c-.01-3.22-1.4-6.24-3.92-8.5h-.02c-2.47-2.22-5.73-3.44-9.18-3.43-3.45,0-6.71,1.22-9.18,3.44-2.53,2.27-3.91,5.29-3.91,8.52l.02,24.67s-.1.06-.29.06c-.19,0-.29-.09-.3-.11v-5.48c0-7.22-5.88-13.09-13.1-13.09-7.22,0-13.09,5.89-13.09,13.11v50.68c.02,12.31,2.44,35.88,19.1,50.82Z"/>
</svg>
