<?xml version='1.0' encoding='UTF-8'?>
<svg xmlns="http://www.w3.org/2000/svg" id="b" data-name="2" viewBox="0 0 453.54 453.54">
  <defs>
    <style>
      .n {
        fill: none;
        stroke: #008280;
        stroke-linecap: round;
        stroke-linejoin: round;
        stroke-width: 12px;
      }
    </style>
  </defs>
  <path class="n" d="M131.87,385.37c14.76,13.24,35.45,22.87,64.43,24.99,30.11,2.2,53.31-2.47,73-14.69,11.14-6.92,21.53-16.28,33.69-30.37,25.54-29.58,55-58.76,90.07-89.19l16.07-13.94c2.54-2.2,4.06-5.26,4.3-8.61.24-3.35-.84-6.6-3.04-9.13-6.42-7.38-15.32-11.84-25.08-12.53-9.76-.69-19.2,2.46-26.59,8.87l-60.09,52.15c-.15.13-.33.13-.46.11l-.64-.11-.64.12c-.42.02-.67-.23-.66-.53l-.2-223.7c0-6.56-2.58-12.74-7.23-17.38-4.68-4.63-10.84-7.2-17.4-7.2-6.57,0-12.75,2.57-17.39,7.22-4.64,4.65-7.19,10.83-7.19,17.4l.13,136.16c-.02-.05-.18.11-.55.11-.37,0-.54-.17-.58-.21l-.03-61.2c0-6.05-2.62-11.72-7.35-15.96l-.03-.03c-4.63-4.15-10.76-6.43-17.25-6.42-6.49,0-12.61,2.3-17.24,6.45-4.74,4.26-7.35,9.94-7.35,16l.06,61.3c.04-.09-.19.11-.55.11-.36,0-.54-.16-.58-.21l-.02-46.24c0-6.05-2.62-11.72-7.35-15.96l-.03-.03c-4.63-4.15-10.76-6.43-17.25-6.42-6.49,0-12.61,2.3-17.24,6.45-4.74,4.26-7.35,9.94-7.35,16l.04,46.34c.02-.08-.19.11-.55.11-.36,0-.54-.17-.57-.21l.02-10.29c-.01-13.57-11.06-24.59-24.63-24.58-13.57.01-24.59,11.06-24.59,24.62l.02,95.18c.02,23.11,4.57,67.39,35.86,95.46Z"/>
</svg>
