<?xml version='1.0' encoding='UTF-8'?>
<svg xmlns="http://www.w3.org/2000/svg" id="g" data-name="Applaudir" viewBox="0 0 453.54 453.54">
  <defs>
    <style>
      .n {
        fill: none;
      }

      .n, .o {
        stroke: #008280;
        stroke-linecap: round;
        stroke-linejoin: round;
        stroke-width: 12px;
      }

      .o {
        fill: #fff;
      }
    </style>
  </defs>
  <g>
    <g>
      <g>
        <g>
          <path class="o" d="M301.57,53.79c-2.41-.27-4.77.42-6.66,1.93-5.5,4.41-8.96,10.69-9.74,17.69-.78,7,1.22,13.89,5.62,19.4l35.81,44.76-.72.43-123.6-83.89c-7.92-5.38-18.71-3.31-24.09,4.61h0c-9.39,12.37,4.16,23.77,4.16,23.77l94.35,62.74-94.35-62.74-15.6-10.87c-7.92-5.38-18.71-3.31-24.09,4.61h0c-5.38,7.93-3.31,18.71,4.61,24.09l15.97,10.9,95.55,63.03-95.55-63.03c-7.92-5.38-18.71-3.31-24.09,4.61h0c-5.38,7.93-3.31,18.71,4.61,24.09l29.6,20.03c-7.84-4.88-18.21-2.74-23.46,4.99h0c-5.38,7.93-3.33,18.7,4.57,24.06,0,0,89.34,68.27,123.25,83.65,9.62,4.36,16.82,6.13,27.31,7.39,16.53,1.98,52.97.18,75.74-33.46,27.24-40.25,12.92-86.91-7.16-113.63-16.92-22.51-35.5-37.75-56.39-63.87l-9.57-11.97c-1.51-1.89-3.67-3.08-6.08-3.34Z"/>
          <line class="o" x1="182.36" y1="82.49" x2="276.71" y2="145.24"/>
          <line class="o" x1="163.25" y1="111.23" x2="258.8" y2="174.26"/>
        </g>
        <line class="o" x1="173.37" y1="159.95" x2="240.25" y2="205.8"/>
      </g>
      <path class="o" d="M325.88,138s-20.09,19.81-.63,45.09"/>
    </g>
    <g>
      <g>
        <path class="o" d="M346.42,168.92c-2.31-.72-4.76-.5-6.91.62-6.24,3.28-10.84,8.78-12.94,15.51-2.1,6.73-1.46,13.87,1.82,20.11l26.61,50.77-.79.29-105.31-105.93c-6.75-6.79-17.73-6.82-24.52-.07h0c-11.58,10.36-.45,24.13-.45,24.13l80.64,79.6-80.64-79.6-13.24-13.65c-6.75-6.79-17.73-6.82-24.52-.07h0c-6.79,6.75-6.82,17.73-.07,24.52l13.6,13.75,81.77,80.11-81.77-80.11c-6.75-6.79-17.73-6.82-24.52-.07h0c-6.79,6.75-6.82,17.73-.07,24.52l25.23,25.31c-6.77-6.29-17.36-6.17-23.98.42h0c-6.79,6.75-6.84,17.72-.11,24.49,0,0,74.67,84.07,105.02,105.64,8.61,6.12,15.34,9.23,25.39,12.47,15.85,5.1,51.97,10.29,80.73-18.38,34.42-34.31,29.27-82.84,14.66-112.9-12.31-25.32-27.64-43.83-43.17-73.46l-7.11-13.57c-1.12-2.14-3.01-3.72-5.33-4.44Z"/>
        <line class="o" x1="223.91" y1="174.35" x2="304.55" y2="253.94"/>
        <line class="o" x1="199.68" y1="198.9" x2="281.44" y2="279.01"/>
      </g>
      <line class="o" x1="200.31" y1="248.67" x2="257.21" y2="306.43"/>
    </g>
  </g>
  <g>
    <line class="n" x1="89.72" y1="126.72" x2="41.39" y2="125.5"/>
    <line class="n" x1="110.41" y1="183.01" x2="67.95" y2="206.11"/>
    <line class="n" x1="70.37" y1="46.5" x2="111.61" y2="71.72"/>
  </g>
</svg>
