<?xml version='1.0' encoding='UTF-8'?>
<svg xmlns="http://www.w3.org/2000/svg" id="a" data-name="Facile" viewBox="0 0 453.54 453.54">
  <defs>
    <style>
      .n {
        stroke-linejoin: round;
      }

      .n, .o {
        fill: none;
        stroke: #008280;
        stroke-linecap: round;
        stroke-width: 12px;
      }

      .o {
        stroke-miterlimit: 10;
      }
    </style>
  </defs>
  <path class="n" d="M220.12,407.81c-18.96,0-39.85-6.36-61.83-23.37-22.85-17.67-36.38-35.81-42.59-57.09-3.51-12.04-4.93-25.35-4.59-43.15.71-37.38-1.63-76.97-7.16-121.03l-2.53-20.19c-.4-3.19.47-6.34,2.44-8.88s4.81-4.16,8-4.56c9.29-1.16,18.47,1.36,25.86,7.1,7.39,5.74,12.1,14.02,13.26,23.3l9.47,75.51c.02.19.15.3.26.37l.53.33.38.49c.29.28.62.26.81.04l143.03-159.14c4.2-4.67,9.97-7.42,16.25-7.76,6.29-.3,12.31,1.79,16.98,5.99,4.67,4.2,7.43,9.97,7.77,16.25.33,6.28-1.8,12.31-6,16.98l-87.06,96.86s.06.19.32.43c.26.23.49.23.55.22l39.11-43.55c3.87-4.3,9.35-6.67,15.43-6.67h.04c5.95,0,11.77,2.3,16.38,6.45,4.62,4.15,7.51,9.69,8.15,15.6.66,6.06-1.12,11.77-4.99,16.09l-39.19,43.61c.03-.09.07.2.32.43.25.23.49.23.55.22l29.55-32.91c3.87-4.3,9.35-6.67,15.43-6.67h.04c5.95,0,11.77,2.3,16.38,6.45,4.62,4.15,7.51,9.69,8.15,15.6.66,6.06-1.12,11.77-4.99,16.09l-29.63,32.96c.03-.07.07.2.32.43.26.23.49.22.54.22l6.56-7.33c8.68-9.65,23.58-10.44,33.24-1.77,9.65,8.67,10.45,23.58,1.78,33.23l-60.81,67.75c-14.78,16.44-46.3,45.06-86.5,45.06Z"/>
  <line class="o" x1="128.5" y1="72.19" x2="158.16" y2="112.18"/>
  <line class="o" x1="187.37" y1="42.59" x2="193" y2="94.71"/>
  <line class="o" x1="251.21" y1="58.94" x2="230.76" y2="104.34"/>
</svg>
