<?xml version='1.0' encoding='UTF-8'?>
<svg xmlns="http://www.w3.org/2000/svg" id="i" data-name="Avis" viewBox="0 0 453.54 453.54">
  <defs>
    <style>
      .n {
        fill: #fff;
        stroke-width: 11.69px;
      }

      .n, .o {
        stroke: #008280;
        stroke-linecap: round;
        stroke-linejoin: round;
      }

      .o {
        fill: none;
        stroke-width: 11.42px;
      }
    </style>
  </defs>
  <g>
    <polygon class="o" points="226.2 44.29 240.9 78.14 277.64 81.66 249.99 106.11 257.99 142.13 226.2 123.39 194.41 142.13 202.42 106.11 174.76 81.66 211.5 78.14 226.2 44.29"/>
    <polygon class="o" points="93.39 44.29 108.09 78.14 144.83 81.66 117.17 106.11 125.18 142.13 93.39 123.39 61.6 142.13 69.6 106.11 41.95 81.66 78.69 78.14 93.39 44.29"/>
    <polygon class="o" points="359.02 44.29 373.72 78.14 410.45 81.66 382.8 106.11 390.81 142.13 359.02 123.39 327.23 142.13 335.23 106.11 307.58 81.66 344.32 78.14 359.02 44.29"/>
  </g>
  <path class="n" d="M384.4,393.01c-9.93,8.78-23.82,15.12-43.21,16.39-20.15,1.32-35.64-1.91-48.75-10.19-7.41-4.68-14.32-11-22.38-20.48-16.93-19.91-36.49-39.57-59.79-60.09l-10.67-9.4c-1.69-1.48-2.69-3.54-2.83-5.78-.14-2.24.6-4.41,2.08-6.09,4.33-4.91,10.31-7.84,16.83-8.26,6.53-.41,12.83,1.74,17.74,6.07l39.93,35.17c.1.09.22.09.31.07l.43-.07.43.08c.28.02.45-.15.45-.35l1.33-160.33c.04-4.39,1.79-8.5,4.92-11.59,3.15-3.07,7.28-4.76,11.67-4.73,4.4.04,8.51,1.78,11.59,4.92,3.08,3.13,4.76,7.28,4.72,11.67l-.84,101.78s.12.07.37.08c.25,0,.36-.11.39-.14l.32-40.92c.03-4.05,1.81-7.82,4.99-10.64l.02-.02c3.12-2.75,7.23-4.24,11.57-4.21s8.42,1.6,11.5,4.4c3.15,2.87,4.87,6.68,4.83,10.74l-.34,40.99c-.02-.06.13.07.37.08.24,0,.36-.11.39-.14l.24-30.92c.03-4.05,1.81-7.82,4.99-10.64l.02-.02c3.12-2.75,7.23-4.24,11.57-4.21,4.34.04,8.42,1.6,11.5,4.4,3.15,2.87,4.87,6.68,4.83,10.74l-.26,30.99c-.02-.05.13.08.37.08.24,0,.36-.11.38-.14l.04-6.88c.08-9.07,7.52-16.39,16.59-16.32,9.07.08,16.39,7.52,16.32,16.59l-.49,63.65c-.13,15.46-3.39,45.04-24.45,63.66Z"/>
</svg>
