<?xml version='1.0' encoding='UTF-8'?>
<svg xmlns="http://www.w3.org/2000/svg" id="c" data-name="BB tête" viewBox="0 0 453.54 453.54">
  <defs>
    <style>
      .ca {
        fill: #8A5301;
      }

      .ca, .cb {
        stroke-width: 0px;
      }

      .cb {
        fill: #8A5301;
      }

      .cc {
        fill: #fff;
        stroke: #8A5301;
        stroke-linecap: round;
        stroke-linejoin: round;
        stroke-width: 12px;
      }
    </style>
  </defs>
  <path class="cc" d="M383.1,203.33c-10.08-76.56-75.59-135.66-154.9-135.66S83.38,126.77,73.3,203.33c-.15,0-.29-.01-.44-.01-16.18,0-29.3,14.52-29.3,32.43s13.12,32.43,29.3,32.43c1.81,0,3.58-.19,5.3-.54,18.91,65.02,78.93,112.54,150.05,112.54s131.06-47.46,150.01-112.41c1.51.27,3.06.41,4.64.41,16.09,0,29.14-14.52,29.14-32.43s-12.91-32.26-28.88-32.42Z"/>
  <path class="cb" d="M207.87,71.69c31.6-10.58,68.52,4.94,73.75,40.08,1.55,10.73.99,22.02-3.18,32.29-4.25,10.47-12.43,19.46-22.67,24.34-15.12,7.16-33.99,5.66-47.4-4.39-8.6-6.53-14.79-16.93-14.16-27.89.31-5.3,2.2-10.33,5.22-14.33-1.88,4.64-2.47,9.6-1.87,14.23,1.23,9.14,7.53,16.91,15.24,21.45,15.06,8.74,36.35,6.28,47.83-7.15,9.04-10.03,11.1-23.6,9.74-37.12-3.39-30.77-34.46-43.61-62.49-41.52h0Z"/>
  <path class="cb" d="M182.79,281.18c19.31,15.24,45.79,18.41,68.95,11.57,7.88-2.49,15.51-6.4,22.11-11.57-1.42,4.34-4.11,8.2-7.25,11.6-21.89,23.77-71.15,19.96-83.82-11.6h0Z"/>
  <path class="ca" d="M193.36,224.36c-3.95,2.17-16.53-11.85-33.85-11.85-17.32,0-29.89,14.02-33.85,11.85-3.95-2.17,7.24-28.18,33.85-28.18,26.6,0,37.8,26.01,33.85,28.18Z"/>
  <path class="ca" d="M331.94,224.36c-3.95,2.17-16.53-11.85-33.85-11.85-17.32,0-29.89,14.02-33.85,11.85-3.95-2.17,7.24-28.18,33.85-28.18,26.6,0,37.8,26.01,33.85,28.18Z"/>
</svg>
