<?xml version='1.0' encoding='UTF-8'?>
<svg xmlns="http://www.w3.org/2000/svg" id="i" data-name="Membre" viewBox="0 0 453.54 453.54">
  <defs>
    <style>
      .ca {
        fill: none;
      }

      .ca, .cb {
        stroke: #8A5301;
        stroke-linecap: round;
        stroke-linejoin: round;
        stroke-width: 12px;
      }

      .cb {
        fill: #fff;
      }
    </style>
  </defs>
  <polygon class="ca" points="225.08 294.96 241.01 331.63 280.81 335.44 250.85 361.92 259.52 400.95 225.08 380.64 190.64 400.95 199.32 361.92 169.36 335.44 209.16 331.63 225.08 294.96"/>
  <polygon class="ca" points="76.36 261.84 87.51 287.51 115.36 290.18 94.39 308.71 100.47 336.03 76.36 321.82 52.25 336.03 58.32 308.71 37.35 290.18 65.21 287.51 76.36 261.84"/>
  <polygon class="ca" points="378.19 261.84 389.33 287.51 417.19 290.18 396.22 308.71 402.29 336.03 378.19 321.82 354.08 336.03 360.15 308.71 339.18 290.18 367.04 287.51 378.19 261.84"/>
  <g>
    <path class="cb" d="M311.19,122.68c0-17.99,14.59-32.58,32.58-32.58s32.58,14.59,32.58,32.58-14.58,32.59-32.58,32.59-32.58-14.59-32.58-32.59"/>
    <path class="cb" d="M411.8,234.02c-.43-32.29-26.73-58.33-59.12-58.33h-17.82c-32.39,0-58.69,26.05-59.12,58.33h136.06Z"/>
  </g>
  <g>
    <path class="cb" d="M72.41,124c0-17.99,14.59-32.58,32.58-32.58s32.58,14.59,32.58,32.58-14.58,32.59-32.58,32.59-32.58-14.59-32.58-32.59"/>
    <path class="cb" d="M173.03,235.35c-.43-32.29-26.73-58.33-59.12-58.33h-17.82c-32.39,0-58.69,26.05-59.12,58.33h136.06Z"/>
  </g>
  <g>
    <path class="cb" d="M176.46,96.74c0-27.41,22.22-49.64,49.64-49.64s49.64,22.22,49.64,49.64-22.22,49.65-49.64,49.65-49.64-22.23-49.64-49.65"/>
    <path class="cb" d="M329.75,266.39c-.66-49.19-40.73-88.87-90.08-88.87h-27.15c-49.35,0-89.42,39.69-90.07,88.87h207.3Z"/>
  </g>
</svg>
