<?xml version='1.0' encoding='UTF-8'?>
<svg xmlns="http://www.w3.org/2000/svg" id="af" data-name="Famille HF" viewBox="0 0 453.54 453.54">
  <defs>
    <style>
      .ca {
        fill: #8A5301;
        stroke-width: 0px;
      }
    </style>
  </defs>
  <circle class="ca" cx="383.04" cy="250.39" r="19.1"/>
  <path class="ca" d="M393.51,391.42h-20.88c-2.45,0-4.49-1.27-4.68-2.92l-5.98-53.39,5.88-39.24c.24-1.61,2.26-2.84,4.66-2.84h21.09c2.42,0,4.43,1.23,4.67,2.85l5.64,39.41-5.74,53.19c-.18,1.65-2.22,2.93-4.68,2.93Z"/>
  <path class="ca" d="M411.33,336.13l-28.62,8.21-28.02-8.2c-1.47-.43-2.49-1.78-2.49-3.32v-32.3c0-12.73,10.32-23.04,23.04-23.04h15.55c12.73,0,23.04,10.32,23.04,23.04v32.29c0,1.54-1.02,2.9-2.5,3.32Z"/>
  <circle class="ca" cx="67.39" cy="250.84" r="19.1"/>
  <path class="ca" d="M77.86,391.26h-20.88c-2.45,0-4.49-1.27-4.68-2.92l-5.98-53.39,5.88-39.24c.24-1.61,2.26-2.84,4.66-2.84h21.09c2.42,0,4.43,1.23,4.67,2.85l5.64,39.41-5.74,53.19c-.18,1.65-2.22,2.93-4.68,2.93Z"/>
  <path class="ca" d="M95.68,336.57l-28.62,8.21-28.02-8.2c-1.47-.43-2.49-1.78-2.49-3.32l6.31-36.46c1.89-10.91,11.35-18.88,22.43-18.88h4.58c11.17,0,20.69,8.1,22.47,19.13l5.85,36.2c0,1.54-1.02,2.9-2.5,3.32Z"/>
  <g>
    <circle class="ca" cx="162.37" cy="159.72" r="31.08"/>
    <path class="ca" d="M179.4,414.93h-33.97c-3.99,0-7.31-2.39-7.6-5.47l-9.72-100.15,9.56-73.61c.39-3.02,3.67-5.32,7.59-5.32h34.31c3.93,0,7.21,2.32,7.59,5.35l9.18,73.94-9.33,99.78c-.29,3.09-3.61,5.49-7.61,5.49Z"/>
    <path class="ca" d="M206.18,311.41l-44.35,15.21-42.83-15.18c-2.66-.94-4.5-3.4-4.65-6.22l-3.87-72.44c-.92-17.16,12.75-31.58,29.94-31.58h44.13c17.14,0,30.8,14.35,29.95,31.47l-3.6,72.48c-.14,2.86-2.01,5.34-4.72,6.27Z"/>
  </g>
  <g>
    <circle class="ca" cx="283.21" cy="160.44" r="31.08"/>
    <path class="ca" d="M300.24,414.64h-33.97c-3.99,0-7.31-2.39-7.6-5.47l-9.72-100.15,9.56-73.61c.39-3.02,3.67-5.32,7.59-5.32h34.31c3.93,0,7.21,2.32,7.59,5.35l9.18,73.94-9.33,99.78c-.29,3.09-3.61,5.49-7.61,5.49Z"/>
    <path class="ca" d="M331.43,312.05l-48.76,15.4-47.38-15.38c-2.4-.81-4.04-3.34-4.04-6.22l11.6-69.33c3.33-19.91,20.56-34.49,40.74-34.49h0c20.27,0,37.55,14.71,40.78,34.73l11.14,69.07c0,2.89-1.66,5.44-4.07,6.23Z"/>
  </g>
</svg>
