<?xml version='1.0' encoding='UTF-8'?>
<svg xmlns="http://www.w3.org/2000/svg" id="ay" data-name="Population" viewBox="0 0 453.54 453.54">
  <defs>
    <style>
      .ca {
        fill: #8A5301;
        stroke-width: 0px;
      }

      .cb {
        fill: none;
        stroke: #8A5301;
        stroke-miterlimit: 10;
        stroke-width: 12px;
      }
    </style>
  </defs>
  <g>
    <circle class="ca" cx="224.22" cy="108.21" r="37.23"/>
    <path class="ca" d="M244.63,413.98h-40.7c-4.78,0-8.75-2.86-9.11-6.56l-11.65-120,11.46-88.19c.47-3.62,4.4-6.38,9.09-6.38h41.11c4.71,0,8.64,2.77,9.1,6.41l11,88.58-11.18,119.55c-.35,3.71-4.32,6.58-9.11,6.58Z"/>
    <path class="ca" d="M276.71,289.94l-53.14,18.22-51.31-18.19c-3.19-1.13-5.39-4.07-5.57-7.45l-4.63-86.79c-1.1-20.56,15.28-37.84,35.87-37.84h52.87c20.54,0,36.9,17.19,35.88,37.71l-4.31,86.84c-.17,3.42-2.41,6.4-5.65,7.51Z"/>
  </g>
  <g>
    <circle class="cb" cx="365.07" cy="137.35" r="27.17" transform="translate(98.47 422.06) rotate(-67.5)"/>
    <path class="cb" d="M384.46,185.31h-38.58c-15.03,0-26.98,12.61-26.18,27.61l3.38,63.33c.13,2.47,1.74,4.61,4.06,5.44l8.43,2.99,8.03,82.72c.26,2.7,3.16,4.79,6.65,4.79h29.7c3.5,0,6.4-2.09,6.65-4.8l7.73-82.61,9.03-3.1c2.37-.81,4-2.98,4.13-5.48l3.15-63.37c.74-14.97-11.19-27.51-26.18-27.51Z"/>
  </g>
  <g>
    <circle class="cb" cx="79.82" cy="137.35" r="27.17" transform="translate(-77.62 158.53) rotate(-67.5)"/>
    <path class="cb" d="M99.21,185.31h-38.58c-15.03,0-26.98,12.61-26.18,27.61l3.38,63.33c.13,2.47,1.74,4.61,4.06,5.44l8.43,2.99,8.03,82.72c.26,2.7,3.16,4.79,6.65,4.79h29.7c3.5,0,6.4-2.09,6.65-4.8l7.73-82.61,9.03-3.1c2.37-.81,4-2.98,4.13-5.48l3.15-63.37c.74-14.97-11.19-27.51-26.18-27.51Z"/>
  </g>
</svg>
