<?xml version='1.0' encoding='UTF-8'?>
<svg xmlns="http://www.w3.org/2000/svg" id="a" data-name="BB coufin1" viewBox="0 0 453.54 453.54">
  <defs>
    <style>
      .ca {
        stroke-width: 0px;
      }

      .ca, .cb {
        fill: #8A5301;
      }

      .cb {
        stroke-miterlimit: 10;
        stroke-width: 2px;
      }

      .cb, .cc, .cd {
        stroke: #8A5301;
      }

      .cc {
        stroke-width: 12.3px;
      }

      .cc, .cd {
        fill: none;
        stroke-linecap: round;
        stroke-linejoin: round;
      }

      .cd {
        stroke-width: 12px;
      }
    </style>
  </defs>
  <circle class="cc" cx="227.87" cy="143" r="68.03"/>
  <rect class="cd" x="129.54" y="40.74" width="196.66" height="369.19" rx="98.33" ry="98.33"/>
  <line class="cd" x1="131.03" y1="226.62" x2="320.33" y2="343.67"/>
  <line class="cd" x1="326.2" y1="225.67" x2="228.86" y2="287.45"/>
  <path class="cb" d="M212.83,136.64c-1.64.9-6.87-4.93-14.07-4.93-7.2,0-12.43,5.83-14.07,4.93-1.64-.9,3.01-11.72,14.07-11.72,11.06,0,15.72,10.81,14.07,11.72Z"/>
  <path class="cb" d="M270.45,136.64c-1.64.9-6.87-4.93-14.07-4.93-7.2,0-12.43,5.83-14.07,4.93-1.64-.9,3.01-11.72,14.07-11.72,11.06,0,15.72,10.81,14.07,11.72Z"/>
  <path class="ca" d="M210.37,163.07c2.05-.95,8.59,5.19,17.6,5.19,9.01,0,15.54-6.14,17.6-5.19s-3.77,12.33-17.6,12.33c-13.83,0-19.65-11.38-17.6-12.33Z"/>
</svg>
