<?xml version='1.0' encoding='UTF-8'?>
<svg xmlns="http://www.w3.org/2000/svg" id="h" data-name="Population 2" viewBox="0 0 453.54 453.54">
  <defs>
    <style>
      .ca {
        stroke-width: 0px;
      }

      .ca, .cb {
        fill: #8A5301;
      }

      .cb {
        stroke: #fff;
        stroke-miterlimit: 10;
        stroke-width: 7.5px;
      }
    </style>
  </defs>
  <path class="ca" d="M343.56,222.04c0-11.66,9.46-21.12,21.12-21.12s21.12,9.46,21.12,21.12-9.45,21.12-21.12,21.12-21.12-9.46-21.12-21.12"/>
  <path class="cb" d="M408.79,298.46c-.28-24.05-17.33-43.46-38.33-43.46h-11.55c-21,0-38.05,19.41-38.32,43.46h88.21Z"/>
  <path class="ca" d="M68.22,222.04c0-11.66,9.46-21.12,21.12-21.12s21.12,9.46,21.12,21.12-9.45,21.12-21.12,21.12-21.12-9.46-21.12-21.12"/>
  <path class="cb" d="M133.45,298.46c-.28-24.05-17.33-43.46-38.33-43.46h-11.55c-21,0-38.05,19.41-38.32,43.46h88.21Z"/>
  <path class="ca" d="M276.34,209.16c0-13.75,11.14-24.89,24.89-24.89s24.89,11.14,24.89,24.89-11.14,24.89-24.89,24.89-24.89-11.15-24.89-24.89"/>
  <path class="cb" d="M353.2,298.46c-.33-28.35-20.42-51.21-45.17-51.21h-13.61c-24.75,0-44.83,22.87-45.16,51.21h103.94Z"/>
  <path class="ca" d="M123.93,209.16c0-13.75,11.14-24.89,24.89-24.89s24.89,11.14,24.89,24.89-11.14,24.89-24.89,24.89-24.89-11.15-24.89-24.89"/>
  <path class="cb" d="M200.79,298.46c-.33-28.35-20.42-51.21-45.17-51.21h-13.61c-24.75,0-44.83,22.87-45.16,51.21h103.94Z"/>
  <path class="ca" d="M196.19,195.73c0-15.92,12.9-28.82,28.82-28.82s28.82,12.9,28.82,28.82-12.9,28.82-28.82,28.82-28.82-12.91-28.82-28.82"/>
  <path class="cb" d="M285.19,298.46c-.38-32.82-23.65-59.3-52.3-59.3h-15.76c-28.65,0-51.91,26.48-52.29,59.3h120.36Z"/>
</svg>
