<?xml version='1.0' encoding='UTF-8'?>
<svg xmlns="http://www.w3.org/2000/svg" id="au" data-name="Couple HH" viewBox="0 0 453.54 453.54">
  <defs>
    <style>
      .ca {
        fill: #8A5301;
        stroke-width: 0px;
      }
    </style>
  </defs>
  <g>
    <circle class="ca" cx="145.53" cy="75.71" r="41.26"/>
    <path class="ca" d="M168.15,414.59h-45.1c-5.3,0-9.7-3.17-10.1-7.27l-12.91-132.99,12.7-97.74c.52-4.01,4.88-7.07,10.08-7.07h45.56c5.22,0,9.58,3.08,10.08,7.1l12.19,98.18-12.39,132.5c-.38,4.11-4.79,7.29-10.1,7.29Z"/>
    <path class="ca" d="M203.7,277.12l-58.89,20.19-56.87-20.16c-3.54-1.25-5.97-4.51-6.17-8.26l-5.13-96.19c-1.22-22.79,16.93-41.93,39.76-41.93h58.59c22.76,0,40.89,19.05,39.76,41.79l-4.78,96.24c-.19,3.8-2.67,7.09-6.27,8.33Z"/>
  </g>
  <g>
    <circle class="ca" cx="309.44" cy="75.71" r="41.26"/>
    <path class="ca" d="M332.06,414.59h-45.1c-5.3,0-9.7-3.17-10.1-7.27l-12.91-132.99,12.7-97.74c.52-4.01,4.88-7.07,10.08-7.07h45.56c5.22,0,9.58,3.08,10.08,7.1l12.19,98.18-12.39,132.5c-.38,4.11-4.79,7.29-10.1,7.29Z"/>
    <path class="ca" d="M367.62,277.12l-58.89,20.19-56.87-20.16c-3.54-1.25-5.97-4.51-6.17-8.26l-5.13-96.19c-1.22-22.79,16.93-41.93,39.76-41.93h58.59c22.76,0,40.89,19.05,39.76,41.79l-4.78,96.24c-.19,3.8-2.67,7.09-6.27,8.33Z"/>
  </g>
</svg>
