<?xml version='1.0' encoding='UTF-8'?>
<svg xmlns="http://www.w3.org/2000/svg" id="ak" data-name="Perso enfant" viewBox="0 0 453.54 453.54">
  <defs>
    <style>
      .ca {
        fill: #8A5301;
        stroke-width: 0px;
      }
    </style>
  </defs>
  <circle class="ca" cx="226.57" cy="189.1" r="34.36"/>
  <path class="ca" d="M299.9,321.95c-4.62,2.66-10.52,1.08-13.18-3.54l-14.96-25.91c.01.44.01.88.01,1.33,0,4.62-.46,9.1-1.33,13.38h0s-8.97,91.91-8.97,91.91l-.17-.23c-.57,7.23-6.62,12.93-14,12.93-7.77,0-14.06-6.3-14.06-14.06v-50.91c-.98.09-1.96.14-2.96.14-1.3,0-2.58-.08-3.84-.23v51c0,7.76-6.3,14.06-14.06,14.06s-14.06-6.3-14.06-14.06l-8.54-92.3c-.65-3.74-.99-7.64-.99-11.63,0-.99.02-1.96.06-2.94l-15.89,27.52c-2.67,4.62-8.57,6.2-13.19,3.54-4.61-2.67-6.19-8.57-3.53-13.19l41.71-72.24c1.62-2.82,4.47-4.52,7.5-4.79.52-.1,1.07-.15,1.62-.15h45.54c.56,0,1.1.05,1.62.15,3.02.28,5.87,1.97,7.5,4.79l41.7,72.24c2.67,4.62,1.09,10.52-3.53,13.19Z"/>
</svg>
