<?xml version='1.0' encoding='UTF-8'?>
<svg xmlns="http://www.w3.org/2000/svg" id="ax" data-name="Famille monoparentale H" viewBox="0 0 453.54 453.54">
  <defs>
    <style>
      .ca {
        fill: #8A5301;
        stroke-width: 0px;
      }
    </style>
  </defs>
  <circle class="ca" cx="311.37" cy="211.7" r="27.89"/>
  <path class="ca" d="M326.66,416.71h-30.48c-3.58,0-6.56-1.86-6.83-4.26l-8.73-77.94,8.58-57.28c.35-2.35,3.3-4.14,6.81-4.14h30.79c3.53,0,6.47,1.8,6.81,4.16l8.24,57.54-8.38,77.65c-.26,2.41-3.24,4.27-6.83,4.27Z"/>
  <path class="ca" d="M352.67,336.87l-41.79,11.98-40.91-11.97c-2.15-.63-3.63-2.6-3.63-4.84l9.21-53.23c2.76-15.93,16.58-27.57,32.74-27.57h6.69c16.31,0,30.2,11.83,32.8,27.93l8.54,52.85c0,2.25-1.49,4.23-3.66,4.85Z"/>
  <g>
    <circle class="ca" cx="159.2" cy="76.37" r="41.37"/>
    <path class="ca" d="M181.88,416.12h-45.22c-5.31,0-9.73-3.18-10.12-7.29l-12.94-133.33,12.73-97.99c.52-4.02,4.89-7.09,10.1-7.09h45.68c5.23,0,9.6,3.08,10.11,7.12l12.22,98.43-12.42,132.83c-.39,4.12-4.8,7.31-10.13,7.31Z"/>
    <path class="ca" d="M217.53,278.3l-59.04,20.24-57.01-20.21c-3.55-1.26-5.99-4.52-6.19-8.28l-5.15-96.43c-1.22-22.85,16.98-42.04,39.86-42.04h58.74c22.82,0,41,19.1,39.87,41.9l-4.79,96.48c-.19,3.81-2.68,7.11-6.28,8.35Z"/>
  </g>
</svg>
