<?xml version='1.0' encoding='UTF-8'?>
<svg xmlns="http://www.w3.org/2000/svg" id="d" data-name="Perso douleur épaule" viewBox="0 0 453.54 453.54">
  <defs>
    <style>
      .ap {
        fill: #8A5301;
        stroke-width: 0px;
      }

      .aq {
        fill: none;
        stroke: #8A5301;
        stroke-linecap: round;
        stroke-linejoin: round;
        stroke-width: 13.4px;
      }
    </style>
  </defs>
  <circle class="ap" cx="228.47" cy="73.18" r="38.17"/>
  <path class="ap" d="M273.83,153.54v244.93s-3.47,16.3-20.1,16.3-21.34-16.79-21.34-16.79v-135l-7.44.25v134.5s0,0,0,0c0,.02-2.99,17.04-20.85,17.04s-20.1-18.02-20.1-18.04c0,0,0,0,0,0v-164.39l15.03,5.87c.07.03.13.06.2.08,1.17.34,15.99,3.13,21.39-4.61,5.38-7.71,5.6-19.33,5.36-20.28-.02-.07-.03-.12-.06-.18-.35-.78-1.78-9.28-12.86-14.82-11.91-5.96-22.31-13.34-23.56-18.56l-5.5-16.57c0-1.19-1.55-1.69-2.22-.71-3.13,4.54-7.71,13.89-.75,22.99,9.26,12.11,29.64,21.49,31.4,22.28.08.04.16.08.23.14,1.14.89,10.33,8.59,2.87,20.01-7.73,11.83-27.19-1.24-28.25-1.95-.03-.02-.06-.04-.09-.06-1.5-.79-37.41-20-36.68-51.59.74-32.26,28.34-45.3,28.34-45.3,0,0,23.32,67.5,55.08,67.75,31.76.25,45.37-59.68,45.37-59.68,0,0-1.49-15.14-12.66-15.39-11.17-.25-48.96-1.19-48.96-1.19l17.55,33.99c.4.72,1.37.85,1.95.26h0c1.04-1.07,3.59,1.35,2.75,2.58l-4.83,6.83c-.51.76-1.65.71-2.09-.1l-22.94-42.49s-7.2-11.55-17.12-4.6-5.21,17.87-5.21,17.87c0,0,25.53,54.22,46.37,55.08,18.8.78,29.53-30.07,39.74-36.47,0,0,0,0,0,0Z"/>
  <polyline class="aq" points="131.77 22.53 145.54 51.36 155.96 39.84 165.27 72.23"/>
  <polyline class="aq" points="94.52 90.18 123.36 103.92 124.22 88.41 151.82 107.73"/>
</svg>
