<?xml version='1.0' encoding='UTF-8'?>
<svg xmlns="http://www.w3.org/2000/svg" id="j" data-name="Pharamcie_2" viewBox="0 0 453.54 453.54">
  <defs>
    <style>
      .ap {
        stroke-linecap: round;
        stroke-linejoin: round;
      }

      .ap, .aq {
        fill: none;
        stroke: #8A5301;
        stroke-width: 12px;
      }

      .aq {
        stroke-miterlimit: 10;
      }
    </style>
  </defs>
  <line class="ap" x1="45.8" y1="43.19" x2="45.8" y2="412.28"/>
  <line class="aq" x1="45.8" y1="115.73" x2="103.04" y2="115.73"/>
  <line class="aq" x1="45.8" y1="316.57" x2="103.04" y2="316.57"/>
  <rect class="ap" x="102.6" y="63.41" width="307.7" height="307.7"/>
  <path class="ap" d="M358.86,164.99h-46.39c-3.33,0-6.02-2.7-6.02-6.02v-46.39c0-3.33-2.7-6.02-6.02-6.02h-89.23c-3.33,0-6.02,2.7-6.02,6.02v46.39c0,3.33-2.7,6.02-6.02,6.02h-46.39c-3.33,0-6.02,2.7-6.02,6.02v89.23c0,3.33,2.7,6.02,6.02,6.02h46.39c3.33,0,6.02,2.7,6.02,6.02v46.39c0,3.33,2.7,6.02,6.02,6.02h89.23c3.33,0,6.02-2.7,6.02-6.02v-46.39c0-3.33,2.7-6.02,6.02-6.02h46.39c3.33,0,6.02-2.7,6.02-6.02v-89.23c0-3.33-2.7-6.02-6.02-6.02Z"/>
</svg>
