<?xml version='1.0' encoding='UTF-8'?>
<svg xmlns="http://www.w3.org/2000/svg" id="an" data-name="Lunettes" viewBox="0 0 453.54 453.54">
  <defs>
    <style>
      .ap {
        fill: #8A5301;
        stroke-width: 0px;
      }
    </style>
  </defs>
  <path class="ap" d="M411.7,223.36h-23.3c-8.37-29.95-35.91-51.98-68.49-51.98s-58.61,20.84-67.77,49.53c-6.14-6.97-15.13-11.37-25.14-11.37s-19,4.4-25.14,11.37c-9.16-28.69-36.07-49.53-67.77-49.53s-60.13,22.03-68.49,51.98h-23.3c-3.24,0-5.86,2.62-5.86,5.86s2.62,5.86,5.86,5.86h21.08c-.26,2.44-.39,4.91-.39,7.41,0,39.21,31.89,71.12,71.11,71.12s70.73-31.51,71.11-70.4c0-.05,0-.11,0-.16,0-12.02,9.77-21.79,21.79-21.79s21.79,9.77,21.79,21.79c0,.04,0,.08,0,.12v.04c.38,38.89,32.13,70.4,71.11,70.4s71.11-31.9,71.11-71.12c0-2.5-.13-4.97-.39-7.41h21.08c3.24,0,5.86-2.63,5.86-5.86s-2.62-5.86-5.86-5.86ZM134.09,301.88c-32.75,0-59.39-26.65-59.39-59.4s26.64-59.39,59.39-59.39,59.4,26.64,59.4,59.39-26.65,59.4-59.4,59.4ZM319.9,301.88c-32.75,0-59.4-26.65-59.4-59.4s26.65-59.39,59.4-59.39,59.39,26.64,59.39,59.39-26.64,59.4-59.39,59.4Z"/>
</svg>
