<?xml version='1.0' encoding='UTF-8'?>
<svg xmlns="http://www.w3.org/2000/svg" id="c" data-name="Perso estimation état santé" viewBox="0 0 453.54 453.54">
  <defs>
    <style>
      .ap, .aq, .ar, .as {
        stroke-width: 12px;
      }

      .ap, .aq, .at {
        fill: #8A5301;
      }

      .ap, .aq, .as {
        stroke: #8A5301;
      }

      .ap, .as {
        stroke-miterlimit: 10;
      }

      .aq, .ar {
        stroke-linecap: round;
        stroke-linejoin: round;
      }

      .ar {
        stroke: #fff;
      }

      .ar, .as {
        fill: none;
      }

      .at {
        stroke-width: 0px;
      }
    </style>
  </defs>
  <circle class="as" cx="202.7" cy="259.58" r="8"/>
  <circle class="as" cx="229.43" cy="240.88" r="10.7"/>
  <path class="ap" d="M222.76,411.31H91.99c-.62,0-1.21-.25-1.64-.69-.43-.44-.67-1.03-.66-1.65.21-15.63,6.45-30.29,17.57-41.28,11.14-11,25.89-17.06,41.55-17.06h17.13c15.66,0,30.41,6.06,41.55,17.06,11.13,10.99,17.37,25.65,17.58,41.28,0,.62-.23,1.21-.66,1.65-.43.44-1.03.69-1.64.69Z"/>
  <circle class="aq" cx="157.37" cy="296.32" r="34.74"/>
  <path class="as" d="M158.87,81.79s32.88-77.81,107.94-23.01c0,0,40.55-30.68,64.66,15.34,0,0,73.42,25.21,18.63,79.45,0,0-6.03,66.85-68.49,46.57,0,0-49.31,50.96-96.99-12.05,0,0-55.18,13.3-66.3-44.93-9.31-48.77,40.55-61.37,40.55-61.37Z"/>
  <g>
    <g>
      <polygon class="at" points="255.79 86.59 255.79 86.59 255.8 86.59 255.79 86.59"/>
      <polygon class="at" points="297.52 83.22 297.52 83.22 297.56 83.21 297.52 83.22"/>
      <path class="at" d="M316.46,111.54c-.38-2.38-.71-4.76-1.51-7.04-.17-.47-.29-.96-.42-1.44-.27-.68-.54-1.35-.81-2.03-.2-.44-.41-.88-.61-1.31-.07-.13-.14-.26-.2-.39-.17-.32-.33-.65-.5-.97-.04-.08-.09-.16-.13-.24-.05-.1-.11-.2-.16-.3-.14-.22-.28-.45-.42-.67-.35-.56-.67-1.14-1.06-1.67-1.11-1.5-2.24-2.98-3.37-4.46-.13-.13-.26-.27-.39-.4-.03-.03-.06-.07-.09-.1-1.17-1.1-2.35-2.2-3.52-3.31,0,0,0,0,0,0-.09-.08-.18-.16-.27-.24-.04,0-.07,0-.08-.05-.13-.1-.27-.21-.4-.31-.52-.4-1.04-.79-1.56-1.19-.12-.1-.23-.19-.35-.29-.04-.03-.09-.06-.13-.09-.17-.12-.33-.25-.5-.37,0,0,0,0,0,0-.21-.1-.42-.19-.63-.29-.11-.07-.22-.14-.33-.21-.12-.09-.24-.17-.36-.26-.2-.12-.41-.25-.61-.37-.18-.1-.35-.21-.53-.31h0c-.2-.1-.4-.2-.6-.31-.04,0-.07,0-.09-.04-.29-.15-.59-.3-.89-.44-.12-.06-.23-.11-.35-.17-.64-.3-1.29-.6-1.93-.9-.04-.02-.07-.04-.11-.06-.47-.18-.94-.35-1.4-.53-.28-.09-.56-.18-.83-.27l-.02.02-.02-.03c-.34-.12-.67-.23-1.01-.35-.55-.15-1.1-.31-1.66-.46-.19-.05-.39-.1-.58-.15v.02s-.03-.03-.03-.03c-.05-.01-.1-.02-.16-.04-.19-.05-.38-.11-.57-.16-.23-.03-.47-.07-.7-.1-.67-.09-1.34-.17-2.01-.26-.04-.02-.08-.04-.12-.05-.84-.1-1.69-.2-2.53-.29-.05,0-.11,0-.16,0-1.53,0-3.05,0-4.58,0-.05,0-.11,0-.16,0h-.33c-.06,0-.11,0-.17,0-.27-.01-.55-.02-.82-.03-.4.03-.81.06-1.22.08-.08.01-.16.02-.24.04,0,.03,0,.06,0,.1-.66.09-1.32.15-1.97.27-.52.09-1.03.24-1.55.36-1.29.37-2.59.73-3.88,1.1h0c-.13.06-.25.13-.38.19-.12.04-.24.08-.36.12-.04.01-.08.03-.12.04h0c-.24.09-.48.18-.72.26-.11.04-.21.09-.32.13-.06.03-.12.05-.18.08-.05.03-.1.05-.15.08l-.34.14c-.8.38-1.61.75-2.41,1.13-.57.32-1.14.63-1.72.95-1.28.86-2.56,1.72-3.84,2.58-.17.12-.34.24-.51.37-.69.61-1.38,1.22-2.07,1.83-.11.11-.23.22-.34.33-.54.55-1.08,1.1-1.62,1.65-.01.03-.03.05-.06.06-.51.57-1.01,1.13-1.52,1.7-.24.25-.5.49-.7.76-.39.51-.74,1.04-1.11,1.56-.29.5-.57,1-.87,1.49-.17.28-.39.39-.69.19-.29-.43-.55-.88-.87-1.29-.94-1.24-1.9-2.47-2.85-3.7-.22-.27-.45-.55-.67-.82-.08-.09-.17-.17-.25-.26-.12-.12-.24-.24-.35-.35h-.01s-.08-.08-.11-.12h0s-.07-.08-.11-.12c-.13-.12-.25-.25-.38-.37-.12-.12-.24-.23-.37-.35-.17-.12-.34-.24-.51-.36,0-.03,0-.06,0-.09-.99-.79-1.97-1.59-2.97-2.37-.62-.48-1.25-.93-1.88-1.4-.08-.04-.16-.08-.24-.12-.33-.21-.66-.42-.99-.62-.12-.07-.23-.14-.35-.21-.17-.11-.35-.22-.52-.34,0,0-.02,0-.02,0-.51-.27-1.03-.54-1.54-.81-.11-.05-.22-.1-.33-.15-.16-.07-.33-.14-.49-.21-.16-.07-.33-.14-.49-.21-.27-.1-.54-.2-.81-.29h0c-.05-.02-.1-.05-.15-.08-.38-.18-.75-.36-1.13-.54-.19-.08-.38-.15-.57-.23-1.05-.32-2.11-.65-3.16-.97-.1-.03-.19-.06-.29-.09l-.02.02-.02-.03c-1.51-.29-3.01-.58-4.52-.86-.08-.03-.17-.06-.25-.09-.2-.03-.4-.06-.6-.09-.11.01-.23.02-.34.03-.34,0-.68,0-1.02-.01h-.32c-.06,0-.11,0-.17,0-1.72,0-3.44.09-5.15-.02-1.33-.08-2.55.35-3.83.49-1.14.13-2.26.52-3.39.79-.96.33-1.91.66-2.87.98-.29.1-.59.17-.89.26-.13.07-.25.14-.38.21-.2.08-.4.16-.6.24-.2.09-.4.17-.61.26-.16.08-.33.15-.49.23-.11.05-.21.11-.31.16-.1.06-.2.11-.3.17-.02.03-.05.05-.08.05,0,0,.02,0,.02,0-.1.04-.19.08-.29.12-.04.02-.08.05-.12.07-.28.14-.56.27-.85.41-.04.03-.09.06-.13.08-1.2.75-2.39,1.49-3.59,2.24-.29.21-.59.42-.88.63l-.09.07v.04s-.02-.04-.02-.04c-.65.53-1.3,1.07-1.95,1.6-.25.24-.5.49-.75.73-.11.11-.22.21-.34.32-.76.76-1.53,1.5-2.27,2.27-.4.42-.77.88-1.15,1.32-.17.23-.34.46-.51.68-.04.03-.07.07-.11.1-.53.74-1.06,1.47-1.59,2.21-.4.64-.8,1.28-1.21,1.92-.24.41-.48.82-.72,1.24-.17.36-.33.73-.5,1.09-.04.08-.07.16-.11.25-.04.08-.09.16-.13.24h0c-.32.65-.64,1.31-.97,1.96-.1.36-.2.71-.3,1.07-.03.08-.06.16-.09.24-.05.12-.09.25-.14.37-.03.05-.05.1-.08.16-.17.55-.35,1.11-.52,1.66-.27,1.13-.55,2.27-.82,3.4-.05.16-.1.32-.15.48-.11.69-.21,1.38-.32,2.07,0,.08-.01.17-.02.25-.02.11-.04.23-.06.34,0,.2-.02.41-.03.61.01.03.03.06.04.09,0,0-.03.02-.04.04-.01.12-.03.24-.05.36.01.24.02.48.03.73.01.03.03.06.04.09,0,0-.02.02-.04.04-.03,2.16-.06,4.31-.08,6.47,0,.08.14.17.21.26.03.11.06.21.09.32.03.02.04.05.02.08.03.26.06.52.08.77.33,1.81.6,3.64,1.24,5.38.29.78.57,1.56.86,2.34.02.06.04.11.06.17.02.07.04.14.06.21.06.14.12.27.19.41.51,1.1,1.13,2.16,1.51,3.31.39,1.19,1.16,1.23,2.18,1.23,6.15-.04,12.3-.01,18.45-.01.08,0,.17,0,.25,0,.24-.29.47-.59.71-.88.66-1.39,1.32-2.77,1.99-4.16.05-.11.1-.22.15-.32.18-.39.34-.79.53-1.18.44-.93.89-1.86,1.34-2.79.06-.1.12-.19.18-.29.19-.41.38-.81.57-1.22.09-.2.17-.4.26-.6.73-1.5,1.45-3,2.17-4.5.08-.16.17-.32.25-.48l.08-.16s0,0,0,0c.05-.11.11-.22.16-.33.53-1.17,1.07-2.34,1.61-3.5.03-.07.15-.09.23-.14.33.56.65,1.11.99,1.67.39.63.79,1.26,1.18,1.88-.01.04,0,.07.05.09.49.1.46.48.46.84h0c.48.11.48.49.48.86h0c.12.2.24.41.36.62.04.09.07.19.12.27,1.56,2.69,3.12,5.38,4.68,8.07,2.66,4.56,5.33,9.11,7.98,13.68,1.94,3.34,3.85,6.68,5.78,10.03.38.66.64.69,1,.03.41-.76.75-1.56,1.15-2.33,2.05-3.94,4.11-7.87,6.16-11.8,1.77-3.4,3.55-6.79,5.31-10.2,1.47-2.84,2.91-5.7,4.39-8.54,1.29-2.48,2.6-4.93,3.9-7.4.93-1.77,1.84-3.55,2.76-5.32.11-.21.28-.4.46-.67,7.17,13.88,14.28,27.65,21.43,41.51.99-1.65,1.91-3.14,2.8-4.65,1.67-2.84,3.32-5.7,4.99-8.54.24-.41.57-.65,1.1-.65,7.19.01,14.37,0,21.56.02.52,0,.79-.22.98-.62.5-1.07,1.03-2.13,1.46-3.22.42-1.06.81-2.15,1.09-3.25.38-1.51.66-3.05.98-4.58.13-.69.27-1.37.4-2.06.03-.78.1-1.56.09-2.34,0-2.08-.06-4.13-.4-6.21Z"/>
    </g>
    <g>
      <path class="at" d="M308.01,140.42c-.06,0-.11-.02-.17-.03-.52.01-1.05.04-1.58.04-3.35,0-6.7-.02-10.06-.04-.09,0-.18,0-.28,0-.07,0-.14,0-.21,0-.1,0-.19,0-.29.01-.1,0-.2,0-.31,0-.06,0-.12,0-.18,0-.26,0-.53,0-.79,0-.06,0-.12,0-.18,0-.16,0-.31,0-.47-.01l-.47.02c-.25.04-.49.07-.74.11-.04.02-.07.04-.11.06l-.49.86c-.05.07-.09.15-.14.22-.08.13-.15.26-.23.39-.04.07-.09.15-.13.22-.12.21-.24.42-.36.63-.2.32-.39.65-.59.97v.04s-.03.02-.03.02c-.04.06-.07.11-.11.17-.16.25-.32.49-.48.74-.2.36-.4.72-.61,1.08-.12.2-.24.41-.36.61h0c-.07.13-.15.26-.23.38h0c-.08.14-.16.28-.24.42,0,0-.02.04-.02.04-.85,1.46-1.71,2.92-2.56,4.38h0c-.2.29-.4.59-.6.88-1.4,2.44-2.8,4.88-4.21,7.34-.12-.09-.23-.13-.27-.21-.63-1.13-1.26-2.27-1.88-3.41-.56-1.05-1.1-2.11-1.65-3.17-.09-.13-.17-.25-.26-.38-.12.3-.34.43-.6.51.26-.08.47-.2.6-.51-.44-.88-.88-1.77-1.32-2.65h0c-.1-.24-.18-.48-.29-.71-1.2-2.35-2.41-4.7-3.61-7.05-.36-.69-.73-1.38-1.09-2.07-1.27-2.44-2.56-4.87-3.82-7.31-1.15-2.24-2.28-4.48-3.42-6.73-1.12-2.2-2.23-4.39-3.36-6.58-.09-.17-.27-.29-.41-.44-.57,1.05-1.12,2.01-1.62,2.98-1.71,3.3-3.39,6.6-5.1,9.9-1.32,2.56-2.68,5.1-4,7.65-1.08,2.07-2.11,4.17-3.19,6.24-1.27,2.45-2.57,4.88-3.84,7.32-.99,1.9-1.95,3.8-2.92,5.71-1.11,2.16-2.21,4.33-3.31,6.5-.15-.12-.34-.22-.44-.37-1.57-2.63-3.13-5.27-4.68-7.92-2.31-3.96-4.6-7.93-6.9-11.89-1.97-3.39-3.95-6.78-5.91-10.18-1.47-2.55-2.92-5.12-4.4-7.67-.06-.1-.24-.12-.37-.18-.17.28-.34.56-.5.84-.04.08-.08.16-.12.24-.07.09-.15.19-.22.28-.57,1.24-1.15,2.48-1.72,3.73-1.08,2.3-2.17,4.6-3.26,6.9-.2.41-.41.82-.62,1.23-.03.05-.06.1-.08.15.01.04,0,.07-.04.08v.02c-.11.35-.19.74-.72.59-.08-.01-.17-.03-.25-.04-.2,0-.4,0-.61-.01-.24,0-.49.01-.73.02-1.34.01-2.67.03-4.01.03-2.55.01-5.1.02-7.65.04l-.49-.06c-1.18,0-2.35,0-3.53,0-.04.02-.08.04-.12.05-.08,0-.16,0-.24,0-.12,0-.24,0-.36,0-.04,0-.08,0-.12,0-.08,0-.16,0-.24,0-.24,0-.48.01-.73.02-.43-.02-.48.12-.19.42.43.45.86.89,1.3,1.33,1.5,1.5,3.01,3.01,4.51,4.51.4.36.8.72,1.19,1.08.12.16.25.32.37.48.4.38.8.77,1.2,1.15.03.03.07.07.1.1.29.28.58.57.88.85.12.12.25.24.37.35l.56.62c.66.65,1.31,1.3,1.97,1.95.04.04.08.07.11.11.08.08.17.16.25.25.72.73,1.43,1.46,2.15,2.18.04,0,.06.03.06.07.94.94,1.89,1.88,2.83,2.82.07.07.14.15.21.22,1.27,1.26,2.54,2.53,3.8,3.79,1.2,1.18,2.39,2.37,3.58,3.55.4.41.81.82,1.21,1.23.03,0,.05,0,.08-.02.66.69,1.33,1.38,1.99,2.07.56.6,1.1,1.22,1.68,1.8,1.06,1.04,2.16,2.05,3.21,3.1,1.13,1.12,2.21,2.3,3.33,3.42.89.89,1.81,1.75,2.71,2.62.03.03.06.06.09.09.45.46.91.91,1.36,1.37,1.27,1.25,2.54,2.5,3.81,3.75.17.17.35.32.53.49.38.4.75.8,1.13,1.2.36.37.73.75,1.09,1.12.2.18.4.35.6.53,1.47,1.48,2.95,2.96,4.42,4.45.11.11.2.24.3.36l.05-.02c.8.82,1.61,1.63,2.41,2.45,1.32,1.3,2.64,2.59,3.95,3.89.3.29.57.62.85.93.26,0,.51,0,.77.01.15-.24.3-.49.45-.73.3-.29.61-.57.91-.86.03-.03.07-.07.1-.1.29-.24.57-.49.86-.73.45-.45.9-.89,1.34-1.34.16-.16.31-.33.46-.49.33-.34.65-.67.98-1.01.17-.15.33-.3.5-.46.08-.08.16-.15.24-.23.73-.73,1.46-1.46,2.19-2.19,0,0,0,0,0,0,.04-.04.08-.08.12-.11h0c.44-.45.89-.9,1.33-1.35.31-.33.63-.65.94-.98.37-.37.74-.74,1.11-1.1.81-.8,1.62-1.6,2.43-2.41.24-.27.46-.56.72-.81,1.88-1.89,3.76-3.77,5.64-5.65.21-.21.45-.39.68-.59.05-.04.09-.08.14-.11.04-.04.08-.07.12-.11h0s.08-.08.11-.12c.32-.33.64-.66.97-.99h0c.08-.08.16-.16.24-.24h0s.06-.08.09-.12c.13-.16.27-.32.4-.48,1.52-1.47,3.06-2.92,4.56-4.41,1.56-1.55,3.08-3.13,4.62-4.7,1.03-1.05,2.06-2.11,3.1-3.16-.08-.07-.16-.13-.23-.2,0,0,.06-.08.09-.12.08.07.17.14.25.21.12-.12.24-.25.37-.37.41-.4.82-.81,1.24-1.21.32-.36.64-.72.96-1.08.12-.08.24-.16.35-.25.2-.2.41-.4.61-.61.41-.41.81-.81,1.22-1.22.94-.89,1.88-1.78,2.81-2.67.03-.03.07-.06.1-.09l.14-.15c.36-.36.72-.72,1.08-1.08.52-.54,1.03-1.07,1.55-1.61.05-.04.09-.08.14-.12.12-.12.24-.24.36-.36l.13-.13c.12-.12.24-.24.36-.36.37-.38.74-.76,1.1-1.13,1.81-1.82,3.62-3.66,5.44-5.47,1.05-1.05,2.11-2.07,3.17-3.11.05-.03.09-.07.13-.1.16-.17.32-.34.49-.5.28-.28.56-.57.85-.85.32-.33.63-.66.95-.98.05-.04.09-.09.14-.13.22-.24.44-.47.66-.71.03-.03.05-.06.08-.09.29-.33.6-.64.84-.99.12-.18.47-.43.03-.67ZM244.19,153.75c.37-.07.57-.39.75-.76-.18.37-.38.69-.75.76ZM245.19,148.74c-.11.11-.24.22-.35.33.11-.11.24-.22.35-.33h0ZM245.55,154.3c-.09-.02-.18-.04-.28-.06.05-.28.1-.56.15-.84h0c-.05.28-.1.56-.15.84.09.02.18.04.28.06h0ZM248.24,193.09c-.06-.08-.12-.16-.18-.24.16-.11.32-.21.48-.32.05.06.09.12.14.18-.15.12-.29.25-.44.37ZM265,177.83s-.06-.02-.1-.04c.01-.03.02-.09.05-.1.02,0,.07.02.1.04-.01.03-.02.09-.05.1ZM265.49,132.96c-.08.11-.19.22-.29.33.1-.11.2-.22.29-.33h0ZM269.16,142.42h0c.42.01.79-.36.91-.86-.12.5-.49.88-.91.86ZM271.92,146.26c.26-.24.45-.57.3-.75.15.18-.04.51-.3.75Z"/>
      <polygon class="at" points="292.19 140.61 292.19 140.61 292.19 140.61 292.19 140.61"/>
    </g>
  </g>
  <polyline class="ar" points="168.85 137.73 204.36 137.73 213.76 119.03 235.59 159.84 260.74 111.89 281.19 153.5 291.69 135.86 325.27 135.86"/>
</svg>
