<?xml version='1.0' encoding='UTF-8'?>
<svg xmlns="http://www.w3.org/2000/svg" id="p" data-name="Virus" viewBox="0 0 453.54 453.54">
  <defs>
    <style>
      .ap {
        stroke-linecap: round;
        stroke-linejoin: round;
      }

      .ap, .aq {
        fill: none;
        stroke: #8A5301;
        stroke-width: 12px;
      }

      .aq {
        stroke-miterlimit: 10;
      }
    </style>
  </defs>
  <circle class="aq" cx="239.58" cy="178.18" r="21.67"/>
  <circle class="aq" cx="166.09" cy="154.69" r="14.28"/>
  <circle class="aq" cx="290.22" cy="244.02" r="31.7"/>
  <circle class="aq" cx="141.82" cy="245.53" r="29.61"/>
  <circle class="aq" cx="236.46" cy="309.15" r="14.28"/>
  <path class="ap" d="M407.17,205.85c-1.45-6.29-7.05-10.74-13.5-10.74h0c-8.1-.54-14.98,5.89-14.98,14.01v2.24l-17.47,3.25s.01.14.03.4c-2.23-28.31-13.17-54.17-30.15-74.9.27.33.54.65.81.98l14.64-10.55,1.58,1.58c5.74,5.74,15.15,5.43,20.5-.68h0c4.56-4.56,5.37-11.67,1.95-17.14l-14.2-14.94-1.34-1.34-14.94-14.2c-5.47-3.42-12.58-2.61-17.14,1.95h0c-6.11,5.35-6.43,14.75-.68,20.5l1.58,1.58-10.06,14.65s.23.2.64.56c-20.27-17.4-45.75-28.91-73.78-31.86.15.01.29.03.44.04l2.89-17.81h2.24c8.12,0,14.55-6.87,14.01-14.98,0-6.45-4.45-12.05-10.74-13.5l-20.6-.52h-1.89l-20.6.52c-6.29,1.45-10.74,7.05-10.74,13.5-.54,8.1,5.89,14.98,14.01,14.98h2.24l3.25,17.47s.14-.01.4-.03c-28.31,2.23-54.17,13.17-74.9,30.15.33-.27.66-.54.99-.82l-10.55-14.64,1.58-1.58c5.74-5.74,5.43-15.15-.68-20.5-4.56-4.56-11.67-5.37-17.14-1.95l-14.94,14.2-1.34,1.34-14.2,14.94c-3.42,5.47-2.61,12.58,1.95,17.14,5.35,6.11,14.75,6.43,20.5.68l1.58-1.58,14.65,10.06s.2-.23.56-.64c-17.4,20.27-28.91,45.75-31.86,73.78.01-.15.03-.29.04-.44l-17.81-2.89v-2.24c0-8.12-6.87-14.55-14.98-14.01-6.45,0-12.05,4.45-13.5,10.74l-.52,20.6v1.89l.52,20.6c1.45,6.29,7.05,10.74,13.5,10.74,8.1.54,14.98-5.89,14.98-14.01v-2.24l17.47-3.25s-.01-.14-.03-.4c2.23,28.31,13.18,54.17,30.15,74.9-.27-.33-.55-.66-.82-.99l-14.64,10.55-1.58-1.58c-5.74-5.74-15.15-5.43-20.5.68-4.56,4.56-5.37,11.67-1.95,17.14l14.2,14.94,1.34,1.34,14.94,14.2c5.47,3.42,12.58,2.61,17.14-1.95,6.11-5.35,6.43-14.75.68-20.5l-1.58-1.58,10.06-14.65s-.23-.2-.64-.56c20.27,17.4,45.75,28.91,73.78,31.86-.14-.01-.29-.03-.43-.04l-2.89,17.81h-2.24c-8.12,0-14.55,6.87-14.01,14.98,0,6.45,4.45,12.05,10.74,13.5l20.6.52h1.89l20.6-.52c6.29-1.45,10.74-7.05,10.74-13.5.54-8.1-5.89-14.98-14.01-14.98h-2.24l-3.25-17.47s-.14.01-.4.03c28.31-2.23,54.17-13.17,74.9-30.15-.33.27-.66.54-.99.81l10.55,14.64-1.58,1.58c-5.74,5.74-5.43,15.15.68,20.5,4.56,4.56,11.67,5.37,17.14,1.95l14.94-14.2,1.34-1.34,14.2-14.94c3.42-5.47,2.61-12.58-1.95-17.14h0c-5.35-6.11-14.75-6.43-20.5-.68l-1.58,1.58-14.65-10.06s-.2.23-.56.64c17.4-20.27,28.91-45.75,31.86-73.78-.01.14-.03.29-.04.43l17.81,2.89v2.24c0,8.12,6.87,14.55,14.98,14.01h0c6.45,0,12.05-4.45,13.5-10.74l.52-20.6v-1.89l-.52-20.6Z"/>
</svg>
