<?xml version='1.0' encoding='UTF-8'?>
<svg xmlns="http://www.w3.org/2000/svg" id="bn" data-name="Tribune discours" viewBox="0 0 453.54 453.54">
  <defs>
    <style>
      .ca {
        fill: #144179;
        stroke-width: 0px;
      }
    </style>
  </defs>
  <path class="ca" d="M182.52,183.8v.09h86.18v-.09h-86.18Z"/>
  <path class="ca" d="M268.7,183.8v.09h-86.18v-.09h-67.42c-3.22,0-5.82,2.61-5.82,5.82v73.34c0,3.21,2.6,5.82,5.82,5.82h30.84v98.9h-30.84c-3.22,0-5.82,2.61-5.82,5.82v36.12c0,3.21,2.6,5.82,5.82,5.82h220c3.21,0,5.82-2.61,5.82-5.82v-36.12c0-3.21-2.61-5.82-5.82-5.82h-29.81v-98.9h29.81c3.21,0,5.82-2.61,5.82-5.82v-73.34c0-3.21-2.61-5.82-5.82-5.82h-66.39ZM329.27,379.34v24.47H120.92v-24.47h208.35ZM157.58,367.69v-136.06h136.06v136.06h-136.06ZM299.46,219.99h-147.7c-3.21,0-5.82,2.61-5.82,5.82v31.33h-25.02v-61.7h208.35v61.7h-23.99v-31.33c0-3.21-2.6-5.82-5.82-5.82Z"/>
  <path class="ca" d="M293.64,262.18v1.57c-.04-.25-.06-.52-.06-.79s.02-.53.06-.79Z"/>
  <path class="ca" d="M225.15,38.59c-18.93,0-34.32,15.4-34.32,34.32s15.39,34.33,34.32,34.33,34.33-15.4,34.33-34.33-15.4-34.32-34.33-34.32ZM225.15,94c-11.63,0-21.09-9.46-21.09-21.09s9.46-21.08,21.09-21.08,21.09,9.45,21.09,21.08-9.46,21.09-21.09,21.09Z"/>
  <path class="ca" d="M265.75,130.76c-9.18-9.07-21.35-14.07-34.26-14.07h-12.69c-12.91,0-25.08,5-34.26,14.07-9.17,9.05-14.32,21.15-14.49,34.02-.03,1.77.67,3.49,1.91,4.75,1.23,1.25,2.95,1.97,4.71,1.97h96.94c1.76,0,3.47-.72,4.72-1.98,1.23-1.25,1.93-2.98,1.9-4.74-.16-12.89-5.32-24.97-14.49-34.02ZM184.03,158.25c3.34-16.24,17.72-28.32,34.77-28.32h12.69c17.05,0,31.43,12.08,34.77,28.32h-82.23Z"/>
</svg>
