<?xml version='1.0' encoding='UTF-8'?>
<svg xmlns="http://www.w3.org/2000/svg" id="j" data-name="Europe" viewBox="0 0 453.54 453.54">
  <defs>
    <style>
      .k {
        fill: #144179;
      }

      .k, .l {
        stroke-width: 0px;
      }

      .l {
        fill: #fff;
      }
    </style>
  </defs>
  <circle class="k" cx="226.97" cy="228.58" r="188.93"/>
  <g>
    <g>
      <path class="l" d="M226.27,100.26l-5.69,17.61,8.79,2.83-3.09-20.44Z"/>
      <path class="l" d="M226.27,100.26l5.69,17.61-8.79,2.83,3.09-20.44Z"/>
    </g>
    <g>
      <path class="l" d="M243.85,113.04h-18.48v9.31l18.48-9.31Z"/>
      <path class="l" d="M243.85,113.04l-15.08,10.86-5.43-7.54,20.51-3.32Z"/>
      <path class="l" d="M237.13,133.67l-5.69-17.57-8.94,2.9,14.63,14.67Z"/>
      <path class="l" d="M237.13,133.67l-15.08-10.86,5.43-7.54,9.65,18.4Z"/>
    </g>
    <path class="l" d="M208.7,113.04h18.48v9.31l-18.48-9.31Z"/>
    <path class="l" d="M208.7,113.04l15.08,10.86,5.43-7.54-20.51-3.32Z"/>
    <path class="l" d="M215.41,133.67l5.69-17.57,8.79,2.87-14.48,14.71Z"/>
    <path class="l" d="M215.41,133.67l15.08-10.86-5.43-7.54-9.65,18.4Z"/>
  </g>
  <path class="l" d="M226.27,322.22l-5.69,17.57,8.79,2.87-3.09-20.44Z"/>
  <path class="l" d="M226.27,322.22l5.69,17.57-8.79,2.87,3.09-20.44Z"/>
  <path class="l" d="M243.85,334.85h-18.48v9.24l18.48-9.24Z"/>
  <path class="l" d="M243.85,334.85l-15.08,10.86-5.43-7.54,20.51-3.32Z"/>
  <path class="l" d="M237.13,355.52l-5.69-17.57-8.94,2.83,14.63,14.74Z"/>
  <path class="l" d="M237.13,355.52l-15.08-10.86,5.43-7.54,9.65,18.4Z"/>
  <path class="l" d="M208.7,334.85h18.48v9.24l-18.48-9.24Z"/>
  <path class="l" d="M208.7,334.85l15.08,10.86,5.43-7.54-20.51-3.32Z"/>
  <path class="l" d="M215.41,355.52l5.69-17.57,8.79,2.83-14.48,14.74Z"/>
  <path class="l" d="M215.41,355.52l15.08-10.86-5.43-7.54-9.65,18.4Z"/>
  <g>
    <path class="l" d="M115.37,211.16l-5.69,17.57,8.79,2.87-3.09-20.44Z"/>
    <path class="l" d="M115.37,211.16l5.73,17.57-8.79,2.98,3.05-20.55Z"/>
    <path class="l" d="M132.94,223.95h-18.48v9.24l18.48-9.24Z"/>
    <path class="l" d="M132.94,223.95l-15.08,10.86-5.43-7.54,20.51-3.32Z"/>
    <path class="l" d="M126.23,244.61l-5.54-17.57-8.79,2.87,14.33,14.71Z"/>
    <path class="l" d="M126.23,244.61l-15.08-10.86,5.43-7.54,9.65,18.4Z"/>
    <path class="l" d="M97.79,223.95h18.48v9.24l-18.48-9.24Z"/>
    <path class="l" d="M97.79,223.95l15.08,10.86,5.43-7.54-20.51-3.32Z"/>
    <path class="l" d="M104.51,244.61l5.73-17.57,8.79,2.87-14.52,14.71Z"/>
    <path class="l" d="M104.51,244.61l15.08-10.86-5.43-7.54-9.65,18.4Z"/>
    <path class="l" d="M159.94,148.75l15.08-10.86-5.43-7.54-9.65,18.4Z"/>
    <path class="l" d="M159.94,148.75l5.73-17.57,8.79,2.87-14.52,14.71Z"/>
    <path class="l" d="M153.23,127.9l15.08,10.86,5.43-7.54-20.51-3.32Z"/>
    <path class="l" d="M153.23,127.9h18.52v9.24l-18.52-9.24Z"/>
    <path class="l" d="M170.84,115.11l-5.73,17.61,8.79,2.83-3.05-20.44Z"/>
    <path class="l" d="M170.84,115.11l5.69,17.61-8.79,2.83,3.09-20.44Z"/>
    <path class="l" d="M181.7,148.75l-15.08-10.86,5.43-7.54,9.65,18.4Z"/>
    <path class="l" d="M181.7,148.75l-5.73-17.57-8.79,2.87,14.52,14.71Z"/>
    <path class="l" d="M188.56,127.9l-15.08,10.86-5.43-7.54,20.51-3.32Z"/>
    <path class="l" d="M188.56,127.9h-18.48v9.24l18.48-9.24Z"/>
    <path class="l" d="M141.09,189.18l-5.69-17.61-8.79,2.87,14.48,14.74Z"/>
    <path class="l" d="M141.09,189.18l-15.08-10.9,5.43-7.54,9.65,18.44Z"/>
    <path class="l" d="M119.36,189.18l15.08-10.9-5.43-7.54-9.65,18.44Z"/>
    <path class="l" d="M119.36,189.18l5.73-17.61,8.79,2.87-14.52,14.74Z"/>
    <path class="l" d="M112.65,168.51l15.08,10.86,5.43-7.54-20.51-3.32Z"/>
    <path class="l" d="M112.65,168.51h18.48v9.24l-18.48-9.24Z"/>
    <path class="l" d="M147.8,168.51l-15.08,10.86-5.43-7.54,20.51-3.32Z"/>
    <path class="l" d="M147.8,168.51h-18.48v9.24l18.48-9.24Z"/>
    <path class="l" d="M130.23,155.73l5.73,17.57-8.79,2.87,3.05-20.44Z"/>
    <path class="l" d="M130.23,155.73l-5.77,17.57,8.79,2.87-3.02-20.44Z"/>
    <path class="l" d="M147.8,279.38h-18.48v9.24l18.48-9.24Z"/>
    <path class="l" d="M147.8,279.38l-15.08,10.86-5.43-7.54,20.51-3.32Z"/>
    <path class="l" d="M141.09,300.05l-5.69-17.57-8.79,2.87,14.48,14.71Z"/>
    <path class="l" d="M141.09,300.05l-15.08-10.86,5.43-7.54,9.65,18.4Z"/>
    <path class="l" d="M119.36,300.05l15.08-10.86-5.43-7.54-9.65,18.4Z"/>
    <path class="l" d="M119.36,300.05l5.73-17.57,8.79,2.87-14.52,14.71Z"/>
    <path class="l" d="M130.23,266.63l5.73,17.57-8.79,2.87,3.05-20.44Z"/>
    <path class="l" d="M130.23,266.63l-5.77,17.57,8.79,2.87-3.02-20.44Z"/>
    <path class="l" d="M112.65,279.38h18.48v9.24l-18.48-9.24Z"/>
    <path class="l" d="M112.65,279.38l15.08,10.86,5.43-7.54-20.51-3.32Z"/>
    <path class="l" d="M188.56,319.99h-18.48v9.24l18.48-9.24Z"/>
    <path class="l" d="M188.56,319.99l-15.08,10.86-5.43-7.54,20.51-3.32Z"/>
    <path class="l" d="M181.7,340.66l-5.73-17.57-8.79,2.9,14.52,14.67Z"/>
    <path class="l" d="M181.7,340.66l-15.08-10.86,5.43-7.54,9.65,18.4Z"/>
    <path class="l" d="M159.94,340.66l15.08-10.86-5.43-7.54-9.65,18.4Z"/>
    <path class="l" d="M159.94,340.66l5.73-17.57,8.79,2.83-14.52,14.74Z"/>
    <path class="l" d="M170.84,307.14l5.69,17.57-8.79,2.87,3.09-20.44Z"/>
    <path class="l" d="M170.84,307.14l-5.73,17.57,8.79,2.87-3.05-20.44Z"/>
    <path class="l" d="M153.23,319.99h18.52v9.24l-18.52-9.24Z"/>
    <path class="l" d="M153.23,319.99l15.08,10.86,5.43-7.54-20.51-3.32Z"/>
  </g>
  <path class="l" d="M337.18,211.16l5.69,17.57-8.79,2.98,3.09-20.55Z"/>
  <path class="l" d="M337.18,211.16l-5.73,17.57,8.79,2.87-3.05-20.44Z"/>
  <path class="l" d="M319.61,223.95h18.48v9.24l-18.48-9.24Z"/>
  <path class="l" d="M319.61,223.95l15.08,10.86,5.43-7.54-20.51-3.32Z"/>
  <path class="l" d="M326.32,244.61l5.54-17.57,8.79,2.87-14.33,14.71Z"/>
  <path class="l" d="M326.32,244.61l15.08-10.86-5.43-7.54-9.65,18.4Z"/>
  <path class="l" d="M354.75,223.95h-18.48v9.24l18.48-9.24Z"/>
  <path class="l" d="M354.75,223.95l-15.08,10.86-5.43-7.54,20.51-3.32Z"/>
  <path class="l" d="M348.04,244.61l-5.73-17.57-8.79,2.87,14.52,14.71Z"/>
  <path class="l" d="M348.04,244.61l-15.08-10.86,5.43-7.54,9.65,18.4Z"/>
  <path class="l" d="M292.61,148.75l-15.08-10.86,5.43-7.54,9.65,18.4Z"/>
  <path class="l" d="M292.61,148.75l-5.73-17.57-8.79,2.87,14.52,14.71Z"/>
  <path class="l" d="M299.32,127.9l-15.08,10.86-5.43-7.54,20.51-3.32Z"/>
  <path class="l" d="M299.32,127.9h-18.52v9.24l18.52-9.24Z"/>
  <path class="l" d="M281.71,115.11l5.73,17.61-8.79,2.83,3.05-20.44Z"/>
  <path class="l" d="M281.71,115.11l-5.69,17.61,8.79,2.83-3.09-20.44Z"/>
  <path class="l" d="M270.85,148.75l15.08-10.86-5.43-7.54-9.65,18.4Z"/>
  <path class="l" d="M270.85,148.75l5.73-17.57,8.79,2.87-14.52,14.71Z"/>
  <path class="l" d="M263.98,127.9l15.08,10.86,5.43-7.54-20.51-3.32Z"/>
  <path class="l" d="M263.98,127.9h18.48v9.24l-18.48-9.24Z"/>
  <path class="l" d="M311.46,189.18l5.69-17.61,8.79,2.87-14.48,14.74Z"/>
  <path class="l" d="M311.46,189.18l15.08-10.9-5.43-7.54-9.65,18.44Z"/>
  <path class="l" d="M333.18,189.18l-15.08-10.9,5.43-7.54,9.65,18.44Z"/>
  <path class="l" d="M333.18,189.18l-5.73-17.61-8.79,2.87,14.52,14.74Z"/>
  <path class="l" d="M339.89,168.51l-15.08,10.86-5.43-7.54,20.51-3.32Z"/>
  <path class="l" d="M339.89,168.51h-18.48v9.24l18.48-9.24Z"/>
  <path class="l" d="M304.75,168.51l15.08,10.86,5.43-7.54-20.51-3.32Z"/>
  <path class="l" d="M304.75,168.51h18.48v9.24l-18.48-9.24Z"/>
  <path class="l" d="M322.32,155.73l-5.54,17.57,8.79,2.87-3.24-20.44Z"/>
  <path class="l" d="M322.32,155.73l5.77,17.57-8.79,2.87,3.02-20.44Z"/>
  <path class="l" d="M304.75,279.38h18.48v9.24l-18.48-9.24Z"/>
  <path class="l" d="M304.75,279.38l15.08,10.86,5.43-7.54-20.51-3.32Z"/>
  <path class="l" d="M311.46,300.05l5.69-17.57,8.79,2.87-14.48,14.71Z"/>
  <path class="l" d="M311.46,300.05l15.08-10.86-5.43-7.54-9.65,18.4Z"/>
  <path class="l" d="M333.18,300.05l-15.08-10.86,5.43-7.54,9.65,18.4Z"/>
  <path class="l" d="M333.18,300.05l-5.73-17.57-8.79,2.87,14.52,14.71Z"/>
  <path class="l" d="M322.32,266.63l-5.54,17.57,8.79,2.87-3.24-20.44Z"/>
  <path class="l" d="M322.32,266.63l5.77,17.57-8.79,2.87,3.02-20.44Z"/>
  <path class="l" d="M339.89,279.38h-18.48v9.24l18.48-9.24Z"/>
  <path class="l" d="M339.89,279.38l-15.08,10.86-5.43-7.54,20.51-3.32Z"/>
  <path class="l" d="M263.98,319.99h18.48v9.24l-18.48-9.24Z"/>
  <path class="l" d="M263.98,319.99l15.08,10.86,5.43-7.54-20.51-3.32Z"/>
  <path class="l" d="M270.85,340.66l5.73-17.57,8.79,2.83-14.52,14.74Z"/>
  <path class="l" d="M270.85,340.66l15.08-10.86-5.43-7.54-9.65,18.4Z"/>
  <path class="l" d="M292.61,340.66l-15.08-10.86,5.43-7.54,9.65,18.4Z"/>
  <path class="l" d="M292.61,340.66l-5.73-17.57-8.79,2.9,14.52,14.67Z"/>
  <path class="l" d="M281.71,307.14l-5.69,17.57,8.79,2.87-3.09-20.44Z"/>
  <path class="l" d="M281.71,307.14l5.73,17.57-8.79,2.87,3.05-20.44Z"/>
  <path class="l" d="M299.32,319.99h-18.52v9.24l18.52-9.24Z"/>
  <path class="l" d="M299.32,319.99l-15.08,10.86-5.43-7.54,20.51-3.32Z"/>
</svg>
