<?xml version='1.0' encoding='UTF-8'?>
<svg xmlns="http://www.w3.org/2000/svg" id="c" data-name="Drapeau europeen" viewBox="0 0 453.54 453.54">
  <defs>
    <style>
      .k {
        fill: #144179;
        stroke-width: 0px;
      }

      .l {
        fill: none;
        stroke: #144179;
        stroke-miterlimit: 10;
        stroke-width: 12px;
      }
    </style>
  </defs>
  <g>
    <path class="k" d="M232.68,87.52l2.25,4.56,5.03.73c2.33.34,3.25,3.2,1.57,4.84l-3.64,3.55.86,5.01c.4,2.32-2.03,4.08-4.11,2.99l-4.5-2.36-4.5,2.36c-2.08,1.09-4.51-.67-4.11-2.99l.86-5.01-3.64-3.55c-1.68-1.64-.75-4.5,1.57-4.84l5.03-.73,2.25-4.56c1.04-2.11,4.04-2.11,5.08,0Z"/>
    <path class="k" d="M208.18,115.6l2.25,4.56,5.03.73c2.33.34,3.25,3.2,1.57,4.84l-3.64,3.55.86,5.01c.4,2.32-2.03,4.08-4.11,2.99l-4.5-2.36-4.5,2.36c-2.08,1.09-4.51-.67-4.11-2.99l.86-5.01-3.64-3.55c-1.68-1.64-.75-4.5,1.57-4.84l5.03-.73,2.25-4.56c1.04-2.11,4.04-2.11,5.08,0Z"/>
    <path class="k" d="M211.43,152.94l2.25,4.56,5.03.73c2.33.34,3.25,3.2,1.57,4.84l-3.64,3.55.86,5.01c.4,2.32-2.03,4.08-4.11,2.99l-4.5-2.36-4.5,2.36c-2.08,1.09-4.51-.67-4.11-2.99l.86-5.01-3.64-3.55c-1.68-1.64-.75-4.5,1.57-4.84l5.03-.73,2.25-4.56c1.04-2.11,4.04-2.11,5.08,0Z"/>
    <path class="k" d="M235.93,178.17l2.25,4.56,5.03.73c2.33.34,3.25,3.2,1.57,4.84l-3.64,3.55.86,5.01c.4,2.32-2.03,4.08-4.11,2.99l-4.5-2.36-4.5,2.36c-2.08,1.09-4.51-.67-4.11-2.99l.86-5.01-3.64-3.55c-1.68-1.64-.75-4.5,1.57-4.84l5.03-.73,2.25-4.56c1.04-2.11,4.04-2.11,5.08,0Z"/>
    <path class="k" d="M274.72,175.03l2.25,4.56,5.03.73c2.33.34,3.25,3.2,1.57,4.84l-3.64,3.55.86,5.01c.4,2.32-2.03,4.08-4.11,2.99l-4.5-2.36-4.5,2.36c-2.08,1.09-4.51-.67-4.11-2.99l.86-5.01-3.64-3.55c-1.68-1.64-.75-4.5,1.57-4.84l5.03-.73,2.25-4.56c1.04-2.11,4.04-2.11,5.08,0Z"/>
    <path class="k" d="M297.42,147.75l2.25,4.56,5.03.73c2.33.34,3.25,3.2,1.57,4.84l-3.64,3.55.86,5.01c.4,2.32-2.03,4.08-4.11,2.99l-4.5-2.36-4.5,2.36c-2.08,1.09-4.51-.67-4.11-2.99l.86-5.01-3.64-3.55c-1.68-1.64-.75-4.5,1.57-4.84l5.03-.73,2.25-4.56c1.04-2.11,4.04-2.11,5.08,0Z"/>
    <path class="k" d="M294.2,107.98l2.25,4.56,5.03.73c2.33.34,3.25,3.2,1.57,4.84l-3.64,3.55.86,5.01c.4,2.32-2.03,4.08-4.11,2.99l-4.5-2.36-4.5,2.36c-2.08,1.09-4.51-.67-4.11-2.99l.86-5.01-3.64-3.55c-1.68-1.64-.75-4.5,1.57-4.84l5.03-.73,2.25-4.56c1.04-2.11,4.04-2.11,5.08,0Z"/>
    <path class="k" d="M270.5,83.92l2.25,4.56,5.03.73c2.33.34,3.25,3.2,1.57,4.84l-3.64,3.55.86,5.01c.4,2.32-2.03,4.08-4.11,2.99l-4.5-2.36-4.5,2.36c-2.08,1.09-4.51-.67-4.11-2.99l.86-5.01-3.64-3.55c-1.68-1.64-.75-4.5,1.57-4.84l5.03-.73,2.25-4.56c1.04-2.11,4.04-2.11,5.08,0Z"/>
  </g>
  <path class="l" d="M80.62,410.78h110.34c3.22,0,3.22-.68,0-.68h-46.4v-181.2c12.45,3.9,25.59,5.89,39.99,5.89,22.33,0,44.73-4.57,66.33-9.06,21.09-4.35,42.84-8.77,63.93-8.77,30.16,0,53.64,11.82,53.64,11.82V61.54s-20.59-10.87-53.64-10.87c-22.32,0-44.72,4.57-66.33,9.06-21.09,4.35-42.84,8.77-63.93,8.77-14.52,0-27.67-2.24-39.99-6.54v-8.45c0-3.22-2.62-5.84-5.84-5.84h-8.36c-3.22,0-5.84,2.62-5.84,5.84v356.59h-43.9c-3.22,0-3.22.68,0,.68Z"/>
</svg>
