<?xml version='1.0' encoding='UTF-8'?>
<svg xmlns="http://www.w3.org/2000/svg" id="a" data-name="Mairie" viewBox="0 0 453.54 453.54">
  <defs>
    <style>
      .k {
        fill: none;
        stroke: #144179;
        stroke-linecap: round;
        stroke-linejoin: round;
        stroke-width: 12px;
      }

      .l {
        fill: #144179;
        stroke-width: 0px;
      }
    </style>
  </defs>
  <polygon class="k" points="225.11 117.78 112.75 192.07 112.75 229.78 75.7 229.78 75.7 413.11 379.7 413.11 379.7 229.78 339.46 229.78 339.46 192.07 225.11 117.78"/>
  <line class="k" x1="41.03" y1="413.11" x2="411.26" y2="413.11"/>
  <rect class="k" x="187.87" y="342.74" width="76.02" height="70.37"/>
  <line class="k" x1="225.66" y1="342.74" x2="225.66" y2="413.11"/>
  <line class="k" x1="187.87" y1="198" x2="187.87" y2="223.56"/>
  <line class="k" x1="225.66" y1="198.07" x2="225.66" y2="223.63"/>
  <line class="k" x1="263.89" y1="198" x2="263.89" y2="223.56"/>
  <line class="k" x1="112.75" y1="273.48" x2="112.75" y2="299.03"/>
  <line class="k" x1="150.54" y1="273.55" x2="150.54" y2="299.1"/>
  <line class="k" x1="112.75" y1="348.81" x2="112.75" y2="374.37"/>
  <line class="k" x1="150.54" y1="348.88" x2="150.54" y2="374.44"/>
  <line class="k" x1="301.68" y1="273.55" x2="301.68" y2="299.1"/>
  <line class="k" x1="339.46" y1="273.62" x2="339.46" y2="299.17"/>
  <line class="k" x1="301.68" y1="348.88" x2="301.68" y2="374.44"/>
  <line class="k" x1="339.46" y1="348.95" x2="339.46" y2="374.51"/>
  <line class="k" x1="226.14" y1="274.01" x2="226.14" y2="299.56"/>
  <line class="k" x1="225.11" y1="117.78" x2="225.11" y2="44.22"/>
  <path class="k" d="M225.11,50s19.48,4.89,43.48,0,44-1.31,44-1.31v59.06s-8.22-7.3-44.44,1.14c-36.22,8.44-43.04-4.22-43.04-4.22v-54.67Z"/>
  <rect class="l" x="283.92" y="47.43" width="25.56" height="57.02"/>
  <rect class="l" x="227.7" y="50.54" width="28.89" height="58.13"/>
</svg>
