<?xml version='1.0' encoding='UTF-8'?>
<svg xmlns="http://www.w3.org/2000/svg" id="y" data-name="Cadenas ouvert" viewBox="0 0 453.54 453.54">
  <defs>
    <style>
      .aq {
        stroke-linecap: square;
        stroke-width: 12px;
      }

      .aq, .ar {
        fill: none;
        stroke: #8A5301;
        stroke-linejoin: round;
      }

      .ar {
        stroke-linecap: round;
        stroke-width: 11.73px;
      }
    </style>
  </defs>
  <path class="aq" d="M172.56,171.8c-1.22-36.14,5.63-63.83,19.94-78.67,11.47-11.89,24.67-13.5,31.85-13.3,45.34,0,50.47,45.62,50.67,47.55.32,3.3,3.09,5.82,6.4,5.82h26.6c.53,0,1.03-.08,1.52-.2.75-.18,1.46-.48,2.08-.9.18-.12.33-.27.49-.41.15-.13.32-.24.46-.38.53-.53.96-1.17,1.28-1.87.03-.06.07-.11.1-.18.13-.31.22-.65.31-.99.02-.08.05-.14.07-.22.05-.24.05-.49.08-.74.02-.19.06-.37.06-.56,0,0,0,0,0,0h0s0,0,0,0c.02-26.04-9.66-48.39-27.98-64.63-19.31-17.11-47.27-25.79-72.94-22.65-83.45,10.19-83.49,86.01-83.52,131.31v1.02"/>
  <path class="ar" d="M130.25,172.28v.17h-26.24c-12.44,0-22.56,10.12-22.56,22.56v69.03c0,78.18,63.6,141.78,141.78,141.78h2.73c78.18,0,141.78-63.6,141.78-141.78v-69.03c0-12.44-10.12-22.56-22.56-22.56h-172.38l-42.55-.17ZM253.49,324.95c.36,2.13-.36,4.3-1.93,5.78-.42.4-10.59,9.81-26.95,9.81h-.04c-16.42,0-26.55-9.42-26.97-9.82-1.56-1.48-2.28-3.64-1.91-5.77l4.85-28.01c-7.17-5.95-13.76-16.58-13.76-29.15,0-20.86,16.97-37.84,37.84-37.84s37.79,16.97,37.79,37.84c0,12.54-6.59,23.18-13.76,29.15l4.85,28.02Z"/>
</svg>
