<?xml version='1.0' encoding='UTF-8'?>
<svg xmlns="http://www.w3.org/2000/svg" id="m" data-name="Données sécurisées" viewBox="0 0 453.54 453.54">
  <defs>
    <style>
      .aq {
        stroke: #8A5301;
        stroke-width: 12px;
      }

      .aq, .ar, .as {
        stroke-linecap: round;
        stroke-linejoin: round;
      }

      .aq, .as {
        fill: none;
      }

      .ar {
        fill: #8A5301;
      }

      .ar, .as {
        stroke: #8A5301;
        stroke-width: 10.27px;
      }

      .at {
        fill: #fff;
        stroke-width: 0px;
      }
    </style>
  </defs>
  <g>
    <path class="aq" d="M221.09,256.12l-40.92-73.82V54.83c-45.06,0-84.23,21.71-108.1,59.92-25.37,40.6-26.6,87.48-3.39,129.35,26.73,48.22,80.11,72.32,131.57,64.11"/>
    <path class="aq" d="M221.09,256.12l-40.92-73.82,111.49-61.8c13.14,23.71,17.93,49.79,15.32,74.85"/>
    <path class="aq" d="M198.2,152.02V24.54c47.87,0,88.28,23.8,111.49,65.67l-111.49,61.8Z"/>
  </g>
  <g>
    <path class="as" d="M251.31,297.71h-12.45c-6.87,0-12.46,5.59-12.46,12.46v38.13c0,43.18,35.13,78.3,78.3,78.3h1.51c43.18,0,78.3-35.13,78.3-78.3v-38.13c0-6.87-5.59-12.46-12.46-12.46h-120.74Z"/>
    <path class="as" d="M318.18,360.88c3.96-3.29,7.6-9.17,7.6-16.1,0-11.52-9.36-20.9-20.87-20.9s-20.9,9.37-20.9,20.9c0,6.94,3.64,12.81,7.6,16.1l-2.68,15.47c-.2,1.17.19,2.37,1.06,3.19.23.22,5.83,5.42,14.89,5.42h.02c9.04,0,14.65-5.2,14.89-5.42.87-.82,1.27-2.02,1.06-3.19l-2.68-15.47Z"/>
    <path class="ar" d="M360.41,297.23v-21.95c0-29.12-23.83-52.95-52.95-52.95h-3.21c-29.12,0-52.95,23.83-52.95,52.95v21.95h109.1Z"/>
    <path class="at" d="M341.77,291.23v-15.11c0-20.05-15.82-36.45-35.17-36.45h-2.13c-19.34,0-35.17,16.4-35.17,36.45v15.11h72.46Z"/>
  </g>
</svg>
