<?xml version='1.0' encoding='UTF-8'?>
<svg xmlns="http://www.w3.org/2000/svg" id="z" data-name="Cadenas fermé" viewBox="0 0 453.54 453.54">
  <defs>
    <style>
      .aq {
        fill: none;
        stroke: #8A5301;
        stroke-linecap: round;
        stroke-linejoin: round;
        stroke-width: 12px;
      }
    </style>
  </defs>
  <path class="aq" d="M289.45,181.74v-30.1c0-39.94-27.53-72.61-61.19-72.61h-3.71c-33.65,0-61.19,32.67-61.19,72.61v30.1h126.08Z"/>
  <g>
    <path class="aq" d="M128.5,182.59h-22.33c-12.32,0-22.34,10.02-22.34,22.34v68.35c0,77.41,62.97,140.38,140.38,140.38h2.7c77.41,0,140.38-62.97,140.38-140.38v-68.35c0-12.32-10.02-22.34-22.34-22.34h-216.46Z"/>
    <path class="aq" d="M248.39,295.84c7.1-5.91,13.62-16.44,13.62-28.86,0-20.66-16.79-37.46-37.42-37.46s-37.46,16.81-37.46,37.46c0,12.45,6.52,22.97,13.62,28.87l-4.8,27.73c-.36,2.1.35,4.24,1.9,5.71.42.4,10.45,9.72,26.7,9.72h.04c16.21,0,26.27-9.32,26.69-9.71,1.56-1.46,2.27-3.61,1.91-5.72l-4.8-27.74Z"/>
    <path class="aq" d="M324.09,181.74v-39.35c0-52.21-42.71-94.92-94.92-94.92h-5.75c-52.21,0-94.92,42.71-94.92,94.92v39.35h195.59Z"/>
  </g>
</svg>
