<?xml version='1.0' encoding='UTF-8'?>
<svg xmlns="http://www.w3.org/2000/svg" id="h" data-name="Main protection" viewBox="0 0 453.54 453.54">
  <defs>
    <style>
      .aq {
        fill: #fff;
      }

      .aq, .ar, .as, .at {
        stroke-linecap: round;
        stroke-width: 12px;
      }

      .aq, .ar, .at {
        stroke-linejoin: round;
      }

      .aq, .as, .at {
        stroke: #8A5301;
      }

      .ar {
        stroke: #8A5301;
      }

      .ar, .as, .at {
        fill: none;
      }

      .as {
        stroke-miterlimit: 10;
      }
    </style>
  </defs>
  <path class="ar" d="M227.13,264.07c-.23.09-.49.09-.72,0-102.77-43.56-110.85-121.81-106.5-185.16,48.34,11.67,90.5-20.03,106.4-34.21.25-.23.64-.23.89,0,15.81,14.18,57.81,45.9,106.29,33.96,4.59,63.46-3.51,141.77-106.37,185.41Z"/>
  <path class="as" d="M185.13,156.4l31.11,31.11c2.17,2.17,5.67,2.22,7.9.12l59.99-60.82"/>
  <g>
    <path class="at" d="M75.35,218.25l2.05-53.78c-1.94-8.94-10.77-14.61-19.71-12.67h0c-8.94,1.94-11.22,8.62-12.67,19.71l-2.83,54.8s11.27,64.19,24.89,77.72c15.09,15,57.95,37.41,57.95,37.41l-.11,22.78,80.61-3.56s2.23-40.07-.93-51.71c-2.79-10.31-15.88-23.39-30.68-31.94-22.45-12.96-39.16-14.89-39.16-14.89l-35.4-43.31c-5.21-6.38-15.65-7.43-22.74-1.64-7.09,5.79-8.13,16.23-2.92,22.61l35.4,43.31"/>
    <rect class="aq" x="138.34" y="330.29" width="54.55" height="101.65" rx="9.29" ry="9.29" transform="translate(-215.5 546.73) rotate(-90)"/>
  </g>
  <g>
    <path class="at" d="M378.19,218.25l-2.05-53.78c1.94-8.94,10.77-14.61,19.71-12.67h0c8.94,1.94,11.22,8.62,12.67,19.71l2.83,54.8s-11.27,64.19-24.89,77.72c-15.09,15-57.95,37.41-57.95,37.41l.11,22.78-80.61-3.56s-2.23-40.07.93-51.71c2.79-10.31,15.88-23.39,30.68-31.94,22.45-12.96,39.16-14.89,39.16-14.89l35.4-43.31c5.21-6.38,15.65-7.43,22.74-1.64,7.09,5.79,8.13,16.23,2.92,22.61l-35.4,43.31"/>
    <rect class="aq" x="260.65" y="330.29" width="54.55" height="101.65" rx="9.29" ry="9.29" transform="translate(-93.19 669.04) rotate(-90)"/>
  </g>
</svg>
