<?xml version='1.0' encoding='UTF-8'?>
<svg xmlns="http://www.w3.org/2000/svg" xmlns:xlink="http://www.w3.org/1999/xlink" id="ar" data-name="Raquettes" viewBox="0 0 453.54 453.54">
  <defs>
    <style>
      .bv {
        fill: #008280;
      }

      .bv, .bw {
        stroke: #008280;
        stroke-miterlimit: 10;
      }

      .bw {
        fill: none;
        stroke-width: 3px;
      }

      .bx {
        clip-path: url(#as);
      }
    </style>
    <clipPath id="as">
      <path class="bw" d="M364.81,245.11c-38.7,45.89-100.57,58.64-138.2,28.49s-36.77-91.79,1.93-137.68c38.7-45.89,100.57-58.64,138.2-28.49,37.63,30.15,36.77,91.79-1.93,137.68Z"/>
    </clipPath>
  </defs>
  <g>
    <path class="bv" d="M173.36,105.24c10.67,3.48,22.4,1.54,31.38-5.17,15.23-11.39,18.36-33.06,6.96-48.29-4.29-5.73-10.13-9.92-16.91-12.13-3.88-1.26-7.89-1.79-11.87-1.66l-.38-.11-.03.11c-6.82.31-13.5,2.64-19.1,6.83-7.38,5.52-12.17,13.59-13.48,22.7-1.32,9.12,1,18.21,6.52,25.59,4.29,5.73,10.13,9.92,16.91,12.13ZM187.55,44.08c1.82.22,3.64.57,5.41,1.15,5.62,1.83,10.47,5.31,14.03,10.06,4.98,6.66,6.53,14.79,5.11,22.39-7.73-1.11-14.75-5.04-19.48-11.37-5.16-6.89-6.73-14.37-5.08-22.23ZM166.92,49.52c4.15-3.11,9.02-4.93,14.04-5.48-1.63,9.23.57,17.97,6.61,26.05,5.53,7.39,13.59,12.27,22.57,13.81-1.92,4.38-4.84,8.39-8.93,11.45-3.42,2.56-7.33,4.24-11.41,5.07,2.03-9.61-.11-19.77-6.03-27.7-4.25-5.68-10.1-9.85-16.89-12.07-2.63-.85-5.34-1.24-8.08-1.46,1.96-3.74,4.65-7.08,8.13-9.68ZM155.74,68.35c.16-1.09.5-2.12.78-3.17,8.74.08,17.05,4.24,22.3,11.25,5.24,7.01,6.86,16.15,4.47,24.56-2.73-.07-5.46-.49-8.11-1.35-5.62-1.83-10.47-5.31-14.03-10.06-4.58-6.12-6.5-13.66-5.41-21.23Z"/>
    <path class="bv" d="M375.54,112.87c-15.07-15.08-36.14-23.38-59.31-23.38-29.68,0-59.96,13.26-83.08,36.38-23.26,23.26-35.51,52.71-36.24,80.49-2.63,16.46-7.73,42.69-15.78,62.02-10.1,24.19-32.3,48.39-40.03,56.31h-.06c-3.37.75-6.61,2.49-9.29,5.18l-50.13,50.13c-6.55,6.55-7.42,16.34-1.93,21.82l6.55,6.55c2.37,2.31,5.61,3.62,9.17,3.62,4.49,0,9.17-2,12.66-5.55l50.13-50.13c2.31-2.31,3.99-5.11,4.86-8.04,0-.06.06-.06.06-.06,6.92-6.8,32.05-30.37,57.05-40.78,20-8.31,47.32-13.47,63.65-16.02,28.26-1.23,56.72-14.15,78.71-36.14,20.65-20.65,33.41-46.79,35.93-73.6,2.54-27.03-5.6-51.46-22.93-68.79ZM157.63,344.66c-.19,1.68-.81,3.37-1.75,4.86-.56.87-1.18,1.75-2,2.49l-50.13,50.13c-2.31,2.37-5.49,3.8-8.36,3.8-1.37,0-3.37-.31-4.86-1.87l-6.55-6.55c-3.06-3.06-2.18-9.1,1.93-13.22l50.13-50.13c.81-.81,1.68-1.5,2.62-2.06,1.81-1.12,3.8-1.75,5.74-1.75.19,0,.44,0,.69.06,1.31.06,2.93.5,4.18,1.81l.75.75,1.31,1.31,2.93,2.87,1.37,1.43.25.19c1.06,1.12,1.68,2.62,1.75,4.3.06.5.06,1,0,1.56ZM154.2,328.57l-.62-.62c-1.25-1.25-2.81-2.24-4.55-2.81,9.91-10.66,28.5-32.36,37.72-54.44,5.24-12.64,9.25-28.03,12.18-41.88.86,3.91,2.05,7.71,3.44,11.42-2.57,11.17-5.84,22.73-10.07,32.83-9.35,22.57-27.62,44.21-38.1,55.5ZM206.37,249.24c3.59,6.9,8.1,13.35,13.77,19.03,5.62,5.62,12.09,10.3,19.18,13.96-9.01,2.31-18.02,5.05-26.13,8.43-14.15,5.86-27.81,15.03-39.03,23.82,8.67-11.16,17.83-24.88,23.76-39.1,3.37-8.11,6.14-17.13,8.46-26.13ZM217.86,301.82c-22.14,9.23-44.15,28.12-54.75,38.04-.44-2.06-1.5-3.87-2.99-5.36l-.12-.12c11.29-10.41,32.92-28.68,55.5-38.1,10.17-4.23,21.79-7.49,33.02-10.07,3.77,1.39,7.67,2.5,11.68,3.36-13.97,2.93-29.53,6.95-42.33,12.25ZM392.43,181.09c-2.39,25.41-14.53,50.23-34.19,69.88-21.99,21.99-50.71,34.61-78.79,34.61-21.55,0-41.09-7.67-55.02-21.6-33.31-33.31-27.47-93.34,13.01-133.82,21.99-21.99,50.71-34.61,78.79-34.61,21.55,0,41.09,7.67,55.02,21.6,16.03,16.03,23.55,38.74,21.18,63.93Z"/>
  </g>
  <g>
    <g class="bx">
      <g>
        <g>
          <line class="bw" x1="274.52" y1="55.25" x2="436.97" y2="201.4"/>
          <line class="bw" x1="264.71" y1="65.61" x2="427.16" y2="211.76"/>
          <line class="bw" x1="254.91" y1="75.97" x2="417.36" y2="222.13"/>
          <line class="bw" x1="245.1" y1="86.34" x2="407.55" y2="232.49"/>
          <line class="bw" x1="235.3" y1="96.7" x2="397.75" y2="242.85"/>
          <line class="bw" x1="225.49" y1="107.07" x2="387.94" y2="253.22"/>
          <line class="bw" x1="215.69" y1="117.43" x2="378.14" y2="263.58"/>
          <line class="bw" x1="205.88" y1="127.79" x2="368.33" y2="273.95"/>
          <line class="bw" x1="196.08" y1="138.16" x2="358.53" y2="284.31"/>
          <line class="bw" x1="186.27" y1="148.52" x2="348.72" y2="294.67"/>
          <line class="bw" x1="176.46" y1="158.88" x2="338.92" y2="305.04"/>
          <line class="bw" x1="166.66" y1="169.25" x2="329.11" y2="315.4"/>
          <line class="bw" x1="156.85" y1="179.61" x2="319.31" y2="325.76"/>
        </g>
        <g>
          <line class="bw" x1="448.03" y1="166.71" x2="298.59" y2="324.67"/>
          <line class="bw" x1="437.38" y1="157.13" x2="287.94" y2="315.08"/>
          <line class="bw" x1="426.72" y1="147.54" x2="262.68" y2="320.92"/>
          <line class="bw" x1="416.06" y1="137.95" x2="252.02" y2="311.33"/>
          <line class="bw" x1="405.4" y1="128.36" x2="241.36" y2="301.74"/>
          <line class="bw" x1="394.74" y1="118.77" x2="230.7" y2="292.15"/>
          <line class="bw" x1="384.08" y1="109.18" x2="220.04" y2="282.56"/>
          <line class="bw" x1="373.42" y1="99.59" x2="209.38" y2="272.97"/>
          <line class="bw" x1="362.76" y1="90" x2="198.72" y2="263.38"/>
          <line class="bw" x1="352.1" y1="80.41" x2="188.06" y2="253.79"/>
          <line class="bw" x1="341.44" y1="70.82" x2="177.4" y2="244.2"/>
          <line class="bw" x1="330.79" y1="61.23" x2="166.75" y2="234.61"/>
          <line class="bw" x1="320.13" y1="51.64" x2="156.09" y2="225.03"/>
        </g>
      </g>
    </g>
    <path class="bw" d="M364.81,245.11c-38.7,45.89-100.57,58.64-138.2,28.49s-36.77-91.79,1.93-137.68c38.7-45.89,100.57-58.64,138.2-28.49,37.63,30.15,36.77,91.79-1.93,137.68Z"/>
  </g>
</svg>
