<?xml version='1.0' encoding='UTF-8'?>
<svg xmlns="http://www.w3.org/2000/svg" id="ap" data-name="équitation 2" viewBox="0 0 453.54 453.54">
  <defs>
    <style>
      .bu {
        stroke-width: 2.67px;
      }

      .bu, .bv {
        stroke: #008280;
        stroke-miterlimit: 10;
      }

      .bu, .bv, .bw {
        fill: #008280;
      }

      .bv {
        stroke-width: 1.37px;
      }

      .bw {
        stroke-width: 0px;
      }
    </style>
  </defs>
  <path class="bv" d="M410.73,147.93l-40.68-34.22s1.78-13.36,2.97-21.07c1.19-7.72-1.48-5.34-1.48-5.34l-19.29,21.67-27.55,21.2-.25-.2-.77.98-29.62,22.79c-.91.7-.57,2.16.57,2.37l8.01,1.52-2.31,2.93c-2.53,3.21-6.4,5.09-10.49,5.09l-190.03-1.41c-12.1-.09-23.13,6.93-28.16,17.93l-33.46,73.1c-3.35,7.31-.1,15.95,7.24,19.25h0c7.3,3.28,15.88.03,19.16-7.28l29.13-64.79v45.9c0,2.18-.76,4.29-2.15,5.96l-23.68,28.59c-8.02,9.68-9.33,23.26-3.32,34.29l28.92,53.08c4.41,8.09,14.46,11.19,22.66,6.99h0c8.35-4.28,11.65-14.51,7.38-22.86l-24.42-47.69c-.73-1.43-.54-3.15.48-4.38l20.09-24.25-4.28,21.3c-1.58,7.88.88,16.03,6.56,21.72l34.81,34.87h0c-5.09,5.09-5.09,13.34,0,18.43l2.34,2.34c5.09,5.09,13.34,5.09,18.43,0l11.19-11.19c5.99-5.99,6.28-15.6.68-21.94l-36.26-36.33c-.95-.95-1.36-2.31-1.09-3.62l6.24-30.93c.38-1.87,2.02-3.21,3.93-3.21h91.38c1.8,0,3.09,1.75,2.55,3.47l-13.95,44.72-31.61,28.7c-6.27,5.69-6.73,15.38-1.04,21.65h0c5.79,6.37,15.68,6.73,21.92.79l37.69-35.9,16.57-53.12c.64-2.06,3.34-2.55,4.66-.84l13.95,17.95c1.28,1.65,1.08,4.02-.47,5.42l-22.53,20.46c-2.4,2.18-4.15,5-5.03,8.12l-1.09,3.83c-.49,1.72-1.46,3.27-2.81,4.46l-18.18,16.06c-1.11.98-1.21,2.69-.22,3.79l.07.08c.51.56,1.23.88,1.99.88h28.52c2.66,0,5.22-.99,7.19-2.78l44.33-40.28c7.83-7.12,8.78-19.1,2.16-27.36l-28.96-36.13c-1.51-1.94-1.5-4.66.02-6.59l37.48-47.54-.32.41c42.33,11,53.38-25.16,53.38-25.16,13.35-.88,19.81-16.77,10.86-26.71ZM355.06,188.92l14.67-18.6h0l18.31,2.63c-10.5,23.33-32.98,15.97-32.98,15.97Z"/>
  <g>
    <circle class="bu" cx="280.55" cy="106.77" r="17.7"/>
    <path class="bu" d="M304.3,101.36c.19-1.12.31-2.26.31-3.44,0-11.53-9.35-20.88-20.88-20.88s-20.88,6.28-20.88,17.81c0,1.67,1.96.87,3.78,2.23,10.77,8.01,47.15,16,47.91,14.45.91-1.86-3.37-5.95-10.25-10.17Z"/>
    <path class="bw" d="M314.63,179.05c3.35-3.35,3.35-8.78,0-12.13l-7.14-7.14v-.22h-31.56c-1.17,0-2.21-.76-2.55-1.88l-10.35-33.57c-1.96-6.36-8.31-10.31-14.88-9.25l-66.03,10.58c-5.83.93-10.12,5.96-10.12,11.87v16.24c0,8.78,5.72,16.54,14.11,19.14l36.91,11.43c1.66.51,2.39,2.44,1.5,3.93l-20.75,34.49c-3.45,5.74-1.6,13.18,4.14,16.63h0c5.74,3.45,13.18,1.6,16.63-4.14l28.57-47.58c4.74-7.89,1.13-18.15-7.5-21.34l-17.51-6.48c-1.31-.45-1.15-2.36.22-2.58l22.6-3.69c2-.33,3.93.89,4.49,2.83l5.24,18c.5,1.71,2.07,2.89,3.85,2.89h33.26c1.77,0,3.47.7,4.72,1.96l.02.02c3.35,3.35,8.78,3.35,12.13,0h0Z"/>
  </g>
</svg>
