<?xml version='1.0' encoding='UTF-8'?>
<svg xmlns="http://www.w3.org/2000/svg" id="ad" data-name="Musculation" viewBox="0 0 453.54 453.54">
  <defs>
    <style>
      .bu {
        fill: #008280;
        stroke-width: 0px;
      }
    </style>
  </defs>
  <path class="bu" d="M259.44,97.98c.11,19.24-14.99,34.53-34.1,34.52-19.18,0-34.5-15.2-34.52-34.25-.02-18.68,15.22-34.03,33.95-34.21,19.25-.18,34.57,14.82,34.68,33.93Z"/>
  <rect class="bu" x="244.69" y="238.77" width="36.07" height="181.23" rx="18.03" ry="18.03" transform="translate(-83.42 89.17) rotate(-16.66)"/>
  <rect class="bu" x="161.92" y="242.45" width="36.07" height="177.47" rx="18.03" ry="18.03" transform="translate(257.37 700.06) rotate(-163.34)"/>
  <rect class="bu" x="180.11" y="144.52" width="81.33" height="155.5" rx="12.95" ry="12.95"/>
  <rect class="bu" x="301.4" y="173.85" width="25.79" height="93.32" rx="12.9" ry="12.9" transform="translate(687.62 310.2) rotate(158.46)"/>
  <rect class="bu" x="262.12" y="129.76" width="25.79" height="84.82" rx="12.9" ry="12.9" transform="translate(561.63 20.08) rotate(120)"/>
  <rect class="bu" x="162.3" y="109.43" width="25.79" height="72.55" rx="12.9" ry="12.9" transform="translate(402.56 130.68) rotate(136.47)"/>
  <rect class="bu" x="131.1" y="58.59" width="25.79" height="83.66" rx="12.9" ry="12.9" transform="translate(317.96 124.04) rotate(152.84)"/>
  <rect class="bu" x="151.78" y="41.36" width="23.65" height="36.31" rx="5.67" ry="5.67" transform="translate(-10.2 49.42) rotate(-16.66)"/>
  <rect class="bu" x="85.09" y="58.9" width="23.65" height="36.31" rx="5.67" ry="5.67" transform="translate(-18.03 31.03) rotate(-16.66)"/>
  <rect class="bu" x="346.46" y="227.83" width="23.65" height="36.31" rx="5.67" ry="5.67" transform="translate(-65.3 148.76) rotate(-21.54)"/>
  <rect class="bu" x="285.16" y="252.49" width="23.65" height="36.31" rx="5.67" ry="5.67" transform="translate(-78.64 127.97) rotate(-21.54)"/>
</svg>
