<?xml version='1.0' encoding='UTF-8'?>
<svg xmlns="http://www.w3.org/2000/svg" id="x" data-name="équitation" viewBox="0 0 453.54 453.54">
  <defs>
    <style>
      .bu {
        fill: none;
        stroke-linecap: round;
        stroke-linejoin: round;
        stroke-width: 12px;
      }

      .bu, .bv {
        stroke: #008280;
      }

      .bw {
        stroke-width: 0px;
      }

      .bw, .bv {
        fill: #008280;
      }

      .bv {
        stroke-miterlimit: 10;
        stroke-width: 7px;
      }
    </style>
  </defs>
  <g>
    <path class="bw" d="M154.65,173.38c-1.89-4.8-3.96-9.54-5.62-14.42-3.19-9.37-10.39-14.05-18.46-11.71-8.53,2.47-12.5,10.33-9.71,20.09,4.59,16.01,12.98,29.88,24.7,41.65,2.69,2.7,4.57,5.22,3.76,9.23-3.35,16.53,1.91,28.25,18.01,35.39,8.12,3.6,15.23,9.52,22.65,14.6,8.19,5.6,10.85,12.94,7.79,22.4-9.09,28.03-18.31,56.03-27.67,83.97-3.67,10.96-13.74,16.09-23.75,12.59-9.74-3.41-14.41-13.34-10.96-24.03,7.13-22.08,14.33-44.14,21.77-66.11,1.38-4.07.97-6.21-2.85-8.59-14.75-9.15-29.23-18.72-43.87-28.06-7.63-4.87-11.4-12.16-12.78-20.71-4.71-29.18-1.48-57.61,9.29-85.07,4.42-11.27,12.42-19.27,24.72-22.04,16.62-3.74,28.83,8.41,27.15,27.22-.4,4.49-1.56,8.92-2.36,13.37-.61.07-1.22.15-1.83.22Z"/>
    <path class="bw" d="M125.47,95.31c.13-16.94,14.17-30.94,31.1-31.01,17.14-.07,31.44,14.31,31.26,31.44-.18,17.03-14.17,30.99-31.09,31.01-17.16.02-31.4-14.29-31.27-31.44Z"/>
    <path class="bv" d="M213.14,238.79c-40.11-5.33-77.29-30.59-89.58-72.76-2.2-7.54.8-13.62,7.26-15.72,6.63-2.15,12.53,1.09,14.92,8.52,10.18,31.62,32.94,48.67,64.37,55.7,2.24.5,4.54.78,6.75,1.38,6.22,1.68,9.91,7.21,8.94,13.22-.96,6-6.16,9.95-12.67,9.65Z"/>
  </g>
  <path class="bu" d="M364.94,266s-60.4,13.55-106.27-8.12c-35.49-16.77-41.53-52.71-41.53-52.71"/>
  <g>
    <path class="bu" d="M33.77,264.68s180.39-5.69,221.39-108.03c15.18-37.89,50.66-52.93,89.31-56.85l56.02,143.85-30.67,24.33-82.67-63.33"/>
    <line class="bu" x1="307.17" y1="334.65" x2="308.5" y2="225.98"/>
  </g>
</svg>
