<?xml version='1.0' encoding='UTF-8'?>
<svg xmlns="http://www.w3.org/2000/svg" id="y" data-name="Trophee" viewBox="0 0 453.54 453.54">
  <defs>
    <style>
      .bu {
        fill: #008280;
        stroke-width: 0px;
      }
    </style>
  </defs>
  <path class="bu" d="M327.29,66.58v-26.56c0-3.31-2.69-6-6-6h-189.04c-3.31,0-6,2.69-6,6v26.56c-31.73,3.03-56.63,29.83-56.63,62.34,0,34.54,28.1,62.63,62.63,62.63.53,0,1.06,0,1.58-.02,4.11,10.01,9.86,19.36,17.08,27.65,14.6,16.77,34.3,28.21,55.91,32.57v94.83h-28.43c-11.48,0-20.92,10.23-21.73,23.15h-11.71c-3.31,0-6,2.69-6,6v37.79c0,3.31,2.69,6,6,6h163.91c3.31,0,6-2.69,6-6v-37.79c0-3.31-2.69-6-6-6h-13.54c-.81-12.92-10.24-23.15-21.72-23.15h-28.44v-94.52c34.06-6.3,61.75-29.73,74.51-60.53.54.01,1.08.02,1.62.02,34.53,0,62.63-28.09,62.63-62.63,0-32.51-24.9-59.31-56.63-62.34ZM81.62,128.92c0-25.88,19.53-47.3,44.63-50.27v74.58c0,8.94,1.19,17.76,3.49,26.25-26.76-1.3-48.12-23.48-48.12-50.56ZM302.86,407.52h-151.91v-25.79h151.91v25.79ZM273.6,358.58c4.84,0,8.99,4.94,9.68,11.15h-114.58c.69-6.21,4.85-11.15,9.69-11.15h95.21ZM315.29,153.23c0,8.78-1.3,17.31-3.73,25.38-1.17,3.9-2.6,7.69-4.29,11.35-12.36,26.98-37.94,46.98-68.89,51.02-2.99.39-5.22,2.94-5.22,5.95v99.65h-14.34v-99.87c0-2.97-2.18-5.5-5.12-5.94-20.78-3.07-39.87-13.54-53.74-29.47-5.62-6.46-10.23-13.65-13.74-21.33-1.67-3.68-3.1-7.48-4.26-11.36-2.44-8.17-3.71-16.72-3.71-25.38V46.02h177.04v107.21ZM323.79,179.48c2.28-8.4,3.5-17.2,3.5-26.25v-74.58c25.1,2.97,44.63,24.39,44.63,50.27s-21.37,49.26-48.13,50.56Z"/>
</svg>
