<?xml version='1.0' encoding='UTF-8'?>
<svg xmlns="http://www.w3.org/2000/svg" id="v" data-name="Scooter" viewBox="0 0 453.54 453.54">
  <defs>
    <style>
      .z {
        fill: none;
        stroke: #5F1972;
        stroke-linecap: round;
        stroke-linejoin: round;
        stroke-width: 12px;
      }
    </style>
  </defs>
  <path class="z" d="M157.09,337.25c0,26.36-21.37,47.73-47.73,47.73s-47.73-21.37-47.73-47.73"/>
  <path class="z" d="M27.89,332.9c0-45,36.48-81.46,81.46-81.46s81.46,36.48,81.46,81.46"/>
  <path class="z" d="M399.37,337.25c0,26.36-21.37,47.73-47.73,47.73s-47.73-21.37-47.73-47.73"/>
  <path class="z" d="M276.29,332.9c0-41.61,33.73-75.34,75.34-75.34s75.34,33.73,75.34,75.34"/>
  <line class="z" x1="32.51" y1="333.12" x2="424.31" y2="333.12"/>
  <path class="z" d="M56.84,269.23s9.6-34.88,52.51-60.1c42.9-25.24,121.18-14.63,121.18-14.63l-13.41,60.2c-4.97,22.32,12.08,37.47,34.95,37.47h13.86c28.41,0,48.38-24.18,41.82-51.82l-32.93-132.24c-2.19-9.21,3.11-18.55,12.15-21.38h0c9.41-2.95,19.44,2.18,22.54,11.54l33.71,101.44s18.29,1.9,20.28,7.55,21.46,56.08,21.46,56.08"/>
  <rect class="z" x="124.69" y="131.91" width="107.64" height="34.99" rx="17.49" ry="17.49"/>
</svg>
