<?xml version='1.0' encoding='UTF-8'?>
<svg xmlns="http://www.w3.org/2000/svg" id="f" data-name="Bus" viewBox="0 0 453.54 453.54">
  <defs>
    <style>
      .z {
        fill: none;
        stroke: #5F1972;
        stroke-linecap: round;
        stroke-linejoin: round;
        stroke-width: 12px;
      }
    </style>
  </defs>
  <path class="z" d="M353.85,373.65H102.91c-9.76,0-17.68-7.92-17.68-17.68V95.51c0-13.91,8.75-26.33,21.86-30.95,25.94-9.14,71.84-22.35,120.4-22.35,52.57,0,97.32,12.89,122.42,22.01,12.98,4.72,21.61,17.05,21.61,30.86v260.89c0,9.76-7.92,17.68-17.68,17.68Z"/>
  <g>
    <circle class="z" cx="156.37" cy="310.69" r="28.68"/>
    <circle class="z" cx="300.39" cy="310.69" r="28.68"/>
    <rect class="z" x="128.3" y="105.17" width="200.77" height="138.99" rx="12.63" ry="12.63"/>
    <path class="z" d="M130.24,373.98h52.27v20.93c0,9.76-7.92,17.68-17.68,17.68h-16.91c-9.76,0-17.68-7.92-17.68-17.68v-20.93h0Z"/>
    <path class="z" d="M276.8,373.98h52.27v20.93c0,9.76-7.92,17.68-17.68,17.68h-16.91c-9.76,0-17.68-7.92-17.68-17.68v-20.93h0Z"/>
  </g>
</svg>
