<?xml version='1.0' encoding='UTF-8'?>
<svg xmlns="http://www.w3.org/2000/svg" id="w" data-name="Pieces" viewBox="0 0 453.54 453.54">
  <defs>
    <style>
      .ag {
        stroke: #144179;
        stroke-miterlimit: 10;
        stroke-width: 12px;
      }

      .ag, .ah {
        fill: #fff;
      }

      .ah {
        stroke-width: 0px;
      }
    </style>
  </defs>
  <g>
    <ellipse class="ag" cx="289.77" cy="357.51" rx="124.83" ry="53.54" transform="translate(-13.15 11.07) rotate(-2.14)"/>
    <ellipse class="ag" cx="288.2" cy="315.52" rx="124.83" ry="53.54" transform="translate(-11.58 10.98) rotate(-2.14)"/>
    <line class="ag" x1="163.45" y1="320.18" x2="165.02" y2="362.17"/>
    <line class="ag" x1="412.95" y1="310.86" x2="414.52" y2="352.85"/>
    <path class="ah" d="M216.05,372.45s-23.74-5.47-41.04-19.36c0,0-2.38,13.02,6.86,22.09,0,0,5.43,6.77,31.57,15.93l2.61-18.66Z"/>
    <path class="ah" d="M366.96,365.96s23.27-7.23,39.48-22.37c0,0,3.34,12.81-5.2,22.54,0,0-4.9,7.16-30.29,18.24l-3.99-18.41Z"/>
  </g>
  <g>
    <ellipse class="ag" cx="145" cy="285.51" rx="124.83" ry="53.54" transform="translate(-10.56 5.61) rotate(-2.14)"/>
    <ellipse class="ag" cx="143.43" cy="243.52" rx="124.83" ry="53.54" transform="translate(-8.99 5.53) rotate(-2.14)"/>
    <line class="ag" x1="18.68" y1="248.18" x2="20.25" y2="290.17"/>
    <line class="ag" x1="268.17" y1="238.86" x2="269.74" y2="280.85"/>
    <path class="ah" d="M71.27,300.45s-23.74-5.47-41.04-19.36c0,0-2.38,13.02,6.86,22.09,0,0,5.43,6.77,31.57,15.93l2.61-18.66Z"/>
    <path class="ah" d="M222.19,293.96s23.27-7.23,39.48-22.37c0,0,3.34,12.81-5.2,22.54,0,0-4.9,7.16-30.29,18.24l-3.99-18.41Z"/>
  </g>
  <line class="ag" x1="226.5" y1="365.23" x2="226.5" y2="405.35"/>
  <line class="ag" x1="340.47" y1="365.71" x2="340.47" y2="403.76"/>
  <line class="ag" x1="70.89" y1="292.76" x2="70.89" y2="332.88"/>
  <line class="ag" x1="184.85" y1="293.24" x2="184.85" y2="331.29"/>
</svg>
