<?xml version='1.0' encoding='UTF-8'?>
<svg xmlns="http://www.w3.org/2000/svg" id="d" data-name="Argent sac" viewBox="0 0 453.54 453.54">
  <defs>
    <style>
      .ag {
        stroke-miterlimit: 10;
      }

      .ag, .ah, .ai {
        fill: none;
        stroke-width: 12.16px;
      }

      .ag, .ai {
        stroke: #144179;
      }

      .ah {
        stroke: #144179;
      }

      .ah, .ai {
        stroke-linecap: round;
        stroke-linejoin: round;
      }

      .aj {
        fill: #fff;
        stroke-width: 0px;
      }
    </style>
  </defs>
  <g>
    <path class="ag" d="M242.24,133.8l44.67-53.35c6.95-8.3,0-20.73-10.73-19.22-19.81,2.79-44.8,3-64.4-7.78-25.08-13.79-59-9.6-79.57-5.01-8.6,1.92-12.06,12.3-6.4,19.06l53.21,63.55c20.85-4.78,42.81-3.86,63.22,2.75Z"/>
    <path class="ag" d="M179.02,131.04c-29.87,6.84-57.44,25.37-74.89,55.59l-46.15,79.96c-30.06,52.08,7.53,117.18,67.66,117.18h159.97c60.14,0,97.72-65.1,67.66-117.18l-46.15-79.96c-15.48-26.81-38.93-44.43-64.87-52.84"/>
  </g>
  <polygon class="aj" points="392.85 395.75 343.52 410.42 298.06 396.63 297.32 251.93 346.44 236.6 391.89 251.93 392.85 395.75"/>
  <g>
    <path class="ai" d="M262.63,232.17c-10.55-14.34-27.53-23.66-46.7-23.66-32,0-57.94,25.94-57.94,57.94s25.94,57.94,57.94,57.94c21.69,0,40.58-11.93,50.51-29.57"/>
    <line class="ai" x1="134.44" y1="255.25" x2="244.66" y2="255.25"/>
    <line class="ai" x1="134.44" y1="280.68" x2="244.66" y2="280.68"/>
  </g>
  <g>
    <path class="ah" d="M297.97,354.91s-.47,21.28,48.89,22.08c0,0,41.33.52,48.89-22.08"/>
    <ellipse class="ah" cx="346.85" cy="260.63" rx="49.22" ry="22.08"/>
    <line class="ah" x1="297.78" y1="263.23" x2="297.78" y2="385.4"/>
    <line class="ah" x1="395.88" y1="257.82" x2="395.88" y2="352.02"/>
    <path class="ah" d="M297.99,324.08s-.47,21.28,48.89,22.08c0,0,41.33.52,48.89-22.08"/>
    <path class="ah" d="M298,292.36s-.47,21.28,48.91,22.08c0,0,41.35.52,48.91-22.08"/>
    <line class="ah" x1="395.95" y1="350.7" x2="395.95" y2="385.38"/>
    <path class="ah" d="M298.01,386.68s-.47,21.28,48.91,22.08c0,0,41.35.52,48.91-22.08"/>
  </g>
</svg>
