<?xml version='1.0' encoding='UTF-8'?>
<svg xmlns="http://www.w3.org/2000/svg" id="b" data-name="mappemonde internet" viewBox="0 0 453.54 453.54">
  <defs>
    <style>
      .ag {
        fill: #144179;
        stroke-width: 0px;
      }
    </style>
  </defs>
  <path class="ag" d="M402.04,297.3c8.45-21.41,13.1-44.73,13.1-69.12,0-49.23-18.95-94.1-49.94-127.74-.01-.03-.02-.06-.05-.08-.39-.43-.79-.86-1.18-1.28t-.01-.01c-34.46-36.69-83.39-59.64-137.57-59.64s-103.35,23.06-137.82,59.91c-.21.23-.43.46-.64.69-31.19,33.67-50.29,78.72-50.29,128.15,0,104.08,84.67,188.76,188.75,188.76,24.42,0,47.77-4.66,69.2-13.13,12.58,9.16,28.07,14.57,44.83,14.57,42.09,0,76.22-34.12,76.22-76.21,0-16.77-5.42-32.28-14.6-44.87ZM193.96,54.42c-11.94,11.65-22.34,29.64-30.46,52.24-21.5-1.51-41.45-3.78-58.6-6.72,24.23-22.98,54.93-39.18,89.06-45.52ZM94.8,110.3c18.71,3.63,40.71,6.38,64.79,8.15-8.89,29.23-14.25,64.83-14.74,103.73H49.74c1.44-42.9,18.24-81.98,45.06-111.88ZM49.74,234.18h95.11c.48,38.43,5.72,73.63,14.42,102.66-24.31,1.8-46.5,4.6-65.3,8.29-26.34-29.79-42.81-68.49-44.23-110.95ZM103.91,355.5c17.27-3,37.43-5.33,59.2-6.87,8.18,23.11,18.72,41.48,30.85,53.32-34.59-6.43-65.67-22.98-90.05-46.45ZM220.39,404.22c-15.32-3.65-30.32-21.09-41.91-49.1-.98-2.37-1.93-4.8-2.85-7.28,14.47-.8,29.5-1.26,44.76-1.36v57.74ZM220.39,334.48c-16.8.1-33.16.62-48.77,1.54-9.13-29.3-14.28-64.56-14.78-101.84h63.55v100.3ZM220.39,222.18h-63.55c.51-37.73,5.78-73.4,15.12-102.91,15.51.9,31.75,1.41,48.43,1.51v101.4ZM220.39,108.78c-15.11-.1-30.01-.55-44.35-1.34.79-2.1,1.6-4.17,2.44-6.19,11.59-28.01,26.59-45.45,41.91-49.1v56.63ZM403.04,222.18h-95.1c-.49-38.91-5.85-74.51-14.74-103.74,24.08-1.77,46.07-4.52,64.78-8.14,26.82,29.9,43.62,68.98,45.06,111.88ZM347.89,99.94c-17.15,2.94-37.1,5.21-58.6,6.72-8.12-22.6-18.52-40.58-30.46-52.24,34.12,6.35,64.83,22.54,89.06,45.52ZM232.39,52.15c15.32,3.65,30.32,21.09,41.91,49.1.84,2.02,1.65,4.09,2.44,6.19-14.34.79-29.24,1.24-44.35,1.34v-56.63ZM232.39,120.78c16.68-.1,32.92-.61,48.43-1.52,9.34,29.51,14.62,65.18,15.13,102.92h-63.56v-101.4ZM232.39,234.18h63.56c-.23,16.76-1.39,33.12-3.44,48.71-15.58,12.6-26.09,31.22-27.99,52.32-10.47-.42-21.21-.67-32.13-.73v-100.3ZM232.39,404.22v-57.74c10.81.07,21.51.32,31.98.75.46,7.11,1.9,13.95,4.18,20.39-10.6,20.69-23.27,33.53-36.16,36.6ZM258.83,401.95c5.72-5.58,11.09-12.62,16.01-20.92,2.97,5,6.49,9.63,10.49,13.81-8.55,3.03-17.41,5.42-26.5,7.11ZM370.24,321.32c1.99,0,3.72,1.13,4.55,2.77.34.66.53,1.41.53,2.2v5.23c0,2.75-2.28,4.98-5.08,4.98h-64.1c-.05.46-.1.91-.14,1.37-.1,1.08-.16,2.18-.16,3.29,0,1.4.07,2.78.22,4.15h52.6l.15-.18c.3.06.59.12.89.18h10.54c1.21,0,2.32.41,3.19,1.1,1.15.91,1.89,2.31,1.89,3.87v5.23c0,2.75-2.28,4.98-5.08,4.98h-59.28c3.32,5.86,8.1,10.83,13.86,14.43,3.99,2.5,8.44,4.35,13.21,5.37,2.88.64,5.88.97,8.96.97,9.37,0,18.2-2.99,25.54-8.66l.05-.04c2.19-1.7,5.37-1.34,7.11.8l3.35,4.12c1.76,2.15,1.39,5.3-.83,7.01-10.12,7.82-22.3,11.96-35.22,11.96-8.93,0-17.37-2.02-24.88-5.62-4.13-1.98-7.97-4.43-11.46-7.3-7.45-6.08-13.27-14-16.75-23.04h-9.78c-2.8,0-5.08-2.23-5.08-4.98v-5.23c0-.83.21-1.61.57-2.3.85-1.59,2.55-2.67,4.51-2.67h6.35c-.11-1.38-.22-2.75-.22-4.15,0-1.53.1-3.04.23-4.54-.59-.04-1.18-.08-1.77-.12h-4.59c-.73,0-1.42-.15-2.05-.43-.3-.01-.6-.03-.91-.05.05-.12.08-.24.12-.37-1.35-.9-2.24-2.41-2.24-4.13v-5.23c0-2.75,2.28-4.97,5.08-4.97h9.98c1.59-4.01,3.64-7.79,6.09-11.29,10.22-14.57,27.37-24.16,46.8-24.16,12.92,0,25.1,4.14,35.22,11.96h.01c2.21,1.71,2.58,4.85.83,7.01l-3.37,4.13c-1.74,2.13-4.91,2.49-7.09.8l-.06-.05c-7.34-5.67-16.17-8.66-25.54-8.66-15.28,0-28.62,8.17-35.71,20.26h58.96ZM393.06,287.05c-13.68-13.07-32.23-21.1-52.64-21.1-12.54,0-24.37,3.03-34.8,8.39,1.36-12.87,2.15-26.31,2.32-40.16h95.1c-.62,18.48-4.09,36.24-9.98,52.87Z"/>
</svg>
