<?xml version='1.0' encoding='UTF-8'?>
<svg xmlns="http://www.w3.org/2000/svg" id="ad" data-name="Donner" viewBox="0 0 453.54 453.54">
  <defs>
    <style>
      .ag {
        stroke-width: 8.89px;
      }

      .ag, .ah, .ai, .aj, .ak {
        stroke: #144179;
      }

      .ag, .ah, .aj, .ak {
        fill: none;
      }

      .ag, .ai, .ak {
        stroke-linecap: round;
        stroke-linejoin: round;
      }

      .ah {
        stroke-width: .75px;
      }

      .ah, .aj {
        stroke-miterlimit: 10;
      }

      .ai, .ak {
        stroke-width: 12px;
      }

      .ai, .al {
        fill: #fff;
      }

      .aj {
        stroke-width: 2px;
      }

      .am {
        fill: #144179;
      }

      .am, .al {
        stroke-width: 0px;
      }
    </style>
  </defs>
  <circle class="ak" cx="337.56" cy="120.16" r="56.23"/>
  <g>
    <path class="ag" d="M361.28,108.05c-2.8-6.58-8.59-11.8-16.09-13.56-12.52-2.95-25.06,4.81-28.01,17.33-2.95,12.52,4.81,25.06,17.33,28.01,8.49,2,16.98-.93,22.49-6.92"/>
    <line class="ag" x1="309.07" y1="104.93" x2="349.93" y2="114.56"/>
    <line class="ag" x1="306.59" y1="115.44" x2="347.45" y2="125.07"/>
  </g>
  <g>
    <g>
      <path class="am" d="M302.4,158.43c8.87-8.54,2.57-25.05-10.01-24.7h-65.04c-4.2.02-7.65-1.6-9.94-4.33-6.66-9.32-4.87-23.19,3.3-29.66,3.78-2.99,17.3-4.25,31.45-3.87,17.17.47,28.14.35,28.14.35,0,0,.94-5.09,5.46-10.94,2.01-2.6,5.27-5.86,5.27-5.86,0,0-28.61-11.65-34.16-13.42-3.44-1.09-37.16-14.02-48.89-13.66-10.77.33-90.36,32.85-97.02,34.55v52.58c1.34.03,4.54.84,5.84,1.17,7.49,1.11,18.9,8.27,23.3,11.77,5.92,4.36,11.32,8.79,19.08,10.04,20.47,4.51,45.81-.8,68.17.19h65.04c3.82,0,7.37-1.54,10.01-4.2ZM316.66,148.93c.07,13.21-11.2,24.32-24.21,24.21-20.23-.38-93.39.08-111.95,1.75-6.89,0-13.04-.41-18.43-1.23-22.56-1.95-29.8-20.45-51.06-23.45.83,12.19-.47,25.08-15.67,25.86h-38.84v-99.44c0-8.65,7.02-15.67,15.56-15.67h38.96v14.89c9.27-2.53,88.97-35.82,97.07-33.92,4.35-2.27,78.58,24.2,84.38,26.49,14.88,5.84,12.39,4.58,15.14,7.68l-11.13,8.15-14.61,20.76s-19.5.03-25.33-.04c-3.43-.04-13.75,0-13.75,0-8.61,0-19.17.53-19.91,8.04-.38,3.79-.27,11.33,4.54,11.24h65.03c12.82-.04,23.25,10.06,24.1,22.35.11.53.12,1.12.12,1.7v.64ZM101.75,159.94v-89.48h-29c-3.04,0-5.62,2.45-5.62,5.61v89.49h28.9c3.16,0,5.73-2.58,5.73-5.62Z"/>
      <path class="al" d="M227.34,162.63c-22.35-.99-47.69,4.32-68.17-.19-7.76-1.25-13.15-5.68-19.08-10.04-4.4-3.5-15.81-10.66-23.3-11.77-1.3-.33-4.5-1.15-5.84-1.17v-52.58c6.66-1.7,86.25-34.22,97.02-34.55,11.73-.36,45.45,12.57,48.89,13.66,5.55,1.77,34.16,13.42,34.16,13.42,0,0-3.26,3.26-5.27,5.86-4.52,5.85-5.46,10.94-5.46,10.94,0,0-10.98.12-28.14-.35-14.15-.38-27.67.88-31.45,3.87-8.17,6.47-9.96,20.34-3.3,29.66,2.29,2.73,5.75,4.35,9.94,4.33h65.04c12.59-.35,18.88,16.16,10.01,24.7-2.64,2.66-6.19,4.2-10.01,4.2h-65.04Z"/>
    </g>
    <g>
      <path class="aj" d="M316.55,146.6c-.85-12.29-11.29-22.4-24.1-22.35h-65.03c-4.81.09-4.93-7.45-4.54-11.24.75-7.51,11.3-8.04,19.91-8.04,0,0,10.32-.04,13.75,0,5.83.06,25.33.04,25.33.04l14.61-20.76,11.13-8.15c-2.75-3.1-.26-1.83-15.14-7.68-5.8-2.29-80.03-28.75-84.38-26.49-8.1-1.89-87.8,31.39-97.07,33.92v-14.89h-38.96c-8.54,0-15.56,7.02-15.56,15.67v99.44h38.84c15.2-.77,16.5-13.67,15.67-25.86,21.26,3.01,28.51,21.51,51.06,23.45,5.39.82,11.54,1.23,18.43,1.23,18.56-1.67,91.73-2.13,111.95-1.75,13.01.11,24.28-11,24.21-24.21v-.64c0-.58,0-1.17-.12-1.7Z"/>
      <path class="ah" d="M101.75,159.94c0,3.04-2.57,5.62-5.73,5.62h-28.9v-89.49c0-3.16,2.58-5.61,5.62-5.61h29v89.48Z"/>
      <path class="ah" d="M302.4,158.43c-2.64,2.66-6.19,4.2-10.01,4.2h-65.04c-22.35-.99-47.69,4.32-68.17-.19-7.76-1.25-13.15-5.68-19.08-10.04-4.4-3.5-15.81-10.66-23.3-11.77-1.3-.33-4.5-1.15-5.84-1.17v-52.58c6.66-1.7,86.25-34.22,97.02-34.55,11.73-.36,45.45,12.57,48.89,13.66,5.55,1.77,34.16,13.42,34.16,13.42,0,0-3.26,3.26-5.27,5.86-4.52,5.85-5.46,10.94-5.46,10.94,0,0-10.98.12-28.14-.35-14.15-.38-27.67.88-31.45,3.87-8.17,6.47-9.96,20.34-3.3,29.66,2.29,2.73,5.75,4.35,9.94,4.33h65.04c12.59-.35,18.88,16.16,10.01,24.7Z"/>
    </g>
  </g>
  <g>
    <path class="ai" d="M218.06,365.78h-58.06c-8.55,0-16.25-7.7-16.25-17.2,0-9.5,7.7-17.2,16.25-17.2h58.06s13.4-18.31,33.68-24.14c13.28-3.82,72.26-3.89,72.26-3.89l-4.72,62.53s-77.93,43.93-112,47.43c-19.82,2.04-78.81-31.05-78.81-31.05l-50.66-27.89c-8.46-4.31-11.83-14.67-7.52-23.13h0c4.31-8.46,14.67-11.83,23.13-7.52l50.36,26.6"/>
    <rect class="ai" x="296.54" y="287.1" width="56.61" height="105.5" rx="9.65" ry="9.65" transform="translate(649.68 679.71) rotate(-180)"/>
  </g>
</svg>
