<?xml version='1.0' encoding='UTF-8'?>
<svg xmlns="http://www.w3.org/2000/svg" id="u" data-name="Argent_3 piles" viewBox="0 0 453.54 453.54">
  <defs>
    <style>
      .ag {
        fill: none;
        stroke: #144179;
        stroke-linecap: round;
        stroke-linejoin: round;
        stroke-width: 12px;
      }
    </style>
  </defs>
  <g>
    <path class="ag" d="M60.5,290.74s-.56,25.48,58.55,26.45c0,0,49.5.62,58.55-26.45"/>
    <ellipse class="ag" cx="119.03" cy="163.98" rx="58.94" ry="26.45"/>
    <line class="ag" x1="60.27" y1="167.63" x2="60.27" y2="328.37"/>
    <path class="ag" d="M60.52,227.03s-.56,25.48,58.55,26.45c0,0,49.5.62,58.55-26.45"/>
    <path class="ag" d="M60.53,195.17s-.56,25.48,58.57,26.45c0,0,49.52.62,58.57-26.45"/>
    <line class="ag" x1="60.36" y1="272.22" x2="60.36" y2="354.17"/>
    <line class="ag" x1="177.84" y1="274.58" x2="177.84" y2="350.8"/>
    <path class="ag" d="M60.54,352.94s-.56,25.48,58.55,26.45c0,0,49.5.62,58.55-26.45"/>
    <path class="ag" d="M60.55,322.6s-.56,25.48,58.57,26.45c.25,0,49.55,1.37,58.86-26.45"/>
  </g>
  <path class="ag" d="M60.38,258.89s-.56,25.48,58.57,26.45c0,0,49.52.62,58.57-26.45"/>
  <g>
    <path class="ag" d="M179.75,293.28s-.56,25.48,58.55,26.45c0,0,49.5.62,58.55-26.45"/>
    <ellipse class="ag" cx="238.28" cy="228.32" rx="58.94" ry="26.45"/>
    <line class="ag" x1="179.52" y1="168.75" x2="179.52" y2="330.91"/>
    <line class="ag" x1="297" y1="227.22" x2="297" y2="275.96"/>
    <line class="ag" x1="179.61" y1="274.76" x2="179.61" y2="356.71"/>
    <line class="ag" x1="297.09" y1="277.12" x2="297.09" y2="353.34"/>
    <path class="ag" d="M179.79,355.48s-.56,25.48,58.55,26.45c0,0,49.5.62,58.55-26.45"/>
    <path class="ag" d="M179.8,325.13s-.56,25.48,58.57,26.45c.25,0,49.55,1.37,58.86-26.45"/>
  </g>
  <path class="ag" d="M179.63,261.43s-.56,25.48,58.57,26.45c0,0,49.52.62,58.57-26.45"/>
  <g>
    <path class="ag" d="M297.68,295.37s-.56,25.48,58.55,26.45c0,0,49.5.62,58.55-26.45"/>
    <ellipse class="ag" cx="356.22" cy="262.72" rx="58.94" ry="26.45"/>
    <line class="ag" x1="297.54" y1="276.84" x2="297.54" y2="358.8"/>
    <line class="ag" x1="415.02" y1="266.74" x2="415.02" y2="355.43"/>
    <path class="ag" d="M297.72,357.57s-.56,25.48,58.55,26.45c0,0,49.5.62,58.55-26.45"/>
    <path class="ag" d="M297.73,327.22s-.56,25.48,58.57,26.45c.25,0,49.55,1.37,58.86-26.45"/>
  </g>
</svg>
