<?xml version='1.0' encoding='UTF-8'?>
<svg xmlns="http://www.w3.org/2000/svg" id="m" data-name="Cout main d&amp;apos;oeuvre" viewBox="0 0 453.54 453.54">
  <defs>
    <style>
      .ag {
        stroke-width: 12px;
      }

      .ag, .ah {
        fill: none;
        stroke: #144179;
        stroke-linecap: round;
        stroke-linejoin: round;
      }

      .ah {
        stroke-width: 12.09px;
      }
    </style>
  </defs>
  <g>
    <g>
      <polygon class="ah" points="166.24 413.34 43.39 413.34 75.87 341.09 133.76 341.09 166.24 413.34"/>
      <polygon class="ah" points="289.06 413.34 166.21 413.34 198.69 341.09 256.58 341.09 289.06 413.34"/>
      <polygon class="ah" points="411.9 413.34 289.05 413.34 321.53 341.09 379.42 341.09 411.9 413.34"/>
    </g>
    <g>
      <polygon class="ah" points="227.66 340.75 104.81 340.75 137.29 268.5 195.18 268.5 227.66 340.75"/>
      <polygon class="ah" points="350.48 340.75 227.63 340.75 260.11 268.5 318 268.5 350.48 340.75"/>
    </g>
    <polygon class="ah" points="289.07 268.12 166.22 268.12 198.7 195.87 256.59 195.87 289.07 268.12"/>
  </g>
  <g>
    <line class="ag" x1="227.64" y1="112.94" x2="227.64" y2="151.21"/>
    <line class="ag" x1="316.34" y1="133.16" x2="289.28" y2="160.22"/>
    <line class="ag" x1="138.95" y1="133.16" x2="166.01" y2="160.22"/>
  </g>
</svg>
