<?xml version='1.0' encoding='UTF-8'?>
<svg xmlns="http://www.w3.org/2000/svg" id="y" data-name="Sac à dos" viewBox="0 0 453.54 453.54">
  <defs>
    <style>
      .z {
        stroke-width: 12.45px;
      }

      .z, .aa {
        fill: none;
        stroke: #5F1972;
        stroke-linecap: round;
        stroke-linejoin: round;
      }

      .aa {
        stroke-width: 12px;
      }

      .ab {
        fill: #5F1972;
        stroke-width: 0px;
      }
    </style>
  </defs>
  <path class="aa" d="M224.39,408.88h64.81c8.1,0,16.14-1.6,23.58-4.81,15.37-6.64,38.62-20.43,38.62-43.19,0-34,0-80.71,0-80.71,0,0-2.15-195.63-127-195.63h-.5c-124.85,0-127,195.63-127,195.63v80.71c0,22.75,23.24,36.55,38.62,43.19,7.44,3.21,15.47,4.81,23.58,4.81h65.3Z"/>
  <path class="z" d="M184.59,91.23s2.6-38.34,39.11-38.34,38.16,32.64,38.36,36.42"/>
  <path class="aa" d="M127.22,297.54v65.67s1.33,20.67,28,20.67h144.7s24.15-5.3,24.15-24.15v-62.18s-40.36,15-99.94,15-96.91-15-96.91-15Z"/>
  <path class="aa" d="M127.22,297.54s1-39.56,96.67-39.56,100.19,39.56,100.19,39.56c0,0-48.69,15-99.94,15s-96.91-15-96.91-15Z"/>
  <path class="aa" d="M123.96,219.06c0-55.5,45-100.5,100.5-100.5s100.5,45,100.5,100.5"/>
  <rect class="ab" x="210.19" y="290.21" width="28.39" height="44.33" rx="5.86" ry="5.86"/>
  <path class="aa" d="M315.32,135.89s-13.87-18.08-18.77-22.35c-6.39-5.58-15.66-14.36-15.66-14.36l14.67-30.52h32.89l-13.14,67.23Z"/>
  <path class="aa" d="M135.63,135.89s12.55-16.85,17.27-21.32c6.28-5.95,17.16-15.4,17.16-15.4l-14.67-30.52h-32.89s13.14,67.23,13.14,67.23Z"/>
</svg>
