<?xml version='1.0' encoding='UTF-8'?>
<svg xmlns="http://www.w3.org/2000/svg" id="p" data-name="Double diplome" viewBox="0 0 453.54 453.54">
  <defs>
    <style>
      .z {
        fill: none;
        stroke: #5F1972;
        stroke-linecap: round;
        stroke-linejoin: round;
        stroke-width: 12px;
      }

      .aa {
        fill: #5F1972;
      }

      .aa, .ab {
        stroke-width: 0px;
      }

      .ab {
        fill: #fff;
      }
    </style>
  </defs>
  <g>
    <polygon class="ab" points="379.61 385.9 35.47 385.9 35.47 145.6 311.08 145.6 379.61 211.76 379.61 385.9"/>
    <path class="aa" d="M321.72,304.15c-.1-.51-.21-1.14-.31-1.76-.26-1.65.3-3.32,1.48-4.5.43-.43.88-.86,1.24-1.22,2.93-2.76,6.63-6.14,6.66-11.27s-3.63-8.62-6.53-11.35c-.35-.33-.77-.73-1.19-1.15-1.21-1.2-1.74-2.93-1.45-4.61.1-.61.22-1.21.33-1.68.72-3.88,1.65-8.73-1.32-12.77s-7.81-4.69-11.77-5.27c-.5-.08-1.13-.17-1.75-.27-1.66-.27-3.1-1.3-3.87-2.8-.29-.57-.57-1.15-.81-1.62-1.71-3.62-3.77-8.35-8.69-9.69-4.5-1.21-9.72,1.12-12.43,2.57-1.32.69-3.48,1.85-4.24,1.85-.76,0-2.98-1.2-4.22-1.9-3.6-1.96-8.23-4-12.41-2.71-4.87,1.5-7.04,6-8.8,9.6-.24.47-.52,1.04-.82,1.6-.78,1.49-2.24,2.5-3.91,2.75-.65.1-1.3.18-1.82.26-3.96.53-8.89,1.13-11.82,5.14-3.01,4.01-2.13,8.87-1.46,12.76.1.51.21,1.14.31,1.76.26,1.65-.3,3.32-1.48,4.5-.43.43-.88.86-1.24,1.22-2.93,2.76-6.63,6.14-6.66,11.27-.03,5.13,3.63,8.62,6.53,11.35.35.33.77.73,1.19,1.15,1.21,1.2,1.74,2.93,1.45,4.61-.1.61-.22,1.21-.33,1.68-.56,3.09-1.24,6.77-.02,10.16.41,1.15.28,2.42-.14,3.56l-10.46,28.21c-1.26,3.4,1.18,7.03,4.81,7.15l14.79.47c1.15.04,2.26.45,3.15,1.17l11.52,9.24c2.85,2.29,7.1,1.08,8.32-2.36l10.19-28.63c1.11-.55,2.23-1.03,2.71-1.03.49,0,1.59.49,2.7,1.06l9.86,28.75c1.18,3.45,5.42,4.71,8.29,2.45l11.62-9.11c.91-.71,2.02-1.11,3.17-1.13l14.8-.3c3.62-.07,6.11-3.68,4.89-7.09l-10.13-28.32c-.41-1.15-.53-2.43-.08-3.57,1.31-3.37.67-7.06.14-10.16ZM244.81,341.97l-2.9-.1c-3.62-.13-6.05-3.75-4.79-7.15l3.53-9.53c.92-2.47,3.52-3.94,6.08-3.35.05.01.1.02.15.03,1.49.35,2.73,1.35,3.43,2.7.31.6.61,1.22.86,1.72,1.29,2.71,3.31,5.51,6.35,7.77,1.88,1.41,2.74,3.79,1.93,6l-.94,2.54c-1.25,3.39-5.45,4.57-8.28,2.31l-2.28-1.82c-.89-.71-1.98-1.11-3.12-1.15ZM304.93,343.45l-2.24,1.75c-2.85,2.23-7.06,1.02-8.27-2.4l-.82-2.31c-.78-2.19-.05-4.64,1.82-6.01,2.92-2.13,5.23-5.24,6.53-7.89.26-.51.57-1.14.89-1.74.72-1.35,1.97-2.33,3.46-2.67.05-.01.1-.02.15-.03,2.57-.56,5.15.94,6.04,3.42l3.42,9.57c1.21,3.4-1.24,6.99-4.84,7.09l-3.03.09c-1.13.03-2.23.43-3.12,1.13Z"/>
    <line class="z" x1="69.88" y1="315.83" x2="137.77" y2="315.83"/>
    <line class="z" x1="70.27" y1="281.87" x2="173.05" y2="281.87"/>
    <line class="z" x1="70.27" y1="248.04" x2="173.98" y2="248.04"/>
    <line class="z" x1="69.34" y1="212.94" x2="242.35" y2="212.94"/>
    <polygon class="z" points="379.31 213.83 311.08 213.83 311.08 145.6 379.31 213.83"/>
    <polygon class="z" points="379.61 385.9 35.47 385.9 35.47 145.6 311.08 145.6 379.61 213.83 379.61 385.9"/>
  </g>
  <g>
    <polygon class="ab" points="378.41 386.96 42.73 311.14 95.67 76.74 364.51 137.47 416.78 217.1 378.41 386.96"/>
    <path class="aa" d="M339.95,294.47c.02-.52.04-1.16.08-1.79.11-1.66,1.02-3.17,2.43-4.06.52-.33,1.05-.65,1.48-.92,3.47-2.05,7.82-4.53,8.98-9.53,1.16-5-1.64-9.21-3.87-12.51-.27-.39-.59-.88-.91-1.38-.91-1.44-1.05-3.24-.4-4.81.24-.57.49-1.14.69-1.57,1.55-3.63,3.53-8.16,1.53-12.75-2-4.59-6.59-6.3-10.32-7.73-.47-.19-1.06-.41-1.65-.64-1.56-.63-2.74-1.95-3.16-3.58-.16-.62-.31-1.25-.43-1.76-.87-3.91-1.84-8.97-6.34-11.37-4.13-2.17-9.73-1.04-12.69-.24-1.44.38-3.8,1.04-4.55.87-.74-.17-2.64-1.82-3.7-2.78-3.08-2.71-7.15-5.72-11.5-5.37-5.08.39-8.19,4.3-10.69,7.42-.33.4-.74.9-1.15,1.38-1.09,1.28-2.74,1.95-4.42,1.82-.66-.05-1.31-.11-1.84-.15-3.98-.35-8.92-.86-12.67,2.41-3.82,3.25-4.03,8.18-4.24,12.12-.02.52-.04,1.16-.08,1.79-.11,1.66-1.02,3.17-2.43,4.06-.52.33-1.05.65-1.48.92-3.47,2.05-7.82,4.53-8.98,9.53-1.16,5,1.64,9.21,3.87,12.51.27.39.59.88.91,1.38.91,1.44,1.05,3.24.4,4.81-.24.57-.49,1.14-.69,1.57-1.23,2.89-2.7,6.33-2.25,9.91.15,1.21-.26,2.42-.92,3.44l-16.42,25.21c-1.98,3.04-.4,7.12,3.11,8.03l14.33,3.72c1.11.29,2.1.93,2.82,1.83l9.2,11.55c2.27,2.86,6.69,2.62,8.64-.47l16.25-25.68c1.21-.29,2.4-.51,2.87-.4.47.11,1.44.83,2.4,1.63l3.29,30.21c.4,3.63,4.25,5.78,7.55,4.22l13.34-6.33c1.04-.49,2.21-.63,3.34-.4l14.5,2.97c3.55.73,6.77-2.24,6.33-5.84l-3.65-29.85c-.15-1.21.02-2.49.7-3.5,2.02-3,2.21-6.74,2.38-9.88ZM256.61,314.41l-2.81-.74c-3.5-.92-5.07-4.99-3.1-8.03l5.54-8.52c1.44-2.21,4.3-3.07,6.67-1.92.05.02.09.04.14.07,1.37.67,2.37,1.92,2.75,3.39.17.65.33,1.32.46,1.87.66,2.93,2.02,6.1,4.48,8.98,1.53,1.79,1.84,4.31.56,6.28l-1.48,2.27c-1.97,3.03-6.33,3.25-8.59.43l-1.83-2.27c-.71-.89-1.69-1.52-2.79-1.81ZM314.92,329.1l-2.57,1.22c-3.27,1.55-7.11-.56-7.54-4.16l-.29-2.43c-.28-2.31.97-4.54,3.1-5.46,3.31-1.44,6.26-3.95,8.11-6.26.36-.44.81-.98,1.25-1.5,1-1.16,2.44-1.84,3.97-1.84.05,0,.1,0,.15,0,2.63.02,4.82,2.05,5.14,4.66l1.23,10.09c.44,3.58-2.75,6.54-6.29,5.85l-2.97-.58c-1.11-.22-2.27-.07-3.29.41Z"/>
    <line class="z" x1="91.74" y1="250.38" x2="157.96" y2="265.33"/>
    <line class="z" x1="99.6" y1="217.33" x2="199.86" y2="239.98"/>
    <line class="z" x1="107.05" y1="184.33" x2="208.22" y2="207.18"/>
    <line class="z" x1="113.88" y1="149.89" x2="282.63" y2="188.01"/>
    <polygon class="z" points="416.03 219.06 349.48 204.02 364.51 137.47 416.03 219.06"/>
    <polygon class="z" points="378.41 386.96 42.73 311.14 95.67 76.74 364.51 137.47 416.32 219.12 378.41 386.96"/>
  </g>
</svg>
