<?xml version='1.0' encoding='UTF-8'?>
<svg xmlns="http://www.w3.org/2000/svg" id="n" data-name="Ecole europeenne" viewBox="0 0 453.54 453.54">
  <defs>
    <style>
      .z, .aa {
        stroke-width: 11.89px;
      }

      .z, .aa, .ab {
        stroke: #5F1972;
        stroke-linecap: round;
        stroke-linejoin: round;
      }

      .z, .ac {
        fill: #5F1972;
      }

      .aa, .ab {
        fill: none;
      }

      .ab {
        stroke-width: 12px;
      }

      .ac, .ad {
        stroke-width: 0px;
      }

      .ad {
        fill: #fff;
      }
    </style>
  </defs>
  <circle class="ac" cx="82.48" cy="300.91" r="5.51"/>
  <circle class="ac" cx="104.45" cy="300.91" r="5.51"/>
  <circle class="ac" cx="104.45" cy="344.98" r="5.51"/>
  <circle class="ac" cx="104.45" cy="388.97" r="5.51"/>
  <circle class="ac" cx="82.48" cy="388.97" r="5.51"/>
  <circle class="ac" cx="82.48" cy="344.94" r="5.51"/>
  <circle class="ac" cx="346.67" cy="300.91" r="5.51"/>
  <circle class="ac" cx="368.63" cy="300.91" r="5.51"/>
  <circle class="ac" cx="368.63" cy="344.98" r="5.51"/>
  <circle class="ac" cx="368.63" cy="388.97" r="5.51"/>
  <circle class="ac" cx="346.67" cy="388.97" r="5.51"/>
  <circle class="ac" cx="346.67" cy="344.94" r="5.51"/>
  <rect class="ab" x="320.74" y="264.58" width="75" height="151.62"/>
  <rect class="ab" x="55.5" y="264.58" width="75" height="151.62"/>
  <polyline class="aa" points="319.74 227.84 319.74 416.2 130.5 416.2 130.5 227.84"/>
  <polyline class="aa" points="111.74 241.24 225.71 158.24 338.08 241.24"/>
  <circle class="ab" cx="226" cy="245.37" r="26.41"/>
  <rect class="ab" x="198.41" y="340.79" width="54" height="75.41"/>
  <path class="z" d="M225.71,158.24V38.85s8.7,12.79,47.7,3.43c39-9.37,52.73,0,52.73,0v67.79s-14.09-8.82-54.39,1.85c-40.31,10.67-46-4.67-46-4.67l-.03,51Z"/>
  <g>
    <path class="ad" d="M268.27,52.57l.95,1.92,2.12.31c.98.14,1.37,1.35.66,2.04l-1.53,1.5.36,2.11c.17.98-.86,1.72-1.73,1.26l-1.9-1-1.9,1c-.88.46-1.9-.28-1.73-1.26l.36-2.11-1.53-1.5c-.71-.69-.32-1.9.66-2.04l2.12-.31.95-1.92c.44-.89,1.71-.89,2.14,0Z"/>
    <path class="ad" d="M257.94,64.41l.95,1.92,2.12.31c.98.14,1.37,1.35.66,2.04l-1.53,1.5.36,2.11c.17.98-.86,1.72-1.73,1.26l-1.9-1-1.9,1c-.88.46-1.9-.28-1.73-1.26l.36-2.11-1.53-1.5c-.71-.69-.32-1.9.66-2.04l2.12-.31.95-1.92c.44-.89,1.71-.89,2.14,0Z"/>
    <path class="ad" d="M259.31,80.16l.95,1.92,2.12.31c.98.14,1.37,1.35.66,2.04l-1.53,1.5.36,2.11c.17.98-.86,1.72-1.73,1.26l-1.9-1-1.9,1c-.88.46-1.9-.28-1.73-1.26l.36-2.11-1.53-1.5c-.71-.69-.32-1.9.66-2.04l2.12-.31.95-1.92c.44-.89,1.71-.89,2.14,0Z"/>
    <path class="ad" d="M269.65,90.8l.95,1.92,2.12.31c.98.14,1.37,1.35.66,2.04l-1.53,1.5.36,2.11c.17.98-.86,1.72-1.73,1.26l-1.9-1-1.9,1c-.88.46-1.9-.28-1.73-1.26l.36-2.11-1.53-1.5c-.71-.69-.32-1.9.66-2.04l2.12-.31.95-1.92c.44-.89,1.71-.89,2.14,0Z"/>
    <path class="ad" d="M286,89.48l.95,1.92,2.12.31c.98.14,1.37,1.35.66,2.04l-1.53,1.5.36,2.11c.17.98-.86,1.72-1.73,1.26l-1.9-1-1.9,1c-.88.46-1.9-.28-1.73-1.26l.36-2.11-1.53-1.5c-.71-.69-.32-1.9.66-2.04l2.12-.31.95-1.92c.44-.89,1.71-.89,2.14,0Z"/>
    <path class="ad" d="M295.58,77.97l.95,1.92,2.12.31c.98.14,1.37,1.35.66,2.04l-1.53,1.5.36,2.11c.17.98-.86,1.72-1.73,1.26l-1.9-1-1.9,1c-.88.46-1.9-.28-1.73-1.26l.36-2.11-1.53-1.5c-.71-.69-.32-1.9.66-2.04l2.12-.31.95-1.92c.44-.89,1.71-.89,2.14,0Z"/>
    <path class="ad" d="M294.22,61.2l.95,1.92,2.12.31c.98.14,1.37,1.35.66,2.04l-1.53,1.5.36,2.11c.17.98-.86,1.72-1.73,1.26l-1.9-1-1.9,1c-.88.46-1.9-.28-1.73-1.26l.36-2.11-1.53-1.5c-.71-.69-.32-1.9.66-2.04l2.12-.31.95-1.92c.44-.89,1.71-.89,2.14,0Z"/>
    <path class="ad" d="M284.23,51.05l.95,1.92,2.12.31c.98.14,1.37,1.35.66,2.04l-1.53,1.5.36,2.11c.17.98-.86,1.72-1.73,1.26l-1.9-1-1.9,1c-.88.46-1.9-.28-1.73-1.26l.36-2.11-1.53-1.5c-.71-.69-.32-1.9.66-2.04l2.12-.31.95-1.92c.44-.89,1.71-.89,2.14,0Z"/>
  </g>
</svg>
