<?xml version='1.0' encoding='UTF-8'?>
<svg xmlns="http://www.w3.org/2000/svg" id="k" data-name="Cantine" viewBox="0 0 453.54 453.54">
  <defs>
    <style>
      .z {
        stroke-linecap: round;
        stroke-linejoin: round;
      }

      .z, .aa {
        fill: none;
        stroke: #5F1972;
        stroke-width: 12px;
      }

      .aa {
        stroke-miterlimit: 10;
      }
    </style>
  </defs>
  <circle class="aa" cx="218.9" cy="262.23" r="106.68"/>
  <line class="z" x1="218.89" y1="301.54" x2="218.89" y2="225.77"/>
  <line class="z" x1="200.45" y1="301.54" x2="236.89" y2="301.54"/>
  <line class="z" x1="180.56" y1="224.21" x2="257" y2="224.21"/>
  <g>
    <line class="z" x1="294.67" y1="224.21" x2="294.67" y2="299.77"/>
    <polyline class="z" points="293.45 261.32 257 261.32 257 299.77"/>
  </g>
  <g>
    <line class="z" x1="144.11" y1="224.21" x2="144.11" y2="299.77"/>
    <polyline class="z" points="145.33 261.32 181.78 261.32 181.78 299.77"/>
  </g>
  <line class="z" x1="58.45" y1="163.15" x2="58.45" y2="208.88"/>
  <line class="z" x1="76.33" y1="163.15" x2="76.33" y2="208.88"/>
  <path class="z" d="M95.11,161.15v55.38c0,4.61-1.34,9.18-4.07,12.9-2.81,3.84-7.43,7.45-14.82,7.45v129.78s-.92,8.46-9.46,8.46h1.03c-8.54,0-9.46-8.46-9.46-8.46v-129.78c-7.4,0-12.01-3.61-14.82-7.45-2.73-3.72-4.07-8.28-4.07-12.9v-55.38"/>
  <path class="z" d="M408.22,193.53c0-25.29-16.96-45.79-37.87-45.79s-37.87,20.5-37.87,45.79c0,19.56,10.14,36.24,24.42,42.8-.78,1.77-1.23,3.71-1.23,5.76v118.68c0,7.88,6.45,14.33,14.33,14.33h0c7.88,0,14.33-6.45,14.33-14.33v-118.68c0-1.95-.4-3.8-1.11-5.5,14.58-6.37,24.99-23.25,24.99-43.07Z"/>
</svg>
