<?xml version='1.0' encoding='UTF-8'?>
<svg xmlns="http://www.w3.org/2000/svg" id="w" data-name="Passeport" viewBox="0 0 453.54 453.54">
  <defs>
    <style>
      .am {
        fill: #8A5301;
        stroke-width: 0px;
      }
    </style>
  </defs>
  <path class="am" d="M359.28,88.69l-169.68-51.38c-16.14-4.88-33.24,4.27-38.13,20.42l-15.66,51.7h-29.53c-16.86,0-30.58,13.72-30.58,30.59v253.11c0,16.87,13.72,30.59,30.58,30.59h177.29c16.87,0,30.59-13.72,30.59-30.59v-49.87l65.53-216.43c4.89-16.15-4.26-33.25-20.41-38.14ZM302.16,393.13c0,10.25-8.34,18.59-18.59,18.59H106.28c-10.25,0-18.58-8.34-18.58-18.59v-253.11c0-10.25,8.33-18.59,18.58-18.59h177.29c10.25,0,18.59,8.34,18.59,18.59v253.11ZM368.21,123.35l-54.05,178.5v-161.83c0-16.87-13.72-30.59-30.59-30.59h-135.22l14.6-48.22c2.97-9.82,13.36-15.38,23.17-12.41l169.68,51.37c9.81,2.97,15.38,13.37,12.41,23.18Z"/>
  <path class="am" d="M270.23,348.15H119.09c-3.31,0-6-2.69-6-6s2.69-6,6-6h151.14c3.31,0,6,2.69,6,6s-2.69,6-6,6Z"/>
  <path class="am" d="M270.23,387.5H119.09c-3.31,0-6-2.69-6-6s2.69-6,6-6h151.14c3.31,0,6,2.69,6,6s-2.69,6-6,6Z"/>
  <path class="am" d="M268.25,178.1c-2.44-3.54-5.14-6.89-8.06-10.03-4.47-4.82-9.48-9.16-14.92-12.91-14.21-9.79-31.38-15.58-49.87-15.72-.25,0-.49,0-.74,0s-.49,0-.74,0c-18.49.14-35.66,5.93-49.87,15.73-5.44,3.74-10.45,8.08-14.92,12.9-2.92,3.14-5.62,6.49-8.06,10.03-9.99,14.43-15.84,31.93-15.84,50.77s5.75,36.03,15.58,50.39c2.42,3.53,5.09,6.89,7.98,10.03,4.31,4.71,9.13,8.95,14.36,12.65,11.86,8.38,25.85,13.96,40.98,15.74.02,0,.05,0,.07,0,3.43.4,6.92.61,10.46.61s7.02-.21,10.45-.61c.04,0,.08,0,.12,0,15.11-1.79,29.08-7.37,40.93-15.74,5.23-3.69,10.05-7.94,14.37-12.65,2.89-3.14,5.56-6.5,7.98-10.03,9.83-14.36,15.58-31.71,15.58-50.39s-5.85-36.34-15.84-50.77ZM171.36,155.02c-3.39,5.15-6.36,11.45-8.84,18.68-6.97-.64-13.52-1.48-19.46-2.52,8.09-7.25,17.7-12.82,28.3-16.16ZM133.43,181.53c.32.07.65.14.98.21,7.3,1.56,15.66,2.81,24.73,3.7-2.65,11.1-4.28,23.76-4.65,37.43h-37.03c1.19-15.5,6.96-29.73,15.97-41.34ZM117.46,234.87h37.03c.37,13.48,1.96,25.98,4.55,36.97-9.03.89-17.36,2.12-24.63,3.68-.44.09-.87.19-1.29.28-8.83-11.54-14.48-25.62-15.66-40.93ZM142.61,286.15c6.01-1.06,12.67-1.93,19.76-2.58,2.5,7.43,5.53,13.88,8.99,19.14-10.79-3.41-20.57-9.12-28.75-16.56ZM188.66,304.17c-4.97-3.46-9.81-10.99-13.71-21.49,4.48-.24,9.06-.39,13.71-.46v21.95ZM188.66,270.22c-5.92.08-11.72.3-17.34.65-2.64-10.4-4.41-22.61-4.81-36h22.15v35.35ZM188.66,222.87h-22.15c.41-13.58,2.22-25.96,4.92-36.46,5.58.34,11.35.56,17.23.64v35.82ZM188.66,175.05c-4.59-.07-9.11-.22-13.53-.46,3.86-10.26,8.63-17.62,13.53-21.03v21.49ZM255.89,181.53c9.01,11.61,14.78,25.84,15.97,41.34h-37.03c-.37-13.67-2-26.33-4.66-37.43,9.08-.89,17.44-2.14,24.74-3.7.33-.07.66-.14.98-.21ZM246.26,171.18c-5.94,1.04-12.5,1.89-19.47,2.52-2.47-7.23-5.44-13.53-8.83-18.68,10.6,3.34,20.21,8.91,28.3,16.16ZM200.66,153.56c4.89,3.41,9.67,10.77,13.53,21.03-4.42.24-8.94.39-13.53.46v-21.49ZM200.66,187.05c5.88-.08,11.64-.3,17.22-.64,2.71,10.5,4.52,22.88,4.93,36.46h-22.15v-35.82ZM200.66,234.87h22.15c-.4,13.39-2.17,25.6-4.81,36-5.62-.35-11.42-.57-17.34-.65v-35.35ZM200.66,304.17v-21.95c4.65.07,9.23.22,13.7.46-3.89,10.5-8.74,18.03-13.7,21.49ZM217.96,302.71c3.46-5.26,6.49-11.71,8.99-19.14,7.09.65,13.75,1.52,19.76,2.58-8.18,7.44-17.96,13.15-28.75,16.56ZM256.2,275.8c-.42-.09-.85-.19-1.29-.28-7.27-1.56-15.6-2.79-24.64-3.68,2.6-10.99,4.19-23.49,4.56-36.97h37.03c-1.18,15.31-6.83,29.39-15.66,40.93Z"/>
</svg>
