<?xml version='1.0' encoding='UTF-8'?>
<svg xmlns="http://www.w3.org/2000/svg" id="u" data-name="Moto" viewBox="0 0 453.54 453.54">
  <defs>
    <style>
      .z {
        fill: none;
      }

      .z, .aa {
        stroke: #8A5301;
        stroke-linecap: round;
        stroke-linejoin: round;
        stroke-width: 12px;
      }

      .aa {
        fill: #fff;
      }
    </style>
  </defs>
  <rect class="z" x="244.06" y="130.77" width="59.25" height="15.63" rx="7.81" ry="7.81" transform="translate(116.82 -125.05) rotate(32.39)"/>
  <circle class="z" cx="360.21" cy="312.82" r="61.28"/>
  <circle class="z" cx="98.11" cy="312.43" r="61.28"/>
  <circle class="z" cx="98.11" cy="312.82" r="13.11"/>
  <circle class="z" cx="360.21" cy="312.82" r="13.11"/>
  <line class="z" x1="106.95" y1="303.14" x2="155.98" y2="257.21"/>
  <line class="z" x1="350.34" y1="303.14" x2="301.31" y2="257.21"/>
  <path class="aa" d="M369.94,222.82c-24.23.3-78.71,9.72-91.74,86.26-.82,4.81-4.94,8.36-9.82,8.36h-77.46c-4.58,0-8.45-3.3-9.27-7.8-9.19-49.95-51.41-102.78-121.99-64.75-9.74,5.25-21.56-1.79-21.56-12.85v-27.93s36.56-64.67,169.22-3.33c0,0,26.33-44.28,83.33-23.97,0,0-5.45-31.75-12.66-61.68-1.84-7.62,5.21-14.38,12.74-12.18,26.14,7.66,78.23,34.59,89.42,107.86.96,6.28-3.84,11.94-10.19,12.02Z"/>
</svg>
