<?xml version='1.0' encoding='UTF-8'?>
<svg xmlns="http://www.w3.org/2000/svg" id="g" data-name="Voiture face" viewBox="0 0 453.54 453.54">
  <defs>
    <style>
      .z {
        fill: none;
        stroke: #8A5301;
        stroke-linecap: round;
        stroke-linejoin: round;
        stroke-width: 11.75px;
      }
    </style>
  </defs>
  <path class="z" d="M341.73,186.95s-8.62-42.46-24.38-63.2c-4.14-5.45-10.24-8.31-17.9-8.43-47.4-.75-97.59-.75-144.99,0-7.66.12-18.18,2.97-22.32,8.43-15.74,20.74-26.73,63.2-26.73,63.2h236.32Z"/>
  <path class="z" d="M137.03,270.29c4.53-1.35,9.95-6.17,11.08-10.47.93-3.56-2.76-10.96-6.28-12.58-12.24-5.64-25.05-10.43-38.11-13.74-10.41-2.63-20.27,5.86-21.48,16.21-1.21,10.37,6.16,19.92,16.92,21.05,6.05.63,31.85,1.32,37.87-.47Z"/>
  <path class="z" d="M348.05,270.77c10.76-1.12,18.13-10.67,16.92-21.05-1.21-10.35-11.07-18.85-21.48-16.21-13.05,3.3-25.87,8.1-38.11,13.74-3.52,1.62-7.21,9.02-6.28,12.58,1.12,4.3,6.55,9.13,11.08,10.47,6.02,1.79,19.52.54,19.53.59,6.12,0,12.29.52,18.34-.11Z"/>
  <path class="z" d="M392.5,187.75c15.63-1.33,22.19-8.78,21.47-17.22-.72-8.44-8.44-14.68-24.07-13.36-6.31.54-12.05,2.15-16.59,4.44-8.44-17.4-16.86-33-22.11-39.57-15.81-19.78-28.41-31.29-53.73-31.29h-140.05c-24.66,0-40.6,10.92-55.6,29.69-1.61,2.01-3.01,4.18-4.2,6.46-3.11,5.96-10.08,19.48-17.63,34.98-4.45-2.14-9.96-3.64-16.01-4.15-15.63-1.33-23.35,4.91-24.07,13.36-.72,8.44,5.84,15.9,21.47,17.22,2.08.18,4.12.22,6.1.16-8.27,18.38-14.9,35.31-14.9,42.32v120.67c0,6.03,4.89,10.92,10.92,10.92h40.84c6.03,0,10.92-4.89,10.92-10.92h0c0-9.2,7.46-16.66,16.66-16.66h189.77c9.2,0,16.66,7.46,16.66,16.66h0c0,6.03,4.89,10.92,10.92,10.92h40.84c6.03,0,10.92-4.89,10.92-10.92v-121.8c0-4.32-6.77-21.87-15.57-41.78,2.26.12,4.62.08,7.03-.12Z"/>
</svg>
