<?xml version='1.0' encoding='UTF-8'?>
<svg xmlns="http://www.w3.org/2000/svg" id="c" data-name="Notes" viewBox="0 0 453.54 453.54">
  <defs>
    <style>
      .am {
        fill: #008280;
        stroke-width: 0px;
      }
    </style>
  </defs>
  <path class="am" d="M297.86,196.35h-155.51c-3.31,0-6-2.69-6-6v-76.3c0-3.31,2.69-6,6-6h155.51c3.31,0,6,2.69,6,6v76.3c0,3.31-2.69,6-6,6ZM148.35,184.35h143.51v-64.3h-143.51v64.3Z"/>
  <path class="am" d="M335.64,32.69H71.21c-3.31,0-6,2.68-6,6v14.9c-12.46.29-22.5,10.52-22.5,23.04s10,22.7,22.43,23.02v29.55c-12.43.32-22.43,10.53-22.43,23.02s10,22.71,22.43,23.03v29.88c-12.43.32-22.43,10.53-22.43,23.02s10,22.71,22.43,23.03v29.88c-12.43.32-22.43,10.53-22.43,23.02s10,22.71,22.43,23.03v28.92c-12.43.32-22.43,10.53-22.43,23.02s10,22.71,22.43,23.03v13.91c0,.3.02.59.07.88v.13c0,3.32,2.69,6,6,6h264.43c3.31,0,6-2.68,6-6V38.69c0-3.32-2.69-6-6-6ZM54.71,76.63c0-6.09,4.96-11.05,11.05-11.05h10.9c6.09,0,11.04,4.96,11.04,11.05s-4.95,11.04-11.04,11.04h-10.9c-6.09,0-11.05-4.95-11.05-11.04ZM54.71,152.22c0-6.08,4.96-11.04,11.05-11.04h10.9c6.09,0,11.04,4.96,11.04,11.04s-4.95,11.05-11.04,11.05h-10.9c-6.09,0-11.05-4.96-11.05-11.05ZM54.71,228.15c0-6.09,4.96-11.04,11.05-11.04h10.9c6.09,0,11.04,4.95,11.04,11.04s-4.95,11.05-11.04,11.05h-10.9c-6.09,0-11.05-4.96-11.05-11.05ZM54.71,304.08c0-6.09,4.96-11.04,11.05-11.04h10.9c6.09,0,11.04,4.95,11.04,11.04s-4.95,11.05-11.04,11.05h-10.9c-6.09,0-11.05-4.96-11.05-11.05ZM54.71,379.05c0-6.09,4.96-11.04,11.05-11.04h10.9c6.09,0,11.04,4.95,11.04,11.04s-4.95,11.05-11.04,11.05h-10.9c-6.09,0-11.05-4.96-11.05-11.05ZM77.14,402.09c12.49-.25,22.56-10.49,22.56-23.04s-10.07-22.78-22.56-23.03v-28.9c12.49-.25,22.56-10.49,22.56-23.04s-10.07-22.78-22.56-23.03v-29.86c12.49-.25,22.56-10.49,22.56-23.04s-10.07-22.78-22.56-23.03v-29.86c12.49-.25,22.56-10.49,22.56-23.04s-10.07-22.78-22.56-23.03v-29.53c12.49-.25,22.56-10.49,22.56-23.03s-10.03-22.75-22.49-23.04v-8.9h25.72v366.31h-25.79v-8.91ZM329.64,411H114.93V44.69h214.71v366.31Z"/>
  <path class="am" d="M414.43,284.18l-1.88-161.23-.08-20.06-.08-20.19c.01-.11.01-.23,0-.34.01-.17-.01-.34-.03-.51v-.03c-.03-.27-.08-.54-.14-.81-.06-.28-.14-.55-.24-.82l-.15-.42-13.46-37.9c-1-2.83-3.7-4.72-6.71-4.71-1.92,0-3.72.8-5.02,2.11-.73.74-1.3,1.64-1.65,2.67l-13.34,38.44s-.02.05-.03.08c-.08.25-.15.49-.2.74-.06.28-.11.56-.14.83-.02.29-.03.57-.03.85l.22,61.36.07,20.06,1.89,161.23.25,69.95c.03,5.49,2.19,10.65,6.08,14.51,1.95,1.93,4.22,3.43,6.68,4.44,2.48,1.01,5.14,1.53,7.89,1.53,5.49-.04,10.65-2.2,14.53-6.11,3.87-3.91,5.98-9.07,5.97-14.57l-.4-111.1ZM391.76,65.67l3.5,9.85-6.92.03,3.42-9.88ZM398.24,89.7l1.88,161.23.43,122.12h-12.75l-.25-64.72-1.88-161.23-.21-57.34,12.78-.06ZM398.79,399.87c-1.2,1.21-2.81,1.88-4.51,1.89-1.71.01-3.31-.64-4.52-1.85-1.21-1.2-1.88-2.79-1.88-4.5l-.04-10.36h12.75l.04,10.3c.01,1.71-.64,3.31-1.84,4.52Z"/>
  <path class="am" d="M71.82,163.27h-1.36c.22-.03.45-.04.68-.04s.46.01.68.04Z"/>
</svg>
