<?xml version='1.0' encoding='UTF-8'?>
<svg xmlns="http://www.w3.org/2000/svg" id="aa" data-name="Calendrier_2" viewBox="0 0 453.54 453.54">
  <defs>
    <style>
      .am {
        fill: #008280;
        stroke-width: 0px;
      }

      .an {
        fill: none;
        stroke: #008280;
        stroke-linecap: round;
        stroke-linejoin: round;
        stroke-width: 11.61px;
      }
    </style>
  </defs>
  <g>
    <rect class="an" x="46.21" y="88.85" width="365.72" height="319.41" rx="31.67" ry="31.67"/>
    <line class="an" x1="94.43" y1="59.49" x2="94.43" y2="116.05"/>
    <line class="an" x1="363.02" y1="59.49" x2="363.02" y2="116.05"/>
    <line class="an" x1="183.96" y1="59.49" x2="183.96" y2="116.05"/>
    <line class="an" x1="273.49" y1="59.49" x2="273.49" y2="116.05"/>
    <line class="an" x1="46.21" y1="157.35" x2="411.93" y2="157.35"/>
  </g>
  <g>
    <g>
      <line class="an" x1="258.76" y1="353.98" x2="258.76" y2="371.36"/>
      <line class="an" x1="310.89" y1="353.98" x2="310.89" y2="371.36"/>
      <line class="an" x1="363.02" y1="353.98" x2="363.02" y2="371.36"/>
    </g>
    <g>
      <line class="an" x1="101.33" y1="353.98" x2="101.33" y2="371.36"/>
      <line class="an" x1="153.46" y1="353.98" x2="153.46" y2="371.36"/>
      <line class="an" x1="205.59" y1="353.98" x2="205.59" y2="371.36"/>
    </g>
  </g>
  <g>
    <g>
      <line class="an" x1="258.76" y1="308.6" x2="258.76" y2="325.97"/>
      <line class="an" x1="310.89" y1="308.6" x2="310.89" y2="325.97"/>
      <line class="an" x1="363.02" y1="308.6" x2="363.02" y2="325.97"/>
    </g>
    <g>
      <line class="an" x1="101.33" y1="308.6" x2="101.33" y2="325.97"/>
      <line class="an" x1="153.46" y1="308.6" x2="153.46" y2="325.97"/>
      <line class="an" x1="205.59" y1="308.6" x2="205.59" y2="325.97"/>
    </g>
  </g>
  <g>
    <g>
      <line class="an" x1="258.76" y1="263.21" x2="258.76" y2="280.59"/>
      <line class="an" x1="310.89" y1="263.21" x2="310.89" y2="280.59"/>
      <line class="an" x1="363.02" y1="263.21" x2="363.02" y2="280.59"/>
    </g>
    <g>
      <line class="an" x1="101.33" y1="263.21" x2="101.33" y2="280.59"/>
      <line class="an" x1="153.46" y1="263.21" x2="153.46" y2="280.59"/>
      <line class="an" x1="205.59" y1="263.21" x2="205.59" y2="280.59"/>
    </g>
  </g>
  <g>
    <path class="am" d="M141.84,216.14l-14.5-23.26h18.61l7.21,13.33,7.38-13.33h18.65l-14.88,23.26,15.47,24.22h-18.61l-8.01-14.42-7.96,14.42h-18.65l15.3-24.22Z"/>
    <path class="am" d="M195.91,216.14l-14.5-23.26h18.61l7.21,13.33,7.38-13.33h18.65l-14.88,23.26,15.46,24.22h-18.61l-8.01-14.42-7.96,14.42h-18.65l15.3-24.22Z"/>
    <path class="am" d="M249.97,216.14l-14.5-23.26h18.61l7.21,13.33,7.38-13.33h18.65l-14.88,23.26,15.46,24.22h-18.61l-8-14.42-7.96,14.42h-18.65l15.3-24.22Z"/>
    <path class="am" d="M304.04,216.14l-14.5-23.26h18.61l7.21,13.33,7.38-13.33h18.65l-14.88,23.26,15.46,24.22h-18.61l-8-14.42-7.96,14.42h-18.65l15.3-24.22Z"/>
  </g>
</svg>
