<?xml version='1.0' encoding='UTF-8'?>
<svg xmlns="http://www.w3.org/2000/svg" id="ai" data-name="Puzzle" viewBox="0 0 453.54 453.54">
  <defs>
    <style>
      .am {
        fill: none;
        stroke: #008280;
        stroke-linecap: round;
        stroke-miterlimit: 10;
        stroke-width: 12px;
      }
    </style>
  </defs>
  <path class="am" d="M279.14,40.22c45.52,16.41,90.08,32.46,135.05,48.67-16.22,45-32.27,89.56-48.58,134.81-15.43-5.56-30.54-10.72-45.4-16.5-6.12-2.38-7.81-8.95-4.08-14.52,2.09-3.12,5.27-5.54,8.12-8.11,8.23-7.44,10.02-18.49,4.42-27.8-5.3-8.81-16.3-12.8-25.89-9.4-10.16,3.6-16.06,13.44-14.47,24.21.4,2.73,1.37,5.44,1.34,8.14-.11,9.64-6.41,14.19-15.44,11.05-13.57-4.72-27.05-9.72-40.55-14.64-.72-.26-1.3-.89-2.71-1.89,4.62-12.81,9.24-25.75,13.95-38.67,2.2-6.02,5.12-12.17-.34-17.81-5.14-5.31-11.57-5.61-18.45-3.86-8.36,2.13-15.35-.57-20.54-7.28-4.85-6.27-5.09-13.24-1.64-20.3,5.8-11.89,22.21-14.09,31.51-4.27,2.64,2.78,4.96,6.01,8.02,8.22,8.01,5.77,16.33,3.16,19.8-6.13,5.38-14.42,10.48-28.95,15.88-43.93Z"/>
  <path class="am" d="M187.36,265.62c-15.66,0-30.02-.04-44.38,0-14.73.05-20.41,10.4-13.02,23.44,1.74,3.08,3.66,6.31,4.32,9.7,1.61,8.23-2.67,16.25-9.97,20.13-7.42,3.94-17.02,2.46-22.94-3.52-5.65-5.71-7.11-14.84-3.44-22.27,1.22-2.47,2.93-4.71,4.04-7.22,4.94-11.17-.77-20.16-12.95-20.25-14.87-.12-29.74-.03-45.12-.03V122.25h143.38c0,16.37.49,32.34-.19,48.26-.38,8.89-9.31,11.46-18.54,6.99-5.5-2.67-11.8-5.48-17.63-5.28-9.24.32-15.58,6.37-18.31,15.54-2.67,8.96.16,16.49,6.79,22.44,7.08,6.34,15.34,7.11,23.93,3.11,20.34-9.49,23.96-7.27,24.03,15,.04,12.1,0,24.21,0,37.32Z"/>
  <path class="am" d="M43.9,410.1v-142.62c16.96,0,33.66-.44,50.31.23,6.3.25,9.05,7.33,6.47,14.32-1.13,3.06-3.27,5.72-4.76,8.67-4.8,9.49-2.49,20.05,5.78,26.85,7.87,6.47,18.6,6.67,26.8.5,8.44-6.35,11.19-17.02,6.76-26.62-.8-1.74-1.97-3.32-2.91-5-6.48-11.66-2-19.33,11.42-19.4,14.32-.08,28.64-.02,43.82-.02,0,14.87.09,28.91-.04,42.94-.06,6.26-.09,12.37,6.46,15.79,6.43,3.36,12.22,1.22,17.94-2.2,14.45-8.64,30.4-1.1,30.93,14.53.51,15.14-14.5,24.82-28.09,18.06-2.71-1.35-5.16-3.27-7.94-4.4-10.57-4.32-19.1,1.22-19.21,12.56-.15,15.12-.04,30.25-.04,45.82H43.9Z"/>
  <path class="am" d="M187.66,410.1c0-15.9-.29-31.34.12-46.75.22-8.3,6.45-12.13,14.49-9.48,3.08,1.02,5.84,3.02,8.76,4.54,9.65,5.04,20.88,2.66,27.58-5.82,6.56-8.31,6.36-19.26-.51-27.47-6.66-7.97-17.72-10.18-27.03-5.35-1.71.89-3.25,2.11-4.96,2.98-10.68,5.41-18.32,1.05-18.45-10.73-.16-14.59-.04-29.18-.04-44.84,15.73,0,30.58.13,45.42-.04,13.14-.15,18.75-9.5,12.99-21.36-.96-1.98-2.85-3.67-3.29-5.71-.97-4.47-2.39-9.28-1.62-13.59,1.43-8.04,7.18-13.04,15.17-14.58,7.68-1.49,14.3,1.13,18.98,7.46,4.66,6.3,5.1,13.28,1.77,20.35-1.29,2.73-3.32,5.14-4.45,7.92-4.28,10.54,1.19,19.22,12.5,19.48,11.88.27,23.77.03,35.66,0,3.27,0,6.53,0,10.3,0v142.97h-143.4Z"/>
</svg>
