<?xml version='1.0' encoding='UTF-8'?>
<svg xmlns="http://www.w3.org/2000/svg" id="u" data-name="Clés" viewBox="0 0 453.54 453.54">
  <defs>
    <style>
      .z {
        fill: none;
        stroke: #8A5301;
        stroke-linecap: round;
        stroke-linejoin: round;
        stroke-width: 12px;
      }
    </style>
  </defs>
  <g>
    <path class="z" d="M42.53,334.86l55.6-126.76-4.38-6.2c-7.33-10.36-11.36-23.05-11.36-35.73,0-34.1,27.75-61.84,61.85-61.84s61.85,27.74,61.85,61.84c0,28.96-20.52,54.39-48.79,60.44l-6.63,1.42-23.28,51.54-31.11,12.43,14.45,28.9-28.1,10.22,13.51,27.02-40.93,10.04-12.69-33.32Z"/>
    <circle class="z" cx="143.5" cy="163.16" r="23.81"/>
  </g>
  <g>
    <path class="z" d="M285.04,85.66c-40.54,4.73-71.17,45.03-52.29,84.26l68.51,144.39,109.78-52.1-68.56-144.39c-10.36-21.78-33.41-34.73-57.44-32.16Z"/>
    <circle class="z" cx="288.32" cy="145.53" r="23.81"/>
  </g>
  <path class="z" d="M143.5,163.16s29.38,31.78,82.93,25.19c39.69-4.88,61.88-42.81,61.88-42.81"/>
</svg>
