<?xml version='1.0' encoding='UTF-8'?>
<svg xmlns="http://www.w3.org/2000/svg" id="e" data-name="5" viewBox="0 0 453.54 453.54">
  <defs>
    <style>
      .n {
        fill: #fff;
        stroke-linecap: round;
        stroke-linejoin: round;
        stroke-width: 11.66px;
      }

      .n, .o {
        stroke: #8A5301;
      }

      .o {
        fill: #8A5301;
        stroke-miterlimit: 10;
        stroke-width: 3px;
      }
    </style>
  </defs>
  <path class="o" d="M167.98,51.35l-44.04-10.39c-2.51-.59-5.03.96-5.63,3.48-.6,2.52.96,5.04,3.48,5.63l32.09,7.56c-47.27,27.63-80.3,72.03-98.35,132.2l-14.87-29.8c-1.15-2.32-3.97-3.25-6.28-2.1-2.31,1.16-3.25,3.97-2.09,6.28l20.21,40.48c1.51,3.02,5.27,4.13,8.18,2.4l38.91-23.1c2.22-1.32,2.96-4.19,1.64-6.41-1.32-2.23-4.19-2.96-6.42-1.64l-29.84,17.72c17.38-58.61,49.38-101.6,95.25-127.99l-10.51,33.43c-.78,2.47.6,5.1,3.07,5.87,2.47.77,5.09-.6,5.87-3.06l13.56-43.17c1.01-3.23-.93-6.63-4.22-7.41Z"/>
  <path class="n" d="M364.7,385.72c-14.24,12.45-34.11,21.39-61.79,23.06-28.76,1.73-50.84-3.01-69.48-14.91-10.54-6.74-20.35-15.8-31.78-29.4-24.01-28.54-51.77-56.75-84.86-86.21l-15.16-13.5c-2.39-2.13-3.81-5.07-4-8.27-.19-3.2.88-6.28,3.02-8.68,6.21-6.97,14.77-11.11,24.09-11.65s18.29,2.58,25.27,8.79l56.7,50.5c.14.12.31.13.44.11l.61-.09.61.12c.4.02.64-.21.64-.5l3.14-228.78c.09-6.26,2.61-12.12,7.11-16.5,4.53-4.36,10.43-6.74,16.69-6.66,6.27.09,12.13,2.61,16.51,7.11,4.37,4.5,6.73,10.42,6.65,16.69l-1.99,145.24s.17.11.53.11c.35,0,.52-.15.55-.19l.78-58.4c.08-5.77,2.64-11.15,7.21-15.14l.03-.02c4.47-3.9,10.35-6,16.54-5.92,6.19.09,12,2.35,16.37,6.37,4.47,4.12,6.89,9.58,6.82,15.36l-.81,58.49c-.03-.09.18.11.52.11.34,0,.51-.15.55-.19l.58-44.12c.08-5.77,2.64-11.15,7.21-15.14l.03-.02c4.47-3.9,10.35-6,16.54-5.92s12,2.35,16.37,6.37c4.47,4.12,6.89,9.58,6.82,15.36l-.61,44.22c-.02-.08.18.11.53.11.35,0,.52-.15.55-.19l.11-9.82c.18-12.95,10.86-23.33,23.8-23.16,12.95.18,23.33,10.85,23.16,23.8l-1.19,90.83c-.3,22.06-5.19,64.25-35.39,90.65Z"/>
</svg>
