<?xml version='1.0' encoding='UTF-8'?>
<svg xmlns="http://www.w3.org/2000/svg" id="l" data-name="Pouce positif" viewBox="0 0 453.54 453.54">
  <defs>
    <style>
      .n {
        fill: #fff;
        stroke: #8A5301;
        stroke-linecap: round;
        stroke-linejoin: round;
        stroke-width: 12px;
      }
    </style>
  </defs>
  <path class="n" d="M176.49,270.66c2.29,42.35-9.58,87.43,17.54,123.03,14.33,19.97,46.92,13.79,50.1-11.36,2.08-11.7,3.19-23.72,3.27-35.61.27-39.47,20.1-67.57,50.36-90.24,3.08-2.3,6-7.15,6.02-10.83.37-58.43.39-116.87.02-175.3-.03-4.62-2.46-10.15-5.58-13.65-9.85-11.03-22.67-17.88-37.47-18.06-46.17-.55-92.35-.53-138.52-.17-21.31.41-29.48,25.29-19.02,42.18-25.34,4.93-36.11,34.59-20.14,54.6-31.92,4.11-39.46,45.4-13.7,62.32-39.45,18.71-28.1,73.76,15.71,73.04,30.5.11,60.87-.01,91.41.03Z"/>
  <rect class="n" x="304.17" y="38.23" width="101.88" height="237.14" rx="19.4" ry="19.4" transform="translate(710.22 313.6) rotate(180)"/>
</svg>
