<?xml version='1.0' encoding='UTF-8'?>
<svg xmlns="http://www.w3.org/2000/svg" id="s" data-name="Pollution_3" viewBox="0 0 453.54 453.54">
  <defs>
    <style>
      .ak {
        fill: #144179;
      }

      .ak, .al {
        stroke-width: 0px;
      }

      .al {
        fill: #144179;
      }

      .am {
        fill: none;
        stroke: #144179;
        stroke-miterlimit: 10;
        stroke-width: 12px;
      }
    </style>
  </defs>
  <path class="am" d="M317.03,215.29c-8.22-42.15-44.83-73.8-88.81-73.8-34.92,0-65.25,20.04-80.35,49.36-36.37,3.91-64.65,35.07-64.65,72.82,0,40.44,32.5,73.31,72.5,73.31h157.08c33.35,0,60.42-27.37,60.42-61.09s-24.77-58.41-56.19-60.6Z"/>
  <g>
    <path class="al" d="M189.03,238.04c-3.67,0-6.53,1.43-8.58,4.28-2.05,2.85-3.08,6.78-3.08,11.79,0,10.42,4.17,15.62,12.52,15.62,2.52,0,4.97-.33,7.33-1,2.37-.67,4.75-1.47,7.14-2.41v12.37c-4.76,2-10.14,3-16.15,3-8.61,0-15.21-2.37-19.8-7.11-4.59-4.74-6.89-11.59-6.89-20.55,0-5.6,1.11-10.53,3.34-14.77,2.22-4.25,5.42-7.51,9.6-9.79s9.08-3.42,14.73-3.42c6.16,0,12.05,1.27,17.67,3.81l-4.72,11.51c-2.11-.94-4.21-1.73-6.32-2.37-2.11-.64-4.37-.96-6.79-.96Z"/>
    <path class="al" d="M268.85,253.81c0,9.11-2.35,16.03-7.06,20.77-4.71,4.74-11.6,7.11-20.68,7.11s-15.81-2.38-20.58-7.15c-4.77-4.76-7.16-11.7-7.16-20.81s2.37-15.89,7.12-20.64c4.75-4.75,11.64-7.13,20.7-7.13s15.96,2.36,20.64,7.07,7.02,11.64,7.02,20.77ZM229.6,253.81c0,10.47,3.84,15.7,11.51,15.7,3.9,0,6.79-1.27,8.68-3.81,1.88-2.54,2.83-6.5,2.83-11.89s-.96-9.4-2.87-11.98c-1.91-2.58-4.77-3.87-8.56-3.87-7.72,0-11.59,5.28-11.59,15.85Z"/>
    <path class="al" d="M298.51,306.2h-24.13v-5.61l8.12-7.79c2.32-2.3,3.84-3.88,4.55-4.72s1.21-1.56,1.49-2.17c.28-.6.42-1.24.42-1.9,0-.82-.28-1.47-.84-1.94-.56-.47-1.35-.71-2.37-.71s-2.1.28-3.17.85c-1.07.57-2.28,1.41-3.63,2.51l-4.94-5.48c1.71-1.45,3.15-2.49,4.32-3.12s2.44-1.1,3.81-1.44c1.37-.33,2.91-.5,4.63-.5,2.15,0,4.07.36,5.77,1.08,1.69.72,3,1.75,3.93,3.08.93,1.33,1.4,2.82,1.4,4.48,0,1.24-.16,2.38-.49,3.43-.33,1.05-.83,2.08-1.51,3.1-.68,1.01-1.59,2.08-2.72,3.21-1.13,1.12-3.54,3.25-7.22,6.39v.22h12.58v7.04Z"/>
  </g>
  <circle class="ak" cx="335.85" cy="169.65" r="12.89"/>
  <circle class="ak" cx="224.54" cy="98.66" r="12.89"/>
  <circle class="ak" cx="326.63" cy="101.98" r="8.07"/>
  <circle class="ak" cx="412.62" cy="209.23" r="8.07"/>
  <circle class="ak" cx="404.62" cy="295.39" r="12.89"/>
  <circle class="ak" cx="108.23" cy="148.67" r="13.65"/>
  <circle class="ak" cx="42.25" cy="212.58" r="8.07"/>
  <circle class="ak" cx="57.92" cy="303.05" r="12.89"/>
</svg>
