<?xml version='1.0' encoding='UTF-8'?>
<svg xmlns="http://www.w3.org/2000/svg" id="aj" data-name="Hausse bio" viewBox="0 0 453.54 453.54">
  <defs>
    <style>
      .ak {
        fill: none;
        stroke: #144179;
        stroke-linejoin: round;
        stroke-width: 12px;
      }

      .al {
        fill: #144179;
        stroke-width: 0px;
      }
    </style>
  </defs>
  <polygon class="ak" points="156.79 160.57 156.79 410.2 296.43 410.2 296.43 160.57 346.51 160.57 228.09 44.13 106.72 160.57 156.79 160.57"/>
  <path class="al" d="M180.43,288.35v.03l-.39.26c-1.08.71-1.72,1.93-1.72,3.25,0,2.14,1.71,3.88,3.8,3.88.4,0,.78-.06,1.11-.18,8.04-2.46,15.68-6.21,22.77-11.14l.22-.16h3.07c33.44-.16,62.74-34.31,65.32-76.13l.28-4.54c.11-1.07-.16-2.1-.77-2.93l-.02-.03c-.64-.81-1.55-1.28-2.49-1.29l-3.68.02c-33.43.15-62.72,34.3-65.3,76.13l-.14,2.25-.35.24c-6.6,4.54-13.7,7.95-21.11,10.15l-.6.19ZM216.7,275.84l2.18-2.19c5.65-5.68,10.75-12.25,15.16-19.52h0c1.06-1.7.77-4.1-.64-5.36-.7-.65-1.6-.95-2.5-.82-.94.13-1.79.72-2.31,1.6-4.94,8.15-10.77,15.29-17.32,21.24l-1.76,1.6.31-2.35c2.19-16.71,9.23-32.33,19.82-44.01,10.67-11.76,23.96-18.41,37.43-18.72l.95-.02-.06.95c-2.21,32.48-22.5,60.6-48.27,66.87l-3,.73Z"/>
</svg>
