<?xml version='1.0' encoding='UTF-8'?>
<svg xmlns="http://www.w3.org/2000/svg" id="t" data-name="Recyclage" viewBox="0 0 453.54 453.54">
  <defs>
    <style>
      .ak {
        fill: none;
        stroke: #144179;
        stroke-linecap: round;
        stroke-linejoin: round;
        stroke-width: 12px;
      }
    </style>
  </defs>
  <path class="ak" d="M58.87,297.59l46.4-46.4c-1.82-8.38-2.76-17.01-2.76-25.91,0-18.31,3.9-35.71,11.1-51.02l23.11,23.11,5.7-50.41,5.71-50.12-50.42,5.71-50.11,5.4,22.51,22.82c-16.8,27.6-26.4,60.01-26.4,94.52,0,25.68,5.5,50.03,15.17,72.31Z"/>
  <path class="ak" d="M384.82,136.9l-44.17,44.17c5.29,13.8,8.23,28.73,8.23,44.2,0,14.4-2.4,28.2-6.91,41.12l-23.41-23.11-5.7,50.11-5.41,50.42,50.12-5.71,50.11-5.7-21.61-21.61c13.8-25.52,21.61-54.62,21.61-85.53s-8.46-62.13-22.88-88.37Z"/>
  <path class="ak" d="M266.84,341.37c-12.87,4.6-26.75,7.24-40.99,7.24-19.81,0-38.72-4.8-55.22-13.2l22.21-22.21-50.12-5.71-50.11-5.7,5.4,50.41,5.71,50.12,24.01-24.01c28.21,18.3,61.82,28.8,98.13,28.8,30.87,0,59.89-7.66,85.41-21.34l-44.42-44.42Z"/>
  <path class="ak" d="M333.58,92.34l-5.4-50.41-20.71,20.7c-24.6-12.3-52.51-19.5-81.62-19.5-27.14,0-52.92,6.13-75.96,16.81l45.75,45.75c9.7-2.39,19.8-3.74,30.21-3.74,12.6,0,24.91,2.1,36.61,5.7l-23.71,23.72,50.42,5.7,50.11,5.41-5.71-50.12Z"/>
</svg>
