<?xml version='1.0' encoding='UTF-8'?>
<svg xmlns="http://www.w3.org/2000/svg" id="i" data-name="Pollution_1" viewBox="0 0 453.54 453.54">
  <defs>
    <style>
      .ak {
        fill: #144179;
        stroke: #144179;
        stroke-miterlimit: 10;
        stroke-width: 12px;
      }

      .al {
        fill: #fff;
        stroke-width: 0px;
      }
    </style>
  </defs>
  <path class="ak" d="M342.68,178.71c-10.52-53.36-57.38-93.42-113.68-93.42-44.7,0-83.52,25.36-102.85,62.48-46.55,4.95-82.74,44.39-82.74,92.18,0,51.19,41.6,92.8,92.8,92.8h201.06c42.69,0,77.33-34.64,77.33-77.33s-31.71-73.93-71.92-76.71Z"/>
  <g>
    <path class="al" d="M175.34,205.93c-4.76,0-8.47,1.85-11.13,5.54-2.67,3.7-4,8.8-4,15.29,0,13.51,5.41,20.26,16.24,20.26,3.27,0,6.44-.43,9.51-1.3s6.16-1.9,9.26-3.12v16.04c-6.17,2.59-13.15,3.89-20.95,3.89-11.17,0-19.72-3.07-25.68-9.22-5.95-6.15-8.93-15.03-8.93-26.65,0-7.27,1.44-13.65,4.33-19.16,2.88-5.5,7.03-9.74,12.45-12.7,5.41-2.96,11.78-4.44,19.1-4.44,7.99,0,15.63,1.65,22.92,4.95l-6.12,14.93c-2.73-1.22-5.46-2.24-8.2-3.07-2.73-.83-5.67-1.25-8.8-1.25Z"/>
    <path class="al" d="M278.85,226.38c0,11.81-3.05,20.79-9.16,26.94-6.11,6.15-15.04,9.22-26.81,9.22s-20.5-3.09-26.69-9.27c-6.19-6.18-9.28-15.17-9.28-26.98s3.08-20.61,9.23-26.77c6.16-6.16,15.1-9.24,26.84-9.24s20.69,3.06,26.77,9.17c6.07,6.11,9.11,15.09,9.11,26.94ZM227.96,226.38c0,13.57,4.97,20.36,14.93,20.36,5.06,0,8.81-1.65,11.26-4.95s3.67-8.43,3.67-15.41-1.24-12.19-3.72-15.53c-2.48-3.34-6.18-5.02-11.11-5.02-10.02,0-15.03,6.85-15.03,20.55Z"/>
    <path class="al" d="M317.31,294.32h-31.3v-7.28l10.53-10.11c3.01-2.99,4.97-5.02,5.9-6.12.92-1.09,1.57-2.03,1.93-2.81.36-.78.55-1.6.55-2.46,0-1.06-.36-1.9-1.09-2.52-.73-.62-1.75-.92-3.07-.92s-2.73.37-4.11,1.11c-1.39.74-2.96,1.82-4.71,3.26l-6.4-7.11c2.22-1.88,4.09-3.23,5.6-4.04,1.51-.81,3.16-1.43,4.94-1.86,1.78-.43,3.78-.64,6-.64,2.79,0,5.28.47,7.48,1.4,2.19.93,3.89,2.26,5.1,3.99,1.21,1.73,1.81,3.66,1.81,5.81,0,1.61-.21,3.09-.63,4.45s-1.08,2.7-1.96,4.02-2.06,2.7-3.52,4.16-4.59,4.22-9.37,8.29v.28h16.31v9.13Z"/>
  </g>
</svg>
