<?xml version='1.0' encoding='UTF-8'?>
<svg xmlns="http://www.w3.org/2000/svg" viewBox="0 0 453.54 453.54">
  <defs>
    <style>
      .al {
        fill-rule: evenodd;
      }

      .al, .am {
        fill: none;
        stroke: #144179;
        stroke-linecap: round;
        stroke-linejoin: round;
        stroke-width: 12px;
      }
    </style>
  </defs>
  <g id="ac" data-name="Poubelle">
    <path class="al" d="M375.13,81.18c.15-1.45-.99-2.71-2.45-2.71H84.27c-1.46,0-2.6,1.26-2.45,2.71l31.66,317.56c1.01,10.09,9.49,17.77,19.63,17.77h190.34c10.13,0,18.61-7.67,19.63-17.75l32.06-317.59Z"/>
    <g>
      <line class="am" x1="139.72" y1="168.97" x2="158.45" y2="371.99"/>
      <line class="am" x1="229.91" y1="168.97" x2="229.91" y2="371.99"/>
      <line class="am" x1="317.23" y1="168.97" x2="297.69" y2="371.99"/>
    </g>
    <path class="al" d="M270.48,77.13v-17.61c0-7.24-6.62-13.11-14.79-13.11h-55.34c-8.17,0-14.79,5.87-14.79,13.11v18.94"/>
  </g>
  <g id="ae" data-name="Poubelle recyclage">
    <line class="am" x1="90.28" y1="126.53" x2="368" y2="126.53"/>
  </g>
</svg>
