<?xml version='1.0' encoding='UTF-8'?>
<svg xmlns="http://www.w3.org/2000/svg" id="ae" data-name="Composte" viewBox="0 0 453.54 453.54">
  <defs>
    <style>
      .ak, .al, .am, .an, .ao {
        stroke-linecap: round;
        stroke-linejoin: round;
        stroke-width: 12px;
      }

      .ak, .al, .an {
        stroke: #144179;
      }

      .ak, .ao {
        fill: none;
      }

      .al {
        fill: #144179;
      }

      .am, .an {
        fill: #fff;
      }

      .am, .ao {
        stroke: #144179;
      }
    </style>
  </defs>
  <line class="ak" x1="40.92" y1="124.61" x2="40.92" y2="411.45"/>
  <line class="ak" x1="409.66" y1="124.61" x2="409.66" y2="411.45"/>
  <g>
    <path class="al" d="M338.34,106.44c1.47-3.35,2.29-7.05,2.29-10.95,0-15.08-12.23-27.31-27.31-27.31s-27.31,12.23-27.31,27.31c0,9.49,4.85,17.85,12.2,22.75-1.47,3.35-2.29,7.05-2.29,10.95,0,.23.01.45.02.68-1.95-.44-3.97-.68-6.05-.68s-3.96.22-5.85.63c-.72-14.44-12.65-25.94-27.28-25.94-9.79,0-18.37,5.16-23.2,12.9,2.06-3.84,3.23-8.23,3.23-12.9,0-9.38-4.73-17.65-11.93-22.57.27-1.54.42-3.13.42-4.75,0-15.08-12.23-27.31-27.31-27.31s-27.31,12.23-27.31,27.31c0,9.38,4.73,17.65,11.93,22.57-.27,1.54-.42,3.13-.42,4.75,0,15.08,12.23,27.31,27.31,27.31,9.79,0,18.37-5.16,23.2-12.9-1.26,2.35-2.18,4.9-2.71,7.59-8.73,4.56-14.7,13.69-14.7,24.22,0,15.08,12.23,27.31,27.31,27.31,8.95,0,16.9-4.31,21.88-10.96,3.98,10.15,13.86,17.34,25.43,17.34,15.08,0,27.31-12.23,27.31-27.31,0-.23-.01-.45-.02-.68,1.95.44,3.97.68,6.05.68,15.08,0,27.31-12.23,27.31-27.31,0-9.49-4.85-17.85-12.2-22.75Z"/>
    <circle class="al" cx="370.29" cy="158.51" r="27.31" transform="translate(82.14 439.96) rotate(-67.5)"/>
    <path class="al" d="M162.5,131.2c0-15.08-12.23-27.31-27.31-27.31s-27.31,12.23-27.31,27.31c0,.49.01.97.04,1.45-2.75-.93-5.7-1.45-8.77-1.45-15.08,0-27.31,12.23-27.31,27.31s12.23,27.31,27.31,27.31c3.36,0,6.58-.61,9.55-1.72,2.98,11.86,13.71,20.64,26.49,20.64,15.08,0,27.31-12.23,27.31-27.31,0-9.74-5.1-18.28-12.77-23.12,7.67-4.84,12.77-13.38,12.77-23.12Z"/>
  </g>
  <g>
    <path class="am" d="M117.84,61.5c87.5-25.18,102.34,85.19,96.21,99.5-5.74,12.99-124.75-9.86-96.21-99.5Z"/>
    <path class="ao" d="M175.67,119.31S114.21,43.78,75.11,39.39"/>
  </g>
  <g>
    <path class="am" d="M369.4,117.25c-52.66-15.16-61.59,51.27-57.9,59.88,3.46,7.82,75.08-5.93,57.9-59.88Z"/>
    <path class="ao" d="M334.6,152.04s36.99-45.46,60.52-48.1"/>
  </g>
  <rect class="an" x="40.92" y="173.55" width="368.74" height="64.38"/>
  <rect class="an" x="40.92" y="275.52" width="368.74" height="64.38"/>
  <rect class="an" x="40.92" y="377.49" width="368.74" height="25.62"/>
</svg>
