<?xml version='1.0' encoding='UTF-8'?>
<svg xmlns="http://www.w3.org/2000/svg" id="ae" data-name="Poubelle recyclage" viewBox="0 0 453.54 453.54">
  <defs>
    <style>
      .al, .am {
        fill-rule: evenodd;
      }

      .al, .an {
        fill: none;
        stroke: #144179;
        stroke-linecap: round;
        stroke-linejoin: round;
        stroke-width: 12px;
      }

      .am {
        fill: #144179;
        stroke-width: 0px;
      }
    </style>
  </defs>
  <g>
    <path class="am" d="M190.34,191.75l-15.26,27.08,23.29,12.19,12.5-24.29,5.54-9.44-3.33-4.43c-11.08-17.75-19.97-5.54-22.74-1.11h0Z"/>
    <path class="am" d="M164.5,287.66l1.66-2.22,8.86-16.09,7.78,4.43c1.11.55,1.66.55,2.21.55,1.66-.55,3.33-2.22,2.77-4.43l-6.65-30.49c-.55-1.68-1.66-2.23-3.34-2.23l-32.16,9.44c-2.21,1.11-3.32,3.88-1.66,5.54l7.2,3.88-16.09,28.85c-3.88,7.2-2.22,10.53-2.22,10.53l17.75,29.96c-3.88-7.22,3.88-19.41,3.88-19.41l9.99-18.3Z"/>
    <path class="am" d="M298.15,302.63h-23.85l-18.3.55v-9.44c0-.55-.55-1.66-.55-1.66-1.11-1.66-3.88-2.22-5.54-.55l-22.74,21.07c-1.66,1.11-1.66,2.77,0,3.88l23.85,23.29c2.22,1.66,4.99.55,5.54-1.66v-7.76l32.73-.56c8.31-.55,9.97-3.32,9.97-3.32l17.2-30.51c-3.88,7.22-18.3,6.67-18.3,6.67h0Z"/>
    <path class="am" d="M236.04,201.7l9.44,15.51-7.78,5c-.55.55-1.11,1.11-1.11,1.66-1.11,1.66,0,3.88,2.22,4.43l29.96,8.87c1.66.55,2.77,0,3.32-2.22l7.2-32.16c.55-2.77-1.66-4.99-3.88-4.43l-7.2,4.43-17.2-27.74c-4.43-7.2-7.76-7.2-7.76-7.2l-34.94,1.11c8.31-.55,14.98,12.76,14.98,12.76l11.08,17.75,1.66,2.22Z"/>
    <path class="am" d="M306.07,269.69l-15.73-26.81-22.25,14,14.72,23.02,5.37,9.54,5.5-.65c20.91-.65,14.83-14.47,12.39-19.1h0Z"/>
    <path class="am" d="M182.55,330.15l31.08.73-.2-26.29-27.32.4-10.94-.45-2.35,5.02c-10.45,18.13,4.5,20.23,9.72,20.58h0Z"/>
  </g>
  <path class="al" d="M372.19,70H76.79l32.1,321.96c1.01,10.14,9.54,17.86,19.73,17.86h191.34c10.18,0,18.71-7.71,19.73-17.84l32.5-321.99Z"/>
  <path class="al" d="M267.18,68.66v-17.7c0-7.28-6.66-13.18-14.87-13.18h-55.63c-8.21,0-14.87,5.9-14.87,13.18v19.04"/>
  <line class="an" x1="84.9" y1="118.32" x2="364.08" y2="118.32"/>
</svg>
