<?xml version='1.0' encoding='UTF-8'?>
<svg xmlns="http://www.w3.org/2000/svg" id="n" data-name="Climat" viewBox="0 0 453.54 453.54">
  <defs>
    <style>
      .ak {
        fill: none;
        stroke: #144179;
        stroke-linecap: round;
        stroke-linejoin: round;
        stroke-width: 12px;
      }

      .al {
        fill: #144179;
        stroke-width: 0px;
      }
    </style>
  </defs>
  <path class="al" d="M321.55,277.89c-2.78,0-5.28-1.95-5.87-4.78-6.44-30.88-30.57-54.94-61.47-61.29-3.25-.67-5.34-3.84-4.67-7.08.67-3.25,3.83-5.34,7.08-4.67,35.59,7.31,63.38,35.02,70.8,70.59.68,3.24-1.41,6.42-4.65,7.1-.41.09-.83.13-1.23.13Z"/>
  <path class="al" d="M392.17,304.53l-.31-.08s-.07-.05-.09-.1v-.2c.02-.34.02-.68.02-1.01,0-23.25-16.54-43.31-39.34-47.7-.02,0-.06-.03-.09-.11-4.81-44.01-41.86-77.19-86.19-77.19-19.31,0-37.51,6.28-52.25,17.41-4.16-26.9-26.37-48.18-54.44-50.38-15.92-1.24-31.38,3.78-43.53,14.16-12.14,10.39-19.52,24.88-20.76,40.8-1.88,24.01,10.81,46.5,31.57,57.51-9.21,12.68-14.6,28.37-14.6,45.5,0,.06-.06.11-.12.11h-38.47c-21.18,0-38.41,17.23-38.41,38.41s17.23,38.42,38.41,38.42h308.19c21.23,0,38.49-17.27,38.49-38.49,0-17.18-11.54-32.43-28.08-37.06ZM107.15,201.07c1-12.73,6.89-24.32,16.6-32.61,9.71-8.3,22.07-12.32,34.8-11.33,25.28,1.98,44.61,23.32,44.07,48.63-5.45,5.88-10.14,12.59-13.89,20.01l-.15.34s-.05.08-.11.08c-21.1.22-39.95,8.54-53.63,22.06-18.04-8.27-29.26-27.05-27.69-47.18ZM381.76,368.08H73.57c-14.56,0-26.41-11.85-26.41-26.42s11.85-26.41,26.41-26.41h38.47c6.68,0,12.12-5.43,12.12-12.11,0-36.06,28.3-64.58,64.44-64.95,4.72-.06,8.98-2.85,10.91-7.14,12.82-25.24,38.35-40.91,66.66-40.91,38.19,0,70.12,28.59,74.26,66.43.14,1.46.56,2.88,1.22,4.19,1.69,3.35,4.88,5.77,8.54,6.47,17.15,3.3,29.6,18.4,29.6,35.91v.52c-.1,1.72.17,3.42.81,5.06,1.44,3.72,4.59,6.47,8.46,7.4,11.31,3.23,19.19,13.68,19.19,25.47,0,14.61-11.88,26.49-26.49,26.49Z"/>
  <path class="ak" d="M168.4,120.27c3.53-12.09,7.06-24.18,10.59-36.27"/>
  <path class="al" d="M74.08,177.54c-.56,0-1.12-.08-1.68-.24l-36.27-10.59c-3.18-.93-5.01-4.26-4.08-7.44.93-3.18,4.26-5.01,7.44-4.08l36.27,10.59c3.18.93,5.01,4.26,4.08,7.44-.76,2.62-3.16,4.32-5.76,4.32Z"/>
  <path class="al" d="M110.69,131.57c-2.12,0-4.18-1.13-5.27-3.12l-19.36-35.32c-1.59-2.91-.53-6.55,2.38-8.15,2.91-1.59,6.55-.53,8.15,2.38l19.36,35.32c1.59,2.91.53,6.55-2.38,8.15-.91.5-1.9.74-2.88.74Z"/>
  <path class="al" d="M46.81,255.88c-2.12,0-4.18-1.13-5.27-3.12-1.59-2.91-.53-6.55,2.38-8.15l35.32-19.36c2.9-1.59,6.55-.53,8.15,2.38,1.59,2.91.53,6.55-2.38,8.15l-35.32,19.36c-.91.5-1.9.74-2.88.74Z"/>
  <path class="al" d="M216.25,162.8c-2.12,0-4.18-1.13-5.27-3.12-1.59-2.91-.53-6.55,2.38-8.15l35.32-19.35c2.91-1.59,6.55-.53,8.15,2.38,1.59,2.91.53,6.55-2.38,8.15l-35.32,19.35c-.91.5-1.9.74-2.88.74Z"/>
</svg>
