<?xml version='1.0' encoding='UTF-8'?>
<svg xmlns="http://www.w3.org/2000/svg" id="w" data-name="Polynésie française" viewBox="0 0 453.54 453.54">
  <defs>
    <style>
      .am {
        fill: #000;
      }

      .am, .an {
        stroke-width: 0px;
      }

      .an {
        fill: #5F1972;
      }

      .ao {
        fill: #fff;
        stroke: #5F1972;
        stroke-linecap: round;
        stroke-linejoin: round;
        stroke-width: 12px;
      }
    </style>
  </defs>
  <path class="an" d="M309.21,273.33c-1.01,0-2.19-.24-3.52-.91-1.47-.74-2.43-2.21-2.52-3.85-.15-2.46-.14-4.78-.14-7.03,0-5.17.01-9.63-1.74-14.19-.91-2.38.27-5.04,2.64-5.96,3.25-1.25,6.06-1.14,8.34.35,3.83,2.49,4.07,7.49,4.26,11.51.06,1.3.15,3.23.39,3.94.98,1.36,1.15,3.15.43,4.68h0c.03.79-.05,1.65-.28,2.57-.18.71-.53,1.36-1.01,1.91-.08.22-.18.57-.26.83-.5,1.66-1.33,4.44-4.17,5.67-.62.27-1.44.49-2.42.49Z"/>
  <path class="an" d="M262.35,262.59c-2.14,0-4.26-.06-6.31-.19-1.76-.11-3.31-1.21-3.98-2.84-.67-1.63-.36-3.5.81-4.82.14-.16.28-.33.41-.5-.2-.34-.35-.7-.46-1.08-1.52-.56-2.7-1.89-2.99-3.51-.36-1.99-.37-4.54-.01-6.5.33-1.84,1.74-3.29,3.57-3.68,6.13-1.32,10.33,3.7,13.4,7.37,1.46,1.75,3.28,3.92,4.42,4.32,1.2.42,2.18,1.32,2.69,2.48.52,1.16.53,2.49.04,3.66-.36.87-1.73,3.03-2.59,3.86-.79.76-1.83,1.2-2.92,1.27-2,.12-4.05.17-6.08.17Z"/>
  <path class="an" d="M246.37,284.98c-4.51,0-6.51-2.77-7.12-3.86-.94-1.67-1.12-3.56-.5-5.32,1.3-3.73,5.52-5.47,9.25-7.01.85-.35,1.91-.78,2.27-1,.41-.25.83-.48,1.26-.72.84-.47,1.79-.99,2.21-1.44.01-.16.03-.39.03-.55.07-1.27.2-3.9,2.59-5.57,2.34-1.63,5.06-1.1,7.17-.46,1.52.47,2.69,1.69,3.1,3.22.17.35.28.57.38.82.24.56.36,1.17.36,1.78v1.07c1.23,7.93-9.25,15.48-15.33,17.83-2.23.86-4.1,1.2-5.67,1.2Z"/>
  <path class="an" d="M309.29,74.77c-4,0-8.74-3.44-9.33-3.88-2.53-1.89-3.81-3.83-3.9-5.96-.16-3.67,2.25-6.51,6-7.06,4.67-.69,10.83,2.24,12.09,7.19.18.71.19,1.43.04,2.11.31,1.2.36,2.67-.21,4.4-.49,1.5-1.72,2.64-3.25,3.03-.46.12-.94.17-1.44.17Z"/>
  <path class="an" d="M315.57,89.26c-2.5,0-4.78-.9-6.35-2.55-1.64-1.71-2.36-4.04-2.03-6.54.13-.94.54-1.83,1.19-2.53.3-.32.96-.99,1.27-1.27.56-.51,1.24-.87,1.97-1.06,3.71-.94,7.19.25,9.3,3.19.56.78.87,1.73.87,2.69v.99c0,.4-.05.79-.15,1.18-.27,1.02-.71,1.76-1.03,2.23-.42,1.95-2.06,3.45-4.1,3.63-.31.03-.63.04-.93.04Z"/>
  <path class="an" d="M291.61,59.31c-.44,0-.88-.06-1.31-.19-3.39-1-6.18-3.21-8.41-5.44-.39.22-.8.38-1.24.47-2.04.45-5.07.71-7.84-2.25-.92-.99-1.36-2.33-1.21-3.67.41-3.55,2.48-5.33,3.72-6.4.26-.22.61-.52.69-.64.67-1.82,2.36-3.03,4.32-2.97,8.24.03,10.42,5.03,11.73,8.01.47,1.07.77,1.7,1.1,2.11.69.23,1.33.61,1.86,1.16l.49.5c1.5,1.53,1.74,3.87.61,5.67-.27,1.23-1.04,2.3-2.12,2.96-.73.44-1.55.67-2.39.67Z"/>
  <path class="am" d="M333.38,149.16c-1.15,0-2.29-.21-3.31-.65-2.83-1.22-5.51-4.62-3.75-10.21.41-1.31,1.38-2.36,2.65-2.88,3.46-1.42,9.63-2.04,12.45,2.07l-.79.54c1.72,1.97,2.07,4.63.8,6.93-1.43,2.58-4.81,4.2-8.05,4.2ZM333.41,143.69c.19.33.41.57.59.69l.56-.81c-.31-.03-.72.03-1.15.11ZM336.37,140.96l-2.55,1.75c.27.39.57.63.8.76l1.75-2.51ZM333.35,140.51l1.39.44c-.25-.41-.65-.79-1.04-.94-.11.12-.24.29-.35.5Z"/>
  <path class="am" d="M338.91,159.32c-3.21,0-6.39-1.62-8.36-3.49-.63-.59-1.08-1.36-1.3-2.19-1.12-4.33.65-6.88,1.81-8.01,1.99-1.94,4.99-2.58,8.04-1.7,2.81.8,5.1,2.71,6.31,5.17.57.63.97,1.38,1.21,2.25.27.98.21,2.03-.18,2.98-1.04,2.54-3.05,4.24-5.66,4.8-.62.13-1.25.2-1.87.2ZM339.15,153.4l-1.42.39c.07.24.16.47.27.67l1.15-1.07Z"/>
  <path class="an" d="M353.78,148.83c-.82,0-1.66-.12-2.52-.38-3.82-1.13-7.28-4.79-6.48-8.96.47-2.42,2.62-6.34,11.75-5.5l-.17,1.79.17-.38c1.88.87,3.35,2.51,4.36,4.87.48,1.13.5,2.41.03,3.55-1.29,3.18-4.01,5-7.15,5ZM353.67,139.59c-.47.03-1.11.39-1.29.78l1.51.61c.06-.61-.07-1.11-.21-1.39Z"/>
  <path class="an" d="M356.87,167.71c-1.55,0-3.13-.47-4.53-1.4-3.06-2.03-4.47-5.71-3.68-9.6.38-1.89,1.9-3.34,3.81-3.64,2.52-.4,5.33-.21,7.77.51.16.03.33.07.5.11,1.66.45,2.93,1.79,3.3,3.47.85,3.94-.26,7.41-2.98,9.27-1.24.85-2.69,1.27-4.17,1.27Z"/>
  <path class="ao" d="M333.4,139.92c-.33-.03-.76.03-1.21.12.08.14.16.25.25.35.26-.09.52-.16.79-.23l.17-.24Z"/>
  <path class="ao" d="M333.47,139.81l1.84-2.65-2.69,1.85c.28.41.6.66.84.8Z"/>
  <path class="ao" d="M275.51,389.33c-1.45-.39-3.6-.34-5.68-.29-.76.02-1.51.01-2.23.03-1.24,0-2.49.1-3.81.2-4.53.36-10.17.8-15.12-3.52-1.26-1.1-1.85-2.76-1.61-4.37-.05-.1-.1-.19-.15-.29-.42-.77-.99-1.83-1.31-1.99-1.4-.65-6.53-.34-8.73-.2-.98.06-1.88.11-2.63.14-6.52.26-10.86,2.52-16.86,5.64l-1.56.81c-6.47,3.32-9.79,6.83-10.16,10.75-.2,2.08.31,3.67,1.55,4.85,1.77,1.69,4.92,2.46,8.22,1.99.73-.1,1.58-.31,2.48-.53,1.66-.41,3.7-.9,5.91-.9,2.81,0,5.9.81,8.84,3.63,3.54,3.42,3.17,7.4,2.94,9.77-.05.56-.13,1.4-.07,1.66.23.3.43.5.57.61,1.36-.64,3.81-3.81,4.89-5.21,1.12-1.46,2.1-2.71,3.13-3.6,4-3.39,10.39-7.68,19-12.73,2.34-1.37,5.08-2.06,7.72-2.72,3.2-.8,5.58-1.47,6.79-2.59-.35-.19-.67-.38-.95-.54-.48-.29-.9-.54-1.16-.6Z"/>
  <path class="ao" d="M212.04,360.99c.96-.18,2.59-.87,4.24-1.76-.29-.01-.56-.02-.81-.03-5.05-.19-6.88-.29-8.35-.95-.01,0-.03-.01-.04-.02-1.88-.86-3.25-1.97-4.36-2.86-1.24-1.01-1.88-1.5-2.84-1.69-2.2-.46-4.33-.68-6.58-.91-5.52-.56-11.23-1.15-16.91-5.3-6.18-4.51-10.85-10.25-15.37-15.81-4.32-5.32-8.4-10.34-13.63-14.21-1.04-.77-2.05-1.54-3.06-2.3-6.26-4.72-12.17-9.18-19.21-11.67-1.61-.57-3.75-.74-6.02-.92-3.25-.26-6.61-.53-9.73-2.01-2.76-1.3-4.27-3.43-5.29-5.05-.8.77-1.87,1.26-3.06,1.33-5.12.26-8.27-3.01-10.6-5.42-2.4-2.48-3.32-3.17-4.8-3.04h0s-.02.09-.02.13c-.16.79-.34,1.7-.62,2.74-.32,1.16-.8,2.34-1.27,3.48-.51,1.24-1.46,3.55-1.32,4.31.07.36.57.91,1.38,1.77.9.94,2.01,2.12,2.86,3.73,1.08,2.01,1.48,3.85,1.84,5.47.19.88.36,1.64.63,2.38.72,2.03,1.64,3.92,2.62,5.91,2.08,4.26,4.23,8.67,4.52,14.55.04.89.06,1.7.07,2.43.02.93.05,2.05.14,2.6.23.12.69.33,1.54.58.85.25,1.59.45,2.25.62,5.97,1.56,8.04,3.73,8.57,9.82,4.71,3.37,11.01,7.32,17.07,8.53,3.9.77,9.28.38,13.54-.05,3.62-.38,6.89-.1,10.05.17,1.49.13,3.01.26,4.6.31,1.48.05,2.85.77,3.73,1.96.96,1.29,1.47,1.49,1.47,1.49.36.08,1.72-.44,2.61-.76,1.84-.67,4.13-1.5,7-1.72,3.36-.28,6.42-.41,9.25-.41,5.49,0,10.12.52,14.41,1.59,5.12,1.29,13.7,2.07,19.52.98Z"/>
  <path class="ao" d="M311.46,124.26c-.96-1.73-1.42-3.48-1.82-5.03-.38-1.46-.71-2.73-1.32-3.39-1.81-1.95-6.06-3.29-8.34-4.02-2.4-.76-3.8-3.2-3.3-5.63-.18-1.33-.21-2.65-.24-3.88-.04-1.38-.09-3.47-.44-4.08-.45-.77-1.1-1.35-2-2.16-1.33-1.19-2.98-2.66-4.23-5.14-3.46-6.85-5-9.37-11.55-12.23-3.33-1.45-6.79-1.26-10.27.55-5.7,2.97-10.84,10.11-12.23,16.99-.39,1.95-3.7,17.45-5.14,21.5-.94,2.62-.18,4.37,1.47,7.77,1.35,2.77,3.03,6.22,3.12,10.62.34,16.94-19.34,20.62-31.1,22.82-.53.1-1.05.2-1.56.29.38.77.75,1.7.98,2.81.25,1.19.43,3.21.76,6.96.32,3.69.78,8.85,1.35,12.31.8.27,1.7.58,2.67.92,4.1,1.42,13.71,4.71,16.13,4.5,2.25-.21,4.43,1.15,5.15,3.29,1.08,3.24,4.41,8.22,6.88,10.98,1.56,1.76,4.23,5.19,4.6,8.47.65,5.76-.56,9.1-2.4,11.01,3.38,1.76,8.71,4.25,10.58,3.09.29-.18.5-.53.99-1.4.94-1.68,2.52-4.49,6.52-5.8,6.22-2.04,9.98,1.05,12.71,3.3.41.34.84.7,1.3,1.05,1.49-.2,4.53-1.96,6.19-3.37-.42-.22-1.05-.45-1.78-.52-4.23-.39-8.01-2.46-10.63-5.81-2.41-3.08-3.6-6.97-3.12-10.16.29-1.89,1.16-3.47,1.93-4.87.4-.72.94-1.7,1-2.12.38-2.37-.01-5.06-.43-7.9-.48-3.31-.97-6.72-.45-10.38.28-1.97,1.74-3.56,3.67-4.03,2.3-.56,4.26-.31,5.85.16-.08-.25-.17-.49-.28-.72-3.56-.98-4.68-3.63-4.99-5.8-.71-4.85,2.29-6.82,3.41-7.56.1-.07.22-.13.33-.23,2.03-2.54,4.73-5.42,7.34-8.2,1.78-1.9,3.62-3.86,5.22-5.69.85-1.03,3.1-5.86,4.19-8.19,1.14-2.45,1.72-3.66,2.21-4.43,1.14-1.74,2.76-2.51,3.87-2.97-.17-.21-.37-.43-.53-.62-.71-.81-1.59-1.82-2.31-3.12Z"/>
  <path class="ao" d="M332.49,136.16c-.12.13-.25.31-.37.53l1.46.46c-.26-.44-.69-.83-1.1-.99Z"/>
  <path class="ao" d="M337.02,151.41l1.21-1.12-1.5.41c.07.25.17.49.28.71Z"/>
</svg>
