<?xml version='1.0' encoding='UTF-8'?>
<svg xmlns="http://www.w3.org/2000/svg" id="x" data-name="St Pierre et Miquelon" viewBox="0 0 453.54 453.54">
  <defs>
    <style>
      .am {
        fill: #fff;
        stroke: #5F1972;
        stroke-linecap: round;
        stroke-linejoin: round;
        stroke-width: 12px;
      }
    </style>
  </defs>
  <path class="am" d="M161.25,92.97c.27-2.25.68-4.74,1.68-7-.55.14-1.13.19-1.71.14-.39,1.42-.26,4.13.03,6.86Z"/>
  <path class="am" d="M245.06,310.04c-1.05-3.35-2.12-6.81-2.8-10.8l-.17-1c-.01-.09-.03-.18-.04-.27-.79-.04-1.72-.13-2.79-.32l-.85-.13c-3.08-.47-7.92-1.22-10.27-6.76-1.42-.08-3,0-4.63.11-2.93.17-6.25.37-9.59-.41-8.06-1.88-14.57-7.23-18.84-15.47-9.17-17.69-6.56-45.56-1.15-58.88.35-.87.77-1.84,1.22-2.86.8-1.84,2.21-5.1,2.87-7.42-.51.15-1.12.35-1.86.64-4.16,1.6-7.61,1.74-10.53.42-4.32-1.95-5.92-6.27-7.46-10.44-.48-1.3-.98-2.65-1.57-3.98-2.84-6.37-5.77-12.97-1.86-17.49,3.84-4.43,10.95-2.43,13.63-1.68,1.56.44,3,.99,4.4,1.52,2.18.83,4.25,1.61,6.16,1.73.69,0,2.8-.59,4.06-.96,3.36-.99,6.83-2.01,9.91-.65,3.65,1.6,5.91,3.72,6.87,6.47.41,1.16.53,2.28.47,3.32,4.61-.72,5.62-1.1,6.64-3.48,4.79-11.24,8.02-21.63,9.59-30.88.28-1.66.67-3.49,1.08-5.44,1.47-6.95,3.48-16.46.35-21.17-2.63-3.96-8.61-4.78-14.94-5.64-3.79-.52-7.71-1.05-11.11-2.38-8.98-3.5-15-9.36-20.82-15.02-1.86-1.81-3.79-3.68-5.81-5.48-.94-.84-1.81-1.64-2.62-2.38-5.46-5.04-5.82-5.17-9.58-3.54-1.04.45-1.38,2.88-1.74,6.26-.23,2.18-.5,4.66-1.22,7-.42,1.37-1.37,2.45-2.56,3.06-.75.48-3.24,2.22-4.47,3.08q-2.68,1.87-3.41,2.12c-.82.28-1.69.34-2.53.2-.1,6.41-.61,12.79-1.53,18.92-.42,2.8-.88,5.55-1.34,8.27-2.91,17.39-5.22,31.13,5.53,40.94,17.27,15.79,24.16,41.9,24.85,61.07.17,4.84,1.24,10.5,2.36,16.5,1.7,9.07,3.46,18.44,2.37,26.47l-.15,1.12c-.75,5.53-1.78,13.1-4.59,17.98-1.84,3.17-3.88,4.82-5.52,6.14-1.17.94-2.01,1.62-2.84,2.85-3.84,5.67-8.49,8.59-12.98,11.41-3.29,2.07-6.41,4.03-9.19,7.1-.85.95-1.95,2.03-3.15,3.22-3.16,3.12-8.45,8.35-8.41,11.51,0,.28.01.94,1.09,1.96,1.02.96,3.07.92,6.35.73,5.02-.28,13.42-.76,17.42,8.55,3.33,7.72.03,12.4-2.15,15.49-1.17,1.66-1.86,2.69-2,4,.09.63.52,1.7,1.02,2.67,1.09-.85,2.37-1.37,3.76-1.52.28-.03.56-.04.84-.04,3.88,0,7.27,2.85,9.5,5.34,1.14,1.3,1.94,2.52,2.49,3.68,1.03-.65,2.07-1.26,3.07-1.85.76-.45,1.7-1,1.96-1.2,2.1-1.53,3.31-3.19,4.84-5.28,1.29-1.76,2.76-3.76,4.89-5.87,3.24-3.19,7.42-4.96,11.1-6.51,1.65-.7,3.21-1.35,4.54-2.07,5.14-2.81,8.96-5.83,13.14-10.4,2.55-2.78,5.73-5.47,8.82-8.07,5.16-4.36,10.5-8.87,12.5-13.44,3.41-7.83,1.73-13.21-.59-20.67Z"/>
  <path class="am" d="M156.56,76.69c-.3-1.21-.9-2.11-1.55-3.08-1.08-1.63-2.71-4.08-1.76-7.32,1.02-3.5,4.29-5.5,10.35-8.18,3.61-1.6,11.33-5.78,13.82-13.16-3.15.19-6.24,2.11-10.53,4.95-2.6,1.72-5.28,3.49-8.29,4.83-5.13,2.28-11.57,13.25-12.06,18.97-.22,2.61,1.21,4.71,3.77,8.19.36.49.72.98,1.1,1.51.52-1.94,1.38-3.64,2.73-4.99.72-.72,1.53-1.29,2.43-1.71Z"/>
  <path class="am" d="M300.56,406.05c-3.84-3.17-8.61-7.11-8.94-13-.21-3.69,1.41-7.34,4.81-10.87,2.11-2.22,5.24-3.48,8-4.59.51-.2,1-.4,1.46-.6.24-.5.5-.92.73-1.26,0-.56,0-1.12-.01-1.66-1.32-.87-2.36-1.83-3.22-2.64-.84-.78-1.57-1.46-2.16-1.7-2.24-.89-7.51-.88-9.87.03-3.82,1.5-10.48,7.46-13.24,11.29-3.16,4.35-5.55,9.75-7.86,14.96-1.12,2.53-2.28,5.14-3.51,7.61-2.33,4.68-4.05,7.1-8.16,9.86,1.88.25,3.95,1.01,5.96,2.83.35.32.67.66.95,1.03.29-1.1.84-2.24,1.79-3.31,1.42-1.59,3.7-2.77,10.6-3.74.75-.78,2.08-1.91,4.19-1.99,2.64-.14,4.51,1.49,6.21,3.12,1.9,1.82,2.37,4.01,2.52,5.71,1.29-.66,2.93-1.76,3.88-2.39,1.82-1.22,3.54-2.38,5.3-3.01,1.73-.62,3.38-.91,4.85-1.17.09-.02.18-.03.27-.05,0-.01-.02-.03-.03-.05-.63-1.19-2.7-2.9-4.52-4.4Z"/>
  <path class="am" d="M303.82,389.26c-1.51,1.57-2.01,2.68-1.98,3.21.06,1.05,1.78,2.74,3.5,4.23.17-3.1,1.01-6.68,2.79-9.57-1.53.62-3.71,1.51-4.3,2.13Z"/>
</svg>
