<?xml version='1.0' encoding='UTF-8'?>
<svg xmlns="http://www.w3.org/2000/svg" id="l" data-name="Aide alimentaire-carton" viewBox="0 0 453.54 453.54">
  <defs>
    <style>
      .aa {
        fill: none;
      }

      .aa, .ab {
        stroke: #008280;
        stroke-linecap: round;
        stroke-linejoin: round;
        stroke-width: 12px;
      }

      .ac {
        fill: #008280;
      }

      .ac, .ad {
        stroke-width: 0px;
      }

      .ab, .ad {
        fill: #fff;
      }
    </style>
  </defs>
  <polygon class="ac" points="226.98 236.46 82.58 205.27 224.16 176.95 368.79 205.64 226.98 236.46"/>
  <g>
    <path class="ac" d="M295.86,177.26c-.39,0-.78-.01-1.16-.04l-1.25-.08-.08-1.25c-.32-5.36,1.63-10.57,5.36-14.3,3.48-3.48,8.14-5.39,13.14-5.39.38,0,.77.01,1.15.03l1.25.08.08,1.25c.32,5.36-1.63,10.57-5.36,14.3-3.47,3.48-8.14,5.39-13.13,5.39h0Z"/>
    <g>
      <path class="ad" d="M294.3,244.72c-2.48,0-4.99-.58-7.45-1.72-2.46,1.15-4.96,1.72-7.45,1.72-4.9,0-9.75-2.28-14.03-6.59-7.1-7.15-12.01-19.23-11.94-29.36.04-5.5.79-13.52,6.81-19.55,3.64-3.5,8.46-5.42,13.58-5.42,3.07,0,6.13.71,8.9,2.03-1.6-4.69-3.58-8.26-5.9-10.62l-1.24-1.27,7.85-4.81.77,1.07c3.3,4.58,5.33,9.95,6.04,15.97,2.95-1.56,6.23-2.38,9.6-2.38,5.13,0,9.96,1.92,13.58,5.41,6.05,6.05,6.8,14.07,6.83,19.57.07,10.14-4.84,22.21-11.94,29.36-4.28,4.31-9.13,6.58-14.03,6.58h0Z"/>
      <path class="ac" d="M279.39,248.65c-3.91,0-7.74-1.14-11.39-3.4-11.69-7.24-18.58-24.25-18.49-36.51.06-9.71,2.67-17,7.96-22.3,4.43-4.26,10.25-6.59,16.39-6.59.58,0,1.16.02,1.74.06-.51-.75-1.04-1.41-1.58-1.96l-4.68-4.79,15.15-9.29,2.9,4.03c2.75,3.82,4.72,8.15,5.87,12.87,2.13-.59,4.33-.89,6.55-.89,6.18,0,11.98,2.31,16.34,6.5l.08.07c5.29,5.3,7.9,12.59,7.96,22.3.09,12.26-6.8,29.27-18.49,36.5-3.65,2.26-7.48,3.41-11.39,3.41-2.49,0-5-.47-7.46-1.4-2.46.93-4.97,1.4-7.46,1.4ZM273.84,190.53c-3.36,0-6.52,1.26-8.89,3.54-3.19,3.2-4.71,7.89-4.76,14.74-.06,9.15,5.32,22.33,13.44,27.35,1.96,1.21,3.84,1.8,5.77,1.8h0c1.65,0,3.3-.43,5.04-1.31l2.41-1.22,2.41,1.22c1.74.88,3.39,1.31,5.04,1.31,1.92,0,3.81-.59,5.77-1.8,8.11-5.03,13.5-18.2,13.43-27.35-.04-6.84-1.57-11.54-4.81-14.79-2.33-2.23-5.5-3.47-8.88-3.47-2.77,0-5.46.83-7.76,2.41l-5.4,3.7-4.66-3.42c-2.41-1.77-5.23-2.71-8.15-2.71Z"/>
    </g>
  </g>
  <g>
    <path class="ab" d="M320.36,222.63l15.67-57.17c1.81-6.6,8.97-10.15,15.32-7.58l12.78,5.16c6.35,2.56,9.04,10.09,5.75,16.1l-28.45,52.01c-6.51,11.91-24.66,4.58-21.07-8.51Z"/>
    <line class="aa" x1="331.9" y1="180.52" x2="344.92" y2="187.02"/>
    <line class="aa" x1="352.41" y1="128" x2="352.34" y2="158.28"/>
    <line class="aa" x1="374.88" y1="127.1" x2="359.6" y2="159.75"/>
    <line class="aa" x1="391.09" y1="141.78" x2="367.24" y2="162.75"/>
  </g>
  <path class="ab" d="M78.32,84.31c-2.42.71-3.91,3.43-3.2,5.85l4.66,15.91c.73,2.49,3.35,3.93,5.84,3.2l1.6-.47,5.37,18.32c2.37,8.09,2.16,16.57-.6,24.53l-3.31,9.53c-2.88,8.28-3.09,17.11-.63,25.52l27.46,93.76c.62,2.11,2.02,3.86,3.96,4.92,1.93,1.06,4.16,1.3,6.27.68l58.91-17.25c2.11-.62,3.86-2.02,4.92-3.96,1.06-1.93,1.3-4.16.68-6.28l-27.46-93.76c-2.46-8.42-7.41-15.73-14.3-21.15l-7.92-6.24c-6.62-5.21-11.37-12.24-13.74-20.33l-5.37-18.32,1.6-.47c1.25-.36,2.23-1.2,2.81-2.26s.75-2.34.39-3.58l-4.66-15.91c-.73-2.49-3.35-3.93-5.85-3.2l-37.43,10.96Z"/>
  <path class="ad" d="M215.54,145.8c-15.42,0-38.37,2.43-38.37,9.14v92.03c0,5.73,18.29,10.94,38.37,10.94s38.37-5.21,38.37-10.94v-92.03c0-6.7-22.95-9.14-38.37-9.14Z"/>
  <g>
    <path class="ac" d="M215.51,263.36c-16.73,0-43.27-4.06-43.27-14.97v-94.94c0-11.83,30.26-13.11,43.27-13.11s43.27,1.28,43.27,13.11v94.94c0,10.91-26.54,14.97-43.27,14.97ZM192.53,251.26c5.75,1.34,13.55,2.42,22.98,2.42s17.21-1.08,22.96-2.41c-6.85,1.47-14.85,2.32-22.96,2.32s-16.12-.85-22.98-2.33ZM181.92,237.33c2.76,2.1,15.33,6.57,33.58,6.57s30.83-4.46,33.59-6.57v-74.73c-11.73,3.83-31.04,3.96-33.59,3.96s-21.85-.13-33.58-3.96v74.73ZM185.14,153.45c5.08,1.55,15.12,3.43,30.37,3.43s25.29-1.87,30.37-3.43c-5.08-1.55-15.12-3.43-30.37-3.43s-25.29,1.87-30.37,3.43Z"/>
    <path class="ac" d="M215.51,229.81c-20.04,0-36.35-12.37-36.35-27.56s16.31-27.56,36.35-27.56,36.35,12.37,36.35,27.56-16.31,27.56-36.35,27.56ZM215.51,184.37c-14.46,0-26.67,8.19-26.67,17.88s12.21,17.88,26.67,17.88,26.67-8.19,26.67-17.88-12.21-17.88-26.67-17.88Z"/>
  </g>
  <polygon class="aa" points="226.29 411.05 83.61 371.41 83.61 210.77 226.29 241.2 226.29 411.05"/>
  <polygon class="ab" points="179.9 309.55 37.21 279.12 83.61 210.77 226.29 241.2 179.9 309.55"/>
  <polygon class="aa" points="226.32 411.05 369.01 371.41 369.01 210.77 226.32 241.2 226.32 411.05"/>
  <polygon class="ab" points="272.72 309.55 415.4 279.12 369.01 210.77 226.32 241.2 272.72 309.55"/>
  <line class="aa" x1="88.05" y1="108.26" x2="121.5" y2="98.75"/>
</svg>
