<?xml version='1.0' encoding='UTF-8'?>
<svg xmlns="http://www.w3.org/2000/svg" id="i" data-name="Céréales" viewBox="0 0 453.54 453.54">
  <defs>
    <style>
      .aa, .ab, .ac {
        stroke: #008280;
        stroke-width: 12px;
      }

      .aa, .ad {
        fill: #fff;
      }

      .aa, .ac {
        stroke-miterlimit: 10;
      }

      .ae {
        fill: #008280;
      }

      .ae, .ad {
        stroke-width: 0px;
      }

      .ab {
        stroke-linecap: round;
        stroke-linejoin: round;
      }

      .ab, .ac {
        fill: none;
      }
    </style>
  </defs>
  <g>
    <g>
      <path class="aa" d="M257.14,84.41c-.45.43-.9.87-1.33,1.3-31.05,30.99-5.73,54.38-3.4,57.6,2.36,3.27-3.55,66.54,7.09,70.9,10.64,4.36,63.83,5.45,63.83,5.45,0,0,72.62-5.62,76.95-11.27l8.54-75.99c27.18-53.45-41.37-61.08-41.37-61.08l-96.12,9.82-14.18,3.27Z"/>
      <g>
        <path class="ad" d="M363.96,108.91c.4,3.66-.09,6.99-.84,9.61,0,.08,0,.12-.04.21l-.26.87c-.09.25-.13.5-.22.71-.04.08-.04.12-.09.21-.62,1.66-1.28,2.83-1.72,3.33-.31.21-.57.46-.84.67-.22.17-.4.29-.57.46s-.35.37-.57.54c-.22.25-.49.46-.71.75-.09.04-.13.12-.22.21-5.52,6.37-6.62,18.06-6.62,37.07v1.37c-.04,4.7-.35,15.81-2.03,26.88l-.57,3.62c-1.81,10.19-4.59,18.06-8.21,20.14-4.99,2.87-6.53,3.29-11.83,3.29-1.94,0-4.32-.08-7.46-.21-5.21-.17-12.36-.42-22.42-.42s-17.17.25-22.42.42c-3.05.12-5.47.21-7.46.21-5.25,0-6.8-.42-11.78-3.29-7.06-3.99-10.86-29.79-10.86-52.01s-1.46-34.2-9.53-39.7c-1.59-1.87-5.87-12.28-1.1-22.64,4.81-10.32,19.64-22.59,63.15-22.59,4.28,0,8.25.12,12,.33l1.63.12c12.97.92,28.07,3.54,38.61,10.28.09.04.18.08.22.12.22.17.44.29.62.42,3.4,2.33,5.91,4.83,7.72,7.32,0,.04.04.08.09.12.18.25.35.54.53.79l.4.62c.13.17.22.37.35.54.22.42.44.83.66,1.29l.13.25c.13.29.26.58.4.92.13.29.26.62.4.96.13.29.22.58.35.92.09.29.13.54.22.79.13.37.22.71.31,1.04s.13.62.22.96c.04.25.09.54.13.79.09.5.18.96.22,1.46v.25Z"/>
        <path class="ac" d="M235.59,101.21c4.81-10.32,19.64-22.59,63.15-22.59,4.28,0,8.25.12,12,.33l1.63.12c12.97.92,28.07,3.54,38.61,10.28.09.04.18.08.22.12.22.17.44.29.62.42,3.4,2.33,5.91,4.83,7.72,7.32,0,.04.04.08.09.12.18.25.35.54.53.79l.4.62c.13.17.22.37.35.54.22.42.44.83.66,1.29l.13.25c.13.29.26.58.4.92.13.29.26.62.4.96.13.29.22.58.35.92.09.29.13.54.22.79.13.37.22.71.31,1.04s.13.62.22.96c.04.25.09.54.13.79.09.5.18.96.22,1.46v.25c.4,3.66-.09,6.99-.84,9.61,0,.08,0,.12-.04.21l-.26.87c-.09.25-.13.5-.22.71-.04.08-.04.12-.09.21-.62,1.66-1.28,2.83-1.72,3.33-.31.21-.57.46-.84.67-.22.17-.4.29-.57.46s-.35.37-.57.54c-.22.25-.49.46-.71.75-.09.04-.13.12-.22.21-5.52,6.37-6.62,18.06-6.62,37.07v1.37c-.04,4.7-.35,15.81-2.03,26.88l-.57,3.62c-1.81,10.19-4.59,18.06-8.21,20.14-4.99,2.87-6.53,3.29-11.83,3.29-1.94,0-4.32-.08-7.46-.21-5.21-.17-12.36-.42-22.42-.42s-17.17.25-22.42.42c-3.05.12-5.47.21-7.46.21-5.25,0-6.8-.42-11.78-3.29-7.06-3.99-10.86-29.79-10.86-52.01s-1.46-34.2-9.53-39.7c-1.59-1.87-5.87-12.28-1.1-22.64Z"/>
      </g>
    </g>
    <line class="ac" x1="356.12" y1="128.96" x2="412.83" y2="122.91"/>
  </g>
  <g>
    <path class="ae" d="M342.29,350.45c-2.03,3.85-5.71,7.39-9.43,10.01-7.81,5.38-16.06,4.96-21.83-.27-6.78-6.17-8.27-15.86-2.91-22.98,8.24-10.96,12.26-22.99,14.73-35.45,4.13,2.97,8.04,5.97,11.72,8.94-3.17,12.67-7.46,24.64-15.47,35.63-1.32,1.81-.1,6.63,1.72,8.51,1.33,1.35,5.99.89,8.46-.25,2.4-1.13,4.58-3.87,5.78-6.33,4.16-8.71,8.43-17.47,11.79-26.47,2.24,2.17,4.32,4.36,6.29,6.53-3.46,7.42-6.96,14.81-10.85,22.12Z"/>
    <path class="ae" d="M287.96,319.63c-7.18,14.28-24.24,16.66-32.71,5.53-5.09-6.65-4.6-13.53,0-20.99,6.52-10.44,10.36-21.51,11.21-33,4.02,1.56,8.14,3.32,12.3,5.29-1.82,11.64-5.97,22.69-12.46,33.09-2.51,3.96-2.82,8.74,1.58,10.31,2.81,1.04,4.93,2.94,8.61,1.68.91-.32,3.99-6.3,4.41-7.4,3.75-10.31,8.16-20.55,11.44-31,.9.43,1.8.92,2.66,1.39,1.81.99,3.62,1.98,5.36,2.98-3.72,10.84-7.23,21.83-12.4,32.12Z"/>
    <path class="ae" d="M229.65,286.79c-2.26,4.45-6.66,8.57-11.03,11.44-8.15,5.4-18.97,3.15-23.43-4.21-4.17-6.91-4.74-14,.77-21.15,3.84-4.88,6.48-10.15,8.58-15.78l.03-.04c4.06.13,8.37.44,12.86,1-2.91,6.09-5.76,12.09-8.78,17.98-2.42,4.66-3.78,8.72.94,11.77,4.67,3.02,8.94-.12,11.43-3.72,5.14-7.4,9.08-15.19,12.17-23.37,2.51.52,5.11,1.17,7.72,1.89-3.65,8.23-7.25,16.32-11.26,24.18Z"/>
    <path class="ac" d="M218.38,256.29c4.99.59,20.86,3.84,23.48,4.56,8.06,2.12,16.55,4.92,25.54,8.57,4.02,1.56,8.14,3.32,12.3,5.29,4.46,1.99,8.99,4.22,13.59,6.68.9.43,6.28,3.37,8.02,4.37,8.21,4.63,30.54,20.22,34.22,23.19,4.46,3.7,16.6,15.45,18.57,17.62,12.43,13.66,20.15,27.11,23.79,38.84,1.63,5.29,2.44,10.21,2.51,14.68.07,3.08.66,16.43-20.17,25.89-15.41,7-36.5,7.92-109.68-32.93-64.9-36.3-108.33-72.35-96.2-101.21,6.83-16.26,21.09-22.95,64.04-15.55Z"/>
  </g>
  <g>
    <path class="ab" d="M207.99,114.5c-4.18.54-8.3,1.06-12.66,1.67.22-.72.39-1.21.58-1.67,1.26-3.2,2.55-6.39,3.77-9.61,1.31-3.44-.4-5.86-4.07-5.78-3.98.07-7.98.18-12.21.28.81-4.38,1.57-8.53,2.4-12.72.28-1.55.06-2.95-1.15-4.06-1.13-1.02-2.51-1.14-4-.71-4.33,1.22-8.68,2.41-13.25,3.65.02-3.7.01-7.19-.01-10.73.01-3.97-2.67-5.63-6.2-3.88-3.13,1.55-6.33,3.14-9.83,4.92-.08-.82-.08-1.41-.22-1.99-.74-3.99-1.48-7.93-2.33-11.89-.64-3.06-3.58-4.16-6.16-2.41-.48.34-.95.73-1.45,1.1-3.02,2.25-6.06,4.53-9.16,6.91-.37-.72-.63-1.25-.89-1.77-1.52-3.25-3.02-6.53-4.59-9.76-1.3-2.66-4.32-3.03-6.34-.94-.38.4-.76.79-1.11,1.21-2.42,2.67-4.84,5.33-7.34,8.13-.27-.66-.47-1.15-.64-1.67-1.26-3.67-2.51-7.35-3.79-10.99-1.14-3.28-4.06-4.05-6.68-1.78-8.97,7.71-14.26,17.42-15.81,29.22-1.21,9.12-.17,18.13,1.55,27.11,1.25,6.39,2.74,12.69,3.83,19.11.56,3.19.69,6.49.67,9.74,0,3.35-1.73,5.94-4.68,7.56-1.85,1.02-3.74,2.03-5.75,2.64-4.98,1.54-9.96,2.93-14.98,4.26-8.48,2.22-16.93,4.55-24.87,8.46-13.4,6.6-22.56,16.72-26.25,31.4-.82,3.3,1.17,5.57,4.51,5.14,2.48-.28,4.96-.64,7.45-1,1.9-.23,3.83-.48,6-.77-1.5,3.82-2.91,7.34-4.34,10.89-1.53,3.94.14,6.28,4.38,6.15,3.86-.1,7.7-.17,11.65-.26-.03.48-.04.88-.13,1.23-.72,3.94-1.49,7.9-2.15,11.88-.53,2.98,1.8,5.14,4.74,4.47.85-.2,1.68-.45,2.52-.71,3.65-1,7.35-2.01,11.13-3.07,0,3.8-.01,7.41.04,10.97,0,.81.14,1.67.48,2.38.93,1.93,3.07,2.58,5.15,1.55,3.36-1.63,6.71-3.31,10.21-5.09.9,4.54,1.75,8.87,2.61,13.19.76,3.82,3.63,4.96,6.71,2.61,2.83-2.09,5.65-4.24,8.51-6.37.52-.4,1.07-.78,1.7-1.21.24.42.35.67.49.89,1.64,3.5,3.25,7.03,4.94,10.52,1.34,2.73,4.33,3.17,6.43.94.82-.81,1.53-1.68,2.32-2.5,2-2.2,3.98-4.46,6.09-6.77.29.77.5,1.31.69,1.88,1.27,3.73,2.54,7.45,3.86,11.17,1.01,2.75,3.98,3.59,6.21,1.67,6.85-5.81,11.83-12.91,14.46-21.55,2.89-9.57,2.75-19.29,1.1-28.99-1.16-7.19-2.9-14.33-4.15-21.52-.71-3.97-1.18-7.97-1.42-11.96-.28-4.52,1.83-7.87,5.97-9.65,3.22-1.4,6.55-2.69,9.92-3.68,6.07-1.77,12.27-3.23,18.35-4.94,7.29-2.05,14.37-4.73,20.93-8.68,10.79-6.54,17.99-15.84,21.28-28.05,1.11-4.2-.77-6.36-5.02-5.78Z"/>
    <path class="ab" d="M116.1,102.92s8.01,48.89-47.77,75.56"/>
    <path class="ab" d="M161.02,130.55s-47.99,12.31-50,74.1"/>
  </g>
</svg>
