<?xml version='1.0' encoding='UTF-8'?>
<svg xmlns="http://www.w3.org/2000/svg" id="e" data-name="Citron" viewBox="0 0 453.54 453.54">
  <defs>
    <style>
      .aa {
        fill: none;
        stroke: #008280;
        stroke-linecap: round;
        stroke-linejoin: round;
        stroke-width: 12px;
      }
    </style>
  </defs>
  <path class="aa" d="M183.97,395.16c72.31,3.77,146.55-37.5,185.34-104.25,28.74-49.47,37.2-101.42,15.43-156.22-1.34-3.38-.86-7.88-.12-11.64,6.45-32.94-12.45-54.05-45.58-51.21-4.96.43-10.27-1.29-15.2-2.76-17.87-5.32-35.36-14.37-53.51-15.9-86.67-7.31-151.26,31.14-196.05,103-30.25,48.54-37.41,101.27-15.6,156.03,1.24,3.11.91,7.23.25,10.67-6.69,34.5,11.72,55.06,46.36,52,4.34-.38,9.39.52,13.23,2.52,20.58,10.71,42.31,16.71,65.45,17.75Z"/>
  <path class="aa" d="M95.9,220s28.44-99.56,148.89-115.11"/>
</svg>
