<?xml version='1.0' encoding='UTF-8'?>
<svg xmlns="http://www.w3.org/2000/svg" id="f" data-name="Pomme" viewBox="0 0 453.54 453.54">
  <defs>
    <style>
      .aa {
        fill: none;
        stroke: #008280;
        stroke-linecap: round;
        stroke-linejoin: round;
        stroke-width: 12px;
      }
    </style>
  </defs>
  <path class="aa" d="M220.48,195s.7-66.22,34.48-92"/>
  <path class="aa" d="M230.65,139.27s-19.69-86.41-112.58-53.56c0,0,23.39,87.16,112.58,53.56Z"/>
  <circle class="aa" cx="146.18" cy="222.68" r="23.66"/>
  <path class="aa" d="M221.41,182.52s24.11-15.08,66.61-11.08c42.49,4,70.05,48.08,66.94,118.71-3.11,70.63-51.22,122.93-109,119.72,0,0-16.78-8.76-19.44-19.87h-8.1s2.87,0,2.87,0h-8.1c-2.67,11.11-19.44,19.87-19.44,19.87-57.78,3.21-105.89-49.1-109-119.72-3.11-70.63,24.44-114.71,66.94-118.71s67.61,11.08,67.61,11.08h2.13Z"/>
</svg>
