<?xml version='1.0' encoding='UTF-8'?>
<svg xmlns="http://www.w3.org/2000/svg" id="c" data-name="Argent_1 pile" viewBox="0 0 453.54 453.54">
  <defs>
    <style>
      .ag {
        fill: none;
        stroke: #5F1972;
        stroke-linecap: round;
        stroke-linejoin: round;
        stroke-width: 12px;
      }
    </style>
  </defs>
  <g>
    <path class="ag" d="M110.25,288.97s-.56,25.48,58.55,26.45c0,0,49.5.62,58.55-26.45"/>
    <ellipse class="ag" cx="168.78" cy="162.21" rx="58.94" ry="26.45"/>
    <line class="ag" x1="110.02" y1="165.86" x2="110.02" y2="326.6"/>
    <path class="ag" d="M110.27,225.26s-.56,25.48,58.55,26.45c0,0,49.5.62,58.55-26.45"/>
    <path class="ag" d="M110.28,193.4s-.56,25.48,58.57,26.45c0,0,49.52.62,58.57-26.45"/>
    <line class="ag" x1="110.1" y1="270.44" x2="110.1" y2="352.4"/>
    <line class="ag" x1="227.59" y1="272.81" x2="227.59" y2="349.03"/>
    <path class="ag" d="M110.28,351.17s-.56,25.48,58.55,26.45c0,0,49.5.62,58.55-26.45"/>
    <path class="ag" d="M110.29,320.82s-.56,25.48,58.57,26.45c.25,0,49.55,1.37,58.86-26.45"/>
  </g>
  <path class="ag" d="M110.12,257.11s-.56,25.48,58.57,26.45c0,0,49.52.62,58.57-26.45"/>
  <g>
    <path class="ag" d="M229.5,287.82s-.56,25.48,58.55,26.45c0,0,49.5.62,58.55-26.45"/>
    <ellipse class="ag" cx="288.03" cy="222.86" rx="58.94" ry="26.45"/>
    <line class="ag" x1="227.85" y1="163.29" x2="227.85" y2="325.45"/>
    <line class="ag" x1="346.75" y1="221.76" x2="346.75" y2="351.28"/>
    <line class="ag" x1="229.35" y1="269.3" x2="229.35" y2="351.25"/>
    <path class="ag" d="M229.53,350.02s-.56,25.48,58.55,26.45c0,0,49.5.62,58.55-26.45"/>
    <path class="ag" d="M229.54,319.68s-.56,25.48,58.57,26.45c.25,0,49.55,1.37,58.86-26.45"/>
  </g>
  <path class="ag" d="M227.57,255.75s-.57,25.9,59.53,26.88c0,0,50.33.63,59.53-26.88"/>
</svg>
