<?xml version='1.0' encoding='UTF-8'?>
<svg xmlns="http://www.w3.org/2000/svg" id="s" data-name="Argent_2 piles" viewBox="0 0 453.54 453.54">
  <defs>
    <style>
      .ag {
        fill: none;
        stroke: #5F1972;
        stroke-linecap: round;
        stroke-linejoin: round;
        stroke-width: 12px;
      }
    </style>
  </defs>
  <g>
    <path class="ag" d="M158.38,291.28s-.56,25.48,58.55,26.45c0,0,49.5.62,58.55-26.45"/>
    <ellipse class="ag" cx="216.91" cy="164.52" rx="58.94" ry="26.45"/>
    <line class="ag" x1="158.15" y1="168.17" x2="158.15" y2="328.91"/>
    <path class="ag" d="M158.4,227.57s-.56,25.48,58.55,26.45c0,0,49.5.62,58.55-26.45"/>
    <path class="ag" d="M158.41,195.71s-.56,25.48,58.57,26.45c0,0,49.52.62,58.57-26.45"/>
    <line class="ag" x1="158.24" y1="272.76" x2="158.24" y2="354.71"/>
    <line class="ag" x1="275.72" y1="164.52" x2="275.72" y2="351.34"/>
    <path class="ag" d="M158.42,353.48s-.56,25.48,58.55,26.45c0,0,49.5.62,58.55-26.45"/>
    <path class="ag" d="M158.43,323.13s-.56,25.48,58.57,26.45c.25,0,49.55,1.37,58.86-26.45"/>
  </g>
  <path class="ag" d="M158.26,259.43s-.56,25.48,58.57,26.45c0,0,49.52.62,58.57-26.45"/>
</svg>
