<?xml version='1.0' encoding='UTF-8'?>
<svg xmlns="http://www.w3.org/2000/svg" id="n" data-name="Cout main d&amp;apos;oeuvre" viewBox="0 0 453.54 453.54">
  <defs>
    <style>
      .ag {
        fill: #fff;
        stroke-miterlimit: 10;
      }

      .ag, .ah, .ai {
        stroke-width: 12px;
      }

      .ag, .ai {
        stroke: #5F1972;
      }

      .ah {
        stroke: #fff;
      }

      .ah, .ai {
        fill: none;
        stroke-linecap: round;
        stroke-linejoin: round;
      }
    </style>
  </defs>
  <path class="ai" d="M105.67,134.16c0-49.11,39.82-88.93,88.93-88.93s88.93,39.82,88.93,88.93-39.8,88.94-88.93,88.94-88.93-39.83-88.93-88.94"/>
  <path class="ai" d="M350.19,384.53c-.99-73.83-61.13-133.4-135.21-133.4h-40.75c-74.08,0-134.21,59.57-135.19,133.4h311.16Z"/>
  <g>
    <circle class="ag" cx="327.01" cy="332" r="88.76"/>
    <g>
      <path class="ah" d="M362.68,364.22c-8.48,8.85-20.43,14.37-33.66,14.37-25.74,0-46.61-20.87-46.61-46.61s20.87-46.61,46.61-46.61c12.27,0,23.44,4.74,31.77,12.5"/>
      <line class="ah" x1="268.85" y1="319.85" x2="346.99" y2="319.85"/>
      <line class="ah" x1="268.85" y1="343.92" x2="346.99" y2="343.92"/>
    </g>
  </g>
  <g>
    <path class="ai" d="M362.68,364.22c-8.48,8.85-20.43,14.37-33.66,14.37-25.74,0-46.61-20.87-46.61-46.61s20.87-46.61,46.61-46.61c12.27,0,23.44,4.74,31.77,12.5"/>
    <line class="ai" x1="268.85" y1="319.85" x2="346.99" y2="319.85"/>
    <line class="ai" x1="268.85" y1="343.92" x2="346.99" y2="343.92"/>
  </g>
</svg>
