<?xml version='1.0' encoding='UTF-8'?>
<svg xmlns="http://www.w3.org/2000/svg" id="v" data-name="Billet et pièces" viewBox="0 0 453.54 453.54">
  <defs>
    <style>
      .ag, .ah, .ai {
        fill: none;
        stroke-linejoin: round;
        stroke-width: 12px;
      }

      .ag, .ai {
        stroke: #5F1972;
      }

      .ah {
        stroke: #5F1972;
      }

      .ah, .ai {
        stroke-linecap: round;
      }

      .aj {
        fill: #fff;
        stroke-width: 0px;
      }
    </style>
  </defs>
  <g>
    <line class="ai" x1="37.05" y1="283.89" x2="301.11" y2="283.89"/>
    <line class="ai" x1="37.05" y1="303.03" x2="301.11" y2="303.03"/>
    <line class="ai" x1="37.05" y1="322.16" x2="301.11" y2="322.16"/>
    <line class="ai" x1="37.05" y1="341.3" x2="301.11" y2="341.3"/>
  </g>
  <g>
    <rect class="ag" x="37.05" y="120.6" width="264.06" height="143.95"/>
    <path class="ag" d="M78.97,241.29h180.78c.25-9.1,7.5-16.45,16.57-16.85v-62.77c-9.22-.4-16.58-8-16.58-17.33,0-.16,0-.32.01-.48H78.97c0,.16.01.32.01.48,0,9.51-7.66,17.23-17.14,17.34v62.74c9.32.11,16.88,7.57,17.13,16.86Z"/>
    <g>
      <path class="ai" d="M196.53,211.44c-4.96,5.18-11.95,8.4-19.69,8.4-15.06,0-27.27-12.21-27.27-27.27s12.21-27.27,27.27-27.27c7.18,0,13.71,2.78,18.58,7.31"/>
      <line class="ai" x1="141.64" y1="185.48" x2="187.35" y2="185.48"/>
      <line class="ai" x1="141.64" y1="199.56" x2="187.35" y2="199.56"/>
    </g>
  </g>
  <g>
    <rect class="aj" x="272.47" y="246.36" width="63.36" height="104.49"/>
    <g>
      <path class="ah" d="M272.97,322.5s-.31,13.92,31.99,14.45c0,0,27.04.34,31.99-14.45"/>
      <ellipse class="ah" cx="304.95" cy="260.81" rx="32.2" ry="14.45"/>
      <line class="ah" x1="272.85" y1="262.51" x2="272.85" y2="342.45"/>
      <line class="ah" x1="337.04" y1="258.98" x2="337.04" y2="320.61"/>
      <path class="ah" d="M272.99,302.33s-.31,13.92,31.99,14.45c0,0,27.04.34,31.99-14.45"/>
      <path class="ah" d="M272.99,281.57s-.31,13.92,32,14.45c0,0,27.05.34,32-14.45"/>
      <line class="ah" x1="337.08" y1="319.75" x2="337.08" y2="342.44"/>
      <path class="ah" d="M273,343.29s-.31,13.92,32,14.45c0,0,27.05.34,32-14.45"/>
    </g>
    <g>
      <ellipse class="ah" cx="370.52" cy="301.74" rx="32.2" ry="14.45"/>
      <line class="ah" x1="338.41" y1="301.59" x2="338.41" y2="342.72"/>
      <line class="ah" x1="402.6" y1="302.58" x2="402.6" y2="342.82"/>
      <path class="ah" d="M338.55,343.26s-.31,13.92,31.99,14.45c0,0,27.04.34,31.99-14.45"/>
      <path class="ah" d="M338.56,322.5s-.31,13.92,32,14.45c0,0,27.05.34,32-14.45"/>
    </g>
  </g>
</svg>
