<?xml version='1.0' encoding='UTF-8'?>
<svg xmlns="http://www.w3.org/2000/svg" id="h" data-name="Justice condamantion" viewBox="0 0 453.54 453.54">
  <defs>
    <style>
      .z {
        fill: none;
      }

      .z, .aa {
        stroke: #144179;
        stroke-linecap: round;
        stroke-linejoin: round;
        stroke-width: 12px;
      }

      .aa {
        fill: #fff;
      }
    </style>
  </defs>
  <polygon class="z" points="144.85 415.06 342.8 415.06 342.8 37.48 69.27 37.48 69.27 339.8 144.85 415.06"/>
  <line class="aa" x1="201.92" y1="365.91" x2="296.77" y2="365.91"/>
  <line class="aa" x1="199.62" y1="314.13" x2="250.75" y2="314.13"/>
  <line class="aa" x1="117.1" y1="91.69" x2="183.63" y2="91.69"/>
  <g>
    <path class="aa" d="M246.14,128.33l29.68,33.08c4.92,5.48,4.46,13.91-1.02,18.83l-9.51,8.53c-3.88,3.48-4.2,9.45-.72,13.34l109.46,121.97c4.92,5.48,4.46,13.91-1.02,18.83l-6.62,5.94c-5.48,4.92-13.91,4.46-18.83-1.02l-109.46-121.97c-3.48-3.88-9.45-4.2-13.34-.72l-9.51,8.53c-5.48,4.92-13.91,4.46-18.83-1.02l-29.68-33.08c-4.92-5.48-4.46-13.91,1.02-18.83l13.37-12c1.73-1.55,1.98-4.24.39-5.94-.03-.03-.07-.07-.1-.11-5-5.46-4.22-14.32,1.29-19.26l5.08-4.56c6.32-5.67,15.21-5.49,20.1.07.03.04.06.07.09.11,1.52,1.76,4.22,1.8,5.95.25l13.37-12c5.48-4.92,13.91-4.46,18.83,1.02Z"/>
    <rect class="aa" x="149.3" y="174.92" width="35.55" height="106.66" rx="14.46" ry="14.46" transform="translate(-109.72 169.97) rotate(-41.91)"/>
    <rect class="aa" x="258.21" y="78.91" width="35.55" height="106.66" rx="14.46" ry="14.46" transform="translate(-17.74 218.15) rotate(-41.91)"/>
  </g>
  <polygon class="z" points="144.95 340.06 144.95 415.06 69.95 340.06 144.95 340.06"/>
</svg>
