<?xml version='1.0' encoding='UTF-8'?>
<svg xmlns="http://www.w3.org/2000/svg" id="i" data-name="Justice maillet" viewBox="0 0 453.54 453.54">
  <defs>
    <style>
      .z {
        fill: none;
        stroke: #144179;
        stroke-miterlimit: 10;
        stroke-width: 12px;
      }
    </style>
  </defs>
  <path class="z" d="M66.98,371.7h150.62c14.08,0,25.51,11.43,25.51,25.51v7.53c0,4.02-3.27,7.29-7.29,7.29H48.76c-4.02,0-7.29-3.27-7.29-7.29v-7.53c0-14.08,11.43-25.51,25.51-25.51Z"/>
  <path class="z" d="M98.59,330.8h87.39c14.83,0,26.88,12.04,26.88,26.88v7.53c0,3.27-2.65,5.92-5.92,5.92H77.64c-3.27,0-5.92-2.65-5.92-5.92v-7.53c0-14.83,12.04-26.88,26.88-26.88Z"/>
  <path class="z" d="M192.59,85.7l44.3,24.06c7.34,3.99,10.06,13.17,6.07,20.51l-6.92,12.74c-2.82,5.2-.9,11.7,4.3,14.53l163.35,88.73c7.34,3.99,10.06,13.17,6.07,20.51l-4.81,8.86c-3.99,7.34-13.17,10.06-20.51,6.07l-163.35-88.73c-5.2-2.82-11.7-.9-14.53,4.3l-6.92,12.74c-3.99,7.34-13.17,10.06-20.51,6.07l-44.3-24.06c-7.34-3.99-10.06-13.17-6.07-20.51l9.73-17.91c1.26-2.31.5-5.29-1.84-6.5-.05-.02-.1-.05-.14-.08-7.42-3.93-9.96-13.69-5.95-21.07l3.69-6.8c4.6-8.46,14.16-11.65,21.5-7.56.05.03.09.05.14.08,2.29,1.3,5.19.32,6.45-2l9.73-17.91c3.99-7.34,13.17-10.06,20.51-6.07Z"/>
  <rect class="z" x="126.12" y="161.53" width="40.33" height="120.98" rx="16.4" ry="16.4" transform="translate(-118.64 244.59) rotate(-61.49)"/>
  <rect class="z" x="206.06" y="20.78" width="40.33" height="120.98" rx="16.4" ry="16.4" transform="translate(46.83 241.27) rotate(-61.49)"/>
</svg>
