<?xml version='1.0' encoding='UTF-8'?>
<svg xmlns="http://www.w3.org/2000/svg" id="g" data-name="Viande" viewBox="0 0 453.54 453.54">
  <defs>
    <style>
      .aa {
        fill: #fff;
      }

      .aa, .ab {
        stroke: #144179;
        stroke-linecap: round;
        stroke-linejoin: round;
        stroke-width: 12px;
      }

      .ac {
        opacity: .99;
      }

      .ab {
        fill: none;
      }
    </style>
  </defs>
  <g>
    <g>
      <g class="ac">
        <g>
          <path class="ab" d="M167.11,282.01c-40.68.78-79.9,4.41-113.77,27.2-9.65,7.21-13.73,14.45-13.52,21.21.29,9.4,8.88,17.88,22.33,24.04,25.83,11,58.31,26.61,85.34,11.58,5.9-3.27,6.42-9.97,9.17-15.49,16.27-26.22,50.25-27.01,77.8-28.61,7.45-1.48,30.18,1.04,28.23-10.47-15.44-26.72-69.3-28.47-95.59-29.47Z"/>
          <path class="ab" d="M40,331.79v34.16c1.31,8.64,9.62,16.39,22.16,22.14,25.83,11,58.31,26.61,85.34,11.58,5.9-3.27,6.42-9.97,9.17-15.49,16.27-26.22,50.25-27.01,77.8-28.61,7.45-1.48,30.18,1.04,28.23-10.47v-33.62"/>
        </g>
      </g>
      <path class="ab" d="M57.3,307.17s66.1,4.74,102.5,38.45"/>
      <path class="ab" d="M109.45,287.19s48.01-2.76,84.74,38.93"/>
      <path class="ab" d="M196.7,283.78s9.75,1.22,48.74,36.8"/>
    </g>
    <ellipse class="ab" cx="115.38" cy="347.05" rx="15.16" ry="8.91"/>
  </g>
  <g>
    <g>
      <line class="ab" x1="223.07" y1="62.58" x2="408.58" y2="373.63"/>
      <circle class="ab" cx="215.6" cy="50.59" r="13.02"/>
    </g>
    <path class="aa" d="M282.81,94.63c7.99,13.4.94,32.32-15.74,42.27-16.68,9.95-36.68,7.15-44.67-6.24-7.99-13.4-.94-32.32,15.74-42.27,16.68-9.95,35.44-9.25,44.67,6.24Z"/>
    <ellipse class="aa" cx="377.05" cy="321.31" rx="30.91" ry="30.02" transform="translate(-111.36 238.49) rotate(-30.81)"/>
    <ellipse class="aa" cx="313.02" cy="213.94" rx="46.89" ry="27.36" transform="translate(-65.4 190.53) rotate(-30.81)"/>
    <polygon class="aa" points="235.39 173.47 314.31 126.4 318.53 157.36 260.62 191.9 235.39 173.47"/>
    <polygon class="aa" points="294.78 273.06 373.7 225.99 382.81 265.14 324.9 299.68 294.78 273.06"/>
  </g>
</svg>
