<?xml version='1.0' encoding='UTF-8'?>
<svg xmlns="http://www.w3.org/2000/svg" id="z" data-name="Verre" viewBox="0 0 453.54 453.54">
  <defs>
    <style>
      .aa {
        fill: #144179;
        stroke-width: 0px;
      }
    </style>
  </defs>
  <path class="aa" d="M318.11,220.59V43.02c0-3.27-2.64-5.91-5.91-5.91h-168c-3.26,0-5.91,2.64-5.91,5.91v177.57c0,47.59,37.16,86.66,84,89.71v99.47l-68.59-.45h-.04c-3.25,0-5.89,2.62-5.91,5.87-.02,3.26,2.61,5.93,5.87,5.95l72.26.48h.02l4.52.03h0l72.09.47h.04c3.24,0,5.88-2.62,5.91-5.87.02-3.27-2.61-5.93-5.87-5.95l-68.49-.45v-99.55c46.84-3.05,84-42.12,84-89.71ZM150.11,48.92h156.19v63.73h-156.19v-63.73ZM228.2,298.68c-43.06,0-78.09-35.03-78.09-78.09v-96.12h156.19v96.12c0,21.52-8.76,41.05-22.9,55.19-14.14,14.15-33.66,22.9-55.19,22.9Z"/>
</svg>
