<?xml version='1.0' encoding='UTF-8'?>
<svg xmlns="http://www.w3.org/2000/svg" id="j" data-name="Légumes_panier" viewBox="0 0 453.54 453.54">
  <defs>
    <style>
      .aa, .ab {
        stroke: #144179;
      }

      .aa, .ab, .ac {
        stroke-linecap: round;
        stroke-linejoin: round;
        stroke-width: 12px;
      }

      .aa, .ac {
        fill: none;
      }

      .ad {
        fill: #144179;
        stroke-width: 0px;
      }

      .ab {
        fill: #fff;
      }

      .ac {
        stroke: #144179;
      }
    </style>
  </defs>
  <g>
    <path class="ac" d="M272.36,241.97l-42,76.77c-9.88,18.05-37.36,6.95-31.96-12.91l32.95-120.21,9.38-34.22c2.76-9.99,13.63-15.34,23.24-11.48l6.84,2.76,27.65,11.2c9.66,3.86,13.74,15.29,8.72,24.39l-34.83,63.69Z"/>
    <line class="ac" x1="231.35" y1="185.62" x2="256.52" y2="198.14"/>
    <line class="ac" x1="250.72" y1="229.93" x2="272.36" y2="241.97"/>
    <line class="ac" x1="270.98" y1="84.23" x2="270.81" y2="142.68"/>
    <line class="ac" x1="314.3" y1="82.52" x2="284.83" y2="145.55"/>
    <line class="ac" x1="345.6" y1="110.83" x2="299.57" y2="151.34"/>
  </g>
  <g>
    <path class="ad" d="M154.94,201.68c-.33-.18-.64-.39-.92-.62.24-.03.48-.07.71-.1.09.24.16.48.21.72Z"/>
    <path class="ad" d="M151.83,195.73c-.03.22-.04.44-.04.67,0-.09,0-.33.01-.72l.03.05Z"/>
    <path class="ad" d="M154.94,201.68c-.33-.18-.64-.39-.92-.62.24-.03.48-.07.71-.1.09.24.16.48.21.72Z"/>
    <path class="ad" d="M151.83,195.73c-.03.22-.04.44-.04.67,0-.09,0-.33.01-.72l.03.05Z"/>
    <path class="ad" d="M154.94,201.68c-.33-.18-.64-.39-.92-.62.24-.03.48-.07.71-.1.09.24.16.48.21.72Z"/>
    <path class="ad" d="M154.94,201.68c-.33-.18-.64-.39-.92-.62.24-.03.48-.07.71-.1.09.24.16.48.21.72Z"/>
    <ellipse class="ab" cx="165.1" cy="277.11" rx="72.66" ry="72.13"/>
    <line class="ab" x1="134.45" y1="177.8" x2="149.45" y2="203.57"/>
    <path class="ab" d="M195.38,160.24s-33.95-5.85-40.44,37.91c0,0,40.37-1.91,40.44-37.91Z"/>
  </g>
  <path class="aa" d="M44.53,226.46c5.17-99.59,87.56-178.75,188.44-178.75s185.18,77.53,188.59,178.75"/>
  <path class="ab" d="M225.41,244.57h199.41s-1,32.89-1,32.89c0,0-14.11,142.4-141.4,142.4h-57s-38.47,0-38.47,0c-127.29,0-141.4-142.4-141.4-142.4l-1-32.89h180.88Z"/>
  <line class="aa" x1="314.3" y1="307.4" x2="377.11" y2="307.4"/>
  <line class="aa" x1="239.28" y1="382.9" x2="302.09" y2="382.9"/>
  <line class="aa" x1="163.97" y1="344.94" x2="226.78" y2="344.94"/>
  <line class="aa" x1="88.66" y1="307.98" x2="151.48" y2="307.98"/>
</svg>
