<?xml version='1.0' encoding='UTF-8'?>
<svg xmlns="http://www.w3.org/2000/svg" id="a" data-name="Brocolis" viewBox="0 0 453.54 453.54">
  <defs>
    <style>
      .aa {
        fill: none;
        stroke: #144179;
        stroke-miterlimit: 10;
        stroke-width: 12px;
      }
    </style>
  </defs>
  <path class="aa" d="M294.24,227.91l-2.44-1.06-22.09,42.4c-.82,1.52-2.45,2.52-4.12,2.52-.07,0-.32,0-.37,0l-.08-.03-.23-.04c-2.06-.33-3.59-1.81-3.98-3.85l-9.44-59.89-3.14,1.07c-6.01,2.04-12.21,3.07-18.43,3.07h-2.93l-6.07,73.71c-.13,1.92-1.43,3.5-3.3,4.08-.41.12-.87.18-1.33.18-1.4,0-2.75-.62-3.61-1.66l-51.77-63.89-1.98.89c-2.36,1.06-4.44,1.87-6.35,2.48l-3.54,1.13,6.99,11.15c10.39,16.45,44.51,72.78,47.21,106.78,2.13,26.38,1.52,42.16.63,50.76l-.18,1.71,1.43.96c3.29,2.22,10.89,5.95,24.92,5.95h0c2.89,0,5.96-.16,9.11-.48,18.57-1.94,26.91-5.28,30.22-7.1l1.55-.85-.06-1.76c-.39-12.44-.95-55.77,8.44-91.13,7.51-28.13,16.95-51.04,21.9-62.2l5.38-11.1-3.29-.85c-3.77-.97-6.48-1.86-9.04-2.97Z"/>
  <path class="aa" d="M344,148.84c-3.41-3.05-7.09-5.55-11-7.45-2-1-2.99-3.45-2.27-5.69,5.86-17.69.86-37.21-12.75-49.71-8.73-8.07-20.07-13-31.9-12.51-20.28.83-25.39,10-30.1,20.99-.74,1.72,1.27-7.93,14.51-20.1l2.77-.63s-2.78-4.98-11.53-13.53-19.97-12.53-31.92-12.53c-13.27,0-25.95,5.58-34.79,15.3l-.27.31c-.68.78-1.46,1.66-2.16,2.57-.86,1.11-2.24,1.77-3.7,1.77-.34,0-.68-.04-1.01-.11-3.73-.82-7.2-1.21-10.61-1.21-13.17,0-25.81,5.53-34.68,15.18-10.66,11.65-14.84,27.71-11.19,42.98l2.51,11.14,2.2.06c5.95.18,21.91,2.54,31.59,3.12,1.26.08-30.08-2.77-35.4-2.77-1.42,0-3,.17-3,.17-9.4,2.1-17.82,6.97-24.37,14.07-8.52,9.27-12.93,21.32-12.41,33.92.52,12.61,5.91,24.25,15.18,32.76,8.73,8.07,20.06,12.51,31.9,12.51,13.23,0,25.91-5.53,34.78-15.18,4.86-5.3,8.4-11.55,10.52-18.59.53-1.72,1.91-3,3.6-3.31l.12-.03c.3-.07.62-.11.94-.11,1.35,0,2.67.63,3.54,1.68,1.51,2.01,3.03,3.7,4.78,5.33,8.79,8.01,20.16,12.42,32.02,12.42,10.86,0,21.52-3.81,30.01-10.74l.14-.11.13-.13c10.83-11.38,19.7-36.22,20.88-36.25.15,0-11.99,26.11-19.26,34.53l-1.32,1.53s15.78,14.52,19.5,17.92c8.66,8,19.99,12.4,31.9,12.4,13.23,0,25.91-5.53,34.78-15.18,8.51-9.29,12.96-21.35,12.51-33.98-.56-12.6-5.94-24.24-15.17-32.8Z"/>
</svg>
