<?xml version='1.0' encoding='UTF-8'?>
<svg xmlns="http://www.w3.org/2000/svg" id="y" data-name="Trinquer" viewBox="0 0 453.54 453.54">
  <defs>
    <style>
      .aa {
        fill: #144179;
        stroke-width: 0px;
      }
    </style>
  </defs>
  <path class="aa" d="M64.49,223.28c-.03.26-.04.52-.03.79-.01-.21-.01-.41.01-.62,0-.06.01-.12.02-.17Z"/>
  <path class="aa" d="M64.49,223.28c-.03.26-.04.52-.03.79-.01-.21-.01-.41.01-.62,0-.06.01-.12.02-.17Z"/>
  <path class="aa" d="M220.93,148.39l-128.99-27.21c-1.56-.33-3.19-.02-4.52.85-1.34.87-2.27,2.24-2.59,3.79l-20.2,96.55c-.03.13-.06.27-.08.4-7.47,36.7,14.59,72.73,49.91,83.24l-17.96,85.26-36.62-7.66c-3.25-.68-6.42,1.4-7.1,4.65-.68,3.24,1.4,6.42,4.64,7.1l85.11,17.8c.42.09.83.13,1.24.13,2.78,0,5.27-1.94,5.86-4.77.68-3.24-1.4-6.42-4.64-7.1l-36.75-7.69,17.98-85.26c2.96.37,5.9.55,8.82.55,33.19,0,63.08-23.16,70.3-56.84.03-.12.05-.24.08-.36.01-.03.01-.07.02-.1l20.13-96.23c.67-3.24-1.4-6.41-4.64-7.1ZM64.46,224.07c-.01-.21-.01-.41.01-.62,0-.06.01-.12.02-.17-.03.26-.04.52-.03.79ZM193.67,249.37c-.03.12-.05.25-.08.37-6.92,32.12-38.62,52.74-70.84,46-15.66-3.27-29.11-12.45-37.87-25.85-7.86-12.02-11.1-26.15-9.31-40.25l123.24-4.84-5.14,24.57ZM201.34,212.69l-123.44,4.85,17.44-83.38,117.25,24.74-11.25,53.79Z"/>
  <path class="aa" d="M252.65,252.52c-.04-.11-.07-.22-.09-.34l-.07-.36c.05.23.1.47.16.7Z"/>
  <path class="aa" d="M393.44,224.07c.01-.27,0-.53-.03-.79,0,.05.02.11.02.17.02.21.02.41.01.62Z"/>
  <path class="aa" d="M393.44,224.07c.01-.27,0-.53-.03-.79,0,.05.02.11.02.17.02.21.02.41.01.62Z"/>
  <path class="aa" d="M405.12,388.26c-.68-3.25-3.86-5.33-7.1-4.65l-36.62,7.66-17.96-85.26c35.32-10.51,57.38-46.54,49.91-83.24-.02-.13-.05-.27-.08-.4l-20.2-96.55c-.32-1.55-1.25-2.92-2.59-3.79-1.33-.87-2.96-1.18-4.52-.85l-128.99,27.21c-3.24.69-5.31,3.86-4.64,7.1l20.16,96.33c.05.23.1.47.16.7,0,.06.02.12.04.18,7.4,33.39,37.15,56.32,70.17,56.32,2.92,0,5.86-.18,8.82-.55l17.98,85.26-36.75,7.69c-3.24.68-5.32,3.86-4.64,7.1.59,2.83,3.08,4.77,5.86,4.77.41,0,.82-.04,1.24-.13l85.11-17.8c3.24-.68,5.32-3.86,4.64-7.1ZM393.43,223.45c.02.21.02.41.01.62.01-.27,0-.53-.03-.79,0,.05.02.11.02.17ZM245.31,158.9l117.25-24.74,17.44,83.38-123.44-4.85-11.25-53.79ZM264.31,249.75c-.03-.13-.05-.25-.08-.38l-5.14-24.57,123.23,4.84c3.87,30.63-16.45,59.68-47.17,66.1-32.22,6.74-63.9-13.88-70.84-45.99Z"/>
  <path class="aa" d="M228.77,112.22c-3.31,0-6-2.69-6-6v-37.8c0-3.31,2.69-6,6-6s6,2.69,6,6v37.8c0,3.31-2.69,6-6,6Z"/>
  <path class="aa" d="M273.19,106.66c-1.54,0-3.08-.59-4.25-1.76-2.34-2.35-2.33-6.15.01-8.49l26.77-26.69c2.35-2.34,6.15-2.33,8.49.01,2.34,2.35,2.33,6.15-.01,8.49l-26.77,26.69c-1.17,1.17-2.7,1.75-4.24,1.75Z"/>
  <path class="aa" d="M186.3,106.66c-1.53,0-3.06-.58-4.24-1.75l-26.77-26.69c-2.35-2.34-2.35-6.14-.01-8.49,2.34-2.35,6.14-2.35,8.49-.01l26.77,26.69c2.35,2.34,2.35,6.14.01,8.49-1.17,1.18-2.71,1.76-4.25,1.76Z"/>
</svg>
