<?xml version='1.0' encoding='UTF-8'?>
<svg xmlns="http://www.w3.org/2000/svg" id="n" data-name="Alimentaire bol" viewBox="0 0 453.54 453.54">
  <defs>
    <style>
      .aa {
        fill: none;
      }

      .aa, .ab {
        stroke: #144179;
        stroke-linecap: round;
        stroke-linejoin: round;
        stroke-width: 12px;
      }

      .ab {
        fill: #fff;
      }
    </style>
  </defs>
  <path class="ab" d="M212.9,220.25s10.72-42.87-16.67-39.3c-27.39,3.57-40.49,21.43-60.73,25.01-20.24,3.57-41.68-14.29-48.82,3.57-7.14,17.86,11.91,29.77,7.14,46.44-4.76,16.67-25.01,35.72-19.05,41.68,5.95,5.95,21.43,14.29,32.15,14.29s105.98-91.69,105.98-91.69Z"/>
  <g>
    <path class="aa" d="M206.93,341.54l99.13-130.84c5.39-7.12,15.79-7.94,22.23-1.75l27.53,26.42c6.44,6.18,6.05,16.6-.84,22.28l-126.66,104.42c-13.66,11.26-32.08-6.41-21.39-20.53Z"/>
    <line class="aa" x1="284.97" y1="238.55" x2="302.54" y2="258.28"/>
    <line class="aa" x1="354.99" y1="163.87" x2="334.43" y2="214.85"/>
    <line class="aa" x1="393.46" y1="177.52" x2="345.67" y2="222.24"/>
    <line class="aa" x1="410.87" y1="213.2" x2="356.53" y2="232.45"/>
  </g>
  <circle class="ab" cx="193.25" cy="291.1" r="73.23"/>
  <circle class="ab" cx="239.69" cy="289.91" r="32.75"/>
  <path class="aa" d="M137.68,66.64c0,13.54-18.66,13.54-18.66,27.09s18.66,13.54,18.66,27.09c0,13.55-18.66,13.55-18.66,27.09,0,13.55,18.66,13.55,18.66,27.09"/>
  <path class="aa" d="M247.23,66.64c0,13.54-18.66,13.54-18.66,27.09,0,13.54,18.66,13.54,18.66,27.09,0,13.55-18.66,13.55-18.66,27.09s18.66,13.55,18.66,27.09"/>
  <path class="ab" d="M346.23,289.6c0,66.59-67.58,120.57-150.93,120.57s-150.93-53.98-150.93-120.57h301.87Z"/>
</svg>
