<?xml version='1.0' encoding='UTF-8'?>
<svg xmlns="http://www.w3.org/2000/svg" id="aj" data-name="Signe musulman" viewBox="0 0 453.54 453.54">
  <defs>
    <style>
      .ap {
        fill: none;
        stroke: #5F1972;
        stroke-miterlimit: 10;
        stroke-width: 12px;
      }
    </style>
  </defs>
  <circle class="ap" cx="222.36" cy="226.31" r="178.87"/>
  <g>
    <path class="ap" d="M264.3,313.37c-47.34,0-85.71-38.37-85.71-85.71s38.37-85.71,85.71-85.71c5.92,0,11.7.6,17.29,1.74-16.24-11.27-35.95-17.89-57.21-17.89-55.51,0-100.51,45-100.51,100.5s45,100.5,100.51,100.5c18.87,0,36.52-5.21,51.61-14.26-3.82.52-7.72.81-11.69.81Z"/>
    <polygon class="ap" points="287.67 215.73 320.83 216.57 294.3 236.48 303.75 268.29 276.61 249.2 249.29 268.02 259.05 236.31 232.7 216.14 265.88 215.62 276.92 184.34 287.67 215.73"/>
  </g>
</svg>
