<?xml version='1.0' encoding='UTF-8'?>
<svg xmlns="http://www.w3.org/2000/svg" id="ag" data-name="Prière mains" viewBox="0 0 453.54 453.54">
  <defs>
    <style>
      .ap {
        fill: none;
        stroke: #5F1972;
        stroke-linecap: round;
        stroke-linejoin: round;
        stroke-width: 12px;
      }
    </style>
  </defs>
  <g>
    <path class="ap" d="M40.95,412.77s32.19-30.77,48.26-52.16c16.07-21.39,25.29-114.28,38.63-149.95,11.73-31.38,63-156.33,63-156.33,0,0,6.56-14.22,22.44-7.16,24.55,10.91-3.33,76.94-3.33,76.94l-15.67,42.89s-18.11,9.78-16.33,53.78c0,0-6,34.76-16.67,59.83"/>
    <polyline class="ap" points="171.17 416.8 183.62 376.55 90.21 361.61"/>
    <path class="ap" d="M194.28,166.99s28.56-8.89,30.72,18.44c2.17,27.47-1.68,114.67-1.68,114.67,0,0-.47,47.11-39.7,76.44"/>
  </g>
  <g>
    <path class="ap" d="M410.28,412.77s-32.19-30.77-48.26-52.16c-16.07-21.39-25.29-114.28-38.63-149.95-11.73-31.38-63-156.33-63-156.33,0,0-6.56-14.22-22.44-7.16-24.55,10.91,3.33,76.94,3.33,76.94l15.67,42.89s18.11,9.78,16.33,53.78c0,0,6,34.76,16.67,59.83"/>
    <polyline class="ap" points="280.06 416.8 267.61 376.55 361.02 361.61"/>
    <path class="ap" d="M256.95,166.99s-28.56-8.89-30.72,18.44c-2.17,27.47,1.68,114.67,1.68,114.67,0,0,.47,47.11,39.7,76.44"/>
  </g>
</svg>
