<?xml version='1.0' encoding='UTF-8'?>
<svg xmlns="http://www.w3.org/2000/svg" id="ab" data-name="Perso homicide" viewBox="0 0 453.54 453.54">
  <defs>
    <style>
      .bu {
        fill: #144179;
      }

      .bu, .bv, .bw {
        stroke: #144179;
        stroke-width: 12px;
      }

      .bu, .bw {
        stroke-miterlimit: 10;
      }

      .bv {
        stroke-linecap: round;
        stroke-linejoin: round;
      }

      .bv, .bw {
        fill: #fff;
      }
    </style>
  </defs>
  <path class="bu" d="M356.83,236.4c5.57,2.99,31,15,20,36-11,21-40,4-62,19-22,15-9.8,38.6-44.8,31.6s-128-78.56-132-109.56,15.42-39.12,38.63-37.43c23.34,1.7,102.64,19.91,180.17,60.39Z"/>
  <g>
    <path class="bv" d="M410.98,167.23l-.78-1.03c-4.47-5.92-12.9-7.1-18.82-2.63l-46.69,34.52-30.82-17.1s-.04-.04-.06-.06l-48.98-40.45c-1.57-1.67-3.57-2.98-5.91-3.73l-57.26-18.51c-.57-.19-1.15-.32-1.73-.43-3.48-.73-7.25-.1-10.4,2.09l-54.63,36.99c-6.1,4.22-7.63,12.59-3.41,18.7l.73,1.06c4.22,6.1,12.59,7.63,18.7,3.41l48.6-32.91,35.72,11.55-66.33,80.32-50.02,1.83c-4.92.18-9.32,2.24-12.58,5.45-.56.42-1.1.87-1.61,1.36l-57.44,54.59c-7.57,7.19-7.88,19.17-.68,26.74h0c7.19,7.57,19.17,7.88,26.74.68l53.96-51.28,67.61-2.48c1.28-.05,2.51-.22,3.71-.51l-50.55,107.26c-4.45,9.45-.4,20.72,9.04,25.17,9.45,4.45,20.72.4,25.17-9.04l47.33-100.41.17.14,74.75-90.51,33.76,18.73c3.55,1.97,7.58,2.23,11.16,1.07,2.07-.34,4.09-1.17,5.88-2.52l53.05-39.22c5.92-4.47,7.1-12.9,2.63-18.82Z"/>
    <circle class="bw" cx="324.2" cy="117.66" r="35.09" transform="translate(-9.71 31.31) rotate(-5.45)"/>
  </g>
</svg>
