<?xml version='1.0' encoding='UTF-8'?>
<svg xmlns="http://www.w3.org/2000/svg" id="bl" data-name="Violence attouchement" viewBox="0 0 453.54 453.54">
  <defs>
    <style>
      .bu {
        stroke-width: 12px;
      }

      .bu, .bv {
        fill: none;
        stroke: #144179;
        stroke-linecap: round;
        stroke-linejoin: round;
      }

      .bv {
        stroke-width: 13px;
      }
    </style>
  </defs>
  <path class="bv" d="M378.17,196.94c3.6,63.46,4.28,115.5-28.61,212.06H85.11S-5.16,182.67,112.64,88.89h175.19"/>
  <polygon class="bv" points="317.33 58.22 112.64 58.22 112.64 88.89 287.83 88.89 317.33 58.22"/>
  <path class="bv" d="M219.33,409s-1.33-64.67-4-91.06c0,0,20,28.73,97.78,16.73"/>
  <path class="bv" d="M184.22,328.4s-24.85,12.74-65.98-5.16"/>
  <path class="bv" d="M94,166.67l64,12.89s-14.22,46.67-16.44,63.11c0,0-17.33,12.44-39.56,19.56,0,0-22.67-26.15-25.33-34.63,0,0-.44-37.37,17.33-60.92Z"/>
  <path class="bu" d="M291.29,222.33l-63.13,73.94c-4.97,6.16-14.07,7.14-20.24,2.17h0c-6.16-4.97-7.14-14.07-2.17-20.24l59.79-76.2"/>
  <path class="bu" d="M265.54,202.01l-51.78,59.88c-4.97,6.16-14.07,7.14-20.24,2.17h0c-6.16-4.97-7.14-14.07-2.17-20.24l49.96-61.95"/>
  <path class="bu" d="M330.75,220.94l-58.1,72.04c-4.97,6.16-14.07,7.14-20.24,2.17h0c-6.16-4.97-7.14-14.07-2.17-20.24l41.04-52.58"/>
  <path class="bu" d="M309.11,248s-3.11,31.56,16.89,31.56l40-51.96s20.04-40.45,20-92.48c-.01-17.11,13.33-26.67,28.25-43.11"/>
  <path class="bu" d="M241.33,181.87l-33.35,38.49c-4.97,6.16-14.07,7.14-20.24,2.17h0c-6.16-4.97-7.14-14.07-2.17-20.24l40.47-50.18.73-.9s85.01-83.21,93.45-95.21"/>
</svg>
