<?xml version='1.0' encoding='UTF-8'?>
<svg xmlns="http://www.w3.org/2000/svg" id="bd" data-name="Perso assis" viewBox="0 0 453.54 453.54">
  <defs>
    <style>
      .ca {
        fill: #5F1972;
      }

      .ca, .cb {
        stroke-width: 0px;
      }

      .cb {
        fill: #5F1972;
      }
    </style>
  </defs>
  <circle class="ca" cx="301.35" cy="82.21" r="41.91"/>
  <path class="cb" d="M274.95,134.68l-.97-2.71c.36.89.69,1.8.97,2.71Z"/>
  <path class="cb" d="M316.8,238.61c.04.14.07.29.1.43-.06-.27-.13-.55-.21-.82-.06-.22-.13-.45-.2-.67-.05-.19-.11-.38-.18-.56-.08-.23-.16-.45-.25-.67-.06-.17-.12-.33-.19-.48-.1-.26-.21-.51-.33-.76-.24-.54-.51-1.05-.8-1.56-.15-.28-.32-.55-.49-.81-.16-.27-.33-.53-.52-.79-.17-.26-.36-.51-.55-.76s-.38-.5-.59-.74c-.4-.48-.83-.95-1.27-1.39-2.08-2.08-4.6-3.73-7.4-4.79-.04-.02-.08-.03-.12-.05v-.03s.09.03.13.05c6.12,2.29,10.85,7.38,12.68,13.7,0,.01.01.02.01.02.07.23.13.46.18.68Z"/>
  <path class="cb" d="M317.43,242.76c-.03-.66-.1-1.31-.19-1.95.09.64.16,1.29.19,1.95Z"/>
  <path class="ca" d="M316.69,238.22c.08.27.15.55.21.82-.03-.14-.06-.29-.1-.43-.04-.13-.07-.26-.11-.39ZM316.61,237.91c-.04-.12-.08-.24-.12-.36.07.22.14.45.2.67-.02-.09-.05-.19-.07-.29,0,0-.01-.01-.01-.02Z"/>
  <path class="ca" d="M304.13,223.29l25.93-69.5c3.32-8.9-1.2-18.8-10.1-22.12-8.89-3.31-18.79,1.21-22.11,10.1l-10.3,27.63s-.08.04-.09,0l-12.49-34.7v-.02s-.98-2.71-.98-2.71c-.92-2.29-2.06-4.5-3.41-6.6-2.42-3.78-5.54-7.2-9.32-10.08-17.39-13.25-42.22-9.89-55.46,7.5l-57.27,75.18c-14.34,18.82-10.71,45.71,8.12,60.06,7.62,5.8,16.8,8.13,25.64,7.24,2.61-.26,5.23-.48,7.85-.48h85.38s.05.02.05.05v108.83c0,11.39,8.85,21.11,20.23,21.49,11.9.4,21.67-9.13,21.67-20.94v-130.38c0-.36-.01-.72-.03-1.08-.04-.67-.1-1.33-.2-1.98-.03-.26-.07-.52-.13-.77-.01-.11-.04-.22-.06-.33-.01-.03-.01-.06-.02-.09-.04-.19-.08-.37-.12-.55-.06-.27-.13-.55-.21-.82-.06-.22-.13-.45-.2-.67-.05-.19-.11-.38-.18-.56-.08-.23-.16-.45-.25-.67-.06-.17-.12-.33-.19-.48-.1-.26-.21-.51-.33-.76-.24-.54-.51-1.05-.8-1.56-.16-.27-.32-.54-.49-.81-.16-.27-.34-.53-.52-.79s-.36-.51-.55-.76-.39-.5-.59-.74c-.4-.48-.83-.95-1.27-1.39-2.08-2.08-4.6-3.73-7.4-4.79-.04-.02-.08-.03-.12-.05v-.03s.33-.87.33-.87ZM229.1,222.81l26.21-34.42s.07-.02.09.01l12.39,34.42s-.01.07-.05.07h-38.6s-.06-.05-.04-.08Z"/>
  <path class="cb" d="M273.98,131.97c-.92-2.29-2.06-4.5-3.41-6.6,1.2,1.47,2.17,3.17,2.85,5.05l.56,1.55Z"/>
  <path class="cb" d="M304.13,223.29c-.05.31-.13.62-.2.92-.01.01-.01.02-.01.03-.04-.02-.08-.03-.12-.05v-.03s.33-.87.33-.87Z"/>
  <path class="ca" d="M260.26,284.2c0,6.35-5.15,11.5-11.5,11.5h-7.34v110.02c0,6.35-5.15,11.5-11.5,11.5s-11.5-5.15-11.5-11.5v-110.02h-79.25v110.02c0,6.35-5.15,11.5-11.5,11.5s-11.5-5.15-11.5-11.5v-110.02h-3.28c-6.35,0-11.5-5.15-11.5-11.5v-135.63c0-6.35,5.15-11.5,11.5-11.5s11.5,5.15,11.5,11.5v124.13h124.37c6.35,0,11.5,5.15,11.5,11.5Z"/>
</svg>
