<?xml version='1.0' encoding='UTF-8'?>
<svg xmlns="http://www.w3.org/2000/svg" id="g" data-name="Population1" viewBox="0 0 453.54 453.54">
  <defs>
    <style>
      .ca {
        fill: #fff;
        stroke: #5F1972;
        stroke-linecap: round;
        stroke-linejoin: round;
        stroke-width: 12px;
      }
    </style>
  </defs>
  <g>
    <path class="ca" d="M346,226.04c0-11.66,9.46-21.12,21.12-21.12s21.12,9.46,21.12,21.12-9.45,21.12-21.12,21.12-21.12-9.46-21.12-21.12"/>
    <path class="ca" d="M411.23,298.22c-.28-20.93-17.33-37.82-38.33-37.82h-11.55c-21,0-38.05,16.89-38.32,37.82h88.21Z"/>
  </g>
  <g>
    <path class="ca" d="M70.66,226.04c0-11.66,9.46-21.12,21.12-21.12s21.12,9.46,21.12,21.12-9.45,21.12-21.12,21.12-21.12-9.46-21.12-21.12"/>
    <path class="ca" d="M135.89,298.22c-.28-20.93-17.33-37.82-38.33-37.82h-11.55c-21,0-38.05,16.89-38.32,37.82h88.21Z"/>
  </g>
  <g>
    <path class="ca" d="M278.78,213.16c0-13.75,11.14-24.89,24.89-24.89s24.89,11.14,24.89,24.89-11.14,24.89-24.89,24.89-24.89-11.15-24.89-24.89"/>
    <path class="ca" d="M355.64,298.22c-.33-24.66-20.42-44.56-45.17-44.56h-13.61c-24.75,0-44.83,19.9-45.16,44.56h103.94Z"/>
  </g>
  <g>
    <path class="ca" d="M126.37,213.16c0-13.75,11.14-24.89,24.89-24.89s24.89,11.14,24.89,24.89-11.14,24.89-24.89,24.89-24.89-11.15-24.89-24.89"/>
    <path class="ca" d="M203.23,298.22c-.33-24.66-20.42-44.56-45.17-44.56h-13.61c-24.75,0-44.83,19.9-45.16,44.56h103.94Z"/>
  </g>
  <g>
    <path class="ca" d="M198.63,199.73c0-15.92,12.9-28.82,28.82-28.82s28.82,12.9,28.82,28.82-12.9,28.82-28.82,28.82-28.82-12.91-28.82-28.82"/>
    <path class="ca" d="M287.63,298.22c-.38-28.56-23.65-51.6-52.3-51.6h-15.76c-28.65,0-51.91,23.04-52.29,51.6h120.36Z"/>
  </g>
</svg>
