<?xml version='1.0' encoding='UTF-8'?>
<svg xmlns="http://www.w3.org/2000/svg" id="am" data-name="Pauvre H" viewBox="0 0 453.54 453.54">
  <defs>
    <style>
      .ca {
        fill: #5F1972;
        stroke-width: 0px;
      }
    </style>
  </defs>
  <circle class="ca" cx="227.08" cy="73.04" r="34.94" transform="translate(14.86 181.96) rotate(-45)"/>
  <path class="ca" d="M269.3,156.61l27.51,16.22,5.11,42.27c.82,6.77,6.96,11.59,13.73,10.77l1.18-.14c6.77-.82,11.59-6.96,10.77-13.73l-5.9-48.81c-.53-4.39-3.32-7.96-7.05-9.7-.48-.38-.98-.75-1.52-1.07l-47.59-28.07c-.98-.58-2.01-1-3.06-1.3-.67-.23-1.37-.39-2.1-.47h-.66c-.53-.03-1.07-.04-1.6,0h-8.01c-1.59.18-3.09.82-4.31,1.86l-10.03,8.78c-4.89,4.15-12.06,4.15-16.95,0l-10.03-8.78c-1.22-1.03-2.72-1.67-4.31-1.86h-8.09c-.53-.04-1.06-.03-1.6,0h-.98c-1.37.15-2.66.58-3.81,1.22-.35.17-.69.34-1.03.54l-47.59,28.07c-.54.32-1.04.68-1.52,1.07-3.74,1.74-6.52,5.3-7.05,9.7l-5.9,48.81c-.82,6.77,4,12.91,10.77,13.73l1.18.14c6.77.82,12.91-4,13.73-10.77l5.11-42.27,27.18-16.03v75.99l-48.01-6.86,48.01,37.42v134.04c0,10.4,8.43,18.83,18.83,18.83h0c10.4,0,18.83-8.43,18.83-18.83v-131.29h9.11v131.29c0,10.4,8.43,18.83,18.83,18.83s18.83-8.43,18.83-18.83v-133.79l48.34-37.67-48.34,6.91v-76.23Z"/>
</svg>
