<?xml version='1.0' encoding='UTF-8'?>
<svg xmlns="http://www.w3.org/2000/svg" id="ae" data-name="Famille FF" viewBox="0 0 453.54 453.54">
  <defs>
    <style>
      .ca {
        fill: #5F1972;
        stroke-width: 0px;
      }
    </style>
  </defs>
  <circle class="ca" cx="378.69" cy="240.71" r="23.36"/>
  <path class="ca" d="M391.49,412.42h-25.53c-3,0-5.49-1.56-5.72-3.57l-7.31-65.28,7.19-47.98c.3-1.97,2.76-3.47,5.7-3.47h25.79c2.95,0,5.42,1.51,5.71,3.49l6.9,48.19-7.01,65.04c-.22,2.02-2.71,3.58-5.72,3.58Z"/>
  <path class="ca" d="M413.28,345.55l-35,10.04-34.26-10.02c-1.8-.53-3.04-2.18-3.04-4.06l7.71-44.58c2.31-13.34,13.88-23.09,27.43-23.09h5.6c13.66,0,25.3,9.91,27.48,23.39l7.15,44.26c0,1.89-1.25,3.54-3.06,4.06Z"/>
  <g>
    <circle class="ca" cx="99.92" cy="126.27" r="35.21"/>
    <path class="ca" d="M119.22,414.26h-38.48c-4.52,0-8.28-2.7-8.62-6.2l-11.02-113.47,10.83-83.39c.44-3.43,4.16-6.03,8.6-6.03h38.87c4.45,0,8.17,2.62,8.6,6.06l10.4,83.77-10.57,113.05c-.33,3.51-4.09,6.22-8.62,6.22Z"/>
    <path class="ca" d="M154.56,298.03l-55.24,17.44-53.68-17.42c-2.72-.92-4.58-3.79-4.58-7.05l13.14-78.55c3.77-22.55,23.29-39.08,46.16-39.08h0c22.97,0,42.54,16.67,46.2,39.34l12.63,78.25c0,3.28-1.88,6.16-4.61,7.06Z"/>
  </g>
  <g>
    <circle class="ca" cx="250.22" cy="126.27" r="35.21"/>
    <path class="ca" d="M269.52,414.26h-38.48c-4.52,0-8.28-2.7-8.62-6.2l-11.02-113.47,10.83-83.39c.44-3.43,4.16-6.03,8.6-6.03h38.87c4.45,0,8.17,2.62,8.6,6.06l10.4,83.77-10.57,113.05c-.33,3.51-4.09,6.22-8.62,6.22Z"/>
    <path class="ca" d="M304.85,298.03l-55.24,17.44-53.68-17.42c-2.72-.92-4.58-3.79-4.58-7.05l13.14-78.55c3.77-22.55,23.29-39.08,46.16-39.08h0c22.97,0,42.54,16.67,46.2,39.34l12.63,78.25c0,3.28-1.88,6.16-4.61,7.06Z"/>
  </g>
</svg>
