<?xml version='1.0' encoding='UTF-8'?>
<svg xmlns="http://www.w3.org/2000/svg" id="bx" data-name="Pousette" viewBox="0 0 453.54 453.54">
  <defs>
    <style>
      .ca {
        fill: #5F1972;
        stroke-width: 0px;
      }
    </style>
  </defs>
  <path class="ca" d="M400.28,107.55c-13.57-13.57-35.19-14.87-50.31-2.98l-224.4,179.1-8.15,5.98c-9.72,7.12-15.52,18.56-15.52,30.6v17.99c0,.96.22,1.86.63,2.66-17.86,2.6-31.62,18.02-31.62,36.6,0,20.4,16.59,36.99,36.99,36.99s36.99-16.59,36.99-36.99c0-18.58-13.76-34-31.62-36.6.41-.8.63-1.7.63-2.66v-17.99c0-8.23,3.97-16.05,10.61-20.92l5.77-4.23,82.98,27.17c4.73,1.55,9.61,2.32,14.46,2.32,7.03,0,14.02-1.62,20.49-4.81,8.95-4.42,16.1-11.46,20.61-20.18l19.32,44.91c-12.02,6.11-20.27,18.6-20.27,32.99,0,20.4,16.59,36.99,36.99,36.99s36.99-16.59,36.99-36.99-16.59-36.99-36.99-36.99c-1.77,0-3.51.12-5.21.37l-23.58-54.81c-.32-.75-.78-1.4-1.34-1.94l50.15-143.03c.16-.46.26-.93.31-1.39l32.23-25.73c10.31-8.11,25.09-7.23,34.37,2.05,4.9,4.9,7.6,11.42,7.6,18.35s-2.7,13.44-7.6,18.34l-8.73,8.74c-2.34,2.34-2.34,6.14,0,8.48,2.34,2.34,6.14,2.34,8.48,0l8.74-8.73c7.16-7.17,11.11-16.7,11.11-26.83s-3.95-19.67-11.11-26.83ZM132.89,377.5c0,13.78-11.21,24.99-24.99,24.99s-24.99-11.21-24.99-24.99,11.21-24.99,24.99-24.99,24.99,11.21,24.99,24.99ZM304.86,352.51c13.78,0,24.99,11.21,24.99,24.99s-11.21,24.99-24.99,24.99-24.99-11.21-24.99-24.99,11.21-24.99,24.99-24.99ZM260.11,289.58c-6.14,17.51-25.48,27.06-43.12,21.28l-75.34-24.66,166.14-132.61-47.68,135.99Z"/>
  <path class="ca" d="M227.78,169.5c-20.4,0-36.99-16.6-36.99-36.99s16.6-36.99,36.99-36.99,36.99,16.6,36.99,36.99-16.59,36.99-36.99,36.99ZM227.78,107.52c-13.78,0-24.99,11.21-24.99,24.99s11.21,24.99,24.99,24.99,24.99-11.21,24.99-24.99-11.21-24.99-24.99-24.99Z"/>
  <path class="ca" d="M60.83,307.11c-4.82,0-9.62-1.67-13.55-5-4.74-4.02-7.45-9.88-7.43-16.1.02-6.21,2.77-12.06,7.54-16.04l52.15-43.51c10.84-9.05,25.89-11.84,39.26-7.3h0c6.14,2.08,10.59,7.35,11.63,13.75,1.04,6.4-1.53,12.8-6.7,16.71l-70.22,53.2c-3.79,2.87-8.24,4.29-12.68,4.29ZM125.74,229.01c-6.68,0-13.29,2.3-18.52,6.67l-52.15,43.51c-2.04,1.71-3.22,4.21-3.23,6.87,0,2.66,1.15,5.18,3.18,6.9,3.24,2.74,7.86,2.86,11.24.3l70.22-53.2c2.37-1.79,2.25-4.26,2.1-5.23-.16-.98-.83-3.35-3.64-4.3h0c-2.99-1.02-6.1-1.51-9.19-1.51Z"/>
</svg>
