<?xml version='1.0' encoding='UTF-8'?>
<svg xmlns="http://www.w3.org/2000/svg" id="p" data-name="Senior femme" viewBox="0 0 453.54 453.54">
  <defs>
    <style>
      .ca {
        fill: none;
        stroke: #5F1972;
        stroke-linecap: round;
        stroke-linejoin: round;
        stroke-width: 12px;
      }
    </style>
  </defs>
  <path class="ca" d="M230.73,266.92c-66.49,0-72.09-61.08-72.09-61.08,0,0-14.66-6.93-14.72-19.09-.07-15.09,14.98-18.92,14.98-18.92,0,0-2.96-40.74,8.15-53.09l63.38.56s14.15-4.51,14.93-16.76c.44-6.9.79-16.13-17.61-21.92,0,0,82,0,73.93,91.46,0,0,14.87,1.84,14.64,17.87,0,0,.41,16.1-14.64,19.88,0,0-4.47,61.08-70.96,61.08Z"/>
  <path class="ca" d="M176.25,250.87s-50.2,9.72-68.07-40.21c0,0-.61-19.51-11.56-24.18-10.95-4.67-25.5-39.95,3.67-62.55,0,0,11.04-6.83,9.99-23.65-1.05-16.82,17.08-35.54,49.67-37.06,0,0,24.44.26,31.01-8.15,6.57-8.41,42.84-21.03,78.85,0,0,0,7.85,9.99,30.22,8.94,22.38-1.05,46.52,14.72,51.25,38.37,0,0-1.84,14.98,10.78,23.13,12.62,8.15,29.17,42.84,0,61.76,0,0-13.67,5.52-12.09,20.76,1.58,15.24-20.24,47.83-64.65,41.53"/>
  <path class="ca" d="M84.43,408.22h295.92s7.15-118.54-115.91-118.54l-.13.26c-13.53,25.74-50.44,25.6-63.76-.26h0s-116.44-.73-116.12,118.54Z"/>
  <g>
    <ellipse class="ca" cx="193.14" cy="169.81" rx="26.08" ry="21.74"/>
    <ellipse class="ca" cx="267.03" cy="169.81" rx="26.08" ry="21.74"/>
    <path class="ca" d="M219,166.19c0-3.39,4.9-6.15,10.95-6.15s10.95,2.75,10.95,6.15"/>
  </g>
</svg>
