<?xml version='1.0' encoding='UTF-8'?>
<svg xmlns="http://www.w3.org/2000/svg" id="bk" data-name="Perso mendiant" viewBox="0 0 453.54 453.54">
  <defs>
    <style>
      .ca {
        fill: #5F1972;
        stroke-width: 0px;
      }
    </style>
  </defs>
  <path class="ca" d="M231.69,146.27c-23.79,0-43.15,19.36-43.15,43.15,0,.62.07,1.22.09,1.83.09,2.03.29,4.03.65,5.97.99,5.41,3.01,10.46,5.82,14.96,7.63,12.21,21.15,20.38,36.58,20.38,11.31,0,21.59-4.41,29.3-11.56,7.76-7.2,12.86-17.19,13.69-28.37.03-.41.04-.83.06-1.24.03-.66.1-1.31.1-1.97,0-23.79-19.36-43.15-43.15-43.15Z"/>
  <path class="ca" d="M278.61,306.44c-.52-1.13-1.12-2.22-1.83-3.24-.73-1.06-1.54-2.04-2.44-2.95-2.93-2.95-6.7-5.07-10.92-5.93-1.4-.29-2.84-.44-4.32-.44s-2.93.15-4.32.44c-5,1.03-9.36,3.81-12.44,7.65-.92,1.15-1.72,2.4-2.39,3.73-.6,1.19-1.1,2.43-1.47,3.73-.54,1.88-.85,3.86-.85,5.92v73.71c0,11.84,9.63,21.47,21.47,21.47s21.47-9.63,21.47-21.47v-73.71c0-3.18-.71-6.19-1.96-8.91Z"/>
  <path class="ca" d="M217.06,304.04c-.47-1.32-1.07-2.59-1.78-3.78-.81-1.36-1.77-2.63-2.85-3.78-.74-.78-1.54-1.51-2.39-2.18-3.64-2.85-8.22-4.56-13.19-4.56s-9.55,1.72-13.19,4.56c-.52.4-1.01.83-1.49,1.28-.91.85-1.74,1.78-2.48,2.78-.06.07-.11.15-.17.22-.74,1.02-1.39,2.1-1.95,3.24.13.07.27.13.41.2-.39.64-.81,1.24-1.26,1.82-.84,2.3-1.33,4.77-1.33,7.37v77.84c0,11.84,9.63,21.47,21.47,21.47s21.47-9.63,21.47-21.47v-77.84c0-2.52-.46-4.93-1.26-7.18Z"/>
  <g>
    <path class="ca" d="M307.96,287.73l-14.25-79.9c-1.31-7.34-6.27-12.84-12.37-14.68-.03.46-.03.92-.07,1.38-1.41,13.83-8.53,25.97-18.93,34.11-8.47,6.63-19.09,10.63-30.66,10.63-15.23,0-28.86-6.88-38.01-17.68-6.63-7.82-10.86-17.71-11.65-28.54-.26-.07-.5-.16-.77-.21h0c-.93-.2-1.86-.3-2.78-.33-8.28-.31-15.78,6.04-17.44,15.34l-14.25,79.9c-1.84,10.33,4.22,20.35,13.55,22.39,2.73.6,5.43.43,7.93-.35.22-4.42,1.41-8.58,3.42-12.25.61-1.12,1.32-2.18,2.08-3.21h.09s-.03-.04-.05-.06c.77-1.05,1.6-2.05,2.51-2.98,1.7-1.75,3.63-3.27,5.73-4.55,4.33-2.62,9.38-4.16,14.8-4.16,6.1,0,11.75,1.93,16.4,5.19,1.39.98,2.71,2.06,3.9,3.27,1.01,1.02,1.92,2.12,2.77,3.28.52.7,1,1.43,1.45,2.18h.93c.34,0,.65-.07.98-.1,2.31-.17,4.46-.88,6.3-2.08,3.69-2.4,6.15-6.54,6.15-11.26,0-2.98-1.01-5.71-2.65-7.94-.93-1.26-2.05-2.37-3.35-3.24-1.51-1-3.24-1.69-5.09-2.02-.76-.13-1.54-.24-2.34-.24h-35.44c-.61,0-1.2.1-1.79.18l.7-3.9.68-3.81c.14,0,.28-.02.42-.02h35.44c5.43,0,10.36,2.09,14.09,5.48h31.49c.48,0,.94.04,1.41.07l.68,3.8.69,3.89c-.9-.19-1.82-.29-2.78-.29h-26.21c1.03,2.48,1.61,5.19,1.61,8.04,0,3.91-1.1,7.57-2.97,10.71,5.03-4.39,11.59-7.07,18.78-7.07,5.2,0,10.07,1.42,14.29,3.85,1.84,1.06,3.54,2.33,5.1,3.76.34.31.68.61,1,.93.93.94,1.77,1.96,2.56,3.02.79,1.06,1.53,2.15,2.16,3.31,1.42,2.59,2.45,5.42,3.02,8.41,2.29.59,4.73.67,7.19.13,9.32-2.04,15.39-12.07,13.55-22.39Z"/>
    <path class="ca" d="M239.99,294.31c.12-.18.22-.36.33-.55-.21.18-.4.36-.6.55h.27Z"/>
    <path class="ca" d="M176.71,303.85c.45-.58.88-1.18,1.26-1.82-.14-.06-.27-.13-.41-.2-.32.65-.6,1.33-.86,2.01Z"/>
  </g>
</svg>
