<?xml version='1.0' encoding='UTF-8'?>
<svg xmlns="http://www.w3.org/2000/svg" id="ab" data-name="Buste homme jeune" viewBox="0 0 453.54 453.54">
  <defs>
    <style>
      .ca {
        fill: none;
        stroke: #5F1972;
        stroke-linecap: round;
        stroke-linejoin: round;
        stroke-width: 12px;
      }
    </style>
  </defs>
  <path class="ca" d="M50.59,412.88h348.79s5.83-139.71-139.22-139.71l-.19.39c-14.23,29.08-55.76,28.84-69.67-.39h0s-140.1-.86-139.71,139.71Z"/>
  <path class="ca" d="M144.59,170.39c0,44.77,36.3,81.07,81.07,81.07s77.96-33.27,80.87-75.39"/>
  <path class="ca" d="M146.24,186.75s-22.71-8.47-16.57-40.43c2.45-12.33,6.42-13.75,6.42-13.75,0,0-47.27-69.32-1.98-107.67,0,0,6.62,40.99,41.65,40.99s101.81-46.28,120.32,20.97c0,0,79.99,10.1,9,99.89,0,0,12.63-50.12-18.25-50.12,0,0-10.75,2.47-36.36-23.14,0,0-47.64,53.3-105.87,50.88l1.65,22.38Z"/>
</svg>
