<?xml version='1.0' encoding='UTF-8'?>
<svg xmlns="http://www.w3.org/2000/svg" id="ac" data-name="Buste homme" viewBox="0 0 453.54 453.54">
  <defs>
    <style>
      .ca {
        fill: none;
        stroke: #5F1972;
        stroke-linecap: round;
        stroke-linejoin: round;
        stroke-width: 12px;
      }
    </style>
  </defs>
  <path class="ca" d="M250.92,133.42s-48.13-15.67,14.53,27.63c0,0-65.69,1.1-95.68-56.69,0,0-19.8,13.49-27.61,47.11l-2.44-2.91s-15.08-19.01-4.98-35.38c10.1-16.37,18.62-37.34,18.62-37.34,0,0,23.53-42.15,60.82-36.81,0,0,35.61,4.25,40.01,6.59,0,0,51.39,17.14,51.53,23.77,0,0,25.66,38.77,23.94,54.51s-12.37,29.33-12.37,29.33l-66.37-19.81Z"/>
  <path class="ca" d="M56.57,412.54h348.79s5.83-139.71-139.22-139.71l-.19.39c-14.23,29.08-55.76,28.84-69.67-.39h0s-140.1-.86-139.71,139.71Z"/>
  <path class="ca" d="M317.17,155.35c-3.12,45.11-40.71,80.74-86.62,80.74s-86.82-38.87-86.82-86.82"/>
</svg>
