<?xml version='1.0' encoding='UTF-8'?>
<svg xmlns="http://www.w3.org/2000/svg" id="at" data-name="Couple FF" viewBox="0 0 453.54 453.54">
  <defs>
    <style>
      .ca {
        fill: #5F1972;
        stroke-width: 0px;
      }
    </style>
  </defs>
  <g>
    <circle class="ca" cx="307.92" cy="78.08" r="41.26"/>
    <path class="ca" d="M330.54,415.62h-45.1c-5.3,0-9.7-3.17-10.1-7.27l-12.91-132.99,12.7-97.74c.52-4.01,4.88-7.07,10.08-7.07h45.56c5.22,0,9.58,3.08,10.08,7.1l12.19,98.18-12.39,132.5c-.38,4.11-4.79,7.29-10.1,7.29Z"/>
    <path class="ca" d="M371.96,279.39l-64.75,20.44-62.92-20.42c-3.18-1.07-5.37-4.44-5.37-8.27l15.4-92.06c4.42-26.43,27.3-45.8,54.1-45.8h0c26.92,0,49.86,19.54,54.15,46.11l14.8,91.71c0,3.84-2.21,7.22-5.41,8.28Z"/>
  </g>
  <g>
    <circle class="ca" cx="144.23" cy="78.08" r="41.26"/>
    <path class="ca" d="M166.85,415.62h-45.1c-5.3,0-9.7-3.17-10.1-7.27l-12.91-132.99,12.7-97.74c.52-4.01,4.88-7.07,10.08-7.07h45.56c5.22,0,9.58,3.08,10.08,7.1l12.19,98.18-12.39,132.5c-.38,4.11-4.79,7.29-10.1,7.29Z"/>
    <path class="ca" d="M208.26,279.39l-64.75,20.44-62.92-20.42c-3.18-1.07-5.37-4.44-5.37-8.27l15.4-92.06c4.42-26.43,27.3-45.8,54.1-45.8h0c26.92,0,49.86,19.54,54.15,46.11l14.8,91.71c0,3.84-2.21,7.22-5.41,8.28Z"/>
  </g>
</svg>
