<?xml version='1.0' encoding='UTF-8'?>
<svg xmlns="http://www.w3.org/2000/svg" id="az" data-name="Population HF" viewBox="0 0 453.54 453.54">
  <defs>
    <style>
      .ca {
        fill: #5F1972;
        stroke-width: 0px;
      }
    </style>
  </defs>
  <g>
    <circle class="ca" cx="157.87" cy="123.87" r="28.86"/>
    <circle class="ca" cx="293.42" cy="123.87" r="28.86"/>
  </g>
  <g>
    <circle class="ca" cx="92.64" cy="181.56" r="28.86"/>
    <path class="ca" d="M108.46,418.55h-31.54c-3.7,0-6.78-2.22-7.06-5.08l-9.03-93,8.88-68.35c.36-2.81,3.41-4.94,7.05-4.94h31.86c3.65,0,6.7,2.15,7.05,4.97l8.53,68.66-8.67,92.66c-.27,2.87-3.35,5.1-7.06,5.1Z"/>
    <path class="ca" d="M133.33,322.42l-41.18,14.12-39.77-14.1c-2.47-.88-4.18-3.16-4.32-5.78l-3.59-67.27c-.85-15.94,11.84-29.33,27.8-29.33h40.98c15.92,0,28.6,13.32,27.81,29.22l-3.34,67.3c-.13,2.65-1.87,4.96-4.38,5.82Z"/>
  </g>
  <g>
    <circle class="ca" cx="358.83" cy="181.56" r="28.86"/>
    <path class="ca" d="M374.64,418.55h-31.54c-3.7,0-6.78-2.22-7.06-5.08l-9.03-93,8.88-68.35c.36-2.81,3.41-4.94,7.05-4.94h31.86c3.65,0,6.7,2.15,7.05,4.97l8.53,68.66-8.67,92.66c-.27,2.87-3.35,5.1-7.06,5.1Z"/>
    <path class="ca" d="M399.51,322.42l-41.18,14.12-39.77-14.1c-2.47-.88-4.18-3.16-4.32-5.78l-3.59-67.27c-.85-15.94,11.84-29.33,27.8-29.33h40.98c15.92,0,28.6,13.32,27.81,29.22l-3.34,67.3c-.13,2.65-1.87,4.96-4.38,5.82Z"/>
  </g>
  <g>
    <circle class="ca" cx="225" cy="182.08" r="28.91"/>
    <path class="ca" d="M240.84,418.55h-31.6c-3.71,0-6.8-2.22-7.07-5.09l-9.04-93.17,8.9-68.47c.37-2.81,3.42-4.95,7.06-4.95h31.92c3.65,0,6.71,2.15,7.06,4.98l8.54,68.78-8.68,92.82c-.27,2.88-3.36,5.11-7.08,5.11Z"/>
    <path class="ca" d="M269.85,323.11l-45.36,14.32-44.08-14.31c-2.23-.75-3.76-3.11-3.76-5.79l10.79-64.5c3.1-18.52,19.12-32.09,37.9-32.09h0c18.86,0,34.93,13.69,37.93,32.3l10.37,64.25c0,2.69-1.55,5.06-3.79,5.8Z"/>
  </g>
</svg>
