<?xml version='1.0' encoding='UTF-8'?>
<svg xmlns="http://www.w3.org/2000/svg" id="e" data-name="BB" viewBox="0 0 453.54 453.54">
  <defs>
    <style>
      .ca {
        fill: #5F1972;
        stroke-width: 0px;
      }
    </style>
  </defs>
  <g>
    <path class="ca" d="M186.22,411.64c-7.99-2.59-14.15-9.28-20.27-14.94-8.12-7.52-15.41-15.96-22.82-24.22-10.54-11.73-11.97-26.11-4.18-39.65,7.47-13,14.99-25.98,22.84-39.56,16.04,13.39,31.75,26.52,47.74,39.87-5.04,8.73-9.7,17.23-14.81,25.44-2.27,3.65-1.84,5.97,1.14,8.92,3.25,3.22,6.32,6.83,8.62,10.77,7.96,13.64,6.65,29.08-8.51,33.38-3.12.89-6.64,1-9.73,0Z"/>
    <path class="ca" d="M255.71,411.72c-16.8-4.74-16.79-23.64-5.08-38.62q8.28-10.59,1.59-22.21c-3.32-5.79-6.58-11.61-10.04-17.73,15.82-13.24,31.42-26.28,47.7-39.9,7.62,13.18,15.41,25.86,22.32,39,2.7,5.13,4.15,11.2,4.92,17.01,1.11,8.41-1.89,16-7.61,22.26-9.37,10.24-18.57,20.67-28.52,30.32-4.31,4.18-9.63,8.18-15.54,9.86-3.12.89-6.61.88-9.73,0Z"/>
  </g>
  <circle class="ca" cx="225.67" cy="100.41" r="56.78"/>
  <path class="ca" d="M358.45,236.92l-52.38-52.38c-4.1-4.1-9.48-6.14-14.86-6.12v-.03h-131.25v.03c-5.32.03-10.62,2.06-14.68,6.12l-52.38,52.38c-8.16,8.16-8.16,21.4,0,29.56h0c8.16,8.16,21.4,8.16,29.56,0l37.5-37.5v40.97h131.25v-41.15l37.68,37.68c8.16,8.16,21.4,8.16,29.56,0h0c8.16-8.16,8.16-21.4,0-29.56Z"/>
</svg>
