<?xml version='1.0' encoding='UTF-8'?>
<svg xmlns="http://www.w3.org/2000/svg" id="bz" data-name="Cadre famille" viewBox="0 0 453.54 453.54">
  <defs>
    <style>
      .ca {
        stroke-width: 7.48px;
      }

      .ca, .cb, .cc {
        stroke: #5F1972;
        stroke-miterlimit: 10;
      }

      .ca, .cc {
        fill: none;
      }

      .cd {
        fill: #5F1972;
        stroke-width: 0px;
      }

      .cb {
        fill: #fff;
      }

      .cb, .cc {
        stroke-width: 12px;
      }
    </style>
  </defs>
  <g>
    <g>
      <circle class="cd" cx="221.66" cy="252.19" r="15.02"/>
      <path class="cd" d="M221.64,273.49h0c-13.38,0-24.23,10.85-24.23,24.23v19.28c0,1.21.8,2.27,1.95,2.61l6.02,1.76,4.41,39.41c.14,1.29,1.75,2.29,3.68,2.29h16.42c1.93,0,3.54-1,3.68-2.3l4.25-39.42,6.08-1.74c1.17-.33,1.97-1.4,1.97-2.61v-19.27c0-13.38-10.85-24.23-24.23-24.23Z"/>
    </g>
    <g>
      <circle class="cd" cx="145.31" cy="179.01" r="21.95"/>
      <path class="cd" d="M157.34,210.13h-24.12c-12.9,0-23.35,10.46-23.35,23.35v52.41c0,1.2.76,2.26,1.9,2.65l9.76,3.33,6.45,67.27c.21,2.21,2.55,3.92,5.37,3.92h23.99c2.82,0,5.17-1.71,5.37-3.93l6.21-67.31,9.85-3.3c1.14-.38,1.91-1.45,1.91-2.66v-52.39c0-12.9-10.46-23.35-23.35-23.35Z"/>
    </g>
    <g>
      <circle class="cd" cx="298.02" cy="179.01" r="21.95"/>
      <path class="cd" d="M310.05,210.13h-24.12c-12.9,0-23.35,10.46-23.35,23.35v52.41c0,1.2.76,2.26,1.9,2.65l9.76,3.33,6.45,67.27c.21,2.21,2.55,3.92,5.37,3.92h23.99c2.82,0,5.17-1.71,5.37-3.93l6.21-67.31,9.85-3.3c1.14-.38,1.91-1.45,1.91-2.66v-52.39c0-12.9-10.46-23.35-23.35-23.35Z"/>
    </g>
  </g>
  <g>
    <rect class="cc" x="43.89" y="113.78" width="366.42" height="294.57"/>
    <polyline class="cc" points="43.89 113.78 225.47 45.4 406.35 114.52"/>
  </g>
  <rect class="ca" x="60.38" y="134.54" width="333.44" height="257.1"/>
  <ellipse class="cb" cx="229.17" cy="47.01" rx="9.35" ry="9.01"/>
</svg>
