<?xml version='1.0' encoding='UTF-8'?>
<svg xmlns="http://www.w3.org/2000/svg" id="bq" data-name="Habit_2" viewBox="0 0 453.54 453.54">
  <defs>
    <style>
      .ca {
        fill: #5F1972;
        stroke-width: 0px;
      }
    </style>
  </defs>
  <path class="ca" d="M284.29,229.9c-.18,0-.35,0-.53,0-.48,0-.97,0-1.43-.06-14.11-1.01-25.28-12.81-25.28-27.17v-21.55c0-3.19,2.58-5.77,5.77-5.77h41.88c3.19,0,5.77,2.58,5.77,5.77v21.52c0,14.39-11.17,26.19-25.28,27.2-.29.05-.59.07-.9.07ZM268.59,186.88v15.75c0,8.51,6.76,15.44,15.17,15.72,8.41-.28,15.17-7.21,15.17-15.69v-15.78h-30.34Z"/>
  <path class="ca" d="M416.87,191.79c-.12-1.64-.92-3.15-2.21-4.16l-73.41-57.6c-.61-.47-1.29-.82-2.07-1.04l-104.93-28.57v-12.4c10.45-2.62,18.06-12.15,18.06-23.13,0-13.15-10.69-23.84-23.83-23.84s-23.84,10.69-23.84,23.84c0,3.18,2.59,5.77,5.77,5.77s5.77-2.59,5.77-5.77c0-6.78,5.52-12.3,12.3-12.3s12.29,5.52,12.29,12.3-5.51,12.29-12.29,12.29c-3.18,0-5.77,2.59-5.77,5.77v17.78l-104.53,28.26c-.75.21-1.44.56-2.04,1.03l-73.23,57.61c-1.29,1-2.09,2.51-2.2,4.18-.1,1.62.49,3.21,1.63,4.39l51.82,52.9c1.83,1.87,4.69,2.27,6.96.98l21.44-12.16v172.56c0,1.53.6,2.97,1.71,4.11,1.09,1.08,2.53,1.66,4.08,1.66l100.34-.29,100.37.29c1.52,0,3.01-.62,4.1-1.7,1.08-1.1,1.67-2.54,1.67-4.07v-172.56l21.44,12.16c2.27,1.29,5.14.88,6.96-.98l51.99-52.89c1.14-1.16,1.75-2.77,1.64-4.43ZM229.08,110.97l44.19,11.95c-2.02,23.02-21.18,40.76-44.57,40.79-23.29-.03-42.44-17.68-44.55-40.6l44.92-12.14ZM99.3,237.86l-44.21-45.13,10.46-8.22,46.26,46.26-12.51,7.1ZM323.3,404.71l-94.07-.27-95.12.27v-51.49h189.19v51.49ZM134.51,341.68v-77.37h188.49v77.37h-188.49ZM331.92,223.01c-1.79-1.01-4-1-5.77.04-1.76,1.04-2.86,2.94-2.86,4.98v24.73h-189.19v-24.73c0-2.05-1.1-3.96-2.86-4.98-.88-.52-1.89-.79-2.91-.79s-1.98.26-2.85.75l-3.26,1.86-47.55-47.55,47.67-37.49,50.44-13.53c3.65,27.72,27.54,48.95,55.86,48.95h.11c28.31,0,52.2-21.23,55.86-48.95l50.45,13.53,49.77,39.05-47.3,47.3-5.61-3.17ZM358.11,237.86l-10.17-5.77,46.03-46.03,8.5,6.66-44.36,45.13Z"/>
</svg>
