<?xml version='1.0' encoding='UTF-8'?>
<svg xmlns="http://www.w3.org/2000/svg" id="bb" data-name="Population FF" viewBox="0 0 453.54 453.54">
  <defs>
    <style>
      .ca {
        fill: #5F1972;
        stroke-width: 0px;
      }
    </style>
  </defs>
  <g>
    <circle class="ca" cx="160.62" cy="121.25" r="28.86"/>
    <circle class="ca" cx="296.17" cy="121.25" r="28.86"/>
  </g>
  <g>
    <circle class="ca" cx="227.74" cy="181.06" r="28.91"/>
    <path class="ca" d="M243.59,417.53h-31.6c-3.71,0-6.8-2.22-7.07-5.09l-9.04-93.17,8.9-68.47c.37-2.81,3.42-4.95,7.06-4.95h31.92c3.65,0,6.71,2.15,7.06,4.98l8.54,68.78-8.68,92.82c-.27,2.88-3.36,5.11-7.08,5.11Z"/>
    <path class="ca" d="M272.6,322.1l-45.36,14.32-44.08-14.31c-2.23-.75-3.76-3.11-3.76-5.79l10.79-64.5c3.1-18.52,19.12-32.09,37.9-32.09h0c18.86,0,34.93,13.69,37.93,32.3l10.37,64.25c0,2.69-1.55,5.06-3.79,5.8Z"/>
  </g>
  <g>
    <circle class="ca" cx="95.35" cy="181.06" r="28.91"/>
    <path class="ca" d="M111.2,417.53h-31.6c-3.71,0-6.8-2.22-7.07-5.09l-9.04-93.17,8.9-68.47c.37-2.81,3.42-4.95,7.06-4.95h31.92c3.65,0,6.71,2.15,7.06,4.98l8.54,68.78-8.68,92.82c-.27,2.88-3.36,5.11-7.08,5.11Z"/>
    <path class="ca" d="M140.21,322.1l-45.36,14.32-44.08-14.31c-2.23-.75-3.76-3.11-3.76-5.79l10.79-64.5c3.1-18.52,19.12-32.09,37.9-32.09h0c18.86,0,34.93,13.69,37.93,32.3l10.37,64.25c0,2.69-1.55,5.06-3.79,5.8Z"/>
  </g>
  <g>
    <circle class="ca" cx="361.53" cy="181.06" r="28.91"/>
    <path class="ca" d="M377.38,417.53h-31.6c-3.71,0-6.8-2.22-7.07-5.09l-9.04-93.17,8.9-68.47c.37-2.81,3.42-4.95,7.06-4.95h31.92c3.65,0,6.71,2.15,7.06,4.98l8.54,68.78-8.68,92.82c-.27,2.88-3.36,5.11-7.08,5.11Z"/>
    <path class="ca" d="M406.39,322.1l-45.36,14.32-44.08-14.31c-2.23-.75-3.76-3.11-3.76-5.79l10.79-64.5c3.1-18.52,19.12-32.09,37.9-32.09h0c18.86,0,34.93,13.69,37.93,32.3l10.37,64.25c0,2.69-1.55,5.06-3.79,5.8Z"/>
  </g>
</svg>
