<?xml version='1.0' encoding='UTF-8'?>
<svg xmlns="http://www.w3.org/2000/svg" id="l" data-name="Inegalites" viewBox="0 0 453.54 453.54">
  <defs>
    <style>
      .ag {
        stroke-linecap: round;
        stroke-linejoin: round;
      }

      .ag, .ah {
        fill: none;
        stroke: #8A5301;
        stroke-width: 12px;
      }

      .ah {
        stroke-miterlimit: 10;
      }
    </style>
  </defs>
  <polygon class="ag" points="228.77 314.59 192.24 377.85 265.29 377.85 228.77 314.59"/>
  <line class="ag" x1="47.52" y1="334.57" x2="411.55" y2="283.52"/>
  <g>
    <path class="ah" d="M136.79,282.38c0,8.59-20.12,15.56-44.94,15.56s-44.94-6.96-44.94-15.56"/>
    <path class="ah" d="M136.79,257.69c0,8.59-20.12,15.56-44.94,15.56s-44.94-6.96-44.94-15.56"/>
    <path class="ah" d="M136.79,233c0,8.59-20.12,15.56-44.94,15.56s-44.94-6.96-44.94-15.56"/>
    <path class="ah" d="M136.79,208.31c0,8.59-20.12,15.56-44.94,15.56s-44.94-6.96-44.94-15.56"/>
    <path class="ah" d="M136.79,183.61c0,8.59-20.12,15.56-44.94,15.56s-44.94-6.96-44.94-15.56"/>
    <ellipse class="ah" cx="91.85" cy="158.92" rx="44.94" ry="15.56"/>
    <line class="ah" x1="46.91" y1="160.65" x2="46.91" y2="282.55"/>
    <line class="ah" x1="136.79" y1="160.65" x2="136.79" y2="282.55"/>
  </g>
  <g>
    <path class="ah" d="M411.38,241.69c0,8.59-20.12,15.56-44.94,15.56s-44.94-6.96-44.94-15.56"/>
    <path class="ah" d="M411.38,217c0,8.59-20.12,15.56-44.94,15.56s-44.94-6.96-44.94-15.56"/>
    <ellipse class="ah" cx="366.44" cy="192.31" rx="44.94" ry="15.56"/>
    <line class="ah" x1="321.5" y1="194.04" x2="321.5" y2="242.78"/>
    <line class="ah" x1="411.38" y1="194.04" x2="411.38" y2="243.35"/>
  </g>
</svg>
