<?xml version='1.0' encoding='UTF-8'?>
<svg xmlns="http://www.w3.org/2000/svg" id="y" data-name="Argent 3" viewBox="0 0 453.54 453.54">
  <defs>
    <style>
      .ag {
        stroke: #8A5301;
        stroke-miterlimit: 10;
        stroke-width: 12px;
      }

      .ag, .ah {
        fill: #fff;
      }

      .ah {
        stroke-width: 0px;
      }
    </style>
  </defs>
  <g>
    <ellipse class="ag" cx="243.76" cy="372.34" rx="90.68" ry="38.9" transform="translate(-8.29 5.56) rotate(-1.29)"/>
    <ellipse class="ag" cx="243.08" cy="341.82" rx="90.68" ry="38.9" transform="translate(-7.61 5.54) rotate(-1.29)"/>
    <line class="ag" x1="152.42" y1="343.85" x2="153.1" y2="374.37"/>
    <line class="ag" x1="333.74" y1="339.78" x2="334.42" y2="370.3"/>
    <path class="ah" d="M190.05,382.39s-17.19-4.23-29.6-14.51c0,0-1.87,9.43,4.75,16.12,0,0,3.87,4.98,22.76,11.91l2.1-13.52Z"/>
    <path class="ah" d="M299.74,379.31s16.98-5,28.92-15.82c0,0,2.29,9.34-4.02,16.32,0,0-3.64,5.14-22.2,12.92l-2.7-13.41Z"/>
  </g>
  <g>
    <ellipse class="ag" cx="323.77" cy="318.52" rx="90.68" ry="38.9" transform="translate(-12.42 13.13) rotate(-2.28)"/>
    <ellipse class="ag" cx="322.56" cy="288.01" rx="90.68" ry="38.9" transform="translate(-11.2 13.06) rotate(-2.28)"/>
    <line class="ag" x1="231.95" y1="291.62" x2="233.16" y2="322.12"/>
    <line class="ag" x1="413.17" y1="284.41" x2="414.38" y2="314.91"/>
    <path class="ah" d="M270.24,329.5s-17.26-3.93-29.84-13.99c0,0-1.7,9.47,5.03,16.03,0,0,3.95,4.91,22.96,11.51l1.86-13.56Z"/>
    <path class="ah" d="M379.86,324.52s16.89-5.29,28.64-16.32c0,0,2.45,9.3-3.73,16.38,0,0-3.55,5.21-21.97,13.3l-2.93-13.37Z"/>
  </g>
  <g>
    <ellipse class="ag" cx="252.51" cy="253.49" rx="90.68" ry="38.9" transform="translate(-9.29 9.6) rotate(-2.14)"/>
    <ellipse class="ag" cx="251.37" cy="222.98" rx="90.68" ry="38.9" transform="translate(-8.15 9.54) rotate(-2.14)"/>
    <line class="ag" x1="160.75" y1="226.37" x2="161.89" y2="256.87"/>
    <line class="ag" x1="341.99" y1="219.59" x2="343.13" y2="250.1"/>
    <path class="ah" d="M198.95,264.33s-17.25-3.98-29.81-14.07c0,0-1.73,9.46,4.99,16.05,0,0,3.94,4.92,22.93,11.57l1.89-13.55Z"/>
    <path class="ah" d="M308.58,259.62s16.9-5.25,28.68-16.25c0,0,2.43,9.31-3.77,16.37,0,0-3.56,5.2-22,13.25l-2.9-13.37Z"/>
  </g>
  <g>
    <ellipse class="ag" cx="121.41" cy="327.06" rx="90.68" ry="38.9" transform="translate(-225.44 289.52) rotate(-63.46)"/>
    <ellipse class="ag" cx="94.1" cy="313.42" rx="90.68" ry="38.9" transform="translate(-228.34 257.55) rotate(-63.46)"/>
    <line class="ag" x1="53.58" y1="394.55" x2="80.88" y2="408.19"/>
    <line class="ag" x1="134.62" y1="232.3" x2="161.93" y2="245.94"/>
    <path class="ah" d="M105.22,379.25s-11.77,13.22-26.65,19.4c0,0,7.47,6.05,16.47,3.33,0,0,6.21-1.1,21.16-14.56l-10.98-8.17Z"/>
    <path class="ah" d="M153.7,280.82s3.5-17.35-.49-32.96c0,0,9.33,2.34,12.55,11.17,0,0,2.85,5.62,1.06,25.66l-13.12-3.87Z"/>
  </g>
</svg>
