<?xml version='1.0' encoding='UTF-8'?>
<svg xmlns="http://www.w3.org/2000/svg" id="af" data-name="Main argent" viewBox="0 0 453.54 453.54">
  <defs>
    <style>
      .ag {
        stroke-miterlimit: 10;
        stroke-width: 12px;
      }

      .ag, .ah {
        stroke: #8A5301;
      }

      .ag, .ah, .ai {
        fill: #fff;
      }

      .ah {
        stroke-linecap: round;
        stroke-linejoin: round;
        stroke-width: 11.66px;
      }

      .ai {
        stroke-width: 0px;
      }
    </style>
  </defs>
  <g>
    <path class="ah" d="M217.35,343.72h75.14c11.07,0,21.03-9.96,21.03-22.26s-9.96-22.26-21.03-22.26h-75.14s-17.34-23.69-43.59-31.25c-17.18-4.94-93.51-5.04-93.51-5.04l6.11,80.93s100.86,56.85,144.95,61.38c25.66,2.64,101.99-40.19,101.99-40.19l65.57-36.1c10.95-5.58,15.31-18.98,9.73-29.93h0c-5.58-10.95-18.98-15.31-29.93-9.73l-65.17,34.42"/>
    <rect class="ah" x="42.52" y="241.9" width="73.27" height="136.54" rx="12.48" ry="12.48"/>
  </g>
  <g>
    <ellipse class="ag" cx="153.61" cy="119.08" rx="30.95" ry="72.16" transform="translate(-40.71 114.83) rotate(-36.53)"/>
    <ellipse class="ag" cx="173.13" cy="104.63" rx="30.95" ry="72.16" transform="translate(-28.27 123.61) rotate(-36.53)"/>
    <line class="ag" x1="130.18" y1="46.65" x2="110.66" y2="61.1"/>
    <line class="ag" x1="216.08" y1="162.61" x2="196.56" y2="177.06"/>
    <path class="ai" d="M122.42,88.8s-5.14-13.11-4.16-25.9c0,0-6.99,3.12-8.3,10.49,0,0-1.46,4.8,2.71,20.26l9.75-4.85Z"/>
    <path class="ai" d="M174.78,158.66s11.05,8.74,23.56,11.53c0,0-5.02,5.78-12.45,4.88,0,0-5.01,0-18.59-8.49l7.48-7.91Z"/>
  </g>
  <g>
    <ellipse class="ag" cx="317.81" cy="195.99" rx="72.16" ry="30.95" transform="translate(-42.1 295.4) rotate(-47.1)"/>
    <ellipse class="ag" cx="300.02" cy="179.46" rx="72.16" ry="30.95" transform="translate(-35.67 277.08) rotate(-47.1)"/>
    <line class="ag" x1="250.9" y1="232.32" x2="268.7" y2="248.85"/>
    <line class="ag" x1="349.14" y1="126.6" x2="366.93" y2="143.14"/>
    <path class="ai" d="M293.76,232.21s-11.95,7.46-24.69,8.84c0,0,4.35,6.3,11.83,6.23,0,0,4.98.55,19.42-6.38l-6.55-8.69Z"/>
    <path class="ai" d="M352.84,167.92s6.56-12.46,7.01-25.27c0,0,6.6,3.88,7.08,11.34,0,0,.92,4.93-4.94,19.83l-9.15-5.9Z"/>
  </g>
</svg>
