<?xml version='1.0' encoding='UTF-8'?>
<svg xmlns="http://www.w3.org/2000/svg" id="q" data-name="Euro" viewBox="0 0 453.54 453.54">
  <defs>
    <style>
      .ag {
        fill: #8A5301;
      }

      .ag, .ah {
        stroke-width: 0px;
      }

      .ai {
        fill: none;
        stroke: #8A5301;
        stroke-linecap: round;
        stroke-linejoin: round;
        stroke-width: 12px;
      }

      .ah {
        fill: #fff;
      }
    </style>
  </defs>
  <polygon class="ai" points="39.12 414.74 310.36 414.74 310.36 37.74 114.64 37.74 39.12 111.91 39.12 414.74"/>
  <line class="ai" x1="80.64" y1="149.61" x2="136.55" y2="149.61"/>
  <line class="ai" x1="80.64" y1="186.61" x2="126.69" y2="186.61"/>
  <line class="ai" x1="80.64" y1="223.61" x2="123.63" y2="223.61"/>
  <line class="ai" x1="80.64" y1="260.61" x2="139.09" y2="260.61"/>
  <line class="ai" x1="80.64" y1="297.61" x2="163.63" y2="297.61"/>
  <line class="ai" x1="80.64" y1="334.61" x2="270.58" y2="334.61"/>
  <line class="ai" x1="80.64" y1="371.61" x2="270.58" y2="371.61"/>
  <polygon class="ai" points="114.38 112.74 39.38 112.74 114.38 37.74 114.38 112.74"/>
  <g>
    <g>
      <path class="ah" d="M248.83,292.53c-50.62,0-91.81-41.18-91.81-91.81s41.18-91.81,91.81-91.81,91.81,41.18,91.81,91.81-41.18,91.81-91.81,91.81Z"/>
      <path class="ag" d="M248.83,114.92c47.31,0,85.81,38.49,85.81,85.81s-38.49,85.81-85.81,85.81-85.81-38.49-85.81-85.81,38.49-85.81,85.81-85.81M248.83,102.92c-54.02,0-97.81,43.79-97.81,97.81s43.79,97.81,97.81,97.81,97.81-43.79,97.81-97.81-43.79-97.81-97.81-97.81h0Z"/>
    </g>
    <line class="ai" x1="316.24" y1="266.9" x2="336.63" y2="287.29"/>
    <g>
      <path class="ah" d="M392.69,359.62c-4.53,0-8.78-1.76-11.98-4.96l-47.85-47.85c-6.6-6.6-6.6-17.35,0-23.96,3.2-3.2,7.45-4.96,11.98-4.96s8.78,1.76,11.98,4.96l47.85,47.85c3.2,3.2,4.96,7.45,4.96,11.98s-1.76,8.78-4.96,11.98c-3.2,3.2-7.45,4.96-11.98,4.96Z"/>
      <path class="ag" d="M344.84,283.89c2.92,0,5.67,1.14,7.74,3.2l47.85,47.85c4.27,4.27,4.27,11.21,0,15.47-2.07,2.07-4.81,3.2-7.74,3.2s-5.67-1.14-7.74-3.2l-47.85-47.85c-2.07-2.07-3.2-4.81-3.2-7.74s1.14-5.67,3.2-7.74c2.07-2.07,4.81-3.2,7.74-3.2M344.84,271.89c-5.87,0-11.74,2.24-16.22,6.72-8.96,8.96-8.96,23.48,0,32.44l47.85,47.85c4.48,4.48,10.35,6.72,16.22,6.72s11.74-2.24,16.22-6.72h0c8.96-8.96,8.96-23.48,0-32.44l-47.85-47.85c-4.48-4.48-10.35-6.72-16.22-6.72h0Z"/>
    </g>
  </g>
  <g>
    <path class="ai" d="M284.93,234.02c-8.87,9.26-21.36,15.02-35.2,15.02-26.92,0-48.74-21.82-48.74-48.74s21.82-48.74,48.74-48.74c12.83,0,24.51,4.96,33.21,13.07"/>
    <line class="ai" x1="186.82" y1="187.62" x2="268.53" y2="187.62"/>
    <line class="ai" x1="186.82" y1="212.79" x2="268.53" y2="212.79"/>
  </g>
</svg>
