<?xml version='1.0' encoding='UTF-8'?>
<svg xmlns="http://www.w3.org/2000/svg" id="p" data-name="Curseur" viewBox="0 0 453.54 453.54">
  <defs>
    <style>
      .aq {
        fill: #8A5301;
        stroke-width: 0px;
      }

      .ar {
        fill: none;
        stroke: #8A5301;
        stroke-miterlimit: 10;
        stroke-width: 12px;
      }
    </style>
  </defs>
  <g>
    <path class="ar" d="M94.84,95.85v-33.94c0-9.11,7.39-16.5,16.5-16.5s16.5,7.39,16.5,16.5v33.94"/>
    <path class="ar" d="M94.84,170.92v232.99c0,9.11,7.39,16.5,16.5,16.5s16.5-7.39,16.5-16.5v-232.99"/>
    <path class="ar" d="M94.84,95.85c5.05-2.22,10.63-3.47,16.5-3.47s11.45,1.24,16.5,3.47"/>
    <path class="ar" d="M94.84,95.85c-14.42,6.35-24.5,20.76-24.5,37.53s10.08,31.18,24.5,37.53"/>
    <path class="ar" d="M94.84,170.92c5.05,2.22,10.63,3.47,16.5,3.47s11.45-1.24,16.5-3.47"/>
    <path class="ar" d="M127.84,170.92c14.42-6.35,24.5-20.76,24.5-37.53s-10.08-31.18-24.5-37.53"/>
  </g>
  <g>
    <path class="ar" d="M240.63,369.97v33.94c0,9.11-7.39,16.5-16.5,16.5s-16.5-7.39-16.5-16.5v-33.94"/>
    <path class="ar" d="M240.63,294.91V61.91c0-9.11-7.39-16.5-16.5-16.5s-16.5,7.39-16.5,16.5v232.99"/>
    <path class="ar" d="M240.63,369.97c-5.05,2.22-10.63,3.47-16.5,3.47s-11.45-1.24-16.5-3.47"/>
    <path class="ar" d="M240.63,369.97c14.42-6.35,24.5-20.76,24.5-37.53s-10.08-31.18-24.5-37.53"/>
    <path class="ar" d="M240.63,294.91c-5.05-2.22-10.63-3.47-16.5-3.47s-11.45,1.24-16.5,3.47"/>
    <path class="ar" d="M207.63,294.91c-14.42,6.35-24.5,20.76-24.5,37.53s10.08,31.18,24.5,37.53"/>
  </g>
  <g>
    <path class="ar" d="M353.42,403.91c0,9.11-7.39,16.5-16.5,16.5s-16.5-7.39-16.5-16.5V61.91c0-9.11,7.39-16.5,16.5-16.5s16.5,7.39,16.5,16.5v342Z"/>
    <circle class="aq" cx="336.92" cy="213.77" r="46.28"/>
  </g>
</svg>
