<?xml version='1.0' encoding='UTF-8'?>
<svg xmlns="http://www.w3.org/2000/svg" id="g" data-name="Tableau diagramme" viewBox="0 0 453.54 453.54">
  <defs>
    <style>
      .aq {
        fill: #8A5301;
        stroke-width: 0px;
      }

      .ar {
        fill: none;
        stroke: #8A5301;
        stroke-linecap: round;
        stroke-linejoin: round;
        stroke-width: 12px;
      }
    </style>
  </defs>
  <line class="ar" x1="38.55" y1="41.06" x2="415.22" y2="41.06"/>
  <line class="ar" x1="38.55" y1="304.61" x2="415.22" y2="304.61"/>
  <line class="ar" x1="76.33" y1="45.94" x2="76.33" y2="300.61"/>
  <line class="ar" x1="377.66" y1="41.97" x2="377.66" y2="302.83"/>
  <line class="ar" x1="129.66" y1="380.61" x2="323.88" y2="380.61"/>
  <line class="ar" x1="153.22" y1="305.06" x2="110.11" y2="417.06"/>
  <line class="ar" x1="302.55" y1="305.06" x2="345.66" y2="417.06"/>
  <path class="aq" d="M181.85,180.97c-5.3,4.18-11.68,6.38-18.45,6.38-11.2,0-20.96-6.19-26.03-15.3h42.82c2.02,0,3.67-1.64,3.67-3.67v-3.85c0-2.02-1.64-3.67-3.67-3.67h-46.36c-.1-1-.16-2.02-.16-3.05,0-1.16.09-2.3.22-3.43h46.3c2.02,0,3.67-1.64,3.67-3.67v-3.85c0-2.02-1.64-3.67-3.67-3.67h-42.59c5.13-8.9,14.76-14.92,25.8-14.92,6.77,0,13.15,2.21,18.45,6.38l.04.03c1.58,1.25,3.87.98,5.12-.59l2.43-3.04c1.27-1.59,1-3.9-.59-5.16h0c-7.31-5.76-16.11-8.81-25.44-8.81-17.41,0-32.28,10.86-38.21,26.1h-7.21c-2.02,0-3.67,1.64-3.67,3.67v3.85c0,2.02,1.64,3.67,3.67,3.67h4.61c-.1,1.13-.18,2.27-.18,3.43,0,1.03.08,2.04.16,3.05h-4.59c-2.02,0-3.67,1.64-3.67,3.67v3.85c0,2.02,1.64,3.67,3.67,3.67h7.07c5.83,15.44,20.8,26.48,38.35,26.48,9.33,0,18.13-3.04,25.44-8.8h0c1.6-1.26,1.86-3.58.6-5.17l-2.42-3.03c-1.26-1.57-3.55-1.84-5.13-.59l-.04.03Z"/>
  <path class="aq" d="M278.2,237.72c-34.35,0-62.29-27.94-62.29-62.29s27.94-62.29,62.29-62.29c3.31,0,6,2.69,6,6v50.29h50.29c3.31,0,6,2.69,6,6,0,34.35-27.94,62.29-62.29,62.29ZM272.2,125.5c-24.91,2.97-44.29,24.23-44.29,49.93,0,27.73,22.56,50.29,50.29,50.29,25.7,0,46.96-19.38,49.93-44.29h-49.93c-3.31,0-6-2.69-6-6v-49.93Z"/>
  <path class="aq" d="M344.65,159.84h-41.3c-3.31,0-6-2.69-6-6v-41.3c0-3.31,2.69-6,6-6,26.08,0,47.3,21.22,47.3,47.3,0,3.31-2.69,6-6,6ZM309.35,147.84h28.79c-2.52-14.67-14.12-26.27-28.79-28.79v28.79Z"/>
</svg>
