<?xml version='1.0' encoding='UTF-8'?>
<svg xmlns="http://www.w3.org/2000/svg" id="j" data-name="Baisse industrie" viewBox="0 0 453.54 453.54">
  <defs>
    <style>
      .aq {
        fill: #8A5301;
        stroke-width: 0px;
      }
    </style>
  </defs>
  <path class="aq" d="M386.27,222.99c.05,1.63-.56,3.21-1.69,4.38-1.13,1.17-2.68,1.83-4.31,1.83h-39.83c-3.32,0-6-2.69-6-6s2.68-6,6-6h22.81l-98.28-99.59-33.66,33.53c-1.35,1.35-3.28,1.98-5.18,1.67-1.89-.3-3.53-1.49-4.4-3.2l-34.65-68.14-31.29,31.84c-1.36,1.38-3.31,2.02-5.23,1.72-1.92-.31-3.57-1.53-4.43-3.27l-37.34-75.57c-1.47-2.97-.25-6.57,2.72-8.04,2.97-1.47,6.57-.25,8.04,2.72l33.6,68.01,31.22-31.77c1.35-1.38,3.29-2.02,5.19-1.72,1.91.29,3.56,1.49,4.44,3.21l34.69,68.22,32.08-31.97c1.13-1.12,2.68-1.78,4.26-1.75,1.6,0,3.13.65,4.25,1.79l104.58,105.98-.87-25.99c-.12-3.32,2.48-6.09,5.79-6.2.07,0,.14-.01.21-.01,3.22,0,5.88,2.56,5.99,5.8l1.29,38.52Z"/>
  <polygon class="aq" points="221.08 405.57 221.08 405.68 195.77 405.62 183.78 405.59 157.51 405.52 157.51 405.51 183.78 405.53 195.77 405.55 221.08 405.57"/>
  <path class="aq" d="M303.26,417.66c-.2.02-.4.03-.61.03s-.41-.01-.61-.03h1.22Z"/>
  <path class="aq" d="M191.09,417.54h-2.65l-36.66-.04,36.93.09h2.08s36.27.1,36.27.1h.02c.38,0,.75-.04,1.11-.11l-37.1-.04Z"/>
  <circle class="aq" cx="113.72" cy="299.24" r="10.92"/>
  <circle class="aq" cx="151.51" cy="299.24" r="10.92"/>
  <circle class="aq" cx="189.8" cy="299.24" r="10.92"/>
  <path class="aq" d="M191.09,417.54c-.1.03-.2.05-.3.06-.33.06-.67.09-1.02.09h-.01c-.36,0-.71-.03-1.05-.1-.09-.01-.18-.03-.27-.05h2.65Z"/>
  <path class="aq" d="M335.03,405.69l-26.38-.03v-220.99c0-3.31-2.69-6-6-6h-37.64c-3.31,0-5.99,2.68-6,5.98l-.13,34.45-64.5,31.65-.48-17.02c-.07-2.22-1.35-4.22-3.35-5.21-1.99-.98-4.37-.78-6.17.52l-26.87,19.46v-14.6c0-2.23-1.24-4.28-3.22-5.31-1.98-1.04-4.38-.89-6.21.39l-28.43,19.78v-15.08c0-2.24-1.25-4.29-3.24-5.32-1.99-1.03-4.38-.87-6.22.42l-37.71,26.56c-1.59,1.12-2.54,2.95-2.54,4.91v145.17l-25.35-.03h-.01c-3.31,0-6,2.68-6,5.99s2.68,6,5.99,6.01l31.37.03,75.55.08h.29l36.66.04h2.65l37.1.04,73.82.08h1.27l31.74.03c3.31,0,6-2.68,6-5.99.01-3.31-2.68-6-5.99-6.01ZM221.08,405.68l-25.31-.06-11.99-.03-26.27-.07v-63.7h26.32l-.05,63.71,11.99.02.06-63.73h25.25v63.86ZM296.65,405.65l-63.57-.07v-69.76c0-3.32-2.69-6-6-6h-75.57c-3.31,0-6,2.68-6,6v69.67l-63.57-.06v-142.07l25.71-18.11v15c0,2.23,1.24,4.28,3.22,5.31,1.98,1.04,4.37.89,6.21-.39l28.43-19.78v14.86c0,2.25,1.26,4.31,3.27,5.34,2.01,1.02,4.42.84,6.25-.48l27.19-19.69.43,15c.06,2.04,1.15,3.91,2.9,4.96,1.74,1.06,3.91,1.15,5.74.25l76.22-37.4c2.05-1,3.35-3.08,3.36-5.36l.11-32.2h25.67v214.98Z"/>
  <polygon class="aq" points="195.77 405.55 195.77 405.62 183.78 405.59 183.78 405.53 195.77 405.55"/>
</svg>
