<?xml version='1.0' encoding='UTF-8'?>
<svg xmlns="http://www.w3.org/2000/svg" id="e" data-name="Culture" viewBox="0 0 453.54 453.54">
  <defs>
    <style>
      .ab {
        fill: #8A5301;
        stroke-width: 0px;
      }
    </style>
  </defs>
  <path class="ab" d="M228.04,358.77c-8.75-.05-15.07,1.97-19.46,6.12-1.03-3.4-2.65-6.28-4.85-8.62-4.77-5.06-11.96-7.56-22.04-7.49-2.14,0-3.88,1.77-3.9,3.96-.1,9.21,2.19,16.24,6.8,20.9,4.11,4.15,9.87,6.37,17.51,6.77v18.85c0,2.21,1.75,4.01,3.91,4.01s3.91-1.79,3.91-4.01v-11.27c6.79-.39,11.96-2.41,15.68-6.14,4.25-4.26,6.38-10.69,6.33-19.11-.02-2.19-1.75-3.96-3.88-3.98ZM190.08,367.93c-2.44-2.47-3.87-6.08-4.32-10.98,5.62.5,9.76,2.13,12.35,4.87,2.3,2.44,3.59,5.92,3.91,10.57-5.4-.35-9.32-1.82-11.94-4.47ZM220.13,376.13c-2.23,2.24-5.56,3.51-10.1,3.85.35-3.87,1.48-6.78,3.43-8.83,2.2-2.32,5.71-3.72,10.45-4.19-.46,4.08-1.71,7.1-3.77,9.17Z"/>
  <path class="ab" d="M139.95,358.77c-8.74-.04-15.07,1.97-19.46,6.12-1.03-3.4-2.64-6.28-4.85-8.62-4.75-5.04-11.91-7.49-21.9-7.49h-.14c-2.14,0-3.88,1.77-3.9,3.96-.1,9.2,2.18,16.24,6.8,20.9,4.11,4.16,9.87,6.37,17.51,6.77v18.85c0,2.21,1.75,4.01,3.91,4.01s3.91-1.79,3.91-4.01v-11.27c6.8-.39,11.96-2.41,15.68-6.14,4.25-4.26,6.38-10.69,6.32-19.11-.02-2.19-1.75-3.96-3.88-3.98ZM102,367.93c-2.44-2.47-3.87-6.08-4.32-10.98,5.62.5,9.76,2.13,12.35,4.87,2.3,2.44,3.59,5.92,3.91,10.57-5.4-.35-9.32-1.82-11.94-4.47ZM132.05,376.13c-2.23,2.24-5.56,3.51-10.1,3.85.35-3.87,1.48-6.78,3.43-8.83,2.2-2.32,5.71-3.72,10.45-4.19-.46,4.08-1.71,7.1-3.77,9.17Z"/>
  <path class="ab" d="M317.48,358.77c-.12,0-.24,0-.35,0-8.53,0-14.78,2.02-19.1,6.12-1.03-3.4-2.65-6.28-4.85-8.62-4.75-5.04-11.91-7.49-21.9-7.49h-.14c-2.14,0-3.88,1.77-3.9,3.96-.1,9.21,2.19,16.24,6.8,20.9,4.11,4.15,9.87,6.37,17.51,6.77v18.85c0,2.21,1.75,4.01,3.91,4.01s3.91-1.79,3.91-4.01v-11.27c6.79-.39,11.96-2.41,15.68-6.14,4.25-4.26,6.38-10.69,6.32-19.11-.02-2.19-1.75-3.96-3.88-3.98ZM279.53,367.94c-2.44-2.47-3.87-6.08-4.32-10.98,5.62.5,9.76,2.13,12.35,4.87,2.3,2.44,3.59,5.92,3.91,10.57-5.4-.35-9.32-1.82-11.94-4.47ZM309.57,376.13c-2.23,2.24-5.56,3.51-10.1,3.85.35-3.87,1.48-6.78,3.43-8.83,2.2-2.32,5.71-3.72,10.45-4.19-.46,4.08-1.71,7.1-3.77,9.17Z"/>
  <path class="ab" d="M181.79,291.7c-.09,7.81,1.87,13.8,5.82,17.79,3.41,3.45,8.11,5.35,14.29,5.78v14.93c0,2.21,1.75,4.01,3.91,4.01s3.91-1.79,3.91-4.01v-8.68c5.48-.42,9.69-2.14,12.77-5.24,3.66-3.67,5.49-9.15,5.44-16.31-.02-2.19-1.75-3.96-3.89-3.98-6.94-.02-12.1,1.46-15.82,4.55-.88-2.48-2.14-4.64-3.82-6.42-4.08-4.33-10.2-6.46-18.72-6.4-2.14,0-3.88,1.77-3.9,3.96ZM212.46,307.42c1.58-1.66,4.05-2.72,7.37-3.16-.44,2.77-1.37,4.88-2.8,6.31-1.57,1.57-3.96,2.55-7.12,2.9.35-2.62,1.2-4.62,2.55-6.05ZM198.79,299.7c1.66,1.76,2.65,4.24,2.98,7.52-3.89-.36-6.75-1.5-8.67-3.44-1.77-1.78-2.85-4.36-3.28-7.82,4.06.47,7.07,1.73,8.97,3.74Z"/>
  <path class="ab" d="M149.72,296c-6.88.02-12.09,1.47-15.81,4.56-.88-2.48-2.14-4.64-3.82-6.42-4.08-4.33-10.17-6.46-18.72-6.4-2.14,0-3.88,1.77-3.9,3.96-.09,7.81,1.87,13.8,5.82,17.79,3.41,3.45,8.11,5.35,14.29,5.78v14.93c0,2.21,1.75,4.01,3.91,4.01s3.91-1.79,3.91-4.01v-8.68c5.48-.42,9.69-2.14,12.77-5.23,3.66-3.67,5.49-9.15,5.44-16.31-.02-2.19-1.75-3.96-3.89-3.98ZM118.78,303.78c-1.77-1.78-2.85-4.36-3.28-7.82,4.06.47,7.07,1.73,8.97,3.74,1.66,1.76,2.65,4.24,2.98,7.52-3.89-.36-6.75-1.5-8.67-3.44ZM142.7,310.56c-1.57,1.57-3.96,2.55-7.12,2.9.35-2.62,1.2-4.62,2.55-6.05,1.58-1.66,4.05-2.72,7.37-3.16-.44,2.77-1.37,4.88-2.8,6.31Z"/>
  <path class="ab" d="M277.5,330.2c0,2.21,1.75,4.01,3.91,4.01s3.91-1.79,3.91-4.01v-8.68c5.48-.42,9.69-2.14,12.77-5.24,3.66-3.67,5.49-9.15,5.44-16.31-.02-2.19-1.75-3.96-3.89-3.98-6.89-.02-12.09,1.46-15.82,4.55-.88-2.48-2.14-4.64-3.82-6.42-4.06-4.31-10.15-6.4-18.6-6.4h-.13c-2.14,0-3.88,1.77-3.9,3.96-.09,7.81,1.87,13.8,5.83,17.79,3.41,3.45,8.11,5.35,14.29,5.78v14.93ZM288.05,307.42c1.58-1.66,4.05-2.72,7.37-3.17-.44,2.77-1.37,4.88-2.8,6.31-1.57,1.58-3.96,2.55-7.12,2.91.35-2.62,1.19-4.62,2.55-6.05ZM268.7,303.78c-1.77-1.79-2.85-4.36-3.28-7.82,4.06.47,7.07,1.73,8.97,3.74,1.66,1.76,2.64,4.24,2.98,7.52-3.89-.36-6.75-1.5-8.67-3.44Z"/>
  <path class="ab" d="M205.69,278.53c2.16,0,3.91-1.79,3.91-4.01v-7.14c4.69-.44,8.33-1.97,11.03-4.67,3.3-3.31,4.95-8.23,4.91-14.63-.01-2.19-1.75-3.97-3.89-3.98-5.87-.04-10.32,1.18-13.61,3.69-.78-1.97-1.85-3.71-3.22-5.16-3.65-3.87-9.09-5.76-16.63-5.76h-.11c-2.14,0-3.88,1.77-3.9,3.96-.08,6.98,1.69,12.34,5.24,15.93,2.98,3.02,7.06,4.71,12.36,5.15v12.61c0,2.21,1.75,4.01,3.91,4.01ZM211.86,254.94c1.2-1.26,3.04-2.1,5.5-2.52-.4,1.98-1.13,3.51-2.19,4.57-1.19,1.19-2.97,1.97-5.31,2.32.34-1.87,1-3.31,2-4.36ZM194.92,251.05c-1.33-1.35-2.21-3.32-2.63-5.9,3.11.45,5.43,1.47,6.91,3.04,1.27,1.35,2.06,3.21,2.4,5.66-2.97-.37-5.21-1.31-6.68-2.79Z"/>
  <path class="ab" d="M142.38,278.53c2.16,0,3.91-1.79,3.91-4.01v-7.14c4.69-.44,8.33-1.97,11.03-4.68,3.3-3.31,4.95-8.23,4.9-14.63-.02-2.19-1.75-3.96-3.89-3.98-5.86-.02-10.31,1.19-13.61,3.69-.78-1.97-1.85-3.71-3.22-5.16-3.65-3.87-9.09-5.76-16.63-5.76h-.11c-2.14,0-3.88,1.77-3.9,3.96-.08,6.98,1.69,12.34,5.24,15.93,2.98,3.02,7.06,4.71,12.36,5.15v12.61c0,2.21,1.75,4.01,3.91,4.01ZM148.55,254.94c1.2-1.26,3.04-2.1,5.49-2.52-.4,1.98-1.13,3.51-2.19,4.57-1.19,1.19-2.97,1.97-5.31,2.32.34-1.87,1-3.31,2-4.36ZM131.61,251.05c-1.33-1.35-2.21-3.32-2.63-5.9,3.11.45,5.43,1.47,6.91,3.04,1.27,1.35,2.06,3.21,2.4,5.66-2.97-.37-5.21-1.31-6.68-2.79Z"/>
  <path class="ab" d="M270.36,278.53c2.16,0,3.91-1.79,3.91-4.01v-7.14c4.69-.44,8.33-1.97,11.03-4.68,3.3-3.31,4.95-8.23,4.9-14.63-.02-2.19-1.75-3.96-3.89-3.98-5.87-.02-10.32,1.19-13.61,3.69-.78-1.97-1.85-3.71-3.22-5.16-3.65-3.87-9.09-5.76-16.63-5.76h-.11c-2.14,0-3.88,1.77-3.9,3.96-.08,6.98,1.69,12.34,5.24,15.93,2.98,3.01,7.06,4.71,12.35,5.15v12.61c0,2.21,1.75,4.01,3.91,4.01ZM276.53,254.94c1.2-1.26,3.04-2.1,5.49-2.52-.4,1.98-1.13,3.51-2.19,4.56-1.19,1.19-2.97,1.97-5.31,2.32.34-1.87,1-3.31,2-4.36ZM259.59,251.05c-1.33-1.35-2.21-3.33-2.63-5.91,3.12.45,5.43,1.47,6.91,3.04,1.27,1.35,2.06,3.21,2.4,5.66-2.97-.37-5.21-1.3-6.68-2.79Z"/>
  <path class="ab" d="M172.06,223.74c-2.58-.28-4.89,1.62-5.17,4.26l-18.36,172.67c-.28,2.64,1.58,5.01,4.16,5.3.17.02.34.03.51.03,2.36,0,4.4-1.82,4.66-4.29l18.36-172.67c.28-2.64-1.58-5.01-4.16-5.3Z"/>
  <path class="ab" d="M244.84,228c-.28-2.64-2.6-4.53-5.17-4.26-2.58.29-4.44,2.66-4.16,5.3l18.36,172.68c.26,2.46,2.3,4.29,4.66,4.29.17,0,.34,0,.51-.03,2.58-.29,4.44-2.66,4.16-5.3l-18.36-172.68Z"/>
  <path class="ab" d="M116.53,223.9c-2.49-.74-5.09.74-5.81,3.29l-48.49,172.67c-.72,2.55.72,5.22,3.21,5.95.43.13.87.19,1.3.19,2.04,0,3.91-1.37,4.51-3.48l48.49-172.67c.72-2.55-.72-5.22-3.21-5.95Z"/>
  <path class="ab" d="M300.99,227.19c-.72-2.55-3.32-4.03-5.81-3.29-2.49.73-3.93,3.4-3.21,5.95l48.49,172.68c.59,2.11,2.47,3.48,4.51,3.48.43,0,.87-.06,1.3-.19,2.49-.73,3.93-3.4,3.21-5.95l-48.49-172.68Z"/>
  <path class="ab" d="M409.16,248.18h-88.03c-2.59,0-4.69,2.15-4.69,4.81s2.1,4.81,4.69,4.81h88.03c2.59,0,4.69-2.15,4.69-4.81s-2.1-4.81-4.69-4.81Z"/>
  <path class="ab" d="M409.16,269.49h-82.05c-2.59,0-4.69,2.15-4.69,4.81s2.1,4.81,4.69,4.81h82.05c2.59,0,4.69-2.15,4.69-4.81s-2.1-4.81-4.69-4.81Z"/>
  <path class="ab" d="M409.16,290.8h-76.06c-2.59,0-4.69,2.15-4.69,4.81s2.1,4.81,4.69,4.81h76.06c2.59,0,4.69-2.15,4.69-4.81s-2.1-4.81-4.69-4.81Z"/>
  <path class="ab" d="M409.16,314.77h-69.33c-2.59,0-4.69,2.15-4.69,4.81s2.1,4.81,4.69,4.81h69.33c2.59,0,4.69-2.15,4.69-4.81s-2.1-4.81-4.69-4.81Z"/>
  <path class="ab" d="M409.16,339.81h-61.85c-2.59,0-4.69,2.15-4.69,4.81s2.1,4.81,4.69,4.81h61.85c2.59,0,4.69-2.15,4.69-4.81s-2.1-4.81-4.69-4.81Z"/>
  <path class="ab" d="M409.16,366.44h-54.37c-2.59,0-4.69,2.15-4.69,4.81s2.1,4.81,4.69,4.81h54.37c2.59,0,4.69-2.15,4.69-4.81s-2.1-4.81-4.69-4.81Z"/>
  <path class="ab" d="M409.16,392.02h-45.88c-2.59,0-4.69,2.15-4.69,4.81s2.1,4.81,4.69,4.81h45.88c2.59,0,4.69-2.15,4.69-4.81s-2.1-4.81-4.69-4.81Z"/>
  <path class="ab" d="M409.16,226.87h-94.02c-2.59,0-4.69,2.15-4.69,4.81s2.1,4.81,4.69,4.81h94.02c2.59,0,4.69-2.15,4.69-4.81s-2.1-4.81-4.69-4.81Z"/>
  <path class="ab" d="M409.16,205.56H47.29c-2.59,0-4.69,2.15-4.69,4.81s2.1,4.81,4.69,4.81h361.88c2.59,0,4.69-2.15,4.69-4.81s-2.1-4.81-4.69-4.81Z"/>
  <path class="ab" d="M50.95,392.02h-3.66c-2.59,0-4.69,2.15-4.69,4.81s2.1,4.81,4.69,4.81h3.66c2.59,0,4.69-2.15,4.69-4.81s-2.1-4.81-4.69-4.81Z"/>
  <path class="ab" d="M100.68,231.67c0-2.66-2.1-4.81-4.69-4.81h-48.71c-2.59,0-4.69,2.15-4.69,4.81s2.1,4.81,4.69,4.81h48.71c2.59,0,4.69-2.15,4.69-4.81Z"/>
  <path class="ab" d="M94.69,252.99c0-2.66-2.1-4.81-4.69-4.81h-42.72c-2.59,0-4.69,2.15-4.69,4.81s2.1,4.81,4.69,4.81h42.72c2.59,0,4.69-2.15,4.69-4.81Z"/>
  <path class="ab" d="M88.71,274.3c0-2.66-2.1-4.81-4.69-4.81h-36.73c-2.59,0-4.69,2.15-4.69,4.81s2.1,4.81,4.69,4.81h36.73c2.59,0,4.69-2.15,4.69-4.81Z"/>
  <path class="ab" d="M82.72,295.61c0-2.66-2.1-4.81-4.69-4.81h-30.75c-2.59,0-4.69,2.15-4.69,4.81s2.1,4.81,4.69,4.81h30.75c2.59,0,4.69-2.15,4.69-4.81Z"/>
  <path class="ab" d="M75.99,319.58c0-2.66-2.1-4.81-4.69-4.81h-24.02c-2.59,0-4.69,2.15-4.69,4.81s2.1,4.81,4.69,4.81h24.02c2.59,0,4.69-2.15,4.69-4.81Z"/>
  <path class="ab" d="M47.28,339.81c-2.59,0-4.69,2.15-4.69,4.81s2.1,4.81,4.69,4.81h16.54c2.59,0,4.69-2.15,4.69-4.81s-2.1-4.81-4.69-4.81h-16.54Z"/>
  <path class="ab" d="M56.34,366.44h-9.06c-2.59,0-4.69,2.15-4.69,4.81s2.1,4.81,4.69,4.81h9.06c2.59,0,4.69-2.15,4.69-4.81s-2.1-4.81-4.69-4.81Z"/>
  <path class="ab" d="M193.63,119.94c-3.83,5.76-5.24,12.7-3.97,19.55,1.27,6.85,5.06,12.78,10.68,16.7,4.27,2.98,9.22,4.53,14.28,4.53,1.59,0,3.2-.15,4.8-.47,6.68-1.3,12.47-5.18,16.3-10.95,3.83-5.76,5.24-12.7,3.97-19.55-1.27-6.85-5.06-12.78-10.68-16.7-5.62-3.92-12.4-5.37-19.08-4.07-6.68,1.3-12.47,5.19-16.3,10.95ZM201.38,125.35c2.42-3.64,6.07-6.09,10.29-6.91,1.01-.2,2.02-.29,3.03-.29,3.2,0,6.32.98,9.02,2.86,3.55,2.48,5.95,6.22,6.75,10.55.8,4.32-.09,8.71-2.51,12.35-2.42,3.64-6.07,6.09-10.29,6.91-4.22.83-8.5-.09-12.05-2.57-3.55-2.48-5.95-6.23-6.75-10.55-.8-4.32.09-8.71,2.51-12.34Z"/>
  <path class="ab" d="M157.83,145.61c.43,2.31,2.4,3.91,4.6,3.91.29,0,.58-.03.88-.09l17.94-3.49c2.54-.5,4.22-3.01,3.73-5.62-.48-2.61-2.94-4.32-5.48-3.83l-17.94,3.49c-2.54.5-4.22,3.01-3.73,5.62Z"/>
  <path class="ab" d="M164.51,115.7l16.59,8.02c.65.31,1.33.46,2,.46,1.76,0,3.44-1.02,4.25-2.76,1.1-2.4.1-5.27-2.24-6.4l-16.59-8.02c-2.34-1.13-5.14-.1-6.24,2.3-1.1,2.4-.1,5.27,2.24,6.4Z"/>
  <path class="ab" d="M193.67,105.62c.85,1.59,2.46,2.5,4.12,2.5.76,0,1.54-.19,2.25-.59,2.27-1.28,3.1-4.2,1.86-6.53l-8.83-16.5c-1.25-2.33-4.09-3.18-6.37-1.9-2.27,1.28-3.1,4.2-1.86,6.53l8.83,16.5Z"/>
  <path class="ab" d="M218.26,103.87c.2.03.4.04.6.04,2.33,0,4.35-1.77,4.65-4.2l2.32-18.64c.33-2.63-1.49-5.04-4.06-5.38-2.57-.34-4.92,1.52-5.25,4.16l-2.32,18.64c-.33,2.63,1.49,5.04,4.06,5.38Z"/>
  <path class="ab" d="M238.37,113.18c1.25,0,2.49-.51,3.42-1.51l12.51-13.63c1.78-1.93,1.69-4.97-.2-6.79-1.89-1.82-4.86-1.73-6.63.21l-12.51,13.63c-1.78,1.93-1.69,4.98.2,6.79.91.87,2.06,1.31,3.21,1.31Z"/>
  <path class="ab" d="M244.27,128.56c.43,2.31,2.39,3.91,4.6,3.91.29,0,.58-.03.88-.09l17.84-3.47c2.55-.49,4.22-3.01,3.73-5.62-.48-2.61-2.94-4.32-5.48-3.83l-17.84,3.47c-2.55.49-4.22,3.01-3.73,5.62Z"/>
  <path class="ab" d="M262.64,162.38c1.76,0,3.44-1.02,4.25-2.76,1.11-2.4.1-5.27-2.24-6.4l-16.35-7.9c-2.34-1.13-5.14-.11-6.24,2.3-1.11,2.4-.1,5.27,2.24,6.4l16.35,7.9c.65.31,1.33.46,2,.46Z"/>
  <path class="ab" d="M229.28,161.69c-2.27,1.28-3.1,4.2-1.86,6.53l8.67,16.2c.85,1.59,2.46,2.5,4.12,2.5.76,0,1.54-.19,2.25-.59,2.27-1.28,3.1-4.2,1.86-6.53l-8.67-16.2c-1.25-2.33-4.1-3.18-6.37-1.9Z"/>
  <path class="ab" d="M210.86,165.31c-2.58-.35-4.92,1.53-5.25,4.16l-2.29,18.37c-.33,2.63,1.49,5.04,4.06,5.38.2.03.4.04.6.04,2.33,0,4.35-1.77,4.65-4.2l2.29-18.37c.33-2.63-1.49-5.04-4.06-5.38Z"/>
  <path class="ab" d="M187.31,157.32l-12.44,13.55c-1.78,1.93-1.69,4.98.2,6.8.91.87,2.06,1.31,3.21,1.31,1.25,0,2.49-.51,3.42-1.51l12.44-13.55c1.78-1.93,1.69-4.98-.2-6.8-1.89-1.82-4.86-1.73-6.63.2Z"/>
  <path class="ab" d="M50.25,191.31c0-13.16,10.04-23.91,22.87-24.48,2.2-.1,4.04-1.74,4.42-3.97,2.02-11.7,11.92-20.19,23.54-20.19,8.48,0,16.41,4.67,20.68,12.2.98,1.72,2.89,2.64,4.8,2.33,1.92-.32,3.44-1.81,3.85-3.75,1.19-5.77,4.4-10.92,9.03-14.49,4.17-3.21,9.13-4.91,14.35-4.91,2.59,0,4.69-2.15,4.69-4.81s-2.1-4.81-4.69-4.81c-7.27,0-14.19,2.36-19.99,6.84-4,3.08-7.23,7.01-9.51,11.46-6.14-6.11-14.46-9.68-23.21-9.68-14.96,0-27.87,10.11-31.96,24.52-16.1,2.49-28.25,16.65-28.25,33.73,0,2.66,2.1,4.81,4.69,4.81s4.69-2.15,4.69-4.81Z"/>
  <path class="ab" d="M280.79,157.26c2.99-1.31,6.16-1.98,9.42-1.98,11.01,0,20.55,7.64,23.2,18.57.34,1.4,1.27,2.56,2.53,3.18,1.27.62,2.74.62,4.01.02,2.29-1.1,4.73-1.65,7.27-1.65,9.47,0,17.18,7.9,17.18,17.61,0,2.66,2.1,4.81,4.69,4.81s4.69-2.15,4.69-4.81c0-15.01-11.91-27.22-26.56-27.22-2.15,0-4.26.26-6.31.77-5.11-12.52-17.1-20.89-30.7-20.89-4.54,0-8.96.93-13.12,2.76-2.38,1.05-3.48,3.87-2.46,6.31,1.02,2.44,3.78,3.58,6.16,2.52Z"/>
  <path class="ab" d="M364.52,83.63c-16.56,0-31.84,7.71-41.89,20.9-6.72-5.67-15.2-8.83-24.01-8.83-9.53,0-18.62,3.64-25.62,10.26-1.9,1.8-2.02,4.84-.26,6.79,1.76,1.95,4.72,2.07,6.63.27,5.25-4.97,12.09-7.71,19.25-7.71,8.09,0,15.82,3.56,21.21,9.76.98,1.13,2.43,1.71,3.9,1.59,1.47-.13,2.8-.96,3.58-2.25,8.07-13.26,21.98-21.17,37.2-21.17,24.16,0,43.82,20.15,43.82,44.91,0,3.83-.47,7.64-1.41,11.33-.65,2.57.85,5.19,3.36,5.86.4.11.79.16,1.18.16,2.09,0,3.99-1.44,4.54-3.6,1.13-4.47,1.71-9.1,1.71-13.74,0-30.06-23.86-54.52-53.2-54.52Z"/>
</svg>
