<?xml version='1.0' encoding='UTF-8'?>
<svg xmlns="http://www.w3.org/2000/svg" id="g" data-name="Traitemets" viewBox="0 0 453.54 453.54">
  <defs>
    <style>
      .ab {
        stroke: #8A5301;
        stroke-miterlimit: 10;
        stroke-width: 2px;
      }

      .ab, .ac {
        fill: #8A5301;
      }

      .ac {
        stroke-width: 0px;
      }
    </style>
  </defs>
  <g>
    <path class="ab" d="M337.98,338.99c-10.34,0-15.76-3.15-20.55-5.94-4.59-2.66-8.54-4.95-16.92-4.95s-12.34,2.29-16.9,4.94c-5.28,3.06-10.25,5.95-20.57,5.95s-15.75-3.15-20.54-5.92c-4.58-2.67-8.54-4.96-16.95-4.96s-12.34,2.29-16.9,4.94c-5.27,3.06-10.25,5.95-20.58,5.95s-15.75-3.15-20.55-5.92c-4.58-2.66-8.54-4.96-16.95-4.96s-12.36,2.29-16.93,4.94c-4.8,2.79-10.23,5.95-20.58,5.95h-1.63v-9.01h1.63c8.4,0,12.34-2.29,16.9-4.93,5.28-3.06,10.26-5.95,20.61-5.95s15.77,3.15,20.56,5.93c4.58,2.66,8.54,4.96,16.94,4.96s12.34-2.29,16.91-4.94c5.26-3.06,10.23-5.94,20.57-5.94s15.77,3.15,20.56,5.93c4.57,2.66,8.53,4.95,16.93,4.95s12.33-2.29,16.89-4.94c5.04-2.93,10.24-5.95,20.58-5.95s15.77,3.15,20.55,5.93c4.58,2.66,8.53,4.96,16.92,4.96h1.63v9.01h-1.63Z"/>
    <path class="ab" d="M337.98,362.16c-10.34,0-15.76-3.15-20.55-5.94-4.59-2.66-8.54-4.95-16.92-4.95s-12.34,2.29-16.9,4.94c-5.28,3.06-10.25,5.95-20.57,5.95s-15.75-3.15-20.54-5.93c-4.58-2.66-8.54-4.96-16.95-4.96s-12.34,2.29-16.9,4.94c-5.27,3.06-10.25,5.95-20.58,5.95s-15.75-3.15-20.54-5.93c-4.59-2.66-8.54-4.96-16.96-4.96s-12.36,2.29-16.93,4.94c-4.8,2.79-10.23,5.95-20.58,5.95h-1.63v-9.01h1.63c8.41,0,12.35-2.29,16.92-4.94,5.04-2.92,10.25-5.94,20.58-5.94s15.77,3.15,20.56,5.93c4.58,2.66,8.54,4.96,16.94,4.96s12.34-2.29,16.9-4.94c5.04-2.93,10.25-5.95,20.58-5.95s15.77,3.15,20.56,5.93c4.57,2.66,8.51,4.95,16.93,4.95s12.36-2.29,16.92-4.95c4.79-2.78,10.22-5.94,20.56-5.94s15.77,3.15,20.55,5.93c4.57,2.66,8.51,4.96,16.92,4.96h1.63v9.01h-1.63Z"/>
    <path class="ab" d="M337.98,385.33c-10.33,0-15.75-3.21-20.54-6.05-4.59-2.71-8.54-5.05-16.93-5.05s-12.35,2.33-16.91,5.04c-5.27,3.12-10.25,6.06-20.56,6.06s-15.74-3.21-20.53-6.03c-4.59-2.72-8.54-5.06-16.96-5.06s-12.35,2.33-16.92,5.04c-5.27,3.12-10.25,6.06-20.57,6.06s-15.74-3.21-20.53-6.03c-4.59-2.72-8.54-5.06-16.97-5.06s-12.37,2.33-16.94,5.04c-4.8,2.84-10.23,6.06-20.57,6.06h-1.63v-9.25h1.63c8.4,0,12.35-2.33,16.91-5.03,5.28-3.12,10.26-6.06,20.59-6.06s15.76,3.21,20.54,6.04c4.58,2.71,8.54,5.05,16.95,5.05s12.35-2.34,16.92-5.04c5.26-3.11,10.22-6.05,20.56-6.05s15.76,3.21,20.55,6.04c4.58,2.71,8.53,5.05,16.94,5.05s12.34-2.33,16.91-5.03c5.04-2.98,10.24-6.06,20.57-6.06s15.75,3.21,20.54,6.04c4.58,2.71,8.53,5.05,16.93,5.05h1.63v9.25h-1.63Z"/>
  </g>
  <g>
    <path class="ac" d="M184.54,272.01c-20.15,0-37.28-17.26-39.54-39.54h-30.33c-2.92,0-4.73-2.66-4.73-5.13v-105.56c0-18.76,12.81-32.01,32.03-33.34v-19.98c0-3.02,1.95-5.12,4.73-5.12h40.76c2.79,0,4.73,2.11,4.73,5.12v159.25c0,3.02-1.95,5.13-4.73,5.13h-32.97c1.91,16.55,14.84,29.29,30.06,29.29,16.83,0,30.53-15.44,30.53-34.41v-100.48c0-24.63,17.94-44.67,39.99-44.67h37.85c1.34,0,2.42.5,3.38,1.59.93,1.05,1.35,2.14,1.35,3.54l-.32,21.79c0,3.14-2.46,5.1-4.73,5.1-2.79,0-4.73-2.11-4.73-5.12l.3-16.64h-33.09c-16.83,0-30.53,15.44-30.53,34.42v100.12c0,24.63-17.94,44.67-39.99,44.67ZM182.71,222.58v-123.61h-37.97c-5.95,0-25.35,1.65-25.35,22.81v100.8h25.47v-20.61c-5.98-2.1-10.35-8.59-10.35-15.62,0-9.23,6.77-16.73,15.08-16.73s15.08,7.51,15.08,16.73c0,6.91-4.21,13.15-10.35,15.57v20.66h28.38ZM149.28,179.14c-3.05,0-5.62,2.97-5.62,6.48s2.57,6.48,5.62,6.48,5.62-2.97,5.62-6.48-2.57-6.48-5.62-6.48ZM182.71,88.72v-14.78h-31.29v14.78h31.29Z"/>
    <path class="ac" d="M250.53,222.31c-3.5,0-6.35-3.11-6.35-6.94s2.85-6.94,6.35-6.94,6.35,3.11,6.35,6.94-2.85,6.94-6.35,6.94Z"/>
    <ellipse class="ac" cx="278.67" cy="215.37" rx="6.35" ry="6.94"/>
    <ellipse class="ac" cx="306.82" cy="215.37" rx="6.35" ry="6.94"/>
    <ellipse class="ac" cx="264.76" cy="188.17" rx="6.35" ry="6.94"/>
    <ellipse class="ac" cx="292.91" cy="188.17" rx="6.35" ry="6.94"/>
    <path class="ac" d="M321.05,195.1c-3.5,0-6.35-3.11-6.35-6.94s2.85-6.94,6.35-6.94,6.35,3.11,6.35,6.94-2.85,6.94-6.35,6.94Z"/>
    <ellipse class="ac" cx="292.91" cy="133.39" rx="6.35" ry="6.94"/>
    <path class="ac" d="M278.35,167.53c-3.5,0-6.35-3.11-6.35-6.94s2.85-6.94,6.35-6.94,6.35,3.11,6.35,6.94-2.85,6.94-6.35,6.94Z"/>
    <ellipse class="ac" cx="306.49" cy="160.6" rx="6.35" ry="6.94"/>
    <ellipse class="ac" cx="334.31" cy="215.37" rx="6.35" ry="6.94"/>
  </g>
</svg>
