<?xml version='1.0' encoding='UTF-8'?>
<svg xmlns="http://www.w3.org/2000/svg" id="r" data-name="Champ irrigation" viewBox="0 0 453.54 453.54">
  <defs>
    <style>
      .ab {
        fill: #8A5301;
        stroke-width: 0px;
      }
    </style>
  </defs>
  <path class="ab" d="M41.3,251.74c.25,2.76,2.65,4.78,5.44,4.55,58.81-5.28,118.72-7.96,178.06-7.96s123.97,2.89,185.06,8.6c.16.01.32.02.47.02,2.56,0,4.74-1.95,4.99-4.55.26-2.76-1.77-5.2-4.53-5.46-61.41-5.74-123.98-8.64-186-8.64s-119.85,2.69-178.96,8c-2.76.25-4.79,2.69-4.55,5.44Z"/>
  <path class="ab" d="M209.27,253.42c-8.5-.21-17.67,4.54-18.28,13.66l-27.01,103.02v.59c-.08,3.3,1.21,9.42,10.65,13.37,4.59,1.92,10.62,3.1,16.53,3.22.02,0,.17,0,.44,0,3.84,0,31.63-.52,31.95-15.32l2.21-103.49c.18-8.65-6.6-14.84-16.5-15.05ZM213.53,371.75c-.04,1.97-10.31,5.77-22.14,5.5-4.64-.1-9.45-1.01-12.88-2.45-.99-.41-4.07-1.83-4.46-3.51l26.94-102.75v-.59c.07-2.88,4.22-4.57,8.08-4.5,1.59.03,6.78.48,6.69,4.81l-2.21,103.49Z"/>
  <path class="ab" d="M178.48,257.75c-8.49-3.64-22.12-.42-27.15,9.16l-60.14,97.49-.18.5c-1.25,3.53-.87,7.04,1.11,10.15,3.87,6.08,13.1,9.03,20.45,9.75,1.27.13,3.21.23,5.56.23,10.21,0,28.11-1.89,31.66-11.9l35.3-99.63c2.41-6.81-.18-12.99-6.61-15.75ZM175.63,270.15l-35.3,99.63c-1.06,3-15.35,6.18-26.78,5.05-6.72-.66-11.7-3.15-12.97-5.15-.21-.33-.31-.6-.23-1.03l59.61-96.63.21-.36c2.45-4.83,10.57-6.31,14.36-4.69,1.2.52,1.88.99,1.11,3.18Z"/>
  <path class="ab" d="M144.77,262.52c-.77-1.77-2.91-4.82-8.5-5.44-7.94-.88-20.49,3.73-26.76,11.99l-66.18,68.74-.55.67c-8.13,12.06-3.9,30.68,5.27,37.47,1.37,1.02,4.49,2.91,8.63,2.91s9.5-1.97,15.07-8.84l70.4-95.68c3.25-4.41,4.13-8.39,2.63-11.82ZM134.06,268.39l-70.18,95.4c-3.85,4.71-7.17,6.09-9.86,4.09-5.21-3.86-7.68-16.25-3.14-23.47l66.07-68.63.43-.51c4.51-6.15,13.88-8.61,17.59-8.29-.2.37-.49.83-.91,1.4Z"/>
  <path class="ab" d="M95.32,278.06c1.69-1.58,6.85-6.4,5.59-11.81-.64-2.74-2.77-4.84-5.86-5.78-7.22-2.19-22.03,1.66-31.18,10.09-6.46,4.94-12.56,9.86-18.46,14.62-6.06,4.88-12.33,9.94-18.94,14.98l-.2.16c-7.32,6.22-9.51,18.21-7.84,26.34,1.07,5.25,3.72,8.77,7.45,9.93.74.23,1.61.39,2.58.39,2.35,0,5.32-.94,8.62-4.12,11.44-10.72,21.37-20.08,31.41-29.55,8.52-8.04,17.13-16.15,26.82-25.25ZM30.2,325.56c-.59.57-1.02.9-1.32,1.09-.47-.97-1.03-3.04-.94-6.14.15-5.21,2.01-10.09,4.74-12.47,6.67-5.09,12.95-10.16,19.03-15.05,5.91-4.77,12.03-9.69,18.45-14.61l.38-.32c5.66-5.31,14.16-7.89,18.83-8.21-.26.27-.56.57-.91.89-9.7,9.1-18.31,17.23-26.84,25.27-10.05,9.47-19.97,18.83-31.42,29.56Z"/>
  <path class="ab" d="M265.64,267.08c-.61-9.12-9.73-13.84-18.28-13.66-9.9.21-16.68,6.4-16.5,15.06l2.21,103.49c.32,14.8,28.11,15.32,31.95,15.32.26,0,.41,0,.44,0,5.91-.13,11.94-1.3,16.53-3.22,9.44-3.95,10.73-10.07,10.66-13.37v-.59s-27.02-103.02-27.02-103.02ZM278.13,374.81c-3.43,1.44-8.25,2.35-12.88,2.45-11.81.26-22.1-3.54-22.14-5.5l-2.21-103.49c-.09-4.33,5.1-4.78,6.69-4.81.09,0,.18,0,.27,0,3.75,0,7.74,1.68,7.8,4.5v.59s26.95,102.75,26.95,102.75c-.39,1.69-3.47,3.1-4.46,3.51Z"/>
  <path class="ab" d="M365.45,364.4l-60.14-97.49c-5.03-9.58-18.66-12.8-27.15-9.16-6.43,2.76-9.02,8.93-6.61,15.75l35.3,99.62c3.55,10.01,21.45,11.91,31.66,11.91,2.35,0,4.3-.1,5.56-.23,7.35-.72,16.59-3.67,20.46-9.75,1.98-3.11,2.36-6.62,1.11-10.15l-.18-.5ZM356.05,369.67c-1.27,2-6.25,4.49-12.97,5.15-11.43,1.13-25.71-2.04-26.78-5.05l-35.3-99.63c-.78-2.19-.1-2.66,1.11-3.18.98-.42,2.26-.64,3.65-.64,3.97,0,8.9,1.74,10.71,5.32l59.81,96.99c.08.42-.02.7-.23,1.03Z"/>
  <path class="ab" d="M413.61,338.12l-66.49-69.06c-6.27-8.26-18.82-12.87-26.76-11.99-5.59.62-7.73,3.67-8.5,5.44-1.51,3.43-.62,7.41,2.63,11.82l70.25,95.5.14.19c5.57,6.87,10.85,8.84,15.07,8.84s7.26-1.89,8.63-2.91c9.17-6.79,13.4-25.41,5.27-37.47l-.24-.36ZM402.62,367.89c-2.69,1.99-6.01.62-9.86-4.09l-70.18-95.4c-.42-.57-.71-1.03-.91-1.4,3.72-.32,13.08,2.15,17.59,8.29l.2.27,66.3,68.87c4.54,7.21,2.07,19.61-3.14,23.47Z"/>
  <path class="ab" d="M430.37,300.32l-.2-.16c-6.61-5.04-12.88-10.09-18.94-14.98-5.9-4.76-12-9.67-18.46-14.62-9.15-8.43-23.95-12.28-31.18-10.09-3.09.94-5.23,3.04-5.86,5.78-1.26,5.41,3.89,10.23,5.58,11.81,9.69,9.1,18.3,17.22,26.83,25.25,10.05,9.47,19.97,18.83,31.41,29.55,3.31,3.18,6.28,4.12,8.62,4.12.97,0,1.84-.16,2.58-.39,3.73-1.16,6.38-4.68,7.45-9.93,1.66-8.13-.52-20.12-7.84-26.34ZM427.76,326.66c-.31-.2-.73-.52-1.27-1.04-11.5-10.78-21.43-20.14-31.47-29.61-8.53-8.04-17.15-16.16-26.85-25.28-.34-.32-.64-.61-.9-.88,4.67.32,13.17,2.9,18.83,8.21l.38.32c6.43,4.92,12.54,9.84,18.45,14.61,6.08,4.9,12.36,9.96,19.03,15.05,2.73,2.39,4.58,7.26,4.74,12.47.09,3.1-.47,5.18-.94,6.14Z"/>
  <path class="ab" d="M386.66,104.67c-.15.04-.29.11-.43.17-.35-.18-.72-.34-1.13-.42-2.27-.45-4.46,1.03-4.9,3.3l-.96,4.92c-.44,2.27,1.03,4.46,3.3,4.9.27.05.54.08.81.08,1.09,0,2.1-.44,2.86-1.16.78.78,1.84,1.24,2.96,1.24.38,0,.76-.05,1.14-.16,2.22-.63,3.51-2.94,2.89-5.16l-1.36-4.83c-.63-2.22-2.93-3.51-5.16-2.89Z"/>
  <path class="ab" d="M398.64,147.05c-2.22.63-3.51,2.94-2.88,5.16l2.89,10.24c.52,1.84,2.2,3.04,4.02,3.04.38,0,.76-.05,1.14-.16,2.22-.63,3.51-2.94,2.88-5.16l-2.89-10.24c-.63-2.22-2.94-3.52-5.16-2.88Z"/>
  <path class="ab" d="M391.89,123.15c-2.22.63-3.51,2.94-2.88,5.16l2.89,10.24c.52,1.84,2.2,3.04,4.02,3.04.38,0,.76-.05,1.14-.16,2.22-.63,3.51-2.94,2.88-5.16l-2.89-10.24c-.63-2.22-2.94-3.52-5.16-2.88Z"/>
  <path class="ab" d="M412.15,194.83c-2.22.63-3.51,2.94-2.88,5.16l2.89,10.24c.52,1.84,2.2,3.04,4.02,3.04.38,0,.76-.05,1.14-.16,2.22-.63,3.51-2.94,2.88-5.16l-2.89-10.24c-.63-2.22-2.94-3.52-5.16-2.88Z"/>
  <path class="ab" d="M405.39,170.94c-2.22.63-3.51,2.94-2.88,5.16l2.89,10.24c.52,1.84,2.2,3.04,4.02,3.04.38,0,.76-.05,1.14-.16,2.22-.63,3.51-2.94,2.88-5.16l-2.89-10.24c-.63-2.22-2.94-3.52-5.16-2.88Z"/>
  <path class="ab" d="M418.9,218.73c-2.22.63-3.51,2.94-2.88,5.16l1.36,4.83c.52,1.84,2.2,3.04,4.02,3.04.38,0,.76-.05,1.14-.16,2.22-.63,3.51-2.94,2.88-5.16l-1.36-4.83c-.63-2.22-2.94-3.52-5.16-2.88Z"/>
  <path class="ab" d="M362.84,196.55l-1.97,10.07c-.44,2.26,1.03,4.46,3.3,4.9.27.05.54.08.81.08,1.96,0,3.71-1.38,4.1-3.38l1.97-10.07c.44-2.26-1.03-4.46-3.3-4.9-2.27-.45-4.46,1.03-4.9,3.3Z"/>
  <path class="ab" d="M367.43,173.05l-1.97,10.07c-.44,2.27,1.03,4.46,3.3,4.9.27.05.54.08.81.08,1.96,0,3.71-1.38,4.1-3.38l1.97-10.07c.44-2.27-1.03-4.46-3.3-4.9-2.26-.45-4.46,1.03-4.9,3.3Z"/>
  <path class="ab" d="M372.02,149.56l-1.97,10.07c-.44,2.27,1.03,4.46,3.3,4.9.27.05.54.08.81.08,1.96,0,3.71-1.38,4.1-3.38l1.97-10.07c.44-2.27-1.03-4.46-3.3-4.9-2.26-.45-4.46,1.03-4.9,3.3Z"/>
  <path class="ab" d="M381.51,122.77c-2.26-.45-4.46,1.03-4.9,3.3l-1.97,10.07c-.44,2.27,1.03,4.46,3.3,4.9.27.05.54.08.81.08,1.96,0,3.71-1.38,4.1-3.38l1.97-10.07c.44-2.27-1.03-4.46-3.3-4.9Z"/>
  <path class="ab" d="M358.25,220.04l-.96,4.92c-.44,2.27,1.03,4.46,3.3,4.9.27.05.54.08.81.08,1.96,0,3.71-1.38,4.1-3.38l.96-4.92c.44-2.27-1.03-4.46-3.3-4.9-2.26-.45-4.46,1.03-4.9,3.3Z"/>
  <path class="ab" d="M387.3,146.09c-2.31.08-4.11,2.02-4.02,4.33l.18,5.01c.08,2.25,1.93,4.03,4.17,4.03.05,0,.1,0,.15,0,2.31-.08,4.11-2.02,4.03-4.33l-.18-5.01c-.08-2.31-2.08-4.14-4.33-4.02Z"/>
  <path class="ab" d="M388.03,166.08c-2.31.08-4.11,2.02-4.02,4.33l.41,11.24c.08,2.25,1.93,4.03,4.17,4.03.05,0,.1,0,.16,0,2.31-.08,4.11-2.02,4.02-4.33l-.41-11.24c-.08-2.31-2.01-4.09-4.33-4.02Z"/>
  <path class="ab" d="M388.97,192.3c-2.31.08-4.11,2.02-4.02,4.33l.41,11.24c.08,2.25,1.93,4.03,4.17,4.03.05,0,.1,0,.16,0,2.31-.08,4.11-2.02,4.02-4.33l-.41-11.24c-.08-2.31-2.03-4.11-4.33-4.02Z"/>
  <path class="ab" d="M389.93,218.52c-2.31.08-4.11,2.02-4.03,4.33l.18,5.01c.08,2.25,1.93,4.03,4.17,4.03.05,0,.1,0,.16,0,2.31-.08,4.11-2.02,4.02-4.33l-.18-5.01c-.08-2.25-1.93-4.03-4.17-4.03-.05,0-.1,0-.15,0Z"/>
  <path class="ab" d="M322.93,125.74c-.71-2.2-3.06-3.41-5.26-2.69-.04.01-.08.04-.12.05-.14-.05-.27-.11-.41-.14-2.25-.53-4.5.86-5.03,3.1l-1.16,4.88c-.53,2.25.86,4.5,3.1,5.03.32.08.65.11.97.11,1.05,0,2.04-.41,2.8-1.1.75.63,1.69.99,2.68.99.43,0,.86-.07,1.29-.2,2.2-.71,3.4-3.06,2.69-5.26l-1.54-4.77Z"/>
  <path class="ab" d="M340.9,181.41c-.71-2.2-3.07-3.41-5.26-2.69-2.2.71-3.4,3.06-2.69,5.26l2.74,8.48c.57,1.77,2.21,2.9,3.98,2.9.43,0,.86-.07,1.29-.2,2.2-.71,3.4-3.06,2.69-5.26l-2.74-8.48Z"/>
  <path class="ab" d="M328.12,141.82c-.71-2.2-3.07-3.41-5.26-2.69-2.2.71-3.4,3.06-2.69,5.26l2.74,8.48c.57,1.77,2.21,2.9,3.98,2.9.43,0,.86-.07,1.29-.2,2.2-.71,3.4-3.06,2.69-5.26l-2.74-8.48Z"/>
  <path class="ab" d="M334.51,161.62c-.71-2.2-3.07-3.41-5.26-2.69-2.2.71-3.4,3.06-2.69,5.26l2.74,8.48c.57,1.77,2.21,2.9,3.98,2.9.43,0,.86-.07,1.29-.2,2.2-.71,3.4-3.06,2.69-5.26l-2.74-8.48Z"/>
  <path class="ab" d="M347.29,201.2c-.71-2.2-3.07-3.41-5.26-2.69-2.2.71-3.4,3.06-2.69,5.26l2.74,8.48c.57,1.77,2.21,2.9,3.98,2.9.43,0,.86-.07,1.28-.2,2.2-.71,3.4-3.06,2.69-5.26l-2.74-8.48Z"/>
  <path class="ab" d="M345.73,223.56l1.54,4.77c.57,1.77,2.21,2.9,3.98,2.9.43,0,.86-.07,1.29-.2,2.2-.71,3.4-3.06,2.69-5.26l-1.54-4.77c-.71-2.2-3.06-3.41-5.26-2.69-2.2.71-3.4,3.06-2.69,5.26Z"/>
  <path class="ab" d="M289.85,219.69l-1.16,4.88c-.53,2.25.86,4.5,3.1,5.03.32.08.65.11.97.11,1.89,0,3.61-1.29,4.06-3.21l1.16-4.88c.53-2.25-.86-4.5-3.1-5.03-2.25-.54-4.5.86-5.03,3.1Z"/>
  <path class="ab" d="M295.76,194.84l-2.53,10.65c-.53,2.25.86,4.5,3.1,5.03.32.08.65.11.97.11,1.89,0,3.61-1.29,4.06-3.21l2.53-10.65c.53-2.25-.86-4.5-3.1-5.03-2.25-.53-4.5.86-5.03,3.1Z"/>
  <path class="ab" d="M307.56,145.14l-2.53,10.65c-.53,2.25.86,4.5,3.1,5.03.32.08.65.11.97.11,1.89,0,3.61-1.29,4.06-3.21l2.53-10.65c.53-2.25-.86-4.5-3.1-5.03-2.25-.53-4.5.86-5.03,3.1Z"/>
  <path class="ab" d="M301.66,169.99l-2.53,10.65c-.53,2.24.86,4.5,3.1,5.03.32.08.65.11.97.11,1.89,0,3.61-1.29,4.06-3.22l2.53-10.65c.53-2.24-.86-4.5-3.1-5.03-2.25-.53-4.5.86-5.03,3.1Z"/>
  <path class="ab" d="M321.7,230.03c.07,0,.14,0,.2,0,2.31-.11,4.08-2.07,3.97-4.38l-.24-5.01c-.11-2.31-2.1-4.07-4.38-3.97-2.31.11-4.08,2.07-3.97,4.38l.24,5.01c.11,2.24,1.96,3.98,4.17,3.98Z"/>
  <path class="ab" d="M320.84,212.12c.07,0,.14,0,.2,0,2.31-.11,4.08-2.07,3.97-4.38l-.47-9.68c-.11-2.31-2.1-4.11-4.38-3.97-2.31.11-4.08,2.07-3.97,4.38l.47,9.68c.11,2.24,1.96,3.98,4.17,3.98Z"/>
  <path class="ab" d="M319.75,189.54c.07,0,.14,0,.2,0,2.31-.11,4.08-2.07,3.97-4.38l-.47-9.68c-.11-2.31-2.1-4.1-4.38-3.97-2.31.11-4.08,2.07-3.97,4.38l.47,9.68c.11,2.24,1.96,3.98,4.17,3.98Z"/>
  <path class="ab" d="M318.87,166.95c2.31-.11,4.08-2.07,3.97-4.38l-.24-5.01c-.11-2.3-2.03-4.09-4.38-3.97-2.31.11-4.08,2.07-3.97,4.38l.24,5.01c.11,2.24,1.95,3.98,4.17,3.98.07,0,.14,0,.2,0Z"/>
  <path class="ab" d="M66.34,117.54c.38.11.76.16,1.14.16,1.12,0,2.18-.46,2.96-1.24.76.72,1.78,1.16,2.86,1.16.27,0,.54-.02.81-.08,2.26-.44,3.74-2.64,3.3-4.9l-.96-4.92c-.44-2.26-2.64-3.75-4.9-3.3-.41.08-.78.23-1.13.42-.14-.06-.28-.13-.43-.17-2.23-.62-4.53.67-5.16,2.89l-1.36,4.83c-.63,2.22.67,4.53,2.89,5.16Z"/>
  <path class="ab" d="M39.32,213.11c.38.11.76.16,1.14.16,1.82,0,3.5-1.2,4.02-3.04l2.89-10.24c.63-2.22-.66-4.53-2.88-5.16-2.22-.63-4.53.66-5.16,2.88l-2.89,10.24c-.63,2.22.66,4.53,2.88,5.16Z"/>
  <path class="ab" d="M46.08,189.22c.38.11.76.16,1.14.16,1.82,0,3.5-1.2,4.02-3.04l2.89-10.24c.63-2.22-.66-4.53-2.88-5.16-2.22-.63-4.53.66-5.16,2.88l-2.89,10.24c-.63,2.22.66,4.53,2.88,5.16Z"/>
  <path class="ab" d="M59.58,141.43c.38.11.76.16,1.14.16,1.82,0,3.5-1.2,4.02-3.04l2.89-10.24c.63-2.22-.66-4.53-2.88-5.16-2.22-.63-4.53.66-5.16,2.88l-2.89,10.24c-.63,2.22.66,4.53,2.88,5.16Z"/>
  <path class="ab" d="M52.83,165.33c.38.11.76.16,1.14.16,1.82,0,3.5-1.2,4.02-3.04l2.89-10.24c.63-2.22-.66-4.53-2.88-5.16-2.21-.63-4.53.66-5.16,2.88l-2.89,10.24c-.63,2.22.66,4.53,2.88,5.16Z"/>
  <path class="ab" d="M34.1,231.59c.38.11.76.16,1.14.16,1.82,0,3.5-1.2,4.02-3.04l1.36-4.83c.63-2.22-.66-4.53-2.88-5.16-2.22-.63-4.53.66-5.16,2.88l-1.36,4.83c-.63,2.22.66,4.53,2.88,5.16Z"/>
  <path class="ab" d="M89.21,173.05c-.44-2.27-2.63-3.75-4.9-3.3-2.27.44-3.74,2.64-3.3,4.9l1.97,10.07c.39,2,2.14,3.38,4.1,3.38.27,0,.54-.02.81-.08,2.27-.44,3.74-2.64,3.3-4.9l-1.97-10.07Z"/>
  <path class="ab" d="M93.8,196.55c-.44-2.27-2.64-3.75-4.9-3.3-2.27.44-3.74,2.64-3.3,4.9l1.97,10.07c.39,2,2.14,3.38,4.1,3.38.27,0,.54-.02.81-.08,2.27-.44,3.74-2.64,3.3-4.9l-1.97-10.07Z"/>
  <path class="ab" d="M84.62,149.56c-.44-2.27-2.64-3.75-4.9-3.3-2.27.44-3.74,2.64-3.3,4.9l1.97,10.07c.39,1.99,2.14,3.38,4.1,3.38.27,0,.54-.02.81-.08,2.27-.44,3.74-2.64,3.3-4.9l-1.97-10.07Z"/>
  <path class="ab" d="M80.03,126.07c-.44-2.27-2.63-3.75-4.9-3.3-2.27.44-3.74,2.64-3.3,4.9l1.97,10.07c.39,2,2.14,3.38,4.1,3.38.27,0,.54-.02.81-.08,2.27-.44,3.74-2.64,3.3-4.9l-1.97-10.07Z"/>
  <path class="ab" d="M93.49,216.74c-2.26.44-3.74,2.64-3.3,4.9l.96,4.92c.39,1.99,2.14,3.38,4.1,3.38.27,0,.54-.02.81-.08,2.26-.44,3.74-2.64,3.3-4.9l-.96-4.92c-.44-2.26-2.64-3.75-4.9-3.3Z"/>
  <path class="ab" d="M65.01,150.11l-.18,5.01c-.08,2.31,1.72,4.24,4.03,4.33.05,0,.1,0,.15,0,2.24,0,4.09-1.77,4.17-4.03l.18-5.01c.08-2.31-1.72-4.24-4.02-4.33-2.31-.12-4.24,1.72-4.33,4.02Z"/>
  <path class="ab" d="M63.88,181.34c-.08,2.31,1.72,4.24,4.02,4.33.05,0,.1,0,.16,0,2.24,0,4.09-1.77,4.17-4.03l.41-11.24c.08-2.31-1.72-4.24-4.02-4.33-2.31-.07-4.24,1.72-4.33,4.02l-.41,11.24Z"/>
  <path class="ab" d="M62.93,207.56c-.08,2.31,1.72,4.24,4.02,4.33.05,0,.1,0,.16,0,2.24,0,4.09-1.77,4.17-4.03l.41-11.24c.08-2.31-1.72-4.24-4.02-4.33-2.29-.09-4.24,1.72-4.33,4.02l-.41,11.24Z"/>
  <path class="ab" d="M62.2,227.56c-.08,2.31,1.72,4.24,4.02,4.33.05,0,.1,0,.16,0,2.24,0,4.09-1.77,4.17-4.03l.18-5.01c.08-2.31-1.72-4.24-4.03-4.33-2.27-.12-4.24,1.72-4.33,4.02l-.18,5.01Z"/>
  <path class="ab" d="M109.34,201.2l-2.74,8.48c-.71,2.2.5,4.55,2.69,5.26.43.14.86.2,1.28.2,1.76,0,3.4-1.13,3.98-2.9l2.74-8.48c.71-2.2-.5-4.55-2.69-5.26-2.19-.71-4.55.5-5.26,2.69Z"/>
  <path class="ab" d="M122.13,161.62l-2.74,8.48c-.71,2.2.5,4.55,2.69,5.26.43.14.86.2,1.29.2,1.76,0,3.4-1.13,3.98-2.9l2.74-8.48c.71-2.2-.5-4.55-2.69-5.26-2.2-.71-4.55.49-5.26,2.69Z"/>
  <path class="ab" d="M115.73,181.41l-2.74,8.48c-.71,2.2.5,4.55,2.69,5.26.43.14.86.2,1.29.2,1.76,0,3.4-1.13,3.98-2.9l2.74-8.48c.71-2.2-.5-4.55-2.69-5.26-2.2-.71-4.55.49-5.26,2.69Z"/>
  <path class="ab" d="M128.52,141.82l-2.74,8.48c-.71,2.2.5,4.55,2.69,5.26.43.14.86.2,1.29.2,1.76,0,3.4-1.13,3.98-2.9l2.74-8.48c.71-2.2-.5-4.55-2.69-5.26-2.2-.72-4.55.49-5.26,2.69Z"/>
  <path class="ab" d="M102.95,220.99l-1.54,4.77c-.71,2.2.5,4.55,2.69,5.26.43.14.86.2,1.29.2,1.76,0,3.4-1.13,3.98-2.9l1.54-4.77c.71-2.2-.5-4.55-2.69-5.26-2.2-.71-4.55.49-5.26,2.69Z"/>
  <path class="ab" d="M158.65,221.63l1.16,4.88c.46,1.92,2.17,3.21,4.06,3.21.32,0,.64-.04.97-.11,2.24-.53,3.63-2.79,3.1-5.03l-1.16-4.88c-.53-2.24-2.79-3.63-5.03-3.1-2.24.53-3.63,2.79-3.1,5.03Z"/>
  <path class="ab" d="M160.88,194.84c-.53-2.24-2.79-3.63-5.03-3.1-2.24.53-3.63,2.79-3.1,5.03l2.53,10.65c.46,1.92,2.17,3.21,4.06,3.21.32,0,.64-.04.97-.11,2.24-.53,3.63-2.79,3.1-5.03l-2.53-10.65Z"/>
  <path class="ab" d="M154.98,169.99c-.53-2.25-2.8-3.63-5.03-3.1-2.25.53-3.63,2.79-3.1,5.03l2.53,10.65c.46,1.92,2.17,3.22,4.06,3.22.32,0,.64-.04.97-.11,2.25-.53,3.63-2.79,3.1-5.03l-2.53-10.65Z"/>
  <path class="ab" d="M149.07,145.14c-.53-2.24-2.79-3.63-5.03-3.1-2.24.53-3.63,2.79-3.1,5.03l2.53,10.65c.46,1.92,2.17,3.21,4.06,3.21.32,0,.64-.04.97-.11,2.24-.53,3.63-2.79,3.1-5.03l-2.53-10.65Z"/>
  <path class="ab" d="M144.54,126.06c-.54-2.24-2.79-3.63-5.03-3.1-.15.03-.28.1-.41.14-.04-.02-.08-.04-.12-.05-2.2-.71-4.55.49-5.26,2.69l-1.54,4.77c-.71,2.2.5,4.55,2.69,5.26.43.14.86.2,1.29.2.99,0,1.94-.37,2.68-.99.76.69,1.75,1.1,2.8,1.1.32,0,.64-.04.97-.11,2.24-.53,3.63-2.79,3.1-5.03l-1.16-4.88Z"/>
  <path class="ab" d="M135.37,216.29c-2.26-.09-4.26,1.67-4.38,3.97l-.24,5.01c-.11,2.31,1.67,4.26,3.97,4.38.07,0,.14,0,.2,0,2.22,0,4.06-1.74,4.17-3.98l.24-5.01c.11-2.31-1.67-4.26-3.97-4.38Z"/>
  <path class="ab" d="M140.43,198.24c.11-2.31-1.67-4.27-3.97-4.38-2.26-.13-4.27,1.67-4.38,3.97l-.47,9.61c-.11,2.31,1.67,4.27,3.97,4.38.07,0,.14,0,.21,0,2.22,0,4.06-1.74,4.17-3.98l.47-9.61Z"/>
  <path class="ab" d="M141.52,175.82c.11-2.31-1.67-4.27-3.97-4.38-2.26-.12-4.27,1.67-4.38,3.97l-.47,9.61c-.11,2.31,1.67,4.27,3.97,4.38.07,0,.14,0,.21,0,2.22,0,4.06-1.74,4.17-3.98l.47-9.61Z"/>
  <path class="ab" d="M142.38,158c.11-2.31-1.67-4.26-3.97-4.38-2.31-.13-4.26,1.67-4.38,3.97l-.24,5.01c-.11,2.31,1.67,4.26,3.97,4.38.07,0,.14,0,.21,0,2.22,0,4.06-1.74,4.17-3.98l.24-5.01Z"/>
  <path class="ab" d="M71.31,102.05c2.77,0,5.02-2.24,5.02-5.02v-1.04c4.67,1.53,11.46,3.28,21.16,5.69,12.52,3.1,24.47,6.33,35.89,9.7v5.34c0,2.77,2.24,5.02,5.02,5.02s5.02-2.24,5.02-5.02v-2.29c19.67,6.12,37.77,12.71,54.61,19.87-2.14,10.39-1.86,21.27.85,32.87.09.42.22.84.35,1.25-.57,1.7-1.07,3.41-1.41,5.14-2.57-3.32-6.58-5.47-11.09-5.47-7.73,0-14.02,6.29-14.02,14.02v35.75c0,7.73,6.29,14.02,14.02,14.02,4.86,0,9.15-2.49,11.66-6.25,1.82,3.33,5.37,5.6,9.43,5.6,5.92,0,10.74-4.82,10.74-10.74v-15.93h19.86v16.11c0,5.92,4.82,10.74,10.74,10.74,4.09,0,7.65-2.3,9.47-5.68,2.53,3.71,6.78,6.16,11.6,6.16,7.73,0,14.02-6.29,14.02-14.02v-35.75c0-7.73-6.29-14.02-14.02-14.02-4.7,0-8.85,2.33-11.4,5.89-.3-1.75-.72-3.53-1.22-5.33.18-.5.31-.96.42-1.45,2.5-11.46,2.69-22.33.57-32.9,16.86-7.17,34.97-13.76,54.65-19.88v2.29c0,2.77,2.24,5.02,5.02,5.02s5.02-2.24,5.02-5.02v-5.34c11.42-3.37,23.36-6.6,35.89-9.7,9.7-2.41,16.49-4.16,21.16-5.69v1.04c0,2.77,2.24,5.02,5.02,5.02s5.02-2.24,5.02-5.02v-8.22c0-2.2-1.42-4.04-3.39-4.72-3.61-1.85-11.59-2.63-28.79-3.49-18.1-.91-37.99-1.59-59.1-2.02-.04,0-.08-.01-.12-.01-22.09-.47-45.83-.68-70.61-.62-24.81-.05-48.54.16-70.55.63-.11,0-.14,0-.17,0-21.13.43-41.02,1.11-59.13,2.02-17.2.86-25.18,1.63-28.79,3.49-1.97.68-3.39,2.52-3.39,4.72v8.22c0,2.77,2.24,5.02,5.02,5.02ZM192.39,217.87c0,3.12-2.54,5.66-5.66,5.66s-5.66-2.54-5.66-5.66v-35.75c0-3.12,2.54-5.66,5.66-5.66s5.66,2.54,5.66,5.66v35.75ZM264.55,182.12c0-3.12,2.54-5.66,5.66-5.66s5.66,2.54,5.66,5.66v35.75c0,3.12-2.54,5.66-5.66,5.66s-5.66-2.54-5.66-5.66v-35.75ZM171.01,114.82c-8.28-2.95-16.84-5.8-25.72-8.55l11.91-15.88,13.81,24.43ZM164.78,86.8c11.43-.21,23.28-.36,35.49-.44l-19.9,28.03-15.6-27.59ZM186.29,120.51l20.84-29.37,9,20.17h-13.18c-2.31,0-4.18,1.87-4.18,4.18s1.78,4.07,4.01,4.16c-.97,2.15-1.82,4.32-2.56,6.51-4.56-1.93-9.2-3.81-13.94-5.66ZM249.15,193.27c-2.85,0-5.43,1.12-7.36,2.94h-.58v-29.34h6.72s.55.38,1.14,2.3c2.73,8.79,2.79,16.68.21,24.11-.05,0-.09,0-.14,0ZM215.36,196.2c-1.94-1.92-4.61-3.11-7.55-3.11-.09,0-.18.01-.27.01-2.83-8.25-2.8-16.2.16-23.64.65-1.65,1.04-2.31,1.28-2.57h6.92s0,29.3,0,29.3h-.54ZM222.62,119.67h22.11c.31.26.79,1.14,1.43,2.65,5.01,11.81,6.59,23.89,4.82,36.76-1.1-.42-2.13-.55-2.94-.55h-39.2c-1.15,0-2.14.21-3.02.56-2.02-13.17-.41-25.23,4.93-36.8.39-.84,1.02-2.21,1.43-2.63h2.17s8.27,0,8.27,0ZM232.85,166.9v29.11h-8.6v-29.11h8.6ZM210.19,220.49c0,1.31-1.07,2.38-2.38,2.38s-2.38-1.07-2.38-2.38v-16.66c.97.44,2.09.73,3.41.73h1.35v15.93ZM251.53,220.66c0,1.31-1.07,2.38-2.38,2.38s-2.38-1.07-2.38-2.38v-16.11h1.27c1.34,0,2.48-.3,3.47-.78,0,.08.02.15.02.23v16.66ZM254.09,119.65c2.23-.09,4.02-1.91,4.02-4.16s-1.87-4.18-4.18-4.18h-13.42l9-20.17,20.84,29.36c-4.72,1.84-9.34,3.71-13.88,5.63-.69-2.17-1.48-4.32-2.37-6.47ZM276.26,114.4l-19.89-28.02c12.21.08,24.06.22,35.49.43l-15.6,27.59ZM299.43,90.39l11.91,15.88c-8.88,2.75-17.44,5.6-25.72,8.55l13.81-24.43ZM371.65,89.83c-5.08,1.4-10.8,2.82-14.51,3.74-13.02,3.23-25.42,6.59-37.28,10.11l-12.41-16.54c17.86.43,34.74,1.04,50.3,1.82,5.85.29,10.39.58,13.9.87ZM228.33,86.31c4.77,0,9.49,0,14.17,0l-11.15,25h-6.07l-11.15-25c4.69,0,9.41-.01,14.19,0ZM98.89,88.96c15.56-.78,32.44-1.39,50.3-1.82l-12.41,16.54c-11.86-3.52-24.25-6.88-37.28-10.11-3.71-.92-9.43-2.34-14.51-3.74,3.51-.28,8.05-.58,13.9-.87Z"/>
</svg>
