<?xml version='1.0' encoding='UTF-8'?>
<svg xmlns="http://www.w3.org/2000/svg" id="h" data-name="Vache" viewBox="0 0 453.54 453.54">
  <defs>
    <style>
      .ab {
        fill: none;
        stroke: #8A5301;
        stroke-linecap: round;
        stroke-linejoin: round;
        stroke-width: 12px;
      }
    </style>
  </defs>
  <path class="ab" d="M50.95,159.53s-8.24-39.92,48.16-36.44c56.4,3.47,112.37,15.96,157.49,6.24l71.15,5.04s5.64-16.49,9.98-16.49,14.32,11.19,11.28,11.45c0,0,14.75-15.36,8.24-30.97,0,0,9.54,16.05,4.77,24.3,0,0,9.98-2.6,13.02-.43,0,0,16.92-13.02,14.75-23.86,0,0,5.21,18.66-7.81,30.59,0,0,13.45-10.2,23.43-6.29,0,0,3.47,12.58-18.22,17.35,0,0,.43,24.73,8.24,32.54,7.81,7.81,10.18,20.78,10.18,20.78l-4.11,12.19h-20.39l-11.71-5.64-16.05-3.13-54.23,68.21-11.71,3.9s8.24,17.35-7.38,31.67c0,0-9.98,25.16,4.34,34.71,0,0,6.51,9.98,6.07,12.15,0,0-4.77,1.3-15.19,0l2.6,8.24s-15.19,5.26-21.69-3.22c0,0,3.04-7.43-6.94-8.18,0,0,5.21-31.98,3.04-44.57,0,0,4.34-45.46-11.71-45.29-16.05.17-62.91,4.23-81.13-7.13l-22.56,15.97.43,9.11-8.68-8.24-.87,16.49-6.94-4.34s-5.64,50.09,27.77,68c0,0-13.02,17.04-29.07-5.52,0,0-16.92-69.42-29.5-72.02,0,0-37.31,59.44-1.3,93.28,0,0-25.6,8.24-26.47-9.54,0,0,2.6-6.75-7.81-6.19,0,0,11.28-38.06-8.24-63.22,0,0-3.9-27.33,4.34-29.94l.43-91.54Z"/>
</svg>
