<?xml version='1.0' encoding='UTF-8'?>
<svg xmlns="http://www.w3.org/2000/svg" id="ao" data-name="Baisse agri" viewBox="0 0 453.54 453.54">
  <defs>
    <style>
      .aq {
        fill: none;
        stroke: #8A5301;
        stroke-linecap: round;
        stroke-miterlimit: 10;
        stroke-width: 11.8px;
      }

      .ar {
        fill: #8A5301;
        stroke-width: 0px;
      }
    </style>
  </defs>
  <g>
    <g>
      <path class="aq" d="M82.93,349.43c48.51,10.99,103.77,30.47,157.16,64.2"/>
      <path class="aq" d="M311.2,413.63c-76.19-61.54-161.47-88.65-228.27-100.13"/>
      <path class="aq" d="M82.93,313.5c66.8,11.48,152.07,38.59,228.27,100.13"/>
      <path class="aq" d="M368.8,408.75c-93.88-90.37-208.38-120.42-285.87-129.65"/>
      <path class="aq" d="M82.93,279.1c77.49,9.23,191.99,39.28,285.87,129.65"/>
      <path class="aq" d="M368.8,353.19c-100.62-81.23-217.08-102.44-285.87-106.98"/>
    </g>
    <g>
      <path class="aq" d="M372.37,237.79c-33.19,5.54-67.62,14.9-102.06,29.63,34.44-14.73,68.87-24.09,102.06-29.63"/>
      <path class="aq" d="M320.14,293.09c17.56-6.02,35.02-10.76,52.23-14.41"/>
    </g>
    <line class="aq" x1="230.68" y1="206.2" x2="230.68" y2="258.09"/>
    <path class="aq" d="M255.93,206.2c0,16.64-11.31,30.13-25.25,30.13s-25.25-13.49-25.25-30.13,25.25-49.46,25.25-49.46c0,0,25.25,32.82,25.25,49.46Z"/>
  </g>
  <g>
    <polyline class="aq" points="75.7 39.03 228.03 121.7 260.03 80.7 352.09 143.62"/>
    <polygon class="ar" points="333.6 158.78 379.36 162.27 359.5 120.89 333.6 158.78"/>
  </g>
</svg>
