<?xml version='1.0' encoding='UTF-8'?>
<svg xmlns="http://www.w3.org/2000/svg" id="f" data-name="Arrosage" viewBox="0 0 453.54 453.54">
  <defs>
    <style>
      .ab {
        stroke-width: 12px;
      }

      .ab, .ac {
        fill: none;
        stroke: #8A5301;
        stroke-linecap: round;
        stroke-linejoin: round;
      }

      .ac {
        stroke-width: 10.96px;
      }
    </style>
  </defs>
  <path class="ac" d="M251.17,80.59c-.95-1.75-2.13-3.46-3.52-5.08l-21.96-31.04-21.95,31.03c-1.39,1.62-2.58,3.33-3.52,5.08-2.29,4.21-3.5,8.98-3.5,13.81,0,15.98,13,28.98,28.98,28.98s28.98-13,28.98-28.98c0-4.82-1.21-9.6-3.5-13.8Z"/>
  <path class="ac" d="M360.39,75.52l-21.96-31.04-21.96,31.04c-1.39,1.62-2.57,3.33-3.51,5.07-2.29,4.21-3.5,8.98-3.5,13.81,0,15.98,13,28.98,28.98,28.98s28.98-13,28.98-28.98c0-4.83-1.21-9.6-3.49-13.8-.94-1.73-2.12-3.44-3.52-5.07Z"/>
  <path class="ac" d="M136.87,80.59c-.94-1.74-2.12-3.45-3.52-5.07l-21.97-31.04-21.96,31.04c-1.4,1.63-2.58,3.34-3.52,5.07-2.29,4.21-3.5,8.98-3.5,13.81,0,15.98,13,28.98,28.98,28.98s28.98-13,28.98-28.98c0-4.82-1.21-9.6-3.5-13.8Z"/>
  <path class="ac" d="M304.8,155.68l-21.96-31.04-21.96,31.03c-1.39,1.63-2.58,3.33-3.52,5.08-2.29,4.21-3.5,8.99-3.5,13.8,0,15.98,13,28.98,28.98,28.98s28.98-13,28.98-28.98c0-4.81-1.21-9.59-3.5-13.82-.95-1.74-2.13-3.43-3.51-5.05Z"/>
  <path class="ac" d="M190.49,155.67l-21.96-31.03-21.96,31.03c-1.39,1.63-2.58,3.33-3.52,5.08-2.29,4.21-3.5,8.99-3.5,13.8,0,15.98,13,28.98,28.98,28.98s28.98-13,28.98-28.98c0-4.81-1.21-9.58-3.49-13.8-.95-1.75-2.13-3.45-3.53-5.08Z"/>
  <g>
    <g>
      <path class="ab" d="M75.02,361.26c53.36,11.54,114.14,31.98,172.87,67.39"/>
      <path class="ab" d="M326.1,428.65c-83.81-64.6-177.6-93.05-251.08-105.11"/>
      <path class="ab" d="M75.02,323.55c73.48,12.05,167.27,40.5,251.08,105.11"/>
      <path class="ab" d="M389.46,423.53c-103.27-94.86-229.21-126.4-314.44-136.09"/>
      <path class="ab" d="M75.02,287.44c85.23,9.69,211.18,41.23,314.44,136.09"/>
      <path class="ab" d="M389.46,365.21c-110.67-85.27-238.77-107.53-314.44-112.3"/>
    </g>
    <g>
      <path class="ab" d="M403.65,238.12c-37.68,6-76.78,16.14-115.88,32.1,39.1-15.96,78.2-26.1,115.88-32.1"/>
      <path class="ab" d="M344.35,298.04c19.94-6.53,39.77-11.66,59.3-15.62"/>
    </g>
  </g>
</svg>
