<?xml version='1.0' encoding='UTF-8'?>
<svg xmlns="http://www.w3.org/2000/svg" id="w" data-name="Prairie" viewBox="0 0 453.54 453.54">
  <defs>
    <style>
      .ab {
        fill: #fff;
        stroke: #8A5301;
        stroke-linecap: round;
        stroke-linejoin: round;
        stroke-width: 12px;
      }
    </style>
  </defs>
  <line class="ab" x1="44.46" y1="359.1" x2="409.88" y2="359.1"/>
  <path class="ab" d="M364.74,161.46s-49.49,42-57.69,149.48c-18.18,8.1,15.62-127.01-27.66-139.57,0,0,20.23,72.58-26.89,135.95-17.67-27.08,4.87-174.19,4.87-174.19-46.1,35.45-36.67,120.8-36.36,153.81-6.88-35.27-25.25-62.52-6.4-177.45,0,0-38.6,120.07-35.08,211.22-2.25-4.36-29.67-24.22-5.38-136.41,0,0-32.33,40.87-40.87,120.77-4.42-116.28-65.15-176.41-65.15-176.41,62.43,218.88,22.35,229.27,22.35,229.27l295.76,1.17s-49.15-29.03-21.49-197.64Z"/>
</svg>
