<?xml version='1.0' encoding='UTF-8'?>
<svg xmlns="http://www.w3.org/2000/svg" id="p" data-name="Plante arrosage" viewBox="0 0 453.54 453.54">
  <defs>
    <style>
      .ab {
        fill: #8A5301;
        stroke-width: 0px;
      }
    </style>
  </defs>
  <path class="ab" d="M272.3,173.91c-6.85,2.71-13.39,6.92-19.43,12.5-2.16,1.99-2.3,5.36-.3,7.52,1.05,1.14,2.48,1.71,3.91,1.71,1.29,0,2.58-.47,3.61-1.41,5.08-4.69,10.51-8.2,16.13-10.42,2.73-1.08,4.07-4.17,2.99-6.91-1.08-2.73-4.17-4.07-6.91-2.99Z"/>
  <path class="ab" d="M317.64,140.54c-1.26,2.65-.14,5.83,2.51,7.09,5.45,2.6,10.74,6.42,15.73,11.36,1.04,1.03,2.39,1.54,3.75,1.54s2.74-.53,3.78-1.58c2.07-2.09,2.05-5.46-.03-7.53-5.83-5.78-12.11-10.29-18.64-13.4-2.65-1.26-5.83-.14-7.09,2.51Z"/>
  <path class="ab" d="M298.86,143.7c2.93-.28,5.07-2.88,4.78-5.81-.28-2.93-2.87-5.07-5.81-4.78-7.59.73-15.05,3.23-22.17,7.41-2.53,1.49-3.38,4.75-1.89,7.28.99,1.69,2.77,2.63,4.59,2.63.92,0,1.84-.24,2.69-.73,5.78-3.4,11.77-5.41,17.8-6Z"/>
  <path class="ab" d="M297.77,181.52c6.26,1,11.98,3.41,17.02,7.18.96.72,2.07,1.06,3.18,1.06,1.62,0,3.22-.74,4.26-2.13,1.76-2.35,1.28-5.69-1.07-7.45-6.43-4.81-13.74-7.9-21.72-9.17-2.88-.47-5.63,1.51-6.09,4.42-.46,2.9,1.52,5.63,4.42,6.09Z"/>
  <path class="ab" d="M226.79,220.93c-.37,1.64.07,3.28,1.06,4.5-.22.6-.44,1.2-.66,1.81-.98,2.77.47,5.81,3.24,6.79.59.21,1.18.31,1.77.31,2.19,0,4.24-1.36,5.02-3.55,2.32-6.57,5.18-12.76,8.48-18.38,1.49-2.53.64-5.8-1.89-7.28-.46-.27-.93-.46-1.42-.58.14-.4.27-.79.41-1.18.89-2.56-.28-5.34-2.64-6.51.13-.53.25-1.06.38-1.59.7-2.85-1.05-5.74-3.9-6.44-2.86-.7-5.74,1.05-6.44,3.9-1.69,6.89-3.13,14.06-4.29,21.29-.28,1.72.3,3.37,1.43,4.54-.19.79-.37,1.59-.54,2.38Z"/>
  <path class="ab" d="M260.41,133.63c.94.67,2.02,1,3.09,1,1.66,0,3.29-.77,4.33-2.22,4.15-5.8,8.6-10.94,13.22-15.3,2.14-2.02,2.24-5.38.22-7.52-2.02-2.14-5.38-2.24-7.52-.22-5.12,4.83-10.02,10.5-14.57,16.85-1.71,2.39-1.16,5.71,1.23,7.43Z"/>
  <path class="ab" d="M340.7,102.8c5.9,2.18,11.55,5.44,16.78,9.7.99.81,2.18,1.2,3.36,1.2,1.54,0,3.08-.67,4.13-1.96,1.86-2.28,1.52-5.63-.76-7.49-6.14-5.01-12.81-8.86-19.82-11.44-2.76-1.01-5.82.4-6.83,3.15-1.02,2.76.39,5.82,3.15,6.83Z"/>
  <path class="ab" d="M240.72,175.22c.98.36,1.99.41,2.94.2-.17.31-.35.62-.52.93-1.42,2.57-.48,5.81,2.09,7.23.81.45,1.7.66,2.56.66,1.88,0,3.7-.99,4.67-2.75,3.44-6.24,7.25-11.87,11.34-16.75,1.89-2.25,1.59-5.61-.66-7.5-2.26-1.89-5.61-1.59-7.5.66-1.84,2.2-3.63,4.53-5.36,6.98,1.68-4.12,3.46-8.1,5.33-11.9,1.3-2.64.22-5.83-2.42-7.13-2.63-1.3-5.83-.22-7.13,2.42-3.11,6.31-5.99,13.08-8.54,20.13-1,2.76.42,5.82,3.19,6.82Z"/>
  <path class="ab" d="M403.32,213.83c1.19,6.69,2.26,13.69,3.17,20.8.34,2.69,2.63,4.65,5.27,4.65.23,0,.45-.01.68-.04,2.92-.37,4.98-3.04,4.6-5.95-.93-7.29-2.02-14.47-3.25-21.33-.52-2.89-3.28-4.82-6.17-4.3-2.89.52-4.82,3.28-4.3,6.17Z"/>
  <path class="ab" d="M383.31,147.43c.92,1.9,2.82,3.01,4.79,3.01.78,0,1.57-.17,2.31-.53,2.65-1.28,3.75-4.46,2.48-7.11-3.4-7.02-7.12-13.46-11.06-19.14-1.68-2.41-4.99-3.01-7.41-1.33-2.41,1.68-3.01,4.99-1.33,7.41,3.63,5.22,7.06,11.17,10.22,17.69Z"/>
  <path class="ab" d="M215.16,239.91c.12,1.71.24,3.42.33,5.15-.21.67-.28,1.39-.2,2.13.2,1.85.37,3.71.52,5.58.07,2.67.11,5.36.11,8.03,0,.73.15,1.43.41,2.06.04,1.67.07,3.34.07,5.01,0,1.87.96,3.51,2.42,4.46,0,.66.01,1.31.01,1.97,0,3.02,2.56,5.46,5.58,5.32.08,0,.17,0,.25,0,2.94,0,5.32-2.38,5.32-5.32,0-.66,0-1.31.01-1.97,1.46-.95,2.42-2.59,2.42-4.46,0-1.66.02-3.33.06-4.99.27-.64.42-1.34.42-2.08,0-3.14.05-6.3.15-9.44.11-1.42.23-2.83.37-4.23.06-.6.01-1.18-.12-1.74.1-1.84.21-3.66.34-5.48.21-2.93-2-5.48-4.93-5.69-1.7-.12-3.25.56-4.31,1.72-1.06-1.16-2.62-1.84-4.32-1.72-2.93.21-5.13,2.76-4.92,5.7Z"/>
  <path class="ab" d="M392.36,169.84c2.11,6.27,4.08,13,5.85,20.03.61,2.41,2.78,4.02,5.16,4.02.43,0,.87-.05,1.3-.16,2.85-.72,4.58-3.61,3.86-6.46-1.84-7.29-3.89-14.3-6.08-20.83-.94-2.79-3.95-4.28-6.74-3.34-2.78.94-4.28,3.96-3.34,6.74Z"/>
  <path class="ab" d="M415.98,299.53c-2.94.08-5.26,2.52-5.18,5.46.22,8.57.43,16.93.5,21.28.05,2.91,2.42,5.23,5.32,5.23.03,0,.06,0,.1,0,2.94-.05,5.28-2.48,5.23-5.41-.08-4.37-.28-12.77-.5-21.38-.08-2.94-2.57-5.23-5.46-5.18Z"/>
  <path class="ab" d="M343.26,253.67l.18,1.2c.4,2.63,2.67,4.51,5.25,4.51.27,0,.54-.02.82-.06,2.91-.45,4.9-3.16,4.45-6.07l-.18-1.19c-.25-1.65-.55-3.6-.91-5.78-.48-2.9-3.22-4.86-6.12-4.38-2.9.48-4.86,3.22-4.38,6.12.36,2.14.64,4.04.89,5.65Z"/>
  <path class="ab" d="M347.12,221.34c-2.41-7.69-5.32-14.63-8.65-20.61-1.43-2.57-4.67-3.49-7.24-2.06-2.57,1.43-3.49,4.67-2.06,7.24,2.98,5.36,5.6,11.62,7.79,18.62.71,2.28,2.81,3.73,5.08,3.73.53,0,1.06-.08,1.59-.25,2.8-.88,4.37-3.86,3.49-6.67Z"/>
  <path class="ab" d="M351.97,170.29c-2.53,1.5-3.36,4.77-1.86,7.29,3.32,5.59,6.34,11.77,8.98,18.37.83,2.08,2.83,3.34,4.94,3.34.66,0,1.33-.12,1.98-.38,2.73-1.09,4.06-4.19,2.96-6.92-2.85-7.11-6.11-13.78-9.71-19.84-1.5-2.53-4.76-3.36-7.29-1.86Z"/>
  <path class="ab" d="M377.94,257.98c-2.92.38-4.97,3.04-4.6,5.96.55,4.28.97,7.53,1.07,8.36.32,2.71,2.62,4.7,5.28,4.7.21,0,.42-.01.63-.04,2.92-.34,5.01-2.99,4.67-5.91-.1-.85-.52-4.14-1.08-8.48-.38-2.92-3.05-4.98-5.96-4.6Z"/>
  <path class="ab" d="M366.36,218.88c1.2,4.93,2.22,10.03,3.03,15.16.09.6.36,2.54.72,5.24.36,2.67,2.64,4.62,5.27,4.62.24,0,.47-.02.71-.05,2.91-.39,4.96-3.07,4.57-5.98-.38-2.83-.66-4.86-.76-5.49-.86-5.42-1.94-10.8-3.2-16-.69-2.85-3.57-4.61-6.42-3.92-2.86.69-4.61,3.57-3.92,6.43Z"/>
  <path class="ab" d="M408.96,259.09c.49,6.49.86,13.02,1.09,19.41l.06,1.64c.09,2.88,2.45,5.15,5.31,5.15.06,0,.12,0,.17,0,2.94-.1,5.24-2.55,5.15-5.49l-.06-1.69c-.24-6.52-.61-13.19-1.12-19.82-.22-2.93-2.78-5.12-5.71-4.9-2.93.22-5.13,2.78-4.9,5.71Z"/>
  <path class="ab" d="M208.1,195.32c.12.48.24.96.36,1.44-.07.02-.14.05-.2.07-2.75,1.03-4.15,4.1-3.12,6.85.15.39.29.78.43,1.17-.19.08-.38.18-.56.28-2.53,1.49-3.38,4.75-1.89,7.28,3.3,5.62,6.15,11.81,8.48,18.38.77,2.18,2.83,3.55,5.02,3.55.59,0,1.19-.1,1.77-.31,2.77-.98,4.22-4.02,3.24-6.79-.26-.74-.53-1.48-.81-2.21.75-1.18,1.04-2.65.69-4.12-.16-.66-.33-1.33-.49-1.99,1.37-1.17,2.12-3.01,1.8-4.92-1.19-7.23-2.67-14.39-4.4-21.28-.72-2.85-3.61-4.59-6.46-3.86-2.85.72-4.58,3.61-3.86,6.46Z"/>
  <path class="ab" d="M63.47,257.2c-.01.95-.02,1.89-.02,2.81v.18c-.06,2.94,2.28,5.37,5.22,5.42.03,0,.07,0,.1,0,2.89,0,5.26-2.32,5.32-5.22v-.38c0-.87.01-1.75.02-2.65.04-2.94-2.3-5.36-5.24-5.4-2.9-.08-5.36,2.3-5.4,5.24Z"/>
  <path class="ab" d="M79.6,192.7c.63.24,1.28.36,1.91.36,2.14,0,4.15-1.3,4.97-3.41,2.6-6.74,5.58-12.9,8.86-18.29,1.52-2.51.72-5.78-1.79-7.31-2.51-1.52-5.79-.72-7.31,1.79-3.6,5.93-6.86,12.66-9.69,19.99-1.06,2.74.31,5.82,3.05,6.88Z"/>
  <path class="ab" d="M57.49,151.21c.74.35,1.51.52,2.28.52,1.99,0,3.9-1.12,4.81-3.04,3.11-6.54,6.5-12.52,10.1-17.76,1.66-2.42,1.04-5.74-1.38-7.4-2.43-1.66-5.74-1.04-7.4,1.38-3.91,5.7-7.59,12.16-10.93,19.21-1.26,2.66-.13,5.83,2.53,7.09Z"/>
  <path class="ab" d="M33.46,300.96c-2.96.01-5.34,2.41-5.32,5.35l.04,7.54c.02,2.93,2.4,5.29,5.32,5.29,2.97-.02,5.34-2.42,5.32-5.36l-.04-7.52c-.01-2.93-2.39-5.3-5.32-5.3Z"/>
  <path class="ab" d="M33.38,286.77c2.96,0,5.34-2.36,5.36-5.29.01-2.04.03-3.58.07-4.43.21-5.47.51-11.02.89-16.51.21-2.93-2-5.47-4.94-5.68-2.93-.21-5.48,2-5.68,4.94-.39,5.6-.7,11.27-.91,16.86-.03.92-.06,2.58-.07,4.76-.02,2.94,2.35,5.34,5.29,5.36Z"/>
  <path class="ab" d="M86.8,114.83c1.19,0,2.39-.4,3.38-1.21,5.21-4.29,10.83-7.58,16.73-9.78,2.75-1.03,4.15-4.09,3.12-6.85-1.03-2.75-4.1-4.15-6.85-3.13-7,2.61-13.66,6.49-19.77,11.53-2.27,1.87-2.59,5.22-.72,7.49,1.05,1.28,2.57,1.94,4.11,1.94Z"/>
  <path class="ab" d="M43.56,195.14c.42.1.85.15,1.27.15,2.4,0,4.57-1.63,5.17-4.06,1.72-7.03,3.64-13.78,5.7-20.07.92-2.79-.6-5.8-3.39-6.72-2.79-.92-5.8.6-6.72,3.39-2.15,6.55-4.15,13.57-5.93,20.87-.7,2.85,1.05,5.74,3.91,6.43Z"/>
  <path class="ab" d="M36.1,240.69c.22.03.43.04.65.04,2.65,0,4.95-1.98,5.28-4.68.86-7.12,1.88-14.13,3.03-20.83.5-2.9-1.45-5.65-4.35-6.14-2.88-.49-5.65,1.45-6.14,4.35-1.18,6.87-2.22,14.05-3.1,21.34-.35,2.92,1.73,5.57,4.64,5.92Z"/>
  <path class="ab" d="M75.9,233.17c.9-7,2.13-13.89,3.64-20.47.66-2.86-1.13-5.72-4-6.38-2.85-.65-5.72,1.13-6.38,4-1.59,6.91-2.87,14.14-3.82,21.48-.38,2.92,1.68,5.58,4.6,5.96.23.03.46.05.69.05,2.63,0,4.92-1.96,5.27-4.64Z"/>
  <path class="ab" d="M169.08,150.67c1.75,0,3.47-.87,4.48-2.45,1.59-2.47.87-5.77-1.61-7.35-6.98-4.48-14.23-7.39-21.54-8.67-2.89-.51-5.65,1.43-6.16,4.32-.51,2.9,1.43,5.65,4.32,6.16,5.91,1.04,11.84,3.44,17.63,7.15.89.57,1.88.84,2.87.84Z"/>
  <path class="ab" d="M149.43,170.95c-8.15,1.21-15.5,4.21-21.84,8.92-2.36,1.75-2.85,5.09-1.1,7.45,1.04,1.4,2.65,2.15,4.28,2.15,1.1,0,2.22-.34,3.17-1.05,4.92-3.65,10.66-5.99,17.06-6.94,2.91-.43,4.91-3.14,4.48-6.04-.43-2.91-3.14-4.92-6.05-4.48Z"/>
  <path class="ab" d="M184.06,157.8c-2.25,1.89-2.53,5.25-.64,7.5,4.15,4.92,8.04,10.54,11.58,16.69.98,1.71,2.78,2.67,4.62,2.67.9,0,1.81-.23,2.65-.71,2.55-1.46,3.43-4.72,1.96-7.27-.35-.61-.71-1.22-1.07-1.83,1.35.81,3.03,1.03,4.62.44,2.75-1.03,4.15-4.09,3.13-6.84-2.62-7.02-5.56-13.76-8.74-20.05-1.33-2.62-4.54-3.67-7.15-2.34-2.62,1.33-3.67,4.53-2.35,7.15,2.67,5.27,5.16,10.89,7.42,16.74-2.7-4.12-5.55-7.97-8.53-11.5-1.9-2.25-5.25-2.53-7.5-.64Z"/>
  <path class="ab" d="M172.6,183.8c5.62,2.23,11.05,5.73,16.13,10.42,1.02.94,2.32,1.41,3.61,1.41,1.43,0,2.86-.58,3.91-1.71,1.99-2.16,1.86-5.53-.3-7.52-6.05-5.58-12.59-9.78-19.43-12.5-2.73-1.08-5.83.26-6.91,2.99-1.08,2.73.26,5.82,2.99,6.91Z"/>
  <path class="ab" d="M180.22,132.77c1.04,1.42,2.66,2.17,4.29,2.17,1.1,0,2.2-.34,3.15-1.04,2.37-1.74,2.87-5.07,1.13-7.44-4.63-6.29-9.6-11.89-14.8-16.65-2.17-1.99-5.53-1.84-7.52.32-1.99,2.16-1.84,5.53.32,7.52,4.69,4.3,9.2,9.39,13.42,15.12Z"/>
  <path class="ab" d="M102.55,153.04c1.05,1.25,2.56,1.89,4.07,1.89,1.21,0,2.43-.41,3.42-1.25,5.08-4.27,10.66-7.4,16.61-9.3,2.8-.89,4.34-3.89,3.45-6.69-.89-2.8-3.9-4.35-6.69-3.45-7.28,2.32-14.09,6.13-20.23,11.3-2.25,1.89-2.54,5.25-.64,7.5Z"/>
  <path class="ab" d="M112.93,224.56c1.96-7.18,4.35-13.53,7.09-18.87,1.34-2.61.31-5.82-2.3-7.16-2.62-1.35-5.82-.31-7.16,2.3-3.08,6-5.73,13.04-7.89,20.92-.78,2.83.89,5.76,3.73,6.54.47.13.94.19,1.41.19,2.34,0,4.48-1.55,5.13-3.92Z"/>
  <path class="ab" d="M103.7,242.25c-2.92-.42-5.6,1.61-6.01,4.52-1.09,7.69-1.83,15.08-2.44,21.41-.28,2.93,1.86,5.53,4.79,5.81.17.02.35.02.52.02,2.71,0,5.03-2.06,5.29-4.81.6-6.21,1.33-13.47,2.38-20.94.41-2.91-1.61-5.6-4.52-6.01Z"/>
  <path class="ab" d="M6.64,350.43c24.64-2.21,49.44-4.02,74.31-5.47l-.76-27.08c-.41,0-.85.04-1.25.04-8.58,0-14.44-1.72-18.27-5.33-5.11-4.82-5.13-11.36-5.15-17.13-.02-5.7-.23-9.34-2.88-11.78-1.4-1.29-2.01-3.24-1.58-5.1.42-1.86,1.81-3.35,3.63-3.91,11.44-3.49,19.16-.28,23.63,3.02,7.68,5.69,12,16.23,12.23,29.75,1.26-1.43,2.67-2.63,4.23-3.62,5.68-3.6,12.9-4.02,21.44-1.24,1.75.57,3.08,2,3.52,3.79.44,1.79-.07,3.67-1.35,4.99-1.43,1.47-2.12,3.84-2.91,6.57-2.23,7.73-5.61,15.08-18.47,15.08-1.74,0-3.66-.15-5.77-.43l.33,11.8c37.08-1.99,74.28-3.12,111.36-3.39v-42.57c0-7.3,5.94-13.23,13.23-13.23h16.48c7.29,0,13.23,5.94,13.23,13.23v42.63c39.67.43,79.47,1.86,119.09,4.26l-.77-27.4c-.41,0-.85.04-1.25.04-8.58,0-14.44-1.72-18.27-5.33-5.11-4.82-5.13-11.36-5.15-17.13-.02-5.7-.23-9.34-2.88-11.78-1.4-1.29-2.01-3.24-1.58-5.1.42-1.86,1.81-3.35,3.63-3.91,11.44-3.49,19.17-.28,23.63,3.03,7.68,5.69,11.99,16.23,12.23,29.75,1.26-1.43,2.67-2.64,4.23-3.62,5.68-3.6,12.9-4.02,21.44-1.24,1.75.57,3.08,2,3.52,3.79.44,1.79-.07,3.67-1.35,4.99-1.43,1.47-2.11,3.83-2.9,6.57-2.23,7.73-5.61,15.08-18.47,15.08-1.74,0-3.67-.15-5.77-.43l.38,13.4c22.27,1.45,44.48,3.16,66.56,5.22,2.93.27,5.08,2.87,4.8,5.79-.26,2.76-2.58,4.83-5.29,4.83-.17,0-.33,0-.5-.02-72.98-6.81-147.33-10.27-220.99-10.27-43.99,0-88.24,1.24-132.28,3.68-.44.13-.89.23-1.38.24-.05,0-.1,0-.15,0-.34,0-.68-.04-1-.1-26.05,1.47-52.02,3.36-77.82,5.68l-.95-10.6ZM378.82,322.33c8.1.8,8.93-2.06,10.45-7.35.32-1.12.67-2.32,1.11-3.56-2.34-.06-4.31.39-5.89,1.39-2.95,1.87-4.67,5.66-5.67,9.52ZM363.92,307.07c-.27-9.72-3.12-17.26-7.92-20.81-2.02-1.5-4.4-2.31-7.1-2.43,1.24,3.93,1.26,8.02,1.27,11.6.02,4.82.15,7.86,1.81,9.43,1.29,1.21,4.45,2.54,11.8,2.43l.14-.21ZM94.8,322.33c8.1.8,8.93-2.06,10.46-7.35.32-1.12.67-2.32,1.11-3.56-2.35-.06-4.31.39-5.89,1.39-2.95,1.87-4.67,5.66-5.67,9.52ZM79.91,307.07c-.27-9.72-3.12-17.26-7.92-20.81-2.02-1.5-4.4-2.31-7.1-2.43,1.24,3.93,1.26,8.02,1.27,11.6.02,4.82.15,7.86,1.81,9.43,1.29,1.21,4.4,2.54,11.8,2.43l.14-.21ZM213.58,339.9h21.66v-41.49c0-1.4-1.18-2.59-2.59-2.59h-16.48c-1.4,0-2.59,1.19-2.59,2.59v41.49Z"/>
</svg>
