<?xml version='1.0' encoding='UTF-8'?>
<svg xmlns="http://www.w3.org/2000/svg" id="ap" data-name="évolution 3" viewBox="0 0 453.54 453.54">
  <defs>
    <style>
      .aq {
        fill: #144179;
        stroke-width: 0px;
      }

      .ar {
        stroke-linecap: round;
        stroke-linejoin: round;
      }

      .ar, .as {
        fill: none;
        stroke: #144179;
        stroke-width: 12px;
      }

      .as {
        stroke-miterlimit: 10;
      }
    </style>
  </defs>
  <line class="ar" x1="280.81" y1="278.98" x2="376.72" y2="375.25"/>
  <g>
    <g>
      <circle class="aq" cx="181.5" cy="104.93" r="19.09"/>
      <path class="aq" d="M191.97,261.73h-20.87c-2.45,0-4.49-1.47-4.67-3.36l-5.97-61.54,5.88-45.23c.24-1.86,2.26-3.27,4.66-3.27h21.08c2.41,0,4.43,1.42,4.66,3.29l5.64,45.43-5.73,61.31c-.18,1.9-2.22,3.37-4.67,3.37Z"/>
      <path class="aq" d="M208.42,198.12l-27.25,9.34-26.31-9.33c-1.64-.58-2.76-2.09-2.86-3.82l-2.38-44.51c-.56-10.54,7.84-19.4,18.4-19.4h27.11c10.53,0,18.92,8.82,18.4,19.34l-2.21,44.53c-.09,1.76-1.24,3.28-2.9,3.85Z"/>
    </g>
    <g>
      <circle class="as" cx="253.73" cy="115.87" r="13.93" transform="translate(49.58 305.95) rotate(-67.5)"/>
      <path class="as" d="M263.68,144.47h-19.78c-7.71,0-13.83,6.46-13.42,14.16l1.73,32.48c.07,1.27.89,2.37,2.08,2.79l4.32,1.53,4.12,42.42c.13,1.38,1.62,2.45,3.41,2.45h15.23c1.79,0,3.28-1.07,3.41-2.46l3.96-42.37,4.63-1.59c1.21-.42,2.05-1.53,2.12-2.81l1.61-32.5c.38-7.68-5.74-14.11-13.43-14.11Z"/>
    </g>
    <g>
      <circle class="as" cx="107.45" cy="115.87" r="13.93" transform="translate(-40.72 170.8) rotate(-67.5)"/>
      <path class="as" d="M117.4,144.47h-19.78c-7.71,0-13.83,6.46-13.42,14.16l1.73,32.48c.07,1.27.89,2.37,2.08,2.79l4.32,1.53,4.12,42.42c.13,1.38,1.62,2.45,3.41,2.45h15.23c1.79,0,3.28-1.07,3.41-2.46l3.96-42.37,4.63-1.59c1.21-.42,2.05-1.53,2.12-2.81l1.61-32.5c.38-7.68-5.74-14.11-13.43-14.11Z"/>
    </g>
    <path class="aq" d="M178.14,46.01c34.38,0,66.7,13.39,91.01,37.7,24.31,24.31,37.7,56.63,37.7,91.01s-13.39,66.7-37.7,91.01c-24.31,24.31-56.63,37.7-91.01,37.7s-66.7-13.39-91.01-37.7-37.7-56.63-37.7-91.01,13.39-66.7,37.7-91.01c24.31-24.31,56.63-37.7,91.01-37.7M178.14,34.01c-77.71,0-140.71,63-140.71,140.71s63,140.71,140.71,140.71,140.71-63,140.71-140.71S255.85,34.01,178.14,34.01h0Z"/>
  </g>
</svg>
