<?xml version='1.0' encoding='UTF-8'?>
<svg xmlns="http://www.w3.org/2000/svg" id="s" data-name="Loupe diagramme" viewBox="0 0 453.54 453.54">
  <defs>
    <style>
      .aq {
        fill: #144179;
        stroke-width: 0px;
      }

      .ar {
        fill: none;
        stroke: #144179;
        stroke-linecap: round;
        stroke-linejoin: round;
        stroke-width: 12px;
      }
    </style>
  </defs>
  <path class="aq" d="M175.81,44.63c34.38,0,66.7,13.39,91.01,37.7s37.7,56.63,37.7,91.01-13.39,66.7-37.7,91.01c-24.31,24.31-56.63,37.7-91.01,37.7s-66.7-13.39-91.01-37.7c-24.31-24.31-37.7-56.63-37.7-91.01s13.39-66.7,37.7-91.01,56.63-37.7,91.01-37.7M175.81,32.63c-77.71,0-140.71,63-140.71,140.71s63,140.71,140.71,140.71,140.71-63,140.71-140.71S253.52,32.63,175.81,32.63h0Z"/>
  <line class="ar" x1="272.79" y1="268.54" x2="293.31" y2="289.43"/>
  <path class="aq" d="M313.94,287.72c5.61,0,10.88,2.18,14.85,6.15l68.84,68.84c3.97,3.97,6.15,9.24,6.15,14.85s-2.18,10.88-6.15,14.85c-3.97,3.97-9.24,6.15-14.85,6.15s-10.89-2.18-14.85-6.15l-68.84-68.84c-8.19-8.19-8.19-21.51,0-29.7,3.97-3.97,9.24-6.15,14.85-6.15M313.94,275.72c-8.45,0-16.89,3.22-23.34,9.67-12.89,12.89-12.89,33.79,0,46.67l68.84,68.84c6.44,6.44,14.89,9.67,23.34,9.67s16.89-3.22,23.34-9.67c12.89-12.89,12.89-33.79,0-46.67l-68.84-68.84c-6.44-6.44-14.89-9.67-23.34-9.67h0Z"/>
  <g>
    <path class="ar" d="M163.34,188.9h67.32c0,37.18-30.14,67.32-67.32,67.32s-67.32-30.14-67.32-67.32,30.14-67.32,67.32-67.32h0v67.32Z"/>
    <path class="ar" d="M191.36,161.36v-67.32c37.18,0,67.32,30.14,67.32,67.32h-67.32Z"/>
  </g>
</svg>
