<?xml version='1.0' encoding='UTF-8'?>
<svg xmlns="http://www.w3.org/2000/svg" id="aj" data-name="Perso" viewBox="0 0 453.54 453.54">
  <defs>
    <style>
      .ca {
        fill: #008280;
        stroke-width: 0px;
      }
    </style>
  </defs>
  <circle class="ca" cx="231.21" cy="73.3" r="34.93"/>
  <path class="ca" d="M324.79,243.79c-6.18,3.57-14.09,1.45-17.66-4.73l-34.93-60.5v218.99c0,10.4-8.43,18.83-18.83,18.83s-18.82-8.43-18.82-18.83v-131.24h-9.11v131.24c0,10.4-8.43,18.83-18.83,18.83s-18.82-8.43-18.82-18.83v-217.32l-33.97,58.83c-3.57,6.18-11.47,8.3-17.66,4.73-6.18-3.57-8.3-11.47-4.73-17.66l55.86-96.74c2.23-3.87,6.16-6.14,10.3-6.42.02,0,.04,0,.07,0,.65-.12,1.32-.18,2.01-.18h60.65c.65,0,1.3.05,1.92.16.07-.01.15-.01.22-.01,4.47,0,8.82,2.31,11.21,6.46l55.85,96.74c3.57,6.19,1.45,14.09-4.73,17.66Z"/>
</svg>
