<?xml version='1.0' encoding='UTF-8'?>
<svg xmlns="http://www.w3.org/2000/svg" id="al" data-name="Pauvre F" viewBox="0 0 453.54 453.54">
  <defs>
    <style>
      .ca {
        fill: #008280;
        stroke-width: 0px;
      }
    </style>
  </defs>
  <path class="ca" d="M294.41,172.4l5.23,43.29c.83,6.83,7.03,11.7,13.86,10.87l1.19-.14c6.83-.83,11.7-7.03,10.87-13.86l-5.96-49.28c-.17-1.39-.57-2.69-1.14-3.88-1.04-2.56-2.88-4.82-5.45-6.33l-48.05-28.34c-1.18-.69-2.42-1.18-3.68-1.47-.73-.21-1.48-.34-2.27-.34h-10.4c-.61.29-1.19.65-1.71,1.09l-10.03,8.78c-4.89,4.15-12.06,4.15-16.95,0l-10.03-8.78c-.52-.44-1.1-.79-1.71-1.09h-8.77c-.41,0-.82.04-1.22.1-1.72.21-3.43.77-5.03,1.71l-48.05,28.34c-2.74,1.62-4.67,4.08-5.66,6.87-.56,1.19-.96,2.48-1.12,3.85l-5.96,49.28c-.83,6.83,4.04,13.04,10.87,13.86l1.19.14c6.83.83,13.04-4.04,13.86-10.87l5.28-43.7,22.73-13.4-10.98,72.65-35.97-5.14,32.87,25.62-8.35,55.24c-.95,6.28,3.2,12.04,8.67,12.04h13.86v77.49c0,10.37,8.41,18.78,18.78,18.78s18.78-8.41,18.78-18.78v-77.49h9.09v77.49c0,10.37,8.41,18.78,18.78,18.78h0c10.37,0,18.78-8.41,18.78-18.78v-77.49h13.62c5.44,0,9.57-5.68,8.69-11.93l-7.86-55.43,33.48-26.1-36.44,5.21-10.22-72.12,22.51,13.28Z"/>
  <circle class="ca" cx="228.22" cy="73.55" r="34.75" transform="translate(72.93 256.25) rotate(-67.5)"/>
</svg>
