<?xml version='1.0' encoding='UTF-8'?>
<svg xmlns="http://www.w3.org/2000/svg" id="bc" data-name="Perso senior" viewBox="0 0 453.54 453.54">
  <defs>
    <style>
      .ca {
        fill: #008280;
        stroke-width: 0px;
      }
    </style>
  </defs>
  <path class="ca" d="M141.16,415.61c-3.31,0-6-2.69-6-6v-118.79c-.33-2.72-1.28-14.83,6.09-23.43,4.8-5.62,11.83-8.46,20.88-8.46s16.55,2.86,21.45,8.51c7.83,9.02,6.13,21.64,6.05,22.17-.47,3.28-3.5,5.56-6.79,5.09-3.28-.47-5.56-3.51-5.09-6.79,0-.04.96-7.83-3.28-12.66-2.52-2.87-6.67-4.32-12.34-4.32s-9.31,1.39-11.76,4.26c-4.47,5.22-3.29,14.23-3.28,14.31.05.31.07.62.07.93v119.18c0,3.31-2.69,6-6,6Z"/>
  <g>
    <circle class="ca" cx="258.67" cy="78.37" r="41.2"/>
    <path class="ca" d="M281.25,416.71h-45.03c-5.29,0-9.68-3.16-10.08-7.26l-12.89-132.78,12.68-97.58c.52-4.01,4.87-7.06,10.06-7.06h45.49c5.21,0,9.56,3.07,10.06,7.09l12.17,98.02-12.37,132.28c-.38,4.1-4.78,7.28-10.08,7.28Z"/>
    <path class="ca" d="M316.75,279.46l-58.8,20.16-56.78-20.13c-3.53-1.25-5.96-4.51-6.16-8.25l-5.12-96.03c-1.21-22.75,16.91-41.87,39.69-41.87h58.5c22.73,0,40.83,19.02,39.7,41.72l-4.77,96.08c-.19,3.79-2.67,7.08-6.26,8.31Z"/>
  </g>
</svg>
