<?xml version='1.0' encoding='UTF-8'?>
<svg xmlns="http://www.w3.org/2000/svg" id="be" data-name="Perso enceinte" viewBox="0 0 453.54 453.54">
  <defs>
    <style>
      .ca {
        fill: #008280;
        stroke-width: 0px;
      }
    </style>
  </defs>
  <circle class="ca" cx="209.49" cy="73.36" r="30.79"/>
  <path class="ca" d="M267.95,155.76c.08-.04.16-.09.23-.14.65-.43,1.27-.93,1.84-1.5l1.98-1.98,34.19-34.2c4.56-4.56,4.56-11.95,0-16.51-4.56-4.56-11.96-4.56-16.52,0l-30,30-37.92-17.14c-1.36-.61-2.78-.95-4.2-1.02-1.39-.34-2.84-.52-4.31-.52h-13.71c-2.21,0-4.32.39-6.26,1.1-2.46.17-4.89,1.13-6.88,2.89l-37.39,33.04c-1.27,1.13-2.24,2.47-2.89,3.92h-.01c-.31.32-.61.65-.9,1-1.75,2.16-2.6,4.76-2.6,7.34,0,3.4,1.48,6.78,4.33,9.08l39.77,32.19c2.49,2.01,5.55,2.83,8.49,2.54l-28.81,74.09c-1.6,4.12,1.44,8.55,5.85,8.55h35.29l-7.59,116.98c-.5,7.85,5.45,14.63,13.3,15.14,7.85.51,14.63-5.44,15.14-13.3l7.7-118.82h25.89c3.46,0,6.26-2.79,6.27-6.25l.13-41.14c11.6-5.39,19.64-17.15,19.64-30.78,0-6.46-1.8-12.5-4.95-17.64,0-.03-.03-.07-.06-.1l-3.66-4.92-.03-.03-23.74-31.87c1.89,1.19,4.05,1.78,6.2,1.78s4.3-.59,6.19-1.78ZM171.56,161.01l13.34-11.78,6.16,27.56-19.5-15.78Z"/>
</svg>
