<?xml version='1.0' encoding='UTF-8'?>
<svg xmlns="http://www.w3.org/2000/svg" viewBox="0 0 453.54 453.54">
  <defs>
    <style>
      .ca {
        fill: #008280;
      }

      .ca, .cb {
        stroke-width: 0px;
      }

      .cb {
        fill: #008280;
      }
    </style>
  </defs>
  <g id="bh" data-name="Perso joie">
    <path class="cb" d="M326.13,45.53l-55.26,95.73c-.43.74-.92,1.42-1.46,2.04v251.27c0,10.52-8.72,19-19.31,18.62-10.09-.37-17.94-8.97-17.94-19.07v-129.41h-9.01v129.41c0,10.11-7.86,18.71-17.95,19.07-10.6.37-19.31-8.11-19.31-18.62v-252.52c-.18-.26-.34-.52-.5-.79l-55.26-95.73c-3.54-6.12-1.44-13.94,4.68-17.47,6.12-3.53,13.94-1.44,17.47,4.68l48.97,84.81c1.83,3.18,5.22,5.13,8.88,5.13h36c3.66,0,7.05-1.95,8.88-5.13l48.97-84.81c3.53-6.12,11.35-8.21,17.47-4.68,6.12,3.53,8.22,11.35,4.68,17.47Z"/>
  </g>
  <g id="bi" data-name="Perso marche">
    <circle class="ca" cx="226.91" cy="75.86" r="38.04"/>
  </g>
</svg>
