<?xml version='1.0' encoding='UTF-8'?>
<svg xmlns="http://www.w3.org/2000/svg" id="ag" data-name="Famille HH" viewBox="0 0 453.54 453.54">
  <defs>
    <style>
      .ca {
        fill: #008280;
        stroke-width: 0px;
      }
    </style>
  </defs>
  <circle class="ca" cx="376.27" cy="243.09" r="23.11"/>
  <path class="ca" d="M388.93,413.71h-25.26c-2.97,0-5.43-1.54-5.66-3.53l-7.23-64.59,7.11-47.47c.29-1.95,2.73-3.43,5.64-3.43h25.52c2.92,0,5.37,1.49,5.65,3.45l6.83,47.68-6.94,64.35c-.22,2-2.68,3.54-5.66,3.54Z"/>
  <path class="ca" d="M410.49,346.82l-34.63,9.93-33.9-9.92c-1.78-.52-3.01-2.16-3.01-4.01v-39.08c0-15.4,12.48-27.88,27.88-27.88h18.81c15.4,0,27.88,12.48,27.88,27.88v39.06c0,1.87-1.24,3.51-3.03,4.02Z"/>
  <g>
    <circle class="ca" cx="255.86" cy="131.38" r="34.69"/>
    <path class="ca" d="M274.87,416.24h-37.91c-4.45,0-8.15-2.66-8.49-6.11l-10.85-111.79,10.67-82.16c.44-3.37,4.1-5.94,8.47-5.94h38.3c4.39,0,8.05,2.58,8.47,5.97l10.25,82.53-10.42,111.37c-.32,3.45-4.03,6.13-8.49,6.13Z"/>
    <path class="ca" d="M304.76,300.68l-49.5,16.97-47.8-16.95c-2.97-1.05-5.02-3.79-5.19-6.94l-4.31-80.85c-1.02-19.16,14.23-35.25,33.42-35.25h49.25c19.13,0,34.37,16.02,33.42,35.13l-4.02,80.9c-.16,3.19-2.24,5.96-5.27,7Z"/>
  </g>
  <g>
    <circle class="ca" cx="101.21" cy="131.38" r="34.69"/>
    <path class="ca" d="M120.22,416.24h-37.91c-4.45,0-8.15-2.66-8.49-6.11l-10.85-111.79,10.67-82.16c.44-3.37,4.1-5.94,8.47-5.94h38.3c4.39,0,8.05,2.58,8.47,5.97l10.25,82.53-10.42,111.37c-.32,3.45-4.03,6.13-8.49,6.13Z"/>
    <path class="ca" d="M150.11,300.68l-49.5,16.97-47.8-16.95c-2.97-1.05-5.02-3.79-5.19-6.94l-4.31-80.85c-1.02-19.16,14.23-35.25,33.42-35.25h49.25c19.13,0,34.37,16.02,33.42,35.13l-4.02,80.9c-.16,3.19-2.24,5.96-5.27,7Z"/>
  </g>
</svg>
