<?xml version='1.0' encoding='UTF-8'?>
<svg xmlns="http://www.w3.org/2000/svg" id="q" data-name="Senior homme" viewBox="0 0 453.54 453.54">
  <defs>
    <style>
      .ca {
        fill: none;
        stroke: #008280;
        stroke-linecap: round;
        stroke-linejoin: round;
        stroke-width: 12px;
      }
    </style>
  </defs>
  <path class="ca" d="M72.75,410.81h308.89s7.46-123.73-121-123.73l-33.67,64.09-33.02-64.09s-121.55-.76-121.21,123.73Z"/>
  <g>
    <path class="ca" d="M272.72,63.89c-32.75-12.39-55.3-11.2-87.95.4-22.79-5.87-41.9,15.52-45.36,37.08-3.09,13.09-6.39,83.67,16.3,45.42,11.37-22.91-1.44-54.51,21.62-72.18,3.01-2.5,6.7-6.29,7.74-9.92"/>
    <path class="ca" d="M273.24,64.74c22.79-5.87,41.9,15.52,45.36,37.08,3.09,13.09,6.39,83.67-16.3,45.42-11.37-22.91,1.44-54.51-21.62-72.18-3.01-2.5-6.4-6.69-7.44-10.33"/>
    <path class="ca" d="M312.31,158.38s14.33,4.09,14.07,21.7c0,0,.47,17.69-16.7,21.84,0,0-5.1,67.11-80.94,67.11s-82.23-67.11-82.23-67.11c0,0-16.72-7.61-16.79-20.97-.08-16.58,15.54-22.86,15.54-22.86"/>
  </g>
  <g>
    <path class="ca" d="M292.76,160.06c-2.55,15.87-2.45,26.96-21.41,29.96-12.34,2.6-27.12-2.32-29.62-16.11-.42-3.32-2.15-8.99-.56-11.95,12.34-13.77,36.22-15.34,50.05-3.13.72.74,1.83,1.08,3.15.48,5.29-2.41,8.84-4.09,8.84-4.09"/>
    <path class="ca" d="M153.7,156.39s3.86.7,8.73,2.05c5.5,1.53,5.43,1.43,5.56,7.16-.7,11.72,7.65,23.49,19.81,24.37,14.63,3.03,30.68-3.94,30.83-20.41-.67-12.03,17.07-12.01,22.24-7.01"/>
    <path class="ca" d="M219.47,162.83c-3.11-2.13-5.46-5.1-8.65-7.23-13.41-7.82-32.15-6.25-43.64,4.06"/>
  </g>
</svg>
