<?xml version='1.0' encoding='UTF-8'?>
<svg xmlns="http://www.w3.org/2000/svg" id="s" data-name="Garçon" viewBox="0 0 453.54 453.54">
  <defs>
    <style>
      .ca {
        fill: none;
        stroke: #008280;
        stroke-linecap: round;
        stroke-linejoin: round;
        stroke-width: 12px;
      }
    </style>
  </defs>
  <g>
    <path class="ca" d="M304.3,166.03c-.24-3.45-.55-6.9-.95-10.32-.1.96-.19,1.9-.25,2.84l-6.52-5.23s-9.95-2.74-11.6-8.49c-1.64-5.75-8.22-18.08-16.44-25.48-8.22-7.4-22.19.82-40.27-2.47-18.08-3.29-28.22-14.25-30.68-14.25s-30.96,41.37-33.42,41.37c-2.16,0-13.21,16.81-15.93,21.02-.03.35-.06.69-.09,1.04-6.37.47-11.45,9.32-11.45,20.19s5.36,20.23,11.98,20.23c0,0,0,0,.01,0,16.89,46.74,49.07,49.12,77.47,49.12s66.67-8.31,77.47-49.16c.13,0,.26.03.39.03,6.62,0,11.98-9.06,11.98-20.23s-5.21-19.95-11.7-20.21Z"/>
    <path class="ca" d="M317,175.28c2.19-20.3,10.98-66.22,5.73-85.3-6.35-23.09-22.59-27.76-36.48-30.76-6.75-1.46-13.79,8.3-20.86,8.12-11.1-4.84-24.64-14.49-41.2-14.49-14.18,0-26.16,2.17-36.31,6.02-1.03.06-2.06.1-3.08.17-31.69,2.24-34.75,7.73-58.4,46.68-5.05,8.32,8.76,80.71,9.74,90.43"/>
  </g>
  <path class="ca" d="M65.96,411.62h321.19s7.76-128.66-125.81-128.66h-69.35s-126.39-.79-126.03,128.66Z"/>
</svg>
