<?xml version='1.0' encoding='UTF-8'?>
<!-- Generator: Adobe Illustrator 27.7.0, SVG Export Plug-In . SVG Version: 6.00 Build 0)  -->
<svg xmlns="http://www.w3.org/2000/svg" xmlns:xlink="http://www.w3.org/1999/xlink" version="1.1" id="bu" x="0px" y="0px" viewBox="0 0 453.5 453.5" style="enable-background:new 0 0 453.5 453.5;" xml:space="preserve">
<style type="text/css">
	.st0{fill:none;stroke:#008280;stroke-width:12;stroke-linecap:round;stroke-linejoin:round;}
	.st1{fill:none;stroke:#008280;stroke-width:12;stroke-linecap:round;stroke-linejoin:round;}
</style>
<g>
	<polyline class="st0" points="125.4,189.6 125.4,128.5 157.9,128.5 158.3,189.6  "/>
	<path class="st0" d="M137.4,42.3c0,0-21.5,24.6-19.5,47.4c2,22.8,23.9,19.5,23.9,19.5s25.6-3,17.7-32.2   C159.5,77.1,139,66.9,137.4,42.3L137.4,42.3z"/>
</g>
<g>
	<polyline class="st0" points="216.9,190.7 216.9,129.6 249.3,129.6 249.8,190.7  "/>
	<path class="st0" d="M228.9,43.5c0,0-21.5,24.6-19.5,47.4c2,22.8,23.9,19.5,23.9,19.5s25.6-3,17.7-32.2   C251,78.2,230.4,68.1,228.9,43.5L228.9,43.5z"/>
</g>
<g>
	<polyline class="st0" points="308.3,188.4 308.3,127.3 340.7,127.3 341.2,188.4  "/>
	<path class="st0" d="M320.3,41.2c0,0-21.5,24.6-19.5,47.4c2,22.8,23.9,19.5,23.9,19.5s25.6-3,17.7-32.2   C342.4,75.9,321.8,65.7,320.3,41.2L320.3,41.2z"/>
</g>
<path class="st0" d="M110.5,198.5H346c38.2,0,69.2,31,69.2,69.2v140.6H41.3V267.7C41.3,229.5,72.3,198.5,110.5,198.5L110.5,198.5z"/>
<path class="st1" d="M48,263.9c9.8,0.6,19.2,9.2,28.1,23.8c27.8,45.7,55.5,44.7,83.4,0.3c22-35,44.5-35,66.6,0.1  c27.9,44.5,55.6,45.2,83.4-0.5c15.6-25.6,32-30.5,48.5-19.2c8.5,5.8,16.7,18.3,24.8,29.7c11.1,15.5,19.4,23.9,31.5,22.7"/>
</svg>
