<?xml version='1.0' encoding='UTF-8'?>
<svg xmlns="http://www.w3.org/2000/svg" id="y" data-name="Buste col" viewBox="0 0 453.54 453.54">
  <defs>
    <style>
      .ca {
        fill: #008280;
        stroke-width: 0px;
      }
    </style>
  </defs>
  <path class="ca" d="M224.67,247.05c-55.07,0-99.86-44.81-99.86-99.88s44.8-99.86,99.86-99.86,99.86,44.8,99.86,99.86-44.8,99.88-99.86,99.88ZM224.67,59.3c-48.45,0-87.86,39.42-87.86,87.86s39.42,87.88,87.86,87.88,87.86-39.42,87.86-87.88-39.42-87.86-87.86-87.86Z"/>
  <path class="ca" d="M388.89,413.01H60.46c-1.6,0-3.14-.64-4.27-1.79-1.13-1.14-1.75-2.69-1.73-4.29.99-74.93,57.86-137.61,132.27-145.8,2.24-.25,4.44.79,5.68,2.68l31.77,48.64,31.78-48.76c1.23-1.88,3.4-2.92,5.64-2.69,74.97,7.73,132.28,70.46,133.29,145.92.02,1.61-.6,3.15-1.73,4.29-1.13,1.14-2.67,1.79-4.27,1.79ZM66.67,401.01h316c-3.76-65.43-53.57-119.19-118.69-127.65l-34.77,53.35c-1.11,1.7-3,2.72-5.02,2.72h0c-2.03,0-3.92-1.02-5.02-2.72l-34.75-53.21c-64.61,8.85-114,62.54-117.73,127.5Z"/>
</svg>
