<?xml version='1.0' encoding='UTF-8'?>
<svg xmlns="http://www.w3.org/2000/svg" id="v" data-name="Vin" viewBox="0 0 453.54 453.54">
  <defs>
    <style>
      .aa {
        fill: #fff;
        stroke: #8A5301;
        stroke-linecap: round;
        stroke-linejoin: round;
        stroke-width: 12px;
      }
    </style>
  </defs>
  <path class="aa" d="M196.07,417.69c17.56-.58,16.99-10.94,16.99-10.94,0,0,0-206.17,0-219.99,0-13.82-9.21-26.49-20.16-34.55-10.94-8.06-13.82-25.92-13.82-25.92v-31.67s-46.07,0-46.07,0v31.67s-2.88,17.85-13.82,25.92c-10.94,8.06-20.16,20.73-20.16,34.55v219.99s-.58,10.37,16.99,10.94c17.56.58,62.48.58,80.05,0Z"/>
  <path class="aa" d="M179.83,79.64v-28.22s3.12-4.03-8.1-3.46c-11.22.58-19.94.58-31.16,0-11.22-.58-8.1,3.46-8.1,3.46v28.22h47.36Z"/>
  <path class="aa" d="M99.04,232.83s46.07,13.82,114.03,0"/>
  <path class="aa" d="M99.04,356.36s46.07,13.82,114.03,0"/>
  <path class="aa" d="M342.07,415.39c2.3-13.25-37.43-12.09-37.43-12.09v-66.23c65.08-17.28,47.8-74.87,47.8-74.87l-9.79-58.74h-88.69s-9.79,58.74-9.79,58.74c0,0-17.28,57.59,47.8,74.87v66.23s-39.74-1.15-37.43,12.09h87.54Z"/>
  <path class="aa" d="M245.15,256.28s9.38,12.83,35.87,3.62c26.49-9.21,43.77-14.97,71.41,2.3"/>
</svg>
