<?xml version='1.0' encoding='UTF-8'?>
<svg xmlns="http://www.w3.org/2000/svg" id="r" data-name="Poireaux" viewBox="0 0 453.54 453.54">
  <defs>
    <style>
      .aa {
        fill: none;
        stroke: #8A5301;
        stroke-linecap: round;
        stroke-linejoin: round;
        stroke-width: 12px;
      }
    </style>
  </defs>
  <path class="aa" d="M388.59,360.1S225.64,270.48,191.03,61.84l-33.47,4.27,11.84,50.2-25.21-63.88-30.85,12.15,24.03,57.96-40.16-68.25-31.01,12.54,32.23,54.56-40.45-17.19-10.41,32.83s58.11,20.49,92.75,42.95c0,0-80.07-30.9-82.15-25.88-2.08,5.03-6.84,32.95-6.84,32.95,0,0,112.16,20.14,186.98,87.79,0,0,68.8,77.84,97.13,101.34,0,0,13.95,16.64,15.83,21.95,1.88,5.31,20.55,3.97,28.35-5.03,7.8-9,8.95-32.99,8.95-32.99Z"/>
  <line class="aa" x1="140.34" y1="179.96" x2="203.66" y2="206.16"/>
  <line class="aa" x1="137.38" y1="122.53" x2="177.86" y2="195.48"/>
  <line class="aa" x1="98.45" y1="121.37" x2="149.44" y2="147"/>
  <path class="aa" d="M169.4,116.3s9.74,43.14,70.31,160.08"/>
</svg>
