<?xml version='1.0' encoding='UTF-8'?>
<svg xmlns="http://www.w3.org/2000/svg" id="m" data-name="Aide alimentaire" viewBox="0 0 453.54 453.54">
  <defs>
    <style>
      .aa {
        fill: none;
      }

      .aa, .ab {
        stroke: #8A5301;
        stroke-linecap: round;
        stroke-linejoin: round;
        stroke-width: 12px;
      }

      .ab, .ac {
        fill: #fff;
      }

      .ac {
        stroke-width: 0px;
      }
    </style>
  </defs>
  <path class="ab" d="M214.28,166.81s7.17-28.68-11.15-26.29c-18.33,2.39-27.09,14.34-40.64,16.73s-27.89-9.56-32.67,2.39c-4.78,11.95,7.97,19.92,4.78,31.07-3.19,11.15-16.73,23.9-12.75,27.89,3.98,3.98,14.34,9.56,21.51,9.56s70.91-61.35,70.91-61.35Z"/>
  <g>
    <path class="ab" d="M210.28,247.97l66.33-87.54c3.61-4.76,10.56-5.31,14.87-1.17l18.42,17.68c4.31,4.14,4.05,11.11-.56,14.91l-84.75,69.87c-9.14,7.54-21.46-4.29-14.31-13.73Z"/>
    <line class="ab" x1="262.5" y1="179.05" x2="274.25" y2="192.26"/>
    <line class="ab" x1="309.35" y1="129.09" x2="295.6" y2="163.2"/>
    <line class="ab" x1="335.09" y1="138.22" x2="303.12" y2="168.14"/>
    <line class="ab" x1="346.74" y1="162.09" x2="310.38" y2="174.97"/>
  </g>
  <circle class="ab" cx="201.13" cy="214.22" r="49"/>
  <circle class="ab" cx="232.2" cy="213.42" r="21.91"/>
  <path class="aa" d="M163.95,64.03c0,9.06-12.48,9.06-12.48,18.12,0,9.06,12.48,9.06,12.48,18.13,0,9.06-12.48,9.06-12.48,18.13,0,9.06,12.48,9.06,12.48,18.13"/>
  <path class="aa" d="M237.25,64.03c0,9.06-12.48,9.06-12.48,18.12,0,9.06,12.48,9.06,12.48,18.13,0,9.06-12.48,9.06-12.48,18.13s12.48,9.06,12.48,18.13"/>
  <path class="ab" d="M303.49,213.21c0,44.55-45.22,80.67-100.99,80.67s-100.99-36.12-100.99-80.67h201.98Z"/>
  <g>
    <line class="ac" x1="139.63" y1="306.54" x2="184.85" y2="304.19"/>
    <path class="ac" d="M195.13,296.34s32.39-10.79,47.68-15.65c3.96-1.26,8.23.55,10.09,4.26h0c2.11,4.21.36,9.33-3.88,11.38l-63.4,34.54c-13.59,7.4-29.64,8.82-44.31,3.93l-64.69-21.58-34.68-2.04-4.78-64.54,38.59,13.39,42.41-1.59c.3-.01.6.1.83.3l24.73,22.26c.33.3.76.46,1.21.46l39.3-.11c6.18-.02,11.25,4.88,11.46,11.05h0c.21,6.23-4.61,11.48-10.83,11.8"/>
  </g>
  <g>
    <path class="aa" d="M184.85,304.19c6.22-.32,11.04-5.57,10.83-11.8h0c-.21-6.18-5.28-11.07-11.46-11.05l-39.3.11c-.45,0-.88-.16-1.21-.46l-24.73-22.26c-.23-.2-.52-.31-.83-.3l-42.41,1.59-29.77-10.15"/>
    <line class="aa" x1="139.63" y1="306.54" x2="184.85" y2="304.19"/>
    <path class="aa" d="M195.13,296.34s32.39-10.79,47.68-15.65c3.96-1.26,8.23.55,10.09,4.26h0c2.11,4.21.36,9.33-3.88,11.38l-63.4,34.54c-13.59,7.4-29.64,8.82-44.31,3.93l-64.69-21.58-30.64-5.7"/>
  </g>
  <g>
    <path class="aa" d="M280.84,381.53c-6.16.93-11.94-3.24-12.99-9.38h0c-1.04-6.09,2.95-11.91,9-13.13l38.52-7.79c.44-.09.83-.34,1.09-.7l19.75-26.78c.18-.25.45-.41.75-.46l41.86-6.97,37.83-10.45"/>
    <line class="aa" x1="325.61" y1="374.74" x2="280.84" y2="381.53"/>
    <path class="aa" d="M269.2,375.9s-33.9-4.05-49.86-5.75c-4.13-.44-7.96,2.19-9.03,6.2h0c-1.22,4.55,1.52,9.21,6.09,10.36l69.05,21.09c14.8,4.52,30.81,2.69,44.2-5.06l59.03-34.15,28-3.05"/>
  </g>
</svg>
