<?xml version='1.0' encoding='UTF-8'?>
<svg xmlns="http://www.w3.org/2000/svg" id="ad" data-name="POUbelle ouverte" viewBox="0 0 453.54 453.54">
  <defs>
    <style>
      .al {
        fill-rule: evenodd;
      }

      .al, .am {
        fill: none;
        stroke: #008280;
        stroke-linecap: round;
        stroke-linejoin: round;
        stroke-width: 12px;
      }
    </style>
  </defs>
  <path class="al" d="M357.4,111.03c.13-1.28-.88-2.4-2.17-2.4H100.19c-1.29,0-2.3,1.11-2.17,2.4l27.99,280.82c.89,8.92,8.39,15.71,17.36,15.71h168.32c8.96,0,16.46-6.78,17.36-15.69l28.35-280.84Z"/>
  <g>
    <line class="am" x1="149.22" y1="188.67" x2="165.78" y2="368.2"/>
    <line class="am" x1="228.98" y1="188.67" x2="228.98" y2="368.2"/>
    <line class="am" x1="306.2" y1="188.67" x2="288.91" y2="368.2"/>
  </g>
  <line class="am" x1="105.51" y1="151.13" x2="351.09" y2="151.13"/>
  <g>
    <path class="al" d="M262.65,60.6l-2.44-15.38c-1-6.33-7.6-10.54-14.74-9.41l-48.34,7.66c-7.14,1.13-12.11,7.18-11.11,13.5l2.62,16.54"/>
    <line class="am" x1="96.45" y1="89.34" x2="357.45" y2="47.99"/>
  </g>
</svg>
