<?xml version='1.0' encoding='UTF-8'?>
<svg xmlns="http://www.w3.org/2000/svg" id="l" data-name="Jour Nuit" viewBox="0 0 453.54 453.54">
  <defs>
    <style>
      .ak {
        fill: #008280;
        stroke-width: 0px;
      }
    </style>
  </defs>
  <path class="ak" d="M365.25,406.76c-17.18,0-34.2-4.22-49.79-12.53-25.01-13.34-43.32-35.61-51.57-62.72-17.03-55.97,14.64-115.36,70.61-132.39,29.15-8.87,60.76-4.76,86.71,11.28,1.91,1.18,3,3.33,2.83,5.57s-1.59,4.19-3.66,5.06c-44.64,18.7-67.66,67.78-53.54,114.15,6.67,21.9,21.05,40.59,40.52,52.62,1.91,1.18,3,3.33,2.83,5.57-.18,2.24-1.59,4.2-3.66,5.06-3.32,1.39-6.76,2.63-10.22,3.68-10.21,3.11-20.65,4.65-31.03,4.65ZM365.35,206.52c-9.19,0-18.41,1.34-27.37,4.07-49.64,15.11-77.73,67.78-62.62,117.42,7.32,24.05,23.56,43.8,45.74,55.63,21.68,11.56,46.5,14.2,70.07,7.47-16.95-13.34-29.49-31.6-35.83-52.44-7.7-25.3-5.71-52.39,5.59-76.27,9.5-20.06,24.88-36.47,43.98-47.17-12.46-5.76-25.97-8.71-39.56-8.71Z"/>
  <g>
    <path class="ak" d="M135.01,155.13c-1.54,0-3.07-.59-4.24-1.76l-39.84-39.84c-2.34-2.34-2.34-6.14,0-8.49s6.14-2.34,8.49,0l39.84,39.84c2.34,2.34,2.34,6.14,0,8.49-1.17,1.17-2.71,1.76-4.24,1.76Z"/>
    <path class="ak" d="M96.95,247.01h-56.35c-3.31,0-6-2.69-6-6s2.69-6,6-6h56.35c3.31,0,6,2.69,6,6s-2.69,6-6,6Z"/>
    <path class="ak" d="M226.89,117.07c-3.31,0-6-2.69-6-6v-56.35c0-3.31,2.69-6,6-6s6,2.69,6,6v56.35c0,3.31-2.69,6-6,6Z"/>
  </g>
  <path class="ak" d="M360.89,114.47c-2.34-2.34-6.14-2.34-8.48,0l-60.82,60.82c-36-35.46-94.13-35.29-129.93.5-35.8,35.8-35.97,93.93-.5,129.93l-66.51,66.51c-2.34,2.35-2.34,6.14,0,8.49,1.17,1.17,2.71,1.75,4.24,1.75s3.08-.58,4.25-1.75L360.89,122.96c2.35-2.34,2.35-6.14,0-8.49ZM169.64,297.24c-30.78-31.33-30.61-81.85.51-112.96,31.11-31.12,81.63-31.29,112.96-.51l-113.47,113.47Z"/>
</svg>
