<?xml version='1.0' encoding='UTF-8'?>
<svg xmlns="http://www.w3.org/2000/svg" id="k" data-name="Protection environnement_2" viewBox="0 0 453.54 453.54">
  <defs>
    <style>
      .ak {
        stroke-linecap: round;
        stroke-linejoin: round;
      }

      .ak, .al {
        fill: none;
        stroke: #008280;
        stroke-width: 9.96px;
      }

      .al, .am {
        stroke-miterlimit: 10;
      }

      .am {
        fill: #008280;
        stroke: #008280;
        stroke-width: 2px;
      }
    </style>
  </defs>
  <g>
    <path class="am" d="M308.62,318.48v-.17s.04-7.13.04-7.13c.35-64.17,44.58-119,98.56-122.24l6.05-.36c1.11-.08,2.19.41,3.03,1.31.8.9,1.31,2.16,1.24,3.54l-.04,7.13c-.35,64.17-44.58,119-98.61,122.25l-6,.36c-1.11.08-2.19-.41-3.03-1.31-.8-.9-1.21-2.1-1.24-3.37ZM409.41,198.43l-1.69.09c-49.82,2.98-90.65,53.6-90.96,112.77v2.01s1.69-.09,1.69-.09c49.82-2.98,90.65-53.6,90.96-112.77v-2.01Z"/>
    <path class="am" d="M249.12,339.96c-.05-2.41,1.45-4.57,3.53-4.85,20.59-2.92,40.57-11.46,57.73-24.77,14.5-11.07,26.99-25.31,37.09-42.32,1.26-2.15,3.82-2.67,5.65-1.1,1.83,1.51,2.28,4.55.97,6.71-10.71,18.06-23.95,33.12-39.31,44.84-18.21,14.08-39.35,23.16-61.19,26.23-2.22.34-4.25-1.57-4.5-4.21.04-.17.04-.35.04-.52Z"/>
  </g>
  <g>
    <path class="am" d="M147.91,321.85c-.84.9-1.92,1.4-3.03,1.31l-6-.36c-54.03-3.25-98.26-58.08-98.61-122.25l-.04-7.13c-.07-1.38.45-2.63,1.24-3.54.84-.9,1.92-1.4,3.03-1.31l6.05.36c53.98,3.24,98.21,58.08,98.56,122.24l.04,7.13v.17c-.03,1.26-.45,2.46-1.24,3.37ZM48.36,200.44c.31,59.17,41.15,109.78,90.96,112.77l1.69.09v-2.01c-.32-59.17-41.15-109.78-90.97-112.77l-1.69-.09v2.01Z"/>
    <path class="am" d="M208.65,339.96c.05-2.41-1.45-4.57-3.53-4.85-20.59-2.92-40.57-11.46-57.73-24.77-14.5-11.07-26.99-25.31-37.09-42.32-1.26-2.15-3.82-2.67-5.65-1.1-1.83,1.51-2.28,4.55-.97,6.71,10.71,18.06,23.95,33.12,39.31,44.84,18.21,14.08,39.35,23.16,61.19,26.23,2.22.34,4.25-1.57,4.5-4.21-.04-.17-.04-.35-.04-.52Z"/>
  </g>
  <g>
    <g>
      <path class="ak" d="M160.95,133.66c0-4.48,6.71-11.19,11.19-11.19,4.98,0,4.75,6.99,6.15,9.79,2.8-3.64,2.24-18.16,2.8-20.68-.56-1.4-3.92-5.31-7.27-8.95-15.38,13.71-25.73,33-28.25,54.54,6.99-3.92,19.02-2.81,20.98-4.49-.72-4.34-5.59-15.55-5.59-19.02Z"/>
      <path class="ak" d="M165.15,208.64c-2.31-2.31-4.93-13.32-5.59-13.98-1.4-1.12-7.27-3.92-12.31-6.15,4.48,17.34,13.98,32.44,26.85,43.91,1.68-5.59,4.2-13.98,4.2-17.34,0-1.54-11.48-4.77-13.15-6.43Z"/>
      <path class="ak" d="M275.63,92.84c-10.35,6.99-17.29,5.59-19.53,5.59h-16.5c-1.96.56-6.81,5.23-9.33,8.59,2.45-.49,7.06,1.76,9.56,1.76.84,0,3.08.28,4.2,3.08,1.4,3.36.84,9.79-2.24,12.87-1.12,1.12-3.64,3.64-24.05,3.64-1.68,1.4-3.7,3.97-3.7,5.93,0,1.12,1.68,2.8,2.8,2.8,3.47-1.16,13.39-5.93,17.41-5.93,2.27,0,10.41,5.59,11.19,5.59.56,0,2.24-1.4,3.36-1.96,3.91-2.52,8.95-5.87,12.3-2.52,4.24,3.18-1.4,8.11-4.2,10.63-.84.84-2.24,1.68-2.8,2.52h2.52c2.8,0,5.03,2.52,5.03,5.59,0,1.12-.56,2.52-1.12,3.36-.84,1.4-2.24,2.24-3.92,2.24h-19.58c-3.02,0-8.67-3.5-8.68-3.5-2.8.28-21.25,9.54-24.88,12.62l-1.93,8.97c-.61,2.83.4,5.76,2.62,7.62,2.85,2.39,6.58,4.88,7.98,5.06,7.47-2.48,8.96-3.08,10.91-3.08,5.03,0,13.98,16.22,13.98,19.58,0,2.3-2.8,7.45-2.8,8.39,0,6.77,9.59,14.47,12.02,12.02,13.43-13.42,14.62-15.2,14.91-16.04v-8.11c0-2.24,2.51-5.87,5.59-9.23-1.67-.56-3.36-1.4-4.75-2.8-3.08-3.08-2.25-15.85-2.25-26.48,0-3.07,3.9-3.94,5.32-1.12l6.93,14.28c3.36-1.68,6.15-3.64,6.99-4.75-.56-1.68-3.07-7.55-5.31-12.31-1.31-3.29,2.34-5.49,4.48-3.36l5.59,5.59c.98.98,4.87-.84,6.43-.84,1.4,0,3.92,0,11.19,15.11.84-2.24,2.24-4.48,3.64-5.88,2.52-2.8,8.95-3.36,13.15-3.64-1.12-30.49-17.9-57.06-42.51-71.88Z"/>
    </g>
    <circle class="al" cx="230.74" cy="166.91" r="87.59"/>
  </g>
</svg>
