<?xml version='1.0' encoding='UTF-8'?>
<svg xmlns="http://www.w3.org/2000/svg" id="e" data-name="Service environnement" viewBox="0 0 453.54 453.54">
  <defs>
    <style>
      .ak {
        stroke-linecap: round;
        stroke-linejoin: round;
      }

      .ak, .al {
        fill: none;
        stroke: #008280;
        stroke-width: 12px;
      }

      .al {
        stroke-miterlimit: 10;
      }
    </style>
  </defs>
  <g>
    <g>
      <line class="ak" x1="218.75" y1="295.15" x2="218.75" y2="394.28"/>
      <line class="ak" x1="298.35" y1="290.77" x2="298.35" y2="367.19"/>
      <path class="ak" d="M218.92,344.53s-.38,17.26,39.67,17.92c0,0,33.54.42,39.67-17.92"/>
      <line class="ak" x1="298.41" y1="366.13" x2="298.41" y2="394.26"/>
      <g>
        <path class="ak" d="M218.91,369.55s-.38,17.26,39.67,17.92c0,0,33.54.42,39.67-17.92"/>
        <ellipse class="ak" cx="258.57" cy="293.05" rx="39.93" ry="17.92"/>
        <path class="ak" d="M218.93,318.79s-.38,17.26,39.68,17.92c0,0,33.55.42,39.68-17.92"/>
        <path class="ak" d="M218.94,395.32s-.38,17.26,39.68,17.92c0,0,33.55.42,39.68-17.92"/>
      </g>
    </g>
    <g>
      <line class="ak" x1="218.06" y1="366.35" x2="218.06" y2="367.19"/>
      <line class="ak" x1="218.12" y1="368.74" x2="218.12" y2="394.26"/>
      <g>
        <ellipse class="ak" cx="177.26" cy="370.47" rx="39.93" ry="17.92"/>
        <g>
          <path class="ak" d="M138.62,369.55s-.38,17.26,39.67,17.92c0,0,33.54.42,39.67-17.92"/>
          <line class="ak" x1="138.46" y1="370.74" x2="138.46" y2="394.28"/>
          <path class="ak" d="M138.65,395.32s-.38,17.26,39.68,17.92c0,0,33.55.42,39.68-17.92"/>
        </g>
      </g>
    </g>
  </g>
  <g>
    <g>
      <path class="ak" d="M149.85,104.4c0-4.87,7.3-12.17,12.17-12.17,5.42,0,5.17,7.61,6.69,10.65,3.04-3.96,2.43-19.76,3.04-22.5-.61-1.52-4.26-5.78-7.91-9.74-16.73,14.91-27.99,35.9-30.73,59.33,7.61-4.26,20.69-3.06,22.82-4.89-.79-4.72-6.08-16.91-6.08-20.69Z"/>
      <path class="ak" d="M154.41,185.95c-2.51-2.51-5.36-14.49-6.08-15.21-1.52-1.22-7.91-4.26-13.39-6.69,4.87,18.86,15.21,35.29,29.21,47.77,1.83-6.08,4.56-15.21,4.56-18.86,0-1.67-12.49-5.18-14.3-7Z"/>
      <path class="ak" d="M274.59,59.99c-11.26,7.61-18.81,6.08-21.24,6.08h-17.95c-2.13.61-7.41,5.69-10.15,9.34,2.67-.54,7.68,1.92,10.4,1.92.91,0,3.35.3,4.56,3.35,1.52,3.65.91,10.65-2.43,14-1.22,1.22-3.96,3.96-26.16,3.96-1.83,1.52-4.02,4.32-4.02,6.45,0,1.22,1.83,3.04,3.04,3.04,3.77-1.26,14.57-6.45,18.93-6.45,2.46,0,11.32,6.08,12.17,6.08.61,0,2.43-1.52,3.65-2.13,4.25-2.74,9.73-6.39,13.38-2.74,4.62,3.46-1.52,8.82-4.56,11.56-.91.91-2.43,1.83-3.04,2.74h2.74c3.04,0,5.48,2.74,5.48,6.08,0,1.22-.61,2.74-1.22,3.65-.91,1.52-2.43,2.43-4.26,2.43h-21.3c-3.29,0-9.43-3.81-9.44-3.81-3.04.3-23.11,10.38-27.07,13.73l-2.1,9.76c-.66,3.08.43,6.27,2.85,8.29,3.1,2.59,7.15,5.31,8.68,5.5,8.13-2.7,9.75-3.35,11.87-3.35,5.48,0,15.21,17.65,15.21,21.3,0,2.5-3.04,8.11-3.04,9.13,0,7.36,10.44,15.74,13.08,13.08,14.61-14.6,15.91-16.54,16.21-17.45v-8.82c0-2.43,2.74-6.39,6.08-10.04-1.82-.61-3.65-1.52-5.17-3.04-3.35-3.35-2.45-17.25-2.45-28.81,0-3.33,4.24-4.29,5.78-1.22l7.53,15.53c3.65-1.83,6.69-3.96,7.6-5.17-.61-1.83-3.34-8.21-5.78-13.39-1.42-3.57,2.55-5.97,4.87-3.65l6.08,6.08c1.07,1.07,5.3-.91,7-.91,1.52,0,4.26,0,12.17,16.43.91-2.44,2.43-4.87,3.96-6.39,2.74-3.04,9.74-3.65,14.3-3.96-1.22-33.16-19.47-62.07-46.24-78.19Z"/>
    </g>
    <circle class="al" cx="225.75" cy="140.56" r="95.28"/>
  </g>
</svg>
