<?xml version='1.0' encoding='UTF-8'?>
<svg xmlns="http://www.w3.org/2000/svg" id="v" data-name="Protection environnent" viewBox="0 0 453.54 453.54">
  <defs>
    <style>
      .ak {
        fill: none;
        stroke: #008280;
        stroke-linecap: round;
        stroke-linejoin: round;
        stroke-width: 12px;
      }
    </style>
  </defs>
  <g>
    <path class="ak" d="M218.14,348.55h75.14c11.07,0,21.03-9.96,21.03-22.26s-9.96-22.26-21.03-22.26h-75.14s-17.34-23.69-43.59-31.25c-17.18-4.94-57.97-2.21-57.97-2.21v81.55s71.43,53.41,115.52,57.94c25.66,2.64,101.99-40.19,101.99-40.19l65.57-36.1c10.95-5.58,15.31-18.98,9.73-29.93h0c-5.58-10.95-18.98-15.31-29.93-9.73l-65.17,34.42"/>
    <rect class="ak" x="43.31" y="246.73" width="73.27" height="136.54" rx="12.48" ry="12.48"/>
  </g>
  <g>
    <path class="ak" d="M109.48,43.55s18.71,119.65,101.92,80.27C234.55,22.38,125.73,40.6,109.48,43.55Z"/>
    <path class="ak" d="M245.35,128.89c-6.62-71.79,82.51-66.87,92.85-59.98,9.36,6.4-26.59,95.52-92.85,59.98Z"/>
    <path class="ak" d="M221.01,177.48c-27.82-38.41-59.45-10.82-59.45-10.82,0,0,24.25,50.21,59.45,10.82Z"/>
    <path class="ak" d="M145.18,64.48c37.42,16.63,56.5,40.02,66.22,59.34,9.85,19.58,10.1,34.99,10.1,34.99v108.04"/>
    <path class="ak" d="M299.59,92.54s-68.73,36.53-78.09,66.27"/>
  </g>
</svg>
