<?xml version='1.0' encoding='UTF-8'?>
<svg xmlns="http://www.w3.org/2000/svg" id="x" data-name="Ecologie" viewBox="0 0 453.54 453.54">
  <defs>
    <style>
      .ak {
        fill: none;
        stroke: #008280;
        stroke-linecap: round;
        stroke-linejoin: round;
        stroke-width: 12px;
      }
    </style>
  </defs>
  <path class="ak" d="M181.1,380.98h86.31v5.89c0,12.5-10.15,22.64-22.64,22.64h-35.12c-15.75,0-28.54-12.79-28.54-28.54h0Z"/>
  <rect class="ak" x="159" y="352.1" width="130.51" height="28.94" rx="12" ry="12"/>
  <rect class="ak" x="144.27" y="323.17" width="159.98" height="28.94" rx="5.21" ry="5.21"/>
  <g>
    <path class="ak" d="M137.22,123.41s14.15,90.48,77.07,60.7c17.51-76.71-64.78-62.94-77.07-60.7Z"/>
    <path class="ak" d="M239.97,187.94c-5-54.29,62.39-50.57,70.21-45.35,7.07,4.84-20.11,72.24-70.21,45.35Z"/>
    <path class="ak" d="M221.56,224.69c-21.04-29.04-44.96-8.18-44.96-8.18,0,0,18.33,37.97,44.96,8.18Z"/>
    <path class="ak" d="M164.22,139.23c28.3,12.58,42.72,30.26,50.08,44.88,7.45,14.8,7.64,26.46,7.64,26.46v110.12"/>
    <path class="ak" d="M280.99,160.46s-51.98,27.62-59.05,50.12"/>
  </g>
  <path class="ak" d="M159.79,320.78l-1.1-19.52c-4.11-37.54-26.57-70.61-36.16-84.73l-1.15-1.72c-2.05-3.05-2.87-4.29-3.36-5.28-7.25-14.6-11.19-30.51-11.71-47.3-.96-31.56,10.69-61.65,32.81-84.72,22.29-23.08,51.81-35.88,83.13-36.05h4.02c31.32.17,60.83,12.97,83.13,36.05,22.11,23.07,33.77,53.16,32.81,84.72-.52,16.8-4.46,32.71-11.71,47.3-.5.99-1.32,2.24-3.36,5.28l-1.15,1.72c-9.59,14.12-32.04,47.18-36.16,84.73l-1.1,19.52h-128.93Z"/>
</svg>
