<?xml version='1.0' encoding='UTF-8'?>
<svg xmlns="http://www.w3.org/2000/svg" id="ah" data-name="Synagogue" viewBox="0 0 453.54 453.54">
  <defs>
    <style>
      .ap {
        fill: none;
        stroke: #144179;
        stroke-linecap: round;
        stroke-linejoin: round;
        stroke-width: 12px;
      }
    </style>
  </defs>
  <path class="ap" d="M300.18,198.1s-3.78-34.67-38.89-34.67c-28.99,0-35.6-26.46-37.11-38.55v-5.9s0,1.46-.22,3.84c-.22-2.38-.22-3.84-.22-3.84v5.9c-1.51,12.09-8.12,38.55-37.11,38.55-35.11,0-38.89,34.67-38.89,34.67,0,0-4.89,28.67,29.56,41.33h93.33c34.44-12.67,29.56-41.33,29.56-41.33Z"/>
  <rect class="ap" x="154.71" y="366.44" width="139.08" height="46.33" rx="23.17" ry="23.17"/>
  <line class="ap" x1="225.08" y1="284.44" x2="225.08" y2="321.44"/>
  <line class="ap" x1="270.63" y1="239.44" x2="270.63" y2="366.44"/>
  <line class="ap" x1="177.3" y1="239.44" x2="177.3" y2="327.68"/>
  <line class="ap" x1="177.87" y1="366.44" x2="177.87" y2="356.1"/>
  <path class="ap" d="M262.73,99.83c-4.56,2.61-9.84,4.1-15.47,4.1-17.22,0-31.18-13.96-31.18-31.18s13.96-31.18,31.18-31.18c.24,0,.49,0,.73,0l.56.02c-4.39-1.83-9.21-2.84-14.26-2.84-20.52,0-37.15,16.63-37.15,37.15s16.63,37.15,37.15,37.15c11.41,0,21.62-5.15,28.44-13.24h0Z"/>
</svg>
