<?xml version='1.0' encoding='UTF-8'?>
<svg xmlns="http://www.w3.org/2000/svg" id="ad" data-name="Sacoche" viewBox="0 0 453.54 453.54">
  <defs>
    <style>
      .ak {
        fill: #5F1972;
        stroke-width: 0px;
      }
    </style>
  </defs>
  <path class="ak" d="M115.02,374.78c-18.22,0-31.1-4.57-38.29-13.57-6.92-8.67-6.01-18.49-5.56-21.34v-84.58c0-3.31,2.69-6,6-6s6,2.69,6,6v85.11c0,.45-.05.89-.15,1.33-.04.21-1.29,6.65,3.18,12.13,4.77,5.85,14.74,8.94,28.82,8.94,43.08,0,218.98-.12,226.35-.13,2.4-.2,32.01-3.08,32.01-22.34v-85.03c0-3.31,2.69-6,6-6s6,2.69,6,6v85.03c0,24.97-28.39,33.38-43.41,34.33-.12,0-.25.01-.38.01-1.82,0-182.8.13-226.58.13Z"/>
  <path class="ak" d="M391.42,183.8v29.38c0,1.48-.69,36.2-61.35,36.2h-44.04c-3.31,0-6-2.69-6-6s2.69-6,6-6h44.04c48.03,0,49.32-23.3,49.35-24.29v-29.54c0-.2.01-.4.03-.59.01-.13,1.27-14.79-6.98-23.84-4.52-4.95-11.32-7.46-20.22-7.46-.29,0-.57-.02-.84-.07-.34.07-.69.1-1.05.1l-249.06-.03c-8.9,0-15.7,2.51-20.22,7.46-8.24,9.05-6.99,23.71-6.98,23.85.02.19.03.39.03.58v29.63c.03.9,1.32,24.2,49.35,24.2h44.04c3.31,0,6,2.69,6,6s-2.69,6-6,6h-44.04c-60.65,0-61.35-34.72-61.35-36.2v-29.38c-.21-2.75-1.09-20.42,10.01-32.68,6.89-7.6,16.7-11.46,29.16-11.46l249.06.03c.29,0,.57.02.85.07.33-.07.68-.1,1.04-.1,12.46,0,22.27,3.86,29.16,11.46,11.1,12.26,10.22,29.93,10.01,32.68Z"/>
  <path class="ak" d="M262.86,261.28h-69.03c-3.31,0-6-2.69-6-6v-31.79c0-3.31,2.69-6,6-6h69.03c3.31,0,6,2.69,6,6v31.79c0,3.31-2.69,6-6,6ZM199.83,249.28h57.03v-19.79h-57.03v19.79Z"/>
  <path class="ak" d="M290.73,132.03c-1.31,0-2.62-.43-3.73-1.3l-29.66-23.56h-58.18l-29.6,23.56c-2.59,2.06-6.37,1.64-8.43-.96-2.06-2.59-1.63-6.37.96-8.43l31.24-24.86c1.06-.85,2.38-1.31,3.74-1.31h62.37c1.36,0,2.67.46,3.73,1.3l31.3,24.86c2.59,2.06,3.03,5.84.97,8.43-1.18,1.49-2.94,2.27-4.7,2.27Z"/>
</svg>
