<?xml version='1.0' encoding='UTF-8'?>
<svg xmlns="http://www.w3.org/2000/svg" id="t" data-name="Restauration" viewBox="0 0 453.54 453.54">
  <defs>
    <style>
      .ak {
        stroke-linecap: round;
        stroke-linejoin: round;
      }

      .ak, .al {
        fill: none;
        stroke: #5F1972;
        stroke-width: 12px;
      }

      .am {
        fill: #5F1972;
        stroke-width: 0px;
      }

      .al {
        stroke-miterlimit: 10;
      }
    </style>
  </defs>
  <circle class="ak" cx="227.36" cy="60.13" r="19.89"/>
  <path class="al" d="M347.51,268.74c-6.58-6.25-17.14-5.57-23.55.84l-55.24,55.24s-.03.02-.06.02h-88.53c-2.5,0-4.5-3.91-4.39-6.41l.08-2.78c.09-2.02,1.75-4.53,3.77-4.53h65.04c9.08,0,17.03-6.85,17.58-15.9.6-9.85-7.21-14.37-16.93-14.37h-98.02c-5.04,0-9.56,2.21-12.66,5.7l-46.83,46.83s-.03.08,0,.11l47.05,47.05s.07.03.1,0l30.65-21.44c1.2-.84,2.62-1.28,4.08-1.28h102.84c2.51,0,4.88-.58,7.02-1.58h.01c3.3-.54,6.47-2.06,9.02-4.61l59.28-59.28c6.54-6.54,6.44-17.22-.31-23.63Z"/>
  <rect class="al" x="74.46" y="329.71" width="44.18" height="87.97" rx="4.36" ry="4.36" transform="translate(-235.96 177.72) rotate(-45)"/>
  <circle class="am" cx="111.55" cy="389.97" r="6.69"/>
  <line class="ak" x1="39.82" y1="246.96" x2="414.1" y2="246.96"/>
  <path class="ak" d="M381.55,246.22c-.73.23-309.97.23-310.09,0,0-85.63,69.42-155.05,155.05-155.05s155.05,69.42,155.05,155.05Z"/>
  <path class="ak" d="M99.18,217.91c12.87-55.61,62.71-97.06,122.23-97.06"/>
</svg>
