<?xml version='1.0' encoding='UTF-8'?>
<svg xmlns="http://www.w3.org/2000/svg" id="u" data-name="Engrenage-mecanique" viewBox="0 0 453.54 453.54">
  <defs>
    <style>
      .ak {
        fill: #5F1972;
        stroke-width: 0px;
      }
    </style>
  </defs>
  <path class="ak" d="M146.2,367.86c-33.5,0-60.76-27.26-60.76-60.76s27.26-60.76,60.76-60.76,60.76,27.26,60.76,60.76-27.26,60.76-60.76,60.76ZM146.2,258.34c-26.89,0-48.76,21.87-48.76,48.76s21.87,48.76,48.76,48.76,48.76-21.87,48.76-48.76-21.87-48.76-48.76-48.76Z"/>
  <path class="ak" d="M162.7,416.52h-32.99c-2.58,0-4.88-1.66-5.69-4.11l-5.3-15.97-16.26-6.74-15.08,7.54c-2.31,1.16-5.1.7-6.93-1.12l-23.33-23.33c-1.83-1.83-2.28-4.62-1.12-6.93l7.54-15.08-6.74-16.26-15.97-5.3c-2.45-.81-4.11-3.11-4.11-5.69v-32.99c0-2.58,1.66-4.88,4.11-5.69l15.97-5.3,6.74-16.26-7.54-15.08c-1.15-2.31-.7-5.1,1.12-6.93l23.33-23.33c1.82-1.83,4.61-2.28,6.93-1.12l15.08,7.54,16.26-6.74,5.3-15.97c.81-2.45,3.11-4.11,5.69-4.11h32.99c2.59,0,4.88,1.66,5.69,4.11l5.3,15.97,16.26,6.74,15.08-7.54c2.31-1.16,5.1-.7,6.93,1.12l23.33,23.33c1.83,1.83,2.28,4.62,1.12,6.93l-7.54,15.08,6.74,16.26,15.97,5.3c2.45.81,4.11,3.11,4.11,5.69v32.99c0,2.58-1.66,4.88-4.11,5.69l-15.97,5.3-6.74,16.26,7.54,15.08c1.16,2.31.7,5.1-1.12,6.93l-23.33,23.33c-1.83,1.83-4.62,2.28-6.93,1.12l-15.08-7.54-16.26,6.74-5.3,15.97c-.81,2.45-3.11,4.11-5.69,4.11ZM134.04,404.52h24.33l4.8-14.46c.55-1.65,1.79-2.99,3.4-3.65l21.32-8.84c1.61-.67,3.42-.6,4.98.18l13.67,6.83,17.21-17.21-6.83-13.67c-.78-1.56-.84-3.37-.18-4.98l8.84-21.32c.67-1.61,2-2.85,3.65-3.4l14.46-4.8v-24.33l-14.46-4.8c-1.65-.55-2.99-1.79-3.65-3.4l-8.84-21.32c-.67-1.61-.6-3.42.18-4.98l6.83-13.67-17.21-17.21-13.67,6.83c-1.56.78-3.38.84-4.98.18l-21.32-8.84c-1.61-.67-2.85-2-3.4-3.65l-4.8-14.47h-24.33l-4.8,14.47c-.55,1.65-1.79,2.98-3.4,3.65l-21.32,8.84c-1.61.67-3.42.6-4.98-.18l-13.67-6.83-17.21,17.21,6.83,13.67c.78,1.56.84,3.37.18,4.98l-8.84,21.32c-.67,1.61-2,2.85-3.65,3.4l-14.47,4.8v24.33l14.46,4.8c1.65.55,2.99,1.79,3.65,3.4l8.84,21.32c.67,1.61.6,3.42-.18,4.98l-6.83,13.67,17.21,17.21,13.67-6.83c1.56-.78,3.37-.84,4.98-.18l21.32,8.84c1.61.67,2.85,2,3.4,3.65l4.8,14.46ZM249.7,323.52h0,0Z"/>
  <path class="ak" d="M332.32,252.1h-43.54c-2.58,0-4.87-1.65-5.69-4.09l-5.04-14.99c-1.42-.56-2.81-1.14-4.17-1.74l-14.15,7.04c-2.31,1.15-5.09.69-6.92-1.13l-30.83-30.83c-1.83-1.83-2.28-4.62-1.12-6.94l7.08-14.1c-.62-1.38-1.21-2.79-1.76-4.21l-14.93-4.96c-2.45-.81-4.11-3.11-4.11-5.69v-43.54c0-2.59,1.66-4.88,4.11-5.69l14.98-4.97c.55-1.41,1.13-2.79,1.73-4.15l-7.1-14.15c-1.16-2.31-.71-5.11,1.12-6.94l30.83-30.83c1.83-1.83,4.62-2.28,6.94-1.12l14.1,7.08c1.39-.63,2.8-1.22,4.23-1.76l5.02-14.94c.82-2.44,3.11-4.09,5.69-4.09h43.54c2.58,0,4.87,1.65,5.69,4.09l5.04,14.99c1.41.56,2.8,1.14,4.17,1.74l14.07-7.04c2.31-1.16,5.1-.7,6.93,1.12l30.83,30.83c1.82,1.82,2.28,4.61,1.13,6.92l-7.02,14.1c.63,1.39,1.22,2.8,1.76,4.22l14.93,4.95c2.45.81,4.11,3.11,4.11,5.69v43.54c0,2.59-1.66,4.89-4.12,5.7l-14.89,4.9c-.56,1.41-1.13,2.79-1.73,4.15l7.04,14.15c1.15,2.31.7,5.09-1.13,6.92l-30.83,30.83c-1.82,1.82-4.61,2.28-6.92,1.13l-14.1-7.02c-1.39.63-2.81,1.22-4.24,1.77l-5.02,14.94c-.82,2.44-3.11,4.09-5.69,4.09ZM293.1,240.1h34.91l4.57-13.59c.6-1.77,1.98-3.16,3.75-3.77,2.85-.97,5.65-2.14,8.32-3.48,1.69-.84,3.67-.84,5.36,0l12.85,6.4,24.73-24.73-6.4-12.85c-.82-1.65-.84-3.58-.05-5.25,1.29-2.71,2.49-5.58,3.57-8.55.63-1.72,2.02-3.06,3.76-3.64l13.48-4.44v-34.87l-13.57-4.51c-1.78-.59-3.18-1.98-3.79-3.76-.98-2.86-2.15-5.66-3.48-8.32-.84-1.69-.84-3.67,0-5.36l6.4-12.85-24.72-24.72-12.77,6.39c-1.65.83-3.59.85-5.26.05-2.71-1.29-5.59-2.49-8.55-3.57-1.71-.63-3.04-2-3.63-3.72l-4.57-13.6h-34.91l-4.57,13.6c-.6,1.77-1.98,3.16-3.75,3.77-2.85.97-5.65,2.14-8.32,3.48-1.69.85-3.69.84-5.38,0l-12.85-6.45-24.71,24.71,6.45,12.85c.83,1.65.85,3.6.06,5.27-1.29,2.7-2.49,5.58-3.57,8.55-.63,1.72-2.01,3.06-3.74,3.63l-13.57,4.51v34.88l13.57,4.51c1.78.59,3.18,1.98,3.79,3.76.98,2.86,2.15,5.66,3.48,8.32.85,1.69.84,3.69,0,5.38l-6.45,12.85,24.72,24.72,12.85-6.4c1.65-.82,3.59-.84,5.25-.05,2.71,1.29,5.58,2.49,8.55,3.57,1.71.63,3.04,2,3.63,3.72l4.57,13.59ZM407.96,170.54h0,0ZM310.55,197.41c-26.82,0-48.65-21.82-48.65-48.65s21.82-48.65,48.65-48.65,48.65,21.82,48.65,48.65-21.82,48.65-48.65,48.65ZM310.55,112.12c-20.21,0-36.65,16.44-36.65,36.65s16.44,36.65,36.65,36.65,36.65-16.44,36.65-36.65-16.44-36.65-36.65-36.65Z"/>
  <path class="ak" d="M146.2,227.43c-3.1,0-5.63-2.52-5.63-5.63s2.52-5.63,5.63-5.63,5.63,2.52,5.63,5.63-2.52,5.63-5.63,5.63ZM146.2,221.76s-.04.02-.04.04l.04-.04Z"/>
  <path class="ak" d="M146.2,397.87c-3.1,0-5.63-2.52-5.63-5.63s2.52-5.63,5.63-5.63,5.63,2.52,5.63,5.63-2.52,5.63-5.63,5.63ZM146.2,392.2s-.04.02-.04.04l.04-.04Z"/>
  <path class="ak" d="M206.44,252.4c-1.44,0-2.88-.55-3.98-1.64,0,0,0,0,0,0-1.06-1.06-1.65-2.48-1.65-3.98s.59-2.92,1.65-3.98c1.06-1.06,2.48-1.65,3.98-1.65s2.92.58,3.98,1.65c1.06,1.06,1.65,2.47,1.65,3.98s-.59,2.92-1.65,3.98c-1.1,1.1-2.54,1.65-3.98,1.65ZM206.47,246.81h0s0,0,0,0Z"/>
  <path class="ak" d="M85.88,372.94c-1.5,0-2.92-.58-3.98-1.65h0s0,0,0,0h0c-1.06-1.06-1.65-2.47-1.65-3.98s.59-2.92,1.65-3.98c2.19-2.19,5.76-2.19,7.96,0,1.06,1.06,1.65,2.48,1.65,3.98s-.59,2.92-1.65,3.98c-1.06,1.06-2.48,1.65-3.98,1.65ZM85.86,367.34s0,0,0,0c.01.01.05.01.06,0h-.05Z"/>
  <path class="ak" d="M231.42,312.65c-3.1,0-5.63-2.52-5.63-5.63s2.52-5.63,5.63-5.63,5.63,2.52,5.63,5.63-2.52,5.63-5.63,5.63ZM231.42,306.98s-.04.02-.04.04l.04-.04Z"/>
  <path class="ak" d="M60.98,312.65c-3.1,0-5.63-2.52-5.63-5.63s2.52-5.63,5.63-5.63,5.63,2.52,5.63,5.63-2.52,5.63-5.63,5.63ZM60.98,306.98s-.04.02-.04.04l.04-.04Z"/>
  <path class="ak" d="M206.44,372.95c-1.44,0-2.88-.55-3.98-1.64,0,0,0,0,0,0-1.06-1.06-1.65-2.48-1.65-3.98s.59-2.92,1.65-3.98c1.06-1.06,2.48-1.65,3.98-1.65s2.92.58,3.98,1.65c1.06,1.06,1.65,2.47,1.65,3.98s-.59,2.92-1.65,3.98c-1.1,1.1-2.54,1.65-3.98,1.65ZM206.47,367.36h0s0,0,0,0Z"/>
  <path class="ak" d="M85.94,252.41c-1.44,0-2.88-.55-3.98-1.64-1.06-1.06-1.65-2.48-1.65-3.98s.59-2.92,1.65-3.98c1.06-1.06,2.48-1.65,3.98-1.65s2.92.58,3.98,1.65h0s0,0,0,0h0c1.06,1.06,1.65,2.47,1.65,3.98s-.59,2.92-1.65,3.98c-1.1,1.1-2.54,1.64-3.98,1.65ZM85.92,246.75s.05,0,.05,0c-.01-.01-.05-.01-.06,0h0Z"/>
</svg>
