<?xml version='1.0' encoding='UTF-8'?>
<svg xmlns="http://www.w3.org/2000/svg" id="x" data-name="Buste cadre_2" viewBox="0 0 453.54 453.54">
  <defs>
    <style>
      .cb {
        fill: #fff;
      }

      .cb, .cc, .cd, .ce, .cf {
        stroke-linejoin: round;
      }

      .cb, .cc, .cd, .ce, .cg {
        stroke-width: 12px;
      }

      .cb, .cc, .ce, .cf, .cg {
        stroke: #5F1972;
      }

      .cc, .cd, .ce, .cg {
        fill: none;
      }

      .cc, .cd, .cf {
        stroke-linecap: round;
      }

      .cd {
        stroke: #fff;
      }

      .cf {
        fill: #5F1972;
        stroke-width: 13.38px;
      }

      .cg {
        stroke-miterlimit: 10;
      }
    </style>
  </defs>
  <path class="cg" d="M196.8,122.05c0,33.47-27.13,60.6-60.6,60.6s-60.6-27.13-60.6-60.6"/>
  <path class="cg" d="M73.95,118.78s-10.19-12.85-3.37-23.92c6.83-11.07,12.59-25.25,12.59-25.25,0,0,15.91-28.5,41.12-24.89,0,0,24.08,2.87,27.05,4.45,0,0,34.74,11.59,34.84,16.07,0,0,17.35,26.21,16.19,36.85-1.16,10.64-5.56,19.95-5.56,19.95l-4.13-.17-43.54-13.34s-32.54-10.59,9.83,18.68c0,0-44.41.74-64.69-38.33,0,0-13.39,9.12-18.66,31.85l-1.65-1.97Z"/>
  <path class="ce" d="M110.76,212.15l26.03,25.84,25.66-25.84c80.29,2.36,77.53,103.37,77.53,103.37H33.04c.37-103.37,77.71-103.37,77.71-103.37Z"/>
  <polygon class="cc" points="136.79 249.71 114.85 271.65 136.47 315.53 158.72 271.65 136.79 249.71"/>
  <path class="cg" d="M366.2,146.69c-9.39,21.3-30.7,36.17-55.48,36.17-21.05,0-39.59-10.73-50.46-27.03"/>
  <path class="cb" d="M336.97,212.37l-25.66,25.84-26.03-25.84s-77.35,0-77.71,103.37h206.93s2.76-101.01-77.53-103.37Z"/>
  <path class="cc" d="M269.22,198.8l-29.21.96s-15.19-67.24,0-104.92c0,0,17.68-51.72,66.44-50.48,0,0,63.23.52,74.92,41.99,0,0,15.15,73.44,1.64,103.21,0,0-3.95,2.53-36.69,9.23,0,0,43.09-79.02,10.26-113.67,0,0-34.67,31.71-85.68,17.79l-10.63,52.92s6.4,13.31,8.95,42.96Z"/>
  <path class="cf" d="M192.29,416.08h166.24c3.68,0,6.65-3.72,6.64-8.29l-.37-91c-.02-4.54-2.98-8.21-6.63-8.21l-166.53-.17c-3.69,0-6.67,3.73-6.64,8.32l.66,91.17c.03,4.53,2.99,8.18,6.64,8.18Z"/>
  <rect class="cd" x="255.52" y="360.56" width="37.92" height="16.77"/>
  <polyline class="cd" points="192.41 339.09 214.73 360.56 335.58 360.44 357.43 339.09"/>
  <polyline class="cc" points="244.78 304.53 244.78 282.29 305.53 282.29 305.53 305.77"/>
</svg>
