<?xml version='1.0' encoding='UTF-8'?>
<svg xmlns="http://www.w3.org/2000/svg" id="p" data-name="Service" viewBox="0 0 453.54 453.54">
  <defs>
    <style>
      .ak {
        fill: #5F1972;
        stroke-width: 0px;
      }
    </style>
  </defs>
  <path class="ak" d="M375.44,174.06c-4.17-35.73-21.74-69.3-49.76-94.9-27.82-25.4-63.25-39.99-97.24-40.01h-.09c-33.99.02-69.43,14.61-97.24,40.01-28.02,25.6-45.59,59.17-49.77,94.9-26.29,9.96-43.55,36.86-40.17,66.03,1.93,16.68,10.25,31.61,23.41,42.04,11.22,8.89,24.82,13.6,38.92,13.6,2.44,0,4.9-.14,7.36-.42l15.33-1.78c1.59-.18,3.03-.99,4.02-2.23.98-1.25,1.44-2.84,1.25-4.42l-13.09-112.99c-.07-.59-.22-1.17-.46-1.7,6.58-54.6,56.47-100.19,110.45-100.22h.06c53.98.03,103.87,45.61,110.46,100.21-.23.53-.39,1.11-.46,1.71l-13.1,112.99c-.18,1.58.27,3.17,1.26,4.42.99,1.24,2.43,2.05,4.01,2.23l15.34,1.78c1.7.19,3.39.32,5.07.37-.77,10.22-4.03,32.76-17.69,46.52-7.53,7.59-17.38,11.44-29.27,11.44h-43v-6.33c0-3.32-2.68-6-6-6h-44.75c-10.67,0-19.35,8.67-19.35,19.34s8.68,19.35,19.35,19.35h44.75c3.32,0,6-2.69,6-6v-8.36h43c15.21,0,27.93-5.04,37.79-14.98,17.24-17.38,20.61-44.78,21.26-55.72,27.11-4.34,49.22-26.27,52.53-54.85,3.38-29.18-13.88-56.07-40.18-66.03ZM249.04,368h-38.75c-4.05,0-7.35-3.3-7.35-7.35s3.3-7.34,7.35-7.34h38.75v14.69ZM118.85,282.3l-9.37,1.09c-13.5,1.56-26.8-2.23-37.45-10.66-10.65-8.44-17.37-20.52-18.94-34.02-2.57-22.15,9.57-42.68,28.66-51.79l6.36,54.85c.36,3.06,2.95,5.31,5.96,5.31.23,0,.46-.01.69-.04,3.3-.38,5.65-3.36,5.27-6.65l-6.65-57.36c1.44-.3,2.9-.54,4.39-.71l9.37-1.08,11.71,101.06ZM309.38,92.87c-23.12-20.87-52.57-32.85-80.85-32.9h-.2c-28.29.03-57.78,12.01-80.92,32.9-22.87,20.65-37.39,47.61-41.23,76.39l-9.79,1.14c-.84.1-1.67.21-2.5.35,10.17-65.6,69.93-119.56,134.47-119.6h.07c64.54.04,124.3,54,134.46,119.6-.82-.14-1.65-.25-2.49-.35l-9.8-1.14c-3.83-28.78-18.35-55.74-41.22-76.39ZM403.69,238.71c-1.56,13.5-8.29,25.58-18.94,34.02-10.65,8.44-23.94,12.22-37.44,10.66l-9.38-1.09,11.72-101.06,9.37,1.08c1.48.17,2.94.4,4.38.7l-6.65,57.37c-.38,3.29,1.98,6.27,5.27,6.65.24.03.47.04.7.04,3.01,0,5.6-2.25,5.95-5.31l6.36-54.88c6.94,3.3,13.09,8.17,18,14.37,8.44,10.65,12.23,23.95,10.66,37.45Z"/>
  <path class="ak" d="M249.04,358.5v2.28c-.07-.37-.11-.75-.11-1.14s.04-.77.11-1.14Z"/>
</svg>
