<?xml version='1.0' encoding='UTF-8'?>
<svg xmlns="http://www.w3.org/2000/svg" id="a" data-name="CDD" viewBox="0 0 453.54 453.54">
  <defs>
    <style>
      .j, .k, .l {
        stroke-linejoin: round;
      }

      .j, .k, .l, .m {
        stroke: #5F1972;
        stroke-linecap: round;
      }

      .j, .k, .m {
        stroke-width: 12px;
      }

      .j, .m {
        fill: #fff;
      }

      .n {
        fill: #5F1972;
        stroke-width: 0px;
      }

      .k, .l {
        fill: none;
      }

      .l {
        stroke-width: 11.87px;
      }

      .m {
        stroke-miterlimit: 10;
      }
    </style>
  </defs>
  <polyline class="k" points="311.91 397.65 311.91 410 44.94 410 44.94 43.11 208.37 43.11"/>
  <line class="k" x1="311.91" y1="150.29" x2="311.91" y2="167"/>
  <polygon class="k" points="208.37 43.11 208.37 150.29 311.91 150.29 208.37 43.11"/>
  <circle class="j" cx="128.67" cy="112.21" r="22.03"/>
  <path class="j" d="M91.61,179.79h74.2s.51-32.16-37.13-32.16-37.07,32.16-37.07,32.16Z"/>
  <line class="m" x1="195.83" y1="251.6" x2="80.49" y2="251.6"/>
  <line class="m" x1="195.83" y1="312.48" x2="80.49" y2="312.48"/>
  <line class="m" x1="137.82" y1="373.44" x2="80.49" y2="373.44"/>
  <ellipse class="l" cx="311.69" cy="282.21" rx="95.81" ry="97.32"/>
  <line class="m" x1="311.69" y1="379.53" x2="311.69" y2="357.33"/>
  <line class="m" x1="311.69" y1="206.84" x2="311.69" y2="184.65"/>
  <line class="m" x1="217.46" y1="282.01" x2="239.66" y2="282.01"/>
  <line class="m" x1="385.3" y1="282.01" x2="407.49" y2="282.01"/>
  <line class="m" x1="283.06" y1="282.21" x2="305.26" y2="282.21"/>
  <line class="m" x1="311.91" y1="267.71" x2="311.91" y2="232.51"/>
  <circle class="n" cx="311.86" cy="282.38" r="17.21"/>
</svg>
