<?xml version='1.0' encoding='UTF-8'?>
<svg xmlns="http://www.w3.org/2000/svg" id="d" data-name="Rupture contrat" viewBox="0 0 453.54 453.54">
  <defs>
    <style>
      .j, .k {
        stroke-width: 12px;
      }

      .j, .k, .l {
        fill: none;
        stroke: #5F1972;
        stroke-linejoin: round;
      }

      .j, .l {
        stroke-linecap: round;
      }

      .m {
        fill: #5F1972;
        stroke-width: 0px;
      }

      .l {
        stroke-width: 9.68px;
      }
    </style>
  </defs>
  <polygon class="k" points="347.46 49.67 332.18 117.97 393.68 121.11 347.46 49.67"/>
  <polygon class="k" points="181.81 56.6 65.09 64.86 82.15 425.2 209.8 419.06 239.1 365.73 200.53 302.85 231.25 239.86 190.69 170.6 224.99 105.51 189.77 56.6 181.81 56.6"/>
  <polygon class="j" points="251.26 49.67 347.23 49.67 394.21 121.93 379.46 425.2 230.46 417.47 262.21 367.98 230.46 300.8 269.79 237.82 235.56 171.27 276.33 106.69 251.26 49.67"/>
  <g>
    <path class="m" d="M336.64,373.75c3.68-1.44,6.66-5.11,8.1-8.1.52-1.03,1.32-2.7,1.78-3.1.52-.34,3.68-1.09,5.74-1.09l.4,1.09c.6-.45,1.38-.72,2.34-.72.04,0,.08,0,.11,0,.43-.22.87-.43,1.31-.62.75-.44,1.52-.86,2.29-1.26.41-.89,1.12-1.62,2.15-1.96l-.51-1.41c1.78-3.1,1.15-6.66.63-9.59-.23-1.15-.57-3.04-.4-3.62.23-.52,1.55-1.78,2.35-2.58,2.41-2.3,5.46-5.11,5.46-9.36s-3.04-7.12-5.46-9.36c-.8-.75-2.12-2.01-2.35-2.53-.17-.57.17-2.53.4-3.62.57-3.22,1.32-7.24-1.15-10.57-2.47-3.33-6.49-3.85-9.76-4.31-1.15-.17-3.1-.4-3.56-.75-.46-.4-1.26-2.07-1.78-3.1-1.44-2.99-3.16-6.89-7.24-7.98-3.73-.98-8.04.98-10.28,2.18-1.09.57-2.87,1.55-3.5,1.55s-2.47-.98-3.5-1.55c-2.99-1.61-6.83-3.27-10.28-2.18-4.02,1.26-5.8,5-7.24,7.98-.52,1.03-1.32,2.7-1.78,3.1-.52.34-2.47.57-3.62.75-3.27.46-7.35.98-9.76,4.31-2.47,3.33-1.72,7.35-1.15,10.57.23,1.15.57,3.04.4,3.62-.23.52-1.55,1.78-2.35,2.58-2.41,2.3-5.46,5.11-5.46,9.36s3.04,7.12,5.46,9.36c.8.75,2.12,2.01,2.35,2.53.17.57-.17,2.53-.4,3.62-.52,2.93-1.15,6.49.57,9.59l-.61,1.67h.34c.73,0,1.41.19,2.04.55.27.21.54.42.82.63.44.44.75.96.96,1.55.34-.09.76.82,1.16.82l3.51-.27c2.12-.06,5.23.75,5.74,1.03.46.4,1.26,2.07,1.78,3.1,1.44,2.99,3.96,6.09,8.1,8.1l-.4,1.09c.23-.06.45-.13.69-.18,2.37-.5,4.32-.1,6.43-1.55,1.15-.79,2.29-.86,3.25-.49l.65-1.86c.92-.46,1.84-.86,2.24-.86s1.32.4,2.24.86l2.05,5.85c2.24-1.33,4.97-1.78,7.73-1.9l.96-.97Z"/>
    <polygon class="l" points="293.5 350.78 279.89 382.23 297.02 382.23 308.64 392.79 317.91 364.63 293.5 350.78"/>
    <polygon class="l" points="329.02 368.15 337.64 391.21 349.61 381.52 364.75 381.35 354.54 354.59 347.42 349.19 329.02 368.15"/>
  </g>
  <line class="j" x1="262.7" y1="130.58" x2="333.89" y2="134.81"/>
  <line class="j" x1="239.1" y1="168.72" x2="329.16" y2="174.06"/>
  <line class="j" x1="256.03" y1="207.66" x2="326.45" y2="211.84"/>
  <line class="j" x1="265.36" y1="246.73" x2="326.45" y2="250.35"/>
  <line class="j" x1="119.88" y1="138.52" x2="208.93" y2="131.77"/>
  <line class="j" x1="124.11" y1="175.13" x2="190.25" y2="170.12"/>
  <line class="j" x1="127.16" y1="208.97" x2="207.87" y2="204.68"/>
  <line class="j" x1="130.38" y1="245.47" x2="227.87" y2="240.61"/>
</svg>
