<?xml version='1.0' encoding='UTF-8'?>
<svg xmlns="http://www.w3.org/2000/svg" id="y" data-name="Localisation" viewBox="0 0 453.54 453.54">
  <defs>
    <style>
      .z {
        fill: none;
      }

      .z, .aa {
        stroke: #5F1972;
        stroke-linecap: round;
        stroke-linejoin: round;
        stroke-width: 12px;
      }

      .ab {
        fill: #5F1972;
      }

      .ab, .ac {
        stroke-width: 0px;
      }

      .aa, .ac {
        fill: #fff;
      }
    </style>
  </defs>
  <g>
    <circle class="z" cx="211.11" cy="246.67" r="167.76"/>
    <ellipse class="z" cx="211.11" cy="246.67" rx="70.08" ry="167.76"/>
    <ellipse class="z" cx="211.11" cy="246.67" rx="167.76" ry="70.08"/>
  </g>
  <path class="ac" d="M335.27,241.21c9.13,12.93,22.82,29.66,22.82,29.66,0,0,83.66-105.72,83.66-150.6,0-12.93-3.04-25.86-8.37-36.51l-8.37-13.69c-15.21-20.54-39.55-34.23-66.93-34.23-34.99,0-64.65,21.3-77.58,52.48l-4.56,14.45c-1.52,6.08-1.52,11.41-1.52,17.49,0,25.1,24.34,66.93,45.63,98.88"/>
  <path class="aa" d="M322.8,117.05c0-18.52,15.15-33.68,33.68-33.68s33.68,15.15,33.68,33.68-15.15,33.68-33.68,33.68-33.68-15.15-33.68-33.68ZM338.29,212.35c8.42,13.47,18.18,28.62,18.18,28.62,0,0,10.1-15.15,18.18-28.62l4.04-6.4c16.84-28.29,38.39-68.7,38.39-88.9,0-33.34-27.28-60.62-60.62-60.62s-60.62,27.28-60.62,60.62c0,20.21,21.55,60.62,38.39,88.9l4.04,6.4Z"/>
  <circle class="ab" cx="356.78" cy="116.36" r="33.78"/>
</svg>
