<?xml version='1.0' encoding='UTF-8'?>
<svg xmlns="http://www.w3.org/2000/svg" id="b" data-name="Deplacement carte" viewBox="0 0 453.54 453.54">
  <defs>
    <style>
      .z, .aa, .ab {
        stroke: #5F1972;
        stroke-linecap: round;
        stroke-linejoin: round;
      }

      .z, .ab {
        fill: none;
        stroke-width: 9px;
      }

      .ac {
        fill: #5F1972;
      }

      .ac, .ad {
        stroke-width: 0px;
      }

      .aa {
        stroke-width: 12px;
      }

      .aa, .ad {
        fill: #fff;
      }

      .ab {
        stroke-dasharray: 0 0 26.13 20.9;
      }
    </style>
  </defs>
  <polygon class="aa" points="42.84 358.58 136.82 324.65 136.82 89.7 42.84 123.64 42.84 358.58"/>
  <polygon class="aa" points="136.82 324.65 230.79 358.58 230.79 123.64 136.82 89.7 136.82 324.65"/>
  <polygon class="aa" points="230.79 358.58 324.77 324.65 324.77 89.7 230.79 123.64 230.79 358.58"/>
  <polygon class="aa" points="324.77 324.65 418.75 358.58 418.75 123.64 324.77 89.7 324.77 324.65"/>
  <g>
    <line class="z" x1="354.07" y1="138.29" x2="400.81" y2="185.03"/>
    <line class="z" x1="354.07" y1="185.03" x2="400.81" y2="138.29"/>
  </g>
  <g>
    <path class="z" d="M376.06,163.04c-4.74.19-9.32.48-13.74.85"/>
    <path class="ab" d="M341.58,166.44c-46.38,7.65-71.45,25.79-81.18,40.66-22.25,34,10.01,53.54-13.77,83.61-16.34,20.66-42.63,15.72-84.75.33"/>
    <path class="z" d="M152.08,287.39c-4.14-1.57-8.43-3.22-12.85-4.94"/>
  </g>
  <path class="ad" d="M99.52,210.81c0-20.41,16.33-37.14,36.74-37.14s36.74,16.74,36.74,37.14c0,15.92-24.08,51.02-36.74,67.35-12.65-16.33-36.74-51.43-36.74-67.35Z"/>
  <path class="aa" d="M113.77,194.2c0-12.68,10.37-23.05,23.05-23.05s23.05,10.37,23.05,23.05-10.37,23.05-23.05,23.05-23.05-10.37-23.05-23.05ZM124.37,259.44c5.76,9.22,12.45,19.59,12.45,19.59,0,0,6.92-10.37,12.45-19.59l2.77-4.38c11.53-19.36,26.28-47.02,26.28-60.85,0-22.82-18.67-41.49-41.49-41.49s-41.49,18.67-41.49,41.49c0,13.83,14.75,41.49,26.28,60.85l2.77,4.38Z"/>
  <circle class="ac" cx="137.02" cy="193.73" r="23.12"/>
</svg>
