<?xml version='1.0' encoding='UTF-8'?>
<svg xmlns="http://www.w3.org/2000/svg" id="z" data-name="Carte identité" viewBox="0 0 453.54 453.54">
  <defs>
    <style>
      .am {
        fill: #8A5301;
        stroke-width: 0px;
      }
    </style>
  </defs>
  <path class="am" d="M362.72,245.97h-139.95c-3.31,0-6-2.69-6-6s2.69-6,6-6h139.95c3.31,0,6,2.69,6,6s-2.69,6-6,6Z"/>
  <path class="am" d="M362.72,179.66h-139.95c-3.31,0-6-2.69-6-6s2.69-6,6-6h139.95c3.31,0,6,2.69,6,6s-2.69,6-6,6Z"/>
  <path class="am" d="M364.87,314.23H94.73c-3.31,0-6-2.69-6-6s2.69-6,6-6h270.14c3.31,0,6,2.69,6,6s-2.69,6-6,6Z"/>
  <path class="am" d="M144.92,138.24c-19.54,0-35.43,15.89-35.43,35.42s15.89,35.44,35.43,35.44,35.42-15.9,35.42-35.44-15.89-35.42-35.42-35.42ZM144.92,197.44c-13.11,0-23.78-10.66-23.78-23.78s10.67-23.77,23.78-23.77,23.77,10.67,23.77,23.77-10.67,23.78-23.77,23.78Z"/>
  <path class="am" d="M187.42,226.6c-9.58-9.45-22.26-14.66-35.72-14.66h-13.57c-13.46,0-26.14,5.21-35.72,14.66-9.56,9.45-14.93,22.05-15.1,35.49-.02,1.55.59,3.07,1.68,4.17,1.08,1.1,2.59,1.73,4.14,1.73h103.57c1.55,0,3.06-.63,4.15-1.73,1.09-1.11,1.7-2.63,1.68-4.17-.18-13.43-5.55-26.04-15.11-35.49ZM99.48,256.34c3.09-18.67,19.32-32.75,38.65-32.75h13.57c19.33,0,35.56,14.08,38.65,32.75h-90.87Z"/>
  <path class="am" d="M393.93,366.67H68.45c-16.86,0-30.57-13.71-30.57-30.57v-205.09c0-16.86,13.71-30.57,30.57-30.57h325.48c16.86,0,30.57,13.71,30.57,30.57v205.09c0,16.86-13.71,30.57-30.57,30.57ZM68.45,112.44c-10.24,0-18.57,8.33-18.57,18.57v205.09c0,10.24,8.33,18.57,18.57,18.57h325.48c10.24,0,18.57-8.33,18.57-18.57v-205.09c0-10.24-8.33-18.57-18.57-18.57H68.45Z"/>
</svg>
