<?xml version='1.0' encoding='UTF-8'?>
<svg xmlns="http://www.w3.org/2000/svg" id="d" data-name="Drapeau français" viewBox="0 0 453.54 453.54">
  <defs>
    <style>
      .k {
        fill: #8A5301;
        stroke-width: 0px;
      }

      .l {
        fill: none;
        stroke: #8A5301;
        stroke-miterlimit: 10;
        stroke-width: 12px;
      }
    </style>
  </defs>
  <path class="l" d="M84.39,410.77h110.34c3.22,0,3.22-.68,0-.68h-46.4v-181.2c12.45,3.9,25.59,5.89,39.99,5.89,22.33,0,44.73-4.57,66.33-9.06,21.09-4.35,42.84-8.77,63.93-8.77,30.16,0,53.64,11.82,53.64,11.82V61.53s-20.59-10.87-53.64-10.87c-22.32,0-44.72,4.57-66.33,9.06-21.09,4.35-42.84,8.77-63.93,8.77-14.52,0-27.67-2.24-39.99-6.54v-8.45c0-3.22-2.62-5.84-5.84-5.84h-8.36c-3.22,0-5.84,2.62-5.84,5.84v356.59h-43.9c-3.22,0-3.22.68,0,.68Z"/>
  <path class="k" d="M142.33,61.95s40.49,11.18,83.14,2.95l1.63,166.18s-61.88,8.72-84.77-2.18V61.95Z"/>
  <path class="k" d="M301.68,51.46v162.54s39.97-1.79,70.53,14.77V61.53s-32.3-17.95-70.53-10.07Z"/>
</svg>
