<?xml version='1.0' encoding='UTF-8'?>
<svg xmlns="http://www.w3.org/2000/svg" id="q" data-name="Etudiant pauvre" viewBox="0 0 453.54 453.54">
  <defs>
    <style>
      .z {
        fill: #144179;
        stroke-width: 0px;
      }
    </style>
  </defs>
  <g>
    <path class="z" d="M197.88,159.14h56.52c4.85,0,8.79,3.94,8.79,8.79v117.2h-74.09v-117.2c0-4.85,3.94-8.79,8.79-8.79Z"/>
    <rect class="z" x="189.09" y="211.95" width="33.05" height="204.91" rx="16.52" ry="16.52"/>
    <rect class="z" x="230.13" y="218.56" width="33.05" height="198.3" rx="16.52" ry="16.52"/>
    <rect class="z" x="166.22" y="147.24" width="22.69" height="71.18" rx="11.35" ry="11.35" transform="translate(110.3 428.65) rotate(-120.53)"/>
    <rect class="z" x="140.73" y="185.19" width="22.69" height="64.8" rx="10.83" ry="10.83" transform="translate(276.95 451.86) rotate(-173.11)"/>
    <polygon class="z" points="192.19 285.13 193.23 256.48 146.96 249.87 192.19 285.13"/>
    <rect class="z" x="263.64" y="147.24" width="22.69" height="71.18" rx="11.35" ry="11.35" transform="translate(-22.19 326.81) rotate(-59.47)"/>
    <rect class="z" x="289.13" y="185.19" width="22.69" height="64.8" rx="10.83" ry="10.83" transform="translate(-23.94 37.63) rotate(-6.89)"/>
    <polygon class="z" points="260.37 285.13 259.33 256.48 305.6 249.87 260.37 285.13"/>
  </g>
  <g>
    <path class="z" d="M226.63,118.05c-16.02,0-25.92-3.54-30.93-6.05-.15,1.21-.23,2.44-.23,3.7,0,16.93,13.73,30.66,30.66,30.66s30.66-13.73,30.66-30.66c0-1.1-.06-2.18-.17-3.24-5.26,2.46-14.92,5.59-29.99,5.59Z"/>
    <path class="z" d="M280.51,91.56v-21.33l2.78-1.18c1.13-.48,1.85-1.58,1.83-2.81-.02-1.23-.78-2.31-1.92-2.74l-55.49-21.22c-.68-.26-1.43-.26-2.11,0l-54.47,20.23c-1.15.43-1.92,1.5-1.95,2.73-.03,1.23.67,2.34,1.8,2.83l24.73,10.73v27.02c0,.69.35,1.34.94,1.69,2.81,1.71,12.09,6.36,29.99,6.36s27.18-4.65,29.99-6.36c.59-.36.94-1,.94-1.69v-25.85l18.96-8.03v19.68l-3.84,8.88c-.28.66.2,1.39.92,1.39h10.32c.74,0,1.22-.77.9-1.43l-4.3-8.89Z"/>
  </g>
</svg>
