<?xml version='1.0' encoding='UTF-8'?>
<svg xmlns="http://www.w3.org/2000/svg" id="l" data-name="Ecole classe" viewBox="0 0 453.54 453.54">
  <defs>
    <style>
      .z {
        fill: none;
        stroke: #144179;
        stroke-linecap: round;
        stroke-linejoin: round;
        stroke-width: 12px;
      }

      .aa {
        fill: #144179;
        stroke-width: 0px;
      }
    </style>
  </defs>
  <rect class="z" x="57.2" y="76.94" width="249.36" height="182.85"/>
  <path class="z" d="M52.21,342.08c0-11.93,9.67-21.6,21.6-21.6s21.6,9.67,21.6,21.6-9.67,21.61-21.6,21.61-21.6-9.68-21.6-21.61"/>
  <path class="z" d="M111.61,412.05c-.24-17.94-14.85-32.41-32.85-32.41h-9.9c-18,0-32.61,14.47-32.84,32.41h75.59Z"/>
  <path class="z" d="M160.27,342.08c0-11.93,9.67-21.6,21.6-21.6s21.6,9.67,21.6,21.6-9.67,21.61-21.6,21.61-21.6-9.68-21.6-21.61"/>
  <path class="z" d="M219.67,412.05c-.24-17.94-14.85-32.41-32.85-32.41h-9.9c-18,0-32.61,14.47-32.84,32.41h75.59Z"/>
  <path class="z" d="M268.33,342.08c0-11.93,9.67-21.6,21.6-21.6s21.6,9.67,21.6,21.6-9.67,21.61-21.6,21.61-21.6-9.68-21.6-21.61"/>
  <path class="z" d="M327.73,412.05c-.24-17.94-14.85-32.41-32.85-32.41h-9.9c-18,0-32.61,14.47-32.84,32.41h75.59Z"/>
  <line class="z" x1="57.2" y1="238.05" x2="306.55" y2="238.05"/>
  <rect class="z" x="89.82" y="214.48" width="51.03" height="23.12"/>
  <g>
    <circle class="aa" cx="366.74" cy="173.04" r="24.82"/>
    <path class="aa" d="M274.67,221.43c3.43-3.74,9.25-3.98,12.98-.55l23.39,21.49,20.32-22.12c1.31-1.42,4.09-4.25,9.09-4.25h46.37c4.81,0,6.47,2.21,8.58,5.39l19.62,34c.75,1.3,1.76,6.14,1.76,7.27,0,5.36,0,12.45,0,19.54h-18.38c0-6.79,0-13.57,0-18.84l-4.78-8.28v27.12h-59.99v-37.26s-15.3,16.65-15.3,16.65c-3.43,3.74-9.25,3.98-12.98.55h0c-.25-.22-.35-.53-.56-.77-.21-.16-.47-.22-.67-.4l-28.91-26.56c-3.74-3.43-3.99-9.24-.55-12.98Z"/>
  </g>
</svg>
