<?xml version='1.0' encoding='UTF-8'?>
<svg xmlns="http://www.w3.org/2000/svg" id="bg" data-name="Audiovisuel" viewBox="0 0 453.54 453.54">
  <defs>
    <style>
      .bu {
        fill: none;
        stroke-width: 12px;
      }

      .bu, .bv {
        stroke: #008280;
        stroke-linecap: round;
        stroke-linejoin: round;
      }

      .bv {
        fill: #008280;
        stroke-width: 11.78px;
      }
    </style>
  </defs>
  <polygon class="bu" points="91.04 413.73 91.04 186.17 393.33 186.17 392.79 413.73 91.04 413.73"/>
  <polygon class="bu" points="70.04 117.36 375.59 40.84 392.79 112.51 91.04 186.17 70.04 117.36"/>
  <line class="bu" x1="91.04" y1="261.74" x2="392.79" y2="261.74"/>
  <line class="bu" x1="164.11" y1="187.65" x2="126.04" y2="260.73"/>
  <line class="bu" x1="227.65" y1="187.66" x2="189.58" y2="260.74"/>
  <line class="bu" x1="354.73" y1="188.66" x2="316.66" y2="261.74"/>
  <polygon class="bv" points="204.4 299.53 204.4 375.1 279.97 337.31 204.4 299.53"/>
  <line class="bu" x1="291.19" y1="187.17" x2="253.12" y2="260.26"/>
  <line class="bu" x1="298.37" y1="62.14" x2="351.43" y2="118.08"/>
  <line class="bu" x1="236.69" y1="77.42" x2="289.76" y2="133.36"/>
  <line class="bu" x1="113.56" y1="108.86" x2="166.62" y2="164.8"/>
  <line class="bu" x1="174.91" y1="92.26" x2="227.97" y2="148.2"/>
</svg>
