<?xml version='1.0' encoding='UTF-8'?>
<svg xmlns="http://www.w3.org/2000/svg" id="bd" data-name="Culture théâtre" viewBox="0 0 453.54 453.54">
  <defs>
    <style>
      .bu {
        fill: #008280;
      }

      .bu, .bv {
        stroke: #008280;
        stroke-linecap: round;
        stroke-linejoin: round;
        stroke-width: 12px;
      }

      .bv {
        fill: #fff;
      }
    </style>
  </defs>
  <path class="bv" d="M301.76,187.58c72.97,33.53,114.88,19.04,114.88,19.04l-63.91,137.49s-54.31,98.35-146.43,56.03l-3.33-1.53c-99.95-45.93-56.5-149.27-56.5-149.27l62.7-138.05s45.96,54.87,92,76.02l.61.28Z"/>
  <path class="bu" d="M346.3,271.01s-28.41,11.53-34.74-17.8c0,0,10.64,15.16,34.74,17.8Z"/>
  <path class="bu" d="M289.85,354.01s-43.05-43.63-104.28-46.08c0,0,71.28-45.75,104.28,46.08Z"/>
  <g>
    <path class="bv" d="M157.78,105.82c80.31,0,112.33-30.67,112.33-30.67l-.67,151.62s-8.29,112.05-109.67,112.05h-3.67c-110,0-113.67-112.05-113.67-112.05l-.67-151.62s64.67,30.67,115.33,30.67h.67Z"/>
    <path class="bu" d="M85.45,170.82s21-22.33,39,1.67c0,0-16-9.33-39-1.67Z"/>
    <path class="bu" d="M194.09,170.82s21-22.33,39,1.67c0,0-16-9.33-39-1.67Z"/>
    <path class="bu" d="M102.45,233.15s57.33,21.67,114-1.67c0,0-45.67,71.33-114,1.67Z"/>
  </g>
</svg>
