<?xml version='1.0' encoding='UTF-8'?>
<svg xmlns="http://www.w3.org/2000/svg" id="p" data-name="Livre ouvert" viewBox="0 0 453.54 453.54">
  <defs>
    <style>
      .bu {
        fill: none;
        stroke: #008280;
        stroke-linecap: round;
        stroke-linejoin: round;
        stroke-width: 12px;
      }
    </style>
  </defs>
  <path class="bu" d="M78.13,126.86c-18.78-20.64-43.73-12.17-43.73-12.17v255.55c106.16-20.43,178.63,24.36,178.63,24.36h20.41s72.47-44.78,178.63-24.36V114.69s-24.95-8.47-43.73,12.17"/>
  <path class="bu" d="M223.25,348.31s-99.77-36.38-144.72-31.01V93.86s101.35,6.71,144.72,44v210.45Z"/>
  <path class="bu" d="M102.72,207.55s50.97-9.77,86.19,24.73"/>
  <path class="bu" d="M104.89,154.07s50.97-9.77,86.19,24.73"/>
  <path class="bu" d="M102.72,261.02s50.97-9.77,86.19,24.73"/>
  <path class="bu" d="M223.25,348.31s99.77-36.38,144.72-31.01V93.86s-101.35,6.71-144.72,44v210.45Z"/>
  <path class="bu" d="M343.77,207.55s-50.97-9.77-86.19,24.73"/>
  <path class="bu" d="M341.6,154.07s-50.97-9.77-86.19,24.73"/>
  <path class="bu" d="M343.77,261.02s-50.97-9.77-86.19,24.73"/>
</svg>
