<?xml version='1.0' encoding='UTF-8'?>
<svg xmlns="http://www.w3.org/2000/svg" id="t" data-name="Bricoler décorer" viewBox="0 0 453.54 453.54">
  <defs>
    <style>
      .bu {
        fill: #008280;
        stroke-width: 0px;
      }
    </style>
  </defs>
  <path class="bu" d="M389.98,77.2H63.48c-3.11,0-5.63,2.52-5.63,5.63v326.5c0,3.11,2.52,5.63,5.63,5.63h281.47c1.49,0,2.93-.59,3.98-1.65l45.03-45.03c1.06-1.05,1.65-2.49,1.65-3.98V82.83c0-3.11-2.52-5.63-5.63-5.63ZM112.76,403.7c-11.65,0-21.13-9.48-21.13-21.13v-1.38h60.59c.4,6.08-1.73,12-6.06,16.32-3.99,3.99-9.3,6.19-14.94,6.19h-18.45ZM125.41,206.68h-22.52v-69.7l22.52-11.26v80.96ZM97.26,217.94h33.78v11.26h-33.78v-11.26ZM91.63,240.45h45.61l13.87,129.47h-59.48v-129.47ZM192.96,403.7v-101.33c0-9.31,7.58-16.89,16.89-16.89h45.03c9.31,0,16.89,7.58,16.89,16.89v101.33h-78.81ZM237.99,246.08h-11.26v-21.96l4.62-23.07h2.03l4.62,23.07v21.96ZM221.1,257.34h28.15v16.89h-33.78v-16.89h5.63ZM342.62,403.7h-59.59v-101.33c0-13.59-9.69-24.96-22.52-27.58v-23.09c0-3.11-2.52-5.63-5.63-5.63h-5.63v-22.52c0-.37-.03-.74-.11-1.1l-5.63-28.15c-.52-2.63-2.83-4.53-5.52-4.53h-11.26c-2.68,0-4.99,1.89-5.52,4.53l-5.63,28.15c-.08.37-.11.73-.11,1.1v22.52h-5.63c-3.11,0-5.63,2.52-5.63,5.63v23.09c-12.83,2.62-22.52,13.98-22.52,27.58v101.33h-26c5.86-6.77,8.68-15.59,7.72-24.58l-15.53-144.89c-.3-2.87-2.72-5.03-5.59-5.03v-16.89c0-3.11-2.52-5.63-5.63-5.63v-90.07c0-1.95-1.01-3.76-2.67-4.79-1.66-1.03-3.73-1.12-5.48-.25l-33.78,16.89c-1.91.96-3.11,2.91-3.11,5.04v73.18c-3.11,0-5.63,2.52-5.63,5.63v16.89c-3.11,0-5.63,2.52-5.63,5.63v147.75c0,8.08,2.99,15.45,7.9,21.13h-19.16V88.46h315.24v270.21h-39.41c-3.11,0-5.63,2.52-5.63,5.63v22.52h11.26v-16.89h25.82l-33.78,33.77Z"/>
  <path class="bu" d="M131.03,296.75h-5.63v-45.03h-11.26v45.03h-5.63c-3.11,0-5.63,2.52-5.63,5.63v28.15c0,3.11,2.52,5.63,5.63,5.63h5.63v22.52h11.26v-22.52h5.63c3.11,0,5.63-2.52,5.63-5.63v-28.15c0-3.11-2.52-5.63-5.63-5.63ZM125.4,324.89h-11.26v-16.89h11.26v16.89Z"/>
  <path class="bu" d="M373.09,308v-45.03c0-15.52-12.63-28.15-28.15-28.15s-28.15,12.63-28.15,28.15v45.03c0,9.31,7.58,16.89,16.89,16.89s16.89-7.58,16.89-16.89v-45.03h-11.26v45.03c0,3.1-2.53,5.63-5.63,5.63s-5.63-2.53-5.63-5.63v-45.03c0-9.31,7.58-16.89,16.89-16.89s16.89,7.58,16.89,16.89v45.03c0,15.52-12.63,28.15-28.15,28.15s-28.15-12.63-28.15-28.15v-45.03h-11.26v45.03c0,21.73,17.68,39.41,39.41,39.41s39.41-17.68,39.41-39.41Z"/>
  <path class="bu" d="M333.69,223.57c21.73,0,39.41-15.15,39.41-33.78,0-11.74-7.03-22.09-17.67-28.15,10.64-6.06,17.67-16.4,17.67-28.15,0-18.63-17.68-33.78-39.41-33.78-18.55,0-34.11,11.06-38.27,25.88l-30.75,13.65-106.08,11.16c-2.86.3-5.04,2.72-5.04,5.6,0,4.4,1.63,8.7,4.7,12.21,3.05,3.29,7.15,5.37,11.54,5.83l94.87,9.98,30.75,13.65c4.17,14.83,19.73,25.88,38.27,25.88h0ZM297.07,155.24l-18.23-9.95,15.88-7.05c.88,5.38,3.23,10.35,6.72,14.61l-4.38,2.38ZM310.48,160.73c.49.31.97.63,1.48.91-.51.29-.99.6-1.48.91l-1.67-.91,1.67-.91ZM301.44,170.44c-3.49,4.25-5.83,9.23-6.72,14.61l-15.88-7.05,18.23-9.95,4.38,2.38ZM361.84,189.79c0,12.42-12.63,22.52-28.15,22.52s-28.15-10.1-28.15-22.52,12.63-22.52,28.15-22.52,28.15,10.1,28.15,22.52ZM333.69,110.98c15.52,0,28.15,10.1,28.15,22.52s-12.63,22.52-28.15,22.52-28.15-10.1-28.15-22.52,12.63-22.52,28.15-22.52ZM166.8,160.87l98.19-10.34,20.34,11.11-20.34,11.11-94.01-9.89c-2-.21-3.4-1.21-4.18-1.99h0Z"/>
  <path class="bu" d="M254.88,156.01h11.26v11.26h-11.26v-11.26Z"/>
</svg>
