<?xml version='1.0' encoding='UTF-8'?>
<svg xmlns="http://www.w3.org/2000/svg" id="k" data-name="Smartphone ecouteurs" viewBox="0 0 453.54 453.54">
  <defs>
    <style>
      .bu {
        fill: #008280;
        stroke-width: 0px;
      }
    </style>
  </defs>
  <path class="bu" d="M173.67,311.96h-100.71c-5.18,0-9.4-4.57-9.4-10.19V110.28c0-5.62,4.21-10.19,9.4-10.19h100.71c5.18,0,9.4,4.57,9.4,10.19v191.48c0,5.62-4.21,10.19-9.4,10.19ZM75.01,300.51h96.62V111.53h-96.62v188.98Z"/>
  <path class="bu" d="M120.43,355.89c-10.07,0-18.26-8.19-18.26-18.26s8.19-18.26,18.26-18.26,18.26,8.19,18.26,18.26-8.19,18.26-18.26,18.26ZM120.43,331.01c-3.65,0-6.61,2.97-6.61,6.61s2.97,6.61,6.61,6.61,6.61-2.97,6.61-6.61-2.97-6.61-6.61-6.61Z"/>
  <path class="bu" d="M394.51,129.26c-13.29,0-24.1,10.82-24.1,24.1,0,11.27,7.79,20.76,18.26,23.37v69.43c0,6.3-5.13,11.44-11.44,11.44h-38.71c-6.95,0-13.19,3.09-17.42,7.96-4.22-4.87-10.47-7.96-17.42-7.96h-38.71c-6.3,0-11.44-5.14-11.44-11.44v-69.39c10.55-2.55,18.42-12.08,18.42-23.41,0-13.28-10.82-24.1-24.1-24.1s-24.1,10.82-24.1,24.1c0,11.22,7.72,20.68,18.13,23.34v69.45c0,12.73,10.36,23.09,23.09,23.09h38.71c6.31,0,11.44,5.13,11.44,11.44v112.21c0,.52.07,1.03.2,1.51-.74,5.6-5.53,9.92-11.33,9.92h-130.37c-6.31,0-11.44-5.13-11.44-11.44v-16.4h17.38c14.8,0,26.82-13.17,26.82-29.38V104.92c0-16.19-12.03-29.38-26.82-29.38h-112.54c-14.79,0-26.82,13.18-26.82,29.38v242.19c0,16.2,12.04,29.38,26.82,29.38h83.51v16.4c0,12.73,10.36,23.09,23.09,23.09h130.37c12.74,0,23.09-10.36,23.09-23.09v-112.21c0-6.31,5.14-11.44,11.44-11.44h38.71c12.74,0,23.09-10.36,23.09-23.09v-69.42c10.49-2.61,18.27-12.11,18.27-23.38,0-13.28-10.81-24.1-24.09-24.1ZM247.87,165.79c-2.16,0-4.2-.55-5.97-1.52-3.86-2.12-6.48-6.21-6.48-10.91,0-6.86,5.58-12.45,12.45-12.45s12.45,5.58,12.45,12.45c0,4.82-2.75,9-6.77,11.07-1.71.87-3.64,1.37-5.68,1.37ZM67.04,364.13c-7.98,0-14.47-7.64-14.47-17.03V104.92c0-9.39,6.49-17.03,14.47-17.03h112.54c7.98,0,14.48,7.64,14.48,17.03v242.19c0,9.39-6.5,17.03-14.48,17.03h-112.54ZM400.33,164.35c-1.74.91-3.72,1.44-5.82,1.44s-4.1-.52-5.83-1.45c-3.93-2.1-6.61-6.23-6.61-10.99,0-6.86,5.58-12.45,12.45-12.45s12.44,5.58,12.44,12.45c0,4.76-2.69,8.9-6.62,11Z"/>
</svg>
