<?xml version='1.0' encoding='UTF-8'?>
<svg xmlns="http://www.w3.org/2000/svg" id="c" data-name="Art" viewBox="0 0 453.54 453.54">
  <defs>
    <style>
      .bu {
        fill: none;
        stroke: #008280;
        stroke-linecap: round;
        stroke-linejoin: round;
        stroke-width: 12px;
      }

      .bv {
        fill: #008280;
        stroke-width: 0px;
      }
    </style>
  </defs>
  <ellipse class="bu" cx="91.67" cy="183.59" rx="21.21" ry="21.61"/>
  <ellipse class="bu" cx="130.82" cy="124.92" rx="21.21" ry="21.61"/>
  <ellipse class="bu" cx="328.4" cy="132.95" rx="29.1" ry="29.65"/>
  <path class="bu" d="M313.97,335.43s-215.79,47.44-264.13-104.57c0,0-20.59-65.91,19.96-120.32,46.71-62.67,244.17-124.67,341.49,24.13,0,0,6.15,32.64-30.98,43.31-37.13,10.67-72.43,47.11-66.34,97.78,6.09,50.67,0,59.67,0,59.67Z"/>
  <ellipse class="bu" cx="196.45" cy="98.16" rx="21.21" ry="21.61"/>
  <ellipse class="bu" cx="117.52" cy="249.34" rx="21.21" ry="21.61"/>
  <path class="bu" d="M246.73,274.43s-45.57,14.85-63.27-81.63c0,0,.49-1.48,5.75-4.26,0,0,17.13,15.17,65.07,15.95,0,0,26.57,3.94,24.95,38.16l-32.51,31.78Z"/>
  <path class="bu" d="M247.4,275.26s56.22,69.18,149.33,132.96c0,0,15.78-.89,14-15.78,0,0-80.32-111.56-133.5-145.78l-29.84,28.6Z"/>
  <path class="bv" d="M270.95,294.66l28.44-28.22s105.04,112.67,106.52,131.56l-6.96,6.44s-103.78-76.38-128-109.78Z"/>
</svg>
