<?xml version='1.0' encoding='UTF-8'?>
<svg xmlns="http://www.w3.org/2000/svg" id="ao" data-name="Cigarette" viewBox="0 0 453.54 453.54">
  <defs>
    <style>
      .ap {
        fill: #5F1972;
        stroke-width: 0px;
      }
    </style>
  </defs>
  <path class="ap" d="M373.36,300.55h-17.89v.15h19.2c-.42-.1-.86-.15-1.31-.15ZM355.43,325.93v.16h17.93c.46,0,.91-.05,1.35-.16h-19.28ZM52.84,300.7l-.08,25.23h.07l.37-25.23h-.36ZM43.92,337.22c.34.19.69.34,1.06.45-.37-.12-.73-.26-1.06-.45Z"/>
  <path class="ap" d="M375.39,288.7H47.29c-3.28,0-5.96,2.64-6,5.91l-.55,37.21v.09c0,.21.01.42.03.63.04.39.12.77.23,1.14.28.93.79,1.79,1.49,2.49.42.43.91.78,1.43,1.05.33.19.69.33,1.06.45.56.17,1.16.26,1.76.26h328.65c9.91,0,17.97-8.06,17.97-17.96v-13.3c0-9.91-8.06-17.97-17.97-17.97ZM116.86,325.93H52.76l.08-25.23h64.02v25.23ZM343.73,325.93h-214.87v-25.23h214.91l-.04,25.23ZM373.36,326.09h-17.93v-.16l.04-25.23v-.15h17.89c.45,0,.89.05,1.31.15,2.75.59,4.81,3.04,4.81,5.97v13.3c0,2.91-2.04,5.35-4.77,5.96-.44.11-.89.16-1.35.16Z"/>
  <path class="ap" d="M374.38,272.88c-.71,0-1.43-.13-2.13-.39-3.1-1.18-4.65-4.64-3.48-7.74,6.17-16.25,3.32-35.64-7.28-49.41-5.98-7.77-14.01-13.7-22.51-19.98-5.8-4.28-11.8-8.71-17.23-13.86-20.17-19.13-30.78-47.08-28.37-74.78.29-3.3,3.19-5.74,6.5-5.46,3.3.29,5.74,3.2,5.46,6.5-2.07,23.73,7.39,48.64,24.67,65.03,4.89,4.63,10.33,8.65,16.1,12.91,8.79,6.49,17.88,13.2,24.89,22.31,13.08,17,16.61,40.94,8.99,61-.91,2.4-3.19,3.87-5.61,3.87Z"/>
  <path class="ap" d="M401.61,230.97c-.34,0-.68-.03-1.02-.09-3.27-.56-5.46-3.66-4.9-6.93,1.06-6.21.59-12.67-1.36-18.67-1.06-3.25-2.56-6.42-4.14-9.77-.77-1.64-1.57-3.33-2.33-5.05-14.87-33.9-9.12-75.93,14.31-104.59,2.1-2.56,5.88-2.95,8.44-.85,2.57,2.1,2.95,5.88.85,8.44-20.65,25.26-25.71,62.3-12.61,92.18.69,1.57,1.42,3.11,2.19,4.74,1.68,3.55,3.41,7.21,4.7,11.18,2.56,7.84,3.17,16.28,1.78,24.41-.5,2.92-3.04,4.99-5.91,4.99Z"/>
</svg>
