<?xml version='1.0' encoding='UTF-8'?>
<svg xmlns="http://www.w3.org/2000/svg" id="r" data-name="Esperance de vie" viewBox="0 0 453.54 453.54">
  <defs>
    <style>
      .ap {
        fill: #fff;
      }

      .ap, .aq {
        stroke: #5F1972;
        stroke-linecap: round;
        stroke-linejoin: round;
        stroke-width: 12px;
      }

      .aq {
        fill: none;
      }
    </style>
  </defs>
  <path class="aq" d="M359.47,136.94c-11.45-24.79-32.96-42.07-57.54-46.21-4.9-.82-9.87-1.24-14.76-1.24-40.31,0-71.04,27.61-82.51,39.65-14.21-14.9-43.68-39.65-82.51-39.65-4.9,0-9.86.42-14.74,1.24-24.61,4.15-46.13,21.42-57.56,46.21-15.73,34.12-5.4,84.83,6.96,109.94,17.9,36.32,70.16,83.09,143.39,128.32l4.44,2.75,4.44-2.75c73.3-45.26,125.57-92.03,143.42-128.32,12.38-25.07,22.72-75.75,6.96-109.95Z"/>
  <circle class="ap" cx="258.72" cy="253.02" r="71.06"/>
  <rect class="ap" x="303.09" y="303.71" width="39.43" height="26.33" transform="translate(318.61 -135.44) rotate(45)"/>
  <path class="ap" d="M351.38,315.47h43.77v82.29c0,11.64-9.45,21.1-21.1,21.1h0c-12.52,0-22.68-10.16-22.68-22.68v-80.71h0Z" transform="translate(-150.3 371.48) rotate(-45)"/>
  <polyline class="aq" points="43.66 201.98 80.8 201.98 117.47 126.11 130.13 255.77 159.47 160.77 168.8 249.02 187.66 199.77 210.9 199.77"/>
</svg>
