<?xml version='1.0' encoding='UTF-8'?>
<svg xmlns="http://www.w3.org/2000/svg" id="v" data-name="Infirmier" viewBox="0 0 453.54 453.54">
  <defs>
    <style>
      .ap {
        stroke-width: 12.41px;
      }

      .ap, .aq, .ar {
        fill: none;
        stroke: #5F1972;
        stroke-linecap: round;
        stroke-linejoin: round;
      }

      .aq {
        stroke-width: 12px;
      }

      .ar {
        stroke-width: 5.5px;
      }

      .as {
        fill: #fff;
        stroke-width: 0px;
      }
    </style>
  </defs>
  <path class="ap" d="M379.68,409.13v-111.98c0-6.18,5.01-11.2,11.2-11.2s11.2,5.01,11.2,11.2h0c0-6.18-5.01-11.2-11.2-11.2s-11.2,5.01-11.2,11.2v111.98h0Z"/>
  <path class="aq" d="M145.94,173.98c3.53,16.91,10.67,32.65,21.5,46.21,10.8,13.65,25.14,25.07,41.11,34.44,4.75,2.72,6.76,8.69,4.44,13.79-2.45,5.42-8.84,7.83-14.26,5.37-9.32-4.22-18.48-9.12-27.24-14.92-27.25-17.55-43.01-36.97-52.71-68.1h0c9.7,31.14,25.46,50.55,52.71,68.1,8.76,5.8,17.92,10.69,27.24,14.92,5.42,2.46,11.81.05,14.26-5.37,2.31-5.1.31-11.07-4.44-13.79-15.97-9.37-30.31-20.79-41.11-34.44-10.82-13.56-17.96-29.29-21.5-46.21h0Z"/>
  <path class="aq" d="M199.15,195.43c-4.73.59-9.44-1.27-12.49-4.93l-23.1-27.72h0l23.1,27.72c3.05,3.66,7.76,5.52,12.49,4.93l37.2-4.65h0l-37.2,4.65Z"/>
  <g>
    <path class="aq" d="M107.07,156.68c-6.66,6.53-10.7,15.66-10.7,25.71v209.98c0,4.63,1.89,8.81,4.89,11.88"/>
    <path class="aq" d="M101.26,404.24c-3.13-3-5.09-7.24-5.35-11.88v-209.98c.26-10.05,4.44-19.18,11.16-25.71.78-.85,1.7-1.63,2.54-2.35,6.26-5.29,14.36-8.35,23.16-8.35,10.05,0,19.18,4.05,25.71,10.7,6.66,6.53,10.7,15.66,10.7,25.71v36.41l9.4,3.13c4.83,1.57,9.98,1.89,14.94.78l42.8-9.53"/>
    <path class="aq" d="M101.26,404.24c.78.78,1.57,1.44,2.48,2.02.46.33.91.59,1.37.85,2.41,1.31,5.15,2.02,8.03,2.02,9.33,0,16.83-7.5,16.83-16.77v-95.2l25.38,35.56c1.7,2.35,2.61,5.22,2.61,8.09v51.55c0,4.63,1.89,8.81,4.89,11.88,3.07,3,7.24,4.89,11.88,4.89,9.33,0,16.83-7.5,16.83-16.77v-54.48c0-8.29-2.48-16.38-7.05-23.29l-15.33-23.03"/>
    <polygon class="aq" points="169.19 291.55 169.19 280.39 170.95 257.94 169.19 291.55"/>
  </g>
  <ellipse class="aq" cx="141.15" cy="104.79" rx="30.41" ry="31.2"/>
  <ellipse class="ap" cx="284.36" cy="124.36" rx="30.41" ry="31.2"/>
  <g>
    <path class="ap" d="M357.88,223.88c-3.46-4.83-7.11-9.2-10.9-12.85-1.04-.98-2.09-1.89-3.13-2.81"/>
    <path class="ap" d="M357.29,224.34v170.83c0,7.7-6.26,13.96-14.03,13.96-3.85,0-7.37-1.57-9.85-4.11-2.54-2.48-4.11-6-4.11-9.85v-81.24c0-3.07-1.24-5.87-3.26-7.9-2.02-2.02-4.89-3.26-7.96-3.26-6.2,0-11.16,5.02-11.16,11.16v81.24c0,7.7-6.26,13.96-14.03,13.96-3.85,0-7.37-1.57-9.85-4.11-2.54-2.48-4.11-6-4.11-9.85"/>
    <path class="ap" d="M278.27,176.38l39.8-19.18c22.38,8.87,41.24,20.49,55.4,35.5,18.2,19.31,28.58,44.31,28.58,76.47v5.22c0,6.39-5.15,11.55-11.55,11.55-2.94,0-5.61-1.11-7.7-2.94-2.02-1.83-3.46-4.31-3.78-7.24-2.41-18.01-10.57-37.19-21.14-51.87"/>
    <line class="ap" x1="278.92" y1="395.17" x2="278.27" y2="176.38"/>
  </g>
  <g>
    <path class="as" d="M162.91,85.43c-13.87-9.43-32.1-9.43-45.97,0-6.24-9.18-12.48-18.36-18.71-27.54,25.17-17.1,58.23-17.1,83.4,0-6.24,9.18-12.48,18.36-18.71,27.54Z"/>
    <path class="aq" d="M162.91,85.43c-13.87-9.43-32.1-9.43-45.97,0-6.24-9.18-12.48-18.36-18.71-27.54,25.17-17.1,58.23-17.1,83.4,0-6.24,9.18-12.48,18.36-18.71,27.54Z"/>
  </g>
  <g>
    <line class="ar" x1="139.93" y1="54.38" x2="139.93" y2="69.54"/>
    <line class="ar" x1="147.51" y1="61.96" x2="132.34" y2="61.96"/>
  </g>
</svg>
