<?xml version='1.0' encoding='UTF-8'?>
<svg xmlns="http://www.w3.org/2000/svg" id="k" data-name="Canabis" viewBox="0 0 453.54 453.54">
  <defs>
    <style>
      .ap {
        fill: none;
        stroke: #5F1972;
        stroke-linecap: round;
        stroke-linejoin: round;
        stroke-width: 12px;
      }
    </style>
  </defs>
  <path class="ap" d="M180.13,203.21c6.4-137.6,44.8-169.6,44.8-169.6,0,0,40.74,24.95,48.47,169.6,33.42-43.58,96.55-56.76,96.55-56.76,1.31,43.94-54.95,120.76-54.95,120.76,56.7-5.04,104.56,13.53,104.56,13.53,0,0-35.34,37.35-123.76,56.87,0,0,32,28.8,30.4,33.6,0,0-61.04,4.8-99.44-24,0,0,0,53.36,0,53.36v-53.36c-38.4,28.8-99.44,24-99.44,24-1.6-4.8,30.4-33.6,30.4-33.6-88.42-19.51-123.76-56.87-123.76-56.87,0,0,47.86-18.58,104.56-13.53,0,0-56.26-76.82-54.95-120.76,0,0,63.13,13.17,96.55,56.76Z"/>
</svg>
