<?xml version='1.0' encoding='UTF-8'?>
<svg xmlns="http://www.w3.org/2000/svg" id="am" data-name="Température" viewBox="0 0 453.54 453.54">
  <defs>
    <style>
      .ap {
        fill: none;
        stroke: #5F1972;
        stroke-linecap: round;
        stroke-linejoin: round;
        stroke-width: 12px;
      }

      .aq {
        fill: #5F1972;
        stroke-width: 0px;
      }
    </style>
  </defs>
  <path class="aq" d="M255.77,282.09V78.77c0-24.14-19.64-43.78-43.78-43.78s-43.79,19.64-43.79,43.78v203.32c-19.19,13.71-31.72,36.16-31.72,61.49,0,41.64,33.87,75.51,75.51,75.51s75.51-33.87,75.51-75.51c0-25.33-12.54-47.78-31.73-61.49ZM211.99,407.09c-35.02,0-63.51-28.49-63.51-63.51,0-18.06,7.58-34.39,19.72-45.97,3.62-3.44,7.65-6.47,12-9V78.77c0-17.52,14.26-31.78,31.79-31.78s31.78,14.26,31.78,31.78v209.83c4.35,2.53,8.38,5.56,12,9,12.15,11.58,19.73,27.91,19.73,45.98,0,35.02-28.49,63.51-63.51,63.51Z"/>
  <path class="aq" d="M247.63,331.03c-1.55-4.41-3.89-8.44-6.85-11.93-2.81-3.29-6.17-6.1-9.93-8.27v-178.06c0-5.21-2.11-9.92-5.53-13.34-3.41-3.41-8.13-5.52-13.33-5.52-10.42,0-18.86,8.44-18.86,18.86v178.06c-3.77,2.17-7.13,4.98-9.93,8.28-2.97,3.49-5.31,7.52-6.86,11.92-1.39,3.93-2.14,8.15-2.14,12.55,0,20.87,16.92,37.79,37.79,37.79s37.78-16.92,37.78-37.79c0-4.4-.75-8.62-2.14-12.55Z"/>
  <line class="ap" x1="287.5" y1="113.91" x2="325.36" y2="113.91"/>
  <line class="ap" x1="287.5" y1="189.66" x2="325.36" y2="189.66"/>
  <line class="ap" x1="287.5" y1="152.02" x2="318.67" y2="152.02"/>
  <line class="ap" x1="287.5" y1="227.19" x2="318.67" y2="227.19"/>
</svg>
