<?xml version='1.0' encoding='UTF-8'?>
<svg xmlns="http://www.w3.org/2000/svg" id="c" data-name="Salaries multinationale" viewBox="0 0 453.54 453.54">
  <defs>
    <style>
      .ak {
        fill: none;
        stroke: #008280;
        stroke-linecap: round;
        stroke-linejoin: round;
        stroke-width: 12px;
      }

      .al {
        fill: #008280;
        stroke-width: 0px;
      }
    </style>
  </defs>
  <path class="ak" d="M414.21,226.66c0,104.38-84.62,189.01-189.01,189.01S36.2,331.04,36.2,226.66h378.01Z"/>
  <path class="ak" d="M321.13,226.82c0,104.13-42.95,188.54-95.93,188.54s-95.93-84.41-95.93-188.54h191.86Z"/>
  <line class="ak" x1="225.81" y1="230.76" x2="225.81" y2="411.43"/>
  <path class="ak" d="M74.79,339.79c34.65-30.61,89.22-50.35,150.61-50.35,61.16,0,115.56,19.6,150.22,50.01"/>
  <g>
    <path class="al" d="M87.13,143.24c18.29,0,33.16-14.88,33.16-33.17s-14.88-33.16-33.16-33.16-33.16,14.88-33.16,33.16,14.88,33.17,33.16,33.17Z"/>
    <path class="al" d="M94.07,148.88h-13.88c-26.62,0-48.57,21.65-48.92,48.27-.01.77.29,1.51.83,2.05s1.27.85,2.04.85h106c.77,0,1.5-.31,2.04-.85.54-.55.84-1.29.83-2.05-.36-26.62-22.31-48.27-48.93-48.27Z"/>
  </g>
  <g>
    <path class="al" d="M225.07,143.24c18.29,0,33.16-14.88,33.16-33.17s-14.88-33.16-33.16-33.16-33.16,14.88-33.16,33.16,14.88,33.17,33.16,33.17Z"/>
    <path class="al" d="M232.01,148.88h-13.88c-26.62,0-48.57,21.65-48.92,48.27-.01.77.29,1.51.83,2.05s1.27.85,2.04.85h106c.77,0,1.5-.31,2.04-.85.54-.55.84-1.29.83-2.05-.36-26.62-22.31-48.27-48.93-48.27Z"/>
  </g>
  <g>
    <path class="al" d="M363,143.24c18.29,0,33.16-14.88,33.16-33.17s-14.88-33.16-33.16-33.16-33.16,14.88-33.16,33.16,14.88,33.17,33.16,33.17Z"/>
    <path class="al" d="M369.94,148.88h-13.88c-26.62,0-48.57,21.65-48.92,48.27-.01.77.29,1.51.83,2.05.54.55,1.27.85,2.04.85h106c.77,0,1.5-.31,2.04-.85.54-.55.84-1.29.83-2.05-.36-26.62-22.31-48.27-48.93-48.27Z"/>
  </g>
</svg>
