<?xml version='1.0' encoding='UTF-8'?>
<svg xmlns="http://www.w3.org/2000/svg" id="u" data-name="Martinique" viewBox="0 0 453.54 453.54">
  <defs>
    <style>
      .am {
        fill: #fff;
        stroke: #144179;
        stroke-linecap: round;
        stroke-linejoin: round;
        stroke-width: 12px;
      }
    </style>
  </defs>
  <path class="am" d="M364.51,334.79c-7.14-10.24-13.53-20.78-12.27-28.92,1.48-9.54,1.39-15.22-16.56-39.89-13.69-18.82-23.56-28.29-28.31-32.84l-1.02-.97c-.57-.53-1.03-.97-1.37-1.33-1.54-1.61-2.07-3.93-1.39-6.05.98-3.03,4.67-8.36,11.8-13.36,3.87-2.68,3.96-4.62,4-5.35.16-2.97-2.82-7.12-8.85-12.35-4.75-4.12-10.92-4.77-16.89-5.39-7.83-.84-15.9-1.71-20.73-9.89-1.51-2.59-2.06-4.24-2.33-5.3,0-.02-.01-.04-.02-.06-.63-2.12-.04-4.42,1.52-5.98,1.05-1.05,2.3-1.61,3.95-2.28,3.32-1.37,3.63-1.96,3.49-3.72-.43-5.13-17.06-13.57-25.05-17.62-2.82-1.43-5.1-2.58-6.44-3.39-2.08-1.25-3.2-3.62-2.86-6.02.44-3.13,2.91-7.71,5.61-10.41.26-.25.53-.49.83-.69,1.42-.98,3.45-1.48,6.04-1.48,5.8,0,14.25,2.58,19.19,7.52,1.68,1.68,3.79,2.42,6.44,2.5,4.99,0,11.39-2.88,18.07-8.12,5.45-4.27,9.2-5.93,12.5-7.4,3.36-1.47,5.99-2.62,9.67-6.32,2.04-2.03,1.58-3.14,1.4-3.56-1.11-2.69-7.15-5.53-16.17-5.53-1.4,0-2.75.07-4.02.21-7.73.76-9.94,2.85-12.49,5.26-2.38,2.24-5.02,4.73-11.16,6.28-11.2,2.8-32.66,5.56-38.93,6.13-1.77.17-3.52-.46-4.79-1.71-5.07-5-30.65-30.5-35.7-41.37-5.12-10.95-24.72-19.73-53.77-24.09-12.15-1.83-17.69-2.98-20.35-3.54q-5.25-1.08-19.48-1.08c-12.86,0-15.95,1.86-20.23,4.44-3.35,2.03-7.13,4.31-15.53,6.32l-2.48.58c-16.25,3.85-16.57,3.92-17.25,25.67-.27,8.41,1.37,14.5,4.85,18.09,2.25,2.33,4.8,3.05,6.53,3.24,1.27.14,2.47.69,3.41,1.56l27.25,25.06c1.35,1.25,2.07,3.04,1.94,4.88-.17,2.33-.56,7.03-1.47,16.15-.86,8.55,1.02,12.01,4.14,17.74l.14.26c2.11,3.92,4.73,8.79,7.22,16.52,6.14,19.22,17.93,31.41,29.48,42.26l4.23,4q5.85,5.58,11.97,7.28l4.38,1.25c5.37,1.57,7.73-.44,12.69-4.76,4.41-3.84,10.44-9.1,21.07-10.74,2.79-.43,5.06-.64,6.95-.64,8.63,0,10.02,4.2,11.04,10.13.5,2.86,1.05,6.06,3.09,9.44,3.42,5.73,3.79,10.67,4.1,15.02.37,5.05.69,9.41,5.64,14.74,3.41,3.66,4.58,5.42,4.99,6.04,1.22,1.71,1.47,3.95.62,5.91-.7,1.61-1.95,2.74-3.69,4.3l-.34.3c-1.42,1.25-3.69,3.25-6.16,6.12l-.62.73c-5.64,6.61-7.35,8.37-9.97,9-1.09.26-2.23.22-3.29-.13-2.32-.76-4.4-2.57-8.73-9.98l-1.79-3.09c-4.34-7.48-5.75-9.35-8.17-9.35-1.63,0-4.05.83-7.61,2.62-9.78,4.87-17.23,15.72-23.79,25.28-1.35,1.98-2.63,3.85-3.9,5.62-2.39,3.35-2.35,4.6,3.53,9.17,3.77,2.89,8.43,6.46,10.01,12.73,2.21,8.81,3.49,9.43,10.64,12.85,1.84.87,4.04,1.93,6.65,3.31,1.54.82,2.94,1.23,4.17,1.23,5.1,0,7.49-7.87,7.92-9.45.7-2.59,3.02-4.4,5.7-4.46.9-.02,1.96-.02,3.15-.02,11.37,0,26.32.58,32.98,3.37,1.52.63,2.87,1.25,4.1,1.82l.28.13c5.78,2.68,8.95,3.82,17.89,1.06,6.51-2.04,7.21-3.34,8.49-5.69.97-1.81,2.32-4.33,6.01-7.69,2.65-2.4,5.12-3.55,7.56-3.55,5.17,0,8.53,4.96,12.09,10.22l.44.64c.69,1.02,1.4,2.07,2.15,3.08,2.04,2.81,3.31,2.81,3.79,2.81,2.62,0,6.72-3.68,11.91-8.34l.55-.5c1.28-1.16,2.63-2.38,4.08-3.64,1.7-1.48,2.95-2.24,3.59-2.61.81-.58,1.77-.97,2.8-1.09.24-.03.48-.04.72-.04,1.75,0,3.43.76,4.59,2.11,1.95,2.28,2.94,5.69,2.55,17.16-.04,1.03-.07,1.92-.07,2.63,0,7.14-4.37,16.27-10.16,21.23l-2.44,2.06c-6.5,5.43-17.34,14.5-22.53,23.58-1.01,1.77-1.03,3.45-.07,5.14,2.67,4.59,12.32,8.49,21.05,8.49,1.51,0,2.93-.12,4.22-.35,9.25-1.64,32.48-36.81,42.35-55.21,3.92-8.1,7.8-19.97,6.91-23.12-.41-.64-1.08-1.6-1.9-2.77Z"/>
</svg>
