<?xml version='1.0' encoding='UTF-8'?>
<svg xmlns="http://www.w3.org/2000/svg" id="k" data-name="Bourgogne" viewBox="0 0 453.54 453.54">
  <defs>
    <style>
      .am {
        fill: none;
        stroke: #144179;
        stroke-linecap: round;
        stroke-linejoin: round;
        stroke-width: 12px;
      }

      .an {
        fill: #144179;
        stroke-width: 0px;
      }
    </style>
  </defs>
  <path class="an" d="M349.82,185.65s-17.19-19.28-29.27-19.52-14.48,13.78-18.47,16.89c-7.24,5.66-14.9-7.99-21.64-11.47-6.74-3.48-3.63,2.79-13.86,1.16-10.22-1.63-19.26-5.55-18.63-9.9.64-4.35-2.58-8.74-7.38-7.04-14.11,5.01-3.1,15.51-3.1,15.51-6.2,12.39-6.86,44.81,12.9,54.79,19.76,9.98,7.37,10.53,7.37,10.53,0,0-2.68,6.74,6.16,5.29,8.84-1.45,12.78-7.63,13.01-5.22.23,2.41,3.09,5.49,6.95,4.54,3.69-.91,2.13-6.58,5.15-7.64,3.01-1.07,3.74,3.35,14.57,3.18,13.54-.22,32.29-4.18,30.2-10.92-2.09-6.74-.23-16.5,6.27-24.63,6.51-8.13,9.76-15.57,9.76-15.57Z"/>
  <g>
    <path class="am" d="M361.37,315.62c-6.47-3.77-8.47-12.77-10.58-22.29l-.53-2.36c-.28-.9-.41-1.71-.52-2.38-.07-.42-.13-.81-.2-1.02l-1.38-4.14,3.72-2.27c8.07-4.93,9.72-8.61,10.26-10.95,1.36-5.46-2.89-11.32-7.39-17.54l-.76-1.05c-.72-1.08-1.34-1.98-1.97-2.89-3.6-5.24-7.31-10.64-8-16.49-2.48.43-4.79,1.76-7.2,3.15-.55.32-1.1.63-1.63.93l-8.14,4.53v-9.32c0-5.92,4.99-12.26,11.31-20.28,5.4-6.86,12.13-15.4,12.13-20.41v-5.48h11.93v-.69c0-13.05,0-36.96,14.54-60.2-1.09.03-2.19.05-3.29.05-67.65,0-136.17-60.91-145.76-79.27-7.28-.6-14.71,2.08-22.7,8.18,4.02,20.21-3.2,34.65-19.38,38.7-11.19,2.71-18.31,6.65-20.09,11.11-.26.66-.75,2.49.41,5.39l1.65,4.13-3.7,2.47c-2.95,1.96-5.89,3.73-9.41,3.8-7.78.43-15.07-5.69-22.45-12.58l-.89-.78c-5.44-4.82-11.05-9.75-15.3-9.3-1.93.22-3.7,1.25-5.42,3.17,9.85,11.67,9.85,21.48,9.85,37.44v6.72h-38.38l-1.15-3.95c-1.98-6.78-13.5-12.5-25.17-12.5-8,0-15.29,2.69-20.52,7.57-5.99,6-9.18,15-9.35,26.64,42.71,9.61,69.65,32.13,79.95,66.89,7.52,25.94,3.78,51.48-.68,68.34-4.87,18.43-13.25,35.74-21.56,44.68,37.64,27.74,88.79,65.22,125.54,65.22,2.85,0,5.4-.36,7.73-.75,9.89-1.7,18.33-7.09,24.46-15.6-10.4-16.45-2.29-35.21,11.4-45.47,15.61-11.82,38.98-14.9,55.97,4.93,17.49,20.03,42.45,16.95,58.06,3.52,13.32-11.61,16.58-26.66,8.34-37.83-5.86,2.23-10.33,2.28-13.76.22Z"/>
    <path class="am" d="M417.69,344.92c-1.36,1.14-3.96,6.53-5.73,6.4l-9.1,2.37c-4.51.3-8.54,1.86-10.31,12.34-.02,1.71-.15,8.77-.26,15.51-.12,6.53-.23,12.76-.23,13.4-.01,6.57,10.05,13.12,14.98,15.58,3.92-5.19,12.23-19.65,11.99-35.32,0-.03,0-.07,0-.1,0-6.41-.31-22.7-1.33-30.17Z"/>
  </g>
</svg>
