<?xml version='1.0' encoding='UTF-8'?>
<svg xmlns="http://www.w3.org/2000/svg" id="aj" data-name="France" viewBox="0 0 453.54 453.54">
  <defs>
    <style>
      .am {
        fill: #144179;
        stroke-width: 0px;
      }
    </style>
  </defs>
  <path class="am" d="M376.35,121.21l-3.85-3.85c-.37-.37-.92-.48-1.41-.29l-6.92,2.77c-.22.09-.46.11-.7.08l-8.7-1.45c-.39-.06-.72-.3-.92-.64l-5.95-10.4c-.13-.22-.32-.4-.55-.52l-5.82-2.91c-.18-.09-.38-.14-.58-.14h-21.72c-.35,0-.68-.14-.92-.38l-6.07-6.07-10.49-10.49c-.46-.46-.51-1.19-.12-1.7l3.6-4.81c.33-.44.35-1.05.04-1.51l-1.72-2.58c-.49-.73-1.55-.78-2.1-.09l-4.94,6.18c-.25.31-.62.49-1.02.49h-12.21c-.85,0-1.47-.8-1.27-1.62l2.41-9.66c.21-.82-.42-1.62-1.27-1.62h-2.97c-.13,0-.25-.02-.37-.06l-15.25-4.58c-.43-.13-.76-.46-.88-.89l-2.94-10.27c-.06-.21-.18-.41-.33-.56l-5.15-5.15c-.56-.56-1.49-.5-1.96.14l-3.13,4.16c-.44.59-1.28.69-1.86.24l-6.71-5.35c-.2-.16-.34-.37-.42-.61l-2.64-7.93c-.25-.74-1.07-1.1-1.78-.77l-18.55,8.48c-.41.19-.69.57-.75,1.02l-3.48,26.34c-.05.4-.29.76-.64.96l-35.5,20.36c-.3.17-.53.46-.61.8l-3.37,13c-.15.58-.67.98-1.26.98h-30.44c-.49,0-.94-.27-1.16-.71l-6.53-12.7c-.21-.41-.62-.68-1.08-.71l-10.45-.63c-.86-.05-1.53.73-1.35,1.57l8.54,40.13c.15.72-.32,1.42-1.04,1.55l-29.73,5.47c-.5.09-1-.11-1.3-.53l-8.22-11.54c-.3-.42-.81-.62-1.31-.52l-43.22,8.23c-.64.12-1.09.69-1.06,1.34l.29,6.8c.03.71.62,1.26,1.33,1.25l8.15-.14c.86-.02,1.5.8,1.29,1.63l-1.67,6.41c-.14.55-.62.94-1.19.97l-6.64.39c-1.03.06-1.59,1.23-.98,2.07l7.7,10.6c.18.25.44.42.74.5l50.37,12.58c.41.1.74.39.89.78l15.73,39.32c.1.24.26.44.47.59l19.63,13.59c.57.39.73,1.15.38,1.74l-3.81,6.34c-.25.41-.25.93,0,1.34l4.37,7.29c.04.07.09.13.14.2l12.49,14.05c.21.24.33.55.33.87v5.46c0,1.23-1.55,1.78-2.32.81l-8.62-10.78c-.72-.9-2.18-.49-2.31.66l-7.66,65.88c-.03.22-.11.43-.24.61l-7.01,9.68c-.45.63-.27,1.51.4,1.89l41.99,24.28c.19.11.4.17.62.17l21.21.54c.86.02,1.51-.78,1.3-1.62l-.54-2.16c-.26-1.03.75-1.91,1.74-1.53l47.09,18.19c.4.15.85.1,1.2-.14l14.16-9.58c.36-.24.57-.65.57-1.08v-17.95c0-.46.24-.88.64-1.12l24.6-14.7c.35-.21.78-.24,1.15-.09l47.32,18.93c.29.11.6.12.89.03l19.39-6.4c.2-.07.38-.18.52-.32l30.57-31.15c.39-.4.48-1,.24-1.5l-2.18-4.36c-.34-.68-1.19-.93-1.84-.54l-6.12,3.67c-.45.27-1.01.24-1.43-.06l-10.21-7.3c-.24-.17-.42-.42-.5-.71l-2.29-8.23c-.16-.58.1-1.2.63-1.49l4.12-2.25c.52-.28.78-.89.64-1.46l-1.21-4.83c-.1-.4-.39-.73-.77-.89l-6.68-2.73c-.37-.15-.65-.47-.76-.86l-1.37-4.92c-.15-.54.06-1.12.53-1.43l12.56-8.37c.63-.42.77-1.29.31-1.89l-9.72-12.49c-.4-.52-.36-1.26.11-1.72l5.09-5.09c.33-.33.46-.83.33-1.28l-5.86-20.52c-.2-.71-.96-1.11-1.67-.88l-15.77,5.29c-.52.17-1.09,0-1.43-.42l-2.84-3.53c-.37-.46-.39-1.12-.03-1.6l27.61-36.99c.13-.18.31-.32.52-.41l13.57-6.03c.39-.17.67-.53.75-.95l7.88-42.55c.04-.2.12-.38.24-.55l8.62-11.5c.46-.62.29-1.5-.37-1.9l-6.51-3.91c-.2-.12-.43-.19-.67-.19h-7.16c-.35,0-.68-.14-.92-.38Z"/>
  <path class="am" d="M407.99,369.55v-11.28c0-.72-.58-1.3-1.3-1.3h-.62c-.72,0-1.3.58-1.3,1.3v9.44c0,.35-.14.68-.38.92l-.31.31c-.51.51-1.34.51-1.84,0l-1.55-1.55c-.44-.44-1.13-.51-1.65-.16l-3.83,2.56c-.08.05-.16.09-.24.13l-7.32,2.93c-.39.16-.68.49-.78.89l-1.41,5.65c-.03.1-.04.21-.04.32v2.76c0,.2-.05.4-.14.58l-1.34,2.67c-.09.18-.14.38-.14.58v1.61c0,.72.58,1.3,1.3,1.3h.98c.56,0,1.06.36,1.24.89l.96,2.87c.21.62-.07,1.29-.65,1.58l-1.49.75c-.44.22-.72.67-.72,1.17v1.11c0,.72.58,1.3,1.3,1.3h.62c.72,0,1.3.58,1.3,1.3h0c0,.2-.05.4-.14.58l-.96,1.92c-.29.59-.1,1.3.44,1.67l2.55,1.7c.68.46.78,1.43.2,2.01l-.11.11c-.24.24-.38.58-.38.92v.46c0,.39.17.75.47,1l8.01,6.67c.62.52,1.56.35,1.97-.35l5.5-9.63c.11-.2.17-.42.17-.65v-13.36c0-.49.28-.95.72-1.17l1.78-.89c.44-.22.72-.67.72-1.17v-16.62c0-.2-.05-.4-.14-.58l-1.34-2.67c-.09-.18-.14-.38-.14-.58Z"/>
</svg>
