<?xml version='1.0' encoding='UTF-8'?>
<svg xmlns="http://www.w3.org/2000/svg" id="al" data-name="Ile de France" viewBox="0 0 453.54 453.54">
  <defs>
    <style>
      .am {
        fill: none;
        stroke: #144179;
        stroke-linecap: round;
        stroke-linejoin: round;
        stroke-width: 12px;
      }
    </style>
  </defs>
  <path class="am" d="M193.43,167.26l13.57,2.26,3.01,11.69,7.54,7.92-22.24.38-12.82-15.08,10.93-7.16Z"/>
  <path class="am" d="M194.76,93.75l-9.8,6.79-38.83-9.42-26.77,7.92-23.75-4.53-6.41-13.94-16.97,40.33,39.96,3.77,38.45,15.08,22.99,25.64h.38l15.07-10.56,13.95-6.03,10.94,4.52c3.77-2.26,7.54-5.28,11.31-7.92,2.64-1.89,5.65-3.77,8.67-6.04h.38l7.16-9.8-1.13-8.67-45.62-27.14Z"/>
  <polygon class="am" points="56.03 120.89 46.61 131.45 53.76 155.95 69.22 184.23 71.49 230.22 97.5 252.84 102.77 276.58 112.2 286.01 125.39 283 145 246.43 142.36 234.37 148.76 223.44 178.55 200.43 165.35 178.57 173.65 165.37 150.65 139.74 112.2 124.66 72.24 120.89 56.03 120.89"/>
  <polygon class="am" points="178.92 200.44 178.55 200.44 148.76 223.43 142.36 234.36 145 246.43 125.39 282.99 137.08 327.86 137.46 327.86 166.48 324.84 174.78 312.78 181.19 324.08 192.88 316.93 208.71 319.18 223.03 299.21 239.62 225.7 237.73 221.92 227.94 212.12 216.25 215.9 178.92 200.44"/>
  <polygon class="am" points="178.92 200.44 178.55 200.44 148.76 223.43 142.36 234.36 145 246.43 125.39 282.99 137.08 327.86 137.46 327.86 166.48 324.84 174.78 312.78 181.19 324.08 192.88 316.93 208.71 319.18 223.03 299.21 239.62 225.7 237.73 221.92 227.94 212.12 216.25 215.9 178.92 200.44"/>
  <polygon class="am" points="338.83 136.3 341.46 124.23 333.93 113.67 322.62 110.66 288.69 123.1 277.76 116.31 269.46 125.36 240.06 121.21 241.19 129.89 234.03 139.69 233.65 139.69 240.81 161.55 235.15 172.11 240.81 192.09 240.81 192.46 241.94 204.53 237.41 222.25 239.3 226.02 222.72 299.53 208.39 319.5 211.03 332.33 228.75 350.41 226.48 362.1 215.55 368.52 254.38 371.53 301.5 360.22 318.09 337.23 319.23 312.72 384.07 299.9 382.55 263.71 395 260.32 407.43 239.58 396.5 232.42 381.8 196.99 392.73 187.56 394.62 179.27 355.42 153.63 338.83 136.3"/>
  <polyline class="am" points="173.65 165.38 173.65 165.38 150.65 139.74 112.2 124.67 72.24 120.89"/>
  <polyline class="am" points="240.37 120.89 241.5 129.56 234.34 139.36 233.96 139.36"/>
  <line class="am" x1="196.26" y1="189.51" x2="194.38" y2="206.85"/>
  <polyline class="am" points="194.38 167.26 194.76 162.74 189.1 154.83"/>
  <line class="am" x1="210.97" y1="181.21" x2="210.97" y2="181.21"/>
  <line class="am" x1="241.13" y1="192.14" x2="210.97" y2="181.21"/>
  <line class="am" x1="210.97" y1="181.21" x2="210.97" y2="181.21"/>
</svg>
