<?xml version='1.0' encoding='UTF-8'?>
<svg xmlns="http://www.w3.org/2000/svg" id="s" data-name="Guyane française" viewBox="0 0 453.54 453.54">
  <defs>
    <style>
      .am {
        fill: #fff;
        stroke: #144179;
        stroke-linecap: round;
        stroke-linejoin: round;
        stroke-width: 12px;
      }
    </style>
  </defs>
  <path class="am" d="M368.61,159.89c0-6.86-6.18-8.3-11.37-8.3-1.61,0-2.91.14-3.55.22l-2.65.33-1.86-1.91c-8.97-9.21-30.04-30.89-31.94-33.46-2.06-2.71-29-30.43-34.85-34.84-5.49-4.11-21.52-10.09-34.09-10.09-9.84,0-21.28-4.19-27.64-6.89h-.57l-1.37-.95c-10.55-7.28-24.12-14.65-29.64-14.65-6.04,0-12.35,5.99-14.79,8.57l-2.72,2.88-3.55-1.77c-2.01-1-5.45-2.19-10.43-2.19-7.53,0-18.02,14.73-24.96,24.47l-1.21,1.7c-9.1,12.74-20.79,28.33-24.96,32.5-3.95,3.96-9.93,18.9-9.93,32.38,0,9.14,5.49,14.06,8.76,16.19l2.49,1.62-.05,2.97c-.26,14.52,0,32.33,1.5,38.77,1.16,5.04,4.18,7.69,10.36,12.74,3.64,2.96,8.49,6.9,13.9,12.6,6.1,6.43,10.16,11.53,11.75,14.75l.31.62.43,2.09c.04.16,3.78,18.12,3.78,24.37,0,9.24-3.63,19.68-10.78,31.02-5.21,8.25-6.79,14.67-8.17,20.33-.95,3.88-1.84,7.52-3.76,11.06l-.5.9c-4.46,8.21-11.24,20.68-20.5,27.61-4.7,3.53-9.55,7.16-9.55,10.92,0,2.83,2.46,6.05,7.52,9.84,4.83,3.63,6.64,4.6,7.3,4.85l2.07-1.3,2.6,1.15c1.03.45,2.21,1.08,3.61,1.92,3.34,2.01,5.6,3.64,7.25,4.83,4.33,3.11,5.8,4.16,14.37,4.66.35.02.72.03,1.09.03,7.53,0,11.11-4.62,13.99-8.33,1.33-1.72,1.7-2.18,2.11-2.57l.6-.58.75-.37c1.52-.75,6.97-6.1,10.95-10l.51-.5c3.11-3.06,5.8-5.69,7.64-7.24,1.53-1.27,3.18-1.87,5.07-1.87,2.15,0,4.41.73,7.87,1.94,3.16,1.1,6.63,2.26,11.22,3.29,10.82,2.4,16.71,6.81,18.74,8.59l1.49,1.31.28,1.97c.31,2.23.4,7.91-5.51,12.5-.95.74-1.92,1.44-2.83,2.08-.79.56-1.85,1.32-2.59,1.95,2.24.53,7.18.8,14.74.8,4.38,0,12.5,0,14.01-.95-.01-.02.09-.23.21-.69.78-2.8,2.27-5.06,7.34-7.88,5.77-3.2,11.81-5.29,17.64-7.3,7.75-2.67,14.94-5.14,19.4-9.61,7.4-7.4,15.01-25.28,19.55-35.97l1.06-2.44c2.89-6.74,5.93-11.72,8.08-14.17,0-4.63.07-30.9.77-38.49.79-8.78,7.79-16.64,13.96-23.57,1.36-1.53,3.15-3.48,5.24-5.77l.2-.22c7-7.66,17.59-19.23,24.44-28.39l1.64-2.15c8-10.67,14.83-19.77,16.83-25.79.93-2.81-1.44-10.47-3.73-17.89-2.51-8.1-5.36-17.26-5.36-24.25Z"/>
</svg>
