<?xml version='1.0' encoding='UTF-8'?>
<svg xmlns="http://www.w3.org/2000/svg" id="y" data-name="Nouvelle Calédonie" viewBox="0 0 453.54 453.54">
  <defs>
    <style>
      .am {
        fill: #fff;
        stroke: #144179;
        stroke-linecap: round;
        stroke-linejoin: round;
        stroke-width: 12px;
      }
    </style>
  </defs>
  <path class="am" d="M362.98,326.67c-5.32-6.21-8.93-10.5-10.54-13.49q-1.67-3.09-4.51-3.5c-1.33-.19-2.99-.43-5.05-.92-6.25-1.5-13.49-8.24-21.63-16.23-1.66-1.64-3.1-3.05-4-3.82-8.55-7.4-21.3-21-21.84-21.57-.98-1.05-1.52-2.42-1.53-3.83-5.22-1.77-11.56-5.44-14.79-9.61-14.87-3.91-48.16-28.62-60.94-39.94-8.46-7.49-11.75-11.86-12.99-14.9-5.41-4.55-15.55-15.8-20.07-20.9-10.05-11.34-14.5-16.96-16.43-20.13-3.33-2.13-4.68-5.04-5.71-7.25-.4-.86-.74-1.6-1.17-2.26-1.23-1.5-8.26-5.28-12.9-7.78-6.75-3.63-13.73-7.38-17.57-11-1.9-1.79-3.6-3.55-5.24-5.25-3.59-3.7-6.68-6.9-10.95-9.68-2.94-1.92-7.72-6.16-13.77-11.53-7.7-6.83-20.59-18.26-25.08-19.76-3.44-1.14-7.01-2.69-10.16-4.05-1.83-.79-3.52-1.53-4.97-2.08-.52-.19-1.08-.42-1.65-.66-.35,1.58-1.35,2.96-2.8,3.76-1.77.98-3.92.95-5.66-.08-5.4-3.2-10.15-7.73-14.74-12.11-.37-.36-.74-.71-1.1-1.05,5.41,8.39,9.09,15.45,7.76,21.54-.15.67-.35,1.31-.61,1.92,1.38,2.23,2.68,4.54,3.95,6.8,1.7,3.03,3.3,5.89,5.01,8.4,1.33,1.95,3.66,3.77,6.13,5.69,3.56,2.77,7.24,5.64,9.29,9.9.86,1.79.72,3.89-.35,5.55-.29,1.97,2.05,7.61,2.83,9.49.54,1.31,1.13,2.74,1.45,4.16,4.11,6.41,10.15,10.47,16.53,14.76,5.2,3.49,10.57,7.1,15.43,12.22,1.85,1.95,3.35,3.78,4.8,5.54,2.62,3.19,4.88,5.94,8.43,8.35,6.1,4.16,39.1,37.88,43.89,54.76,4.09,2.37,11.27,7.24,23.52,15.7,5.32,3.67,11.36,7.84,12.53,8.47l1.55.69c4.64,2.06,9.76,4.34,11.84,5.44.39.2,2.25,1.27,5.03,2.88,33.15,19.19,43.28,23.96,45.88,24.55,13.28.87,15.23,5.11,17.03,16.04l.13.79c.93,5.61,1.11,5.76,5.58,9.74,2.5,2.21,7.94,4.71,12.32,6.71,5.92,2.71,8.84,4.11,10.55,6.3,1.31,1.7,1.74,3.63,1.88,5.43,2.57-1.8,6.77-4.09,12.68-1.93,5.03,1.84,9,5.25,12.5,8.25,7.13,6.12,9.93,8,16.56,3.48.98-.67,2.09-.99,3.2-.99,1.59,0,3.16.66,4.27,1.93,1.71,1.94,2.87,3.78,3.73,5.17.24-.33.5-.94.84-1.78.99-2.43,2.84-6.97,8.8-8.04.61-3.84.68-8.11-.02-9.41-.76-1.36-4.48-5.7-7.19-8.87Z"/>
  <path class="am" d="M309.58,377.54l.23,1.03c.13-.13.2-.24.22-.3,0-.06-.02-.41-.33-.83l-.11.09Z"/>
  <path class="am" d="M292.24,160.7c5.79,2.65,12.06,5.52,16.16,9.86,1.55-2.5,3.13-5.45,4.06-7.63-2.65-2.53-2.79-5.64-2.86-7.24-.03-.74-.06-1.11-.16-1.29-.63-1.14-1.54-2.12-2.6-3.25-.95-1.01-2.02-2.15-2.94-3.53-3.54-5.32-3-11.13-2.6-15.38.13-1.41.28-2.95.21-4.09l-2.84-1.04c-1.27-.47-2.3-1.35-2.95-2.47-.73.05-1.46.08-2.19.12-4.15.22-6.82.52-8.54,1.13,4.19,2.71,8.13,6.87,8.21,11.68.16,10.17-10.14,11.24-15.09,11.75-.21.02-.41.04-.62.06.12,3.68,3.98,6.38,14.74,11.31Z"/>
  <path class="am" d="M226.13,69.81c.85,4.94,1.6,10.31,1.89,15.75,1.51-3.3,3.61-6.04,5.38-8.36,1.47-1.93,3.49-4.57,3.35-5.6-.02-.14-.29-1.46-3.61-3.96-3.98-3-8.31-3.88-12.49-2.62.35.05.69.11,1.03.18,2.29.47,4.06,2.3,4.45,4.61Z"/>
  <path class="am" d="M213.9,124.43c1.15-1.13,2.23-2.2,3.23-3.01l.87-.7c8.16-6.59,12.43-10.04,12.64-18.47-1.36-.24-2.52-.98-3.32-2.03-.94,5.54-2.8,10.79-6.03,15.3-3.86,5.41-9.3,9.26-16.24,11.51,1.05,1.07,2.3,2.02,3.17,2.23,1.4-.6,4.27-3.44,5.68-4.83Z"/>
  <path class="am" d="M411.68,377.2c-1.67,2.82-4.27,3.89-5.78,4.51-.79.32-1.18.5-1.32.67-.39.47-.56,1.1-.87,2.28-.04.18-.09.36-.14.56,2.03,1.35,3.63,3.02,4.94,4.39,1.93,2.01,3.02,3.02,4.07,3.41,2.84-2.88,3.08-4.57,3.1-11.7,0-.14,0-.27.02-.4-1.35-1-2.77-2.18-4.02-3.71Z"/>
  <path class="am" d="M369.95,202.81c-.2-.01-.39-.02-.59-.04-.76,1.28-2.02,2.24-3.51,2.61-2.01.5-4.54.59-6.75.26,0,0,0,0,0,0,.8,5.06-.11,9.37-.92,13.18-.49,2.29-.93,4.37-.96,6.42,4.06,2.92,5.49,7.07,6.5,10,.82,2.39,1.34,3.78,2.47,4.55,1.68,1.15,2.63,1.37,2.84,1.3,1.14-.48,2.94-4.92,3.71-6.81.27-.66.53-1.3.79-1.91.85-2.01,2.78-3.36,4.96-3.46.49-.02.67-.11.67-.11.44-.5.86-2.99,1.11-4.48.11-.66.22-1.32.34-1.97.1-.52.27-1.02.5-1.48-3.32-.04-7.18-.31-9.98-2.98-6.46-6.19-3.52-11.97-1.18-15.08Z"/>
</svg>
