<?xml version='1.0' encoding='UTF-8'?>
<svg xmlns="http://www.w3.org/2000/svg" id="f" data-name="Loupe" viewBox="0 0 453.54 453.54">
  <defs>
    <style>
      .ca {
        stroke-linejoin: round;
      }

      .ca, .cb {
        fill: #fff;
      }

      .ca, .cb, .cc, .cd {
        stroke: #5F1972;
        stroke-width: 12px;
      }

      .ca, .cd {
        stroke-linecap: round;
      }

      .cb, .cc, .cd {
        stroke-miterlimit: 10;
      }

      .cc, .cd {
        fill: none;
      }
    </style>
  </defs>
  <g>
    <path class="ca" d="M196.11,199.73c0-15.92,12.9-28.82,28.82-28.82s28.82,12.9,28.82,28.82-12.9,28.82-28.82,28.82-28.82-12.91-28.82-28.82"/>
    <path class="ca" d="M285.1,298.22c-.38-28.56-23.65-51.6-52.3-51.6h-15.76c-28.65,0-51.91,23.04-52.29,51.6h120.36Z"/>
  </g>
  <g>
    <path class="ca" d="M322.18,199.73c0-15.92,12.9-28.82,28.82-28.82s28.82,12.9,28.82,28.82-12.9,28.82-28.82,28.82-28.82-12.91-28.82-28.82"/>
    <path class="ca" d="M411.17,298.22c-.38-28.56-23.65-51.6-52.3-51.6h-15.76c-28.65,0-51.91,23.04-52.29,51.6h120.36Z"/>
  </g>
  <g>
    <path class="ca" d="M73.74,199.73c0-15.92,12.9-28.82,28.82-28.82s28.82,12.9,28.82,28.82-12.9,28.82-28.82,28.82-28.82-12.91-28.82-28.82"/>
    <path class="ca" d="M162.74,298.22c-.38-28.56-23.65-51.6-52.3-51.6h-15.76c-28.65,0-51.91,23.04-52.29,51.6h120.36Z"/>
  </g>
  <line class="cd" x1="329.27" y1="81.75" x2="304.04" y2="116.03"/>
  <line class="cd" x1="123.03" y1="81.75" x2="148.25" y2="116.03"/>
  <line class="cd" x1="223.93" y1="48.33" x2="223.93" y2="93.54"/>
  <g>
    <g>
      <line class="cc" x1="269.5" y1="286.26" x2="335.48" y2="346.64"/>
      <path class="cb" d="M357.37,402.17l-45.79-45.87c-8.57-8.59-8.57-22.51,0-31.1h0c8.57-8.59,22.47-8.59,31.05,0l45.79,45.87c8.57,8.59,8.57,22.51,0,31.1h0c-8.57,8.59-22.47,8.59-31.05,0Z"/>
    </g>
    <path class="cb" d="M226.36,127.42c-54.41,0-98.52,44.18-98.52,98.69s44.11,98.69,98.52,98.69,98.52-44.18,98.52-98.69-44.11-98.69-98.52-98.69ZM226.36,301.13c-41.37,0-74.9-33.59-74.9-75.03s33.53-75.03,74.9-75.03,74.9,33.59,74.9,75.03-33.53,75.03-74.9,75.03Z"/>
  </g>
</svg>
