<?xml version='1.0' encoding='UTF-8'?>
<svg xmlns="http://www.w3.org/2000/svg" id="aq" data-name="Perso bureau_2" viewBox="0 0 453.54 453.54">
  <defs>
    <style>
      .ca, .cb, .cc, .cd {
        stroke: #5F1972;
        stroke-width: 12px;
      }

      .ca, .cc {
        stroke-linecap: round;
        stroke-linejoin: round;
      }

      .ca, .cd {
        fill: none;
      }

      .cb, .cc {
        fill: #5F1972;
      }

      .cb, .cd {
        stroke-miterlimit: 10;
      }

      .ce {
        fill: #5F1972;
        stroke-width: 0px;
      }
    </style>
  </defs>
  <path class="ce" d="M340.17,138.25c.25.07.5.16.74.27-.24-.1-.49-.19-.74-.27Z"/>
  <path class="ce" d="M344.61,141.7c-.33-.53-.72-1.03-1.16-1.47-.45-.45-.96-.85-1.51-1.19,1.09.66,2.01,1.57,2.67,2.65Z"/>
  <path class="ce" d="M345.16,142.78c.1.24.19.49.27.74-.08-.25-.16-.5-.27-.74Z"/>
  <path class="ce" d="M337.79,137.89c.28,0,.55.01.82.04l-.82-.04Z"/>
  <g>
    <circle class="cd" cx="239.37" cy="115.32" r="9.8"/>
    <circle class="cd" cx="284.22" cy="69.62" r="9.8"/>
    <circle class="cd" cx="360.22" cy="84.19" r="9.8"/>
    <circle class="cd" cx="405.44" cy="39.01" r="9.8"/>
    <line class="cd" x1="246.93" y1="107.89" x2="278.99" y2="76.69"/>
    <line class="cd" x1="370.02" y1="78.63" x2="400.4" y2="46.96"/>
    <line class="cd" x1="289.7" y1="67.44" x2="352.53" y2="81.34"/>
  </g>
  <line class="ca" x1="115.11" y1="414.61" x2="185.75" y2="415.1"/>
  <line class="ca" x1="150.43" y1="414.61" x2="150.94" y2="325.71"/>
  <polyline class="ca" points="201.04 325.71 96.09 325.71 44.99 132"/>
  <polyline class="ca" points="233.86 234.13 410.95 234.13 410.95 414.98 303.71 414.47 303.71 234.35"/>
  <polyline class="ca" points="304.75 191.92 375.63 191.92 410.44 121"/>
  <circle class="cb" cx="146.14" cy="105.89" r="29.37"/>
  <path class="cc" d="M264.21,288.79v108.9c0,9.67-7.84,17.5-17.51,17.5s-17.51-7.83-17.51-17.5v-91.4h-69.18c-1.29,0-16.12-.08-17.37-.24,0,0-.02,0-.02,0-14.82-1.89-26.28-19.33-26.28-34.65v-82.81c0-16.62,13.48-30.1,30.11-30.1h5.93c7.19,0,13.79,2.51,18.96,6.72l33.95,21.97,38.03,2.12c7.91.44,13.98,7.22,13.54,15.13-.44,7.92-7.22,13.98-15.14,13.55l-44.29-2.47c-.87-.04-1.71-.17-2.52-.37-2.12-.25-4.21-.98-6.12-2.22l-6.31-4.08v62.46h64.21l1.79.09,1.58.24c.16.03.32.06.47.11l.56.13c.27.07.54.14.8.23.55.17,1.08.36,1.61.58.26.11.52.23.77.35s.5.25.76.39c.25.14.49.28.73.42,1.2.73,2.31,1.6,3.31,2.59.97.97,1.82,2.04,2.54,3.21.02.04.04.07.06.1.14.24.28.48.41.73.13.25.26.5.39.76s.24.51.35.77c.22.52.41,1.05.58,1.61.08.24.15.47.2.71.06.2.11.4.16.62.04.17.07.34.11.51.09.46.17.92.21,1.4.02.15.04.3.04.45.03.2.04.41.04.62.02.29.03.6.03.9Z"/>
</svg>
