<?xml version='1.0' encoding='UTF-8'?>
<svg xmlns="http://www.w3.org/2000/svg" id="a" data-name="Deplacement" viewBox="0 0 453.54 453.54">
  <defs>
    <style>
      .z {
        fill: #fff;
        stroke: #8A5301;
        stroke-linecap: round;
        stroke-linejoin: round;
        stroke-width: 12px;
      }
    </style>
  </defs>
  <path class="z" d="M311.9,85.38c0-16.43,13.44-29.87,29.87-29.87s29.87,13.44,29.87,29.87-13.44,29.87-29.87,29.87-29.87-13.44-29.87-29.87ZM325.64,169.91c7.47,11.95,16.13,25.39,16.13,25.39,0,0,8.96-13.44,16.13-25.39l3.58-5.68c14.94-25.09,34.05-60.94,34.05-78.86,0-29.57-24.2-53.77-53.77-53.77s-53.77,24.2-53.77,53.77c0,17.92,19.12,53.77,34.05,78.86l3.58,5.68Z"/>
  <path class="z" d="M71.51,254.46c0-16.43,13.44-29.87,29.87-29.87s29.87,13.44,29.87,29.87-13.44,29.87-29.87,29.87-29.87-13.44-29.87-29.87ZM85.25,339c7.47,11.95,16.13,25.39,16.13,25.39,0,0,8.96-13.44,16.13-25.39l3.58-5.68c14.94-25.09,34.05-60.94,34.05-78.86,0-29.57-24.2-53.77-53.77-53.77s-53.77,24.2-53.77,53.77c0,17.92,19.12,53.77,34.05,78.86l3.58,5.68Z"/>
  <path class="z" d="M101.38,364.39s-3.65,19.22,9.48,34.6"/>
  <path class="z" d="M128.19,411.14s18.53,7.8,36.55-4.68"/>
  <path class="z" d="M178.24,391.26s3.18-3.15,3.28-16.49c.1-13.33,8.81-21.02,8.81-21.02"/>
  <path class="z" d="M258.15,321.48s3.16-3.17,3.19-16.5c.03-13.33,8.7-21.06,8.7-21.06"/>
  <path class="z" d="M204.47,342.37s3.37-2.94,16.68-2.09c13.31.85,21.59-7.29,21.59-7.29"/>
  <path class="z" d="M281.9,270.76s3.37-2.94,16.68-2.09c13.31.85,21.59-7.29,21.59-7.29"/>
  <path class="z" d="M334.56,250.77s10.08-10.33,7.21-37.83"/>
</svg>
