<?xml version='1.0' encoding='UTF-8'?>
<svg xmlns="http://www.w3.org/2000/svg" id="k" data-name="Localisation trajet" viewBox="0 0 453.54 453.54">
  <defs>
    <style>
      .aa {
        stroke: #8A5301;
        stroke-linecap: round;
        stroke-linejoin: round;
        stroke-width: 12px;
      }

      .aa, .ab {
        fill: none;
      }

      .ab {
        stroke-width: 0px;
      }
    </style>
  </defs>
  <circle class="ab" cx="336.84" cy="183.76" r="42.54"/>
  <g>
    <path class="aa" d="M294.05,184.63c0-23.32,19.08-42.4,42.4-42.4s42.4,19.08,42.4,42.4-19.08,42.4-42.4,42.4-42.4-19.08-42.4-42.4ZM313.55,304.64c10.6,16.96,22.9,36.04,22.9,36.04,0,0,12.72-19.08,22.9-36.04l5.09-8.06c21.2-35.62,48.34-86.51,48.34-111.95,0-41.98-34.35-76.33-76.33-76.33s-76.33,34.35-76.33,76.33c0,25.44,27.14,76.33,48.34,111.95l5.09,8.06Z"/>
    <path class="aa" d="M281.83,341.18H104.01c-38.01,0-68.82-33.06-68.82-73.84h0c0-40.78,30.81-73.84,68.82-73.84l85.61.29c20.81,0,37.69-18.1,37.69-40.43h0c0-22.33-16.87-40.43-37.69-40.43h-49.37"/>
  </g>
</svg>
