<?xml version='1.0' encoding='UTF-8'?>
<svg xmlns="http://www.w3.org/2000/svg" id="ba" data-name="Tirelire" viewBox="0 0 453.54 453.54">
  <defs>
    <style>
      .bu {
        fill: #144179;
        stroke-width: 0px;
      }
    </style>
  </defs>
  <path class="bu" d="M420.62,203.23c-3.3.12-5.76,3.04-5.78,6.33-.08,11.27-4.4,18.95-13.17,23.46-2.99,1.53-6.03,2.44-8.55,2.97-.01.01-.03-.01-.03-.03-1.62-28.1-17.93-54.24-46.32-74-20.42-14.23-45.5-24-72.8-28.59,0,0-.02.01-.03.02,0-.01.01-.01.01-.02,3.76-6.38,5.92-13.82,5.92-21.77,0-23.73-19.23-42.97-42.96-42.97s-42.97,19.24-42.97,42.97c0,6.8,1.58,13.24,4.4,18.95,0,.01.01.01.01.02-.01-.01-.02-.02-.03-.02l-28.47-.19s-.02,0-.03-.01l-34.21-46.88c-1.43-1.96-3.89-2.86-6.25-2.3-2.35.57-4.14,2.49-4.52,4.88l-8.41,52.32s-.01.02-.01.03c-12.43,5.81-28.42,26.06-35.45,35.56,0,0-.02,0-.03,0h-24.63c-9.19,0-16.64,7.45-16.64,16.64v41.34c0,9.91,6.36,18.54,15.77,21.44l29.31,9.43s.02.01.02.02c5.85,20.48,19.78,39.3,40.67,54.56.01,0,.02.02.01.03l-11.52,33.37c-1,2.9.35,6.09,3.12,7.39l34.14,16.03c.81.38,1.68.57,2.55.57.69,0,1.38-.12,2.04-.36,1.5-.54,2.72-1.65,3.39-3.09l14.13-30.09s.02-.02.04-.01c19.88,6.33,41.64,9.67,64.1,9.67,19.36,0,38.2-2.48,55.77-7.22,0-.01.02,0,.03.01l18.14,29.07c.88,1.4,2.29,2.38,3.9,2.7.4.08.8.12,1.19.12,1.23,0,2.44-.38,3.46-1.09l26.74-18.86c2.17-1.54,3.08-4.33,2.22-6.85l-8.62-25.2s0-.03,0-.03c2.21-1.37,4.38-2.79,6.49-4.27,27.38-19.06,43.52-44.05,46.09-71.03,0-.01.01-.02.02-.02,3.69-.58,8.75-1.79,13.82-4.31,9.19-4.58,20.14-14.32,20.14-34.7,0-3.39-2.81-6.12-6.22-6ZM202.47,116.14c0-.47.12-.91.32-1.3.48-.9,1.44-1.51,2.55-1.51h3.58c-.06-.77-.12-1.55-.12-2.34,0-.86.05-1.71.13-2.56-.34-.02-.67-.04-1-.07h-2.59c-.41,0-.8-.08-1.16-.24-.17-.01-.34-.02-.51-.03.03-.07.04-.13.07-.21-.77-.5-1.27-1.36-1.27-2.33v-2.95c0-1.55,1.29-2.8,2.87-2.8h5.63c.9-2.26,2.05-4.4,3.43-6.37,5.77-8.22,15.45-13.63,26.41-13.63,7.29,0,14.16,2.33,19.87,6.74h.01c1.24.97,1.45,2.74.47,3.96l-1.91,2.33c-.98,1.2-2.77,1.41-4,.45l-.03-.03c-4.14-3.2-9.12-4.88-14.41-4.88-8.62,0-16.15,4.61-20.15,11.43h33.27c1.12,0,2.1.64,2.57,1.56.19.37.29.8.29,1.24v2.95c0,1.55-1.28,2.81-2.86,2.81h-36.17c-.03.26-.05.52-.08.78-.05.61-.09,1.23-.09,1.85,0,.79.04,1.57.13,2.34h29.67l.09-.1c.17.04.33.07.5.1h5.95c.68,0,1.31.24,1.8.62.65.52,1.06,1.31,1.06,2.19v2.95c0,1.55-1.28,2.81-2.86,2.81h-33.45c1.87,3.3,4.57,6.11,7.82,8.14.4.25.81.49,1.23.71,1.92,1.06,4.01,1.84,6.22,2.32,1.63.36,3.32.55,5.06.55,3.92,0,7.67-.93,11.04-2.72,1.17-.62,2.3-1.34,3.37-2.17l.03-.02c1.23-.96,3.03-.76,4.01.45l1.89,2.32s.07.09.1.14c.87,1.21.63,2.89-.57,3.82-5.71,4.41-12.58,6.75-19.87,6.75-5.04,0-9.8-1.14-14.04-3.17-2.33-1.12-4.49-2.5-6.46-4.12-1.56-1.27-3.01-2.7-4.29-4.24-2.18-2.61-3.93-5.56-5.16-8.76h-5.52c-1.58,0-2.87-1.26-2.87-2.81v-2.95ZM336.29,311.93l-1.4-4.08c-1.07-3.13-4.48-4.8-7.61-3.73-3.14,1.07-4.81,4.48-3.74,7.62l2.19,6.41s.01-.01.02-.01c-.01,0-.02.02-.01.03l3.91,11.44,6.42,18.79s0,.03-.01.03l-17.83,12.58s-.04.01-.05-.01l-13.07-20.95-6.53-10.46s-.01-.01-.02-.01h.01s-5.06-8.13-5.06-8.13c-1.75-2.81-5.45-3.67-8.27-1.92-2.81,1.76-3.67,5.46-1.91,8.27l3.24,5.2c-15.34,3.82-31.88,5.91-49.13,5.91-21,0-40.97-3.09-58.97-8.65l.8-1.71c1.4-3,.12-6.57-2.88-7.98-3-1.41-6.58-.12-7.99,2.88l-1.34,2.85h.01s-.02.02-.02.03l-5.11,10.87-11.07,23.58s-.02.02-.04.02l-23.78-11.17s-.02-.02-.01-.04l8.74-25.3,3.99-11.58s0-.03-.01-.03c.01,0,.01.01.02.01l1.05-3.04c1.09-3.13-.58-6.55-3.71-7.63-3.06-1.06-6.41.51-7.55,3.52-14.04-10.89-24.61-23.91-30.53-38.25-.99-2.4-1.85-4.84-2.57-7.3-1.23-4.18-4.47-7.45-8.61-8.78l-5.72-1.84-23.09-7.42c-4.42-1.36-7.38-5.38-7.38-10v-41.34c0-2.56,2.08-4.64,4.64-4.64h27.69c1.93,0,3.74-.92,4.87-2.49,11.46-15.87,27.68-33.64,33.91-34.68,2.54-.43,4.52-2.43,4.93-4.97l6.68-41.59s.04-.03.05-.01l27.48,37.65c1.08,1.47,2.77,2.38,4.59,2.45.07.01.14.01.21.01l40.38.26s.03,0,.03-.03c.01,0,.03.02.04.03,7.71,7.41,18.2,11.96,29.74,11.96,10.71,0,20.51-3.92,28.04-10.4.02,0,.03-.03.05-.04-.02.01-.01.05.02.05,66.13,8.81,116.2,48.71,116.2,96.45,0,28.05-17.27,53.39-44.93,71.31Z"/>
  <path class="bu" d="M197.45,179.35c-2.82,0-5.33-1.99-5.88-4.86-.63-3.25,1.5-6.4,4.76-7.03,13.36-2.58,27.23-3.88,41.21-3.88,12.33,0,24.61,1.02,36.5,3.03,3.27.55,5.47,3.65,4.92,6.92-.55,3.27-3.64,5.47-6.92,4.92-11.22-1.9-22.83-2.86-34.49-2.86-13.23,0-26.33,1.23-38.94,3.67-.38.07-.77.11-1.14.11Z"/>
  <circle class="bu" cx="121.79" cy="181.15" r="9.69"/>
</svg>
