<?xml version='1.0' encoding='UTF-8'?>
<svg xmlns="http://www.w3.org/2000/svg" id="ax" data-name="Etiquette prix" viewBox="0 0 453.54 453.54">
  <defs>
    <style>
      .bu {
        fill: #5F1972;
      }

      .bu, .bv {
        stroke-width: 0px;
      }

      .bv {
        fill: #5F1972;
      }
    </style>
  </defs>
  <path class="bu" d="M418.07,226.91l-151.9-151.14c-1.12-1.12-2.64-1.75-4.23-1.75H110.8c-3.32,0-6,2.69-6,6v36.81c-14.86,5.39-29.06,15.34-40.3,28.3-14.07,16.22-22.55,35.67-23.87,54.79-1.36,19.74,5.02,36.8,17.96,48.03,9.57,8.31,21.8,12.61,35.35,12.61,4.77,0,9.69-.54,14.73-1.61,5.47-1.17,10.88-2.94,16.15-5.27l132.88,132.87c1.17,1.17,2.7,1.76,4.24,1.76s3.06-.58,4.23-1.75l151.9-151.14c1.14-1.13,1.77-2.66,1.77-4.25s-.63-3.13-1.77-4.26ZM106.16,247.21c-15.58,3.33-29.68.37-39.71-8.33-10.03-8.69-14.94-22.24-13.85-38.14,1.14-16.53,8.59-33.48,20.96-47.74,8.87-10.23,19.76-18.31,31.24-23.26v101.43c0,1.59.63,3.11,1.75,4.24l9.05,9.05c-3.11,1.15-6.27,2.07-9.44,2.75ZM261.95,373.83L116.8,228.68V86.02h142.66l145.88,145.15-143.39,142.66Z"/>
  <path class="bu" d="M198.53,136.7c0-17.12-13.93-31.05-31.05-31.05s-31.06,13.93-31.06,31.05,13.93,31.06,31.06,31.06c1.39,0,2.76-.09,4.11-.27,0,1.48-.05,2.98-.15,4.5-1.14,16.53-8.59,33.48-20.96,47.74-6.89,7.94-14.82,14.49-23.3,19.33l8.75,8.75c8.59-5.3,16.59-12.13,23.61-20.21,14.07-16.22,22.55-35.68,23.87-54.79.22-3.24.24-6.4.05-9.48,9.02-5.45,15.07-15.34,15.07-26.63ZM167.48,155.76c-10.51,0-19.06-8.55-19.06-19.06,0-2.82.61-5.49,1.71-7.89,2.69,1.38,5.19,3.06,7.46,5.03,6.35,5.5,10.65,12.96,12.67,21.72-.91.13-1.84.2-2.78.2ZM181.2,149.9c-2.83-9.95-8.16-18.53-15.74-25.12-2.13-1.85-4.4-3.5-6.81-4.96,2.64-1.39,5.64-2.17,8.83-2.17,10.5,0,19.05,8.54,19.05,19.05,0,5.13-2.03,9.78-5.33,13.2Z"/>
  <path class="bv" d="M271.72,285.55c-10.39-1.23-19.8-5.8-27.22-13.22-12.27-12.27-16.19-29.76-11.76-45.3l46.94,46.94c2.22,2.22,5.82,2.22,8.04,0l4.22-4.22c2.22-2.22,2.22-5.82,0-8.04l-50.82-50.82c.99-1.22,2.04-2.39,3.17-3.52,1.27-1.27,2.62-2.43,4-3.52l50.75,50.75c2.22,2.22,5.82,2.22,8.04,0l4.22-4.22c2.22-2.22,2.22-5.82,0-8.04l-46.69-46.69c15.37-4.13,32.53-.17,44.63,11.93,7.42,7.42,11.99,16.83,13.22,27.22v.08c.38,3.1,3.17,5.32,6.27,4.97l6-.67c3.13-.35,5.37-3.18,5-6.3h0c-1.7-14.34-8.01-27.32-18.24-37.55-19.08-19.08-47.28-23.48-70.49-13.27l-7.9-7.9c-2.22-2.22-5.82-2.22-8.04,0l-4.22,4.22c-2.22,2.22-2.22,5.82,0,8.04l5.05,5.05c-1.35,1.14-2.68,2.3-3.95,3.57-1.13,1.13-2.15,2.33-3.18,3.52l-5.03-5.03c-2.22-2.22-5.82-2.22-8.04,0l-4.22,4.22c-2.22,2.22-2.22,5.82,0,8.04l7.75,7.75c-10.53,23.31-6.23,51.82,13.01,71.06,10.23,10.23,23.21,16.54,37.54,18.24h0c3.13.37,5.97-1.88,6.32-5.01l.67-5.98c.35-3.1-1.88-5.91-4.98-6.27h-.07Z"/>
</svg>
