<?xml version='1.0' encoding='UTF-8'?>
<svg xmlns="http://www.w3.org/2000/svg" id="bc" data-name="Cout alimentaire" viewBox="0 0 453.54 453.54">
  <defs>
    <style>
      .bu {
        stroke-linecap: round;
        stroke-linejoin: round;
      }

      .bu, .bv {
        fill: none;
        stroke: #5F1972;
        stroke-width: 12px;
      }

      .bw {
        stroke: #fff;
        stroke-width: 2px;
      }

      .bw, .bx {
        fill: #5F1972;
      }

      .bw, .bv {
        stroke-miterlimit: 10;
      }

      .bx {
        stroke-width: 0px;
      }
    </style>
  </defs>
  <path class="bx" d="M95.7,143.53c.01-.15.01-.3.01-.45v.2c0,.09,0,.17-.01.25Z"/>
  <path class="bx" d="M60.93,143.28v-.2c0,.15,0,.3.01.45-.01-.08-.01-.16-.01-.25Z"/>
  <path class="bx" d="M60.93,143.08c0,.15,0,.3.01.45-.01-.08-.01-.16-.01-.25v-.2Z"/>
  <path class="bx" d="M95.71,143.08v.2c0,.09,0,.17-.01.25.01-.15.01-.3.01-.45Z"/>
  <path class="bw" d="M261.53,259.92c-8.31,6.55-18.31,10.01-28.92,10.01-17.56,0-32.86-9.7-40.81-23.98h67.14c3.17,0,5.75-2.57,5.75-5.75v-6.04c0-3.17-2.57-5.75-5.75-5.75h-72.69c-.16-1.57-.25-3.17-.25-4.79,0-1.82.13-3.61.34-5.38h72.6c3.17,0,5.75-2.57,5.75-5.75v-6.04c0-3.17-2.57-5.75-5.75-5.75h-66.78c8.04-13.95,23.14-23.39,40.45-23.39,10.61,0,20.61,3.46,28.92,10.01l.07.05c2.48,1.95,6.06,1.54,8.03-.92l3.81-4.77c1.99-2.49,1.57-6.12-.93-8.09h0c-11.46-9.04-25.26-13.81-39.89-13.81-27.3,0-50.61,17.02-59.91,40.92h-11.3c-3.17,0-5.75,2.57-5.75,5.75v6.04c0,3.17,2.57,5.75,5.75,5.75h7.22c-.15,1.78-.27,3.56-.27,5.38,0,1.62.12,3.2.24,4.79h-7.19c-3.17,0-5.75,2.57-5.75,5.75v6.04c0,3.17,2.57,5.75,5.75,5.75h11.08c9.14,24.21,32.61,41.51,60.12,41.51,14.63,0,28.43-4.77,39.89-13.8h0c2.5-1.97,2.92-5.61.93-8.1l-3.8-4.75c-1.97-2.47-5.57-2.88-8.05-.93l-.06.04Z"/>
  <g>
    <circle class="bv" cx="221.63" cy="227.73" r="106.68"/>
    <line class="bu" x1="61.17" y1="128.65" x2="61.17" y2="174.37"/>
    <line class="bu" x1="79.06" y1="128.65" x2="79.06" y2="174.37"/>
    <path class="bu" d="M97.83,126.65v55.38c0,4.61-1.34,9.18-4.07,12.9-2.81,3.84-7.43,7.45-14.82,7.45v129.78s-.92,8.46-9.46,8.46h1.03c-8.54,0-9.46-8.46-9.46-8.46v-129.78c-7.4,0-12.01-3.61-14.82-7.45s-4.07-8.28-4.07-12.9v-55.38"/>
    <path class="bu" d="M410.95,159.03c0-25.29-16.96-45.79-37.87-45.79s-37.87,20.5-37.87,45.79c0,19.56,10.14,36.24,24.42,42.8-.78,1.77-1.23,3.71-1.23,5.76v118.68c0,7.88,6.45,14.33,14.33,14.33h0c7.88,0,14.33-6.45,14.33-14.33v-118.68c0-1.95-.4-3.8-1.11-5.5,14.58-6.37,24.99-23.25,24.99-43.07Z"/>
  </g>
</svg>
