<?xml version='1.0' encoding='UTF-8'?>
<svg xmlns="http://www.w3.org/2000/svg" id="ag" data-name="Courir" viewBox="0 0 453.54 453.54">
  <defs>
    <style>
      .bu {
        fill: #5F1972;
        stroke-width: 0px;
      }
    </style>
  </defs>
  <path class="bu" d="M165.14,283.92l-55.36-2.23c-11.87-.48-21.88,8.75-22.37,20.62h0c-.5,12.22,9.27,22.41,21.5,22.41h73.73c21.19,0,39.46-14.89,43.73-35.64l1.7-8.24,22.38,29.64c7.13,9.44,12.75,19.94,16.67,31.11l21.66,61.82c3.74,10.67,15.45,16.26,26.1,12.46h0c10.38-3.71,15.94-15,12.53-25.49l-18.32-56.48c-5.37-16.54-13.57-32.03-24.25-45.75l-24.22-31.14,26.51-70.48,12.03,17.35c7.43,10.71,21.23,14.92,33.37,10.17l33.61-13.14c9.7-3.79,14.13-15.05,9.6-24.43h0c-4.09-8.49-14.07-12.35-22.81-8.82l-21.25,8.58c-6.51,2.63-13.97-.01-17.37-6.16l-9.48-17.12c-5.9-10.66-16.01-18.35-27.86-21.18l-12.04-2.88c-11.89-2.84-24.32-2.45-36,1.15l-38.07,11.71c-9.33,2.87-17.14,9.33-21.72,17.96l-20.03,37.81c-4.53,8.54-.87,19.14,7.97,23.06h0c8.08,3.59,17.55.26,21.6-7.6l19.89-38.54,9.74-3.89c4.05-1.62,8.19,2.15,6.95,6.33l-26.56,90.18c-3.05,10.36-12.75,17.31-23.54,16.88Z"/>
  <circle class="bu" cx="276.58" cy="78.42" r="39.31"/>
</svg>
