<?xml version='1.0' encoding='UTF-8'?>
<svg xmlns="http://www.w3.org/2000/svg" id="aj" data-name="Patinage" viewBox="0 0 453.54 453.54">
  <defs>
    <style>
      .bu {
        fill: #5F1972;
        stroke-width: 0px;
      }
    </style>
  </defs>
  <path class="bu" d="M377.52,117.87c13.67-13.04,14.17-34.69,1.13-48.36-13.04-13.67-34.69-14.17-48.36-1.13-13.67,13.04-14.17,34.69-1.13,48.36,13.04,13.67,34.69,14.17,48.36,1.13Z"/>
  <g>
    <path class="bu" d="M403.64,181.03l-44.27-.2-27.08-35.47c-.65-.86-1.39-1.62-2.17-2.28-.24-.28-.48-.55-.73-.82l-24.92-26.11c-.93-.97-1.95-1.81-3.03-2.54h0s-1.1-.89-1.1-.89v.02c-1.05-1-2.27-1.88-3.66-2.56l-47.11-23.04c-1.07-.52-2.17-.9-3.27-1.14-3.12-.88-6.7-.61-9.99,1.02l-47,23.25c-6.54,3.23-9.53,10.67-6.63,16.52l3.34,6.76c2.89,5.85,10.61,7.99,17.15,4.76l39.68-19.62,20.1,9.83-53.37,50.93-47.58,3.19-48.16-42.11c-7.66-6.7-18.84-6.58-24.84.28l-6.93,7.92c-6,6.86-4.63,17.95,3.04,24.65l55.09,48.16c3.41,2.98,7.51,4.61,11.55,4.9,1.61.29,3.29.4,5.02.28l44.97-3.02,13.53,14.18,41.53,49.32-5.47,63.74c-.87,10.14,5.84,19.08,14.92,19.86l10.48.9c9.08.78,17.21-6.88,18.08-17.03l6.26-72.91c.39-4.52-.73-8.79-2.89-12.21-.72-1.47-1.62-2.89-2.74-4.21l-29.61-35.16,53.14-50.71,20.28,26.56c.72.94,1.53,1.77,2.41,2.48,2.4,2.19,5.72,3.55,9.39,3.57l52.44.24c7.3.03,13.29-5.28,13.32-11.81l.03-7.54c.03-6.53-5.91-11.9-13.21-11.93Z"/>
    <path class="bu" d="M303.95,387.47h-84.01v9.97h84.01c14.2,0,25.95-11.51,25.95-25.7h-9.93c0,8.71-7.31,15.73-16.02,15.73Z"/>
    <path class="bu" d="M51.47,164.15c17-20.02,54.37-64.04,54.37-64.04l-7.6-6.45s-37.38,44.02-54.37,64.04c-9.19,10.82-8.02,27.23,2.8,36.41l6.43-7.57c-6.64-5.64-7.26-15.75-1.63-22.39Z"/>
  </g>
</svg>
