<?xml version='1.0' encoding='UTF-8'?>
<svg xmlns="http://www.w3.org/2000/svg" id="au" data-name="Ballon foot" viewBox="0 0 453.54 453.54">
  <defs>
    <style>
      .bu {
        fill: #5F1972;
        stroke: #5F1972;
        stroke-miterlimit: 10;
        stroke-width: 7px;
      }
    </style>
  </defs>
  <path class="bu" d="M405.15,293.91c.11-.19.16-.38.23-.58,7.59-20.35,11.75-42.36,11.75-65.32,0-7.17-.45-14.24-1.23-21.2,0-.12-.02-.24-.05-.37-6.04-52.51-33.81-98.5-74.11-128.67-.32-.36-.7-.65-1.15-.82-27.07-19.95-59.67-32.78-95.05-35.78-.18-.04-.35-.04-.54-.04-5.1-.42-10.25-.69-15.46-.69-30.75,0-59.76,7.48-85.39,20.65-.43.11-.81.31-1.15.58-31.56,16.49-57.86,41.69-75.71,72.41-.32.34-.56.74-.69,1.2-15.64,27.37-24.62,59.01-24.62,92.73,0,3.53.12,7.03.31,10.51-.42.95-.34,2.01.22,2.88,2.71,38.14,16.85,73.14,39.03,101.62.2.47.53.85.92,1.17,34.38,43.43,87.51,71.38,147.08,71.38,22.15,0,43.4-3.89,63.14-10.96.23-.05.44-.12.64-.22,51.49-18.67,92.53-59.29,111.81-110.48ZM297.06,396.32l24.05-73.43,76-25.43c-18.68,44.9-54.9,80.69-100.05,98.86ZM400.05,289.95l-80.68,26.99-39.21-34.9c5.69-14.5,13.23-71.87,16.61-99.32l47.84-24.66,65.29,50.59c.68,6.37,1.05,12.82,1.05,19.36,0,21.74-3.86,42.6-10.9,61.93ZM150.27,342.51l-64.14-3.68c-21.4-27.64-35-61.59-37.48-98.56l33-40.7,49.3,9.66,43.97,85.93-24.64,47.34ZM180.21,291.93l-43.41-84.85,70.5-70.5,83.27,45.83c-5.45,44.16-12.89,92.67-16.33,98.1-5.43,3.02-51.85,8.08-94.04,11.42ZM336.55,81.66l5.88,70.56-48.48,24.98-85.09-46.84-6.29-50.87,43.23-32.11c33.74,3.01,64.85,15.28,90.75,34.27ZM408.77,199.95l-60.03-46.52-5.56-66.66c34.37,27.71,58.48,67.65,65.58,113.18ZM236.21,46.8l-37.6,27.92-44.64-11.53c23.03-10.6,48.62-16.56,75.59-16.56,2.23,0,4.44.09,6.65.17ZM145.47,67.38l51,13.17,6.39,51.71-70.86,70.86-48.91-9.59-10.23-56.68c17.18-29.42,42.39-53.59,72.62-69.48ZM68.12,145.5l9,49.82-28.86,35.6c-.01-.97-.07-1.94-.07-2.91,0-29.71,7.22-57.74,19.93-82.51ZM91.4,345.33l59.08,3.39,42.78,57.02c-40.47-8.26-76.05-30.05-101.87-60.41ZM202.19,407.33l-46.46-61.92,24.61-47.28c26.48-2.09,81.85-6.92,95.43-11.71l39.31,34.99-25.46,77.72c-18.81,6.62-39.01,10.26-60.06,10.26-9.3,0-18.44-.71-27.38-2.07Z"/>
</svg>
